{
	"asset":{
		"generator":"Khronos glTF Blender I/O v4.4.56",
		"version":"2.0"
	},
	"scene":0,
	"scenes":[
		{
			"name":"Scene",
			"nodes":[
				0
			]
		}
	],
	"nodes":[
		{
			"mesh":0,
			"name":"\u7403",
			"scale":[
				11.844300270080566,
				11.844300270080566,
				11.844300270080566
			]
		}
	],
	"materials":[
		{
			"doubleSided":true,
			"name":"\u30de\u30c6\u30ea\u30a2\u30eb.002",
			"pbrMetallicRoughness":{
				"baseColorTexture":{
					"index":0
				},
				"metallicFactor":0,
				"roughnessFactor":0.5
			}
		}
	],
	"meshes":[
		{
			"name":"\u7403",
			"primitives":[
				{
					"attributes":{
						"POSITION":0,
						"NORMAL":1,
						"TEXCOORD_0":2
					},
					"indices":3,
					"material":0
				}
			]
		}
	],
	"textures":[
		{
			"sampler":0,
			"source":0
		}
	],
	"images":[
		{
			"mimeType":"image/png",
			"name":"Sunset_Cloudy",
			"uri":"Sunset_Cloudy.png"
		}
	],
	"accessors":[
		{
			"bufferView":0,
			"componentType":5126,
			"count":1004,
			"max":[
				40.60070037841797,
				40.600711822509766,
				40.600685119628906
			],
			"min":[
				-40.60067367553711,
				0,
				-40.600711822509766
			],
			"type":"VEC3"
		},
		{
			"bufferView":1,
			"componentType":5126,
			"count":1004,
			"type":"VEC3"
		},
		{
			"bufferView":2,
			"componentType":5126,
			"count":1004,
			"type":"VEC2"
		},
		{
			"bufferView":3,
			"componentType":5123,
			"count":1440,
			"type":"SCALAR"
		}
	],
	"bufferViews":[
		{
			"buffer":0,
			"byteLength":12048,
			"byteOffset":0,
			"target":34962
		},
		{
			"buffer":0,
			"byteLength":12048,
			"byteOffset":12048,
			"target":34962
		},
		{
			"buffer":0,
			"byteLength":8032,
			"byteOffset":24096,
			"target":34962
		},
		{
			"buffer":0,
			"byteLength":2880,
			"byteOffset":32128,
			"target":34963
		}
	],
	"samplers":[
		{
			"magFilter":9729,
			"minFilter":9987
		}
	],
	"buffers":[
		{
			"byteLength":35008,
			"uri":"SunSet.bin"
		}
	]
}
