{
	"asset":{
		"generator":"Khronos glTF Blender I/O v4.4.56",
		"version":"2.0"
	},
	"scene":0,
	"scenes":[
		{
			"name":"Scene",
			"nodes":[
				0
			]
		}
	],
	"nodes":[
		{
			"mesh":0,
			"name":"Cube.002",
			"rotation":[
				0,
				0.00042992844828404486,
				0,
				1
			],
			"translation":[
				-0.6472582221031189,
				0.1502821445465088,
				-0.036333441734313965
			]
		}
	],
	"materials":[
		{
			"doubleSided":true,
			"name":"\u30de\u30c6\u30ea\u30a2\u30eb",
			"pbrMetallicRoughness":{
				"baseColorFactor":[
					1,
					0,
					0.007217884063720703,
					1
				],
				"metallicFactor":0,
				"roughnessFactor":0.5
			}
		}
	],
	"meshes":[
		{
			"name":"Cube.004",
			"primitives":[
				{
					"attributes":{
						"POSITION":0,
						"NORMAL":1,
						"TEXCOORD_0":2
					},
					"indices":3,
					"material":0
				},
				{
					"attributes":{
						"POSITION":4,
						"NORMAL":5,
						"TEXCOORD_0":6
					},
					"indices":7,
					"material":0
				}
			]
		}
	],
	"accessors":[
		{
			"bufferView":0,
			"componentType":5126,
			"count":48,
			"max":[
				1.6208937168121338,
				0.8450552821159363,
				0.11688590794801712
			],
			"min":[
				-0.14449116587638855,
				0.05300251394510269,
				0.08379483968019485
			],
			"type":"VEC3"
		},
		{
			"bufferView":1,
			"componentType":5126,
			"count":48,
			"type":"VEC3"
		},
		{
			"bufferView":2,
			"componentType":5126,
			"count":48,
			"type":"VEC2"
		},
		{
			"bufferView":3,
			"componentType":5123,
			"count":72,
			"type":"SCALAR"
		},
		{
			"bufferView":4,
			"componentType":5126,
			"count":396,
			"max":[
				1.5395694971084595,
				1.062184453010559,
				0.18286822736263275
			],
			"min":[
				-0.07331281900405884,
				-0.14487183094024658,
				0.11460521817207336
			],
			"type":"VEC3"
		},
		{
			"bufferView":5,
			"componentType":5126,
			"count":396,
			"type":"VEC3"
		},
		{
			"bufferView":6,
			"componentType":5126,
			"count":396,
			"type":"VEC2"
		},
		{
			"bufferView":7,
			"componentType":5123,
			"count":720,
			"type":"SCALAR"
		}
	],
	"bufferViews":[
		{
			"buffer":0,
			"byteLength":576,
			"byteOffset":0,
			"target":34962
		},
		{
			"buffer":0,
			"byteLength":576,
			"byteOffset":576,
			"target":34962
		},
		{
			"buffer":0,
			"byteLength":384,
			"byteOffset":1152,
			"target":34962
		},
		{
			"buffer":0,
			"byteLength":144,
			"byteOffset":1536,
			"target":34963
		},
		{
			"buffer":0,
			"byteLength":4752,
			"byteOffset":1680,
			"target":34962
		},
		{
			"buffer":0,
			"byteLength":4752,
			"byteOffset":6432,
			"target":34962
		},
		{
			"buffer":0,
			"byteLength":3168,
			"byteOffset":11184,
			"target":34962
		},
		{
			"buffer":0,
			"byteLength":1440,
			"byteOffset":14352,
			"target":34963
		}
	],
	"buffers":[
		{
			"byteLength":15792,
			"uri":"Fence.bin"
		}
	]
}
