{
	"asset":{
		"generator":"Khronos glTF Blender I/O v4.4.56",
		"version":"2.0"
	},
	"extensionsUsed":[
		"KHR_texture_transform"
	],
	"extensionsRequired":[
		"KHR_texture_transform"
	],
	"scene":0,
	"scenes":[
		{
			"name":"Scene",
			"nodes":[
				22
			]
		}
	],
	"nodes":[
		{
			"mesh":0,
			"name":"Base_LOD0",
			"rotation":[
				-0.70710688829422,
				0,
				0,
				0.7071066498756409
			],
			"scale":[
				0.7800000309944153,
				0.726871907711029,
				0.7800000309944153
			],
			"translation":[
				4.3185343742370605,
				2.4295740127563477,
				-80.00316619873047
			]
		},
		{
			"children":[
				0
			],
			"name":"Base"
		},
		{
			"mesh":1,
			"name":"Door_EL_LOD0",
			"rotation":[
				-0.49956122040748596,
				-0.5004338622093201,
				0.5004385113716125,
				0.49956586956977844
			],
			"scale":[
				0.5337244868278503,
				0.5853020548820496,
				0.5853021144866943
			],
			"translation":[
				295.8209228515625,
				56.605430603027344,
				-251.5504608154297
			]
		},
		{
			"mesh":2,
			"name":"Door_ER_LOD0",
			"rotation":[
				-0.49956122040748596,
				-0.5004338622093201,
				0.5004385113716125,
				0.49956586956977844
			],
			"scale":[
				0.5337244868278503,
				0.5853020548820496,
				0.5853021144866943
			],
			"translation":[
				296.0242614746094,
				-59.85472106933594,
				-251.55044555664062
			]
		},
		{
			"mesh":3,
			"name":"Door_NL_LOD0",
			"rotation":[
				-0.7071065306663513,
				-0.0006170275155454874,
				0.0006170272827148438,
				0.7071065902709961
			],
			"scale":[
				0.5337243676185608,
				0.5853021144866943,
				0.5853021144866943
			],
			"translation":[
				60.708065032958984,
				-294.0268249511719,
				-251.55044555664062
			]
		},
		{
			"mesh":4,
			"name":"Door_NR_LOD0",
			"rotation":[
				-0.7071065306663513,
				-0.0006170275155454874,
				0.0006170272827148438,
				0.7071065902709961
			],
			"scale":[
				0.5337243676185608,
				0.5853021144866943,
				0.5853021144866943
			],
			"translation":[
				-55.7520866394043,
				-294.23004150390625,
				-251.55044555664062
			]
		},
		{
			"mesh":5,
			"name":"Door_SL_LOD0",
			"rotation":[
				-0.0006169145926833153,
				0.7071065902709961,
				-0.7071065306663513,
				0.0006169144762679935
			],
			"scale":[
				0.5337245464324951,
				0.5853021144866943,
				0.5853021144866943
			],
			"translation":[
				-54.82426834106445,
				291.61761474609375,
				-251.5504608154297
			]
		},
		{
			"mesh":6,
			"name":"Door_SR_LOD0",
			"rotation":[
				-0.0006169145926833153,
				0.7071065902709961,
				-0.7071065306663513,
				0.0006169144762679935
			],
			"scale":[
				0.5337245464324951,
				0.5853021144866943,
				0.5853021144866943
			],
			"translation":[
				61.63591766357422,
				291.8208923339844,
				-251.5504608154297
			]
		},
		{
			"mesh":7,
			"name":"Door_WL_LOD0",
			"rotation":[
				-0.5004385709762573,
				0.49956580996513367,
				-0.49956104159355164,
				0.5004338026046753
			],
			"scale":[
				0.5337244868278503,
				0.5853020548820496,
				0.5853021144866943
			],
			"translation":[
				-289.91357421875,
				-58.94490432739258,
				-251.55044555664062
			]
		},
		{
			"mesh":8,
			"name":"Door_WR_LOD0",
			"rotation":[
				-0.5004385709762573,
				0.49956580996513367,
				-0.49956104159355164,
				0.5004338026046753
			],
			"scale":[
				0.5337244868278503,
				0.5853020548820496,
				0.5853021144866943
			],
			"translation":[
				-290.1168212890625,
				57.51527786254883,
				-251.55047607421875
			]
		},
		{
			"children":[
				2,
				3,
				4,
				5,
				6,
				7,
				8,
				9
			],
			"name":"Doors"
		},
		{
			"mesh":9,
			"name":"Roof1_LOD0",
			"rotation":[
				-0.70710688829422,
				0,
				0,
				0.7071066498756409
			],
			"scale":[
				0.4732167720794678,
				0.47321680188179016,
				0.47321680188179016
			],
			"translation":[
				2.5568723678588867,
				-2.061450719833374,
				-775.9846801757812
			]
		},
		{
			"mesh":10,
			"name":"Wall1_LOD0",
			"rotation":[
				0.49956363439559937,
				0.5004360675811768,
				-0.49956363439559937,
				0.5004360675811768
			],
			"scale":[
				0.3511812388896942,
				0.45185354351997375,
				0.45185354351997375
			],
			"translation":[
				-312.1509094238281,
				287.8444519042969,
				-232.8805694580078
			]
		},
		{
			"children":[
				11,
				12
			],
			"name":"Floor1"
		},
		{
			"mesh":11,
			"name":"Roof2_LOD0",
			"rotation":[
				-0.70710688829422,
				0,
				0,
				0.7071066498756409
			],
			"scale":[
				0.4613863229751587,
				0.4613863527774811,
				0.4613863527774811
			],
			"translation":[
				2.5667428970336914,
				-2.0392212867736816,
				-1270.615234375
			]
		},
		{
			"mesh":12,
			"name":"Wall2_LOD0",
			"rotation":[
				0.4995635449886322,
				0.5004360675811768,
				-0.4995635747909546,
				0.5004360675811768
			],
			"scale":[
				0.3424016237258911,
				0.44055718183517456,
				0.44055724143981934
			],
			"translation":[
				-304.2733154296875,
				280.6190185546875,
				-741.0886840820312
			]
		},
		{
			"children":[
				14,
				15
			],
			"name":"Floor2"
		},
		{
			"mesh":13,
			"name":"Roof3_LOD0",
			"rotation":[
				-0.70710688829422,
				0,
				0,
				0.7071066498756409
			],
			"scale":[
				0.12402839213609695,
				0.45173147320747375,
				0.12402825802564621
			],
			"translation":[
				2.3325324058532715,
				-2.201113700866699,
				-1932.4754638671875
			]
		},
		{
			"mesh":14,
			"name":"Wall3_LOD0",
			"rotation":[
				0.4995635449886322,
				0.5004360675811768,
				-0.4995635449886322,
				0.5004360675811768
			],
			"scale":[
				0.33384159207344055,
				0.4295433461666107,
				0.42954346537590027
			],
			"translation":[
				-296.5924377441406,
				273.5749816894531,
				-1246.455810546875
			]
		},
		{
			"children":[
				17,
				18
			],
			"name":"Floor3"
		},
		{
			"mesh":15,
			"name":"Sorin_LOD0",
			"rotation":[
				-0.7071069478988647,
				0,
				0,
				0.7071066498756409
			],
			"scale":[
				0.6823737621307373,
				0.6823738217353821,
				0.6823738217353821
			],
			"translation":[
				0.722205638885498,
				-0.4719086289405823,
				-2039.8311767578125
			]
		},
		{
			"children":[
				20
			],
			"name":"Sorin"
		},
		{
			"children":[
				1,
				10,
				13,
				16,
				19,
				21
			],
			"name":"Pagoda_Sanju_31m__1_",
			"rotation":[
				0.70710688829422,
				0,
				0,
				0.7071066498756409
			],
			"scale":[
				0.009999999776482582,
				0.010000000707805157,
				0.010000000707805157
			]
		}
	],
	"materials":[
		{
			"doubleSided":true,
			"name":"mat_basalt_base_01.001",
			"pbrMetallicRoughness":{
				"baseColorTexture":{
					"extensions":{
						"KHR_texture_transform":{
							"offset":[
								0,
								0.6500000059604645
							],
							"scale":[
								0.3499999940395355,
								0.3499999940395355
							]
						}
					},
					"index":0
				},
				"metallicFactor":0,
				"roughnessFactor":0.5527864098548889
			}
		},
		{
			"doubleSided":true,
			"name":"mat_stone_wall_02",
			"pbrMetallicRoughness":{
				"baseColorTexture":{
					"extensions":{
						"KHR_texture_transform":{
							"offset":[
								0,
								0.8999999985098839
							],
							"scale":[
								0.10000000149011612,
								0.10000000149011612
							]
						}
					},
					"index":1
				},
				"metallicFactor":0,
				"roughnessFactor":0.5527864098548889
			}
		},
		{
			"doubleSided":true,
			"name":"mat_wood_plank_03.001",
			"pbrMetallicRoughness":{
				"baseColorTexture":{
					"index":2
				},
				"metallicFactor":0,
				"roughnessFactor":0.5527864098548889
			}
		},
		{
			"doubleSided":true,
			"name":"mat_wood_pillarRed_02",
			"pbrMetallicRoughness":{
				"baseColorTexture":{
					"extensions":{
						"KHR_texture_transform":{
							"offset":[
								0,
								0.5
							],
							"scale":[
								0.5,
								0.5
							]
						}
					},
					"index":3
				},
				"metallicFactor":0,
				"roughnessFactor":0.5527864098548889
			}
		},
		{
			"doubleSided":true,
			"name":"mat_wood_beamRed_02",
			"pbrMetallicRoughness":{
				"baseColorTexture":{
					"extensions":{
						"KHR_texture_transform":{
							"offset":[
								0,
								0.5
							],
							"scale":[
								0.5,
								0.5
							]
						}
					},
					"index":4
				},
				"metallicFactor":0,
				"roughnessFactor":0.5527864098548889
			}
		},
		{
			"doubleSided":true,
			"name":"mat_metal_copper_antique_01.001",
			"pbrMetallicRoughness":{
				"baseColorTexture":{
					"index":5
				},
				"metallicFactor":0,
				"roughnessFactor":0.5527864098548889
			}
		},
		{
			"doubleSided":true,
			"name":"mat_wood_wall_01.001",
			"pbrMetallicRoughness":{
				"baseColorTexture":{
					"extensions":{
						"KHR_texture_transform":{
							"offset":[
								0,
								0.5
							],
							"scale":[
								0.5,
								0.5
							]
						}
					},
					"index":6
				},
				"metallicFactor":0,
				"roughnessFactor":0.5527864098548889
			}
		},
		{
			"doubleSided":true,
			"name":"mat_decal_pagoda_01.001",
			"pbrMetallicRoughness":{
				"metallicFactor":0,
				"roughnessFactor":0.5527864098548889
			}
		},
		{
			"doubleSided":true,
			"name":"mat_clay_tile_01.001",
			"pbrMetallicRoughness":{
				"baseColorTexture":{
					"extensions":{
						"KHR_texture_transform":{
							"offset":[
								0,
								0.5
							],
							"scale":[
								0.5,
								0.5
							]
						}
					},
					"index":7
				},
				"metallicFactor":0,
				"roughnessFactor":0.5527864098548889
			}
		},
		{
			"doubleSided":true,
			"name":"mat_clay_tile_02.001",
			"pbrMetallicRoughness":{
				"baseColorTexture":{
					"extensions":{
						"KHR_texture_transform":{
							"offset":[
								0,
								0.5
							],
							"scale":[
								0.5,
								0.5
							]
						}
					},
					"index":8
				},
				"metallicFactor":0,
				"roughnessFactor":0.5527864098548889
			}
		},
		{
			"doubleSided":true,
			"name":"mat_wood_paint_white_01",
			"pbrMetallicRoughness":{
				"baseColorTexture":{
					"extensions":{
						"KHR_texture_transform":{
							"offset":[
								0,
								0.5
							],
							"scale":[
								0.5,
								0.5
							]
						}
					},
					"index":9
				},
				"metallicFactor":0,
				"roughnessFactor":0.5527864098548889
			}
		},
		{
			"doubleSided":true,
			"name":"mat_clay_fired_01.001",
			"pbrMetallicRoughness":{
				"baseColorTexture":{
					"extensions":{
						"KHR_texture_transform":{
							"offset":[
								0,
								0.5
							],
							"scale":[
								0.5,
								0.5
							]
						}
					},
					"index":10
				},
				"metallicFactor":0,
				"roughnessFactor":0.5527864098548889
			}
		},
		{
			"doubleSided":true,
			"name":"mat_wood_paint_green_01",
			"pbrMetallicRoughness":{
				"baseColorTexture":{
					"extensions":{
						"KHR_texture_transform":{
							"offset":[
								0,
								0.5
							],
							"scale":[
								0.5,
								0.5
							]
						}
					},
					"index":11
				},
				"metallicFactor":0,
				"roughnessFactor":0.5527864098548889
			}
		},
		{
			"doubleSided":true,
			"name":"mat_metal_copper_patina_01.001",
			"pbrMetallicRoughness":{
				"baseColorTexture":{
					"extensions":{
						"KHR_texture_transform":{
							"offset":[
								0,
								0.5
							],
							"scale":[
								0.5,
								0.5
							]
						}
					},
					"index":12
				},
				"metallicFactor":0,
				"roughnessFactor":0.5527864098548889
			}
		}
	],
	"meshes":[
		{
			"name":"Scene.038",
			"primitives":[
				{
					"attributes":{
						"POSITION":0,
						"NORMAL":1,
						"TEXCOORD_0":2
					},
					"indices":3,
					"material":0
				},
				{
					"attributes":{
						"POSITION":4,
						"NORMAL":5,
						"TEXCOORD_0":6
					},
					"indices":7,
					"material":1
				},
				{
					"attributes":{
						"POSITION":8,
						"NORMAL":9,
						"TEXCOORD_0":10
					},
					"indices":11,
					"material":2
				},
				{
					"attributes":{
						"POSITION":12,
						"NORMAL":13,
						"TEXCOORD_0":14
					},
					"indices":15,
					"material":3
				},
				{
					"attributes":{
						"POSITION":16,
						"NORMAL":17,
						"TEXCOORD_0":18
					},
					"indices":19,
					"material":4
				},
				{
					"attributes":{
						"POSITION":20,
						"NORMAL":21,
						"TEXCOORD_0":22
					},
					"indices":23,
					"material":5
				}
			]
		},
		{
			"name":"Scene.039",
			"primitives":[
				{
					"attributes":{
						"POSITION":24,
						"NORMAL":25,
						"TEXCOORD_0":26
					},
					"indices":27,
					"material":6
				},
				{
					"attributes":{
						"POSITION":28,
						"NORMAL":29,
						"TEXCOORD_0":30
					},
					"indices":31,
					"material":7
				}
			]
		},
		{
			"name":"Scene.040",
			"primitives":[
				{
					"attributes":{
						"POSITION":32,
						"NORMAL":33,
						"TEXCOORD_0":34
					},
					"indices":35,
					"material":6
				},
				{
					"attributes":{
						"POSITION":36,
						"NORMAL":37,
						"TEXCOORD_0":38
					},
					"indices":39,
					"material":7
				}
			]
		},
		{
			"name":"Scene.041",
			"primitives":[
				{
					"attributes":{
						"POSITION":40,
						"NORMAL":41,
						"TEXCOORD_0":42
					},
					"indices":27,
					"material":6
				},
				{
					"attributes":{
						"POSITION":43,
						"NORMAL":44,
						"TEXCOORD_0":45
					},
					"indices":31,
					"material":7
				}
			]
		},
		{
			"name":"Scene.042",
			"primitives":[
				{
					"attributes":{
						"POSITION":46,
						"NORMAL":47,
						"TEXCOORD_0":48
					},
					"indices":35,
					"material":6
				},
				{
					"attributes":{
						"POSITION":49,
						"NORMAL":50,
						"TEXCOORD_0":51
					},
					"indices":39,
					"material":7
				}
			]
		},
		{
			"name":"Scene.043",
			"primitives":[
				{
					"attributes":{
						"POSITION":52,
						"NORMAL":53,
						"TEXCOORD_0":54
					},
					"indices":27,
					"material":6
				},
				{
					"attributes":{
						"POSITION":55,
						"NORMAL":56,
						"TEXCOORD_0":57
					},
					"indices":31,
					"material":7
				}
			]
		},
		{
			"name":"Scene.044",
			"primitives":[
				{
					"attributes":{
						"POSITION":58,
						"NORMAL":59,
						"TEXCOORD_0":60
					},
					"indices":35,
					"material":6
				},
				{
					"attributes":{
						"POSITION":61,
						"NORMAL":62,
						"TEXCOORD_0":63
					},
					"indices":39,
					"material":7
				}
			]
		},
		{
			"name":"Scene.045",
			"primitives":[
				{
					"attributes":{
						"POSITION":64,
						"NORMAL":65,
						"TEXCOORD_0":66
					},
					"indices":27,
					"material":6
				},
				{
					"attributes":{
						"POSITION":67,
						"NORMAL":68,
						"TEXCOORD_0":69
					},
					"indices":31,
					"material":7
				}
			]
		},
		{
			"name":"Scene.046",
			"primitives":[
				{
					"attributes":{
						"POSITION":70,
						"NORMAL":71,
						"TEXCOORD_0":72
					},
					"indices":35,
					"material":6
				},
				{
					"attributes":{
						"POSITION":73,
						"NORMAL":74,
						"TEXCOORD_0":75
					},
					"indices":39,
					"material":7
				}
			]
		},
		{
			"name":"Scene.048",
			"primitives":[
				{
					"attributes":{
						"POSITION":76,
						"NORMAL":77,
						"TEXCOORD_0":78
					},
					"indices":79,
					"material":2
				},
				{
					"attributes":{
						"POSITION":80,
						"NORMAL":81,
						"TEXCOORD_0":82
					},
					"indices":83,
					"material":3
				},
				{
					"attributes":{
						"POSITION":84,
						"NORMAL":85,
						"TEXCOORD_0":86
					},
					"indices":87,
					"material":8
				},
				{
					"attributes":{
						"POSITION":88,
						"NORMAL":89,
						"TEXCOORD_0":90
					},
					"indices":91,
					"material":9
				},
				{
					"attributes":{
						"POSITION":92,
						"NORMAL":93,
						"TEXCOORD_0":94
					},
					"indices":95,
					"material":10
				},
				{
					"attributes":{
						"POSITION":96,
						"NORMAL":97,
						"TEXCOORD_0":98
					},
					"indices":99,
					"material":11
				},
				{
					"attributes":{
						"POSITION":100,
						"NORMAL":101,
						"TEXCOORD_0":102
					},
					"indices":103,
					"material":7
				},
				{
					"attributes":{
						"POSITION":104,
						"NORMAL":105,
						"TEXCOORD_0":106
					},
					"indices":107,
					"material":4
				}
			]
		},
		{
			"name":"Scene.047",
			"primitives":[
				{
					"attributes":{
						"POSITION":108,
						"NORMAL":109,
						"TEXCOORD_0":110
					},
					"indices":111,
					"material":4
				},
				{
					"attributes":{
						"POSITION":112,
						"NORMAL":113,
						"TEXCOORD_0":114
					},
					"indices":115,
					"material":5
				},
				{
					"attributes":{
						"POSITION":116,
						"NORMAL":117,
						"TEXCOORD_0":118
					},
					"indices":119,
					"material":10
				},
				{
					"attributes":{
						"POSITION":120,
						"NORMAL":121,
						"TEXCOORD_0":122
					},
					"indices":123,
					"material":12
				},
				{
					"attributes":{
						"POSITION":124,
						"NORMAL":125,
						"TEXCOORD_0":126
					},
					"indices":127,
					"material":3
				},
				{
					"attributes":{
						"POSITION":128,
						"NORMAL":129,
						"TEXCOORD_0":130
					},
					"indices":131,
					"material":2
				},
				{
					"attributes":{
						"POSITION":132,
						"NORMAL":133,
						"TEXCOORD_0":134
					},
					"indices":135,
					"material":7
				},
				{
					"attributes":{
						"POSITION":136,
						"NORMAL":137,
						"TEXCOORD_0":138
					},
					"indices":139,
					"material":13
				}
			]
		},
		{
			"name":"Scene.050",
			"primitives":[
				{
					"attributes":{
						"POSITION":140,
						"NORMAL":141,
						"TEXCOORD_0":142
					},
					"indices":79,
					"material":2
				},
				{
					"attributes":{
						"POSITION":143,
						"NORMAL":144,
						"TEXCOORD_0":145
					},
					"indices":146,
					"material":3
				},
				{
					"attributes":{
						"POSITION":147,
						"NORMAL":148,
						"TEXCOORD_0":149
					},
					"indices":87,
					"material":8
				},
				{
					"attributes":{
						"POSITION":150,
						"NORMAL":151,
						"TEXCOORD_0":152
					},
					"indices":91,
					"material":9
				},
				{
					"attributes":{
						"POSITION":153,
						"NORMAL":154,
						"TEXCOORD_0":155
					},
					"indices":95,
					"material":10
				},
				{
					"attributes":{
						"POSITION":156,
						"NORMAL":157,
						"TEXCOORD_0":158
					},
					"indices":159,
					"material":11
				},
				{
					"attributes":{
						"POSITION":160,
						"NORMAL":161,
						"TEXCOORD_0":162
					},
					"indices":103,
					"material":7
				},
				{
					"attributes":{
						"POSITION":163,
						"NORMAL":164,
						"TEXCOORD_0":165
					},
					"indices":166,
					"material":4
				}
			]
		},
		{
			"name":"Scene.049",
			"primitives":[
				{
					"attributes":{
						"POSITION":167,
						"NORMAL":168,
						"TEXCOORD_0":169
					},
					"indices":170,
					"material":5
				},
				{
					"attributes":{
						"POSITION":171,
						"NORMAL":172,
						"TEXCOORD_0":173
					},
					"indices":119,
					"material":10
				},
				{
					"attributes":{
						"POSITION":174,
						"NORMAL":175,
						"TEXCOORD_0":176
					},
					"indices":123,
					"material":12
				},
				{
					"attributes":{
						"POSITION":177,
						"NORMAL":178,
						"TEXCOORD_0":179
					},
					"indices":180,
					"material":4
				},
				{
					"attributes":{
						"POSITION":181,
						"NORMAL":182,
						"TEXCOORD_0":183
					},
					"indices":184,
					"material":3
				},
				{
					"attributes":{
						"POSITION":185,
						"NORMAL":186,
						"TEXCOORD_0":187
					},
					"indices":188,
					"material":2
				},
				{
					"attributes":{
						"POSITION":189,
						"NORMAL":190,
						"TEXCOORD_0":191
					},
					"indices":192,
					"material":7
				},
				{
					"attributes":{
						"POSITION":193,
						"NORMAL":194,
						"TEXCOORD_0":195
					},
					"indices":139,
					"material":13
				}
			]
		},
		{
			"name":"Scene.052",
			"primitives":[
				{
					"attributes":{
						"POSITION":196,
						"NORMAL":197,
						"TEXCOORD_0":198
					},
					"indices":199,
					"material":2
				},
				{
					"attributes":{
						"POSITION":200,
						"NORMAL":201,
						"TEXCOORD_0":202
					},
					"indices":203,
					"material":3
				},
				{
					"attributes":{
						"POSITION":204,
						"NORMAL":205,
						"TEXCOORD_0":206
					},
					"indices":207,
					"material":8
				},
				{
					"attributes":{
						"POSITION":208,
						"NORMAL":209,
						"TEXCOORD_0":210
					},
					"indices":211,
					"material":10
				},
				{
					"attributes":{
						"POSITION":212,
						"NORMAL":213,
						"TEXCOORD_0":214
					},
					"indices":215,
					"material":9
				},
				{
					"attributes":{
						"POSITION":216,
						"NORMAL":217,
						"TEXCOORD_0":218
					},
					"indices":219,
					"material":11
				},
				{
					"attributes":{
						"POSITION":220,
						"NORMAL":221,
						"TEXCOORD_0":222
					},
					"indices":223,
					"material":7
				}
			]
		},
		{
			"name":"Scene.051",
			"primitives":[
				{
					"attributes":{
						"POSITION":224,
						"NORMAL":225,
						"TEXCOORD_0":226
					},
					"indices":170,
					"material":5
				},
				{
					"attributes":{
						"POSITION":227,
						"NORMAL":228,
						"TEXCOORD_0":229
					},
					"indices":119,
					"material":10
				},
				{
					"attributes":{
						"POSITION":230,
						"NORMAL":231,
						"TEXCOORD_0":232
					},
					"indices":123,
					"material":12
				},
				{
					"attributes":{
						"POSITION":233,
						"NORMAL":234,
						"TEXCOORD_0":235
					},
					"indices":180,
					"material":4
				},
				{
					"attributes":{
						"POSITION":236,
						"NORMAL":237,
						"TEXCOORD_0":238
					},
					"indices":184,
					"material":3
				},
				{
					"attributes":{
						"POSITION":239,
						"NORMAL":240,
						"TEXCOORD_0":241
					},
					"indices":188,
					"material":2
				},
				{
					"attributes":{
						"POSITION":242,
						"NORMAL":243,
						"TEXCOORD_0":244
					},
					"indices":192,
					"material":7
				},
				{
					"attributes":{
						"POSITION":245,
						"NORMAL":246,
						"TEXCOORD_0":247
					},
					"indices":139,
					"material":13
				}
			]
		},
		{
			"name":"Scene.037",
			"primitives":[
				{
					"attributes":{
						"POSITION":248,
						"NORMAL":249,
						"TEXCOORD_0":250
					},
					"indices":251,
					"material":5
				},
				{
					"attributes":{
						"POSITION":252,
						"NORMAL":253,
						"TEXCOORD_0":254
					},
					"indices":255,
					"material":7
				}
			]
		}
	],
	"textures":[
		{
			"sampler":0,
			"source":0
		},
		{
			"sampler":0,
			"source":1
		},
		{
			"sampler":0,
			"source":2
		},
		{
			"sampler":0,
			"source":3
		},
		{
			"sampler":0,
			"source":3
		},
		{
			"sampler":0,
			"source":4
		},
		{
			"sampler":0,
			"source":5
		},
		{
			"sampler":0,
			"source":6
		},
		{
			"sampler":0,
			"source":7
		},
		{
			"sampler":0,
			"source":3
		},
		{
			"sampler":0,
			"source":8
		},
		{
			"sampler":0,
			"source":3
		},
		{
			"sampler":0,
			"source":9
		}
	],
	"images":[
		{
			"mimeType":"image/png",
			"name":"DiffuseColor_Texture_1",
			"uri":"DiffuseColor_Texture_1.png"
		},
		{
			"mimeType":"image/png",
			"name":"DiffuseColor_Texture_2",
			"uri":"DiffuseColor_Texture_2.png"
		},
		{
			"mimeType":"image/png",
			"name":"DiffuseColor_Texture_3",
			"uri":"DiffuseColor_Texture_3.png"
		},
		{
			"mimeType":"image/png",
			"name":"DiffuseColor_Texture_4",
			"uri":"DiffuseColor_Texture_4.png"
		},
		{
			"mimeType":"image/png",
			"name":"DiffuseColor_Texture",
			"uri":"DiffuseColor_Texture.png"
		},
		{
			"mimeType":"image/png",
			"name":"DiffuseColor_Texture_6",
			"uri":"DiffuseColor_Texture_6.png"
		},
		{
			"mimeType":"image/png",
			"name":"DiffuseColor_Texture_7",
			"uri":"DiffuseColor_Texture_7.png"
		},
		{
			"mimeType":"image/png",
			"name":"DiffuseColor_Texture_8",
			"uri":"DiffuseColor_Texture_8.png"
		},
		{
			"mimeType":"image/png",
			"name":"DiffuseColor_Texture_9",
			"uri":"DiffuseColor_Texture_9.png"
		},
		{
			"mimeType":"image/png",
			"name":"DiffuseColor_Texture_5",
			"uri":"DiffuseColor_Texture_5.png"
		}
	],
	"accessors":[
		{
			"bufferView":0,
			"componentType":5126,
			"count":656,
			"max":[
				1036.52099609375,
				163.52928161621094,
				1037.05810546875
			],
			"min":[
				-1035.656494140625,
				-114.79313659667969,
				-1037.7120361328125
			],
			"type":"VEC3"
		},
		{
			"bufferView":1,
			"componentType":5126,
			"count":656,
			"type":"VEC3"
		},
		{
			"bufferView":2,
			"componentType":5126,
			"count":656,
			"type":"VEC2"
		},
		{
			"bufferView":3,
			"componentType":5123,
			"count":984,
			"type":"SCALAR"
		},
		{
			"bufferView":4,
			"componentType":5126,
			"count":20,
			"max":[
				879.9999389648438,
				0.02359151840209961,
				879.9999389648438
			],
			"min":[
				-879.9999389648438,
				-114.88528442382812,
				-879.9999389648438
			],
			"type":"VEC3"
		},
		{
			"bufferView":5,
			"componentType":5126,
			"count":20,
			"type":"VEC3"
		},
		{
			"bufferView":6,
			"componentType":5126,
			"count":20,
			"type":"VEC2"
		},
		{
			"bufferView":7,
			"componentType":5123,
			"count":30,
			"type":"SCALAR"
		},
		{
			"bufferView":8,
			"componentType":5126,
			"count":8,
			"max":[
				659.1468505859375,
				198.90313720703125,
				655.6446533203125
			],
			"min":[
				-663.6491088867188,
				185.60870361328125,
				-667.1512451171875
			],
			"type":"VEC3"
		},
		{
			"bufferView":9,
			"componentType":5126,
			"count":8,
			"type":"VEC3"
		},
		{
			"bufferView":10,
			"componentType":5126,
			"count":8,
			"type":"VEC2"
		},
		{
			"bufferView":11,
			"componentType":5123,
			"count":12,
			"type":"SCALAR"
		},
		{
			"bufferView":12,
			"componentType":5126,
			"count":306,
			"max":[
				648.396728515625,
				301.6116638183594,
				645.3532104492188
			],
			"min":[
				-651.9392700195312,
				39.962860107421875,
				-654.7113647460938
			],
			"type":"VEC3"
		},
		{
			"bufferView":13,
			"componentType":5126,
			"count":306,
			"type":"VEC3"
		},
		{
			"bufferView":14,
			"componentType":5126,
			"count":306,
			"type":"VEC2"
		},
		{
			"bufferView":15,
			"componentType":5123,
			"count":456,
			"type":"SCALAR"
		},
		{
			"bufferView":16,
			"componentType":5126,
			"count":231,
			"max":[
				804.0014038085938,
				253.17453002929688,
				800.345703125
			],
			"min":[
				-808.89111328125,
				39.978431701660156,
				-812.5817260742188
			],
			"type":"VEC3"
		},
		{
			"bufferView":17,
			"componentType":5126,
			"count":231,
			"type":"VEC3"
		},
		{
			"bufferView":18,
			"componentType":5126,
			"count":231,
			"type":"VEC2"
		},
		{
			"bufferView":19,
			"componentType":5123,
			"count":339,
			"type":"SCALAR"
		},
		{
			"bufferView":20,
			"componentType":5126,
			"count":252,
			"max":[
				648.5587768554688,
				373.1946716308594,
				646.7596435546875
			],
			"min":[
				-652.6876831054688,
				298.16510009765625,
				-655.2620849609375
			],
			"type":"VEC3"
		},
		{
			"bufferView":21,
			"componentType":5126,
			"count":252,
			"type":"VEC3"
		},
		{
			"bufferView":22,
			"componentType":5126,
			"count":252,
			"type":"VEC2"
		},
		{
			"bufferView":23,
			"componentType":5123,
			"count":504,
			"type":"SCALAR"
		},
		{
			"bufferView":24,
			"componentType":5126,
			"count":24,
			"max":[
				8.805620193481445,
				298.2643127441406,
				5
			],
			"min":[
				-107.19437408447266,
				0,
				-5
			],
			"type":"VEC3"
		},
		{
			"bufferView":25,
			"componentType":5126,
			"count":24,
			"type":"VEC3"
		},
		{
			"bufferView":26,
			"componentType":5126,
			"count":24,
			"type":"VEC2"
		},
		{
			"bufferView":27,
			"componentType":5123,
			"count":36,
			"type":"SCALAR"
		},
		{
			"bufferView":28,
			"componentType":5126,
			"count":12,
			"max":[
				6.947612762451172,
				295.0010681152344,
				-5.558709621429443
			],
			"min":[
				-101.89878845214844,
				1.9742012023925781,
				-5.558804988861084
			],
			"type":"VEC3"
		},
		{
			"bufferView":29,
			"componentType":5126,
			"count":12,
			"type":"VEC3"
		},
		{
			"bufferView":30,
			"componentType":5126,
			"count":12,
			"type":"VEC2"
		},
		{
			"bufferView":31,
			"componentType":5123,
			"count":12,
			"type":"SCALAR"
		},
		{
			"bufferView":32,
			"componentType":5126,
			"count":48,
			"max":[
				116.817626953125,
				298.2643127441406,
				5
			],
			"min":[
				-5.602777004241943,
				0,
				-7.908786773681641
			],
			"type":"VEC3"
		},
		{
			"bufferView":33,
			"componentType":5126,
			"count":48,
			"type":"VEC3"
		},
		{
			"bufferView":34,
			"componentType":5126,
			"count":48,
			"type":"VEC2"
		},
		{
			"bufferView":35,
			"componentType":5123,
			"count":72,
			"type":"SCALAR"
		},
		{
			"bufferView":36,
			"componentType":5126,
			"count":32,
			"max":[
				116.81768798828125,
				295.0010681152344,
				-5.558614253997803
			],
			"min":[
				-3.883761167526245,
				1.9742012023925781,
				-8.194724082946777
			],
			"type":"VEC3"
		},
		{
			"bufferView":37,
			"componentType":5126,
			"count":32,
			"type":"VEC3"
		},
		{
			"bufferView":38,
			"componentType":5126,
			"count":32,
			"type":"VEC2"
		},
		{
			"bufferView":39,
			"componentType":5123,
			"count":42,
			"type":"SCALAR"
		},
		{
			"bufferView":40,
			"componentType":5126,
			"count":24,
			"max":[
				8.805620193481445,
				298.2643127441406,
				5
			],
			"min":[
				-107.19437408447266,
				0,
				-5
			],
			"type":"VEC3"
		},
		{
			"bufferView":41,
			"componentType":5126,
			"count":24,
			"type":"VEC3"
		},
		{
			"bufferView":42,
			"componentType":5126,
			"count":24,
			"type":"VEC2"
		},
		{
			"bufferView":43,
			"componentType":5126,
			"count":12,
			"max":[
				6.947630882263184,
				295.0010681152344,
				-5.558805465698242
			],
			"min":[
				-101.8988037109375,
				1.9742012023925781,
				-5.558900833129883
			],
			"type":"VEC3"
		},
		{
			"bufferView":44,
			"componentType":5126,
			"count":12,
			"type":"VEC3"
		},
		{
			"bufferView":45,
			"componentType":5126,
			"count":12,
			"type":"VEC2"
		},
		{
			"bufferView":46,
			"componentType":5126,
			"count":48,
			"max":[
				116.817626953125,
				298.2643127441406,
				5
			],
			"min":[
				-5.602777004241943,
				0,
				-7.908786773681641
			],
			"type":"VEC3"
		},
		{
			"bufferView":47,
			"componentType":5126,
			"count":48,
			"type":"VEC3"
		},
		{
			"bufferView":48,
			"componentType":5126,
			"count":48,
			"type":"VEC2"
		},
		{
			"bufferView":49,
			"componentType":5126,
			"count":32,
			"max":[
				116.81768798828125,
				295.0010681152344,
				-5.558614730834961
			],
			"min":[
				-3.8837730884552,
				1.9742012023925781,
				-8.194769859313965
			],
			"type":"VEC3"
		},
		{
			"bufferView":50,
			"componentType":5126,
			"count":32,
			"type":"VEC3"
		},
		{
			"bufferView":51,
			"componentType":5126,
			"count":32,
			"type":"VEC2"
		},
		{
			"bufferView":52,
			"componentType":5126,
			"count":24,
			"max":[
				8.805620193481445,
				298.2643127441406,
				5
			],
			"min":[
				-107.19437408447266,
				0,
				-5
			],
			"type":"VEC3"
		},
		{
			"bufferView":53,
			"componentType":5126,
			"count":24,
			"type":"VEC3"
		},
		{
			"bufferView":54,
			"componentType":5126,
			"count":24,
			"type":"VEC2"
		},
		{
			"bufferView":55,
			"componentType":5126,
			"count":12,
			"max":[
				6.947630882263184,
				295.0010681152344,
				-5.558757781982422
			],
			"min":[
				-101.89881134033203,
				1.9742012023925781,
				-5.558805465698242
			],
			"type":"VEC3"
		},
		{
			"bufferView":56,
			"componentType":5126,
			"count":12,
			"type":"VEC3"
		},
		{
			"bufferView":57,
			"componentType":5126,
			"count":12,
			"type":"VEC2"
		},
		{
			"bufferView":58,
			"componentType":5126,
			"count":48,
			"max":[
				116.817626953125,
				298.2643127441406,
				5
			],
			"min":[
				-5.602777004241943,
				0,
				-7.908786773681641
			],
			"type":"VEC3"
		},
		{
			"bufferView":59,
			"componentType":5126,
			"count":48,
			"type":"VEC3"
		},
		{
			"bufferView":60,
			"componentType":5126,
			"count":48,
			"type":"VEC2"
		},
		{
			"bufferView":61,
			"componentType":5126,
			"count":32,
			"max":[
				116.81766510009766,
				295.0010681152344,
				-5.558710098266602
			],
			"min":[
				-3.8837730884552,
				1.9742012023925781,
				-8.194865226745605
			],
			"type":"VEC3"
		},
		{
			"bufferView":62,
			"componentType":5126,
			"count":32,
			"type":"VEC3"
		},
		{
			"bufferView":63,
			"componentType":5126,
			"count":32,
			"type":"VEC2"
		},
		{
			"bufferView":64,
			"componentType":5126,
			"count":24,
			"max":[
				8.805620193481445,
				298.2643127441406,
				5
			],
			"min":[
				-107.19437408447266,
				0,
				-5
			],
			"type":"VEC3"
		},
		{
			"bufferView":65,
			"componentType":5126,
			"count":24,
			"type":"VEC3"
		},
		{
			"bufferView":66,
			"componentType":5126,
			"count":24,
			"type":"VEC2"
		},
		{
			"bufferView":67,
			"componentType":5126,
			"count":12,
			"max":[
				6.947612762451172,
				295.0010681152344,
				-5.558757305145264
			],
			"min":[
				-101.89878845214844,
				1.9742012023925781,
				-5.558804988861084
			],
			"type":"VEC3"
		},
		{
			"bufferView":68,
			"componentType":5126,
			"count":12,
			"type":"VEC3"
		},
		{
			"bufferView":69,
			"componentType":5126,
			"count":12,
			"type":"VEC2"
		},
		{
			"bufferView":70,
			"componentType":5126,
			"count":48,
			"max":[
				116.817626953125,
				298.2643127441406,
				5
			],
			"min":[
				-5.602777004241943,
				0,
				-7.908786773681641
			],
			"type":"VEC3"
		},
		{
			"bufferView":71,
			"componentType":5126,
			"count":48,
			"type":"VEC3"
		},
		{
			"bufferView":72,
			"componentType":5126,
			"count":48,
			"type":"VEC2"
		},
		{
			"bufferView":73,
			"componentType":5126,
			"count":32,
			"max":[
				116.81766510009766,
				295.0010681152344,
				-5.558757305145264
			],
			"min":[
				-3.883761167526245,
				1.9742012023925781,
				-8.194867134094238
			],
			"type":"VEC3"
		},
		{
			"bufferView":74,
			"componentType":5126,
			"count":32,
			"type":"VEC3"
		},
		{
			"bufferView":75,
			"componentType":5126,
			"count":32,
			"type":"VEC2"
		},
		{
			"bufferView":76,
			"componentType":5126,
			"count":93,
			"max":[
				1348.64208984375,
				64.34825897216797,
				1351.501220703125
			],
			"min":[
				-1349.0130615234375,
				-309.8014221191406,
				-1351.501220703125
			],
			"type":"VEC3"
		},
		{
			"bufferView":77,
			"componentType":5126,
			"count":93,
			"type":"VEC3"
		},
		{
			"bufferView":78,
			"componentType":5126,
			"count":93,
			"type":"VEC2"
		},
		{
			"bufferView":79,
			"componentType":5123,
			"count":144,
			"type":"SCALAR"
		},
		{
			"bufferView":80,
			"componentType":5126,
			"count":959,
			"max":[
				1323.0377197265625,
				115.99657440185547,
				1325.845947265625
			],
			"min":[
				-1323.4085693359375,
				-363.6452941894531,
				-1325.845947265625
			],
			"type":"VEC3"
		},
		{
			"bufferView":81,
			"componentType":5126,
			"count":959,
			"type":"VEC3"
		},
		{
			"bufferView":82,
			"componentType":5126,
			"count":959,
			"type":"VEC2"
		},
		{
			"bufferView":83,
			"componentType":5123,
			"count":1365,
			"type":"SCALAR"
		},
		{
			"bufferView":84,
			"componentType":5126,
			"count":290,
			"max":[
				1363.5047607421875,
				-20.986331939697266,
				1364.594482421875
			],
			"min":[
				-1361.876953125,
				-282.1684265136719,
				-1360.82568359375
			],
			"type":"VEC3"
		},
		{
			"bufferView":85,
			"componentType":5126,
			"count":290,
			"type":"VEC3"
		},
		{
			"bufferView":86,
			"componentType":5126,
			"count":290,
			"type":"VEC2"
		},
		{
			"bufferView":87,
			"componentType":5123,
			"count":462,
			"type":"SCALAR"
		},
		{
			"bufferView":88,
			"componentType":5126,
			"count":60,
			"max":[
				1348.64208984375,
				-21.539365768432617,
				1351.501220703125
			],
			"min":[
				-1349.0130615234375,
				-278.4217224121094,
				-1351.501220703125
			],
			"type":"VEC3"
		},
		{
			"bufferView":89,
			"componentType":5126,
			"count":60,
			"type":"VEC3"
		},
		{
			"bufferView":90,
			"componentType":5126,
			"count":60,
			"type":"VEC2"
		},
		{
			"bufferView":91,
			"componentType":5123,
			"count":72,
			"type":"SCALAR"
		},
		{
			"bufferView":92,
			"componentType":5126,
			"count":76,
			"max":[
				1323.03759765625,
				21.311418533325195,
				1325.845947265625
			],
			"min":[
				-1323.4085693359375,
				-363.6452941894531,
				-1325.845947265625
			],
			"type":"VEC3"
		},
		{
			"bufferView":93,
			"componentType":5126,
			"count":76,
			"type":"VEC3"
		},
		{
			"bufferView":94,
			"componentType":5126,
			"count":76,
			"type":"VEC2"
		},
		{
			"bufferView":95,
			"componentType":5123,
			"count":102,
			"type":"SCALAR"
		},
		{
			"bufferView":96,
			"componentType":5126,
			"count":1407,
			"max":[
				1371.576171875,
				-95.33960723876953,
				1374.037353515625
			],
			"min":[
				-1371.259033203125,
				-310.1518859863281,
				-1367.9869384765625
			],
			"type":"VEC3"
		},
		{
			"bufferView":97,
			"componentType":5126,
			"count":1407,
			"type":"VEC3"
		},
		{
			"bufferView":98,
			"componentType":5126,
			"count":1407,
			"type":"VEC2"
		},
		{
			"bufferView":99,
			"componentType":5123,
			"count":1527,
			"type":"SCALAR"
		},
		{
			"bufferView":100,
			"componentType":5126,
			"count":1301,
			"max":[
				1374.6148681640625,
				-41.75289535522461,
				1374.6728515625
			],
			"min":[
				-1373.2767333984375,
				-298.6703186035156,
				-1369.788330078125
			],
			"type":"VEC3"
		},
		{
			"bufferView":101,
			"componentType":5126,
			"count":1301,
			"type":"VEC3"
		},
		{
			"bufferView":102,
			"componentType":5126,
			"count":1301,
			"type":"VEC2"
		},
		{
			"bufferView":103,
			"componentType":5123,
			"count":1368,
			"type":"SCALAR"
		},
		{
			"bufferView":104,
			"componentType":5126,
			"count":630,
			"max":[
				877.0740356445312,
				174.17300415039062,
				876.9595336914062
			],
			"min":[
				-875.3869018554688,
				-27.709619522094727,
				-868.2747802734375
			],
			"type":"VEC3"
		},
		{
			"bufferView":105,
			"componentType":5126,
			"count":630,
			"type":"VEC3"
		},
		{
			"bufferView":106,
			"componentType":5126,
			"count":630,
			"type":"VEC2"
		},
		{
			"bufferView":107,
			"componentType":5123,
			"count":888,
			"type":"SCALAR"
		},
		{
			"bufferView":108,
			"componentType":5126,
			"count":244,
			"max":[
				1078.7220458984375,
				1584.1085205078125,
				1528.6781005859375
			],
			"min":[
				-24.97410011291504,
				-190.16355895996094,
				-244.79946899414062
			],
			"type":"VEC3"
		},
		{
			"bufferView":109,
			"componentType":5126,
			"count":244,
			"type":"VEC3"
		},
		{
			"bufferView":110,
			"componentType":5126,
			"count":244,
			"type":"VEC2"
		},
		{
			"bufferView":111,
			"componentType":5123,
			"count":348,
			"type":"SCALAR"
		},
		{
			"bufferView":112,
			"componentType":5126,
			"count":75,
			"max":[
				1064.787109375,
				2024.5048828125,
				1970.7169189453125
			],
			"min":[
				912.4882202148438,
				-632.0713500976562,
				-689.0469970703125
			],
			"type":"VEC3"
		},
		{
			"bufferView":113,
			"componentType":5126,
			"count":75,
			"type":"VEC3"
		},
		{
			"bufferView":114,
			"componentType":5126,
			"count":75,
			"type":"VEC2"
		},
		{
			"bufferView":115,
			"componentType":5123,
			"count":105,
			"type":"SCALAR"
		},
		{
			"bufferView":116,
			"componentType":5126,
			"count":96,
			"max":[
				1334.442138671875,
				1340.6744384765625,
				1285.2440185546875
			],
			"min":[
				46.01470947265625,
				51.81141662597656,
				-3.4198880195617676
			],
			"type":"VEC3"
		},
		{
			"bufferView":117,
			"componentType":5126,
			"count":96,
			"type":"VEC3"
		},
		{
			"bufferView":118,
			"componentType":5126,
			"count":96,
			"type":"VEC2"
		},
		{
			"bufferView":119,
			"componentType":5123,
			"count":144,
			"type":"SCALAR"
		},
		{
			"bufferView":120,
			"componentType":5126,
			"count":128,
			"max":[
				758.2742309570312,
				1390.179931640625,
				1334.776123046875
			],
			"min":[
				259.2726135253906,
				2.279690742492676,
				-53.03199768066406
			],
			"type":"VEC3"
		},
		{
			"bufferView":121,
			"componentType":5126,
			"count":128,
			"type":"VEC3"
		},
		{
			"bufferView":122,
			"componentType":5126,
			"count":128,
			"type":"VEC2"
		},
		{
			"bufferView":123,
			"componentType":5123,
			"count":192,
			"type":"SCALAR"
		},
		{
			"bufferView":124,
			"componentType":5126,
			"count":368,
			"max":[
				1283.952392578125,
				2113.156982421875,
				2057.726806640625
			],
			"min":[
				52.62028503417969,
				-720.671630859375,
				-775.9029541015625
			],
			"type":"VEC3"
		},
		{
			"bufferView":125,
			"componentType":5126,
			"count":368,
			"type":"VEC3"
		},
		{
			"bufferView":126,
			"componentType":5126,
			"count":368,
			"type":"VEC2"
		},
		{
			"bufferView":127,
			"componentType":5123,
			"count":528,
			"type":"SCALAR"
		},
		{
			"bufferView":128,
			"componentType":5126,
			"count":176,
			"max":[
				1253.000732421875,
				1828.1663818359375,
				1772.803955078125
			],
			"min":[
				1108.980224609375,
				-435.7324523925781,
				-491.1343688964844
			],
			"type":"VEC3"
		},
		{
			"bufferView":129,
			"componentType":5126,
			"count":176,
			"type":"VEC3"
		},
		{
			"bufferView":130,
			"componentType":5126,
			"count":176,
			"type":"VEC2"
		},
		{
			"bufferView":131,
			"componentType":5123,
			"count":240,
			"type":"SCALAR"
		},
		{
			"bufferView":132,
			"componentType":5126,
			"count":474,
			"max":[
				758.5653076171875,
				1395.6771240234375,
				1340.1900634765625
			],
			"min":[
				254.4505615234375,
				-2.9928159713745117,
				-58.38603973388672
			],
			"type":"VEC3"
		},
		{
			"bufferView":133,
			"componentType":5126,
			"count":474,
			"type":"VEC3"
		},
		{
			"bufferView":134,
			"componentType":5126,
			"count":474,
			"type":"VEC2"
		},
		{
			"bufferView":135,
			"componentType":5123,
			"count":990,
			"type":"SCALAR"
		},
		{
			"bufferView":136,
			"componentType":5126,
			"count":3,
			"max":[
				1079.9395751953125,
				-601.7764892578125,
				1938.190673828125
			],
			"min":[
				1076.3433837890625,
				-612.1846923828125,
				1937.8858642578125
			],
			"type":"VEC3"
		},
		{
			"bufferView":137,
			"componentType":5126,
			"count":3,
			"type":"VEC3"
		},
		{
			"bufferView":138,
			"componentType":5126,
			"count":3,
			"type":"VEC2"
		},
		{
			"bufferView":139,
			"componentType":5123,
			"count":3,
			"type":"SCALAR"
		},
		{
			"bufferView":140,
			"componentType":5126,
			"count":93,
			"max":[
				1348.64208984375,
				64.3478775024414,
				1351.501220703125
			],
			"min":[
				-1349.0130615234375,
				-309.8014221191406,
				-1351.501220703125
			],
			"type":"VEC3"
		},
		{
			"bufferView":141,
			"componentType":5126,
			"count":93,
			"type":"VEC3"
		},
		{
			"bufferView":142,
			"componentType":5126,
			"count":93,
			"type":"VEC2"
		},
		{
			"bufferView":143,
			"componentType":5126,
			"count":950,
			"max":[
				1323.0377197265625,
				115.9961929321289,
				1325.845947265625
			],
			"min":[
				-1323.4085693359375,
				-363.6452941894531,
				-1325.845947265625
			],
			"type":"VEC3"
		},
		{
			"bufferView":144,
			"componentType":5126,
			"count":950,
			"type":"VEC3"
		},
		{
			"bufferView":145,
			"componentType":5126,
			"count":950,
			"type":"VEC2"
		},
		{
			"bufferView":146,
			"componentType":5123,
			"count":1356,
			"type":"SCALAR"
		},
		{
			"bufferView":147,
			"componentType":5126,
			"count":290,
			"max":[
				1363.5047607421875,
				-20.986331939697266,
				1364.594482421875
			],
			"min":[
				-1361.876953125,
				-282.1684265136719,
				-1360.82568359375
			],
			"type":"VEC3"
		},
		{
			"bufferView":148,
			"componentType":5126,
			"count":290,
			"type":"VEC3"
		},
		{
			"bufferView":149,
			"componentType":5126,
			"count":290,
			"type":"VEC2"
		},
		{
			"bufferView":150,
			"componentType":5126,
			"count":60,
			"max":[
				1348.64208984375,
				-21.539365768432617,
				1351.501220703125
			],
			"min":[
				-1349.0130615234375,
				-278.4217224121094,
				-1351.501220703125
			],
			"type":"VEC3"
		},
		{
			"bufferView":151,
			"componentType":5126,
			"count":60,
			"type":"VEC3"
		},
		{
			"bufferView":152,
			"componentType":5126,
			"count":60,
			"type":"VEC2"
		},
		{
			"bufferView":153,
			"componentType":5126,
			"count":76,
			"max":[
				1323.03759765625,
				21.311037063598633,
				1325.845947265625
			],
			"min":[
				-1323.4085693359375,
				-363.6452941894531,
				-1325.845947265625
			],
			"type":"VEC3"
		},
		{
			"bufferView":154,
			"componentType":5126,
			"count":76,
			"type":"VEC3"
		},
		{
			"bufferView":155,
			"componentType":5126,
			"count":76,
			"type":"VEC2"
		},
		{
			"bufferView":156,
			"componentType":5126,
			"count":1411,
			"max":[
				1371.576171875,
				-95.33960723876953,
				1374.037353515625
			],
			"min":[
				-1371.259033203125,
				-310.1518859863281,
				-1367.9869384765625
			],
			"type":"VEC3"
		},
		{
			"bufferView":157,
			"componentType":5126,
			"count":1411,
			"type":"VEC3"
		},
		{
			"bufferView":158,
			"componentType":5126,
			"count":1411,
			"type":"VEC2"
		},
		{
			"bufferView":159,
			"componentType":5123,
			"count":1533,
			"type":"SCALAR"
		},
		{
			"bufferView":160,
			"componentType":5126,
			"count":1301,
			"max":[
				1374.6148681640625,
				-41.75289535522461,
				1374.6728515625
			],
			"min":[
				-1373.2767333984375,
				-298.6703186035156,
				-1369.788330078125
			],
			"type":"VEC3"
		},
		{
			"bufferView":161,
			"componentType":5126,
			"count":1301,
			"type":"VEC3"
		},
		{
			"bufferView":162,
			"componentType":5126,
			"count":1301,
			"type":"VEC2"
		},
		{
			"bufferView":163,
			"componentType":5126,
			"count":635,
			"max":[
				877.0740356445312,
				174.17237854003906,
				878.3370361328125
			],
			"min":[
				-873.9891357421875,
				-27.71000099182129,
				-868.2747802734375
			],
			"type":"VEC3"
		},
		{
			"bufferView":164,
			"componentType":5126,
			"count":635,
			"type":"VEC3"
		},
		{
			"bufferView":165,
			"componentType":5126,
			"count":635,
			"type":"VEC2"
		},
		{
			"bufferView":166,
			"componentType":5123,
			"count":891,
			"type":"SCALAR"
		},
		{
			"bufferView":167,
			"componentType":5126,
			"count":75,
			"max":[
				1064.787109375,
				2024.5048828125,
				1969.1429443359375
			],
			"min":[
				912.5045166015625,
				-632.0713500976562,
				-689.0471801757812
			],
			"type":"VEC3"
		},
		{
			"bufferView":168,
			"componentType":5126,
			"count":75,
			"type":"VEC3"
		},
		{
			"bufferView":169,
			"componentType":5126,
			"count":75,
			"type":"VEC2"
		},
		{
			"bufferView":170,
			"componentType":5123,
			"count":105,
			"type":"SCALAR"
		},
		{
			"bufferView":171,
			"componentType":5126,
			"count":96,
			"max":[
				1334.442138671875,
				1340.6744384765625,
				1285.2440185546875
			],
			"min":[
				46.01470947265625,
				51.81141662597656,
				-3.4198880195617676
			],
			"type":"VEC3"
		},
		{
			"bufferView":172,
			"componentType":5126,
			"count":96,
			"type":"VEC3"
		},
		{
			"bufferView":173,
			"componentType":5126,
			"count":96,
			"type":"VEC2"
		},
		{
			"bufferView":174,
			"componentType":5126,
			"count":128,
			"max":[
				758.2742309570312,
				1390.179931640625,
				1334.776123046875
			],
			"min":[
				259.2726135253906,
				2.279690742492676,
				-53.03199768066406
			],
			"type":"VEC3"
		},
		{
			"bufferView":175,
			"componentType":5126,
			"count":128,
			"type":"VEC3"
		},
		{
			"bufferView":176,
			"componentType":5126,
			"count":128,
			"type":"VEC2"
		},
		{
			"bufferView":177,
			"componentType":5126,
			"count":160,
			"max":[
				821.6314086914062,
				1390.57080078125,
				1335.140380859375
			],
			"min":[
				52.62034606933594,
				1.9149959087371826,
				-53.316219329833984
			],
			"type":"VEC3"
		},
		{
			"bufferView":178,
			"componentType":5126,
			"count":160,
			"type":"VEC3"
		},
		{
			"bufferView":179,
			"componentType":5126,
			"count":160,
			"type":"VEC2"
		},
		{
			"bufferView":180,
			"componentType":5123,
			"count":240,
			"type":"SCALAR"
		},
		{
			"bufferView":181,
			"componentType":5126,
			"count":432,
			"max":[
				1283.952392578125,
				2113.156982421875,
				2057.726806640625
			],
			"min":[
				52.62028503417969,
				-720.671630859375,
				-775.9029541015625
			],
			"type":"VEC3"
		},
		{
			"bufferView":182,
			"componentType":5126,
			"count":432,
			"type":"VEC3"
		},
		{
			"bufferView":183,
			"componentType":5126,
			"count":432,
			"type":"VEC2"
		},
		{
			"bufferView":184,
			"componentType":5123,
			"count":624,
			"type":"SCALAR"
		},
		{
			"bufferView":185,
			"componentType":5126,
			"count":147,
			"max":[
				1253.000732421875,
				1828.1663818359375,
				1772.803955078125
			],
			"min":[
				1108.980224609375,
				-435.7324523925781,
				-491.1343688964844
			],
			"type":"VEC3"
		},
		{
			"bufferView":186,
			"componentType":5126,
			"count":147,
			"type":"VEC3"
		},
		{
			"bufferView":187,
			"componentType":5126,
			"count":147,
			"type":"VEC2"
		},
		{
			"bufferView":188,
			"componentType":5123,
			"count":195,
			"type":"SCALAR"
		},
		{
			"bufferView":189,
			"componentType":5126,
			"count":442,
			"max":[
				665.209228515625,
				1395.6771240234375,
				1340.1900634765625
			],
			"min":[
				254.4505615234375,
				-2.9928159713745117,
				-58.38603973388672
			],
			"type":"VEC3"
		},
		{
			"bufferView":190,
			"componentType":5126,
			"count":442,
			"type":"VEC3"
		},
		{
			"bufferView":191,
			"componentType":5126,
			"count":442,
			"type":"VEC2"
		},
		{
			"bufferView":192,
			"componentType":5123,
			"count":942,
			"type":"SCALAR"
		},
		{
			"bufferView":193,
			"componentType":5126,
			"count":3,
			"max":[
				1079.9395751953125,
				-601.7764892578125,
				1938.190673828125
			],
			"min":[
				1076.3433837890625,
				-612.1846923828125,
				1937.8858642578125
			],
			"type":"VEC3"
		},
		{
			"bufferView":194,
			"componentType":5126,
			"count":3,
			"type":"VEC3"
		},
		{
			"bufferView":195,
			"componentType":5126,
			"count":3,
			"type":"VEC2"
		},
		{
			"bufferView":196,
			"componentType":5126,
			"count":31,
			"max":[
				4895.353515625,
				179.64822387695312,
				4907.115234375
			],
			"min":[
				-4898.1494140625,
				-687.1104125976562,
				-4907.19091796875
			],
			"type":"VEC3"
		},
		{
			"bufferView":197,
			"componentType":5126,
			"count":31,
			"type":"VEC3"
		},
		{
			"bufferView":198,
			"componentType":5126,
			"count":31,
			"type":"VEC2"
		},
		{
			"bufferView":199,
			"componentType":5123,
			"count":42,
			"type":"SCALAR"
		},
		{
			"bufferView":200,
			"componentType":5126,
			"count":1924,
			"max":[
				4855.95361328125,
				247.71978759765625,
				4848.48876953125
			],
			"min":[
				-4854.7109375,
				-762.0546875,
				-4854.96240234375
			],
			"type":"VEC3"
		},
		{
			"bufferView":201,
			"componentType":5126,
			"count":1924,
			"type":"VEC3"
		},
		{
			"bufferView":202,
			"componentType":5126,
			"count":1924,
			"type":"VEC2"
		},
		{
			"bufferView":203,
			"componentType":5123,
			"count":2292,
			"type":"SCALAR"
		},
		{
			"bufferView":204,
			"componentType":5126,
			"count":1623,
			"max":[
				4976.11328125,
				213.21812438964844,
				4975.5966796875
			],
			"min":[
				-4974.8720703125,
				-699.9546508789062,
				-4975.123046875
			],
			"type":"VEC3"
		},
		{
			"bufferView":205,
			"componentType":5126,
			"count":1623,
			"type":"VEC3"
		},
		{
			"bufferView":206,
			"componentType":5126,
			"count":1623,
			"type":"VEC2"
		},
		{
			"bufferView":207,
			"componentType":5123,
			"count":2427,
			"type":"SCALAR"
		},
		{
			"bufferView":208,
			"componentType":5126,
			"count":30,
			"max":[
				4803.87939453125,
				-536.1688842773438,
				4813.341796875
			],
			"min":[
				-4803.99951171875,
				-726.7293701171875,
				-4814.0380859375
			],
			"type":"VEC3"
		},
		{
			"bufferView":209,
			"componentType":5126,
			"count":30,
			"type":"VEC3"
		},
		{
			"bufferView":210,
			"componentType":5126,
			"count":30,
			"type":"VEC2"
		},
		{
			"bufferView":211,
			"componentType":5123,
			"count":42,
			"type":"SCALAR"
		},
		{
			"bufferView":212,
			"componentType":5126,
			"count":46,
			"max":[
				4896.8935546875,
				179.75759887695312,
				4907.85546875
			],
			"min":[
				-4898.7783203125,
				-655.9522094726562,
				-4907.939453125
			],
			"type":"VEC3"
		},
		{
			"bufferView":213,
			"componentType":5126,
			"count":46,
			"type":"VEC3"
		},
		{
			"bufferView":214,
			"componentType":5126,
			"count":46,
			"type":"VEC2"
		},
		{
			"bufferView":215,
			"componentType":5123,
			"count":57,
			"type":"SCALAR"
		},
		{
			"bufferView":216,
			"componentType":5126,
			"count":533,
			"max":[
				4983.12109375,
				-440.0525207519531,
				4971.88330078125
			],
			"min":[
				-4971.15185546875,
				-687.4608764648438,
				-4971.40966796875
			],
			"type":"VEC3"
		},
		{
			"bufferView":217,
			"componentType":5126,
			"count":533,
			"type":"VEC3"
		},
		{
			"bufferView":218,
			"componentType":5126,
			"count":533,
			"type":"VEC2"
		},
		{
			"bufferView":219,
			"componentType":5123,
			"count":567,
			"type":"SCALAR"
		},
		{
			"bufferView":220,
			"componentType":5126,
			"count":490,
			"max":[
				4983.66943359375,
				142.5681915283203,
				4984.37353515625
			],
			"min":[
				-4976.35888671875,
				-676.2041015625,
				-4982.6767578125
			],
			"type":"VEC3"
		},
		{
			"bufferView":221,
			"componentType":5126,
			"count":490,
			"type":"VEC3"
		},
		{
			"bufferView":222,
			"componentType":5126,
			"count":490,
			"type":"VEC2"
		},
		{
			"bufferView":223,
			"componentType":5123,
			"count":492,
			"type":"SCALAR"
		},
		{
			"bufferView":224,
			"componentType":5126,
			"count":75,
			"max":[
				1064.787109375,
				2024.5048828125,
				1969.1429443359375
			],
			"min":[
				912.5045166015625,
				-632.0713500976562,
				-689.0471801757812
			],
			"type":"VEC3"
		},
		{
			"bufferView":225,
			"componentType":5126,
			"count":75,
			"type":"VEC3"
		},
		{
			"bufferView":226,
			"componentType":5126,
			"count":75,
			"type":"VEC2"
		},
		{
			"bufferView":227,
			"componentType":5126,
			"count":96,
			"max":[
				1334.442138671875,
				1340.6744384765625,
				1285.2440185546875
			],
			"min":[
				46.01470947265625,
				51.81141662597656,
				-3.4198880195617676
			],
			"type":"VEC3"
		},
		{
			"bufferView":228,
			"componentType":5126,
			"count":96,
			"type":"VEC3"
		},
		{
			"bufferView":229,
			"componentType":5126,
			"count":96,
			"type":"VEC2"
		},
		{
			"bufferView":230,
			"componentType":5126,
			"count":128,
			"max":[
				758.2742309570312,
				1390.179931640625,
				1334.776123046875
			],
			"min":[
				259.2726135253906,
				2.279690742492676,
				-53.03199768066406
			],
			"type":"VEC3"
		},
		{
			"bufferView":231,
			"componentType":5126,
			"count":128,
			"type":"VEC3"
		},
		{
			"bufferView":232,
			"componentType":5126,
			"count":128,
			"type":"VEC2"
		},
		{
			"bufferView":233,
			"componentType":5126,
			"count":160,
			"max":[
				821.6314086914062,
				1390.57080078125,
				1335.140380859375
			],
			"min":[
				52.62034606933594,
				1.9149959087371826,
				-53.316219329833984
			],
			"type":"VEC3"
		},
		{
			"bufferView":234,
			"componentType":5126,
			"count":160,
			"type":"VEC3"
		},
		{
			"bufferView":235,
			"componentType":5126,
			"count":160,
			"type":"VEC2"
		},
		{
			"bufferView":236,
			"componentType":5126,
			"count":432,
			"max":[
				1283.952392578125,
				2113.156982421875,
				2057.726806640625
			],
			"min":[
				52.62028503417969,
				-720.671630859375,
				-775.9029541015625
			],
			"type":"VEC3"
		},
		{
			"bufferView":237,
			"componentType":5126,
			"count":432,
			"type":"VEC3"
		},
		{
			"bufferView":238,
			"componentType":5126,
			"count":432,
			"type":"VEC2"
		},
		{
			"bufferView":239,
			"componentType":5126,
			"count":147,
			"max":[
				1253.000732421875,
				1828.1663818359375,
				1772.803955078125
			],
			"min":[
				1108.980224609375,
				-435.7324523925781,
				-491.1343688964844
			],
			"type":"VEC3"
		},
		{
			"bufferView":240,
			"componentType":5126,
			"count":147,
			"type":"VEC3"
		},
		{
			"bufferView":241,
			"componentType":5126,
			"count":147,
			"type":"VEC2"
		},
		{
			"bufferView":242,
			"componentType":5126,
			"count":442,
			"max":[
				665.5298461914062,
				1395.6771240234375,
				1340.1900634765625
			],
			"min":[
				254.4505615234375,
				-2.9928159713745117,
				-58.38603973388672
			],
			"type":"VEC3"
		},
		{
			"bufferView":243,
			"componentType":5126,
			"count":442,
			"type":"VEC3"
		},
		{
			"bufferView":244,
			"componentType":5126,
			"count":442,
			"type":"VEC2"
		},
		{
			"bufferView":245,
			"componentType":5126,
			"count":3,
			"max":[
				1079.9395751953125,
				-601.7764892578125,
				1938.190673828125
			],
			"min":[
				1076.3433837890625,
				-612.1846923828125,
				1937.8858642578125
			],
			"type":"VEC3"
		},
		{
			"bufferView":246,
			"componentType":5126,
			"count":3,
			"type":"VEC3"
		},
		{
			"bufferView":247,
			"componentType":5126,
			"count":3,
			"type":"VEC2"
		},
		{
			"bufferView":248,
			"componentType":5126,
			"count":1166,
			"max":[
				124.00001525878906,
				1676.8697509765625,
				124.00001525878906
			],
			"min":[
				-124,
				5.288749694824219,
				-124
			],
			"type":"VEC3"
		},
		{
			"bufferView":249,
			"componentType":5126,
			"count":1166,
			"type":"VEC3"
		},
		{
			"bufferView":250,
			"componentType":5126,
			"count":1166,
			"type":"VEC2"
		},
		{
			"bufferView":251,
			"componentType":5123,
			"count":2139,
			"type":"SCALAR"
		},
		{
			"bufferView":252,
			"componentType":5126,
			"count":48,
			"max":[
				119.79913330078125,
				66.43019104003906,
				119.666015625
			],
			"min":[
				-119.74809265136719,
				12.395143508911133,
				-119.710693359375
			],
			"type":"VEC3"
		},
		{
			"bufferView":253,
			"componentType":5126,
			"count":48,
			"type":"VEC3"
		},
		{
			"bufferView":254,
			"componentType":5126,
			"count":48,
			"type":"VEC2"
		},
		{
			"bufferView":255,
			"componentType":5123,
			"count":72,
			"type":"SCALAR"
		}
	],
	"bufferViews":[
		{
			"buffer":0,
			"byteLength":7872,
			"byteOffset":0,
			"target":34962
		},
		{
			"buffer":0,
			"byteLength":7872,
			"byteOffset":7872,
			"target":34962
		},
		{
			"buffer":0,
			"byteLength":5248,
			"byteOffset":15744,
			"target":34962
		},
		{
			"buffer":0,
			"byteLength":1968,
			"byteOffset":20992,
			"target":34963
		},
		{
			"buffer":0,
			"byteLength":240,
			"byteOffset":22960,
			"target":34962
		},
		{
			"buffer":0,
			"byteLength":240,
			"byteOffset":23200,
			"target":34962
		},
		{
			"buffer":0,
			"byteLength":160,
			"byteOffset":23440,
			"target":34962
		},
		{
			"buffer":0,
			"byteLength":60,
			"byteOffset":23600,
			"target":34963
		},
		{
			"buffer":0,
			"byteLength":96,
			"byteOffset":23660,
			"target":34962
		},
		{
			"buffer":0,
			"byteLength":96,
			"byteOffset":23756,
			"target":34962
		},
		{
			"buffer":0,
			"byteLength":64,
			"byteOffset":23852,
			"target":34962
		},
		{
			"buffer":0,
			"byteLength":24,
			"byteOffset":23916,
			"target":34963
		},
		{
			"buffer":0,
			"byteLength":3672,
			"byteOffset":23940,
			"target":34962
		},
		{
			"buffer":0,
			"byteLength":3672,
			"byteOffset":27612,
			"target":34962
		},
		{
			"buffer":0,
			"byteLength":2448,
			"byteOffset":31284,
			"target":34962
		},
		{
			"buffer":0,
			"byteLength":912,
			"byteOffset":33732,
			"target":34963
		},
		{
			"buffer":0,
			"byteLength":2772,
			"byteOffset":34644,
			"target":34962
		},
		{
			"buffer":0,
			"byteLength":2772,
			"byteOffset":37416,
			"target":34962
		},
		{
			"buffer":0,
			"byteLength":1848,
			"byteOffset":40188,
			"target":34962
		},
		{
			"buffer":0,
			"byteLength":678,
			"byteOffset":42036,
			"target":34963
		},
		{
			"buffer":0,
			"byteLength":3024,
			"byteOffset":42716,
			"target":34962
		},
		{
			"buffer":0,
			"byteLength":3024,
			"byteOffset":45740,
			"target":34962
		},
		{
			"buffer":0,
			"byteLength":2016,
			"byteOffset":48764,
			"target":34962
		},
		{
			"buffer":0,
			"byteLength":1008,
			"byteOffset":50780,
			"target":34963
		},
		{
			"buffer":0,
			"byteLength":288,
			"byteOffset":51788,
			"target":34962
		},
		{
			"buffer":0,
			"byteLength":288,
			"byteOffset":52076,
			"target":34962
		},
		{
			"buffer":0,
			"byteLength":192,
			"byteOffset":52364,
			"target":34962
		},
		{
			"buffer":0,
			"byteLength":72,
			"byteOffset":52556,
			"target":34963
		},
		{
			"buffer":0,
			"byteLength":144,
			"byteOffset":52628,
			"target":34962
		},
		{
			"buffer":0,
			"byteLength":144,
			"byteOffset":52772,
			"target":34962
		},
		{
			"buffer":0,
			"byteLength":96,
			"byteOffset":52916,
			"target":34962
		},
		{
			"buffer":0,
			"byteLength":24,
			"byteOffset":53012,
			"target":34963
		},
		{
			"buffer":0,
			"byteLength":576,
			"byteOffset":53036,
			"target":34962
		},
		{
			"buffer":0,
			"byteLength":576,
			"byteOffset":53612,
			"target":34962
		},
		{
			"buffer":0,
			"byteLength":384,
			"byteOffset":54188,
			"target":34962
		},
		{
			"buffer":0,
			"byteLength":144,
			"byteOffset":54572,
			"target":34963
		},
		{
			"buffer":0,
			"byteLength":384,
			"byteOffset":54716,
			"target":34962
		},
		{
			"buffer":0,
			"byteLength":384,
			"byteOffset":55100,
			"target":34962
		},
		{
			"buffer":0,
			"byteLength":256,
			"byteOffset":55484,
			"target":34962
		},
		{
			"buffer":0,
			"byteLength":84,
			"byteOffset":55740,
			"target":34963
		},
		{
			"buffer":0,
			"byteLength":288,
			"byteOffset":55824,
			"target":34962
		},
		{
			"buffer":0,
			"byteLength":288,
			"byteOffset":56112,
			"target":34962
		},
		{
			"buffer":0,
			"byteLength":192,
			"byteOffset":56400,
			"target":34962
		},
		{
			"buffer":0,
			"byteLength":144,
			"byteOffset":56592,
			"target":34962
		},
		{
			"buffer":0,
			"byteLength":144,
			"byteOffset":56736,
			"target":34962
		},
		{
			"buffer":0,
			"byteLength":96,
			"byteOffset":56880,
			"target":34962
		},
		{
			"buffer":0,
			"byteLength":576,
			"byteOffset":56976,
			"target":34962
		},
		{
			"buffer":0,
			"byteLength":576,
			"byteOffset":57552,
			"target":34962
		},
		{
			"buffer":0,
			"byteLength":384,
			"byteOffset":58128,
			"target":34962
		},
		{
			"buffer":0,
			"byteLength":384,
			"byteOffset":58512,
			"target":34962
		},
		{
			"buffer":0,
			"byteLength":384,
			"byteOffset":58896,
			"target":34962
		},
		{
			"buffer":0,
			"byteLength":256,
			"byteOffset":59280,
			"target":34962
		},
		{
			"buffer":0,
			"byteLength":288,
			"byteOffset":59536,
			"target":34962
		},
		{
			"buffer":0,
			"byteLength":288,
			"byteOffset":59824,
			"target":34962
		},
		{
			"buffer":0,
			"byteLength":192,
			"byteOffset":60112,
			"target":34962
		},
		{
			"buffer":0,
			"byteLength":144,
			"byteOffset":60304,
			"target":34962
		},
		{
			"buffer":0,
			"byteLength":144,
			"byteOffset":60448,
			"target":34962
		},
		{
			"buffer":0,
			"byteLength":96,
			"byteOffset":60592,
			"target":34962
		},
		{
			"buffer":0,
			"byteLength":576,
			"byteOffset":60688,
			"target":34962
		},
		{
			"buffer":0,
			"byteLength":576,
			"byteOffset":61264,
			"target":34962
		},
		{
			"buffer":0,
			"byteLength":384,
			"byteOffset":61840,
			"target":34962
		},
		{
			"buffer":0,
			"byteLength":384,
			"byteOffset":62224,
			"target":34962
		},
		{
			"buffer":0,
			"byteLength":384,
			"byteOffset":62608,
			"target":34962
		},
		{
			"buffer":0,
			"byteLength":256,
			"byteOffset":62992,
			"target":34962
		},
		{
			"buffer":0,
			"byteLength":288,
			"byteOffset":63248,
			"target":34962
		},
		{
			"buffer":0,
			"byteLength":288,
			"byteOffset":63536,
			"target":34962
		},
		{
			"buffer":0,
			"byteLength":192,
			"byteOffset":63824,
			"target":34962
		},
		{
			"buffer":0,
			"byteLength":144,
			"byteOffset":64016,
			"target":34962
		},
		{
			"buffer":0,
			"byteLength":144,
			"byteOffset":64160,
			"target":34962
		},
		{
			"buffer":0,
			"byteLength":96,
			"byteOffset":64304,
			"target":34962
		},
		{
			"buffer":0,
			"byteLength":576,
			"byteOffset":64400,
			"target":34962
		},
		{
			"buffer":0,
			"byteLength":576,
			"byteOffset":64976,
			"target":34962
		},
		{
			"buffer":0,
			"byteLength":384,
			"byteOffset":65552,
			"target":34962
		},
		{
			"buffer":0,
			"byteLength":384,
			"byteOffset":65936,
			"target":34962
		},
		{
			"buffer":0,
			"byteLength":384,
			"byteOffset":66320,
			"target":34962
		},
		{
			"buffer":0,
			"byteLength":256,
			"byteOffset":66704,
			"target":34962
		},
		{
			"buffer":0,
			"byteLength":1116,
			"byteOffset":66960,
			"target":34962
		},
		{
			"buffer":0,
			"byteLength":1116,
			"byteOffset":68076,
			"target":34962
		},
		{
			"buffer":0,
			"byteLength":744,
			"byteOffset":69192,
			"target":34962
		},
		{
			"buffer":0,
			"byteLength":288,
			"byteOffset":69936,
			"target":34963
		},
		{
			"buffer":0,
			"byteLength":11508,
			"byteOffset":70224,
			"target":34962
		},
		{
			"buffer":0,
			"byteLength":11508,
			"byteOffset":81732,
			"target":34962
		},
		{
			"buffer":0,
			"byteLength":7672,
			"byteOffset":93240,
			"target":34962
		},
		{
			"buffer":0,
			"byteLength":2730,
			"byteOffset":100912,
			"target":34963
		},
		{
			"buffer":0,
			"byteLength":3480,
			"byteOffset":103644,
			"target":34962
		},
		{
			"buffer":0,
			"byteLength":3480,
			"byteOffset":107124,
			"target":34962
		},
		{
			"buffer":0,
			"byteLength":2320,
			"byteOffset":110604,
			"target":34962
		},
		{
			"buffer":0,
			"byteLength":924,
			"byteOffset":112924,
			"target":34963
		},
		{
			"buffer":0,
			"byteLength":720,
			"byteOffset":113848,
			"target":34962
		},
		{
			"buffer":0,
			"byteLength":720,
			"byteOffset":114568,
			"target":34962
		},
		{
			"buffer":0,
			"byteLength":480,
			"byteOffset":115288,
			"target":34962
		},
		{
			"buffer":0,
			"byteLength":144,
			"byteOffset":115768,
			"target":34963
		},
		{
			"buffer":0,
			"byteLength":912,
			"byteOffset":115912,
			"target":34962
		},
		{
			"buffer":0,
			"byteLength":912,
			"byteOffset":116824,
			"target":34962
		},
		{
			"buffer":0,
			"byteLength":608,
			"byteOffset":117736,
			"target":34962
		},
		{
			"buffer":0,
			"byteLength":204,
			"byteOffset":118344,
			"target":34963
		},
		{
			"buffer":0,
			"byteLength":16884,
			"byteOffset":118548,
			"target":34962
		},
		{
			"buffer":0,
			"byteLength":16884,
			"byteOffset":135432,
			"target":34962
		},
		{
			"buffer":0,
			"byteLength":11256,
			"byteOffset":152316,
			"target":34962
		},
		{
			"buffer":0,
			"byteLength":3054,
			"byteOffset":163572,
			"target":34963
		},
		{
			"buffer":0,
			"byteLength":15612,
			"byteOffset":166628,
			"target":34962
		},
		{
			"buffer":0,
			"byteLength":15612,
			"byteOffset":182240,
			"target":34962
		},
		{
			"buffer":0,
			"byteLength":10408,
			"byteOffset":197852,
			"target":34962
		},
		{
			"buffer":0,
			"byteLength":2736,
			"byteOffset":208260,
			"target":34963
		},
		{
			"buffer":0,
			"byteLength":7560,
			"byteOffset":210996,
			"target":34962
		},
		{
			"buffer":0,
			"byteLength":7560,
			"byteOffset":218556,
			"target":34962
		},
		{
			"buffer":0,
			"byteLength":5040,
			"byteOffset":226116,
			"target":34962
		},
		{
			"buffer":0,
			"byteLength":1776,
			"byteOffset":231156,
			"target":34963
		},
		{
			"buffer":0,
			"byteLength":2928,
			"byteOffset":232932,
			"target":34962
		},
		{
			"buffer":0,
			"byteLength":2928,
			"byteOffset":235860,
			"target":34962
		},
		{
			"buffer":0,
			"byteLength":1952,
			"byteOffset":238788,
			"target":34962
		},
		{
			"buffer":0,
			"byteLength":696,
			"byteOffset":240740,
			"target":34963
		},
		{
			"buffer":0,
			"byteLength":900,
			"byteOffset":241436,
			"target":34962
		},
		{
			"buffer":0,
			"byteLength":900,
			"byteOffset":242336,
			"target":34962
		},
		{
			"buffer":0,
			"byteLength":600,
			"byteOffset":243236,
			"target":34962
		},
		{
			"buffer":0,
			"byteLength":210,
			"byteOffset":243836,
			"target":34963
		},
		{
			"buffer":0,
			"byteLength":1152,
			"byteOffset":244048,
			"target":34962
		},
		{
			"buffer":0,
			"byteLength":1152,
			"byteOffset":245200,
			"target":34962
		},
		{
			"buffer":0,
			"byteLength":768,
			"byteOffset":246352,
			"target":34962
		},
		{
			"buffer":0,
			"byteLength":288,
			"byteOffset":247120,
			"target":34963
		},
		{
			"buffer":0,
			"byteLength":1536,
			"byteOffset":247408,
			"target":34962
		},
		{
			"buffer":0,
			"byteLength":1536,
			"byteOffset":248944,
			"target":34962
		},
		{
			"buffer":0,
			"byteLength":1024,
			"byteOffset":250480,
			"target":34962
		},
		{
			"buffer":0,
			"byteLength":384,
			"byteOffset":251504,
			"target":34963
		},
		{
			"buffer":0,
			"byteLength":4416,
			"byteOffset":251888,
			"target":34962
		},
		{
			"buffer":0,
			"byteLength":4416,
			"byteOffset":256304,
			"target":34962
		},
		{
			"buffer":0,
			"byteLength":2944,
			"byteOffset":260720,
			"target":34962
		},
		{
			"buffer":0,
			"byteLength":1056,
			"byteOffset":263664,
			"target":34963
		},
		{
			"buffer":0,
			"byteLength":2112,
			"byteOffset":264720,
			"target":34962
		},
		{
			"buffer":0,
			"byteLength":2112,
			"byteOffset":266832,
			"target":34962
		},
		{
			"buffer":0,
			"byteLength":1408,
			"byteOffset":268944,
			"target":34962
		},
		{
			"buffer":0,
			"byteLength":480,
			"byteOffset":270352,
			"target":34963
		},
		{
			"buffer":0,
			"byteLength":5688,
			"byteOffset":270832,
			"target":34962
		},
		{
			"buffer":0,
			"byteLength":5688,
			"byteOffset":276520,
			"target":34962
		},
		{
			"buffer":0,
			"byteLength":3792,
			"byteOffset":282208,
			"target":34962
		},
		{
			"buffer":0,
			"byteLength":1980,
			"byteOffset":286000,
			"target":34963
		},
		{
			"buffer":0,
			"byteLength":36,
			"byteOffset":287980,
			"target":34962
		},
		{
			"buffer":0,
			"byteLength":36,
			"byteOffset":288016,
			"target":34962
		},
		{
			"buffer":0,
			"byteLength":24,
			"byteOffset":288052,
			"target":34962
		},
		{
			"buffer":0,
			"byteLength":6,
			"byteOffset":288076,
			"target":34963
		},
		{
			"buffer":0,
			"byteLength":1116,
			"byteOffset":288084,
			"target":34962
		},
		{
			"buffer":0,
			"byteLength":1116,
			"byteOffset":289200,
			"target":34962
		},
		{
			"buffer":0,
			"byteLength":744,
			"byteOffset":290316,
			"target":34962
		},
		{
			"buffer":0,
			"byteLength":11400,
			"byteOffset":291060,
			"target":34962
		},
		{
			"buffer":0,
			"byteLength":11400,
			"byteOffset":302460,
			"target":34962
		},
		{
			"buffer":0,
			"byteLength":7600,
			"byteOffset":313860,
			"target":34962
		},
		{
			"buffer":0,
			"byteLength":2712,
			"byteOffset":321460,
			"target":34963
		},
		{
			"buffer":0,
			"byteLength":3480,
			"byteOffset":324172,
			"target":34962
		},
		{
			"buffer":0,
			"byteLength":3480,
			"byteOffset":327652,
			"target":34962
		},
		{
			"buffer":0,
			"byteLength":2320,
			"byteOffset":331132,
			"target":34962
		},
		{
			"buffer":0,
			"byteLength":720,
			"byteOffset":333452,
			"target":34962
		},
		{
			"buffer":0,
			"byteLength":720,
			"byteOffset":334172,
			"target":34962
		},
		{
			"buffer":0,
			"byteLength":480,
			"byteOffset":334892,
			"target":34962
		},
		{
			"buffer":0,
			"byteLength":912,
			"byteOffset":335372,
			"target":34962
		},
		{
			"buffer":0,
			"byteLength":912,
			"byteOffset":336284,
			"target":34962
		},
		{
			"buffer":0,
			"byteLength":608,
			"byteOffset":337196,
			"target":34962
		},
		{
			"buffer":0,
			"byteLength":16932,
			"byteOffset":337804,
			"target":34962
		},
		{
			"buffer":0,
			"byteLength":16932,
			"byteOffset":354736,
			"target":34962
		},
		{
			"buffer":0,
			"byteLength":11288,
			"byteOffset":371668,
			"target":34962
		},
		{
			"buffer":0,
			"byteLength":3066,
			"byteOffset":382956,
			"target":34963
		},
		{
			"buffer":0,
			"byteLength":15612,
			"byteOffset":386024,
			"target":34962
		},
		{
			"buffer":0,
			"byteLength":15612,
			"byteOffset":401636,
			"target":34962
		},
		{
			"buffer":0,
			"byteLength":10408,
			"byteOffset":417248,
			"target":34962
		},
		{
			"buffer":0,
			"byteLength":7620,
			"byteOffset":427656,
			"target":34962
		},
		{
			"buffer":0,
			"byteLength":7620,
			"byteOffset":435276,
			"target":34962
		},
		{
			"buffer":0,
			"byteLength":5080,
			"byteOffset":442896,
			"target":34962
		},
		{
			"buffer":0,
			"byteLength":1782,
			"byteOffset":447976,
			"target":34963
		},
		{
			"buffer":0,
			"byteLength":900,
			"byteOffset":449760,
			"target":34962
		},
		{
			"buffer":0,
			"byteLength":900,
			"byteOffset":450660,
			"target":34962
		},
		{
			"buffer":0,
			"byteLength":600,
			"byteOffset":451560,
			"target":34962
		},
		{
			"buffer":0,
			"byteLength":210,
			"byteOffset":452160,
			"target":34963
		},
		{
			"buffer":0,
			"byteLength":1152,
			"byteOffset":452372,
			"target":34962
		},
		{
			"buffer":0,
			"byteLength":1152,
			"byteOffset":453524,
			"target":34962
		},
		{
			"buffer":0,
			"byteLength":768,
			"byteOffset":454676,
			"target":34962
		},
		{
			"buffer":0,
			"byteLength":1536,
			"byteOffset":455444,
			"target":34962
		},
		{
			"buffer":0,
			"byteLength":1536,
			"byteOffset":456980,
			"target":34962
		},
		{
			"buffer":0,
			"byteLength":1024,
			"byteOffset":458516,
			"target":34962
		},
		{
			"buffer":0,
			"byteLength":1920,
			"byteOffset":459540,
			"target":34962
		},
		{
			"buffer":0,
			"byteLength":1920,
			"byteOffset":461460,
			"target":34962
		},
		{
			"buffer":0,
			"byteLength":1280,
			"byteOffset":463380,
			"target":34962
		},
		{
			"buffer":0,
			"byteLength":480,
			"byteOffset":464660,
			"target":34963
		},
		{
			"buffer":0,
			"byteLength":5184,
			"byteOffset":465140,
			"target":34962
		},
		{
			"buffer":0,
			"byteLength":5184,
			"byteOffset":470324,
			"target":34962
		},
		{
			"buffer":0,
			"byteLength":3456,
			"byteOffset":475508,
			"target":34962
		},
		{
			"buffer":0,
			"byteLength":1248,
			"byteOffset":478964,
			"target":34963
		},
		{
			"buffer":0,
			"byteLength":1764,
			"byteOffset":480212,
			"target":34962
		},
		{
			"buffer":0,
			"byteLength":1764,
			"byteOffset":481976,
			"target":34962
		},
		{
			"buffer":0,
			"byteLength":1176,
			"byteOffset":483740,
			"target":34962
		},
		{
			"buffer":0,
			"byteLength":390,
			"byteOffset":484916,
			"target":34963
		},
		{
			"buffer":0,
			"byteLength":5304,
			"byteOffset":485308,
			"target":34962
		},
		{
			"buffer":0,
			"byteLength":5304,
			"byteOffset":490612,
			"target":34962
		},
		{
			"buffer":0,
			"byteLength":3536,
			"byteOffset":495916,
			"target":34962
		},
		{
			"buffer":0,
			"byteLength":1884,
			"byteOffset":499452,
			"target":34963
		},
		{
			"buffer":0,
			"byteLength":36,
			"byteOffset":501336,
			"target":34962
		},
		{
			"buffer":0,
			"byteLength":36,
			"byteOffset":501372,
			"target":34962
		},
		{
			"buffer":0,
			"byteLength":24,
			"byteOffset":501408,
			"target":34962
		},
		{
			"buffer":0,
			"byteLength":372,
			"byteOffset":501432,
			"target":34962
		},
		{
			"buffer":0,
			"byteLength":372,
			"byteOffset":501804,
			"target":34962
		},
		{
			"buffer":0,
			"byteLength":248,
			"byteOffset":502176,
			"target":34962
		},
		{
			"buffer":0,
			"byteLength":84,
			"byteOffset":502424,
			"target":34963
		},
		{
			"buffer":0,
			"byteLength":23088,
			"byteOffset":502508,
			"target":34962
		},
		{
			"buffer":0,
			"byteLength":23088,
			"byteOffset":525596,
			"target":34962
		},
		{
			"buffer":0,
			"byteLength":15392,
			"byteOffset":548684,
			"target":34962
		},
		{
			"buffer":0,
			"byteLength":4584,
			"byteOffset":564076,
			"target":34963
		},
		{
			"buffer":0,
			"byteLength":19476,
			"byteOffset":568660,
			"target":34962
		},
		{
			"buffer":0,
			"byteLength":19476,
			"byteOffset":588136,
			"target":34962
		},
		{
			"buffer":0,
			"byteLength":12984,
			"byteOffset":607612,
			"target":34962
		},
		{
			"buffer":0,
			"byteLength":4854,
			"byteOffset":620596,
			"target":34963
		},
		{
			"buffer":0,
			"byteLength":360,
			"byteOffset":625452,
			"target":34962
		},
		{
			"buffer":0,
			"byteLength":360,
			"byteOffset":625812,
			"target":34962
		},
		{
			"buffer":0,
			"byteLength":240,
			"byteOffset":626172,
			"target":34962
		},
		{
			"buffer":0,
			"byteLength":84,
			"byteOffset":626412,
			"target":34963
		},
		{
			"buffer":0,
			"byteLength":552,
			"byteOffset":626496,
			"target":34962
		},
		{
			"buffer":0,
			"byteLength":552,
			"byteOffset":627048,
			"target":34962
		},
		{
			"buffer":0,
			"byteLength":368,
			"byteOffset":627600,
			"target":34962
		},
		{
			"buffer":0,
			"byteLength":114,
			"byteOffset":627968,
			"target":34963
		},
		{
			"buffer":0,
			"byteLength":6396,
			"byteOffset":628084,
			"target":34962
		},
		{
			"buffer":0,
			"byteLength":6396,
			"byteOffset":634480,
			"target":34962
		},
		{
			"buffer":0,
			"byteLength":4264,
			"byteOffset":640876,
			"target":34962
		},
		{
			"buffer":0,
			"byteLength":1134,
			"byteOffset":645140,
			"target":34963
		},
		{
			"buffer":0,
			"byteLength":5880,
			"byteOffset":646276,
			"target":34962
		},
		{
			"buffer":0,
			"byteLength":5880,
			"byteOffset":652156,
			"target":34962
		},
		{
			"buffer":0,
			"byteLength":3920,
			"byteOffset":658036,
			"target":34962
		},
		{
			"buffer":0,
			"byteLength":984,
			"byteOffset":661956,
			"target":34963
		},
		{
			"buffer":0,
			"byteLength":900,
			"byteOffset":662940,
			"target":34962
		},
		{
			"buffer":0,
			"byteLength":900,
			"byteOffset":663840,
			"target":34962
		},
		{
			"buffer":0,
			"byteLength":600,
			"byteOffset":664740,
			"target":34962
		},
		{
			"buffer":0,
			"byteLength":1152,
			"byteOffset":665340,
			"target":34962
		},
		{
			"buffer":0,
			"byteLength":1152,
			"byteOffset":666492,
			"target":34962
		},
		{
			"buffer":0,
			"byteLength":768,
			"byteOffset":667644,
			"target":34962
		},
		{
			"buffer":0,
			"byteLength":1536,
			"byteOffset":668412,
			"target":34962
		},
		{
			"buffer":0,
			"byteLength":1536,
			"byteOffset":669948,
			"target":34962
		},
		{
			"buffer":0,
			"byteLength":1024,
			"byteOffset":671484,
			"target":34962
		},
		{
			"buffer":0,
			"byteLength":1920,
			"byteOffset":672508,
			"target":34962
		},
		{
			"buffer":0,
			"byteLength":1920,
			"byteOffset":674428,
			"target":34962
		},
		{
			"buffer":0,
			"byteLength":1280,
			"byteOffset":676348,
			"target":34962
		},
		{
			"buffer":0,
			"byteLength":5184,
			"byteOffset":677628,
			"target":34962
		},
		{
			"buffer":0,
			"byteLength":5184,
			"byteOffset":682812,
			"target":34962
		},
		{
			"buffer":0,
			"byteLength":3456,
			"byteOffset":687996,
			"target":34962
		},
		{
			"buffer":0,
			"byteLength":1764,
			"byteOffset":691452,
			"target":34962
		},
		{
			"buffer":0,
			"byteLength":1764,
			"byteOffset":693216,
			"target":34962
		},
		{
			"buffer":0,
			"byteLength":1176,
			"byteOffset":694980,
			"target":34962
		},
		{
			"buffer":0,
			"byteLength":5304,
			"byteOffset":696156,
			"target":34962
		},
		{
			"buffer":0,
			"byteLength":5304,
			"byteOffset":701460,
			"target":34962
		},
		{
			"buffer":0,
			"byteLength":3536,
			"byteOffset":706764,
			"target":34962
		},
		{
			"buffer":0,
			"byteLength":36,
			"byteOffset":710300,
			"target":34962
		},
		{
			"buffer":0,
			"byteLength":36,
			"byteOffset":710336,
			"target":34962
		},
		{
			"buffer":0,
			"byteLength":24,
			"byteOffset":710372,
			"target":34962
		},
		{
			"buffer":0,
			"byteLength":13992,
			"byteOffset":710396,
			"target":34962
		},
		{
			"buffer":0,
			"byteLength":13992,
			"byteOffset":724388,
			"target":34962
		},
		{
			"buffer":0,
			"byteLength":9328,
			"byteOffset":738380,
			"target":34962
		},
		{
			"buffer":0,
			"byteLength":4278,
			"byteOffset":747708,
			"target":34963
		},
		{
			"buffer":0,
			"byteLength":576,
			"byteOffset":751988,
			"target":34962
		},
		{
			"buffer":0,
			"byteLength":576,
			"byteOffset":752564,
			"target":34962
		},
		{
			"buffer":0,
			"byteLength":384,
			"byteOffset":753140,
			"target":34962
		},
		{
			"buffer":0,
			"byteLength":144,
			"byteOffset":753524,
			"target":34963
		}
	],
	"samplers":[
		{
			"magFilter":9729,
			"minFilter":9987
		}
	],
	"buffers":[
		{
			"byteLength":753668,
			"uri":"Pagoda_Sanju_33m.bin"
		}
	]
}
