{
	"asset":{
		"generator":"Khronos glTF Blender I/O v4.4.56",
		"version":"2.0"
	},
	"extensionsUsed":[
		"KHR_texture_transform"
	],
	"extensionsRequired":[
		"KHR_texture_transform"
	],
	"scene":0,
	"scenes":[
		{
			"name":"Scene",
			"nodes":[
				20
			]
		}
	],
	"nodes":[
		{
			"mesh":0,
			"name":"Base_LOD0",
			"rotation":[
				-0.7071069478988647,
				0,
				0,
				0.7071066498756409
			],
			"scale":[
				0.7800000309944153,
				0.7800000905990601,
				0.726871907711029
			],
			"translation":[
				0.0431823655962944,
				0.8000316619873047,
				0.024295739829540253
			]
		},
		{
			"children":[
				0
			],
			"name":"Base"
		},
		{
			"mesh":1,
			"name":"Door_EL_LOD0",
			"rotation":[
				-0.4995635151863098,
				-0.5004361867904663,
				-0.5004361867904663,
				0.4995635151863098
			],
			"scale":[
				0.48238644003868103,
				0.5290029644966125,
				0.5290029048919678
			],
			"translation":[
				2.6764066219329834,
				2.4854679107666016,
				0.5101999044418335
			]
		},
		{
			"mesh":2,
			"name":"Door_ER_LOD0",
			"rotation":[
				-0.4995635151863098,
				-0.5004361867904663,
				-0.5004361867904663,
				0.4995635151863098
			],
			"scale":[
				0.48238644003868103,
				0.5290029644966125,
				0.5290029048919678
			],
			"translation":[
				2.678252935409546,
				2.4854679107666016,
				-0.542380690574646
			]
		},
		{
			"mesh":3,
			"name":"Door_NL_LOD0",
			"rotation":[
				-0.7071065902709961,
				-0.0006170272827148438,
				-0.0006170273991301656,
				0.7071064710617065
			],
			"scale":[
				0.48238638043403625,
				0.5290029644966125,
				0.5290029048919678
			],
			"translation":[
				0.5514376163482666,
				2.4854679107666016,
				-2.65885591506958
			]
		},
		{
			"mesh":4,
			"name":"Door_NR_LOD0",
			"rotation":[
				-0.7071065902709961,
				-0.0006170272827148438,
				-0.0006170273991301656,
				0.7071064710617065
			],
			"scale":[
				0.48238638043403625,
				0.5290029644966125,
				0.5290029048919678
			],
			"translation":[
				-0.5011440515518188,
				2.4854679107666016,
				-2.6606929302215576
			]
		},
		{
			"mesh":5,
			"name":"Door_SL_LOD0",
			"rotation":[
				-0.000616908073425293,
				0.7071065306663513,
				0.7071065306663513,
				0.000616908073425293
			],
			"scale":[
				0.48238644003868103,
				0.5290029644966125,
				0.5290029048919678
			],
			"translation":[
				-0.4927676320075989,
				2.4854679107666016,
				2.634267807006836
			]
		},
		{
			"mesh":6,
			"name":"Door_SR_LOD0",
			"rotation":[
				-0.000616908073425293,
				0.7071065306663513,
				0.7071065306663513,
				0.000616908073425293
			],
			"scale":[
				0.48238644003868103,
				0.5290029644966125,
				0.5290029048919678
			],
			"translation":[
				0.5598140954971313,
				2.4854679107666016,
				2.6361048221588135
			]
		},
		{
			"mesh":7,
			"name":"Door_WL_LOD0",
			"rotation":[
				-0.5004361867904663,
				0.4995635151863098,
				0.4995635151863098,
				0.5004361867904663
			],
			"scale":[
				0.48238644003868103,
				0.5290029644966125,
				0.5290029048919678
			],
			"translation":[
				-2.617522954940796,
				2.4854679107666016,
				-0.5341576337814331
			]
		},
		{
			"mesh":8,
			"name":"Door_WR_LOD0",
			"rotation":[
				-0.5004361867904663,
				0.4995635151863098,
				0.4995635151863098,
				0.5004361867904663
			],
			"scale":[
				0.48238644003868103,
				0.5290029644966125,
				0.5290029048919678
			],
			"translation":[
				-2.6193692684173584,
				2.4854679107666016,
				0.5184232592582703
			]
		},
		{
			"children":[
				2,
				3,
				4,
				5,
				6,
				7,
				8,
				9
			],
			"name":"Doors"
		},
		{
			"mesh":9,
			"name":"Roof1_LOD0",
			"rotation":[
				-0.70710688829422,
				0,
				0,
				0.7071066498756409
			],
			"scale":[
				0.42769891023635864,
				0.42769894003868103,
				0.42769894003868103
			],
			"translation":[
				0.025848388671875,
				7.225366592407227,
				-0.020038265734910965
			]
		},
		{
			"mesh":10,
			"name":"Wall1_LOD0",
			"rotation":[
				0.49956363439559937,
				0.499563604593277,
				0.5004361271858215,
				0.5004360675811768
			],
			"scale":[
				0.3174017667770386,
				0.40839070081710815,
				0.4083906412124634
			],
			"translation":[
				-2.818511962890625,
				2.3167266845703125,
				2.600165605545044
			]
		},
		{
			"children":[
				11,
				12
			],
			"name":"Floor1"
		},
		{
			"mesh":11,
			"name":"Roof2_LOD0",
			"rotation":[
				-0.70710688829422,
				0,
				0,
				0.7071066498756409
			],
			"scale":[
				0.09568937122821808,
				0.09568926692008972,
				0.3485161066055298
			],
			"translation":[
				0.0238189697265625,
				12.662100791931152,
				-0.021300554275512695
			]
		},
		{
			"mesh":12,
			"name":"Wall2_LOD0",
			"rotation":[
				-0.70710688829422,
				0,
				0,
				0.7071066498756409
			],
			"scale":[
				0.7023169994354248,
				0.7023170590400696,
				0.5827191472053528
			],
			"translation":[
				0.0027313232421875,
				5.800590515136719,
				-0.0013098246417939663
			]
		},
		{
			"children":[
				14,
				15
			],
			"name":"Floor2"
		},
		{
			"mesh":13,
			"name":"Chainbell_LOD0",
			"rotation":[
				-0.5,
				0.5,
				0.5,
				0.5
			],
			"translation":[
				0.010894775390625,
				18.93874168395996,
				-0.006936505436897278
			]
		},
		{
			"mesh":14,
			"name":"Sorin_LOD0",
			"rotation":[
				-0.70710688829422,
				0,
				0,
				0.7071066498756409
			],
			"scale":[
				0.4721888601779938,
				0.47218888998031616,
				0.47218888998031616
			],
			"translation":[
				0.011016845703125,
				13.44141960144043,
				-0.006960354745388031
			]
		},
		{
			"children":[
				17,
				18
			],
			"name":"Sorin"
		},
		{
			"children":[
				1,
				10,
				13,
				16,
				19
			],
			"name":"Pagoda_Tahoto_20m"
		}
	],
	"materials":[
		{
			"doubleSided":true,
			"name":"mat_basalt_base_01.001",
			"pbrMetallicRoughness":{
				"baseColorTexture":{
					"extensions":{
						"KHR_texture_transform":{
							"offset":[
								0,
								0.6500000059604645
							],
							"scale":[
								0.3499999940395355,
								0.3499999940395355
							]
						}
					},
					"index":0
				},
				"metallicFactor":0
			}
		},
		{
			"doubleSided":true,
			"name":"mat_stone_wall_02.001",
			"pbrMetallicRoughness":{
				"baseColorTexture":{
					"extensions":{
						"KHR_texture_transform":{
							"offset":[
								0,
								0.8999999985098839
							],
							"scale":[
								0.10000000149011612,
								0.10000000149011612
							]
						}
					},
					"index":1
				},
				"metallicFactor":0
			}
		},
		{
			"doubleSided":true,
			"name":"mat_wood_plank_03.001",
			"pbrMetallicRoughness":{
				"baseColorTexture":{
					"index":2
				},
				"metallicFactor":0
			}
		},
		{
			"doubleSided":true,
			"name":"mat_wood_pillarRed_02",
			"pbrMetallicRoughness":{
				"baseColorFactor":[
					0.33245158195495605,
					0.05448026955127716,
					0.023153357207775116,
					1
				],
				"baseColorTexture":{
					"extensions":{
						"KHR_texture_transform":{
							"offset":[
								0,
								0.5
							],
							"scale":[
								0.5,
								0.5
							]
						}
					},
					"index":3
				},
				"metallicFactor":0
			}
		},
		{
			"doubleSided":true,
			"name":"mat_wood_beamRed_02",
			"pbrMetallicRoughness":{
				"baseColorFactor":[
					0.42326775193214417,
					0.1384316086769104,
					0.09305896610021591,
					1
				],
				"baseColorTexture":{
					"extensions":{
						"KHR_texture_transform":{
							"offset":[
								0,
								0.5
							],
							"scale":[
								0.5,
								0.5
							]
						}
					},
					"index":4
				},
				"metallicFactor":0
			}
		},
		{
			"doubleSided":true,
			"name":"mat_metal_copper_antique_01.001",
			"pbrMetallicRoughness":{
				"baseColorTexture":{
					"index":5
				},
				"metallicFactor":0
			}
		},
		{
			"doubleSided":true,
			"name":"mat_wood_wall_01.001",
			"pbrMetallicRoughness":{
				"baseColorFactor":[
					0.5583404898643494,
					0.4564109742641449,
					0.3467040956020355,
					1
				],
				"baseColorTexture":{
					"extensions":{
						"KHR_texture_transform":{
							"offset":[
								0,
								0.5
							],
							"scale":[
								0.5,
								0.5
							]
						}
					},
					"index":6
				},
				"metallicFactor":0
			}
		},
		{
			"name":"mat_decal_pagoda_01.001"
		},
		{
			"doubleSided":true,
			"name":"mat_clay_tile_02.001",
			"pbrMetallicRoughness":{
				"baseColorTexture":{
					"extensions":{
						"KHR_texture_transform":{
							"offset":[
								0,
								0.5
							],
							"scale":[
								0.5,
								0.5
							]
						}
					},
					"index":7
				},
				"metallicFactor":0
			}
		},
		{
			"doubleSided":true,
			"name":"mat_wood_paint_white_01.001",
			"pbrMetallicRoughness":{
				"baseColorFactor":[
					0.5711249113082886,
					0.4969330430030823,
					0.4125427007675171,
					1
				],
				"baseColorTexture":{
					"extensions":{
						"KHR_texture_transform":{
							"offset":[
								0,
								0.5
							],
							"scale":[
								0.5,
								0.5
							]
						}
					},
					"index":8
				},
				"metallicFactor":0
			}
		},
		{
			"doubleSided":true,
			"name":"mat_clay_fired_01.001",
			"pbrMetallicRoughness":{
				"baseColorTexture":{
					"extensions":{
						"KHR_texture_transform":{
							"offset":[
								0,
								0.5
							],
							"scale":[
								0.5,
								0.5
							]
						}
					},
					"index":9
				},
				"metallicFactor":0
			}
		},
		{
			"doubleSided":true,
			"name":"mat_clay_tile_01.001",
			"pbrMetallicRoughness":{
				"baseColorTexture":{
					"extensions":{
						"KHR_texture_transform":{
							"offset":[
								0,
								0.5
							],
							"scale":[
								0.5,
								0.5
							]
						}
					},
					"index":10
				},
				"metallicFactor":0
			}
		},
		{
			"doubleSided":true,
			"name":"mat_metal_copper_patina_01.001",
			"pbrMetallicRoughness":{
				"baseColorTexture":{
					"extensions":{
						"KHR_texture_transform":{
							"offset":[
								0,
								0.5
							],
							"scale":[
								0.5,
								0.5
							]
						}
					},
					"index":11
				},
				"metallicFactor":0
			}
		},
		{
			"doubleSided":true,
			"name":"mat_wood_paint_green_01.001",
			"pbrMetallicRoughness":{
				"baseColorFactor":[
					0.04817181080579758,
					0.11953841149806976,
					0.07036009430885315,
					1
				],
				"baseColorTexture":{
					"extensions":{
						"KHR_texture_transform":{
							"offset":[
								0,
								0.5
							],
							"scale":[
								0.5,
								0.5
							]
						}
					},
					"index":12
				},
				"metallicFactor":0
			}
		},
		{
			"doubleSided":true,
			"name":"mat_plaster_wall_01",
			"pbrMetallicRoughness":{
				"baseColorTexture":{
					"extensions":{
						"KHR_texture_transform":{
							"offset":[
								0,
								0.5
							],
							"scale":[
								0.5,
								0.5
							]
						}
					},
					"index":13
				},
				"metallicFactor":0
			}
		}
	],
	"meshes":[
		{
			"name":"Base_LOD0.001",
			"primitives":[
				{
					"attributes":{
						"POSITION":0,
						"NORMAL":1,
						"TEXCOORD_0":2
					},
					"indices":3,
					"material":0
				},
				{
					"attributes":{
						"POSITION":4,
						"NORMAL":5,
						"TEXCOORD_0":6
					},
					"indices":7,
					"material":1
				},
				{
					"attributes":{
						"POSITION":8,
						"NORMAL":9,
						"TEXCOORD_0":10
					},
					"indices":11,
					"material":2
				},
				{
					"attributes":{
						"POSITION":12,
						"NORMAL":13,
						"TEXCOORD_0":14
					},
					"indices":15,
					"material":3
				},
				{
					"attributes":{
						"POSITION":16,
						"NORMAL":17,
						"TEXCOORD_0":18
					},
					"indices":19,
					"material":4
				},
				{
					"attributes":{
						"POSITION":20,
						"NORMAL":21,
						"TEXCOORD_0":22
					},
					"indices":23,
					"material":5
				}
			]
		},
		{
			"name":"Door_EL_LOD0.001",
			"primitives":[
				{
					"attributes":{
						"POSITION":24,
						"NORMAL":25,
						"TEXCOORD_0":26
					},
					"indices":27,
					"material":6
				},
				{
					"attributes":{
						"POSITION":28,
						"NORMAL":29,
						"TEXCOORD_0":30
					},
					"indices":31,
					"material":7
				}
			]
		},
		{
			"name":"Door_ER_LOD0.001",
			"primitives":[
				{
					"attributes":{
						"POSITION":32,
						"NORMAL":33,
						"TEXCOORD_0":34
					},
					"indices":35,
					"material":6
				},
				{
					"attributes":{
						"POSITION":36,
						"NORMAL":37,
						"TEXCOORD_0":38
					},
					"indices":39,
					"material":7
				}
			]
		},
		{
			"name":"Door_NL_LOD0.001",
			"primitives":[
				{
					"attributes":{
						"POSITION":40,
						"NORMAL":41,
						"TEXCOORD_0":42
					},
					"indices":27,
					"material":6
				},
				{
					"attributes":{
						"POSITION":43,
						"NORMAL":44,
						"TEXCOORD_0":45
					},
					"indices":31,
					"material":7
				}
			]
		},
		{
			"name":"Door_NR_LOD0.001",
			"primitives":[
				{
					"attributes":{
						"POSITION":46,
						"NORMAL":47,
						"TEXCOORD_0":48
					},
					"indices":35,
					"material":6
				},
				{
					"attributes":{
						"POSITION":49,
						"NORMAL":50,
						"TEXCOORD_0":51
					},
					"indices":39,
					"material":7
				}
			]
		},
		{
			"name":"Door_SL_LOD0.001",
			"primitives":[
				{
					"attributes":{
						"POSITION":52,
						"NORMAL":53,
						"TEXCOORD_0":54
					},
					"indices":27,
					"material":6
				},
				{
					"attributes":{
						"POSITION":55,
						"NORMAL":56,
						"TEXCOORD_0":57
					},
					"indices":31,
					"material":7
				}
			]
		},
		{
			"name":"Door_SR_LOD0.001",
			"primitives":[
				{
					"attributes":{
						"POSITION":58,
						"NORMAL":59,
						"TEXCOORD_0":60
					},
					"indices":35,
					"material":6
				},
				{
					"attributes":{
						"POSITION":61,
						"NORMAL":62,
						"TEXCOORD_0":63
					},
					"indices":39,
					"material":7
				}
			]
		},
		{
			"name":"Door_WL_LOD0.001",
			"primitives":[
				{
					"attributes":{
						"POSITION":64,
						"NORMAL":65,
						"TEXCOORD_0":66
					},
					"indices":27,
					"material":6
				},
				{
					"attributes":{
						"POSITION":67,
						"NORMAL":68,
						"TEXCOORD_0":69
					},
					"indices":31,
					"material":7
				}
			]
		},
		{
			"name":"Door_WR_LOD0.001",
			"primitives":[
				{
					"attributes":{
						"POSITION":70,
						"NORMAL":71,
						"TEXCOORD_0":72
					},
					"indices":35,
					"material":6
				},
				{
					"attributes":{
						"POSITION":73,
						"NORMAL":74,
						"TEXCOORD_0":75
					},
					"indices":39,
					"material":7
				}
			]
		},
		{
			"name":"Roof1_LOD0.001",
			"primitives":[
				{
					"attributes":{
						"POSITION":76,
						"NORMAL":77,
						"TEXCOORD_0":78
					},
					"indices":79,
					"material":3
				},
				{
					"attributes":{
						"POSITION":80,
						"NORMAL":81,
						"TEXCOORD_0":82
					},
					"indices":83,
					"material":8
				},
				{
					"attributes":{
						"POSITION":84,
						"NORMAL":85,
						"TEXCOORD_0":86
					},
					"indices":87,
					"material":2
				},
				{
					"attributes":{
						"POSITION":88,
						"NORMAL":89,
						"TEXCOORD_0":90
					},
					"indices":91,
					"material":9
				},
				{
					"attributes":{
						"POSITION":92,
						"NORMAL":93,
						"TEXCOORD_0":94
					},
					"indices":95,
					"material":10
				},
				{
					"attributes":{
						"POSITION":96,
						"NORMAL":97,
						"TEXCOORD_0":98
					},
					"indices":99,
					"material":11
				},
				{
					"attributes":{
						"POSITION":100,
						"NORMAL":101,
						"TEXCOORD_0":102
					},
					"indices":103,
					"material":7
				}
			]
		},
		{
			"name":"Wall1_LOD0.001",
			"primitives":[
				{
					"attributes":{
						"POSITION":104,
						"NORMAL":105,
						"TEXCOORD_0":106
					},
					"indices":107,
					"material":4
				},
				{
					"attributes":{
						"POSITION":108,
						"NORMAL":109,
						"TEXCOORD_0":110
					},
					"indices":111,
					"material":5
				},
				{
					"attributes":{
						"POSITION":112,
						"NORMAL":113,
						"TEXCOORD_0":114
					},
					"indices":115,
					"material":9
				},
				{
					"attributes":{
						"POSITION":116,
						"NORMAL":117,
						"TEXCOORD_0":118
					},
					"indices":119,
					"material":3
				},
				{
					"attributes":{
						"POSITION":120,
						"NORMAL":121,
						"TEXCOORD_0":122
					},
					"indices":123,
					"material":2
				},
				{
					"attributes":{
						"POSITION":124,
						"NORMAL":125,
						"TEXCOORD_0":126
					},
					"indices":127,
					"material":7
				},
				{
					"attributes":{
						"POSITION":128,
						"NORMAL":129,
						"TEXCOORD_0":130
					},
					"indices":131,
					"material":12
				},
				{
					"attributes":{
						"POSITION":132,
						"NORMAL":133,
						"TEXCOORD_0":134
					},
					"indices":135,
					"material":13
				}
			]
		},
		{
			"name":"Roof2_LOD0.001",
			"primitives":[
				{
					"attributes":{
						"POSITION":136,
						"NORMAL":137,
						"TEXCOORD_0":138
					},
					"indices":139,
					"material":2
				},
				{
					"attributes":{
						"POSITION":140,
						"NORMAL":141,
						"TEXCOORD_0":142
					},
					"indices":143,
					"material":3
				},
				{
					"attributes":{
						"POSITION":144,
						"NORMAL":145,
						"TEXCOORD_0":146
					},
					"indices":147,
					"material":11
				},
				{
					"attributes":{
						"POSITION":148,
						"NORMAL":149,
						"TEXCOORD_0":150
					},
					"indices":151,
					"material":9
				},
				{
					"attributes":{
						"POSITION":152,
						"NORMAL":153,
						"TEXCOORD_0":154
					},
					"indices":155,
					"material":8
				},
				{
					"attributes":{
						"POSITION":156,
						"NORMAL":157,
						"TEXCOORD_0":158
					},
					"indices":159,
					"material":10
				},
				{
					"attributes":{
						"POSITION":160,
						"NORMAL":161,
						"TEXCOORD_0":162
					},
					"indices":163,
					"material":7
				}
			]
		},
		{
			"name":"Wall2_LOD0.001",
			"primitives":[
				{
					"attributes":{
						"POSITION":164,
						"NORMAL":165,
						"TEXCOORD_0":166
					},
					"indices":167,
					"material":14
				},
				{
					"attributes":{
						"POSITION":168,
						"NORMAL":169,
						"TEXCOORD_0":170
					},
					"indices":171,
					"material":3
				},
				{
					"attributes":{
						"POSITION":172,
						"NORMAL":173,
						"TEXCOORD_0":174
					},
					"indices":175,
					"material":9
				},
				{
					"attributes":{
						"POSITION":176,
						"NORMAL":177,
						"TEXCOORD_0":178
					},
					"indices":179,
					"material":4
				},
				{
					"attributes":{
						"POSITION":180,
						"NORMAL":181,
						"TEXCOORD_0":182
					},
					"indices":183,
					"material":12
				},
				{
					"attributes":{
						"POSITION":184,
						"NORMAL":185,
						"TEXCOORD_0":186
					},
					"indices":187,
					"material":2
				},
				{
					"attributes":{
						"POSITION":188,
						"NORMAL":189,
						"TEXCOORD_0":190
					},
					"indices":191,
					"material":5
				}
			]
		},
		{
			"name":"Chainbell_LOD0",
			"primitives":[
				{
					"attributes":{
						"POSITION":192,
						"NORMAL":193,
						"TEXCOORD_0":194
					},
					"indices":195,
					"material":12
				},
				{
					"attributes":{
						"POSITION":196,
						"NORMAL":197,
						"TEXCOORD_0":198
					},
					"indices":199,
					"material":5
				}
			]
		},
		{
			"name":"Sorin_LOD0.001",
			"primitives":[
				{
					"attributes":{
						"POSITION":200,
						"NORMAL":201,
						"TEXCOORD_0":202
					},
					"indices":203,
					"material":5
				}
			]
		}
	],
	"textures":[
		{
			"sampler":0,
			"source":0
		},
		{
			"sampler":0,
			"source":1
		},
		{
			"sampler":0,
			"source":2
		},
		{
			"sampler":0,
			"source":3
		},
		{
			"sampler":0,
			"source":3
		},
		{
			"sampler":0,
			"source":4
		},
		{
			"sampler":0,
			"source":5
		},
		{
			"sampler":0,
			"source":6
		},
		{
			"sampler":0,
			"source":3
		},
		{
			"sampler":0,
			"source":7
		},
		{
			"sampler":0,
			"source":8
		},
		{
			"sampler":0,
			"source":9
		},
		{
			"sampler":0,
			"source":3
		},
		{
			"sampler":0,
			"source":10
		}
	],
	"images":[
		{
			"mimeType":"image/png",
			"name":"tex_basalt_base_01a",
			"uri":"tex_basalt_base_01a.png"
		},
		{
			"mimeType":"image/png",
			"name":"tex_stone_wall_01a",
			"uri":"tex_stone_wall_01a.png"
		},
		{
			"mimeType":"image/png",
			"name":"tex_wood_plank_03a",
			"uri":"tex_wood_plank_03a.png"
		},
		{
			"mimeType":"image/png",
			"name":"tex_wood_paint_03a",
			"uri":"tex_wood_paint_03a.png"
		},
		{
			"mimeType":"image/png",
			"name":"tex_metal_copper_antique_01a",
			"uri":"tex_metal_copper_antique_01a.png"
		},
		{
			"mimeType":"image/png",
			"name":"tex_wood_wall_01a",
			"uri":"tex_wood_wall_01a.png"
		},
		{
			"mimeType":"image/png",
			"name":"tex_clay_tile_02a",
			"uri":"tex_clay_tile_02a.png"
		},
		{
			"mimeType":"image/png",
			"name":"tex_clay_fired_01a",
			"uri":"tex_clay_fired_01a.png"
		},
		{
			"mimeType":"image/png",
			"name":"tex_clay_tile_01a",
			"uri":"tex_clay_tile_01a.png"
		},
		{
			"mimeType":"image/png",
			"name":"tex_metal_copper_patina_01a",
			"uri":"tex_metal_copper_patina_01a.png"
		},
		{
			"mimeType":"image/png",
			"name":"tex_plaster_base_01a",
			"uri":"tex_plaster_base_01a.png"
		}
	],
	"accessors":[
		{
			"bufferView":0,
			"componentType":5126,
			"count":1232,
			"max":[
				10.36521053314209,
				10.377120018005371,
				1.6352927684783936
			],
			"min":[
				-10.356565475463867,
				-10.370580673217773,
				-1.1479313373565674
			],
			"type":"VEC3"
		},
		{
			"bufferView":1,
			"componentType":5126,
			"count":1232,
			"type":"VEC3"
		},
		{
			"bufferView":2,
			"componentType":5126,
			"count":1232,
			"type":"VEC2"
		},
		{
			"bufferView":3,
			"componentType":5123,
			"count":1848,
			"type":"SCALAR"
		},
		{
			"bufferView":4,
			"componentType":5126,
			"count":20,
			"max":[
				8.799999237060547,
				8.799999237060547,
				0.0002359151840209961
			],
			"min":[
				-8.799999237060547,
				-8.799999237060547,
				-1.148852825164795
			],
			"type":"VEC3"
		},
		{
			"bufferView":5,
			"componentType":5126,
			"count":20,
			"type":"VEC3"
		},
		{
			"bufferView":6,
			"componentType":5126,
			"count":20,
			"type":"VEC2"
		},
		{
			"bufferView":7,
			"componentType":5123,
			"count":30,
			"type":"SCALAR"
		},
		{
			"bufferView":8,
			"componentType":5126,
			"count":8,
			"max":[
				6.591468334197998,
				6.671512603759766,
				1.9890313148498535
			],
			"min":[
				-6.636490821838379,
				-6.556446552276611,
				1.8560869693756104
			],
			"type":"VEC3"
		},
		{
			"bufferView":9,
			"componentType":5126,
			"count":8,
			"type":"VEC3"
		},
		{
			"bufferView":10,
			"componentType":5126,
			"count":8,
			"type":"VEC2"
		},
		{
			"bufferView":11,
			"componentType":5123,
			"count":12,
			"type":"SCALAR"
		},
		{
			"bufferView":12,
			"componentType":5126,
			"count":139,
			"max":[
				6.432421684265137,
				6.48386812210083,
				2.413114309310913
			],
			"min":[
				-6.460688591003418,
				-6.403453350067139,
				1.4984983205795288
			],
			"type":"VEC3"
		},
		{
			"bufferView":13,
			"componentType":5126,
			"count":139,
			"type":"VEC3"
		},
		{
			"bufferView":14,
			"componentType":5126,
			"count":139,
			"type":"VEC2"
		},
		{
			"bufferView":15,
			"componentType":5123,
			"count":201,
			"type":"SCALAR"
		},
		{
			"bufferView":16,
			"componentType":5126,
			"count":150,
			"max":[
				6.481992244720459,
				6.547111988067627,
				3.0161163806915283
			],
			"min":[
				-6.5108842849731445,
				-6.463185787200928,
				0.399628609418869
			],
			"type":"VEC3"
		},
		{
			"bufferView":17,
			"componentType":5126,
			"count":150,
			"type":"VEC3"
		},
		{
			"bufferView":18,
			"componentType":5126,
			"count":150,
			"type":"VEC2"
		},
		{
			"bufferView":19,
			"componentType":5123,
			"count":246,
			"type":"SCALAR"
		},
		{
			"bufferView":20,
			"componentType":5126,
			"count":252,
			"max":[
				6.4855875968933105,
				6.552621364593506,
				3.731945514678955
			],
			"min":[
				-6.5229878425598145,
				-6.467594623565674,
				2.981651782989502
			],
			"type":"VEC3"
		},
		{
			"bufferView":21,
			"componentType":5126,
			"count":252,
			"type":"VEC3"
		},
		{
			"bufferView":22,
			"componentType":5126,
			"count":252,
			"type":"VEC2"
		},
		{
			"bufferView":23,
			"componentType":5123,
			"count":504,
			"type":"SCALAR"
		},
		{
			"bufferView":24,
			"componentType":5126,
			"count":24,
			"max":[
				0.08805620670318604,
				0.05000000074505806,
				2.9826431274414062
			],
			"min":[
				-1.071943759918213,
				-0.05000000074505806,
				0
			],
			"type":"VEC3"
		},
		{
			"bufferView":25,
			"componentType":5126,
			"count":24,
			"type":"VEC3"
		},
		{
			"bufferView":26,
			"componentType":5126,
			"count":24,
			"type":"VEC2"
		},
		{
			"bufferView":27,
			"componentType":5123,
			"count":36,
			"type":"SCALAR"
		},
		{
			"bufferView":28,
			"componentType":5126,
			"count":12,
			"max":[
				0.06947612762451172,
				0.055588047951459885,
				2.9500105381011963
			],
			"min":[
				-1.0189878940582275,
				0.05558709427714348,
				0.01974201202392578
			],
			"type":"VEC3"
		},
		{
			"bufferView":29,
			"componentType":5126,
			"count":12,
			"type":"VEC3"
		},
		{
			"bufferView":30,
			"componentType":5126,
			"count":12,
			"type":"VEC2"
		},
		{
			"bufferView":31,
			"componentType":5123,
			"count":12,
			"type":"SCALAR"
		},
		{
			"bufferView":32,
			"componentType":5126,
			"count":48,
			"max":[
				1.168176293373108,
				0.07908786833286285,
				2.9826431274414062
			],
			"min":[
				-0.056027770042419434,
				-0.05000000074505806,
				0
			],
			"type":"VEC3"
		},
		{
			"bufferView":33,
			"componentType":5126,
			"count":48,
			"type":"VEC3"
		},
		{
			"bufferView":34,
			"componentType":5126,
			"count":48,
			"type":"VEC2"
		},
		{
			"bufferView":35,
			"componentType":5123,
			"count":72,
			"type":"SCALAR"
		},
		{
			"bufferView":36,
			"componentType":5126,
			"count":32,
			"max":[
				1.1681768894195557,
				0.08194723725318909,
				2.9500105381011963
			],
			"min":[
				-0.03883761167526245,
				0.05558614060282707,
				0.01974201202392578
			],
			"type":"VEC3"
		},
		{
			"bufferView":37,
			"componentType":5126,
			"count":32,
			"type":"VEC3"
		},
		{
			"bufferView":38,
			"componentType":5126,
			"count":32,
			"type":"VEC2"
		},
		{
			"bufferView":39,
			"componentType":5123,
			"count":42,
			"type":"SCALAR"
		},
		{
			"bufferView":40,
			"componentType":5126,
			"count":24,
			"max":[
				0.08805620670318604,
				0.05000000074505806,
				2.9826431274414062
			],
			"min":[
				-1.071943759918213,
				-0.05000000074505806,
				0
			],
			"type":"VEC3"
		},
		{
			"bufferView":41,
			"componentType":5126,
			"count":24,
			"type":"VEC3"
		},
		{
			"bufferView":42,
			"componentType":5126,
			"count":24,
			"type":"VEC2"
		},
		{
			"bufferView":43,
			"componentType":5126,
			"count":12,
			"max":[
				0.06947630643844604,
				0.05558900907635689,
				2.9500107765197754
			],
			"min":[
				-1.018988013267517,
				0.05558805540204048,
				0.01974201202392578
			],
			"type":"VEC3"
		},
		{
			"bufferView":44,
			"componentType":5126,
			"count":12,
			"type":"VEC3"
		},
		{
			"bufferView":45,
			"componentType":5126,
			"count":12,
			"type":"VEC2"
		},
		{
			"bufferView":46,
			"componentType":5126,
			"count":48,
			"max":[
				1.168176293373108,
				0.07908786833286285,
				2.9826431274414062
			],
			"min":[
				-0.056027770042419434,
				-0.05000000074505806,
				0
			],
			"type":"VEC3"
		},
		{
			"bufferView":47,
			"componentType":5126,
			"count":48,
			"type":"VEC3"
		},
		{
			"bufferView":48,
			"componentType":5126,
			"count":48,
			"type":"VEC2"
		},
		{
			"bufferView":49,
			"componentType":5126,
			"count":32,
			"max":[
				1.1681768894195557,
				0.0819476991891861,
				2.9500107765197754
			],
			"min":[
				-0.038837730884552,
				0.05558614805340767,
				0.01974201202392578
			],
			"type":"VEC3"
		},
		{
			"bufferView":50,
			"componentType":5126,
			"count":32,
			"type":"VEC3"
		},
		{
			"bufferView":51,
			"componentType":5126,
			"count":32,
			"type":"VEC2"
		},
		{
			"bufferView":52,
			"componentType":5126,
			"count":24,
			"max":[
				0.08805620670318604,
				0.05000000074505806,
				2.9826431274414062
			],
			"min":[
				-1.071943759918213,
				-0.05000000074505806,
				0
			],
			"type":"VEC3"
		},
		{
			"bufferView":53,
			"componentType":5126,
			"count":24,
			"type":"VEC3"
		},
		{
			"bufferView":54,
			"componentType":5126,
			"count":24,
			"type":"VEC2"
		},
		{
			"bufferView":55,
			"componentType":5126,
			"count":12,
			"max":[
				0.06947630643844604,
				0.05558805540204048,
				2.9500107765197754
			],
			"min":[
				-1.0189881324768066,
				0.05558757856488228,
				0.01974201202392578
			],
			"type":"VEC3"
		},
		{
			"bufferView":56,
			"componentType":5126,
			"count":12,
			"type":"VEC3"
		},
		{
			"bufferView":57,
			"componentType":5126,
			"count":12,
			"type":"VEC2"
		},
		{
			"bufferView":58,
			"componentType":5126,
			"count":48,
			"max":[
				1.168176293373108,
				0.07908786833286285,
				2.9826431274414062
			],
			"min":[
				-0.056027770042419434,
				-0.05000000074505806,
				0
			],
			"type":"VEC3"
		},
		{
			"bufferView":59,
			"componentType":5126,
			"count":48,
			"type":"VEC3"
		},
		{
			"bufferView":60,
			"componentType":5126,
			"count":48,
			"type":"VEC2"
		},
		{
			"bufferView":61,
			"componentType":5126,
			"count":32,
			"max":[
				1.1681766510009766,
				0.0819486528635025,
				2.9500107765197754
			],
			"min":[
				-0.038837730884552,
				0.055587101727724075,
				0.01974201202392578
			],
			"type":"VEC3"
		},
		{
			"bufferView":62,
			"componentType":5126,
			"count":32,
			"type":"VEC3"
		},
		{
			"bufferView":63,
			"componentType":5126,
			"count":32,
			"type":"VEC2"
		},
		{
			"bufferView":64,
			"componentType":5126,
			"count":24,
			"max":[
				0.08805620670318604,
				0.05000000074505806,
				2.9826431274414062
			],
			"min":[
				-1.071943759918213,
				-0.05000000074505806,
				0
			],
			"type":"VEC3"
		},
		{
			"bufferView":65,
			"componentType":5126,
			"count":24,
			"type":"VEC3"
		},
		{
			"bufferView":66,
			"componentType":5126,
			"count":24,
			"type":"VEC2"
		},
		{
			"bufferView":67,
			"componentType":5126,
			"count":12,
			"max":[
				0.06947612762451172,
				0.055588047951459885,
				2.9500105381011963
			],
			"min":[
				-1.0189878940582275,
				0.05558757111430168,
				0.01974201202392578
			],
			"type":"VEC3"
		},
		{
			"bufferView":68,
			"componentType":5126,
			"count":12,
			"type":"VEC3"
		},
		{
			"bufferView":69,
			"componentType":5126,
			"count":12,
			"type":"VEC2"
		},
		{
			"bufferView":70,
			"componentType":5126,
			"count":48,
			"max":[
				1.168176293373108,
				0.07908786833286285,
				2.9826431274414062
			],
			"min":[
				-0.056027770042419434,
				-0.05000000074505806,
				0
			],
			"type":"VEC3"
		},
		{
			"bufferView":71,
			"componentType":5126,
			"count":48,
			"type":"VEC3"
		},
		{
			"bufferView":72,
			"componentType":5126,
			"count":48,
			"type":"VEC2"
		},
		{
			"bufferView":73,
			"componentType":5126,
			"count":32,
			"max":[
				1.1681766510009766,
				0.0819486677646637,
				2.9500105381011963
			],
			"min":[
				-0.03883761167526245,
				0.05558757111430168,
				0.01974201202392578
			],
			"type":"VEC3"
		},
		{
			"bufferView":74,
			"componentType":5126,
			"count":32,
			"type":"VEC3"
		},
		{
			"bufferView":75,
			"componentType":5126,
			"count":32,
			"type":"VEC2"
		},
		{
			"bufferView":76,
			"componentType":5126,
			"count":948,
			"max":[
				13.230377197265625,
				13.25846004486084,
				0.2271161526441574
			],
			"min":[
				-13.234086036682129,
				-13.25846004486084,
				-3.6364529132843018
			],
			"type":"VEC3"
		},
		{
			"bufferView":77,
			"componentType":5126,
			"count":948,
			"type":"VEC3"
		},
		{
			"bufferView":78,
			"componentType":5126,
			"count":948,
			"type":"VEC2"
		},
		{
			"bufferView":79,
			"componentType":5123,
			"count":990,
			"type":"SCALAR"
		},
		{
			"bufferView":80,
			"componentType":5126,
			"count":60,
			"max":[
				13.486420631408691,
				13.51501178741455,
				0.2271161526441574
			],
			"min":[
				-13.490130424499512,
				-13.51501178741455,
				-2.784217357635498
			],
			"type":"VEC3"
		},
		{
			"bufferView":81,
			"componentType":5126,
			"count":60,
			"type":"VEC3"
		},
		{
			"bufferView":82,
			"componentType":5126,
			"count":60,
			"type":"VEC2"
		},
		{
			"bufferView":83,
			"componentType":5123,
			"count":72,
			"type":"SCALAR"
		},
		{
			"bufferView":84,
			"componentType":5126,
			"count":84,
			"max":[
				13.486420631408691,
				13.51501178741455,
				-2.1468536853790283
			],
			"min":[
				-13.490130424499512,
				-13.51501178741455,
				-3.0980141162872314
			],
			"type":"VEC3"
		},
		{
			"bufferView":85,
			"componentType":5126,
			"count":84,
			"type":"VEC3"
		},
		{
			"bufferView":86,
			"componentType":5126,
			"count":84,
			"type":"VEC2"
		},
		{
			"bufferView":87,
			"componentType":5123,
			"count":120,
			"type":"SCALAR"
		},
		{
			"bufferView":88,
			"componentType":5126,
			"count":62,
			"max":[
				13.230376243591309,
				13.258459091186523,
				-1.583470344543457
			],
			"min":[
				-13.234086036682129,
				-13.258459091186523,
				-3.6364529132843018
			],
			"type":"VEC3"
		},
		{
			"bufferView":89,
			"componentType":5126,
			"count":62,
			"type":"VEC3"
		},
		{
			"bufferView":90,
			"componentType":5126,
			"count":62,
			"type":"VEC2"
		},
		{
			"bufferView":91,
			"componentType":5123,
			"count":78,
			"type":"SCALAR"
		},
		{
			"bufferView":92,
			"componentType":5126,
			"count":1878,
			"max":[
				13.712627410888672,
				13.690997123718262,
				0.7521729469299316
			],
			"min":[
				-13.722963333129883,
				-13.739752769470215,
				-3.1015188694000244
			],
			"type":"VEC3"
		},
		{
			"bufferView":93,
			"componentType":5126,
			"count":1878,
			"type":"VEC3"
		},
		{
			"bufferView":94,
			"componentType":5126,
			"count":1878,
			"type":"VEC2"
		},
		{
			"bufferView":95,
			"componentType":5123,
			"count":2574,
			"type":"SCALAR"
		},
		{
			"bufferView":96,
			"componentType":5126,
			"count":567,
			"max":[
				13.654512405395508,
				13.626738548278809,
				0.7804180383682251
			],
			"min":[
				-13.638348579406738,
				-13.676078796386719,
				-2.9654860496520996
			],
			"type":"VEC3"
		},
		{
			"bufferView":97,
			"componentType":5126,
			"count":567,
			"type":"VEC3"
		},
		{
			"bufferView":98,
			"componentType":5126,
			"count":567,
			"type":"VEC2"
		},
		{
			"bufferView":99,
			"componentType":5123,
			"count":741,
			"type":"SCALAR"
		},
		{
			"bufferView":100,
			"componentType":5126,
			"count":1587,
			"max":[
				13.7136812210083,
				13.686525344848633,
				0.5465057492256165
			],
			"min":[
				-13.729891777038574,
				-13.744050979614258,
				-2.9867031574249268
			],
			"type":"VEC3"
		},
		{
			"bufferView":101,
			"componentType":5126,
			"count":1587,
			"type":"VEC3"
		},
		{
			"bufferView":102,
			"componentType":5126,
			"count":1587,
			"type":"VEC2"
		},
		{
			"bufferView":103,
			"componentType":5123,
			"count":1929,
			"type":"SCALAR"
		},
		{
			"bufferView":104,
			"componentType":5126,
			"count":748,
			"max":[
				10.787224769592285,
				2.453946352005005,
				15.826494216918945
			],
			"min":[
				-0.24974100291728973,
				-15.27219009399414,
				-1.9016355276107788
			],
			"type":"VEC3"
		},
		{
			"bufferView":105,
			"componentType":5126,
			"count":748,
			"type":"VEC3"
		},
		{
			"bufferView":106,
			"componentType":5126,
			"count":748,
			"type":"VEC2"
		},
		{
			"bufferView":107,
			"componentType":5123,
			"count":888,
			"type":"SCALAR"
		},
		{
			"bufferView":108,
			"componentType":5126,
			"count":50,
			"max":[
				10.647844314575195,
				6.900205135345459,
				20.260787963867188
			],
			"min":[
				9.125043869018555,
				-19.691429138183594,
				-6.336452007293701
			],
			"type":"VEC3"
		},
		{
			"bufferView":109,
			"componentType":5126,
			"count":50,
			"type":"VEC3"
		},
		{
			"bufferView":110,
			"componentType":5126,
			"count":50,
			"type":"VEC2"
		},
		{
			"bufferView":111,
			"componentType":5123,
			"count":72,
			"type":"SCALAR"
		},
		{
			"bufferView":112,
			"componentType":5126,
			"count":99,
			"max":[
				13.34442138671875,
				1.5335700511932373,
				13.406744956970215
			],
			"min":[
				0.46014708280563354,
				-12.852439880371094,
				0.5181141495704651
			],
			"type":"VEC3"
		},
		{
			"bufferView":113,
			"componentType":5126,
			"count":99,
			"type":"VEC3"
		},
		{
			"bufferView":114,
			"componentType":5126,
			"count":99,
			"type":"VEC2"
		},
		{
			"bufferView":115,
			"componentType":5123,
			"count":147,
			"type":"SCALAR"
		},
		{
			"bufferView":116,
			"componentType":5126,
			"count":850,
			"max":[
				12.839523315429688,
				7.759029388427734,
				21.13157081604004
			],
			"min":[
				0.5262028574943542,
				-20.577268600463867,
				-7.206716060638428
			],
			"type":"VEC3"
		},
		{
			"bufferView":117,
			"componentType":5126,
			"count":850,
			"type":"VEC3"
		},
		{
			"bufferView":118,
			"componentType":5126,
			"count":850,
			"type":"VEC2"
		},
		{
			"bufferView":119,
			"componentType":5123,
			"count":1188,
			"type":"SCALAR"
		},
		{
			"bufferView":120,
			"componentType":5126,
			"count":176,
			"max":[
				12.530007362365723,
				4.9113450050354,
				18.281661987304688
			],
			"min":[
				11.089787483215332,
				-17.728036880493164,
				-4.357324600219727
			],
			"type":"VEC3"
		},
		{
			"bufferView":121,
			"componentType":5126,
			"count":176,
			"type":"VEC3"
		},
		{
			"bufferView":122,
			"componentType":5126,
			"count":176,
			"type":"VEC2"
		},
		{
			"bufferView":123,
			"componentType":5123,
			"count":240,
			"type":"SCALAR"
		},
		{
			"bufferView":124,
			"componentType":5126,
			"count":190,
			"max":[
				10.040279388427734,
				1.3123544454574585,
				13.956770896911621
			],
			"min":[
				2.5445268154144287,
				-13.401900291442871,
				-0.029928160831332207
			],
			"type":"VEC3"
		},
		{
			"bufferView":125,
			"componentType":5126,
			"count":190,
			"type":"VEC3"
		},
		{
			"bufferView":126,
			"componentType":5126,
			"count":190,
			"type":"VEC2"
		},
		{
			"bufferView":127,
			"componentType":5123,
			"count":564,
			"type":"SCALAR"
		},
		{
			"bufferView":128,
			"componentType":5126,
			"count":10,
			"max":[
				10.797565460205078,
				6.642220497131348,
				19.934324264526367
			],
			"min":[
				10.614320755004883,
				-19.42681884765625,
				-6.089909076690674
			],
			"type":"VEC3"
		},
		{
			"bufferView":129,
			"componentType":5126,
			"count":10,
			"type":"VEC3"
		},
		{
			"bufferView":130,
			"componentType":5126,
			"count":10,
			"type":"VEC2"
		},
		{
			"bufferView":131,
			"componentType":5123,
			"count":12,
			"type":"SCALAR"
		},
		{
			"bufferView":132,
			"componentType":5126,
			"count":84,
			"max":[
				10.099532127380371,
				1.3769338130950928,
				13.452446937561035
			],
			"min":[
				2.592726230621338,
				-12.927778244018555,
				0.4507382810115814
			],
			"type":"VEC3"
		},
		{
			"bufferView":133,
			"componentType":5126,
			"count":84,
			"type":"VEC3"
		},
		{
			"bufferView":134,
			"componentType":5126,
			"count":84,
			"type":"VEC2"
		},
		{
			"bufferView":135,
			"componentType":5123,
			"count":120,
			"type":"SCALAR"
		},
		{
			"bufferView":136,
			"componentType":5126,
			"count":27,
			"max":[
				48.96091842651367,
				49.0719108581543,
				1.7964822053909302
			],
			"min":[
				-48.98149490356445,
				-49.0711555480957,
				-6.8711042404174805
			],
			"type":"VEC3"
		},
		{
			"bufferView":137,
			"componentType":5126,
			"count":27,
			"type":"VEC3"
		},
		{
			"bufferView":138,
			"componentType":5126,
			"count":27,
			"type":"VEC2"
		},
		{
			"bufferView":139,
			"componentType":5123,
			"count":39,
			"type":"SCALAR"
		},
		{
			"bufferView":140,
			"componentType":5126,
			"count":1579,
			"max":[
				48.101356506347656,
				48.32044219970703,
				2.4771978855133057
			],
			"min":[
				-48.31135177612305,
				-48.2936897277832,
				-7.6205573081970215
			],
			"type":"VEC3"
		},
		{
			"bufferView":141,
			"componentType":5126,
			"count":1579,
			"type":"VEC3"
		},
		{
			"bufferView":142,
			"componentType":5126,
			"count":1579,
			"type":"VEC2"
		},
		{
			"bufferView":143,
			"componentType":5123,
			"count":2211,
			"type":"SCALAR"
		},
		{
			"bufferView":144,
			"componentType":5126,
			"count":1614,
			"max":[
				49.76113510131836,
				49.75122833251953,
				2.1321818828582764
			],
			"min":[
				-49.74871826171875,
				-49.75596237182617,
				-6.999547004699707
			],
			"type":"VEC3"
		},
		{
			"bufferView":145,
			"componentType":5126,
			"count":1614,
			"type":"VEC3"
		},
		{
			"bufferView":146,
			"componentType":5126,
			"count":1614,
			"type":"VEC2"
		},
		{
			"bufferView":147,
			"componentType":5123,
			"count":2418,
			"type":"SCALAR"
		},
		{
			"bufferView":148,
			"componentType":5126,
			"count":32,
			"max":[
				48.038795471191406,
				48.140377044677734,
				-5.361688613891602
			],
			"min":[
				-48.0382080078125,
				-48.1334114074707,
				-7.266602993011475
			],
			"type":"VEC3"
		},
		{
			"bufferView":149,
			"componentType":5126,
			"count":32,
			"type":"VEC3"
		},
		{
			"bufferView":150,
			"componentType":5126,
			"count":32,
			"type":"VEC2"
		},
		{
			"bufferView":151,
			"componentType":5123,
			"count":42,
			"type":"SCALAR"
		},
		{
			"bufferView":152,
			"componentType":5126,
			"count":44,
			"max":[
				48.968936920166016,
				49.07939147949219,
				1.7975759506225586
			],
			"min":[
				-48.98777770996094,
				-49.078556060791016,
				-6.5595221519470215
			],
			"type":"VEC3"
		},
		{
			"bufferView":153,
			"componentType":5126,
			"count":44,
			"type":"VEC3"
		},
		{
			"bufferView":154,
			"componentType":5126,
			"count":44,
			"type":"VEC2"
		},
		{
			"bufferView":155,
			"componentType":5123,
			"count":57,
			"type":"SCALAR"
		},
		{
			"bufferView":156,
			"componentType":5126,
			"count":367,
			"max":[
				50.055320739746094,
				50.06175994873047,
				-4.7342209815979
			],
			"min":[
				-49.8665885925293,
				-49.8260498046875,
				-6.874613285064697
			],
			"type":"VEC3"
		},
		{
			"bufferView":157,
			"componentType":5126,
			"count":367,
			"type":"VEC3"
		},
		{
			"bufferView":158,
			"componentType":5126,
			"count":367,
			"type":"VEC2"
		},
		{
			"bufferView":159,
			"componentType":5123,
			"count":399,
			"type":"SCALAR"
		},
		{
			"bufferView":160,
			"componentType":5126,
			"count":321,
			"max":[
				49.72993850708008,
				49.82677459716797,
				1.4256787300109863
			],
			"min":[
				-49.71751403808594,
				-49.831512451171875,
				-6.660892486572266
			],
			"type":"VEC3"
		},
		{
			"bufferView":161,
			"componentType":5126,
			"count":321,
			"type":"VEC3"
		},
		{
			"bufferView":162,
			"componentType":5126,
			"count":321,
			"type":"VEC2"
		},
		{
			"bufferView":163,
			"componentType":5123,
			"count":321,
			"type":"SCALAR"
		},
		{
			"bufferView":164,
			"componentType":5126,
			"count":41,
			"max":[
				4.763594627380371,
				4.781332492828369,
				4.127310752868652
			],
			"min":[
				-4.763594627380371,
				-4.763594627380371,
				1.4191163778305054
			],
			"type":"VEC3"
		},
		{
			"bufferView":165,
			"componentType":5126,
			"count":41,
			"type":"VEC3"
		},
		{
			"bufferView":166,
			"componentType":5126,
			"count":41,
			"type":"VEC2"
		},
		{
			"bufferView":167,
			"componentType":5123,
			"count":126,
			"type":"SCALAR"
		},
		{
			"bufferView":168,
			"componentType":5126,
			"count":1439,
			"max":[
				6.801507949829102,
				6.800348281860352,
				8.651493072509766
			],
			"min":[
				-6.717155456542969,
				-6.716101169586182,
				3.1560661792755127
			],
			"type":"VEC3"
		},
		{
			"bufferView":169,
			"componentType":5126,
			"count":1439,
			"type":"VEC3"
		},
		{
			"bufferView":170,
			"componentType":5126,
			"count":1439,
			"type":"VEC2"
		},
		{
			"bufferView":171,
			"componentType":5123,
			"count":2202,
			"type":"SCALAR"
		},
		{
			"bufferView":172,
			"componentType":5126,
			"count":127,
			"max":[
				2.9330732822418213,
				2.892038106918335,
				8.907007217407227
			],
			"min":[
				-3.012206792831421,
				-2.8781564235687256,
				2.4480838775634766
			],
			"type":"VEC3"
		},
		{
			"bufferView":173,
			"componentType":5126,
			"count":127,
			"type":"VEC3"
		},
		{
			"bufferView":174,
			"componentType":5126,
			"count":127,
			"type":"VEC2"
		},
		{
			"bufferView":175,
			"componentType":5123,
			"count":327,
			"type":"SCALAR"
		},
		{
			"bufferView":176,
			"componentType":5126,
			"count":2256,
			"max":[
				3.6044788360595703,
				3.602708101272583,
				7.897452354431152
			],
			"min":[
				-3.5497488975524902,
				-3.536764621734619,
				3.796513319015503
			],
			"type":"VEC3"
		},
		{
			"bufferView":177,
			"componentType":5126,
			"count":2256,
			"type":"VEC3"
		},
		{
			"bufferView":178,
			"componentType":5126,
			"count":2256,
			"type":"VEC2"
		},
		{
			"bufferView":179,
			"componentType":5123,
			"count":3354,
			"type":"SCALAR"
		},
		{
			"bufferView":180,
			"componentType":5126,
			"count":17,
			"max":[
				6.287675380706787,
				6.252567291259766,
				7.446458339691162
			],
			"min":[
				-6.200464248657227,
				-6.219323635101318,
				7.355870723724365
			],
			"type":"VEC3"
		},
		{
			"bufferView":181,
			"componentType":5126,
			"count":17,
			"type":"VEC3"
		},
		{
			"bufferView":182,
			"componentType":5126,
			"count":17,
			"type":"VEC2"
		},
		{
			"bufferView":183,
			"componentType":5123,
			"count":21,
			"type":"SCALAR"
		},
		{
			"bufferView":184,
			"componentType":5126,
			"count":231,
			"max":[
				4.350747108459473,
				4.369740009307861,
				8.412672996520996
			],
			"min":[
				-4.33400297164917,
				-4.306330680847168,
				4.349636077880859
			],
			"type":"VEC3"
		},
		{
			"bufferView":185,
			"componentType":5126,
			"count":231,
			"type":"VEC3"
		},
		{
			"bufferView":186,
			"componentType":5126,
			"count":231,
			"type":"VEC2"
		},
		{
			"bufferView":187,
			"componentType":5123,
			"count":327,
			"type":"SCALAR"
		},
		{
			"bufferView":188,
			"componentType":5126,
			"count":86,
			"max":[
				6.35675573348999,
				6.35558557510376,
				7.379271507263184
			],
			"min":[
				-6.336507320404053,
				-6.324028968811035,
				6.702293872833252
			],
			"type":"VEC3"
		},
		{
			"bufferView":189,
			"componentType":5126,
			"count":86,
			"type":"VEC3"
		},
		{
			"bufferView":190,
			"componentType":5126,
			"count":86,
			"type":"VEC2"
		},
		{
			"bufferView":191,
			"componentType":5123,
			"count":120,
			"type":"SCALAR"
		},
		{
			"bufferView":192,
			"componentType":5126,
			"count":192,
			"max":[
				3.8091585636138916,
				3.8091585636138916,
				0.007010016590356827
			],
			"min":[
				-3.809157133102417,
				-3.8091585636138916,
				-7.863860130310059
			],
			"type":"VEC3"
		},
		{
			"bufferView":193,
			"componentType":5126,
			"count":192,
			"type":"VEC3"
		},
		{
			"bufferView":194,
			"componentType":5126,
			"count":192,
			"type":"VEC2"
		},
		{
			"bufferView":195,
			"componentType":5123,
			"count":456,
			"type":"SCALAR"
		},
		{
			"bufferView":196,
			"componentType":5126,
			"count":2167,
			"max":[
				3.9051151275634766,
				3.881256580352783,
				-2.0760550498962402
			],
			"min":[
				-3.86092472076416,
				-3.8799989223480225,
				-7.96842098236084
			],
			"type":"VEC3"
		},
		{
			"bufferView":197,
			"componentType":5126,
			"count":2167,
			"type":"VEC3"
		},
		{
			"bufferView":198,
			"componentType":5126,
			"count":2167,
			"type":"VEC2"
		},
		{
			"bufferView":199,
			"componentType":5123,
			"count":4326,
			"type":"SCALAR"
		},
		{
			"bufferView":200,
			"componentType":5126,
			"count":2768,
			"max":[
				1.2400000095367432,
				1.2400000095367432,
				13.94038200378418
			],
			"min":[
				-1.2400000095367432,
				-1.2400000095367432,
				0.1746184378862381
			],
			"type":"VEC3"
		},
		{
			"bufferView":201,
			"componentType":5126,
			"count":2768,
			"type":"VEC3"
		},
		{
			"bufferView":202,
			"componentType":5126,
			"count":2768,
			"type":"VEC2"
		},
		{
			"bufferView":203,
			"componentType":5123,
			"count":5910,
			"type":"SCALAR"
		}
	],
	"bufferViews":[
		{
			"buffer":0,
			"byteLength":14784,
			"byteOffset":0,
			"target":34962
		},
		{
			"buffer":0,
			"byteLength":14784,
			"byteOffset":14784,
			"target":34962
		},
		{
			"buffer":0,
			"byteLength":9856,
			"byteOffset":29568,
			"target":34962
		},
		{
			"buffer":0,
			"byteLength":3696,
			"byteOffset":39424,
			"target":34963
		},
		{
			"buffer":0,
			"byteLength":240,
			"byteOffset":43120,
			"target":34962
		},
		{
			"buffer":0,
			"byteLength":240,
			"byteOffset":43360,
			"target":34962
		},
		{
			"buffer":0,
			"byteLength":160,
			"byteOffset":43600,
			"target":34962
		},
		{
			"buffer":0,
			"byteLength":60,
			"byteOffset":43760,
			"target":34963
		},
		{
			"buffer":0,
			"byteLength":96,
			"byteOffset":43820,
			"target":34962
		},
		{
			"buffer":0,
			"byteLength":96,
			"byteOffset":43916,
			"target":34962
		},
		{
			"buffer":0,
			"byteLength":64,
			"byteOffset":44012,
			"target":34962
		},
		{
			"buffer":0,
			"byteLength":24,
			"byteOffset":44076,
			"target":34963
		},
		{
			"buffer":0,
			"byteLength":1668,
			"byteOffset":44100,
			"target":34962
		},
		{
			"buffer":0,
			"byteLength":1668,
			"byteOffset":45768,
			"target":34962
		},
		{
			"buffer":0,
			"byteLength":1112,
			"byteOffset":47436,
			"target":34962
		},
		{
			"buffer":0,
			"byteLength":402,
			"byteOffset":48548,
			"target":34963
		},
		{
			"buffer":0,
			"byteLength":1800,
			"byteOffset":48952,
			"target":34962
		},
		{
			"buffer":0,
			"byteLength":1800,
			"byteOffset":50752,
			"target":34962
		},
		{
			"buffer":0,
			"byteLength":1200,
			"byteOffset":52552,
			"target":34962
		},
		{
			"buffer":0,
			"byteLength":492,
			"byteOffset":53752,
			"target":34963
		},
		{
			"buffer":0,
			"byteLength":3024,
			"byteOffset":54244,
			"target":34962
		},
		{
			"buffer":0,
			"byteLength":3024,
			"byteOffset":57268,
			"target":34962
		},
		{
			"buffer":0,
			"byteLength":2016,
			"byteOffset":60292,
			"target":34962
		},
		{
			"buffer":0,
			"byteLength":1008,
			"byteOffset":62308,
			"target":34963
		},
		{
			"buffer":0,
			"byteLength":288,
			"byteOffset":63316,
			"target":34962
		},
		{
			"buffer":0,
			"byteLength":288,
			"byteOffset":63604,
			"target":34962
		},
		{
			"buffer":0,
			"byteLength":192,
			"byteOffset":63892,
			"target":34962
		},
		{
			"buffer":0,
			"byteLength":72,
			"byteOffset":64084,
			"target":34963
		},
		{
			"buffer":0,
			"byteLength":144,
			"byteOffset":64156,
			"target":34962
		},
		{
			"buffer":0,
			"byteLength":144,
			"byteOffset":64300,
			"target":34962
		},
		{
			"buffer":0,
			"byteLength":96,
			"byteOffset":64444,
			"target":34962
		},
		{
			"buffer":0,
			"byteLength":24,
			"byteOffset":64540,
			"target":34963
		},
		{
			"buffer":0,
			"byteLength":576,
			"byteOffset":64564,
			"target":34962
		},
		{
			"buffer":0,
			"byteLength":576,
			"byteOffset":65140,
			"target":34962
		},
		{
			"buffer":0,
			"byteLength":384,
			"byteOffset":65716,
			"target":34962
		},
		{
			"buffer":0,
			"byteLength":144,
			"byteOffset":66100,
			"target":34963
		},
		{
			"buffer":0,
			"byteLength":384,
			"byteOffset":66244,
			"target":34962
		},
		{
			"buffer":0,
			"byteLength":384,
			"byteOffset":66628,
			"target":34962
		},
		{
			"buffer":0,
			"byteLength":256,
			"byteOffset":67012,
			"target":34962
		},
		{
			"buffer":0,
			"byteLength":84,
			"byteOffset":67268,
			"target":34963
		},
		{
			"buffer":0,
			"byteLength":288,
			"byteOffset":67352,
			"target":34962
		},
		{
			"buffer":0,
			"byteLength":288,
			"byteOffset":67640,
			"target":34962
		},
		{
			"buffer":0,
			"byteLength":192,
			"byteOffset":67928,
			"target":34962
		},
		{
			"buffer":0,
			"byteLength":144,
			"byteOffset":68120,
			"target":34962
		},
		{
			"buffer":0,
			"byteLength":144,
			"byteOffset":68264,
			"target":34962
		},
		{
			"buffer":0,
			"byteLength":96,
			"byteOffset":68408,
			"target":34962
		},
		{
			"buffer":0,
			"byteLength":576,
			"byteOffset":68504,
			"target":34962
		},
		{
			"buffer":0,
			"byteLength":576,
			"byteOffset":69080,
			"target":34962
		},
		{
			"buffer":0,
			"byteLength":384,
			"byteOffset":69656,
			"target":34962
		},
		{
			"buffer":0,
			"byteLength":384,
			"byteOffset":70040,
			"target":34962
		},
		{
			"buffer":0,
			"byteLength":384,
			"byteOffset":70424,
			"target":34962
		},
		{
			"buffer":0,
			"byteLength":256,
			"byteOffset":70808,
			"target":34962
		},
		{
			"buffer":0,
			"byteLength":288,
			"byteOffset":71064,
			"target":34962
		},
		{
			"buffer":0,
			"byteLength":288,
			"byteOffset":71352,
			"target":34962
		},
		{
			"buffer":0,
			"byteLength":192,
			"byteOffset":71640,
			"target":34962
		},
		{
			"buffer":0,
			"byteLength":144,
			"byteOffset":71832,
			"target":34962
		},
		{
			"buffer":0,
			"byteLength":144,
			"byteOffset":71976,
			"target":34962
		},
		{
			"buffer":0,
			"byteLength":96,
			"byteOffset":72120,
			"target":34962
		},
		{
			"buffer":0,
			"byteLength":576,
			"byteOffset":72216,
			"target":34962
		},
		{
			"buffer":0,
			"byteLength":576,
			"byteOffset":72792,
			"target":34962
		},
		{
			"buffer":0,
			"byteLength":384,
			"byteOffset":73368,
			"target":34962
		},
		{
			"buffer":0,
			"byteLength":384,
			"byteOffset":73752,
			"target":34962
		},
		{
			"buffer":0,
			"byteLength":384,
			"byteOffset":74136,
			"target":34962
		},
		{
			"buffer":0,
			"byteLength":256,
			"byteOffset":74520,
			"target":34962
		},
		{
			"buffer":0,
			"byteLength":288,
			"byteOffset":74776,
			"target":34962
		},
		{
			"buffer":0,
			"byteLength":288,
			"byteOffset":75064,
			"target":34962
		},
		{
			"buffer":0,
			"byteLength":192,
			"byteOffset":75352,
			"target":34962
		},
		{
			"buffer":0,
			"byteLength":144,
			"byteOffset":75544,
			"target":34962
		},
		{
			"buffer":0,
			"byteLength":144,
			"byteOffset":75688,
			"target":34962
		},
		{
			"buffer":0,
			"byteLength":96,
			"byteOffset":75832,
			"target":34962
		},
		{
			"buffer":0,
			"byteLength":576,
			"byteOffset":75928,
			"target":34962
		},
		{
			"buffer":0,
			"byteLength":576,
			"byteOffset":76504,
			"target":34962
		},
		{
			"buffer":0,
			"byteLength":384,
			"byteOffset":77080,
			"target":34962
		},
		{
			"buffer":0,
			"byteLength":384,
			"byteOffset":77464,
			"target":34962
		},
		{
			"buffer":0,
			"byteLength":384,
			"byteOffset":77848,
			"target":34962
		},
		{
			"buffer":0,
			"byteLength":256,
			"byteOffset":78232,
			"target":34962
		},
		{
			"buffer":0,
			"byteLength":11376,
			"byteOffset":78488,
			"target":34962
		},
		{
			"buffer":0,
			"byteLength":11376,
			"byteOffset":89864,
			"target":34962
		},
		{
			"buffer":0,
			"byteLength":7584,
			"byteOffset":101240,
			"target":34962
		},
		{
			"buffer":0,
			"byteLength":1980,
			"byteOffset":108824,
			"target":34963
		},
		{
			"buffer":0,
			"byteLength":720,
			"byteOffset":110804,
			"target":34962
		},
		{
			"buffer":0,
			"byteLength":720,
			"byteOffset":111524,
			"target":34962
		},
		{
			"buffer":0,
			"byteLength":480,
			"byteOffset":112244,
			"target":34962
		},
		{
			"buffer":0,
			"byteLength":144,
			"byteOffset":112724,
			"target":34963
		},
		{
			"buffer":0,
			"byteLength":1008,
			"byteOffset":112868,
			"target":34962
		},
		{
			"buffer":0,
			"byteLength":1008,
			"byteOffset":113876,
			"target":34962
		},
		{
			"buffer":0,
			"byteLength":672,
			"byteOffset":114884,
			"target":34962
		},
		{
			"buffer":0,
			"byteLength":240,
			"byteOffset":115556,
			"target":34963
		},
		{
			"buffer":0,
			"byteLength":744,
			"byteOffset":115796,
			"target":34962
		},
		{
			"buffer":0,
			"byteLength":744,
			"byteOffset":116540,
			"target":34962
		},
		{
			"buffer":0,
			"byteLength":496,
			"byteOffset":117284,
			"target":34962
		},
		{
			"buffer":0,
			"byteLength":156,
			"byteOffset":117780,
			"target":34963
		},
		{
			"buffer":0,
			"byteLength":22536,
			"byteOffset":117936,
			"target":34962
		},
		{
			"buffer":0,
			"byteLength":22536,
			"byteOffset":140472,
			"target":34962
		},
		{
			"buffer":0,
			"byteLength":15024,
			"byteOffset":163008,
			"target":34962
		},
		{
			"buffer":0,
			"byteLength":5148,
			"byteOffset":178032,
			"target":34963
		},
		{
			"buffer":0,
			"byteLength":6804,
			"byteOffset":183180,
			"target":34962
		},
		{
			"buffer":0,
			"byteLength":6804,
			"byteOffset":189984,
			"target":34962
		},
		{
			"buffer":0,
			"byteLength":4536,
			"byteOffset":196788,
			"target":34962
		},
		{
			"buffer":0,
			"byteLength":1482,
			"byteOffset":201324,
			"target":34963
		},
		{
			"buffer":0,
			"byteLength":19044,
			"byteOffset":202808,
			"target":34962
		},
		{
			"buffer":0,
			"byteLength":19044,
			"byteOffset":221852,
			"target":34962
		},
		{
			"buffer":0,
			"byteLength":12696,
			"byteOffset":240896,
			"target":34962
		},
		{
			"buffer":0,
			"byteLength":3858,
			"byteOffset":253592,
			"target":34963
		},
		{
			"buffer":0,
			"byteLength":8976,
			"byteOffset":257452,
			"target":34962
		},
		{
			"buffer":0,
			"byteLength":8976,
			"byteOffset":266428,
			"target":34962
		},
		{
			"buffer":0,
			"byteLength":5984,
			"byteOffset":275404,
			"target":34962
		},
		{
			"buffer":0,
			"byteLength":1776,
			"byteOffset":281388,
			"target":34963
		},
		{
			"buffer":0,
			"byteLength":600,
			"byteOffset":283164,
			"target":34962
		},
		{
			"buffer":0,
			"byteLength":600,
			"byteOffset":283764,
			"target":34962
		},
		{
			"buffer":0,
			"byteLength":400,
			"byteOffset":284364,
			"target":34962
		},
		{
			"buffer":0,
			"byteLength":144,
			"byteOffset":284764,
			"target":34963
		},
		{
			"buffer":0,
			"byteLength":1188,
			"byteOffset":284908,
			"target":34962
		},
		{
			"buffer":0,
			"byteLength":1188,
			"byteOffset":286096,
			"target":34962
		},
		{
			"buffer":0,
			"byteLength":792,
			"byteOffset":287284,
			"target":34962
		},
		{
			"buffer":0,
			"byteLength":294,
			"byteOffset":288076,
			"target":34963
		},
		{
			"buffer":0,
			"byteLength":10200,
			"byteOffset":288372,
			"target":34962
		},
		{
			"buffer":0,
			"byteLength":10200,
			"byteOffset":298572,
			"target":34962
		},
		{
			"buffer":0,
			"byteLength":6800,
			"byteOffset":308772,
			"target":34962
		},
		{
			"buffer":0,
			"byteLength":2376,
			"byteOffset":315572,
			"target":34963
		},
		{
			"buffer":0,
			"byteLength":2112,
			"byteOffset":317948,
			"target":34962
		},
		{
			"buffer":0,
			"byteLength":2112,
			"byteOffset":320060,
			"target":34962
		},
		{
			"buffer":0,
			"byteLength":1408,
			"byteOffset":322172,
			"target":34962
		},
		{
			"buffer":0,
			"byteLength":480,
			"byteOffset":323580,
			"target":34963
		},
		{
			"buffer":0,
			"byteLength":2280,
			"byteOffset":324060,
			"target":34962
		},
		{
			"buffer":0,
			"byteLength":2280,
			"byteOffset":326340,
			"target":34962
		},
		{
			"buffer":0,
			"byteLength":1520,
			"byteOffset":328620,
			"target":34962
		},
		{
			"buffer":0,
			"byteLength":1128,
			"byteOffset":330140,
			"target":34963
		},
		{
			"buffer":0,
			"byteLength":120,
			"byteOffset":331268,
			"target":34962
		},
		{
			"buffer":0,
			"byteLength":120,
			"byteOffset":331388,
			"target":34962
		},
		{
			"buffer":0,
			"byteLength":80,
			"byteOffset":331508,
			"target":34962
		},
		{
			"buffer":0,
			"byteLength":24,
			"byteOffset":331588,
			"target":34963
		},
		{
			"buffer":0,
			"byteLength":1008,
			"byteOffset":331612,
			"target":34962
		},
		{
			"buffer":0,
			"byteLength":1008,
			"byteOffset":332620,
			"target":34962
		},
		{
			"buffer":0,
			"byteLength":672,
			"byteOffset":333628,
			"target":34962
		},
		{
			"buffer":0,
			"byteLength":240,
			"byteOffset":334300,
			"target":34963
		},
		{
			"buffer":0,
			"byteLength":324,
			"byteOffset":334540,
			"target":34962
		},
		{
			"buffer":0,
			"byteLength":324,
			"byteOffset":334864,
			"target":34962
		},
		{
			"buffer":0,
			"byteLength":216,
			"byteOffset":335188,
			"target":34962
		},
		{
			"buffer":0,
			"byteLength":78,
			"byteOffset":335404,
			"target":34963
		},
		{
			"buffer":0,
			"byteLength":18948,
			"byteOffset":335484,
			"target":34962
		},
		{
			"buffer":0,
			"byteLength":18948,
			"byteOffset":354432,
			"target":34962
		},
		{
			"buffer":0,
			"byteLength":12632,
			"byteOffset":373380,
			"target":34962
		},
		{
			"buffer":0,
			"byteLength":4422,
			"byteOffset":386012,
			"target":34963
		},
		{
			"buffer":0,
			"byteLength":19368,
			"byteOffset":390436,
			"target":34962
		},
		{
			"buffer":0,
			"byteLength":19368,
			"byteOffset":409804,
			"target":34962
		},
		{
			"buffer":0,
			"byteLength":12912,
			"byteOffset":429172,
			"target":34962
		},
		{
			"buffer":0,
			"byteLength":4836,
			"byteOffset":442084,
			"target":34963
		},
		{
			"buffer":0,
			"byteLength":384,
			"byteOffset":446920,
			"target":34962
		},
		{
			"buffer":0,
			"byteLength":384,
			"byteOffset":447304,
			"target":34962
		},
		{
			"buffer":0,
			"byteLength":256,
			"byteOffset":447688,
			"target":34962
		},
		{
			"buffer":0,
			"byteLength":84,
			"byteOffset":447944,
			"target":34963
		},
		{
			"buffer":0,
			"byteLength":528,
			"byteOffset":448028,
			"target":34962
		},
		{
			"buffer":0,
			"byteLength":528,
			"byteOffset":448556,
			"target":34962
		},
		{
			"buffer":0,
			"byteLength":352,
			"byteOffset":449084,
			"target":34962
		},
		{
			"buffer":0,
			"byteLength":114,
			"byteOffset":449436,
			"target":34963
		},
		{
			"buffer":0,
			"byteLength":4404,
			"byteOffset":449552,
			"target":34962
		},
		{
			"buffer":0,
			"byteLength":4404,
			"byteOffset":453956,
			"target":34962
		},
		{
			"buffer":0,
			"byteLength":2936,
			"byteOffset":458360,
			"target":34962
		},
		{
			"buffer":0,
			"byteLength":798,
			"byteOffset":461296,
			"target":34963
		},
		{
			"buffer":0,
			"byteLength":3852,
			"byteOffset":462096,
			"target":34962
		},
		{
			"buffer":0,
			"byteLength":3852,
			"byteOffset":465948,
			"target":34962
		},
		{
			"buffer":0,
			"byteLength":2568,
			"byteOffset":469800,
			"target":34962
		},
		{
			"buffer":0,
			"byteLength":642,
			"byteOffset":472368,
			"target":34963
		},
		{
			"buffer":0,
			"byteLength":492,
			"byteOffset":473012,
			"target":34962
		},
		{
			"buffer":0,
			"byteLength":492,
			"byteOffset":473504,
			"target":34962
		},
		{
			"buffer":0,
			"byteLength":328,
			"byteOffset":473996,
			"target":34962
		},
		{
			"buffer":0,
			"byteLength":252,
			"byteOffset":474324,
			"target":34963
		},
		{
			"buffer":0,
			"byteLength":17268,
			"byteOffset":474576,
			"target":34962
		},
		{
			"buffer":0,
			"byteLength":17268,
			"byteOffset":491844,
			"target":34962
		},
		{
			"buffer":0,
			"byteLength":11512,
			"byteOffset":509112,
			"target":34962
		},
		{
			"buffer":0,
			"byteLength":4404,
			"byteOffset":520624,
			"target":34963
		},
		{
			"buffer":0,
			"byteLength":1524,
			"byteOffset":525028,
			"target":34962
		},
		{
			"buffer":0,
			"byteLength":1524,
			"byteOffset":526552,
			"target":34962
		},
		{
			"buffer":0,
			"byteLength":1016,
			"byteOffset":528076,
			"target":34962
		},
		{
			"buffer":0,
			"byteLength":654,
			"byteOffset":529092,
			"target":34963
		},
		{
			"buffer":0,
			"byteLength":27072,
			"byteOffset":529748,
			"target":34962
		},
		{
			"buffer":0,
			"byteLength":27072,
			"byteOffset":556820,
			"target":34962
		},
		{
			"buffer":0,
			"byteLength":18048,
			"byteOffset":583892,
			"target":34962
		},
		{
			"buffer":0,
			"byteLength":6708,
			"byteOffset":601940,
			"target":34963
		},
		{
			"buffer":0,
			"byteLength":204,
			"byteOffset":608648,
			"target":34962
		},
		{
			"buffer":0,
			"byteLength":204,
			"byteOffset":608852,
			"target":34962
		},
		{
			"buffer":0,
			"byteLength":136,
			"byteOffset":609056,
			"target":34962
		},
		{
			"buffer":0,
			"byteLength":42,
			"byteOffset":609192,
			"target":34963
		},
		{
			"buffer":0,
			"byteLength":2772,
			"byteOffset":609236,
			"target":34962
		},
		{
			"buffer":0,
			"byteLength":2772,
			"byteOffset":612008,
			"target":34962
		},
		{
			"buffer":0,
			"byteLength":1848,
			"byteOffset":614780,
			"target":34962
		},
		{
			"buffer":0,
			"byteLength":654,
			"byteOffset":616628,
			"target":34963
		},
		{
			"buffer":0,
			"byteLength":1032,
			"byteOffset":617284,
			"target":34962
		},
		{
			"buffer":0,
			"byteLength":1032,
			"byteOffset":618316,
			"target":34962
		},
		{
			"buffer":0,
			"byteLength":688,
			"byteOffset":619348,
			"target":34962
		},
		{
			"buffer":0,
			"byteLength":240,
			"byteOffset":620036,
			"target":34963
		},
		{
			"buffer":0,
			"byteLength":2304,
			"byteOffset":620276,
			"target":34962
		},
		{
			"buffer":0,
			"byteLength":2304,
			"byteOffset":622580,
			"target":34962
		},
		{
			"buffer":0,
			"byteLength":1536,
			"byteOffset":624884,
			"target":34962
		},
		{
			"buffer":0,
			"byteLength":912,
			"byteOffset":626420,
			"target":34963
		},
		{
			"buffer":0,
			"byteLength":26004,
			"byteOffset":627332,
			"target":34962
		},
		{
			"buffer":0,
			"byteLength":26004,
			"byteOffset":653336,
			"target":34962
		},
		{
			"buffer":0,
			"byteLength":17336,
			"byteOffset":679340,
			"target":34962
		},
		{
			"buffer":0,
			"byteLength":8652,
			"byteOffset":696676,
			"target":34963
		},
		{
			"buffer":0,
			"byteLength":33216,
			"byteOffset":705328,
			"target":34962
		},
		{
			"buffer":0,
			"byteLength":33216,
			"byteOffset":738544,
			"target":34962
		},
		{
			"buffer":0,
			"byteLength":22144,
			"byteOffset":771760,
			"target":34962
		},
		{
			"buffer":0,
			"byteLength":11820,
			"byteOffset":793904,
			"target":34963
		}
	],
	"samplers":[
		{
			"magFilter":9729,
			"minFilter":9987
		}
	],
	"buffers":[
		{
			"byteLength":805724,
			"uri":"Pagoda_Tahoto_20m.bin"
		}
	]
}
