{
	"asset":{
		"generator":"Khronos glTF Blender I/O v4.4.56",
		"version":"2.0"
	},
	"extensionsUsed":[
		"KHR_texture_transform"
	],
	"extensionsRequired":[
		"KHR_texture_transform"
	],
	"scene":0,
	"scenes":[
		{
			"name":"Scene",
			"nodes":[
				22
			]
		}
	],
	"nodes":[
		{
			"mesh":0,
			"name":"Base_LOD0.004",
			"rotation":[
				-0.70710688829422,
				0,
				0,
				0.7071066498756409
			],
			"scale":[
				0.6475023031234741,
				0.6475023627281189,
				0.6033990383148193
			],
			"translation":[
				0.0409240648150444,
				-0.26363658905029297,
				0.018795546144247055
			]
		},
		{
			"children":[
				0
			],
			"name":"Base.004"
		},
		{
			"mesh":1,
			"name":"Door_EL_LOD0.004",
			"rotation":[
				-0.4995635151863098,
				-0.5004361271858215,
				-0.5004361271858215,
				0.4995635151863098
			],
			"scale":[
				0.4430612623691559,
				0.48587772250175476,
				0.48587748408317566
			],
			"translation":[
				2.4607770442962646,
				1.160430908203125,
				0.4685262143611908
			]
		},
		{
			"mesh":2,
			"name":"Door_ER_LOD0.004",
			"rotation":[
				-0.4995635151863098,
				-0.5004361271858215,
				-0.5004361271858215,
				0.4995635151863098
			],
			"scale":[
				0.4430612623691559,
				0.48587772250175476,
				0.48587748408317566
			],
			"translation":[
				2.462463140487671,
				1.160430908203125,
				-0.49824589490890503
			]
		},
		{
			"mesh":3,
			"name":"Door_NL_LOD0.004",
			"rotation":[
				-0.7071065902709961,
				-0.0006170273409225047,
				-0.0006170273409225047,
				0.7071064710617065
			],
			"scale":[
				0.4430612027645111,
				0.48587772250175476,
				0.48587748408317566
			],
			"translation":[
				0.5090334415435791,
				1.160430908203125,
				-2.442181348800659
			]
		},
		{
			"mesh":4,
			"name":"Door_NR_LOD0.004",
			"rotation":[
				-0.7071065902709961,
				-0.0006170273409225047,
				-0.0006170273409225047,
				0.7071064710617065
			],
			"scale":[
				0.4430612027645111,
				0.48587772250175476,
				0.48587748408317566
			],
			"translation":[
				-0.45774045586586,
				1.160430908203125,
				-2.443868637084961
			]
		},
		{
			"mesh":5,
			"name":"Door_SL_LOD0.004",
			"rotation":[
				-0.000616908073425293,
				0.7071064710617065,
				0.7071065902709961,
				0.000616908073425293
			],
			"scale":[
				0.4430612623691559,
				0.48587772250175476,
				0.48587748408317566
			],
			"translation":[
				-0.4500429928302765,
				1.160430908203125,
				2.419435739517212
			]
		},
		{
			"mesh":6,
			"name":"Door_SR_LOD0.004",
			"rotation":[
				-0.000616908073425293,
				0.7071064710617065,
				0.7071065902709961,
				0.000616908073425293
			],
			"scale":[
				0.4430612623691559,
				0.48587772250175476,
				0.48587748408317566
			],
			"translation":[
				0.5167309045791626,
				1.160430908203125,
				2.4211230278015137
			]
		},
		{
			"mesh":7,
			"name":"Door_WL_LOD0.004",
			"rotation":[
				-0.5004361271858215,
				0.4995635151863098,
				0.4995635151863098,
				0.5004361271858215
			],
			"scale":[
				0.4430612623691559,
				0.48587772250175476,
				0.48587748408317566
			],
			"translation":[
				-2.401588201522827,
				1.160430908203125,
				-0.49069327116012573
			]
		},
		{
			"mesh":8,
			"name":"Door_WR_LOD0.004",
			"rotation":[
				-0.5004361271858215,
				0.4995635151863098,
				0.4995635151863098,
				0.5004361271858215
			],
			"scale":[
				0.4430612623691559,
				0.48587772250175476,
				0.48587748408317566
			],
			"translation":[
				-2.4032742977142334,
				1.160430908203125,
				0.47607913613319397
			]
		},
		{
			"children":[
				2,
				3,
				4,
				5,
				6,
				7,
				8,
				9
			],
			"name":"Doors.004"
		},
		{
			"mesh":9,
			"name":"Roof1_LOD0.004",
			"rotation":[
				-0.7071069478988647,
				0,
				0,
				0.7071066498756409
			],
			"scale":[
				0.3928320109844208,
				0.39283204078674316,
				0.39283204078674316
			],
			"translation":[
				0.02629852294921875,
				5.513920783996582,
				-0.0184859000146389
			]
		},
		{
			"mesh":10,
			"name":"Wall1_LOD0.004",
			"rotation":[
				0.499563604593277,
				0.499563604593277,
				0.5004361271858215,
				0.5004360675811768
			],
			"scale":[
				0.2915264964103699,
				0.37509775161743164,
				0.37509769201278687
			],
			"translation":[
				-2.5861892700195312,
				1.005446434020996,
				2.388113498687744
			]
		},
		{
			"children":[
				11,
				12
			],
			"name":"Floor1.004"
		},
		{
			"mesh":11,
			"name":"Roof2_LOD0.004",
			"rotation":[
				-0.7071069478988647,
				0,
				0,
				0.7071066498756409
			],
			"scale":[
				0.3830111622810364,
				0.38301119208335876,
				0.38301119208335876
			],
			"translation":[
				0.0263824462890625,
				9.620003700256348,
				-0.01830136403441429
			]
		},
		{
			"mesh":12,
			"name":"Wall2_LOD0.004",
			"rotation":[
				0.4995635449886322,
				0.499563604593277,
				0.5004360675811768,
				0.500436007976532
			],
			"scale":[
				0.2842383086681366,
				0.3657205104827881,
				0.3657205104827881
			],
			"translation":[
				-2.5207977294921875,
				5.224240303039551,
				2.3281328678131104
			]
		},
		{
			"children":[
				14,
				15
			],
			"name":"Floor2.004"
		},
		{
			"mesh":13,
			"name":"Roof3_LOD0.001",
			"rotation":[
				-0.70710688829422,
				0,
				0,
				0.7071066498756409
			],
			"scale":[
				0.10295984148979187,
				0.10295972973108292,
				0.3749963641166687
			],
			"translation":[
				0.02443695068359375,
				15.1143159866333,
				-0.019645269960165024
			]
		},
		{
			"mesh":14,
			"name":"Wall3_LOD0.001",
			"rotation":[
				0.49956363439559937,
				0.4995635747909546,
				0.5004361271858215,
				0.5004360675811768
			],
			"scale":[
				0.2771323323249817,
				0.35657742619514465,
				0.3565773367881775
			],
			"translation":[
				-2.45703125,
				9.419453620910645,
				2.269658088684082
			]
		},
		{
			"children":[
				17,
				18
			],
			"name":"Floor3.001"
		},
		{
			"mesh":15,
			"name":"Sorin_LOD0.004",
			"rotation":[
				-0.70710688829422,
				0,
				0,
				0.7071066498756409
			],
			"scale":[
				0.4818710386753082,
				0.4818710684776306,
				0.4818710684776306
			],
			"translation":[
				0.02535247802734375,
				16.005508422851562,
				-0.016580428928136826
			]
		},
		{
			"children":[
				20
			],
			"name":"Sorin.004"
		},
		{
			"children":[
				1,
				10,
				13,
				16,
				19,
				21
			],
			"name":"Pagoda_Sanju_24m"
		}
	],
	"materials":[
		{
			"doubleSided":true,
			"name":"mat_wood_plank_03.005",
			"pbrMetallicRoughness":{
				"baseColorTexture":{
					"index":0
				},
				"metallicFactor":0
			}
		},
		{
			"doubleSided":true,
			"name":"mat_wood_pillar_03.002",
			"pbrMetallicRoughness":{
				"baseColorTexture":{
					"extensions":{
						"KHR_texture_transform":{
							"offset":[
								0,
								0.5
							],
							"scale":[
								0.5,
								0.5
							]
						}
					},
					"index":1
				},
				"metallicFactor":0
			}
		},
		{
			"doubleSided":true,
			"name":"mat_wood_beam_03.002",
			"pbrMetallicRoughness":{
				"baseColorTexture":{
					"extensions":{
						"KHR_texture_transform":{
							"offset":[
								0,
								0.5
							],
							"scale":[
								0.5,
								0.5
							]
						}
					},
					"index":2
				},
				"metallicFactor":0
			}
		},
		{
			"doubleSided":true,
			"name":"mat_metal_copper_antique_01.005",
			"pbrMetallicRoughness":{
				"baseColorTexture":{
					"index":3
				},
				"metallicFactor":0
			}
		},
		{
			"doubleSided":true,
			"name":"mat_basalt_base_01.005",
			"pbrMetallicRoughness":{
				"baseColorTexture":{
					"extensions":{
						"KHR_texture_transform":{
							"offset":[
								0,
								0.6500000059604645
							],
							"scale":[
								0.3499999940395355,
								0.3499999940395355
							]
						}
					},
					"index":4
				},
				"metallicFactor":0
			}
		},
		{
			"doubleSided":true,
			"name":"mat_wood_wall_01.005",
			"pbrMetallicRoughness":{
				"baseColorFactor":[
					0.5583404898643494,
					0.4564109742641449,
					0.3467040956020355,
					1
				],
				"baseColorTexture":{
					"extensions":{
						"KHR_texture_transform":{
							"offset":[
								0,
								0.5
							],
							"scale":[
								0.5,
								0.5
							]
						}
					},
					"index":5
				},
				"metallicFactor":0
			}
		},
		{
			"name":"mat_decal_pagoda_01.005"
		},
		{
			"doubleSided":true,
			"name":"mat_clay_tile_01.004",
			"pbrMetallicRoughness":{
				"baseColorTexture":{
					"extensions":{
						"KHR_texture_transform":{
							"offset":[
								0,
								0.5
							],
							"scale":[
								0.5,
								0.5
							]
						}
					},
					"index":6
				},
				"metallicFactor":0
			}
		},
		{
			"doubleSided":true,
			"name":"mat_clay_tile_02.004",
			"pbrMetallicRoughness":{
				"baseColorTexture":{
					"extensions":{
						"KHR_texture_transform":{
							"offset":[
								0,
								0.5
							],
							"scale":[
								0.5,
								0.5
							]
						}
					},
					"index":7
				},
				"metallicFactor":0
			}
		},
		{
			"doubleSided":true,
			"name":"mat_wood_paint_white_01.005",
			"pbrMetallicRoughness":{
				"baseColorFactor":[
					0.5711249113082886,
					0.4969330430030823,
					0.4125427007675171,
					1
				],
				"baseColorTexture":{
					"extensions":{
						"KHR_texture_transform":{
							"offset":[
								0,
								0.5
							],
							"scale":[
								0.5,
								0.5
							]
						}
					},
					"index":8
				},
				"metallicFactor":0
			}
		},
		{
			"doubleSided":true,
			"name":"mat_clay_fired_01.004",
			"pbrMetallicRoughness":{
				"baseColorTexture":{
					"extensions":{
						"KHR_texture_transform":{
							"offset":[
								0,
								0.5
							],
							"scale":[
								0.5,
								0.5
							]
						}
					},
					"index":9
				},
				"metallicFactor":0
			}
		},
		{
			"doubleSided":true,
			"name":"mat_metal_copper_patina_01.005",
			"pbrMetallicRoughness":{
				"baseColorTexture":{
					"extensions":{
						"KHR_texture_transform":{
							"offset":[
								0,
								0.5
							],
							"scale":[
								0.5,
								0.5
							]
						}
					},
					"index":10
				},
				"metallicFactor":0
			}
		}
	],
	"meshes":[
		{
			"name":"Base_LOD0.005",
			"primitives":[
				{
					"attributes":{
						"POSITION":0,
						"NORMAL":1,
						"TEXCOORD_0":2
					},
					"indices":3,
					"material":0
				},
				{
					"attributes":{
						"POSITION":4,
						"NORMAL":5,
						"TEXCOORD_0":6
					},
					"indices":7,
					"material":1
				},
				{
					"attributes":{
						"POSITION":8,
						"NORMAL":9,
						"TEXCOORD_0":10
					},
					"indices":11,
					"material":2
				},
				{
					"attributes":{
						"POSITION":12,
						"NORMAL":13,
						"TEXCOORD_0":14
					},
					"indices":15,
					"material":3
				},
				{
					"attributes":{
						"POSITION":16,
						"NORMAL":17,
						"TEXCOORD_0":18
					},
					"indices":19,
					"material":4
				}
			]
		},
		{
			"name":"Door_EL_LOD0.005",
			"primitives":[
				{
					"attributes":{
						"POSITION":20,
						"NORMAL":21,
						"TEXCOORD_0":22
					},
					"indices":23,
					"material":5
				},
				{
					"attributes":{
						"POSITION":24,
						"NORMAL":25,
						"TEXCOORD_0":26
					},
					"indices":27,
					"material":6
				}
			]
		},
		{
			"name":"Door_ER_LOD0.005",
			"primitives":[
				{
					"attributes":{
						"POSITION":28,
						"NORMAL":29,
						"TEXCOORD_0":30
					},
					"indices":31,
					"material":5
				},
				{
					"attributes":{
						"POSITION":32,
						"NORMAL":33,
						"TEXCOORD_0":34
					},
					"indices":35,
					"material":6
				}
			]
		},
		{
			"name":"Door_NL_LOD0.005",
			"primitives":[
				{
					"attributes":{
						"POSITION":36,
						"NORMAL":37,
						"TEXCOORD_0":38
					},
					"indices":23,
					"material":5
				},
				{
					"attributes":{
						"POSITION":39,
						"NORMAL":40,
						"TEXCOORD_0":41
					},
					"indices":27,
					"material":6
				}
			]
		},
		{
			"name":"Door_NR_LOD0.005",
			"primitives":[
				{
					"attributes":{
						"POSITION":42,
						"NORMAL":43,
						"TEXCOORD_0":44
					},
					"indices":31,
					"material":5
				},
				{
					"attributes":{
						"POSITION":45,
						"NORMAL":46,
						"TEXCOORD_0":47
					},
					"indices":35,
					"material":6
				}
			]
		},
		{
			"name":"Door_SL_LOD0.005",
			"primitives":[
				{
					"attributes":{
						"POSITION":48,
						"NORMAL":49,
						"TEXCOORD_0":50
					},
					"indices":23,
					"material":5
				},
				{
					"attributes":{
						"POSITION":51,
						"NORMAL":52,
						"TEXCOORD_0":53
					},
					"indices":27,
					"material":6
				}
			]
		},
		{
			"name":"Door_SR_LOD0.005",
			"primitives":[
				{
					"attributes":{
						"POSITION":54,
						"NORMAL":55,
						"TEXCOORD_0":56
					},
					"indices":31,
					"material":5
				},
				{
					"attributes":{
						"POSITION":57,
						"NORMAL":58,
						"TEXCOORD_0":59
					},
					"indices":35,
					"material":6
				}
			]
		},
		{
			"name":"Door_WL_LOD0.005",
			"primitives":[
				{
					"attributes":{
						"POSITION":60,
						"NORMAL":61,
						"TEXCOORD_0":62
					},
					"indices":23,
					"material":5
				},
				{
					"attributes":{
						"POSITION":63,
						"NORMAL":64,
						"TEXCOORD_0":65
					},
					"indices":27,
					"material":6
				}
			]
		},
		{
			"name":"Door_WR_LOD0.005",
			"primitives":[
				{
					"attributes":{
						"POSITION":66,
						"NORMAL":67,
						"TEXCOORD_0":68
					},
					"indices":31,
					"material":5
				},
				{
					"attributes":{
						"POSITION":69,
						"NORMAL":70,
						"TEXCOORD_0":71
					},
					"indices":35,
					"material":6
				}
			]
		},
		{
			"name":"Roof1_LOD0.005",
			"primitives":[
				{
					"attributes":{
						"POSITION":72,
						"NORMAL":73,
						"TEXCOORD_0":74
					},
					"indices":75,
					"material":0
				},
				{
					"attributes":{
						"POSITION":76,
						"NORMAL":77,
						"TEXCOORD_0":78
					},
					"indices":79,
					"material":1
				},
				{
					"attributes":{
						"POSITION":80,
						"NORMAL":81,
						"TEXCOORD_0":82
					},
					"indices":83,
					"material":7
				},
				{
					"attributes":{
						"POSITION":84,
						"NORMAL":85,
						"TEXCOORD_0":86
					},
					"indices":87,
					"material":8
				},
				{
					"attributes":{
						"POSITION":88,
						"NORMAL":89,
						"TEXCOORD_0":90
					},
					"indices":91,
					"material":9
				},
				{
					"attributes":{
						"POSITION":92,
						"NORMAL":93,
						"TEXCOORD_0":94
					},
					"indices":95,
					"material":10
				},
				{
					"attributes":{
						"POSITION":96,
						"NORMAL":97,
						"TEXCOORD_0":98
					},
					"indices":99,
					"material":6
				},
				{
					"attributes":{
						"POSITION":100,
						"NORMAL":101,
						"TEXCOORD_0":102
					},
					"indices":103,
					"material":2
				}
			]
		},
		{
			"name":"Wall1_LOD0.005",
			"primitives":[
				{
					"attributes":{
						"POSITION":104,
						"NORMAL":105,
						"TEXCOORD_0":106
					},
					"indices":107,
					"material":1
				},
				{
					"attributes":{
						"POSITION":108,
						"NORMAL":109,
						"TEXCOORD_0":110
					},
					"indices":111,
					"material":3
				},
				{
					"attributes":{
						"POSITION":112,
						"NORMAL":113,
						"TEXCOORD_0":114
					},
					"indices":115,
					"material":2
				},
				{
					"attributes":{
						"POSITION":116,
						"NORMAL":117,
						"TEXCOORD_0":118
					},
					"indices":119,
					"material":0
				},
				{
					"attributes":{
						"POSITION":120,
						"NORMAL":121,
						"TEXCOORD_0":122
					},
					"indices":123,
					"material":6
				},
				{
					"attributes":{
						"POSITION":124,
						"NORMAL":125,
						"TEXCOORD_0":126
					},
					"indices":127,
					"material":11
				}
			]
		},
		{
			"name":"Roof2_LOD0.005",
			"primitives":[
				{
					"attributes":{
						"POSITION":128,
						"NORMAL":129,
						"TEXCOORD_0":130
					},
					"indices":75,
					"material":0
				},
				{
					"attributes":{
						"POSITION":131,
						"NORMAL":132,
						"TEXCOORD_0":133
					},
					"indices":134,
					"material":1
				},
				{
					"attributes":{
						"POSITION":135,
						"NORMAL":136,
						"TEXCOORD_0":137
					},
					"indices":83,
					"material":7
				},
				{
					"attributes":{
						"POSITION":138,
						"NORMAL":139,
						"TEXCOORD_0":140
					},
					"indices":87,
					"material":8
				},
				{
					"attributes":{
						"POSITION":141,
						"NORMAL":142,
						"TEXCOORD_0":143
					},
					"indices":91,
					"material":9
				},
				{
					"attributes":{
						"POSITION":144,
						"NORMAL":145,
						"TEXCOORD_0":146
					},
					"indices":147,
					"material":10
				},
				{
					"attributes":{
						"POSITION":148,
						"NORMAL":149,
						"TEXCOORD_0":150
					},
					"indices":151,
					"material":6
				},
				{
					"attributes":{
						"POSITION":152,
						"NORMAL":153,
						"TEXCOORD_0":154
					},
					"indices":155,
					"material":2
				}
			]
		},
		{
			"name":"Wall2_LOD0.005",
			"primitives":[
				{
					"attributes":{
						"POSITION":156,
						"NORMAL":157,
						"TEXCOORD_0":158
					},
					"indices":111,
					"material":3
				},
				{
					"attributes":{
						"POSITION":159,
						"NORMAL":160,
						"TEXCOORD_0":161
					},
					"indices":115,
					"material":2
				},
				{
					"attributes":{
						"POSITION":162,
						"NORMAL":163,
						"TEXCOORD_0":164
					},
					"indices":165,
					"material":1
				},
				{
					"attributes":{
						"POSITION":166,
						"NORMAL":167,
						"TEXCOORD_0":168
					},
					"indices":119,
					"material":0
				},
				{
					"attributes":{
						"POSITION":169,
						"NORMAL":170,
						"TEXCOORD_0":171
					},
					"indices":123,
					"material":6
				},
				{
					"attributes":{
						"POSITION":172,
						"NORMAL":173,
						"TEXCOORD_0":174
					},
					"indices":127,
					"material":11
				}
			]
		},
		{
			"name":"Roof3_LOD0.002",
			"primitives":[
				{
					"attributes":{
						"POSITION":175,
						"NORMAL":176,
						"TEXCOORD_0":177
					},
					"indices":178,
					"material":0
				},
				{
					"attributes":{
						"POSITION":179,
						"NORMAL":180,
						"TEXCOORD_0":181
					},
					"indices":182,
					"material":1
				},
				{
					"attributes":{
						"POSITION":183,
						"NORMAL":184,
						"TEXCOORD_0":185
					},
					"indices":186,
					"material":7
				},
				{
					"attributes":{
						"POSITION":187,
						"NORMAL":188,
						"TEXCOORD_0":189
					},
					"indices":190,
					"material":9
				},
				{
					"attributes":{
						"POSITION":191,
						"NORMAL":192,
						"TEXCOORD_0":193
					},
					"indices":194,
					"material":8
				},
				{
					"attributes":{
						"POSITION":195,
						"NORMAL":196,
						"TEXCOORD_0":197
					},
					"indices":198,
					"material":10
				},
				{
					"attributes":{
						"POSITION":199,
						"NORMAL":200,
						"TEXCOORD_0":201
					},
					"indices":202,
					"material":6
				}
			]
		},
		{
			"name":"Wall3_LOD0.002",
			"primitives":[
				{
					"attributes":{
						"POSITION":203,
						"NORMAL":204,
						"TEXCOORD_0":205
					},
					"indices":111,
					"material":7
				},
				{
					"attributes":{
						"POSITION":206,
						"NORMAL":207,
						"TEXCOORD_0":208
					},
					"indices":209,
					"material":2
				},
				{
					"attributes":{
						"POSITION":210,
						"NORMAL":211,
						"TEXCOORD_0":212
					},
					"indices":213,
					"material":1
				},
				{
					"attributes":{
						"POSITION":214,
						"NORMAL":215,
						"TEXCOORD_0":216
					},
					"indices":119,
					"material":0
				},
				{
					"attributes":{
						"POSITION":217,
						"NORMAL":218,
						"TEXCOORD_0":219
					},
					"indices":123,
					"material":6
				},
				{
					"attributes":{
						"POSITION":220,
						"NORMAL":221,
						"TEXCOORD_0":222
					},
					"indices":127,
					"material":11
				}
			]
		},
		{
			"name":"Sorin_LOD0.005",
			"primitives":[
				{
					"attributes":{
						"POSITION":223,
						"NORMAL":224,
						"TEXCOORD_0":225
					},
					"indices":226,
					"material":3
				},
				{
					"attributes":{
						"POSITION":227,
						"NORMAL":228,
						"TEXCOORD_0":229
					},
					"indices":230,
					"material":6
				}
			]
		}
	],
	"textures":[
		{
			"sampler":0,
			"source":0
		},
		{
			"sampler":0,
			"source":1
		},
		{
			"sampler":0,
			"source":2
		},
		{
			"sampler":0,
			"source":3
		},
		{
			"sampler":0,
			"source":4
		},
		{
			"sampler":0,
			"source":5
		},
		{
			"sampler":0,
			"source":6
		},
		{
			"sampler":0,
			"source":7
		},
		{
			"sampler":0,
			"source":8
		},
		{
			"sampler":0,
			"source":9
		},
		{
			"sampler":0,
			"source":10
		}
	],
	"images":[
		{
			"mimeType":"image/png",
			"name":"tex_wood_plank_03a",
			"uri":"tex_wood_plank_03a.png"
		},
		{
			"mimeType":"image/png",
			"name":"tex_wood_pillar_03a",
			"uri":"tex_wood_pillar_03a.png"
		},
		{
			"mimeType":"image/png",
			"name":"tex_wood_beam_03a",
			"uri":"tex_wood_beam_03a.png"
		},
		{
			"mimeType":"image/png",
			"name":"tex_metal_copper_antique_01a",
			"uri":"tex_metal_copper_antique_01a.png"
		},
		{
			"mimeType":"image/png",
			"name":"tex_basalt_base_01a",
			"uri":"tex_basalt_base_01a.png"
		},
		{
			"mimeType":"image/png",
			"name":"tex_wood_wall_01a",
			"uri":"tex_wood_wall_01a.png"
		},
		{
			"mimeType":"image/png",
			"name":"tex_clay_tile_01a",
			"uri":"tex_clay_tile_01a.png"
		},
		{
			"mimeType":"image/png",
			"name":"tex_clay_tile_02a",
			"uri":"tex_clay_tile_02a.png"
		},
		{
			"mimeType":"image/png",
			"name":"tex_wood_paint_03a",
			"uri":"tex_wood_paint_03a.png"
		},
		{
			"mimeType":"image/png",
			"name":"tex_clay_fired_01a",
			"uri":"tex_clay_fired_01a.png"
		},
		{
			"mimeType":"image/png",
			"name":"tex_metal_copper_patina_01a",
			"uri":"tex_metal_copper_patina_01a.png"
		}
	],
	"accessors":[
		{
			"bufferView":0,
			"componentType":5126,
			"count":8,
			"max":[
				6.591468334197998,
				6.671512603759766,
				1.9890313148498535
			],
			"min":[
				-6.636490821838379,
				-6.556446552276611,
				1.8560869693756104
			],
			"type":"VEC3"
		},
		{
			"bufferView":1,
			"componentType":5126,
			"count":8,
			"type":"VEC3"
		},
		{
			"bufferView":2,
			"componentType":5126,
			"count":8,
			"type":"VEC2"
		},
		{
			"bufferView":3,
			"componentType":5123,
			"count":12,
			"type":"SCALAR"
		},
		{
			"bufferView":4,
			"componentType":5126,
			"count":1221,
			"max":[
				7.945834636688232,
				8.032230377197266,
				2.413114309310913
			],
			"min":[
				-7.997904300689697,
				-7.912710189819336,
				0.36779654026031494
			],
			"type":"VEC3"
		},
		{
			"bufferView":5,
			"componentType":5126,
			"count":1221,
			"type":"VEC3"
		},
		{
			"bufferView":6,
			"componentType":5126,
			"count":1221,
			"type":"VEC2"
		},
		{
			"bufferView":7,
			"componentType":5123,
			"count":1797,
			"type":"SCALAR"
		},
		{
			"bufferView":8,
			"componentType":5126,
			"count":238,
			"max":[
				8.040014266967773,
				8.12581729888916,
				3.0161163806915283
			],
			"min":[
				-8.088911056518555,
				-8.003457069396973,
				0.399628609418869
			],
			"type":"VEC3"
		},
		{
			"bufferView":9,
			"componentType":5126,
			"count":238,
			"type":"VEC3"
		},
		{
			"bufferView":10,
			"componentType":5126,
			"count":238,
			"type":"VEC2"
		},
		{
			"bufferView":11,
			"componentType":5123,
			"count":378,
			"type":"SCALAR"
		},
		{
			"bufferView":12,
			"componentType":5126,
			"count":252,
			"max":[
				6.4855875968933105,
				6.552621364593506,
				3.731945514678955
			],
			"min":[
				-6.5229878425598145,
				-6.467594623565674,
				2.981651782989502
			],
			"type":"VEC3"
		},
		{
			"bufferView":13,
			"componentType":5126,
			"count":252,
			"type":"VEC3"
		},
		{
			"bufferView":14,
			"componentType":5126,
			"count":252,
			"type":"VEC2"
		},
		{
			"bufferView":15,
			"componentType":5123,
			"count":504,
			"type":"SCALAR"
		},
		{
			"bufferView":16,
			"componentType":5126,
			"count":56,
			"max":[
				5.483677864074707,
				5.483677864074707,
				1.6352927684783936
			],
			"min":[
				-5.483677864074707,
				-5.483677864074707,
				0.39171481132507324
			],
			"type":"VEC3"
		},
		{
			"bufferView":17,
			"componentType":5126,
			"count":56,
			"type":"VEC3"
		},
		{
			"bufferView":18,
			"componentType":5126,
			"count":56,
			"type":"VEC2"
		},
		{
			"bufferView":19,
			"componentType":5123,
			"count":84,
			"type":"SCALAR"
		},
		{
			"bufferView":20,
			"componentType":5126,
			"count":24,
			"max":[
				0.08805620670318604,
				0.05000000074505806,
				2.9826431274414062
			],
			"min":[
				-1.071943759918213,
				-0.05000000074505806,
				0
			],
			"type":"VEC3"
		},
		{
			"bufferView":21,
			"componentType":5126,
			"count":24,
			"type":"VEC3"
		},
		{
			"bufferView":22,
			"componentType":5126,
			"count":24,
			"type":"VEC2"
		},
		{
			"bufferView":23,
			"componentType":5123,
			"count":36,
			"type":"SCALAR"
		},
		{
			"bufferView":24,
			"componentType":5126,
			"count":12,
			"max":[
				0.06947612762451172,
				0.055588047951459885,
				2.9500105381011963
			],
			"min":[
				-1.0189878940582275,
				0.05558709427714348,
				0.01974201202392578
			],
			"type":"VEC3"
		},
		{
			"bufferView":25,
			"componentType":5126,
			"count":12,
			"type":"VEC3"
		},
		{
			"bufferView":26,
			"componentType":5126,
			"count":12,
			"type":"VEC2"
		},
		{
			"bufferView":27,
			"componentType":5123,
			"count":12,
			"type":"SCALAR"
		},
		{
			"bufferView":28,
			"componentType":5126,
			"count":48,
			"max":[
				1.168176293373108,
				0.07908786833286285,
				2.9826431274414062
			],
			"min":[
				-0.056027770042419434,
				-0.05000000074505806,
				0
			],
			"type":"VEC3"
		},
		{
			"bufferView":29,
			"componentType":5126,
			"count":48,
			"type":"VEC3"
		},
		{
			"bufferView":30,
			"componentType":5126,
			"count":48,
			"type":"VEC2"
		},
		{
			"bufferView":31,
			"componentType":5123,
			"count":72,
			"type":"SCALAR"
		},
		{
			"bufferView":32,
			"componentType":5126,
			"count":32,
			"max":[
				1.1681768894195557,
				0.08194723725318909,
				2.9500105381011963
			],
			"min":[
				-0.03883761167526245,
				0.05558614060282707,
				0.01974201202392578
			],
			"type":"VEC3"
		},
		{
			"bufferView":33,
			"componentType":5126,
			"count":32,
			"type":"VEC3"
		},
		{
			"bufferView":34,
			"componentType":5126,
			"count":32,
			"type":"VEC2"
		},
		{
			"bufferView":35,
			"componentType":5123,
			"count":42,
			"type":"SCALAR"
		},
		{
			"bufferView":36,
			"componentType":5126,
			"count":24,
			"max":[
				0.08805620670318604,
				0.05000000074505806,
				2.9826431274414062
			],
			"min":[
				-1.071943759918213,
				-0.05000000074505806,
				0
			],
			"type":"VEC3"
		},
		{
			"bufferView":37,
			"componentType":5126,
			"count":24,
			"type":"VEC3"
		},
		{
			"bufferView":38,
			"componentType":5126,
			"count":24,
			"type":"VEC2"
		},
		{
			"bufferView":39,
			"componentType":5126,
			"count":12,
			"max":[
				0.06947630643844604,
				0.05558900907635689,
				2.9500107765197754
			],
			"min":[
				-1.018988013267517,
				0.05558805540204048,
				0.01974201202392578
			],
			"type":"VEC3"
		},
		{
			"bufferView":40,
			"componentType":5126,
			"count":12,
			"type":"VEC3"
		},
		{
			"bufferView":41,
			"componentType":5126,
			"count":12,
			"type":"VEC2"
		},
		{
			"bufferView":42,
			"componentType":5126,
			"count":48,
			"max":[
				1.168176293373108,
				0.07908786833286285,
				2.9826431274414062
			],
			"min":[
				-0.056027770042419434,
				-0.05000000074505806,
				0
			],
			"type":"VEC3"
		},
		{
			"bufferView":43,
			"componentType":5126,
			"count":48,
			"type":"VEC3"
		},
		{
			"bufferView":44,
			"componentType":5126,
			"count":48,
			"type":"VEC2"
		},
		{
			"bufferView":45,
			"componentType":5126,
			"count":32,
			"max":[
				1.1681768894195557,
				0.0819476991891861,
				2.9500107765197754
			],
			"min":[
				-0.038837730884552,
				0.05558614805340767,
				0.01974201202392578
			],
			"type":"VEC3"
		},
		{
			"bufferView":46,
			"componentType":5126,
			"count":32,
			"type":"VEC3"
		},
		{
			"bufferView":47,
			"componentType":5126,
			"count":32,
			"type":"VEC2"
		},
		{
			"bufferView":48,
			"componentType":5126,
			"count":24,
			"max":[
				0.08805620670318604,
				0.05000000074505806,
				2.9826431274414062
			],
			"min":[
				-1.071943759918213,
				-0.05000000074505806,
				0
			],
			"type":"VEC3"
		},
		{
			"bufferView":49,
			"componentType":5126,
			"count":24,
			"type":"VEC3"
		},
		{
			"bufferView":50,
			"componentType":5126,
			"count":24,
			"type":"VEC2"
		},
		{
			"bufferView":51,
			"componentType":5126,
			"count":12,
			"max":[
				0.06947630643844604,
				0.05558805540204048,
				2.9500107765197754
			],
			"min":[
				-1.0189881324768066,
				0.05558757856488228,
				0.01974201202392578
			],
			"type":"VEC3"
		},
		{
			"bufferView":52,
			"componentType":5126,
			"count":12,
			"type":"VEC3"
		},
		{
			"bufferView":53,
			"componentType":5126,
			"count":12,
			"type":"VEC2"
		},
		{
			"bufferView":54,
			"componentType":5126,
			"count":48,
			"max":[
				1.168176293373108,
				0.07908786833286285,
				2.9826431274414062
			],
			"min":[
				-0.056027770042419434,
				-0.05000000074505806,
				0
			],
			"type":"VEC3"
		},
		{
			"bufferView":55,
			"componentType":5126,
			"count":48,
			"type":"VEC3"
		},
		{
			"bufferView":56,
			"componentType":5126,
			"count":48,
			"type":"VEC2"
		},
		{
			"bufferView":57,
			"componentType":5126,
			"count":32,
			"max":[
				1.1681766510009766,
				0.0819486528635025,
				2.9500107765197754
			],
			"min":[
				-0.038837730884552,
				0.055587101727724075,
				0.01974201202392578
			],
			"type":"VEC3"
		},
		{
			"bufferView":58,
			"componentType":5126,
			"count":32,
			"type":"VEC3"
		},
		{
			"bufferView":59,
			"componentType":5126,
			"count":32,
			"type":"VEC2"
		},
		{
			"bufferView":60,
			"componentType":5126,
			"count":24,
			"max":[
				0.08805620670318604,
				0.05000000074505806,
				2.9826431274414062
			],
			"min":[
				-1.071943759918213,
				-0.05000000074505806,
				0
			],
			"type":"VEC3"
		},
		{
			"bufferView":61,
			"componentType":5126,
			"count":24,
			"type":"VEC3"
		},
		{
			"bufferView":62,
			"componentType":5126,
			"count":24,
			"type":"VEC2"
		},
		{
			"bufferView":63,
			"componentType":5126,
			"count":12,
			"max":[
				0.06947612762451172,
				0.055588047951459885,
				2.9500105381011963
			],
			"min":[
				-1.0189878940582275,
				0.05558757111430168,
				0.01974201202392578
			],
			"type":"VEC3"
		},
		{
			"bufferView":64,
			"componentType":5126,
			"count":12,
			"type":"VEC3"
		},
		{
			"bufferView":65,
			"componentType":5126,
			"count":12,
			"type":"VEC2"
		},
		{
			"bufferView":66,
			"componentType":5126,
			"count":48,
			"max":[
				1.168176293373108,
				0.07908786833286285,
				2.9826431274414062
			],
			"min":[
				-0.056027770042419434,
				-0.05000000074505806,
				0
			],
			"type":"VEC3"
		},
		{
			"bufferView":67,
			"componentType":5126,
			"count":48,
			"type":"VEC3"
		},
		{
			"bufferView":68,
			"componentType":5126,
			"count":48,
			"type":"VEC2"
		},
		{
			"bufferView":69,
			"componentType":5126,
			"count":32,
			"max":[
				1.1681766510009766,
				0.0819486677646637,
				2.9500105381011963
			],
			"min":[
				-0.03883761167526245,
				0.05558757111430168,
				0.01974201202392578
			],
			"type":"VEC3"
		},
		{
			"bufferView":70,
			"componentType":5126,
			"count":32,
			"type":"VEC3"
		},
		{
			"bufferView":71,
			"componentType":5126,
			"count":32,
			"type":"VEC2"
		},
		{
			"bufferView":72,
			"componentType":5126,
			"count":100,
			"max":[
				13.486420631408691,
				13.51501178741455,
				0.6434826254844666
			],
			"min":[
				-13.490130424499512,
				-13.51501178741455,
				-3.0980141162872314
			],
			"type":"VEC3"
		},
		{
			"bufferView":73,
			"componentType":5126,
			"count":100,
			"type":"VEC3"
		},
		{
			"bufferView":74,
			"componentType":5126,
			"count":100,
			"type":"VEC2"
		},
		{
			"bufferView":75,
			"componentType":5123,
			"count":144,
			"type":"SCALAR"
		},
		{
			"bufferView":76,
			"componentType":5126,
			"count":1428,
			"max":[
				13.230377197265625,
				13.25846004486084,
				1.1599657535552979
			],
			"min":[
				-13.234086036682129,
				-13.25846004486084,
				-3.6364529132843018
			],
			"type":"VEC3"
		},
		{
			"bufferView":77,
			"componentType":5126,
			"count":1428,
			"type":"VEC3"
		},
		{
			"bufferView":78,
			"componentType":5126,
			"count":1428,
			"type":"VEC2"
		},
		{
			"bufferView":79,
			"componentType":5123,
			"count":2094,
			"type":"SCALAR"
		},
		{
			"bufferView":80,
			"componentType":5126,
			"count":520,
			"max":[
				13.654181480407715,
				13.626738548278809,
				-0.20986458659172058
			],
			"min":[
				-13.637410163879395,
				-13.662949562072754,
				-2.8216841220855713
			],
			"type":"VEC3"
		},
		{
			"bufferView":81,
			"componentType":5126,
			"count":520,
			"type":"VEC3"
		},
		{
			"bufferView":82,
			"componentType":5126,
			"count":520,
			"type":"VEC2"
		},
		{
			"bufferView":83,
			"componentType":5123,
			"count":696,
			"type":"SCALAR"
		},
		{
			"bufferView":84,
			"componentType":5126,
			"count":60,
			"max":[
				13.486420631408691,
				13.51501178741455,
				-0.21539366245269775
			],
			"min":[
				-13.490130424499512,
				-13.51501178741455,
				-2.784217357635498
			],
			"type":"VEC3"
		},
		{
			"bufferView":85,
			"componentType":5126,
			"count":60,
			"type":"VEC3"
		},
		{
			"bufferView":86,
			"componentType":5126,
			"count":60,
			"type":"VEC2"
		},
		{
			"bufferView":87,
			"componentType":5123,
			"count":72,
			"type":"SCALAR"
		},
		{
			"bufferView":88,
			"componentType":5126,
			"count":62,
			"max":[
				13.230376243591309,
				13.258459091186523,
				-1.583470344543457
			],
			"min":[
				-13.234086036682129,
				-13.258459091186523,
				-3.6364529132843018
			],
			"type":"VEC3"
		},
		{
			"bufferView":89,
			"componentType":5126,
			"count":62,
			"type":"VEC3"
		},
		{
			"bufferView":90,
			"componentType":5126,
			"count":62,
			"type":"VEC2"
		},
		{
			"bufferView":91,
			"componentType":5123,
			"count":78,
			"type":"SCALAR"
		},
		{
			"bufferView":92,
			"componentType":5126,
			"count":1494,
			"max":[
				13.739225387573242,
				13.690997123718262,
				-0.950436532497406
			],
			"min":[
				-13.722963333129883,
				-13.734003067016602,
				-3.1015188694000244
			],
			"type":"VEC3"
		},
		{
			"bufferView":93,
			"componentType":5126,
			"count":1494,
			"type":"VEC3"
		},
		{
			"bufferView":94,
			"componentType":5126,
			"count":1494,
			"type":"VEC2"
		},
		{
			"bufferView":95,
			"componentType":5123,
			"count":1782,
			"type":"SCALAR"
		},
		{
			"bufferView":96,
			"componentType":5126,
			"count":1359,
			"max":[
				13.749035835266113,
				13.686525344848633,
				-0.41752904653549194
			],
			"min":[
				-13.729891777038574,
				-13.744050979614258,
				-2.9867031574249268
			],
			"type":"VEC3"
		},
		{
			"bufferView":97,
			"componentType":5126,
			"count":1359,
			"type":"VEC3"
		},
		{
			"bufferView":98,
			"componentType":5126,
			"count":1359,
			"type":"VEC2"
		},
		{
			"bufferView":99,
			"componentType":5123,
			"count":1527,
			"type":"SCALAR"
		},
		{
			"bufferView":100,
			"componentType":5126,
			"count":719,
			"max":[
				8.761777877807617,
				8.682747840881348,
				1.741727590560913
			],
			"min":[
				-8.75386905670166,
				-8.785446166992188,
				-0.45542651414871216
			],
			"type":"VEC3"
		},
		{
			"bufferView":101,
			"componentType":5126,
			"count":719,
			"type":"VEC3"
		},
		{
			"bufferView":102,
			"componentType":5126,
			"count":719,
			"type":"VEC2"
		},
		{
			"bufferView":103,
			"componentType":5123,
			"count":1017,
			"type":"SCALAR"
		},
		{
			"bufferView":104,
			"componentType":5126,
			"count":1009,
			"max":[
				12.839523315429688,
				7.759029388427734,
				21.13157081604004
			],
			"min":[
				-0.24974100291728973,
				-20.577268600463867,
				-7.206716060638428
			],
			"type":"VEC3"
		},
		{
			"bufferView":105,
			"componentType":5126,
			"count":1009,
			"type":"VEC3"
		},
		{
			"bufferView":106,
			"componentType":5126,
			"count":1009,
			"type":"VEC2"
		},
		{
			"bufferView":107,
			"componentType":5123,
			"count":1377,
			"type":"SCALAR"
		},
		{
			"bufferView":108,
			"componentType":5126,
			"count":50,
			"max":[
				10.647844314575195,
				6.900205135345459,
				20.260787963867188
			],
			"min":[
				9.125043869018555,
				-19.707168579101562,
				-6.336452007293701
			],
			"type":"VEC3"
		},
		{
			"bufferView":109,
			"componentType":5126,
			"count":50,
			"type":"VEC3"
		},
		{
			"bufferView":110,
			"componentType":5126,
			"count":50,
			"type":"VEC2"
		},
		{
			"bufferView":111,
			"componentType":5123,
			"count":72,
			"type":"SCALAR"
		},
		{
			"bufferView":112,
			"componentType":5126,
			"count":668,
			"max":[
				13.34442138671875,
				2.453946352005005,
				15.826494216918945
			],
			"min":[
				0.46014708280563354,
				-15.27219009399414,
				-1.9016355276107788
			],
			"type":"VEC3"
		},
		{
			"bufferView":113,
			"componentType":5126,
			"count":668,
			"type":"VEC3"
		},
		{
			"bufferView":114,
			"componentType":5126,
			"count":668,
			"type":"VEC2"
		},
		{
			"bufferView":115,
			"componentType":5123,
			"count":768,
			"type":"SCALAR"
		},
		{
			"bufferView":116,
			"componentType":5126,
			"count":176,
			"max":[
				12.530007362365723,
				4.9113450050354,
				18.281661987304688
			],
			"min":[
				11.089787483215332,
				-17.728036880493164,
				-4.357324600219727
			],
			"type":"VEC3"
		},
		{
			"bufferView":117,
			"componentType":5126,
			"count":176,
			"type":"VEC3"
		},
		{
			"bufferView":118,
			"componentType":5126,
			"count":176,
			"type":"VEC2"
		},
		{
			"bufferView":119,
			"componentType":5123,
			"count":240,
			"type":"SCALAR"
		},
		{
			"bufferView":120,
			"componentType":5126,
			"count":250,
			"max":[
				7.585652828216553,
				0.5838603973388672,
				13.956770896911621
			],
			"min":[
				2.5445268154144287,
				-13.401900291442871,
				-0.029928160831332207
			],
			"type":"VEC3"
		},
		{
			"bufferView":121,
			"componentType":5126,
			"count":250,
			"type":"VEC3"
		},
		{
			"bufferView":122,
			"componentType":5126,
			"count":250,
			"type":"VEC2"
		},
		{
			"bufferView":123,
			"componentType":5123,
			"count":654,
			"type":"SCALAR"
		},
		{
			"bufferView":124,
			"componentType":5126,
			"count":10,
			"max":[
				10.797565460205078,
				6.642220497131348,
				19.934324264526367
			],
			"min":[
				10.614320755004883,
				-19.42681884765625,
				-6.089909076690674
			],
			"type":"VEC3"
		},
		{
			"bufferView":125,
			"componentType":5126,
			"count":10,
			"type":"VEC3"
		},
		{
			"bufferView":126,
			"componentType":5126,
			"count":10,
			"type":"VEC2"
		},
		{
			"bufferView":127,
			"componentType":5123,
			"count":12,
			"type":"SCALAR"
		},
		{
			"bufferView":128,
			"componentType":5126,
			"count":100,
			"max":[
				13.486420631408691,
				13.51501178741455,
				0.6434788107872009
			],
			"min":[
				-13.490130424499512,
				-13.51501178741455,
				-3.0980141162872314
			],
			"type":"VEC3"
		},
		{
			"bufferView":129,
			"componentType":5126,
			"count":100,
			"type":"VEC3"
		},
		{
			"bufferView":130,
			"componentType":5126,
			"count":100,
			"type":"VEC2"
		},
		{
			"bufferView":131,
			"componentType":5126,
			"count":1426,
			"max":[
				13.230377197265625,
				13.25846004486084,
				1.1599619388580322
			],
			"min":[
				-13.234086036682129,
				-13.25846004486084,
				-3.6364529132843018
			],
			"type":"VEC3"
		},
		{
			"bufferView":132,
			"componentType":5126,
			"count":1426,
			"type":"VEC3"
		},
		{
			"bufferView":133,
			"componentType":5126,
			"count":1426,
			"type":"VEC2"
		},
		{
			"bufferView":134,
			"componentType":5123,
			"count":2094,
			"type":"SCALAR"
		},
		{
			"bufferView":135,
			"componentType":5126,
			"count":520,
			"max":[
				13.654181480407715,
				13.626738548278809,
				-0.20986458659172058
			],
			"min":[
				-13.637410163879395,
				-13.662949562072754,
				-2.8216841220855713
			],
			"type":"VEC3"
		},
		{
			"bufferView":136,
			"componentType":5126,
			"count":520,
			"type":"VEC3"
		},
		{
			"bufferView":137,
			"componentType":5126,
			"count":520,
			"type":"VEC2"
		},
		{
			"bufferView":138,
			"componentType":5126,
			"count":60,
			"max":[
				13.486420631408691,
				13.51501178741455,
				-0.21539366245269775
			],
			"min":[
				-13.490130424499512,
				-13.51501178741455,
				-2.784217357635498
			],
			"type":"VEC3"
		},
		{
			"bufferView":139,
			"componentType":5126,
			"count":60,
			"type":"VEC3"
		},
		{
			"bufferView":140,
			"componentType":5126,
			"count":60,
			"type":"VEC2"
		},
		{
			"bufferView":141,
			"componentType":5126,
			"count":62,
			"max":[
				13.230376243591309,
				13.258459091186523,
				-1.583470344543457
			],
			"min":[
				-13.234086036682129,
				-13.258459091186523,
				-3.6364529132843018
			],
			"type":"VEC3"
		},
		{
			"bufferView":142,
			"componentType":5126,
			"count":62,
			"type":"VEC3"
		},
		{
			"bufferView":143,
			"componentType":5126,
			"count":62,
			"type":"VEC2"
		},
		{
			"bufferView":144,
			"componentType":5126,
			"count":1493,
			"max":[
				13.739225387573242,
				13.690997123718262,
				-0.950436532497406
			],
			"min":[
				-13.722963333129883,
				-13.734003067016602,
				-3.1015188694000244
			],
			"type":"VEC3"
		},
		{
			"bufferView":145,
			"componentType":5126,
			"count":1493,
			"type":"VEC3"
		},
		{
			"bufferView":146,
			"componentType":5126,
			"count":1493,
			"type":"VEC2"
		},
		{
			"bufferView":147,
			"componentType":5123,
			"count":1779,
			"type":"SCALAR"
		},
		{
			"bufferView":148,
			"componentType":5126,
			"count":1359,
			"max":[
				13.749035835266113,
				13.686525344848633,
				-0.41752904653549194
			],
			"min":[
				-13.729891777038574,
				-13.744050979614258,
				-2.9867031574249268
			],
			"type":"VEC3"
		},
		{
			"bufferView":149,
			"componentType":5126,
			"count":1359,
			"type":"VEC3"
		},
		{
			"bufferView":150,
			"componentType":5126,
			"count":1359,
			"type":"VEC2"
		},
		{
			"bufferView":151,
			"componentType":5123,
			"count":1527,
			"type":"SCALAR"
		},
		{
			"bufferView":152,
			"componentType":5126,
			"count":720,
			"max":[
				8.761777877807617,
				8.682747840881348,
				1.7417237758636475
			],
			"min":[
				-8.75386905670166,
				-8.785446166992188,
				-0.4554303288459778
			],
			"type":"VEC3"
		},
		{
			"bufferView":153,
			"componentType":5126,
			"count":720,
			"type":"VEC3"
		},
		{
			"bufferView":154,
			"componentType":5126,
			"count":720,
			"type":"VEC2"
		},
		{
			"bufferView":155,
			"componentType":5123,
			"count":1020,
			"type":"SCALAR"
		},
		{
			"bufferView":156,
			"componentType":5126,
			"count":50,
			"max":[
				10.647844314575195,
				6.900205135345459,
				20.260787963867188
			],
			"min":[
				9.125043869018555,
				-19.707168579101562,
				-6.336452007293701
			],
			"type":"VEC3"
		},
		{
			"bufferView":157,
			"componentType":5126,
			"count":50,
			"type":"VEC3"
		},
		{
			"bufferView":158,
			"componentType":5126,
			"count":50,
			"type":"VEC2"
		},
		{
			"bufferView":159,
			"componentType":5126,
			"count":668,
			"max":[
				13.34442138671875,
				2.453946352005005,
				15.826494216918945
			],
			"min":[
				0.46014708280563354,
				-15.27219009399414,
				-1.9016355276107788
			],
			"type":"VEC3"
		},
		{
			"bufferView":160,
			"componentType":5126,
			"count":668,
			"type":"VEC3"
		},
		{
			"bufferView":161,
			"componentType":5126,
			"count":668,
			"type":"VEC2"
		},
		{
			"bufferView":162,
			"componentType":5126,
			"count":936,
			"max":[
				12.839523315429688,
				7.759029388427734,
				21.13157081604004
			],
			"min":[
				0.5262028574943542,
				-20.577268600463867,
				-7.206716060638428
			],
			"type":"VEC3"
		},
		{
			"bufferView":163,
			"componentType":5126,
			"count":936,
			"type":"VEC3"
		},
		{
			"bufferView":164,
			"componentType":5126,
			"count":936,
			"type":"VEC2"
		},
		{
			"bufferView":165,
			"componentType":5123,
			"count":1242,
			"type":"SCALAR"
		},
		{
			"bufferView":166,
			"componentType":5126,
			"count":176,
			"max":[
				12.530007362365723,
				4.9113450050354,
				18.281661987304688
			],
			"min":[
				11.089787483215332,
				-17.728036880493164,
				-4.357324600219727
			],
			"type":"VEC3"
		},
		{
			"bufferView":167,
			"componentType":5126,
			"count":176,
			"type":"VEC3"
		},
		{
			"bufferView":168,
			"componentType":5126,
			"count":176,
			"type":"VEC2"
		},
		{
			"bufferView":169,
			"componentType":5126,
			"count":250,
			"max":[
				7.585652828216553,
				0.5838603973388672,
				13.956770896911621
			],
			"min":[
				2.5445268154144287,
				-13.401900291442871,
				-0.029928160831332207
			],
			"type":"VEC3"
		},
		{
			"bufferView":170,
			"componentType":5126,
			"count":250,
			"type":"VEC3"
		},
		{
			"bufferView":171,
			"componentType":5126,
			"count":250,
			"type":"VEC2"
		},
		{
			"bufferView":172,
			"componentType":5126,
			"count":10,
			"max":[
				10.797565460205078,
				6.642220497131348,
				19.934324264526367
			],
			"min":[
				10.614320755004883,
				-19.42681884765625,
				-6.089909076690674
			],
			"type":"VEC3"
		},
		{
			"bufferView":173,
			"componentType":5126,
			"count":10,
			"type":"VEC3"
		},
		{
			"bufferView":174,
			"componentType":5126,
			"count":10,
			"type":"VEC2"
		},
		{
			"bufferView":175,
			"componentType":5126,
			"count":27,
			"max":[
				48.96091842651367,
				49.0719108581543,
				1.7964822053909302
			],
			"min":[
				-48.98149490356445,
				-49.0711555480957,
				-6.8711042404174805
			],
			"type":"VEC3"
		},
		{
			"bufferView":176,
			"componentType":5126,
			"count":27,
			"type":"VEC3"
		},
		{
			"bufferView":177,
			"componentType":5126,
			"count":27,
			"type":"VEC2"
		},
		{
			"bufferView":178,
			"componentType":5123,
			"count":39,
			"type":"SCALAR"
		},
		{
			"bufferView":179,
			"componentType":5126,
			"count":3260,
			"max":[
				48.55953598022461,
				48.549625396728516,
				2.4771978855133057
			],
			"min":[
				-48.54711151123047,
				-48.484886169433594,
				-7.620545864105225
			],
			"type":"VEC3"
		},
		{
			"bufferView":180,
			"componentType":5126,
			"count":3260,
			"type":"VEC3"
		},
		{
			"bufferView":181,
			"componentType":5126,
			"count":3260,
			"type":"VEC2"
		},
		{
			"bufferView":182,
			"componentType":5123,
			"count":4194,
			"type":"SCALAR"
		},
		{
			"bufferView":183,
			"componentType":5126,
			"count":1614,
			"max":[
				49.76113510131836,
				49.75122833251953,
				2.1321818828582764
			],
			"min":[
				-49.74871826171875,
				-49.75596237182617,
				-6.999547004699707
			],
			"type":"VEC3"
		},
		{
			"bufferView":184,
			"componentType":5126,
			"count":1614,
			"type":"VEC3"
		},
		{
			"bufferView":185,
			"componentType":5126,
			"count":1614,
			"type":"VEC2"
		},
		{
			"bufferView":186,
			"componentType":5123,
			"count":2418,
			"type":"SCALAR"
		},
		{
			"bufferView":187,
			"componentType":5126,
			"count":32,
			"max":[
				48.038795471191406,
				48.140377044677734,
				-5.361688613891602
			],
			"min":[
				-48.0382080078125,
				-48.1334114074707,
				-7.266602993011475
			],
			"type":"VEC3"
		},
		{
			"bufferView":188,
			"componentType":5126,
			"count":32,
			"type":"VEC3"
		},
		{
			"bufferView":189,
			"componentType":5126,
			"count":32,
			"type":"VEC2"
		},
		{
			"bufferView":190,
			"componentType":5123,
			"count":42,
			"type":"SCALAR"
		},
		{
			"bufferView":191,
			"componentType":5126,
			"count":44,
			"max":[
				48.968936920166016,
				49.07939147949219,
				1.7975759506225586
			],
			"min":[
				-48.98777770996094,
				-49.078556060791016,
				-6.5595221519470215
			],
			"type":"VEC3"
		},
		{
			"bufferView":192,
			"componentType":5126,
			"count":44,
			"type":"VEC3"
		},
		{
			"bufferView":193,
			"componentType":5126,
			"count":44,
			"type":"VEC2"
		},
		{
			"bufferView":194,
			"componentType":5123,
			"count":57,
			"type":"SCALAR"
		},
		{
			"bufferView":195,
			"componentType":5126,
			"count":340,
			"max":[
				49.67476272583008,
				49.71409606933594,
				-4.7342209815979
			],
			"min":[
				-49.712303161621094,
				-49.83827590942383,
				-6.874608993530273
			],
			"type":"VEC3"
		},
		{
			"bufferView":196,
			"componentType":5126,
			"count":340,
			"type":"VEC3"
		},
		{
			"bufferView":197,
			"componentType":5126,
			"count":340,
			"type":"VEC2"
		},
		{
			"bufferView":198,
			"componentType":5123,
			"count":372,
			"type":"SCALAR"
		},
		{
			"bufferView":199,
			"componentType":5126,
			"count":307,
			"max":[
				49.733585357666016,
				49.8390007019043,
				1.4256787300109863
			],
			"min":[
				-49.721370697021484,
				-49.73120880126953,
				-6.660892486572266
			],
			"type":"VEC3"
		},
		{
			"bufferView":200,
			"componentType":5126,
			"count":307,
			"type":"VEC3"
		},
		{
			"bufferView":201,
			"componentType":5126,
			"count":307,
			"type":"VEC2"
		},
		{
			"bufferView":202,
			"componentType":5123,
			"count":309,
			"type":"SCALAR"
		},
		{
			"bufferView":203,
			"componentType":5126,
			"count":50,
			"max":[
				10.647844314575195,
				6.900205135345459,
				20.260787963867188
			],
			"min":[
				9.125043869018555,
				-19.707168579101562,
				-6.336452007293701
			],
			"type":"VEC3"
		},
		{
			"bufferView":204,
			"componentType":5126,
			"count":50,
			"type":"VEC3"
		},
		{
			"bufferView":205,
			"componentType":5126,
			"count":50,
			"type":"VEC2"
		},
		{
			"bufferView":206,
			"componentType":5126,
			"count":732,
			"max":[
				13.34442138671875,
				2.453946352005005,
				15.826494216918945
			],
			"min":[
				0.46014708280563354,
				-15.27219009399414,
				-1.9016355276107788
			],
			"type":"VEC3"
		},
		{
			"bufferView":207,
			"componentType":5126,
			"count":732,
			"type":"VEC3"
		},
		{
			"bufferView":208,
			"componentType":5126,
			"count":732,
			"type":"VEC2"
		},
		{
			"bufferView":209,
			"componentType":5123,
			"count":864,
			"type":"SCALAR"
		},
		{
			"bufferView":210,
			"componentType":5126,
			"count":866,
			"max":[
				12.839523315429688,
				7.759029388427734,
				21.13157081604004
			],
			"min":[
				0.5262028574943542,
				-20.577268600463867,
				-7.206716060638428
			],
			"type":"VEC3"
		},
		{
			"bufferView":211,
			"componentType":5126,
			"count":866,
			"type":"VEC3"
		},
		{
			"bufferView":212,
			"componentType":5126,
			"count":866,
			"type":"VEC2"
		},
		{
			"bufferView":213,
			"componentType":5123,
			"count":1146,
			"type":"SCALAR"
		},
		{
			"bufferView":214,
			"componentType":5126,
			"count":176,
			"max":[
				12.530007362365723,
				4.9113450050354,
				18.281661987304688
			],
			"min":[
				11.089787483215332,
				-17.728036880493164,
				-4.357324600219727
			],
			"type":"VEC3"
		},
		{
			"bufferView":215,
			"componentType":5126,
			"count":176,
			"type":"VEC3"
		},
		{
			"bufferView":216,
			"componentType":5126,
			"count":176,
			"type":"VEC2"
		},
		{
			"bufferView":217,
			"componentType":5126,
			"count":250,
			"max":[
				7.585652828216553,
				0.5838603973388672,
				13.956770896911621
			],
			"min":[
				2.5445268154144287,
				-13.401900291442871,
				-0.029928160831332207
			],
			"type":"VEC3"
		},
		{
			"bufferView":218,
			"componentType":5126,
			"count":250,
			"type":"VEC3"
		},
		{
			"bufferView":219,
			"componentType":5126,
			"count":250,
			"type":"VEC2"
		},
		{
			"bufferView":220,
			"componentType":5126,
			"count":10,
			"max":[
				10.797565460205078,
				6.642220497131348,
				19.934324264526367
			],
			"min":[
				10.614320755004883,
				-19.42681884765625,
				-6.089909076690674
			],
			"type":"VEC3"
		},
		{
			"bufferView":221,
			"componentType":5126,
			"count":10,
			"type":"VEC3"
		},
		{
			"bufferView":222,
			"componentType":5126,
			"count":10,
			"type":"VEC2"
		},
		{
			"bufferView":223,
			"componentType":5126,
			"count":18084,
			"max":[
				1.2400001287460327,
				1.2400000095367432,
				16.769487380981445
			],
			"min":[
				-1.2400000095367432,
				-1.2400001287460327,
				0.05288749933242798
			],
			"type":"VEC3"
		},
		{
			"bufferView":224,
			"componentType":5126,
			"count":18084,
			"type":"VEC3"
		},
		{
			"bufferView":225,
			"componentType":5126,
			"count":18084,
			"type":"VEC2"
		},
		{
			"bufferView":226,
			"componentType":5123,
			"count":44172,
			"type":"SCALAR"
		},
		{
			"bufferView":227,
			"componentType":5126,
			"count":48,
			"max":[
				1.1979913711547852,
				1.197106957435608,
				0.664301872253418
			],
			"min":[
				-1.1974809169769287,
				-1.1966601610183716,
				0.12395143508911133
			],
			"type":"VEC3"
		},
		{
			"bufferView":228,
			"componentType":5126,
			"count":48,
			"type":"VEC3"
		},
		{
			"bufferView":229,
			"componentType":5126,
			"count":48,
			"type":"VEC2"
		},
		{
			"bufferView":230,
			"componentType":5123,
			"count":72,
			"type":"SCALAR"
		}
	],
	"bufferViews":[
		{
			"buffer":0,
			"byteLength":96,
			"byteOffset":0,
			"target":34962
		},
		{
			"buffer":0,
			"byteLength":96,
			"byteOffset":96,
			"target":34962
		},
		{
			"buffer":0,
			"byteLength":64,
			"byteOffset":192,
			"target":34962
		},
		{
			"buffer":0,
			"byteLength":24,
			"byteOffset":256,
			"target":34963
		},
		{
			"buffer":0,
			"byteLength":14652,
			"byteOffset":280,
			"target":34962
		},
		{
			"buffer":0,
			"byteLength":14652,
			"byteOffset":14932,
			"target":34962
		},
		{
			"buffer":0,
			"byteLength":9768,
			"byteOffset":29584,
			"target":34962
		},
		{
			"buffer":0,
			"byteLength":3594,
			"byteOffset":39352,
			"target":34963
		},
		{
			"buffer":0,
			"byteLength":2856,
			"byteOffset":42948,
			"target":34962
		},
		{
			"buffer":0,
			"byteLength":2856,
			"byteOffset":45804,
			"target":34962
		},
		{
			"buffer":0,
			"byteLength":1904,
			"byteOffset":48660,
			"target":34962
		},
		{
			"buffer":0,
			"byteLength":756,
			"byteOffset":50564,
			"target":34963
		},
		{
			"buffer":0,
			"byteLength":3024,
			"byteOffset":51320,
			"target":34962
		},
		{
			"buffer":0,
			"byteLength":3024,
			"byteOffset":54344,
			"target":34962
		},
		{
			"buffer":0,
			"byteLength":2016,
			"byteOffset":57368,
			"target":34962
		},
		{
			"buffer":0,
			"byteLength":1008,
			"byteOffset":59384,
			"target":34963
		},
		{
			"buffer":0,
			"byteLength":672,
			"byteOffset":60392,
			"target":34962
		},
		{
			"buffer":0,
			"byteLength":672,
			"byteOffset":61064,
			"target":34962
		},
		{
			"buffer":0,
			"byteLength":448,
			"byteOffset":61736,
			"target":34962
		},
		{
			"buffer":0,
			"byteLength":168,
			"byteOffset":62184,
			"target":34963
		},
		{
			"buffer":0,
			"byteLength":288,
			"byteOffset":62352,
			"target":34962
		},
		{
			"buffer":0,
			"byteLength":288,
			"byteOffset":62640,
			"target":34962
		},
		{
			"buffer":0,
			"byteLength":192,
			"byteOffset":62928,
			"target":34962
		},
		{
			"buffer":0,
			"byteLength":72,
			"byteOffset":63120,
			"target":34963
		},
		{
			"buffer":0,
			"byteLength":144,
			"byteOffset":63192,
			"target":34962
		},
		{
			"buffer":0,
			"byteLength":144,
			"byteOffset":63336,
			"target":34962
		},
		{
			"buffer":0,
			"byteLength":96,
			"byteOffset":63480,
			"target":34962
		},
		{
			"buffer":0,
			"byteLength":24,
			"byteOffset":63576,
			"target":34963
		},
		{
			"buffer":0,
			"byteLength":576,
			"byteOffset":63600,
			"target":34962
		},
		{
			"buffer":0,
			"byteLength":576,
			"byteOffset":64176,
			"target":34962
		},
		{
			"buffer":0,
			"byteLength":384,
			"byteOffset":64752,
			"target":34962
		},
		{
			"buffer":0,
			"byteLength":144,
			"byteOffset":65136,
			"target":34963
		},
		{
			"buffer":0,
			"byteLength":384,
			"byteOffset":65280,
			"target":34962
		},
		{
			"buffer":0,
			"byteLength":384,
			"byteOffset":65664,
			"target":34962
		},
		{
			"buffer":0,
			"byteLength":256,
			"byteOffset":66048,
			"target":34962
		},
		{
			"buffer":0,
			"byteLength":84,
			"byteOffset":66304,
			"target":34963
		},
		{
			"buffer":0,
			"byteLength":288,
			"byteOffset":66388,
			"target":34962
		},
		{
			"buffer":0,
			"byteLength":288,
			"byteOffset":66676,
			"target":34962
		},
		{
			"buffer":0,
			"byteLength":192,
			"byteOffset":66964,
			"target":34962
		},
		{
			"buffer":0,
			"byteLength":144,
			"byteOffset":67156,
			"target":34962
		},
		{
			"buffer":0,
			"byteLength":144,
			"byteOffset":67300,
			"target":34962
		},
		{
			"buffer":0,
			"byteLength":96,
			"byteOffset":67444,
			"target":34962
		},
		{
			"buffer":0,
			"byteLength":576,
			"byteOffset":67540,
			"target":34962
		},
		{
			"buffer":0,
			"byteLength":576,
			"byteOffset":68116,
			"target":34962
		},
		{
			"buffer":0,
			"byteLength":384,
			"byteOffset":68692,
			"target":34962
		},
		{
			"buffer":0,
			"byteLength":384,
			"byteOffset":69076,
			"target":34962
		},
		{
			"buffer":0,
			"byteLength":384,
			"byteOffset":69460,
			"target":34962
		},
		{
			"buffer":0,
			"byteLength":256,
			"byteOffset":69844,
			"target":34962
		},
		{
			"buffer":0,
			"byteLength":288,
			"byteOffset":70100,
			"target":34962
		},
		{
			"buffer":0,
			"byteLength":288,
			"byteOffset":70388,
			"target":34962
		},
		{
			"buffer":0,
			"byteLength":192,
			"byteOffset":70676,
			"target":34962
		},
		{
			"buffer":0,
			"byteLength":144,
			"byteOffset":70868,
			"target":34962
		},
		{
			"buffer":0,
			"byteLength":144,
			"byteOffset":71012,
			"target":34962
		},
		{
			"buffer":0,
			"byteLength":96,
			"byteOffset":71156,
			"target":34962
		},
		{
			"buffer":0,
			"byteLength":576,
			"byteOffset":71252,
			"target":34962
		},
		{
			"buffer":0,
			"byteLength":576,
			"byteOffset":71828,
			"target":34962
		},
		{
			"buffer":0,
			"byteLength":384,
			"byteOffset":72404,
			"target":34962
		},
		{
			"buffer":0,
			"byteLength":384,
			"byteOffset":72788,
			"target":34962
		},
		{
			"buffer":0,
			"byteLength":384,
			"byteOffset":73172,
			"target":34962
		},
		{
			"buffer":0,
			"byteLength":256,
			"byteOffset":73556,
			"target":34962
		},
		{
			"buffer":0,
			"byteLength":288,
			"byteOffset":73812,
			"target":34962
		},
		{
			"buffer":0,
			"byteLength":288,
			"byteOffset":74100,
			"target":34962
		},
		{
			"buffer":0,
			"byteLength":192,
			"byteOffset":74388,
			"target":34962
		},
		{
			"buffer":0,
			"byteLength":144,
			"byteOffset":74580,
			"target":34962
		},
		{
			"buffer":0,
			"byteLength":144,
			"byteOffset":74724,
			"target":34962
		},
		{
			"buffer":0,
			"byteLength":96,
			"byteOffset":74868,
			"target":34962
		},
		{
			"buffer":0,
			"byteLength":576,
			"byteOffset":74964,
			"target":34962
		},
		{
			"buffer":0,
			"byteLength":576,
			"byteOffset":75540,
			"target":34962
		},
		{
			"buffer":0,
			"byteLength":384,
			"byteOffset":76116,
			"target":34962
		},
		{
			"buffer":0,
			"byteLength":384,
			"byteOffset":76500,
			"target":34962
		},
		{
			"buffer":0,
			"byteLength":384,
			"byteOffset":76884,
			"target":34962
		},
		{
			"buffer":0,
			"byteLength":256,
			"byteOffset":77268,
			"target":34962
		},
		{
			"buffer":0,
			"byteLength":1200,
			"byteOffset":77524,
			"target":34962
		},
		{
			"buffer":0,
			"byteLength":1200,
			"byteOffset":78724,
			"target":34962
		},
		{
			"buffer":0,
			"byteLength":800,
			"byteOffset":79924,
			"target":34962
		},
		{
			"buffer":0,
			"byteLength":288,
			"byteOffset":80724,
			"target":34963
		},
		{
			"buffer":0,
			"byteLength":17136,
			"byteOffset":81012,
			"target":34962
		},
		{
			"buffer":0,
			"byteLength":17136,
			"byteOffset":98148,
			"target":34962
		},
		{
			"buffer":0,
			"byteLength":11424,
			"byteOffset":115284,
			"target":34962
		},
		{
			"buffer":0,
			"byteLength":4188,
			"byteOffset":126708,
			"target":34963
		},
		{
			"buffer":0,
			"byteLength":6240,
			"byteOffset":130896,
			"target":34962
		},
		{
			"buffer":0,
			"byteLength":6240,
			"byteOffset":137136,
			"target":34962
		},
		{
			"buffer":0,
			"byteLength":4160,
			"byteOffset":143376,
			"target":34962
		},
		{
			"buffer":0,
			"byteLength":1392,
			"byteOffset":147536,
			"target":34963
		},
		{
			"buffer":0,
			"byteLength":720,
			"byteOffset":148928,
			"target":34962
		},
		{
			"buffer":0,
			"byteLength":720,
			"byteOffset":149648,
			"target":34962
		},
		{
			"buffer":0,
			"byteLength":480,
			"byteOffset":150368,
			"target":34962
		},
		{
			"buffer":0,
			"byteLength":144,
			"byteOffset":150848,
			"target":34963
		},
		{
			"buffer":0,
			"byteLength":744,
			"byteOffset":150992,
			"target":34962
		},
		{
			"buffer":0,
			"byteLength":744,
			"byteOffset":151736,
			"target":34962
		},
		{
			"buffer":0,
			"byteLength":496,
			"byteOffset":152480,
			"target":34962
		},
		{
			"buffer":0,
			"byteLength":156,
			"byteOffset":152976,
			"target":34963
		},
		{
			"buffer":0,
			"byteLength":17928,
			"byteOffset":153132,
			"target":34962
		},
		{
			"buffer":0,
			"byteLength":17928,
			"byteOffset":171060,
			"target":34962
		},
		{
			"buffer":0,
			"byteLength":11952,
			"byteOffset":188988,
			"target":34962
		},
		{
			"buffer":0,
			"byteLength":3564,
			"byteOffset":200940,
			"target":34963
		},
		{
			"buffer":0,
			"byteLength":16308,
			"byteOffset":204504,
			"target":34962
		},
		{
			"buffer":0,
			"byteLength":16308,
			"byteOffset":220812,
			"target":34962
		},
		{
			"buffer":0,
			"byteLength":10872,
			"byteOffset":237120,
			"target":34962
		},
		{
			"buffer":0,
			"byteLength":3054,
			"byteOffset":247992,
			"target":34963
		},
		{
			"buffer":0,
			"byteLength":8628,
			"byteOffset":251048,
			"target":34962
		},
		{
			"buffer":0,
			"byteLength":8628,
			"byteOffset":259676,
			"target":34962
		},
		{
			"buffer":0,
			"byteLength":5752,
			"byteOffset":268304,
			"target":34962
		},
		{
			"buffer":0,
			"byteLength":2034,
			"byteOffset":274056,
			"target":34963
		},
		{
			"buffer":0,
			"byteLength":12108,
			"byteOffset":276092,
			"target":34962
		},
		{
			"buffer":0,
			"byteLength":12108,
			"byteOffset":288200,
			"target":34962
		},
		{
			"buffer":0,
			"byteLength":8072,
			"byteOffset":300308,
			"target":34962
		},
		{
			"buffer":0,
			"byteLength":2754,
			"byteOffset":308380,
			"target":34963
		},
		{
			"buffer":0,
			"byteLength":600,
			"byteOffset":311136,
			"target":34962
		},
		{
			"buffer":0,
			"byteLength":600,
			"byteOffset":311736,
			"target":34962
		},
		{
			"buffer":0,
			"byteLength":400,
			"byteOffset":312336,
			"target":34962
		},
		{
			"buffer":0,
			"byteLength":144,
			"byteOffset":312736,
			"target":34963
		},
		{
			"buffer":0,
			"byteLength":8016,
			"byteOffset":312880,
			"target":34962
		},
		{
			"buffer":0,
			"byteLength":8016,
			"byteOffset":320896,
			"target":34962
		},
		{
			"buffer":0,
			"byteLength":5344,
			"byteOffset":328912,
			"target":34962
		},
		{
			"buffer":0,
			"byteLength":1536,
			"byteOffset":334256,
			"target":34963
		},
		{
			"buffer":0,
			"byteLength":2112,
			"byteOffset":335792,
			"target":34962
		},
		{
			"buffer":0,
			"byteLength":2112,
			"byteOffset":337904,
			"target":34962
		},
		{
			"buffer":0,
			"byteLength":1408,
			"byteOffset":340016,
			"target":34962
		},
		{
			"buffer":0,
			"byteLength":480,
			"byteOffset":341424,
			"target":34963
		},
		{
			"buffer":0,
			"byteLength":3000,
			"byteOffset":341904,
			"target":34962
		},
		{
			"buffer":0,
			"byteLength":3000,
			"byteOffset":344904,
			"target":34962
		},
		{
			"buffer":0,
			"byteLength":2000,
			"byteOffset":347904,
			"target":34962
		},
		{
			"buffer":0,
			"byteLength":1308,
			"byteOffset":349904,
			"target":34963
		},
		{
			"buffer":0,
			"byteLength":120,
			"byteOffset":351212,
			"target":34962
		},
		{
			"buffer":0,
			"byteLength":120,
			"byteOffset":351332,
			"target":34962
		},
		{
			"buffer":0,
			"byteLength":80,
			"byteOffset":351452,
			"target":34962
		},
		{
			"buffer":0,
			"byteLength":24,
			"byteOffset":351532,
			"target":34963
		},
		{
			"buffer":0,
			"byteLength":1200,
			"byteOffset":351556,
			"target":34962
		},
		{
			"buffer":0,
			"byteLength":1200,
			"byteOffset":352756,
			"target":34962
		},
		{
			"buffer":0,
			"byteLength":800,
			"byteOffset":353956,
			"target":34962
		},
		{
			"buffer":0,
			"byteLength":17112,
			"byteOffset":354756,
			"target":34962
		},
		{
			"buffer":0,
			"byteLength":17112,
			"byteOffset":371868,
			"target":34962
		},
		{
			"buffer":0,
			"byteLength":11408,
			"byteOffset":388980,
			"target":34962
		},
		{
			"buffer":0,
			"byteLength":4188,
			"byteOffset":400388,
			"target":34963
		},
		{
			"buffer":0,
			"byteLength":6240,
			"byteOffset":404576,
			"target":34962
		},
		{
			"buffer":0,
			"byteLength":6240,
			"byteOffset":410816,
			"target":34962
		},
		{
			"buffer":0,
			"byteLength":4160,
			"byteOffset":417056,
			"target":34962
		},
		{
			"buffer":0,
			"byteLength":720,
			"byteOffset":421216,
			"target":34962
		},
		{
			"buffer":0,
			"byteLength":720,
			"byteOffset":421936,
			"target":34962
		},
		{
			"buffer":0,
			"byteLength":480,
			"byteOffset":422656,
			"target":34962
		},
		{
			"buffer":0,
			"byteLength":744,
			"byteOffset":423136,
			"target":34962
		},
		{
			"buffer":0,
			"byteLength":744,
			"byteOffset":423880,
			"target":34962
		},
		{
			"buffer":0,
			"byteLength":496,
			"byteOffset":424624,
			"target":34962
		},
		{
			"buffer":0,
			"byteLength":17916,
			"byteOffset":425120,
			"target":34962
		},
		{
			"buffer":0,
			"byteLength":17916,
			"byteOffset":443036,
			"target":34962
		},
		{
			"buffer":0,
			"byteLength":11944,
			"byteOffset":460952,
			"target":34962
		},
		{
			"buffer":0,
			"byteLength":3558,
			"byteOffset":472896,
			"target":34963
		},
		{
			"buffer":0,
			"byteLength":16308,
			"byteOffset":476456,
			"target":34962
		},
		{
			"buffer":0,
			"byteLength":16308,
			"byteOffset":492764,
			"target":34962
		},
		{
			"buffer":0,
			"byteLength":10872,
			"byteOffset":509072,
			"target":34962
		},
		{
			"buffer":0,
			"byteLength":3054,
			"byteOffset":519944,
			"target":34963
		},
		{
			"buffer":0,
			"byteLength":8640,
			"byteOffset":523000,
			"target":34962
		},
		{
			"buffer":0,
			"byteLength":8640,
			"byteOffset":531640,
			"target":34962
		},
		{
			"buffer":0,
			"byteLength":5760,
			"byteOffset":540280,
			"target":34962
		},
		{
			"buffer":0,
			"byteLength":2040,
			"byteOffset":546040,
			"target":34963
		},
		{
			"buffer":0,
			"byteLength":600,
			"byteOffset":548080,
			"target":34962
		},
		{
			"buffer":0,
			"byteLength":600,
			"byteOffset":548680,
			"target":34962
		},
		{
			"buffer":0,
			"byteLength":400,
			"byteOffset":549280,
			"target":34962
		},
		{
			"buffer":0,
			"byteLength":8016,
			"byteOffset":549680,
			"target":34962
		},
		{
			"buffer":0,
			"byteLength":8016,
			"byteOffset":557696,
			"target":34962
		},
		{
			"buffer":0,
			"byteLength":5344,
			"byteOffset":565712,
			"target":34962
		},
		{
			"buffer":0,
			"byteLength":11232,
			"byteOffset":571056,
			"target":34962
		},
		{
			"buffer":0,
			"byteLength":11232,
			"byteOffset":582288,
			"target":34962
		},
		{
			"buffer":0,
			"byteLength":7488,
			"byteOffset":593520,
			"target":34962
		},
		{
			"buffer":0,
			"byteLength":2484,
			"byteOffset":601008,
			"target":34963
		},
		{
			"buffer":0,
			"byteLength":2112,
			"byteOffset":603492,
			"target":34962
		},
		{
			"buffer":0,
			"byteLength":2112,
			"byteOffset":605604,
			"target":34962
		},
		{
			"buffer":0,
			"byteLength":1408,
			"byteOffset":607716,
			"target":34962
		},
		{
			"buffer":0,
			"byteLength":3000,
			"byteOffset":609124,
			"target":34962
		},
		{
			"buffer":0,
			"byteLength":3000,
			"byteOffset":612124,
			"target":34962
		},
		{
			"buffer":0,
			"byteLength":2000,
			"byteOffset":615124,
			"target":34962
		},
		{
			"buffer":0,
			"byteLength":120,
			"byteOffset":617124,
			"target":34962
		},
		{
			"buffer":0,
			"byteLength":120,
			"byteOffset":617244,
			"target":34962
		},
		{
			"buffer":0,
			"byteLength":80,
			"byteOffset":617364,
			"target":34962
		},
		{
			"buffer":0,
			"byteLength":324,
			"byteOffset":617444,
			"target":34962
		},
		{
			"buffer":0,
			"byteLength":324,
			"byteOffset":617768,
			"target":34962
		},
		{
			"buffer":0,
			"byteLength":216,
			"byteOffset":618092,
			"target":34962
		},
		{
			"buffer":0,
			"byteLength":78,
			"byteOffset":618308,
			"target":34963
		},
		{
			"buffer":0,
			"byteLength":39120,
			"byteOffset":618388,
			"target":34962
		},
		{
			"buffer":0,
			"byteLength":39120,
			"byteOffset":657508,
			"target":34962
		},
		{
			"buffer":0,
			"byteLength":26080,
			"byteOffset":696628,
			"target":34962
		},
		{
			"buffer":0,
			"byteLength":8388,
			"byteOffset":722708,
			"target":34963
		},
		{
			"buffer":0,
			"byteLength":19368,
			"byteOffset":731096,
			"target":34962
		},
		{
			"buffer":0,
			"byteLength":19368,
			"byteOffset":750464,
			"target":34962
		},
		{
			"buffer":0,
			"byteLength":12912,
			"byteOffset":769832,
			"target":34962
		},
		{
			"buffer":0,
			"byteLength":4836,
			"byteOffset":782744,
			"target":34963
		},
		{
			"buffer":0,
			"byteLength":384,
			"byteOffset":787580,
			"target":34962
		},
		{
			"buffer":0,
			"byteLength":384,
			"byteOffset":787964,
			"target":34962
		},
		{
			"buffer":0,
			"byteLength":256,
			"byteOffset":788348,
			"target":34962
		},
		{
			"buffer":0,
			"byteLength":84,
			"byteOffset":788604,
			"target":34963
		},
		{
			"buffer":0,
			"byteLength":528,
			"byteOffset":788688,
			"target":34962
		},
		{
			"buffer":0,
			"byteLength":528,
			"byteOffset":789216,
			"target":34962
		},
		{
			"buffer":0,
			"byteLength":352,
			"byteOffset":789744,
			"target":34962
		},
		{
			"buffer":0,
			"byteLength":114,
			"byteOffset":790096,
			"target":34963
		},
		{
			"buffer":0,
			"byteLength":4080,
			"byteOffset":790212,
			"target":34962
		},
		{
			"buffer":0,
			"byteLength":4080,
			"byteOffset":794292,
			"target":34962
		},
		{
			"buffer":0,
			"byteLength":2720,
			"byteOffset":798372,
			"target":34962
		},
		{
			"buffer":0,
			"byteLength":744,
			"byteOffset":801092,
			"target":34963
		},
		{
			"buffer":0,
			"byteLength":3684,
			"byteOffset":801836,
			"target":34962
		},
		{
			"buffer":0,
			"byteLength":3684,
			"byteOffset":805520,
			"target":34962
		},
		{
			"buffer":0,
			"byteLength":2456,
			"byteOffset":809204,
			"target":34962
		},
		{
			"buffer":0,
			"byteLength":618,
			"byteOffset":811660,
			"target":34963
		},
		{
			"buffer":0,
			"byteLength":600,
			"byteOffset":812280,
			"target":34962
		},
		{
			"buffer":0,
			"byteLength":600,
			"byteOffset":812880,
			"target":34962
		},
		{
			"buffer":0,
			"byteLength":400,
			"byteOffset":813480,
			"target":34962
		},
		{
			"buffer":0,
			"byteLength":8784,
			"byteOffset":813880,
			"target":34962
		},
		{
			"buffer":0,
			"byteLength":8784,
			"byteOffset":822664,
			"target":34962
		},
		{
			"buffer":0,
			"byteLength":5856,
			"byteOffset":831448,
			"target":34962
		},
		{
			"buffer":0,
			"byteLength":1728,
			"byteOffset":837304,
			"target":34963
		},
		{
			"buffer":0,
			"byteLength":10392,
			"byteOffset":839032,
			"target":34962
		},
		{
			"buffer":0,
			"byteLength":10392,
			"byteOffset":849424,
			"target":34962
		},
		{
			"buffer":0,
			"byteLength":6928,
			"byteOffset":859816,
			"target":34962
		},
		{
			"buffer":0,
			"byteLength":2292,
			"byteOffset":866744,
			"target":34963
		},
		{
			"buffer":0,
			"byteLength":2112,
			"byteOffset":869036,
			"target":34962
		},
		{
			"buffer":0,
			"byteLength":2112,
			"byteOffset":871148,
			"target":34962
		},
		{
			"buffer":0,
			"byteLength":1408,
			"byteOffset":873260,
			"target":34962
		},
		{
			"buffer":0,
			"byteLength":3000,
			"byteOffset":874668,
			"target":34962
		},
		{
			"buffer":0,
			"byteLength":3000,
			"byteOffset":877668,
			"target":34962
		},
		{
			"buffer":0,
			"byteLength":2000,
			"byteOffset":880668,
			"target":34962
		},
		{
			"buffer":0,
			"byteLength":120,
			"byteOffset":882668,
			"target":34962
		},
		{
			"buffer":0,
			"byteLength":120,
			"byteOffset":882788,
			"target":34962
		},
		{
			"buffer":0,
			"byteLength":80,
			"byteOffset":882908,
			"target":34962
		},
		{
			"buffer":0,
			"byteLength":217008,
			"byteOffset":882988,
			"target":34962
		},
		{
			"buffer":0,
			"byteLength":217008,
			"byteOffset":1099996,
			"target":34962
		},
		{
			"buffer":0,
			"byteLength":144672,
			"byteOffset":1317004,
			"target":34962
		},
		{
			"buffer":0,
			"byteLength":88344,
			"byteOffset":1461676,
			"target":34963
		},
		{
			"buffer":0,
			"byteLength":576,
			"byteOffset":1550020,
			"target":34962
		},
		{
			"buffer":0,
			"byteLength":576,
			"byteOffset":1550596,
			"target":34962
		},
		{
			"buffer":0,
			"byteLength":384,
			"byteOffset":1551172,
			"target":34962
		},
		{
			"buffer":0,
			"byteLength":144,
			"byteOffset":1551556,
			"target":34963
		}
	],
	"samplers":[
		{
			"magFilter":9729,
			"minFilter":9987
		}
	],
	"buffers":[
		{
			"byteLength":1551700,
			"uri":"Pagoda_Sanju_24m.bin"
		}
	]
}
