{
	"asset":{
		"generator":"Khronos glTF Blender I/O v4.4.56",
		"version":"2.0"
	},
	"extensionsUsed":[
		"KHR_texture_transform"
	],
	"extensionsRequired":[
		"KHR_texture_transform"
	],
	"scene":0,
	"scenes":[
		{
			"name":"Scene",
			"nodes":[
				28
			]
		}
	],
	"nodes":[
		{
			"mesh":0,
			"name":"Base_LOD0.009"
		},
		{
			"children":[
				0
			],
			"name":"Base.009"
		},
		{
			"mesh":1,
			"name":"Door_EL_LOD0.009"
		},
		{
			"mesh":2,
			"name":"Door_ER_LOD0.009"
		},
		{
			"mesh":3,
			"name":"Door_NL_LOD0.009"
		},
		{
			"mesh":4,
			"name":"Door_NR_LOD0.009"
		},
		{
			"mesh":5,
			"name":"Door_SL_LOD0.009"
		},
		{
			"mesh":6,
			"name":"Door_SR_LOD0.009"
		},
		{
			"mesh":7,
			"name":"Door_WL_LOD0.009"
		},
		{
			"mesh":8,
			"name":"Door_WR_LOD0.009"
		},
		{
			"children":[
				2,
				3,
				4,
				5,
				6,
				7,
				8,
				9
			],
			"name":"Doors.009"
		},
		{
			"mesh":9,
			"name":"Roof1_LOD0.009"
		},
		{
			"mesh":10,
			"name":"Wall1_LOD0.009"
		},
		{
			"children":[
				11,
				12
			],
			"name":"Floor1.009"
		},
		{
			"mesh":11,
			"name":"Roof2_LOD0.009"
		},
		{
			"mesh":12,
			"name":"Wall2_LOD0.009"
		},
		{
			"children":[
				14,
				15
			],
			"name":"Floor2.009"
		},
		{
			"mesh":13,
			"name":"Roof3_LOD0.006"
		},
		{
			"mesh":14,
			"name":"Wall3_LOD0.006"
		},
		{
			"children":[
				17,
				18
			],
			"name":"Floor3.006"
		},
		{
			"mesh":15,
			"name":"Roof4_LOD0.003"
		},
		{
			"mesh":16,
			"name":"Wall4_LOD0.003"
		},
		{
			"children":[
				20,
				21
			],
			"name":"Floor4.003"
		},
		{
			"mesh":17,
			"name":"Roof5_LOD0.003"
		},
		{
			"mesh":18,
			"name":"Wall5_LOD0.003"
		},
		{
			"children":[
				23,
				24
			],
			"name":"Floor5.003"
		},
		{
			"mesh":19,
			"name":"Sorin_LOD0.009"
		},
		{
			"children":[
				26
			],
			"name":"Sorin.009"
		},
		{
			"children":[
				1,
				10,
				13,
				16,
				19,
				22,
				25,
				27
			],
			"name":"Pagoda_Goju_38m"
		}
	],
	"materials":[
		{
			"doubleSided":true,
			"name":"mat_basalt_base_01.010",
			"pbrMetallicRoughness":{
				"baseColorTexture":{
					"extensions":{
						"KHR_texture_transform":{
							"offset":[
								0,
								0.6500000059604645
							],
							"scale":[
								0.3499999940395355,
								0.3499999940395355
							]
						}
					},
					"index":0
				},
				"metallicFactor":0
			}
		},
		{
			"doubleSided":true,
			"name":"mat_stone_wall_02.004",
			"pbrMetallicRoughness":{
				"baseColorTexture":{
					"extensions":{
						"KHR_texture_transform":{
							"offset":[
								0,
								0.8999999985098839
							],
							"scale":[
								0.10000000149011612,
								0.10000000149011612
							]
						}
					},
					"index":1
				},
				"metallicFactor":0
			}
		},
		{
			"doubleSided":true,
			"name":"mat_wood_wall_01.010",
			"pbrMetallicRoughness":{
				"baseColorFactor":[
					0.5583404898643494,
					0.4564109742641449,
					0.3467040956020355,
					1
				],
				"baseColorTexture":{
					"extensions":{
						"KHR_texture_transform":{
							"offset":[
								0,
								0.5
							],
							"scale":[
								0.5,
								0.5
							]
						}
					},
					"index":2
				},
				"metallicFactor":0
			}
		},
		{
			"doubleSided":true,
			"name":"mat_wood_pillarRed_01.002",
			"pbrMetallicRoughness":{
				"baseColorFactor":[
					0.5457245707511902,
					0.061246056109666824,
					0.006512089166790247,
					1
				],
				"baseColorTexture":{
					"extensions":{
						"KHR_texture_transform":{
							"offset":[
								0,
								0.5
							],
							"scale":[
								0.5,
								0.5
							]
						}
					},
					"index":3
				},
				"metallicFactor":0
			}
		},
		{
			"doubleSided":true,
			"name":"mat_wood_paint_white_01.009",
			"pbrMetallicRoughness":{
				"baseColorFactor":[
					0.5711249113082886,
					0.4969330430030823,
					0.4125427007675171,
					1
				],
				"baseColorTexture":{
					"extensions":{
						"KHR_texture_transform":{
							"offset":[
								0,
								0.5
							],
							"scale":[
								0.5,
								0.5
							]
						}
					},
					"index":4
				},
				"metallicFactor":0
			}
		},
		{
			"doubleSided":true,
			"name":"mat_clay_tile_02.008",
			"pbrMetallicRoughness":{
				"baseColorTexture":{
					"extensions":{
						"KHR_texture_transform":{
							"offset":[
								0,
								0.5
							],
							"scale":[
								0.5,
								0.5
							]
						}
					},
					"index":5
				},
				"metallicFactor":0
			}
		},
		{
			"doubleSided":true,
			"name":"mat_wood_plank_03.010",
			"pbrMetallicRoughness":{
				"baseColorTexture":{
					"index":6
				},
				"metallicFactor":0
			}
		},
		{
			"name":"mat_decal_pagoda_01.010"
		},
		{
			"doubleSided":true,
			"name":"mat_clay_fired_01.008",
			"pbrMetallicRoughness":{
				"baseColorTexture":{
					"extensions":{
						"KHR_texture_transform":{
							"offset":[
								0,
								0.5
							],
							"scale":[
								0.5,
								0.5
							]
						}
					},
					"index":7
				},
				"metallicFactor":0
			}
		},
		{
			"doubleSided":true,
			"name":"mat_clay_tile_01.008",
			"pbrMetallicRoughness":{
				"baseColorTexture":{
					"extensions":{
						"KHR_texture_transform":{
							"offset":[
								0,
								0.5
							],
							"scale":[
								0.5,
								0.5
							]
						}
					},
					"index":8
				},
				"metallicFactor":0
			}
		},
		{
			"doubleSided":true,
			"name":"mat_wood_beamRed_01.002",
			"pbrMetallicRoughness":{
				"baseColorFactor":[
					0.9646862745285034,
					0.08650045096874237,
					0,
					1
				],
				"baseColorTexture":{
					"extensions":{
						"KHR_texture_transform":{
							"offset":[
								0,
								0.5
							],
							"scale":[
								0.5,
								0.5
							]
						}
					},
					"index":9
				},
				"metallicFactor":0
			}
		},
		{
			"doubleSided":true,
			"name":"mat_metal_copper_antique_01.010",
			"pbrMetallicRoughness":{
				"baseColorTexture":{
					"index":10
				},
				"metallicFactor":0
			}
		},
		{
			"doubleSided":true,
			"name":"mat_metal_copper_patina_01.010",
			"pbrMetallicRoughness":{
				"baseColorTexture":{
					"extensions":{
						"KHR_texture_transform":{
							"offset":[
								0,
								0.5
							],
							"scale":[
								0.5,
								0.5
							]
						}
					},
					"index":11
				},
				"metallicFactor":0
			}
		},
		{
			"doubleSided":true,
			"name":"mat_wood_paint_green_01.004",
			"pbrMetallicRoughness":{
				"baseColorFactor":[
					0.04817181080579758,
					0.11953841149806976,
					0.07036009430885315,
					1
				],
				"baseColorTexture":{
					"extensions":{
						"KHR_texture_transform":{
							"offset":[
								0,
								0.5
							],
							"scale":[
								0.5,
								0.5
							]
						}
					},
					"index":12
				},
				"metallicFactor":0
			}
		}
	],
	"meshes":[
		{
			"name":"Base_LOD0.010",
			"primitives":[
				{
					"attributes":{
						"POSITION":0,
						"NORMAL":1,
						"TEXCOORD_0":2
					},
					"indices":3,
					"material":0
				},
				{
					"attributes":{
						"POSITION":4,
						"NORMAL":5,
						"TEXCOORD_0":6
					},
					"indices":7,
					"material":1
				}
			]
		},
		{
			"name":"Door_EL_LOD0.010",
			"primitives":[
				{
					"attributes":{
						"POSITION":8,
						"NORMAL":9,
						"TEXCOORD_0":10
					},
					"indices":11,
					"material":2
				}
			]
		},
		{
			"name":"Door_ER_LOD0.010",
			"primitives":[
				{
					"attributes":{
						"POSITION":12,
						"NORMAL":13,
						"TEXCOORD_0":14
					},
					"indices":15,
					"material":2
				}
			]
		},
		{
			"name":"Door_NL_LOD0.010",
			"primitives":[
				{
					"attributes":{
						"POSITION":16,
						"NORMAL":17,
						"TEXCOORD_0":18
					},
					"indices":11,
					"material":2
				}
			]
		},
		{
			"name":"Door_NR_LOD0.010",
			"primitives":[
				{
					"attributes":{
						"POSITION":19,
						"NORMAL":20,
						"TEXCOORD_0":21
					},
					"indices":15,
					"material":2
				}
			]
		},
		{
			"name":"Door_SL_LOD0.010",
			"primitives":[
				{
					"attributes":{
						"POSITION":22,
						"NORMAL":23,
						"TEXCOORD_0":24
					},
					"indices":11,
					"material":2
				}
			]
		},
		{
			"name":"Door_SR_LOD0.010",
			"primitives":[
				{
					"attributes":{
						"POSITION":25,
						"NORMAL":26,
						"TEXCOORD_0":27
					},
					"indices":15,
					"material":2
				}
			]
		},
		{
			"name":"Door_WL_LOD0.010",
			"primitives":[
				{
					"attributes":{
						"POSITION":28,
						"NORMAL":29,
						"TEXCOORD_0":30
					},
					"indices":11,
					"material":2
				}
			]
		},
		{
			"name":"Door_WR_LOD0.010",
			"primitives":[
				{
					"attributes":{
						"POSITION":31,
						"NORMAL":32,
						"TEXCOORD_0":33
					},
					"indices":15,
					"material":2
				}
			]
		},
		{
			"name":"Roof1_LOD0.010",
			"primitives":[
				{
					"attributes":{
						"POSITION":34,
						"NORMAL":35,
						"TEXCOORD_0":36
					},
					"indices":37,
					"material":3
				},
				{
					"attributes":{
						"POSITION":38,
						"NORMAL":39,
						"TEXCOORD_0":40
					},
					"indices":41,
					"material":4
				},
				{
					"attributes":{
						"POSITION":42,
						"NORMAL":43,
						"TEXCOORD_0":44
					},
					"indices":45,
					"material":5
				},
				{
					"attributes":{
						"POSITION":46,
						"NORMAL":47,
						"TEXCOORD_0":48
					},
					"indices":49,
					"material":6
				},
				{
					"attributes":{
						"POSITION":50,
						"NORMAL":51,
						"TEXCOORD_0":52
					},
					"indices":53,
					"material":7
				},
				{
					"attributes":{
						"POSITION":54,
						"NORMAL":55,
						"TEXCOORD_0":56
					},
					"indices":57,
					"material":8
				},
				{
					"attributes":{
						"POSITION":58,
						"NORMAL":59,
						"TEXCOORD_0":60
					},
					"indices":61,
					"material":9
				},
				{
					"attributes":{
						"POSITION":62,
						"NORMAL":63,
						"TEXCOORD_0":64
					},
					"indices":65,
					"material":10
				}
			]
		},
		{
			"name":"Wall1_LOD0.010",
			"primitives":[
				{
					"attributes":{
						"POSITION":66,
						"NORMAL":67,
						"TEXCOORD_0":68
					},
					"indices":69,
					"material":10
				},
				{
					"attributes":{
						"POSITION":70,
						"NORMAL":71,
						"TEXCOORD_0":72
					},
					"indices":73,
					"material":11
				},
				{
					"attributes":{
						"POSITION":74,
						"NORMAL":75,
						"TEXCOORD_0":76
					},
					"indices":77,
					"material":4
				},
				{
					"attributes":{
						"POSITION":78,
						"NORMAL":79,
						"TEXCOORD_0":80
					},
					"indices":81,
					"material":3
				},
				{
					"attributes":{
						"POSITION":82,
						"NORMAL":83,
						"TEXCOORD_0":84
					},
					"indices":85,
					"material":6
				},
				{
					"attributes":{
						"POSITION":86,
						"NORMAL":87,
						"TEXCOORD_0":88
					},
					"indices":89,
					"material":7
				},
				{
					"attributes":{
						"POSITION":90,
						"NORMAL":91,
						"TEXCOORD_0":92
					},
					"indices":93,
					"material":12
				},
				{
					"attributes":{
						"POSITION":94,
						"NORMAL":95,
						"TEXCOORD_0":96
					},
					"indices":97,
					"material":13
				}
			]
		},
		{
			"name":"Roof2_LOD0.010",
			"primitives":[
				{
					"attributes":{
						"POSITION":98,
						"NORMAL":99,
						"TEXCOORD_0":100
					},
					"indices":101,
					"material":3
				},
				{
					"attributes":{
						"POSITION":102,
						"NORMAL":103,
						"TEXCOORD_0":104
					},
					"indices":41,
					"material":4
				},
				{
					"attributes":{
						"POSITION":105,
						"NORMAL":106,
						"TEXCOORD_0":107
					},
					"indices":45,
					"material":5
				},
				{
					"attributes":{
						"POSITION":108,
						"NORMAL":109,
						"TEXCOORD_0":110
					},
					"indices":49,
					"material":6
				},
				{
					"attributes":{
						"POSITION":111,
						"NORMAL":112,
						"TEXCOORD_0":113
					},
					"indices":114,
					"material":7
				},
				{
					"attributes":{
						"POSITION":115,
						"NORMAL":116,
						"TEXCOORD_0":117
					},
					"indices":118,
					"material":8
				},
				{
					"attributes":{
						"POSITION":119,
						"NORMAL":120,
						"TEXCOORD_0":121
					},
					"indices":122,
					"material":9
				},
				{
					"attributes":{
						"POSITION":123,
						"NORMAL":124,
						"TEXCOORD_0":125
					},
					"indices":65,
					"material":10
				}
			]
		},
		{
			"name":"Wall2_LOD0.010",
			"primitives":[
				{
					"attributes":{
						"POSITION":126,
						"NORMAL":127,
						"TEXCOORD_0":128
					},
					"indices":129,
					"material":4
				},
				{
					"attributes":{
						"POSITION":130,
						"NORMAL":131,
						"TEXCOORD_0":132
					},
					"indices":133,
					"material":11
				},
				{
					"attributes":{
						"POSITION":134,
						"NORMAL":135,
						"TEXCOORD_0":136
					},
					"indices":137,
					"material":10
				},
				{
					"attributes":{
						"POSITION":138,
						"NORMAL":139,
						"TEXCOORD_0":140
					},
					"indices":141,
					"material":3
				},
				{
					"attributes":{
						"POSITION":142,
						"NORMAL":143,
						"TEXCOORD_0":144
					},
					"indices":145,
					"material":6
				},
				{
					"attributes":{
						"POSITION":146,
						"NORMAL":147,
						"TEXCOORD_0":148
					},
					"indices":149,
					"material":12
				}
			]
		},
		{
			"name":"Roof3_LOD0.007",
			"primitives":[
				{
					"attributes":{
						"POSITION":150,
						"NORMAL":151,
						"TEXCOORD_0":152
					},
					"indices":153,
					"material":3
				},
				{
					"attributes":{
						"POSITION":154,
						"NORMAL":155,
						"TEXCOORD_0":156
					},
					"indices":157,
					"material":4
				},
				{
					"attributes":{
						"POSITION":158,
						"NORMAL":159,
						"TEXCOORD_0":160
					},
					"indices":45,
					"material":5
				},
				{
					"attributes":{
						"POSITION":161,
						"NORMAL":162,
						"TEXCOORD_0":163
					},
					"indices":164,
					"material":6
				},
				{
					"attributes":{
						"POSITION":165,
						"NORMAL":166,
						"TEXCOORD_0":167
					},
					"indices":168,
					"material":7
				},
				{
					"attributes":{
						"POSITION":169,
						"NORMAL":170,
						"TEXCOORD_0":171
					},
					"indices":172,
					"material":8
				},
				{
					"attributes":{
						"POSITION":173,
						"NORMAL":174,
						"TEXCOORD_0":175
					},
					"indices":176,
					"material":9
				},
				{
					"attributes":{
						"POSITION":177,
						"NORMAL":178,
						"TEXCOORD_0":179
					},
					"indices":65,
					"material":10
				}
			]
		},
		{
			"name":"Wall3_LOD0.007",
			"primitives":[
				{
					"attributes":{
						"POSITION":180,
						"NORMAL":181,
						"TEXCOORD_0":182
					},
					"indices":129,
					"material":4
				},
				{
					"attributes":{
						"POSITION":183,
						"NORMAL":184,
						"TEXCOORD_0":185
					},
					"indices":133,
					"material":11
				},
				{
					"attributes":{
						"POSITION":186,
						"NORMAL":187,
						"TEXCOORD_0":188
					},
					"indices":189,
					"material":10
				},
				{
					"attributes":{
						"POSITION":190,
						"NORMAL":191,
						"TEXCOORD_0":192
					},
					"indices":193,
					"material":3
				},
				{
					"attributes":{
						"POSITION":194,
						"NORMAL":195,
						"TEXCOORD_0":196
					},
					"indices":145,
					"material":6
				},
				{
					"attributes":{
						"POSITION":197,
						"NORMAL":198,
						"TEXCOORD_0":199
					},
					"indices":149,
					"material":12
				}
			]
		},
		{
			"name":"Roof4_LOD0.004",
			"primitives":[
				{
					"attributes":{
						"POSITION":200,
						"NORMAL":201,
						"TEXCOORD_0":202
					},
					"indices":203,
					"material":3
				},
				{
					"attributes":{
						"POSITION":204,
						"NORMAL":205,
						"TEXCOORD_0":206
					},
					"indices":41,
					"material":4
				},
				{
					"attributes":{
						"POSITION":207,
						"NORMAL":208,
						"TEXCOORD_0":209
					},
					"indices":45,
					"material":5
				},
				{
					"attributes":{
						"POSITION":210,
						"NORMAL":211,
						"TEXCOORD_0":212
					},
					"indices":49,
					"material":6
				},
				{
					"attributes":{
						"POSITION":213,
						"NORMAL":214,
						"TEXCOORD_0":215
					},
					"indices":216,
					"material":7
				},
				{
					"attributes":{
						"POSITION":217,
						"NORMAL":218,
						"TEXCOORD_0":219
					},
					"indices":220,
					"material":8
				},
				{
					"attributes":{
						"POSITION":221,
						"NORMAL":222,
						"TEXCOORD_0":223
					},
					"indices":224,
					"material":9
				},
				{
					"attributes":{
						"POSITION":225,
						"NORMAL":226,
						"TEXCOORD_0":227
					},
					"indices":228,
					"material":10
				}
			]
		},
		{
			"name":"Wall4_LOD0.004",
			"primitives":[
				{
					"attributes":{
						"POSITION":229,
						"NORMAL":230,
						"TEXCOORD_0":231
					},
					"indices":129,
					"material":4
				},
				{
					"attributes":{
						"POSITION":232,
						"NORMAL":233,
						"TEXCOORD_0":234
					},
					"indices":133,
					"material":11
				},
				{
					"attributes":{
						"POSITION":235,
						"NORMAL":236,
						"TEXCOORD_0":237
					},
					"indices":238,
					"material":10
				},
				{
					"attributes":{
						"POSITION":239,
						"NORMAL":240,
						"TEXCOORD_0":241
					},
					"indices":141,
					"material":3
				},
				{
					"attributes":{
						"POSITION":242,
						"NORMAL":243,
						"TEXCOORD_0":244
					},
					"indices":145,
					"material":6
				},
				{
					"attributes":{
						"POSITION":245,
						"NORMAL":246,
						"TEXCOORD_0":247
					},
					"indices":149,
					"material":12
				}
			]
		},
		{
			"name":"Roof5_LOD0.004",
			"primitives":[
				{
					"attributes":{
						"POSITION":248,
						"NORMAL":249,
						"TEXCOORD_0":250
					},
					"indices":251,
					"material":6
				},
				{
					"attributes":{
						"POSITION":252,
						"NORMAL":253,
						"TEXCOORD_0":254
					},
					"indices":255,
					"material":3
				},
				{
					"attributes":{
						"POSITION":256,
						"NORMAL":257,
						"TEXCOORD_0":258
					},
					"indices":259,
					"material":9
				},
				{
					"attributes":{
						"POSITION":260,
						"NORMAL":261,
						"TEXCOORD_0":262
					},
					"indices":263,
					"material":4
				},
				{
					"attributes":{
						"POSITION":264,
						"NORMAL":265,
						"TEXCOORD_0":266
					},
					"indices":267,
					"material":5
				},
				{
					"attributes":{
						"POSITION":268,
						"NORMAL":269,
						"TEXCOORD_0":270
					},
					"indices":271,
					"material":8
				},
				{
					"attributes":{
						"POSITION":272,
						"NORMAL":273,
						"TEXCOORD_0":274
					},
					"indices":275,
					"material":7
				}
			]
		},
		{
			"name":"Wall5_LOD0.004",
			"primitives":[
				{
					"attributes":{
						"POSITION":276,
						"NORMAL":277,
						"TEXCOORD_0":278
					},
					"indices":129,
					"material":4
				},
				{
					"attributes":{
						"POSITION":279,
						"NORMAL":280,
						"TEXCOORD_0":281
					},
					"indices":133,
					"material":11
				},
				{
					"attributes":{
						"POSITION":282,
						"NORMAL":283,
						"TEXCOORD_0":284
					},
					"indices":285,
					"material":10
				},
				{
					"attributes":{
						"POSITION":286,
						"NORMAL":287,
						"TEXCOORD_0":288
					},
					"indices":289,
					"material":3
				},
				{
					"attributes":{
						"POSITION":290,
						"NORMAL":291,
						"TEXCOORD_0":292
					},
					"indices":145,
					"material":6
				},
				{
					"attributes":{
						"POSITION":293,
						"NORMAL":294,
						"TEXCOORD_0":295
					},
					"indices":149,
					"material":12
				}
			]
		},
		{
			"name":"Sorin_LOD0.010",
			"primitives":[
				{
					"attributes":{
						"POSITION":296,
						"NORMAL":297,
						"TEXCOORD_0":298
					},
					"indices":299,
					"material":11
				},
				{
					"attributes":{
						"POSITION":300,
						"NORMAL":301,
						"TEXCOORD_0":302
					},
					"indices":303,
					"material":7
				}
			]
		}
	],
	"textures":[
		{
			"sampler":0,
			"source":0
		},
		{
			"sampler":0,
			"source":1
		},
		{
			"sampler":0,
			"source":2
		},
		{
			"sampler":0,
			"source":3
		},
		{
			"sampler":0,
			"source":4
		},
		{
			"sampler":0,
			"source":5
		},
		{
			"sampler":0,
			"source":6
		},
		{
			"sampler":0,
			"source":7
		},
		{
			"sampler":0,
			"source":8
		},
		{
			"sampler":0,
			"source":9
		},
		{
			"sampler":0,
			"source":10
		},
		{
			"sampler":0,
			"source":11
		},
		{
			"sampler":0,
			"source":4
		}
	],
	"images":[
		{
			"mimeType":"image/png",
			"name":"tex_basalt_base_01a",
			"uri":"tex_basalt_base_01a.png"
		},
		{
			"mimeType":"image/png",
			"name":"tex_stone_wall_01a",
			"uri":"tex_stone_wall_01a.png"
		},
		{
			"mimeType":"image/png",
			"name":"tex_wood_wall_01a",
			"uri":"tex_wood_wall_01a.png"
		},
		{
			"mimeType":"image/png",
			"name":"tex_wood_pillarColor_01a",
			"uri":"tex_wood_pillarColor_01a.png"
		},
		{
			"mimeType":"image/png",
			"name":"tex_wood_paint_03a",
			"uri":"tex_wood_paint_03a.png"
		},
		{
			"mimeType":"image/png",
			"name":"tex_clay_tile_02a",
			"uri":"tex_clay_tile_02a.png"
		},
		{
			"mimeType":"image/png",
			"name":"tex_wood_plank_03a",
			"uri":"tex_wood_plank_03a.png"
		},
		{
			"mimeType":"image/png",
			"name":"tex_clay_fired_01a",
			"uri":"tex_clay_fired_01a.png"
		},
		{
			"mimeType":"image/png",
			"name":"tex_clay_tile_01a",
			"uri":"tex_clay_tile_01a.png"
		},
		{
			"mimeType":"image/png",
			"name":"tex_wood_beamColor_01a",
			"uri":"tex_wood_beamColor_01a.png"
		},
		{
			"mimeType":"image/png",
			"name":"tex_metal_copper_antique_01a",
			"uri":"tex_metal_copper_antique_01a.png"
		},
		{
			"mimeType":"image/png",
			"name":"tex_metal_copper_patina_01a",
			"uri":"tex_metal_copper_patina_01a.png"
		}
	],
	"accessors":[
		{
			"bufferView":0,
			"componentType":5126,
			"count":19,
			"max":[
				6.440014839172363,
				1.0907845497131348,
				6.4248480796813965
			],
			"min":[
				-7.484714984893799,
				-0.034295856952667236,
				-6.370045185089111
			],
			"type":"VEC3"
		},
		{
			"bufferView":1,
			"componentType":5126,
			"count":19,
			"type":"VEC3"
		},
		{
			"bufferView":2,
			"componentType":5126,
			"count":19,
			"type":"VEC2"
		},
		{
			"bufferView":3,
			"componentType":5123,
			"count":27,
			"type":"SCALAR"
		},
		{
			"bufferView":4,
			"componentType":5126,
			"count":20,
			"max":[
				6.439655303955078,
				0.800207257270813,
				6.420769691467285
			],
			"min":[
				-6.353290557861328,
				-0.0350414514541626,
				-6.372177600860596
			],
			"type":"VEC3"
		},
		{
			"bufferView":5,
			"componentType":5126,
			"count":20,
			"type":"VEC3"
		},
		{
			"bufferView":6,
			"componentType":5126,
			"count":20,
			"type":"VEC2"
		},
		{
			"bufferView":7,
			"componentType":5123,
			"count":30,
			"type":"SCALAR"
		},
		{
			"bufferView":8,
			"componentType":5126,
			"count":24,
			"max":[
				3.181605577468872,
				3.221540689468384,
				0.6206713914871216
			],
			"min":[
				3.1212024688720703,
				1.361772894859314,
				-0.006780862808227539
			],
			"type":"VEC3"
		},
		{
			"bufferView":9,
			"componentType":5126,
			"count":24,
			"type":"VEC3"
		},
		{
			"bufferView":10,
			"componentType":5126,
			"count":24,
			"type":"VEC2"
		},
		{
			"bufferView":11,
			"componentType":5123,
			"count":36,
			"type":"SCALAR"
		},
		{
			"bufferView":12,
			"componentType":5126,
			"count":48,
			"max":[
				3.198918342590332,
				3.221540689468384,
				0.024767935276031494
			],
			"min":[
				3.1223034858703613,
				1.361772894859314,
				-0.637437105178833
			],
			"type":"VEC3"
		},
		{
			"bufferView":13,
			"componentType":5126,
			"count":48,
			"type":"VEC3"
		},
		{
			"bufferView":14,
			"componentType":5126,
			"count":48,
			"type":"VEC2"
		},
		{
			"bufferView":15,
			"componentType":5123,
			"count":72,
			"type":"SCALAR"
		},
		{
			"bufferView":16,
			"componentType":5126,
			"count":24,
			"max":[
				0.66176438331604,
				3.221540689468384,
				-3.098254442214966
			],
			"min":[
				0.03431224822998047,
				1.361772894859314,
				-3.1586575508117676
			],
			"type":"VEC3"
		},
		{
			"bufferView":17,
			"componentType":5126,
			"count":24,
			"type":"VEC3"
		},
		{
			"bufferView":18,
			"componentType":5126,
			"count":24,
			"type":"VEC2"
		},
		{
			"bufferView":19,
			"componentType":5126,
			"count":48,
			"max":[
				0.06585854291915894,
				3.221540689468384,
				-3.0993552207946777
			],
			"min":[
				-0.5963464379310608,
				1.361772894859314,
				-3.1759698390960693
			],
			"type":"VEC3"
		},
		{
			"bufferView":20,
			"componentType":5126,
			"count":48,
			"type":"VEC3"
		},
		{
			"bufferView":21,
			"componentType":5126,
			"count":48,
			"type":"VEC2"
		},
		{
			"bufferView":22,
			"componentType":5126,
			"count":24,
			"max":[
				0.023182988166809082,
				3.2153053283691406,
				3.132537841796875
			],
			"min":[
				-0.60426926612854,
				1.3555374145507812,
				3.0721349716186523
			],
			"type":"VEC3"
		},
		{
			"bufferView":23,
			"componentType":5126,
			"count":24,
			"type":"VEC3"
		},
		{
			"bufferView":24,
			"componentType":5126,
			"count":24,
			"type":"VEC2"
		},
		{
			"bufferView":25,
			"componentType":5126,
			"count":48,
			"max":[
				0.6538415551185608,
				3.2153053283691406,
				3.149850368499756
			],
			"min":[
				-0.008363544940948486,
				1.3555374145507812,
				3.0732357501983643
			],
			"type":"VEC3"
		},
		{
			"bufferView":26,
			"componentType":5126,
			"count":48,
			"type":"VEC3"
		},
		{
			"bufferView":27,
			"componentType":5126,
			"count":48,
			"type":"VEC2"
		},
		{
			"bufferView":28,
			"componentType":5126,
			"count":24,
			"max":[
				-3.0621204376220703,
				3.221540689468384,
				-0.018087267875671387
			],
			"min":[
				-3.122523546218872,
				1.361772894859314,
				-0.6455394625663757
			],
			"type":"VEC3"
		},
		{
			"bufferView":29,
			"componentType":5126,
			"count":24,
			"type":"VEC3"
		},
		{
			"bufferView":30,
			"componentType":5126,
			"count":24,
			"type":"VEC2"
		},
		{
			"bufferView":31,
			"componentType":5126,
			"count":48,
			"max":[
				-3.0631103515625,
				3.2228541374206543,
				0.6283424496650696
			],
			"min":[
				-3.1416404247283936,
				1.3165924549102783,
				-0.05041772127151489
			],
			"type":"VEC3"
		},
		{
			"bufferView":32,
			"componentType":5126,
			"count":48,
			"type":"VEC3"
		},
		{
			"bufferView":33,
			"componentType":5126,
			"count":48,
			"type":"VEC2"
		},
		{
			"bufferView":34,
			"componentType":5126,
			"count":1424,
			"max":[
				6.703530311584473,
				7.451221466064453,
				6.671248912811279
			],
			"min":[
				-6.656055927276611,
				5.128432273864746,
				-6.714815616607666
			],
			"type":"VEC3"
		},
		{
			"bufferView":35,
			"componentType":5126,
			"count":1424,
			"type":"VEC3"
		},
		{
			"bufferView":36,
			"componentType":5126,
			"count":1424,
			"type":"VEC2"
		},
		{
			"bufferView":37,
			"componentType":5123,
			"count":2064,
			"type":"SCALAR"
		},
		{
			"bufferView":38,
			"componentType":5126,
			"count":64,
			"max":[
				6.7035298347473145,
				6.164805889129639,
				6.671248435974121
			],
			"min":[
				-6.656055927276611,
				5.128432273864746,
				-6.714815139770508
			],
			"type":"VEC3"
		},
		{
			"bufferView":39,
			"componentType":5126,
			"count":64,
			"type":"VEC3"
		},
		{
			"bufferView":40,
			"componentType":5126,
			"count":64,
			"type":"VEC2"
		},
		{
			"bufferView":41,
			"componentType":5123,
			"count":78,
			"type":"SCALAR"
		},
		{
			"bufferView":42,
			"componentType":5126,
			"count":62,
			"max":[
				6.832783222198486,
				6.855428218841553,
				6.8007588386535645
			],
			"min":[
				-6.785309314727783,
				5.558651924133301,
				-6.844325542449951
			],
			"type":"VEC3"
		},
		{
			"bufferView":43,
			"componentType":5126,
			"count":62,
			"type":"VEC3"
		},
		{
			"bufferView":44,
			"componentType":5126,
			"count":62,
			"type":"VEC2"
		},
		{
			"bufferView":45,
			"componentType":5123,
			"count":72,
			"type":"SCALAR"
		},
		{
			"bufferView":46,
			"componentType":5126,
			"count":96,
			"max":[
				6.832783222198486,
				7.190004825592041,
				6.8007588386535645
			],
			"min":[
				-6.785309314727783,
				5.400243282318115,
				-6.844325542449951
			],
			"type":"VEC3"
		},
		{
			"bufferView":47,
			"componentType":5126,
			"count":96,
			"type":"VEC3"
		},
		{
			"bufferView":48,
			"componentType":5126,
			"count":96,
			"type":"VEC2"
		},
		{
			"bufferView":49,
			"componentType":5123,
			"count":138,
			"type":"SCALAR"
		},
		{
			"bufferView":50,
			"componentType":5126,
			"count":1299,
			"max":[
				6.946863651275635,
				6.753388404846191,
				6.9088053703308105
			],
			"min":[
				-6.900823593139648,
				5.456430912017822,
				-6.9462571144104
			],
			"type":"VEC3"
		},
		{
			"bufferView":51,
			"componentType":5126,
			"count":1299,
			"type":"VEC3"
		},
		{
			"bufferView":52,
			"componentType":5126,
			"count":1299,
			"type":"VEC2"
		},
		{
			"bufferView":53,
			"componentType":5123,
			"count":1371,
			"type":"SCALAR"
		},
		{
			"bufferView":54,
			"componentType":5126,
			"count":1430,
			"max":[
				6.958734035491943,
				6.484363555908203,
				6.9132795333862305
			],
			"min":[
				-6.897714138031006,
				5.455781936645508,
				-6.94029426574707
			],
			"type":"VEC3"
		},
		{
			"bufferView":55,
			"componentType":5126,
			"count":1430,
			"type":"VEC3"
		},
		{
			"bufferView":56,
			"componentType":5126,
			"count":1430,
			"type":"VEC2"
		},
		{
			"bufferView":57,
			"componentType":5123,
			"count":1599,
			"type":"SCALAR"
		},
		{
			"bufferView":58,
			"componentType":5126,
			"count":357,
			"max":[
				6.910956382751465,
				6.858216285705566,
				6.859389781951904
			],
			"min":[
				-6.863116264343262,
				5.53973388671875,
				-6.90855073928833
			],
			"type":"VEC3"
		},
		{
			"bufferView":59,
			"componentType":5126,
			"count":357,
			"type":"VEC3"
		},
		{
			"bufferView":60,
			"componentType":5126,
			"count":357,
			"type":"VEC2"
		},
		{
			"bufferView":61,
			"componentType":5123,
			"count":525,
			"type":"SCALAR"
		},
		{
			"bufferView":62,
			"componentType":5126,
			"count":859,
			"max":[
				4.460742950439453,
				7.7381744384765625,
				4.420597553253174
			],
			"min":[
				-4.401997089385986,
				6.8524394035339355,
				-4.441692352294922
			],
			"type":"VEC3"
		},
		{
			"bufferView":63,
			"componentType":5126,
			"count":859,
			"type":"VEC3"
		},
		{
			"bufferView":64,
			"componentType":5126,
			"count":859,
			"type":"VEC2"
		},
		{
			"bufferView":65,
			"componentType":5123,
			"count":1275,
			"type":"SCALAR"
		},
		{
			"bufferView":66,
			"componentType":5126,
			"count":748,
			"max":[
				4.309483528137207,
				5.212504863739014,
				4.2674031257629395
			],
			"min":[
				-4.251330852508545,
				1.06997549533844,
				-4.292448997497559
			],
			"type":"VEC3"
		},
		{
			"bufferView":67,
			"componentType":5126,
			"count":748,
			"type":"VEC3"
		},
		{
			"bufferView":68,
			"componentType":5126,
			"count":748,
			"type":"VEC2"
		},
		{
			"bufferView":69,
			"componentType":5123,
			"count":888,
			"type":"SCALAR"
		},
		{
			"bufferView":70,
			"componentType":5126,
			"count":50,
			"max":[
				6.462189674377441,
				5.160189151763916,
				6.421186923980713
			],
			"min":[
				-6.404289245605469,
				4.588633060455322,
				-6.437887668609619
			],
			"type":"VEC3"
		},
		{
			"bufferView":71,
			"componentType":5126,
			"count":50,
			"type":"VEC3"
		},
		{
			"bufferView":72,
			"componentType":5126,
			"count":50,
			"type":"VEC2"
		},
		{
			"bufferView":73,
			"componentType":5123,
			"count":72,
			"type":"SCALAR"
		},
		{
			"bufferView":74,
			"componentType":5126,
			"count":96,
			"max":[
				3.1463539600372314,
				6.172302722930908,
				3.1042728424072266
			],
			"min":[
				-3.088200092315674,
				1.3364192247390747,
				-3.1293201446533203
			],
			"type":"VEC3"
		},
		{
			"bufferView":75,
			"componentType":5126,
			"count":96,
			"type":"VEC3"
		},
		{
			"bufferView":76,
			"componentType":5126,
			"count":96,
			"type":"VEC2"
		},
		{
			"bufferView":77,
			"componentType":5123,
			"count":144,
			"type":"SCALAR"
		},
		{
			"bufferView":78,
			"componentType":5126,
			"count":944,
			"max":[
				6.861303329467773,
				5.982798099517822,
				6.820300102233887
			],
			"min":[
				-6.803400993347168,
				1.3612122535705566,
				-6.844597339630127
			],
			"type":"VEC3"
		},
		{
			"bufferView":79,
			"componentType":5126,
			"count":944,
			"type":"VEC3"
		},
		{
			"bufferView":80,
			"componentType":5126,
			"count":944,
			"type":"VEC2"
		},
		{
			"bufferView":81,
			"componentType":5123,
			"count":1386,
			"type":"SCALAR"
		},
		{
			"bufferView":82,
			"componentType":5126,
			"count":176,
			"max":[
				5.504965782165527,
				5.866627216339111,
				5.463962554931641
			],
			"min":[
				-5.447064399719238,
				5.3260650634765625,
				-5.488259792327881
			],
			"type":"VEC3"
		},
		{
			"bufferView":83,
			"componentType":5126,
			"count":176,
			"type":"VEC3"
		},
		{
			"bufferView":84,
			"componentType":5126,
			"count":176,
			"type":"VEC2"
		},
		{
			"bufferView":85,
			"componentType":5123,
			"count":240,
			"type":"SCALAR"
		},
		{
			"bufferView":86,
			"componentType":5126,
			"count":32,
			"max":[
				3.3866584300994873,
				4.0031023025512695,
				3.346496343612671
			],
			"min":[
				-3.330089807510376,
				3.8098630905151367,
				-3.3701162338256836
			],
			"type":"VEC3"
		},
		{
			"bufferView":87,
			"componentType":5126,
			"count":32,
			"type":"VEC3"
		},
		{
			"bufferView":88,
			"componentType":5126,
			"count":32,
			"type":"VEC2"
		},
		{
			"bufferView":89,
			"componentType":5123,
			"count":48,
			"type":"SCALAR"
		},
		{
			"bufferView":90,
			"componentType":5126,
			"count":10,
			"max":[
				6.304448127746582,
				5.216386318206787,
				6.279378890991211
			],
			"min":[
				-6.263306617736816,
				5.14760684967041,
				-6.295661449432373
			],
			"type":"VEC3"
		},
		{
			"bufferView":91,
			"componentType":5126,
			"count":10,
			"type":"VEC3"
		},
		{
			"bufferView":92,
			"componentType":5126,
			"count":10,
			"type":"VEC2"
		},
		{
			"bufferView":93,
			"componentType":5123,
			"count":12,
			"type":"SCALAR"
		},
		{
			"bufferView":94,
			"componentType":5126,
			"count":64,
			"max":[
				3.1585452556610107,
				3.428401470184326,
				3.114241600036621
			],
			"min":[
				-3.1108598709106445,
				2.371337890625,
				-3.1558384895324707
			],
			"type":"VEC3"
		},
		{
			"bufferView":95,
			"componentType":5126,
			"count":64,
			"type":"VEC3"
		},
		{
			"bufferView":96,
			"componentType":5126,
			"count":64,
			"type":"VEC2"
		},
		{
			"bufferView":97,
			"componentType":5123,
			"count":96,
			"type":"SCALAR"
		},
		{
			"bufferView":98,
			"componentType":5126,
			"count":1442,
			"max":[
				6.381736755371094,
				11.921854972839355,
				6.348857879638672
			],
			"min":[
				-6.334111213684082,
				9.710989952087402,
				-6.392192840576172
			],
			"type":"VEC3"
		},
		{
			"bufferView":99,
			"componentType":5126,
			"count":1442,
			"type":"VEC3"
		},
		{
			"bufferView":100,
			"componentType":5126,
			"count":1442,
			"type":"VEC2"
		},
		{
			"bufferView":101,
			"componentType":5123,
			"count":2064,
			"type":"SCALAR"
		},
		{
			"bufferView":102,
			"componentType":5126,
			"count":64,
			"max":[
				6.3817362785339355,
				10.697425842285156,
				6.348857402801514
			],
			"min":[
				-6.334111213684082,
				9.710989952087402,
				-6.392192363739014
			],
			"type":"VEC3"
		},
		{
			"bufferView":103,
			"componentType":5126,
			"count":64,
			"type":"VEC3"
		},
		{
			"bufferView":104,
			"componentType":5126,
			"count":64,
			"type":"VEC2"
		},
		{
			"bufferView":105,
			"componentType":5126,
			"count":62,
			"max":[
				6.504761695861816,
				11.354769706726074,
				6.472127437591553
			],
			"min":[
				-6.457136154174805,
				10.120478630065918,
				-6.515462398529053
			],
			"type":"VEC3"
		},
		{
			"bufferView":106,
			"componentType":5126,
			"count":62,
			"type":"VEC3"
		},
		{
			"bufferView":107,
			"componentType":5126,
			"count":62,
			"type":"VEC2"
		},
		{
			"bufferView":108,
			"componentType":5126,
			"count":96,
			"max":[
				6.504761695861816,
				11.673225402832031,
				6.472127437591553
			],
			"min":[
				-6.457136154174805,
				9.969703674316406,
				-6.515462398529053
			],
			"type":"VEC3"
		},
		{
			"bufferView":109,
			"componentType":5126,
			"count":96,
			"type":"VEC3"
		},
		{
			"bufferView":110,
			"componentType":5126,
			"count":96,
			"type":"VEC2"
		},
		{
			"bufferView":111,
			"componentType":5126,
			"count":1300,
			"max":[
				6.613345146179199,
				11.257647514343262,
				6.574967861175537
			],
			"min":[
				-6.567084789276123,
				10.023183822631836,
				-6.61248254776001
			],
			"type":"VEC3"
		},
		{
			"bufferView":112,
			"componentType":5126,
			"count":1300,
			"type":"VEC3"
		},
		{
			"bufferView":113,
			"componentType":5126,
			"count":1300,
			"type":"VEC2"
		},
		{
			"bufferView":114,
			"componentType":5123,
			"count":1365,
			"type":"SCALAR"
		},
		{
			"bufferView":115,
			"componentType":5126,
			"count":1436,
			"max":[
				6.624643325805664,
				11.001585006713867,
				6.579226016998291
			],
			"min":[
				-6.564125061035156,
				10.022565841674805,
				-6.609529972076416
			],
			"type":"VEC3"
		},
		{
			"bufferView":116,
			"componentType":5126,
			"count":1436,
			"type":"VEC3"
		},
		{
			"bufferView":117,
			"componentType":5126,
			"count":1436,
			"type":"VEC2"
		},
		{
			"bufferView":118,
			"componentType":5123,
			"count":1599,
			"type":"SCALAR"
		},
		{
			"bufferView":119,
			"componentType":5126,
			"count":363,
			"max":[
				6.57916784286499,
				11.357423782348633,
				6.527933597564697
			],
			"min":[
				-6.53119421005249,
				10.102472305297852,
				-6.576592922210693
			],
			"type":"VEC3"
		},
		{
			"bufferView":120,
			"componentType":5126,
			"count":363,
			"type":"VEC3"
		},
		{
			"bufferView":121,
			"componentType":5126,
			"count":363,
			"type":"VEC2"
		},
		{
			"bufferView":122,
			"componentType":5123,
			"count":531,
			"type":"SCALAR"
		},
		{
			"bufferView":123,
			"componentType":5126,
			"count":859,
			"max":[
				4.247019290924072,
				12.19498062133789,
				4.206655502319336
			],
			"min":[
				-4.188665390014648,
				11.351924896240234,
				-4.228600978851318
			],
			"type":"VEC3"
		},
		{
			"bufferView":124,
			"componentType":5126,
			"count":859,
			"type":"VEC3"
		},
		{
			"bufferView":125,
			"componentType":5126,
			"count":859,
			"type":"VEC2"
		},
		{
			"bufferView":126,
			"componentType":5126,
			"count":128,
			"max":[
				2.993067502975464,
				10.70883560180664,
				2.9487743377685547
			],
			"min":[
				-2.9452757835388184,
				6.10884952545166,
				-2.989964246749878
			],
			"type":"VEC3"
		},
		{
			"bufferView":127,
			"componentType":5126,
			"count":128,
			"type":"VEC3"
		},
		{
			"bufferView":128,
			"componentType":5126,
			"count":128,
			"type":"VEC2"
		},
		{
			"bufferView":129,
			"componentType":5123,
			"count":192,
			"type":"SCALAR"
		},
		{
			"bufferView":130,
			"componentType":5126,
			"count":101,
			"max":[
				6.134961128234863,
				9.744751930236816,
				6.090884208679199
			],
			"min":[
				-6.086503028869629,
				9.189231872558594,
				-6.13191032409668
			],
			"type":"VEC3"
		},
		{
			"bufferView":131,
			"componentType":5126,
			"count":101,
			"type":"VEC3"
		},
		{
			"bufferView":132,
			"componentType":5126,
			"count":101,
			"type":"VEC2"
		},
		{
			"bufferView":133,
			"componentType":5123,
			"count":135,
			"type":"SCALAR"
		},
		{
			"bufferView":134,
			"componentType":5126,
			"count":1376,
			"max":[
				4.4812517166137695,
				9.925369262695312,
				4.437268257141113
			],
			"min":[
				-4.43281364440918,
				7.185358047485352,
				-4.477683067321777
			],
			"type":"VEC3"
		},
		{
			"bufferView":135,
			"componentType":5126,
			"count":1376,
			"type":"VEC3"
		},
		{
			"bufferView":136,
			"componentType":5126,
			"count":1376,
			"type":"VEC2"
		},
		{
			"bufferView":137,
			"componentType":5123,
			"count":1890,
			"type":"SCALAR"
		},
		{
			"bufferView":138,
			"componentType":5126,
			"count":187,
			"max":[
				6.532855033874512,
				10.528573036193848,
				6.4888715744018555
			],
			"min":[
				-6.484418869018555,
				6.201472759246826,
				-6.529287338256836
			],
			"type":"VEC3"
		},
		{
			"bufferView":139,
			"componentType":5126,
			"count":187,
			"type":"VEC3"
		},
		{
			"bufferView":140,
			"componentType":5126,
			"count":187,
			"type":"VEC2"
		},
		{
			"bufferView":141,
			"componentType":5123,
			"count":249,
			"type":"SCALAR"
		},
		{
			"bufferView":142,
			"componentType":5126,
			"count":176,
			"max":[
				5.221583366394043,
				10.418067932128906,
				5.1775054931640625
			],
			"min":[
				-5.173125267028809,
				9.903884887695312,
				-5.218533515930176
			],
			"type":"VEC3"
		},
		{
			"bufferView":143,
			"componentType":5126,
			"count":176,
			"type":"VEC3"
		},
		{
			"bufferView":144,
			"componentType":5126,
			"count":176,
			"type":"VEC2"
		},
		{
			"bufferView":145,
			"componentType":5123,
			"count":240,
			"type":"SCALAR"
		},
		{
			"bufferView":146,
			"componentType":5126,
			"count":7,
			"max":[
				-5.9320268630981445,
				9.836840629577637,
				-5.967168807983398
			],
			"min":[
				-5.997219085693359,
				9.768987655639648,
				-6.013401031494141
			],
			"type":"VEC3"
		},
		{
			"bufferView":147,
			"componentType":5126,
			"count":7,
			"type":"VEC3"
		},
		{
			"bufferView":148,
			"componentType":5126,
			"count":7,
			"type":"VEC2"
		},
		{
			"bufferView":149,
			"componentType":5123,
			"count":9,
			"type":"SCALAR"
		},
		{
			"bufferView":150,
			"componentType":5126,
			"count":1426,
			"max":[
				6.067842960357666,
				16.34372329711914,
				6.034355640411377
			],
			"min":[
				-6.020159721374512,
				14.242021560668945,
				-6.077605724334717
			],
			"type":"VEC3"
		},
		{
			"bufferView":151,
			"componentType":5126,
			"count":1426,
			"type":"VEC3"
		},
		{
			"bufferView":152,
			"componentType":5126,
			"count":1426,
			"type":"VEC2"
		},
		{
			"bufferView":153,
			"componentType":5123,
			"count":2064,
			"type":"SCALAR"
		},
		{
			"bufferView":154,
			"componentType":5126,
			"count":64,
			"max":[
				6.067842483520508,
				15.1797513961792,
				6.034355163574219
			],
			"min":[
				-6.020159721374512,
				14.242021560668945,
				-6.077605247497559
			],
			"type":"VEC3"
		},
		{
			"bufferView":155,
			"componentType":5126,
			"count":64,
			"type":"VEC3"
		},
		{
			"bufferView":156,
			"componentType":5126,
			"count":64,
			"type":"VEC2"
		},
		{
			"bufferView":157,
			"componentType":5123,
			"count":78,
			"type":"SCALAR"
		},
		{
			"bufferView":158,
			"componentType":5126,
			"count":62,
			"max":[
				6.184793472290039,
				15.804638862609863,
				6.151538848876953
			],
			"min":[
				-6.137110710144043,
				14.631291389465332,
				-6.194788932800293
			],
			"type":"VEC3"
		},
		{
			"bufferView":159,
			"componentType":5126,
			"count":62,
			"type":"VEC3"
		},
		{
			"bufferView":160,
			"componentType":5126,
			"count":62,
			"type":"VEC2"
		},
		{
			"bufferView":161,
			"componentType":5126,
			"count":98,
			"max":[
				6.184793472290039,
				16.107370376586914,
				6.151538848876953
			],
			"min":[
				-6.137110710144043,
				14.487960815429688,
				-6.194788932800293
			],
			"type":"VEC3"
		},
		{
			"bufferView":162,
			"componentType":5126,
			"count":98,
			"type":"VEC3"
		},
		{
			"bufferView":163,
			"componentType":5126,
			"count":98,
			"type":"VEC2"
		},
		{
			"bufferView":164,
			"componentType":5123,
			"count":138,
			"type":"SCALAR"
		},
		{
			"bufferView":165,
			"componentType":5126,
			"count":1306,
			"max":[
				6.288015365600586,
				15.712311744689941,
				6.249301433563232
			],
			"min":[
				-6.2416300773620605,
				14.538800239562988,
				-6.287018299102783
			],
			"type":"VEC3"
		},
		{
			"bufferView":166,
			"componentType":5126,
			"count":1306,
			"type":"VEC3"
		},
		{
			"bufferView":167,
			"componentType":5126,
			"count":1306,
			"type":"VEC2"
		},
		{
			"bufferView":168,
			"componentType":5123,
			"count":1365,
			"type":"SCALAR"
		},
		{
			"bufferView":169,
			"componentType":5126,
			"count":1457,
			"max":[
				6.298756122589111,
				15.468893051147461,
				6.253349304199219
			],
			"min":[
				-6.238816738128662,
				14.538212776184082,
				-6.2842116355896
			],
			"type":"VEC3"
		},
		{
			"bufferView":170,
			"componentType":5126,
			"count":1457,
			"type":"VEC3"
		},
		{
			"bufferView":171,
			"componentType":5126,
			"count":1457,
			"type":"VEC2"
		},
		{
			"bufferView":172,
			"componentType":5123,
			"count":1614,
			"type":"SCALAR"
		},
		{
			"bufferView":173,
			"componentType":5126,
			"count":348,
			"max":[
				6.255526065826416,
				15.807161331176758,
				6.204589366912842
			],
			"min":[
				-6.207511901855469,
				14.614173889160156,
				-6.252901077270508
			],
			"type":"VEC3"
		},
		{
			"bufferView":174,
			"componentType":5126,
			"count":348,
			"type":"VEC3"
		},
		{
			"bufferView":175,
			"componentType":5126,
			"count":348,
			"type":"VEC2"
		},
		{
			"bufferView":176,
			"componentType":5123,
			"count":516,
			"type":"SCALAR"
		},
		{
			"bufferView":177,
			"componentType":5126,
			"count":859,
			"max":[
				4.038527011871338,
				16.603364944458008,
				3.997924327850342
			],
			"min":[
				-3.980645179748535,
				15.801935195922852,
				-4.020841598510742
			],
			"type":"VEC3"
		},
		{
			"bufferView":178,
			"componentType":5126,
			"count":859,
			"type":"VEC3"
		},
		{
			"bufferView":179,
			"componentType":5126,
			"count":859,
			"type":"VEC2"
		},
		{
			"bufferView":180,
			"componentType":5126,
			"count":128,
			"max":[
				2.846470594406128,
				15.190598487854004,
				2.8021509647369385
			],
			"min":[
				-2.7986667156219482,
				10.817737579345703,
				-2.8433620929718018
			],
			"type":"VEC3"
		},
		{
			"bufferView":181,
			"componentType":5126,
			"count":128,
			"type":"VEC3"
		},
		{
			"bufferView":182,
			"componentType":5126,
			"count":128,
			"type":"VEC2"
		},
		{
			"bufferView":183,
			"componentType":5126,
			"count":101,
			"max":[
				5.833232879638672,
				14.274116516113281,
				5.789118766784668
			],
			"min":[
				-5.784795761108398,
				13.746026039123535,
				-5.830174446105957
			],
			"type":"VEC3"
		},
		{
			"bufferView":184,
			"componentType":5126,
			"count":101,
			"type":"VEC3"
		},
		{
			"bufferView":185,
			"componentType":5126,
			"count":101,
			"type":"VEC2"
		},
		{
			"bufferView":186,
			"componentType":5126,
			"count":1369,
			"max":[
				4.261175155639648,
				14.445816040039062,
				4.2171502113342285
			],
			"min":[
				-4.212757110595703,
				11.841093063354492,
				-4.257624626159668
			],
			"type":"VEC3"
		},
		{
			"bufferView":187,
			"componentType":5126,
			"count":1369,
			"type":"VEC3"
		},
		{
			"bufferView":188,
			"componentType":5126,
			"count":1369,
			"type":"VEC2"
		},
		{
			"bufferView":189,
			"componentType":5123,
			"count":1887,
			"type":"SCALAR"
		},
		{
			"bufferView":190,
			"componentType":5126,
			"count":188,
			"max":[
				6.211481094360352,
				15.019237518310547,
				6.167455673217773
			],
			"min":[
				-6.163064002990723,
				10.905787467956543,
				-6.207930564880371
			],
			"type":"VEC3"
		},
		{
			"bufferView":191,
			"componentType":5126,
			"count":188,
			"type":"VEC3"
		},
		{
			"bufferView":192,
			"componentType":5126,
			"count":188,
			"type":"VEC2"
		},
		{
			"bufferView":193,
			"componentType":5123,
			"count":252,
			"type":"SCALAR"
		},
		{
			"bufferView":194,
			"componentType":5126,
			"count":176,
			"max":[
				4.964953422546387,
				14.914188385009766,
				4.920838356018066
			],
			"min":[
				-4.916516304016113,
				14.425392150878906,
				-4.961894989013672
			],
			"type":"VEC3"
		},
		{
			"bufferView":195,
			"componentType":5126,
			"count":176,
			"type":"VEC3"
		},
		{
			"bufferView":196,
			"componentType":5126,
			"count":176,
			"type":"VEC2"
		},
		{
			"bufferView":197,
			"componentType":5126,
			"count":7,
			"max":[
				-5.637947082519531,
				14.361658096313477,
				-5.673565864562988
			],
			"min":[
				-5.699920177459717,
				14.29715633392334,
				-5.717514991760254
			],
			"type":"VEC3"
		},
		{
			"bufferView":198,
			"componentType":5126,
			"count":7,
			"type":"VEC3"
		},
		{
			"bufferView":199,
			"componentType":5126,
			"count":7,
			"type":"VEC2"
		},
		{
			"bufferView":200,
			"componentType":5126,
			"count":1424,
			"max":[
				5.7694315910339355,
				20.64810562133789,
				5.735381603240967
			],
			"min":[
				-5.7217254638671875,
				18.65017318725586,
				-5.7785515785217285
			],
			"type":"VEC3"
		},
		{
			"bufferView":201,
			"componentType":5126,
			"count":1424,
			"type":"VEC3"
		},
		{
			"bufferView":202,
			"componentType":5126,
			"count":1424,
			"type":"VEC2"
		},
		{
			"bufferView":203,
			"componentType":5123,
			"count":2064,
			"type":"SCALAR"
		},
		{
			"bufferView":204,
			"componentType":5126,
			"count":64,
			"max":[
				5.769431114196777,
				19.54160499572754,
				5.735381603240967
			],
			"min":[
				-5.7217254638671875,
				18.65017318725586,
				-5.77855110168457
			],
			"type":"VEC3"
		},
		{
			"bufferView":205,
			"componentType":5126,
			"count":64,
			"type":"VEC3"
		},
		{
			"bufferView":206,
			"componentType":5126,
			"count":64,
			"type":"VEC2"
		},
		{
			"bufferView":207,
			"componentType":5126,
			"count":62,
			"max":[
				5.880607604980469,
				20.135639190673828,
				5.846778869628906
			],
			"min":[
				-5.832901954650879,
				19.02022361755371,
				-5.889948844909668
			],
			"type":"VEC3"
		},
		{
			"bufferView":208,
			"componentType":5126,
			"count":62,
			"type":"VEC3"
		},
		{
			"bufferView":209,
			"componentType":5126,
			"count":62,
			"type":"VEC2"
		},
		{
			"bufferView":210,
			"componentType":5126,
			"count":96,
			"max":[
				5.880607604980469,
				20.42342185974121,
				5.846778869628906
			],
			"min":[
				-5.832901954650879,
				18.883970260620117,
				-5.889948844909668
			],
			"type":"VEC3"
		},
		{
			"bufferView":211,
			"componentType":5126,
			"count":96,
			"type":"VEC3"
		},
		{
			"bufferView":212,
			"componentType":5126,
			"count":96,
			"type":"VEC2"
		},
		{
			"bufferView":213,
			"componentType":5126,
			"count":1301,
			"max":[
				5.978732585906982,
				20.047870635986328,
				5.939714431762695
			],
			"min":[
				-5.932260990142822,
				18.93229866027832,
				-5.977624416351318
			],
			"type":"VEC3"
		},
		{
			"bufferView":214,
			"componentType":5126,
			"count":1301,
			"type":"VEC3"
		},
		{
			"bufferView":215,
			"componentType":5126,
			"count":1301,
			"type":"VEC2"
		},
		{
			"bufferView":216,
			"componentType":5123,
			"count":1362,
			"type":"SCALAR"
		},
		{
			"bufferView":217,
			"componentType":5126,
			"count":1444,
			"max":[
				5.988943099975586,
				19.816469192504883,
				5.9435625076293945
			],
			"min":[
				-5.929585933685303,
				18.931739807128906,
				-5.9724955558776855
			],
			"type":"VEC3"
		},
		{
			"bufferView":218,
			"componentType":5126,
			"count":1444,
			"type":"VEC3"
		},
		{
			"bufferView":219,
			"componentType":5126,
			"count":1444,
			"type":"VEC2"
		},
		{
			"bufferView":220,
			"componentType":5123,
			"count":1611,
			"type":"SCALAR"
		},
		{
			"bufferView":221,
			"componentType":5126,
			"count":354,
			"max":[
				5.947847366333008,
				20.138036727905273,
				5.897209644317627
			],
			"min":[
				-5.899827003479004,
				19.003952026367188,
				-5.945191383361816
			],
			"type":"VEC3"
		},
		{
			"bufferView":222,
			"componentType":5126,
			"count":354,
			"type":"VEC3"
		},
		{
			"bufferView":223,
			"componentType":5126,
			"count":354,
			"type":"VEC2"
		},
		{
			"bufferView":224,
			"componentType":5123,
			"count":522,
			"type":"SCALAR"
		},
		{
			"bufferView":225,
			"componentType":5126,
			"count":865,
			"max":[
				3.840312957763672,
				20.894927978515625,
				3.799499034881592
			],
			"min":[
				-3.782912254333496,
				20.133066177368164,
				-3.8233399391174316
			],
			"type":"VEC3"
		},
		{
			"bufferView":226,
			"componentType":5126,
			"count":865,
			"type":"VEC3"
		},
		{
			"bufferView":227,
			"componentType":5126,
			"count":865,
			"type":"VEC2"
		},
		{
			"bufferView":228,
			"componentType":5123,
			"count":1275,
			"type":"SCALAR"
		},
		{
			"bufferView":229,
			"componentType":5126,
			"count":128,
			"max":[
				2.707115888595581,
				19.551916122436523,
				2.662767171859741
			],
			"min":[
				-2.659291982650757,
				15.394966125488281,
				-2.7039976119995117
			],
			"type":"VEC3"
		},
		{
			"bufferView":230,
			"componentType":5126,
			"count":128,
			"type":"VEC3"
		},
		{
			"bufferView":231,
			"componentType":5126,
			"count":128,
			"type":"VEC2"
		},
		{
			"bufferView":232,
			"componentType":5126,
			"count":101,
			"max":[
				5.5464067459106445,
				18.680686950683594,
				5.502252578735352
			],
			"min":[
				-5.497980117797852,
				18.17867088317871,
				-5.543335914611816
			],
			"type":"VEC3"
		},
		{
			"bufferView":233,
			"componentType":5126,
			"count":101,
			"type":"VEC3"
		},
		{
			"bufferView":234,
			"componentType":5126,
			"count":101,
			"type":"VEC2"
		},
		{
			"bufferView":235,
			"componentType":5126,
			"count":1370,
			"max":[
				4.051969528198242,
				18.843908309936523,
				4.007900714874268
			],
			"min":[
				-4.003561496734619,
				16.367794036865234,
				-4.026693344116211
			],
			"type":"VEC3"
		},
		{
			"bufferView":236,
			"componentType":5126,
			"count":1370,
			"type":"VEC3"
		},
		{
			"bufferView":237,
			"componentType":5126,
			"count":1370,
			"type":"VEC2"
		},
		{
			"bufferView":238,
			"componentType":5123,
			"count":1890,
			"type":"SCALAR"
		},
		{
			"bufferView":239,
			"componentType":5126,
			"count":187,
			"max":[
				5.905978202819824,
				19.389015197753906,
				5.861909866333008
			],
			"min":[
				-5.857571601867676,
				15.478669166564941,
				-5.902439117431641
			],
			"type":"VEC3"
		},
		{
			"bufferView":240,
			"componentType":5126,
			"count":187,
			"type":"VEC3"
		},
		{
			"bufferView":241,
			"componentType":5126,
			"count":187,
			"type":"VEC2"
		},
		{
			"bufferView":242,
			"componentType":5126,
			"count":176,
			"max":[
				4.7209978103637695,
				19.289154052734375,
				4.676844596862793
			],
			"min":[
				-4.672572135925293,
				18.824493408203125,
				-4.717927932739258
			],
			"type":"VEC3"
		},
		{
			"bufferView":243,
			"componentType":5126,
			"count":176,
			"type":"VEC3"
		},
		{
			"bufferView":244,
			"componentType":5126,
			"count":176,
			"type":"VEC2"
		},
		{
			"bufferView":245,
			"componentType":5126,
			"count":7,
			"max":[
				-5.358382225036621,
				18.763906478881836,
				-5.394460201263428
			],
			"min":[
				-5.417295455932617,
				18.70258903503418,
				-5.436239242553711
			],
			"type":"VEC3"
		},
		{
			"bufferView":246,
			"componentType":5126,
			"count":7,
			"type":"VEC3"
		},
		{
			"bufferView":247,
			"componentType":5126,
			"count":7,
			"type":"VEC2"
		},
		{
			"bufferView":248,
			"componentType":5126,
			"count":29,
			"max":[
				5.598649978637695,
				26.684972763061523,
				5.5659074783325195
			],
			"min":[
				-5.552927494049072,
				23.090600967407227,
				-5.608503818511963
			],
			"type":"VEC3"
		},
		{
			"bufferView":249,
			"componentType":5126,
			"count":29,
			"type":"VEC3"
		},
		{
			"bufferView":250,
			"componentType":5126,
			"count":29,
			"type":"VEC2"
		},
		{
			"bufferView":251,
			"componentType":5123,
			"count":39,
			"type":"SCALAR"
		},
		{
			"bufferView":252,
			"componentType":5126,
			"count":3270,
			"max":[
				5.552948951721191,
				26.96725845336914,
				5.4991559982299805
			],
			"min":[
				-5.503469467163086,
				22.779813766479492,
				-5.549036979675293
			],
			"type":"VEC3"
		},
		{
			"bufferView":253,
			"componentType":5126,
			"count":3270,
			"type":"VEC3"
		},
		{
			"bufferView":254,
			"componentType":5126,
			"count":3270,
			"type":"VEC2"
		},
		{
			"bufferView":255,
			"componentType":5123,
			"count":4200,
			"type":"SCALAR"
		},
		{
			"bufferView":256,
			"componentType":5126,
			"count":1616,
			"max":[
				5.689761638641357,
				26.82418441772461,
				5.64387845993042
			],
			"min":[
				-5.64028263092041,
				23.037336349487305,
				-5.685849666595459
			],
			"type":"VEC3"
		},
		{
			"bufferView":257,
			"componentType":5126,
			"count":1616,
			"type":"VEC3"
		},
		{
			"bufferView":258,
			"componentType":5126,
			"count":1616,
			"type":"VEC2"
		},
		{
			"bufferView":259,
			"componentType":5123,
			"count":2424,
			"type":"SCALAR"
		},
		{
			"bufferView":260,
			"componentType":5126,
			"count":34,
			"max":[
				5.493658542633057,
				23.716543197631836,
				5.459137439727783
			],
			"min":[
				-5.445526599884033,
				22.926593780517578,
				-5.502440452575684
			],
			"type":"VEC3"
		},
		{
			"bufferView":261,
			"componentType":5126,
			"count":34,
			"type":"VEC3"
		},
		{
			"bufferView":262,
			"componentType":5126,
			"count":34,
			"type":"VEC2"
		},
		{
			"bufferView":263,
			"componentType":5123,
			"count":42,
			"type":"SCALAR"
		},
		{
			"bufferView":264,
			"componentType":5126,
			"count":47,
			"max":[
				5.599563121795654,
				26.685426712036133,
				5.5667500495910645
			],
			"min":[
				-5.553642749786377,
				23.219810485839844,
				-5.609355449676514
			],
			"type":"VEC3"
		},
		{
			"bufferView":265,
			"componentType":5126,
			"count":47,
			"type":"VEC3"
		},
		{
			"bufferView":266,
			"componentType":5126,
			"count":47,
			"type":"VEC2"
		},
		{
			"bufferView":267,
			"componentType":5123,
			"count":57,
			"type":"SCALAR"
		},
		{
			"bufferView":268,
			"componentType":5126,
			"count":341,
			"max":[
				5.685527801513672,
				23.97674560546875,
				5.639650821685791
			],
			"min":[
				-5.636050701141357,
				23.17808723449707,
				-5.693828582763672
			],
			"type":"VEC3"
		},
		{
			"bufferView":269,
			"componentType":5126,
			"count":341,
			"type":"VEC3"
		},
		{
			"bufferView":270,
			"componentType":5126,
			"count":341,
			"type":"VEC2"
		},
		{
			"bufferView":271,
			"componentType":5123,
			"count":357,
			"type":"SCALAR"
		},
		{
			"bufferView":272,
			"componentType":5126,
			"count":301,
			"max":[
				5.686624526977539,
				26.531204223632812,
				5.653872489929199
			],
			"min":[
				-5.637168884277344,
				23.17777442932129,
				-5.69584321975708
			],
			"type":"VEC3"
		},
		{
			"bufferView":273,
			"componentType":5126,
			"count":301,
			"type":"VEC3"
		},
		{
			"bufferView":274,
			"componentType":5126,
			"count":301,
			"type":"VEC2"
		},
		{
			"bufferView":275,
			"componentType":5123,
			"count":303,
			"type":"SCALAR"
		},
		{
			"bufferView":276,
			"componentType":5126,
			"count":128,
			"max":[
				2.5745325088500977,
				23.747133255004883,
				2.5304112434387207
			],
			"min":[
				-2.5269081592559814,
				19.795433044433594,
				-2.571368932723999
			],
			"type":"VEC3"
		},
		{
			"bufferView":277,
			"componentType":5126,
			"count":128,
			"type":"VEC3"
		},
		{
			"bufferView":278,
			"componentType":5126,
			"count":128,
			"type":"VEC2"
		},
		{
			"bufferView":279,
			"componentType":5126,
			"count":101,
			"max":[
				5.2736334800720215,
				22.918920516967773,
				5.229697227478027
			],
			"min":[
				-5.225435733795166,
				22.44169044494629,
				-5.270514488220215
			],
			"type":"VEC3"
		},
		{
			"bufferView":280,
			"componentType":5126,
			"count":101,
			"type":"VEC3"
		},
		{
			"bufferView":281,
			"componentType":5126,
			"count":101,
			"type":"VEC2"
		},
		{
			"bufferView":282,
			"componentType":5126,
			"count":1371,
			"max":[
				3.8529839515686035,
				23.074081420898438,
				3.809128522872925
			],
			"min":[
				-3.8048043251037598,
				20.720226287841797,
				-3.8494203090667725
			],
			"type":"VEC3"
		},
		{
			"bufferView":283,
			"componentType":5126,
			"count":1371,
			"type":"VEC3"
		},
		{
			"bufferView":284,
			"componentType":5126,
			"count":1371,
			"type":"VEC2"
		},
		{
			"bufferView":285,
			"componentType":5123,
			"count":1887,
			"type":"SCALAR"
		},
		{
			"bufferView":286,
			"componentType":5126,
			"count":188,
			"max":[
				5.615450382232666,
				23.592275619506836,
				5.571595191955566
			],
			"min":[
				-5.567272663116455,
				19.875003814697266,
				-5.611886978149414
			],
			"type":"VEC3"
		},
		{
			"bufferView":287,
			"componentType":5126,
			"count":188,
			"type":"VEC3"
		},
		{
			"bufferView":288,
			"componentType":5126,
			"count":188,
			"type":"VEC2"
		},
		{
			"bufferView":289,
			"componentType":5123,
			"count":252,
			"type":"SCALAR"
		},
		{
			"bufferView":290,
			"componentType":5126,
			"count":176,
			"max":[
				4.488979339599609,
				23.497344970703125,
				4.445043087005615
			],
			"min":[
				-4.44078254699707,
				23.055625915527344,
				-4.485860824584961
			],
			"type":"VEC3"
		},
		{
			"bufferView":291,
			"componentType":5126,
			"count":176,
			"type":"VEC3"
		},
		{
			"bufferView":292,
			"componentType":5126,
			"count":176,
			"type":"VEC2"
		},
		{
			"bufferView":293,
			"componentType":5126,
			"count":7,
			"max":[
				-5.092730522155762,
				22.998029708862305,
				-5.128989219665527
			],
			"min":[
				-5.148735046386719,
				22.939741134643555,
				-5.168705940246582
			],
			"type":"VEC3"
		},
		{
			"bufferView":294,
			"componentType":5126,
			"count":7,
			"type":"VEC3"
		},
		{
			"bufferView":295,
			"componentType":5126,
			"count":7,
			"type":"VEC2"
		},
		{
			"bufferView":296,
			"componentType":5126,
			"count":1167,
			"max":[
				0.7919818162918091,
				37.19178009033203,
				0.7919816970825195
			],
			"min":[
				-0.7919818162918091,
				26.967355728149414,
				-0.7919818162918091
			],
			"type":"VEC3"
		},
		{
			"bufferView":297,
			"componentType":5126,
			"count":1167,
			"type":"VEC3"
		},
		{
			"bufferView":298,
			"componentType":5126,
			"count":1167,
			"type":"VEC2"
		},
		{
			"bufferView":299,
			"componentType":5123,
			"count":1992,
			"type":"SCALAR"
		},
		{
			"bufferView":300,
			"componentType":5126,
			"count":48,
			"max":[
				0.7049387693405151,
				27.23639488220215,
				0.7049404978752136
			],
			"min":[
				-0.7053287029266357,
				26.986392974853516,
				-0.7048082947731018
			],
			"type":"VEC3"
		},
		{
			"bufferView":301,
			"componentType":5126,
			"count":48,
			"type":"VEC3"
		},
		{
			"bufferView":302,
			"componentType":5126,
			"count":48,
			"type":"VEC2"
		},
		{
			"bufferView":303,
			"componentType":5123,
			"count":72,
			"type":"SCALAR"
		}
	],
	"bufferViews":[
		{
			"buffer":0,
			"byteLength":228,
			"byteOffset":0,
			"target":34962
		},
		{
			"buffer":0,
			"byteLength":228,
			"byteOffset":228,
			"target":34962
		},
		{
			"buffer":0,
			"byteLength":152,
			"byteOffset":456,
			"target":34962
		},
		{
			"buffer":0,
			"byteLength":54,
			"byteOffset":608,
			"target":34963
		},
		{
			"buffer":0,
			"byteLength":240,
			"byteOffset":664,
			"target":34962
		},
		{
			"buffer":0,
			"byteLength":240,
			"byteOffset":904,
			"target":34962
		},
		{
			"buffer":0,
			"byteLength":160,
			"byteOffset":1144,
			"target":34962
		},
		{
			"buffer":0,
			"byteLength":60,
			"byteOffset":1304,
			"target":34963
		},
		{
			"buffer":0,
			"byteLength":288,
			"byteOffset":1364,
			"target":34962
		},
		{
			"buffer":0,
			"byteLength":288,
			"byteOffset":1652,
			"target":34962
		},
		{
			"buffer":0,
			"byteLength":192,
			"byteOffset":1940,
			"target":34962
		},
		{
			"buffer":0,
			"byteLength":72,
			"byteOffset":2132,
			"target":34963
		},
		{
			"buffer":0,
			"byteLength":576,
			"byteOffset":2204,
			"target":34962
		},
		{
			"buffer":0,
			"byteLength":576,
			"byteOffset":2780,
			"target":34962
		},
		{
			"buffer":0,
			"byteLength":384,
			"byteOffset":3356,
			"target":34962
		},
		{
			"buffer":0,
			"byteLength":144,
			"byteOffset":3740,
			"target":34963
		},
		{
			"buffer":0,
			"byteLength":288,
			"byteOffset":3884,
			"target":34962
		},
		{
			"buffer":0,
			"byteLength":288,
			"byteOffset":4172,
			"target":34962
		},
		{
			"buffer":0,
			"byteLength":192,
			"byteOffset":4460,
			"target":34962
		},
		{
			"buffer":0,
			"byteLength":576,
			"byteOffset":4652,
			"target":34962
		},
		{
			"buffer":0,
			"byteLength":576,
			"byteOffset":5228,
			"target":34962
		},
		{
			"buffer":0,
			"byteLength":384,
			"byteOffset":5804,
			"target":34962
		},
		{
			"buffer":0,
			"byteLength":288,
			"byteOffset":6188,
			"target":34962
		},
		{
			"buffer":0,
			"byteLength":288,
			"byteOffset":6476,
			"target":34962
		},
		{
			"buffer":0,
			"byteLength":192,
			"byteOffset":6764,
			"target":34962
		},
		{
			"buffer":0,
			"byteLength":576,
			"byteOffset":6956,
			"target":34962
		},
		{
			"buffer":0,
			"byteLength":576,
			"byteOffset":7532,
			"target":34962
		},
		{
			"buffer":0,
			"byteLength":384,
			"byteOffset":8108,
			"target":34962
		},
		{
			"buffer":0,
			"byteLength":288,
			"byteOffset":8492,
			"target":34962
		},
		{
			"buffer":0,
			"byteLength":288,
			"byteOffset":8780,
			"target":34962
		},
		{
			"buffer":0,
			"byteLength":192,
			"byteOffset":9068,
			"target":34962
		},
		{
			"buffer":0,
			"byteLength":576,
			"byteOffset":9260,
			"target":34962
		},
		{
			"buffer":0,
			"byteLength":576,
			"byteOffset":9836,
			"target":34962
		},
		{
			"buffer":0,
			"byteLength":384,
			"byteOffset":10412,
			"target":34962
		},
		{
			"buffer":0,
			"byteLength":17088,
			"byteOffset":10796,
			"target":34962
		},
		{
			"buffer":0,
			"byteLength":17088,
			"byteOffset":27884,
			"target":34962
		},
		{
			"buffer":0,
			"byteLength":11392,
			"byteOffset":44972,
			"target":34962
		},
		{
			"buffer":0,
			"byteLength":4128,
			"byteOffset":56364,
			"target":34963
		},
		{
			"buffer":0,
			"byteLength":768,
			"byteOffset":60492,
			"target":34962
		},
		{
			"buffer":0,
			"byteLength":768,
			"byteOffset":61260,
			"target":34962
		},
		{
			"buffer":0,
			"byteLength":512,
			"byteOffset":62028,
			"target":34962
		},
		{
			"buffer":0,
			"byteLength":156,
			"byteOffset":62540,
			"target":34963
		},
		{
			"buffer":0,
			"byteLength":744,
			"byteOffset":62696,
			"target":34962
		},
		{
			"buffer":0,
			"byteLength":744,
			"byteOffset":63440,
			"target":34962
		},
		{
			"buffer":0,
			"byteLength":496,
			"byteOffset":64184,
			"target":34962
		},
		{
			"buffer":0,
			"byteLength":144,
			"byteOffset":64680,
			"target":34963
		},
		{
			"buffer":0,
			"byteLength":1152,
			"byteOffset":64824,
			"target":34962
		},
		{
			"buffer":0,
			"byteLength":1152,
			"byteOffset":65976,
			"target":34962
		},
		{
			"buffer":0,
			"byteLength":768,
			"byteOffset":67128,
			"target":34962
		},
		{
			"buffer":0,
			"byteLength":276,
			"byteOffset":67896,
			"target":34963
		},
		{
			"buffer":0,
			"byteLength":15588,
			"byteOffset":68172,
			"target":34962
		},
		{
			"buffer":0,
			"byteLength":15588,
			"byteOffset":83760,
			"target":34962
		},
		{
			"buffer":0,
			"byteLength":10392,
			"byteOffset":99348,
			"target":34962
		},
		{
			"buffer":0,
			"byteLength":2742,
			"byteOffset":109740,
			"target":34963
		},
		{
			"buffer":0,
			"byteLength":17160,
			"byteOffset":112484,
			"target":34962
		},
		{
			"buffer":0,
			"byteLength":17160,
			"byteOffset":129644,
			"target":34962
		},
		{
			"buffer":0,
			"byteLength":11440,
			"byteOffset":146804,
			"target":34962
		},
		{
			"buffer":0,
			"byteLength":3198,
			"byteOffset":158244,
			"target":34963
		},
		{
			"buffer":0,
			"byteLength":4284,
			"byteOffset":161444,
			"target":34962
		},
		{
			"buffer":0,
			"byteLength":4284,
			"byteOffset":165728,
			"target":34962
		},
		{
			"buffer":0,
			"byteLength":2856,
			"byteOffset":170012,
			"target":34962
		},
		{
			"buffer":0,
			"byteLength":1050,
			"byteOffset":172868,
			"target":34963
		},
		{
			"buffer":0,
			"byteLength":10308,
			"byteOffset":173920,
			"target":34962
		},
		{
			"buffer":0,
			"byteLength":10308,
			"byteOffset":184228,
			"target":34962
		},
		{
			"buffer":0,
			"byteLength":6872,
			"byteOffset":194536,
			"target":34962
		},
		{
			"buffer":0,
			"byteLength":2550,
			"byteOffset":201408,
			"target":34963
		},
		{
			"buffer":0,
			"byteLength":8976,
			"byteOffset":203960,
			"target":34962
		},
		{
			"buffer":0,
			"byteLength":8976,
			"byteOffset":212936,
			"target":34962
		},
		{
			"buffer":0,
			"byteLength":5984,
			"byteOffset":221912,
			"target":34962
		},
		{
			"buffer":0,
			"byteLength":1776,
			"byteOffset":227896,
			"target":34963
		},
		{
			"buffer":0,
			"byteLength":600,
			"byteOffset":229672,
			"target":34962
		},
		{
			"buffer":0,
			"byteLength":600,
			"byteOffset":230272,
			"target":34962
		},
		{
			"buffer":0,
			"byteLength":400,
			"byteOffset":230872,
			"target":34962
		},
		{
			"buffer":0,
			"byteLength":144,
			"byteOffset":231272,
			"target":34963
		},
		{
			"buffer":0,
			"byteLength":1152,
			"byteOffset":231416,
			"target":34962
		},
		{
			"buffer":0,
			"byteLength":1152,
			"byteOffset":232568,
			"target":34962
		},
		{
			"buffer":0,
			"byteLength":768,
			"byteOffset":233720,
			"target":34962
		},
		{
			"buffer":0,
			"byteLength":288,
			"byteOffset":234488,
			"target":34963
		},
		{
			"buffer":0,
			"byteLength":11328,
			"byteOffset":234776,
			"target":34962
		},
		{
			"buffer":0,
			"byteLength":11328,
			"byteOffset":246104,
			"target":34962
		},
		{
			"buffer":0,
			"byteLength":7552,
			"byteOffset":257432,
			"target":34962
		},
		{
			"buffer":0,
			"byteLength":2772,
			"byteOffset":264984,
			"target":34963
		},
		{
			"buffer":0,
			"byteLength":2112,
			"byteOffset":267756,
			"target":34962
		},
		{
			"buffer":0,
			"byteLength":2112,
			"byteOffset":269868,
			"target":34962
		},
		{
			"buffer":0,
			"byteLength":1408,
			"byteOffset":271980,
			"target":34962
		},
		{
			"buffer":0,
			"byteLength":480,
			"byteOffset":273388,
			"target":34963
		},
		{
			"buffer":0,
			"byteLength":384,
			"byteOffset":273868,
			"target":34962
		},
		{
			"buffer":0,
			"byteLength":384,
			"byteOffset":274252,
			"target":34962
		},
		{
			"buffer":0,
			"byteLength":256,
			"byteOffset":274636,
			"target":34962
		},
		{
			"buffer":0,
			"byteLength":96,
			"byteOffset":274892,
			"target":34963
		},
		{
			"buffer":0,
			"byteLength":120,
			"byteOffset":274988,
			"target":34962
		},
		{
			"buffer":0,
			"byteLength":120,
			"byteOffset":275108,
			"target":34962
		},
		{
			"buffer":0,
			"byteLength":80,
			"byteOffset":275228,
			"target":34962
		},
		{
			"buffer":0,
			"byteLength":24,
			"byteOffset":275308,
			"target":34963
		},
		{
			"buffer":0,
			"byteLength":768,
			"byteOffset":275332,
			"target":34962
		},
		{
			"buffer":0,
			"byteLength":768,
			"byteOffset":276100,
			"target":34962
		},
		{
			"buffer":0,
			"byteLength":512,
			"byteOffset":276868,
			"target":34962
		},
		{
			"buffer":0,
			"byteLength":192,
			"byteOffset":277380,
			"target":34963
		},
		{
			"buffer":0,
			"byteLength":17304,
			"byteOffset":277572,
			"target":34962
		},
		{
			"buffer":0,
			"byteLength":17304,
			"byteOffset":294876,
			"target":34962
		},
		{
			"buffer":0,
			"byteLength":11536,
			"byteOffset":312180,
			"target":34962
		},
		{
			"buffer":0,
			"byteLength":4128,
			"byteOffset":323716,
			"target":34963
		},
		{
			"buffer":0,
			"byteLength":768,
			"byteOffset":327844,
			"target":34962
		},
		{
			"buffer":0,
			"byteLength":768,
			"byteOffset":328612,
			"target":34962
		},
		{
			"buffer":0,
			"byteLength":512,
			"byteOffset":329380,
			"target":34962
		},
		{
			"buffer":0,
			"byteLength":744,
			"byteOffset":329892,
			"target":34962
		},
		{
			"buffer":0,
			"byteLength":744,
			"byteOffset":330636,
			"target":34962
		},
		{
			"buffer":0,
			"byteLength":496,
			"byteOffset":331380,
			"target":34962
		},
		{
			"buffer":0,
			"byteLength":1152,
			"byteOffset":331876,
			"target":34962
		},
		{
			"buffer":0,
			"byteLength":1152,
			"byteOffset":333028,
			"target":34962
		},
		{
			"buffer":0,
			"byteLength":768,
			"byteOffset":334180,
			"target":34962
		},
		{
			"buffer":0,
			"byteLength":15600,
			"byteOffset":334948,
			"target":34962
		},
		{
			"buffer":0,
			"byteLength":15600,
			"byteOffset":350548,
			"target":34962
		},
		{
			"buffer":0,
			"byteLength":10400,
			"byteOffset":366148,
			"target":34962
		},
		{
			"buffer":0,
			"byteLength":2730,
			"byteOffset":376548,
			"target":34963
		},
		{
			"buffer":0,
			"byteLength":17232,
			"byteOffset":379280,
			"target":34962
		},
		{
			"buffer":0,
			"byteLength":17232,
			"byteOffset":396512,
			"target":34962
		},
		{
			"buffer":0,
			"byteLength":11488,
			"byteOffset":413744,
			"target":34962
		},
		{
			"buffer":0,
			"byteLength":3198,
			"byteOffset":425232,
			"target":34963
		},
		{
			"buffer":0,
			"byteLength":4356,
			"byteOffset":428432,
			"target":34962
		},
		{
			"buffer":0,
			"byteLength":4356,
			"byteOffset":432788,
			"target":34962
		},
		{
			"buffer":0,
			"byteLength":2904,
			"byteOffset":437144,
			"target":34962
		},
		{
			"buffer":0,
			"byteLength":1062,
			"byteOffset":440048,
			"target":34963
		},
		{
			"buffer":0,
			"byteLength":10308,
			"byteOffset":441112,
			"target":34962
		},
		{
			"buffer":0,
			"byteLength":10308,
			"byteOffset":451420,
			"target":34962
		},
		{
			"buffer":0,
			"byteLength":6872,
			"byteOffset":461728,
			"target":34962
		},
		{
			"buffer":0,
			"byteLength":1536,
			"byteOffset":468600,
			"target":34962
		},
		{
			"buffer":0,
			"byteLength":1536,
			"byteOffset":470136,
			"target":34962
		},
		{
			"buffer":0,
			"byteLength":1024,
			"byteOffset":471672,
			"target":34962
		},
		{
			"buffer":0,
			"byteLength":384,
			"byteOffset":472696,
			"target":34963
		},
		{
			"buffer":0,
			"byteLength":1212,
			"byteOffset":473080,
			"target":34962
		},
		{
			"buffer":0,
			"byteLength":1212,
			"byteOffset":474292,
			"target":34962
		},
		{
			"buffer":0,
			"byteLength":808,
			"byteOffset":475504,
			"target":34962
		},
		{
			"buffer":0,
			"byteLength":270,
			"byteOffset":476312,
			"target":34963
		},
		{
			"buffer":0,
			"byteLength":16512,
			"byteOffset":476584,
			"target":34962
		},
		{
			"buffer":0,
			"byteLength":16512,
			"byteOffset":493096,
			"target":34962
		},
		{
			"buffer":0,
			"byteLength":11008,
			"byteOffset":509608,
			"target":34962
		},
		{
			"buffer":0,
			"byteLength":3780,
			"byteOffset":520616,
			"target":34963
		},
		{
			"buffer":0,
			"byteLength":2244,
			"byteOffset":524396,
			"target":34962
		},
		{
			"buffer":0,
			"byteLength":2244,
			"byteOffset":526640,
			"target":34962
		},
		{
			"buffer":0,
			"byteLength":1496,
			"byteOffset":528884,
			"target":34962
		},
		{
			"buffer":0,
			"byteLength":498,
			"byteOffset":530380,
			"target":34963
		},
		{
			"buffer":0,
			"byteLength":2112,
			"byteOffset":530880,
			"target":34962
		},
		{
			"buffer":0,
			"byteLength":2112,
			"byteOffset":532992,
			"target":34962
		},
		{
			"buffer":0,
			"byteLength":1408,
			"byteOffset":535104,
			"target":34962
		},
		{
			"buffer":0,
			"byteLength":480,
			"byteOffset":536512,
			"target":34963
		},
		{
			"buffer":0,
			"byteLength":84,
			"byteOffset":536992,
			"target":34962
		},
		{
			"buffer":0,
			"byteLength":84,
			"byteOffset":537076,
			"target":34962
		},
		{
			"buffer":0,
			"byteLength":56,
			"byteOffset":537160,
			"target":34962
		},
		{
			"buffer":0,
			"byteLength":18,
			"byteOffset":537216,
			"target":34963
		},
		{
			"buffer":0,
			"byteLength":17112,
			"byteOffset":537236,
			"target":34962
		},
		{
			"buffer":0,
			"byteLength":17112,
			"byteOffset":554348,
			"target":34962
		},
		{
			"buffer":0,
			"byteLength":11408,
			"byteOffset":571460,
			"target":34962
		},
		{
			"buffer":0,
			"byteLength":4128,
			"byteOffset":582868,
			"target":34963
		},
		{
			"buffer":0,
			"byteLength":768,
			"byteOffset":586996,
			"target":34962
		},
		{
			"buffer":0,
			"byteLength":768,
			"byteOffset":587764,
			"target":34962
		},
		{
			"buffer":0,
			"byteLength":512,
			"byteOffset":588532,
			"target":34962
		},
		{
			"buffer":0,
			"byteLength":156,
			"byteOffset":589044,
			"target":34963
		},
		{
			"buffer":0,
			"byteLength":744,
			"byteOffset":589200,
			"target":34962
		},
		{
			"buffer":0,
			"byteLength":744,
			"byteOffset":589944,
			"target":34962
		},
		{
			"buffer":0,
			"byteLength":496,
			"byteOffset":590688,
			"target":34962
		},
		{
			"buffer":0,
			"byteLength":1176,
			"byteOffset":591184,
			"target":34962
		},
		{
			"buffer":0,
			"byteLength":1176,
			"byteOffset":592360,
			"target":34962
		},
		{
			"buffer":0,
			"byteLength":784,
			"byteOffset":593536,
			"target":34962
		},
		{
			"buffer":0,
			"byteLength":276,
			"byteOffset":594320,
			"target":34963
		},
		{
			"buffer":0,
			"byteLength":15672,
			"byteOffset":594596,
			"target":34962
		},
		{
			"buffer":0,
			"byteLength":15672,
			"byteOffset":610268,
			"target":34962
		},
		{
			"buffer":0,
			"byteLength":10448,
			"byteOffset":625940,
			"target":34962
		},
		{
			"buffer":0,
			"byteLength":2730,
			"byteOffset":636388,
			"target":34963
		},
		{
			"buffer":0,
			"byteLength":17484,
			"byteOffset":639120,
			"target":34962
		},
		{
			"buffer":0,
			"byteLength":17484,
			"byteOffset":656604,
			"target":34962
		},
		{
			"buffer":0,
			"byteLength":11656,
			"byteOffset":674088,
			"target":34962
		},
		{
			"buffer":0,
			"byteLength":3228,
			"byteOffset":685744,
			"target":34963
		},
		{
			"buffer":0,
			"byteLength":4176,
			"byteOffset":688972,
			"target":34962
		},
		{
			"buffer":0,
			"byteLength":4176,
			"byteOffset":693148,
			"target":34962
		},
		{
			"buffer":0,
			"byteLength":2784,
			"byteOffset":697324,
			"target":34962
		},
		{
			"buffer":0,
			"byteLength":1032,
			"byteOffset":700108,
			"target":34963
		},
		{
			"buffer":0,
			"byteLength":10308,
			"byteOffset":701140,
			"target":34962
		},
		{
			"buffer":0,
			"byteLength":10308,
			"byteOffset":711448,
			"target":34962
		},
		{
			"buffer":0,
			"byteLength":6872,
			"byteOffset":721756,
			"target":34962
		},
		{
			"buffer":0,
			"byteLength":1536,
			"byteOffset":728628,
			"target":34962
		},
		{
			"buffer":0,
			"byteLength":1536,
			"byteOffset":730164,
			"target":34962
		},
		{
			"buffer":0,
			"byteLength":1024,
			"byteOffset":731700,
			"target":34962
		},
		{
			"buffer":0,
			"byteLength":1212,
			"byteOffset":732724,
			"target":34962
		},
		{
			"buffer":0,
			"byteLength":1212,
			"byteOffset":733936,
			"target":34962
		},
		{
			"buffer":0,
			"byteLength":808,
			"byteOffset":735148,
			"target":34962
		},
		{
			"buffer":0,
			"byteLength":16428,
			"byteOffset":735956,
			"target":34962
		},
		{
			"buffer":0,
			"byteLength":16428,
			"byteOffset":752384,
			"target":34962
		},
		{
			"buffer":0,
			"byteLength":10952,
			"byteOffset":768812,
			"target":34962
		},
		{
			"buffer":0,
			"byteLength":3774,
			"byteOffset":779764,
			"target":34963
		},
		{
			"buffer":0,
			"byteLength":2256,
			"byteOffset":783540,
			"target":34962
		},
		{
			"buffer":0,
			"byteLength":2256,
			"byteOffset":785796,
			"target":34962
		},
		{
			"buffer":0,
			"byteLength":1504,
			"byteOffset":788052,
			"target":34962
		},
		{
			"buffer":0,
			"byteLength":504,
			"byteOffset":789556,
			"target":34963
		},
		{
			"buffer":0,
			"byteLength":2112,
			"byteOffset":790060,
			"target":34962
		},
		{
			"buffer":0,
			"byteLength":2112,
			"byteOffset":792172,
			"target":34962
		},
		{
			"buffer":0,
			"byteLength":1408,
			"byteOffset":794284,
			"target":34962
		},
		{
			"buffer":0,
			"byteLength":84,
			"byteOffset":795692,
			"target":34962
		},
		{
			"buffer":0,
			"byteLength":84,
			"byteOffset":795776,
			"target":34962
		},
		{
			"buffer":0,
			"byteLength":56,
			"byteOffset":795860,
			"target":34962
		},
		{
			"buffer":0,
			"byteLength":17088,
			"byteOffset":795916,
			"target":34962
		},
		{
			"buffer":0,
			"byteLength":17088,
			"byteOffset":813004,
			"target":34962
		},
		{
			"buffer":0,
			"byteLength":11392,
			"byteOffset":830092,
			"target":34962
		},
		{
			"buffer":0,
			"byteLength":4128,
			"byteOffset":841484,
			"target":34963
		},
		{
			"buffer":0,
			"byteLength":768,
			"byteOffset":845612,
			"target":34962
		},
		{
			"buffer":0,
			"byteLength":768,
			"byteOffset":846380,
			"target":34962
		},
		{
			"buffer":0,
			"byteLength":512,
			"byteOffset":847148,
			"target":34962
		},
		{
			"buffer":0,
			"byteLength":744,
			"byteOffset":847660,
			"target":34962
		},
		{
			"buffer":0,
			"byteLength":744,
			"byteOffset":848404,
			"target":34962
		},
		{
			"buffer":0,
			"byteLength":496,
			"byteOffset":849148,
			"target":34962
		},
		{
			"buffer":0,
			"byteLength":1152,
			"byteOffset":849644,
			"target":34962
		},
		{
			"buffer":0,
			"byteLength":1152,
			"byteOffset":850796,
			"target":34962
		},
		{
			"buffer":0,
			"byteLength":768,
			"byteOffset":851948,
			"target":34962
		},
		{
			"buffer":0,
			"byteLength":15612,
			"byteOffset":852716,
			"target":34962
		},
		{
			"buffer":0,
			"byteLength":15612,
			"byteOffset":868328,
			"target":34962
		},
		{
			"buffer":0,
			"byteLength":10408,
			"byteOffset":883940,
			"target":34962
		},
		{
			"buffer":0,
			"byteLength":2724,
			"byteOffset":894348,
			"target":34963
		},
		{
			"buffer":0,
			"byteLength":17328,
			"byteOffset":897072,
			"target":34962
		},
		{
			"buffer":0,
			"byteLength":17328,
			"byteOffset":914400,
			"target":34962
		},
		{
			"buffer":0,
			"byteLength":11552,
			"byteOffset":931728,
			"target":34962
		},
		{
			"buffer":0,
			"byteLength":3222,
			"byteOffset":943280,
			"target":34963
		},
		{
			"buffer":0,
			"byteLength":4248,
			"byteOffset":946504,
			"target":34962
		},
		{
			"buffer":0,
			"byteLength":4248,
			"byteOffset":950752,
			"target":34962
		},
		{
			"buffer":0,
			"byteLength":2832,
			"byteOffset":955000,
			"target":34962
		},
		{
			"buffer":0,
			"byteLength":1044,
			"byteOffset":957832,
			"target":34963
		},
		{
			"buffer":0,
			"byteLength":10380,
			"byteOffset":958876,
			"target":34962
		},
		{
			"buffer":0,
			"byteLength":10380,
			"byteOffset":969256,
			"target":34962
		},
		{
			"buffer":0,
			"byteLength":6920,
			"byteOffset":979636,
			"target":34962
		},
		{
			"buffer":0,
			"byteLength":2550,
			"byteOffset":986556,
			"target":34963
		},
		{
			"buffer":0,
			"byteLength":1536,
			"byteOffset":989108,
			"target":34962
		},
		{
			"buffer":0,
			"byteLength":1536,
			"byteOffset":990644,
			"target":34962
		},
		{
			"buffer":0,
			"byteLength":1024,
			"byteOffset":992180,
			"target":34962
		},
		{
			"buffer":0,
			"byteLength":1212,
			"byteOffset":993204,
			"target":34962
		},
		{
			"buffer":0,
			"byteLength":1212,
			"byteOffset":994416,
			"target":34962
		},
		{
			"buffer":0,
			"byteLength":808,
			"byteOffset":995628,
			"target":34962
		},
		{
			"buffer":0,
			"byteLength":16440,
			"byteOffset":996436,
			"target":34962
		},
		{
			"buffer":0,
			"byteLength":16440,
			"byteOffset":1012876,
			"target":34962
		},
		{
			"buffer":0,
			"byteLength":10960,
			"byteOffset":1029316,
			"target":34962
		},
		{
			"buffer":0,
			"byteLength":3780,
			"byteOffset":1040276,
			"target":34963
		},
		{
			"buffer":0,
			"byteLength":2244,
			"byteOffset":1044056,
			"target":34962
		},
		{
			"buffer":0,
			"byteLength":2244,
			"byteOffset":1046300,
			"target":34962
		},
		{
			"buffer":0,
			"byteLength":1496,
			"byteOffset":1048544,
			"target":34962
		},
		{
			"buffer":0,
			"byteLength":2112,
			"byteOffset":1050040,
			"target":34962
		},
		{
			"buffer":0,
			"byteLength":2112,
			"byteOffset":1052152,
			"target":34962
		},
		{
			"buffer":0,
			"byteLength":1408,
			"byteOffset":1054264,
			"target":34962
		},
		{
			"buffer":0,
			"byteLength":84,
			"byteOffset":1055672,
			"target":34962
		},
		{
			"buffer":0,
			"byteLength":84,
			"byteOffset":1055756,
			"target":34962
		},
		{
			"buffer":0,
			"byteLength":56,
			"byteOffset":1055840,
			"target":34962
		},
		{
			"buffer":0,
			"byteLength":348,
			"byteOffset":1055896,
			"target":34962
		},
		{
			"buffer":0,
			"byteLength":348,
			"byteOffset":1056244,
			"target":34962
		},
		{
			"buffer":0,
			"byteLength":232,
			"byteOffset":1056592,
			"target":34962
		},
		{
			"buffer":0,
			"byteLength":78,
			"byteOffset":1056824,
			"target":34963
		},
		{
			"buffer":0,
			"byteLength":39240,
			"byteOffset":1056904,
			"target":34962
		},
		{
			"buffer":0,
			"byteLength":39240,
			"byteOffset":1096144,
			"target":34962
		},
		{
			"buffer":0,
			"byteLength":26160,
			"byteOffset":1135384,
			"target":34962
		},
		{
			"buffer":0,
			"byteLength":8400,
			"byteOffset":1161544,
			"target":34963
		},
		{
			"buffer":0,
			"byteLength":19392,
			"byteOffset":1169944,
			"target":34962
		},
		{
			"buffer":0,
			"byteLength":19392,
			"byteOffset":1189336,
			"target":34962
		},
		{
			"buffer":0,
			"byteLength":12928,
			"byteOffset":1208728,
			"target":34962
		},
		{
			"buffer":0,
			"byteLength":4848,
			"byteOffset":1221656,
			"target":34963
		},
		{
			"buffer":0,
			"byteLength":408,
			"byteOffset":1226504,
			"target":34962
		},
		{
			"buffer":0,
			"byteLength":408,
			"byteOffset":1226912,
			"target":34962
		},
		{
			"buffer":0,
			"byteLength":272,
			"byteOffset":1227320,
			"target":34962
		},
		{
			"buffer":0,
			"byteLength":84,
			"byteOffset":1227592,
			"target":34963
		},
		{
			"buffer":0,
			"byteLength":564,
			"byteOffset":1227676,
			"target":34962
		},
		{
			"buffer":0,
			"byteLength":564,
			"byteOffset":1228240,
			"target":34962
		},
		{
			"buffer":0,
			"byteLength":376,
			"byteOffset":1228804,
			"target":34962
		},
		{
			"buffer":0,
			"byteLength":114,
			"byteOffset":1229180,
			"target":34963
		},
		{
			"buffer":0,
			"byteLength":4092,
			"byteOffset":1229296,
			"target":34962
		},
		{
			"buffer":0,
			"byteLength":4092,
			"byteOffset":1233388,
			"target":34962
		},
		{
			"buffer":0,
			"byteLength":2728,
			"byteOffset":1237480,
			"target":34962
		},
		{
			"buffer":0,
			"byteLength":714,
			"byteOffset":1240208,
			"target":34963
		},
		{
			"buffer":0,
			"byteLength":3612,
			"byteOffset":1240924,
			"target":34962
		},
		{
			"buffer":0,
			"byteLength":3612,
			"byteOffset":1244536,
			"target":34962
		},
		{
			"buffer":0,
			"byteLength":2408,
			"byteOffset":1248148,
			"target":34962
		},
		{
			"buffer":0,
			"byteLength":606,
			"byteOffset":1250556,
			"target":34963
		},
		{
			"buffer":0,
			"byteLength":1536,
			"byteOffset":1251164,
			"target":34962
		},
		{
			"buffer":0,
			"byteLength":1536,
			"byteOffset":1252700,
			"target":34962
		},
		{
			"buffer":0,
			"byteLength":1024,
			"byteOffset":1254236,
			"target":34962
		},
		{
			"buffer":0,
			"byteLength":1212,
			"byteOffset":1255260,
			"target":34962
		},
		{
			"buffer":0,
			"byteLength":1212,
			"byteOffset":1256472,
			"target":34962
		},
		{
			"buffer":0,
			"byteLength":808,
			"byteOffset":1257684,
			"target":34962
		},
		{
			"buffer":0,
			"byteLength":16452,
			"byteOffset":1258492,
			"target":34962
		},
		{
			"buffer":0,
			"byteLength":16452,
			"byteOffset":1274944,
			"target":34962
		},
		{
			"buffer":0,
			"byteLength":10968,
			"byteOffset":1291396,
			"target":34962
		},
		{
			"buffer":0,
			"byteLength":3774,
			"byteOffset":1302364,
			"target":34963
		},
		{
			"buffer":0,
			"byteLength":2256,
			"byteOffset":1306140,
			"target":34962
		},
		{
			"buffer":0,
			"byteLength":2256,
			"byteOffset":1308396,
			"target":34962
		},
		{
			"buffer":0,
			"byteLength":1504,
			"byteOffset":1310652,
			"target":34962
		},
		{
			"buffer":0,
			"byteLength":504,
			"byteOffset":1312156,
			"target":34963
		},
		{
			"buffer":0,
			"byteLength":2112,
			"byteOffset":1312660,
			"target":34962
		},
		{
			"buffer":0,
			"byteLength":2112,
			"byteOffset":1314772,
			"target":34962
		},
		{
			"buffer":0,
			"byteLength":1408,
			"byteOffset":1316884,
			"target":34962
		},
		{
			"buffer":0,
			"byteLength":84,
			"byteOffset":1318292,
			"target":34962
		},
		{
			"buffer":0,
			"byteLength":84,
			"byteOffset":1318376,
			"target":34962
		},
		{
			"buffer":0,
			"byteLength":56,
			"byteOffset":1318460,
			"target":34962
		},
		{
			"buffer":0,
			"byteLength":14004,
			"byteOffset":1318516,
			"target":34962
		},
		{
			"buffer":0,
			"byteLength":14004,
			"byteOffset":1332520,
			"target":34962
		},
		{
			"buffer":0,
			"byteLength":9336,
			"byteOffset":1346524,
			"target":34962
		},
		{
			"buffer":0,
			"byteLength":3984,
			"byteOffset":1355860,
			"target":34963
		},
		{
			"buffer":0,
			"byteLength":576,
			"byteOffset":1359844,
			"target":34962
		},
		{
			"buffer":0,
			"byteLength":576,
			"byteOffset":1360420,
			"target":34962
		},
		{
			"buffer":0,
			"byteLength":384,
			"byteOffset":1360996,
			"target":34962
		},
		{
			"buffer":0,
			"byteLength":144,
			"byteOffset":1361380,
			"target":34963
		}
	],
	"samplers":[
		{
			"magFilter":9729,
			"minFilter":9987
		}
	],
	"buffers":[
		{
			"byteLength":1361524,
			"uri":"Pagoda_Goju_38m.bin"
		}
	]
}
