{
	"asset":{
		"generator":"Khronos glTF Blender I/O v4.4.56",
		"version":"2.0"
	},
	"extensionsUsed":[
		"KHR_texture_transform"
	],
	"extensionsRequired":[
		"KHR_texture_transform"
	],
	"scene":0,
	"scenes":[
		{
			"name":"Scene",
			"nodes":[
				20
			]
		}
	],
	"nodes":[
		{
			"mesh":0,
			"name":"Base_LOD0.002",
			"rotation":[
				-0.70710688829422,
				0,
				0,
				0.7071066498756409
			],
			"scale":[
				0.6668999791145325,
				0.6669000387191772,
				0.6214754581451416
			],
			"translation":[
				0.0409240648150444,
				-0.31139951944351196,
				0.018646955490112305
			]
		},
		{
			"children":[
				0
			],
			"name":"Base.002"
		},
		{
			"mesh":1,
			"name":"Door_EL_LOD0.002",
			"rotation":[
				-0.4995635449886322,
				-0.5004361271858215,
				-0.5004361271858215,
				0.4995635449886322
			],
			"translation":[
				2.065856695175171,
				1.1076054573059082,
				0.46481677889823914
			]
		},
		{
			"mesh":2,
			"name":"Door_ER_LOD0.002",
			"rotation":[
				-0.4995635449886322,
				-0.5004361271858215,
				-0.5004361271858215,
				0.4995635449886322
			],
			"translation":[
				2.067260503768921,
				1.1076054573059082,
				-0.49761301279067993
			]
		},
		{
			"mesh":3,
			"name":"Door_NL_LOD0.002",
			"rotation":[
				-0.7071065306663513,
				-0.0006170272827148438,
				-0.0006170273991301656,
				0.7071065306663513
			],
			"translation":[
				0.5107118487358093,
				1.1076054573059082,
				-2.049410104751587
			]
		},
		{
			"mesh":4,
			"name":"Door_NR_LOD0.002",
			"rotation":[
				-0.7071065306663513,
				-0.0006170272827148438,
				-0.0006170273991301656,
				0.7071065306663513
			],
			"translation":[
				-0.4641415774822235,
				1.1076054573059082,
				-2.05082368850708
			]
		},
		{
			"mesh":5,
			"name":"Door_SL_LOD0.002",
			"rotation":[
				-0.0006169079570099711,
				0.7071065306663513,
				0.7071065306663513,
				0.000616908073425293
			],
			"translation":[
				-0.4470216929912567,
				1.1076054573059082,
				2.0236480236053467
			]
		},
		{
			"mesh":6,
			"name":"Door_SR_LOD0.002",
			"rotation":[
				-0.0006169079570099711,
				0.7071065306663513,
				0.7071065306663513,
				0.000616908073425293
			],
			"translation":[
				0.5158078074455261,
				1.1076054573059082,
				2.02506160736084
			]
		},
		{
			"mesh":7,
			"name":"Door_WL_LOD0.002",
			"rotation":[
				-0.5004361271858215,
				0.4995635449886322,
				0.4995635449886322,
				0.5004361271858215
			],
			"translation":[
				-2.007842779159546,
				1.1076054573059082,
				-0.49009424448013306
			]
		},
		{
			"mesh":8,
			"name":"Door_WR_LOD0.002",
			"rotation":[
				-0.5004361271858215,
				0.4995635449886322,
				0.4995635449886322,
				0.5004361271858215
			],
			"translation":[
				-2.009246587753296,
				1.1076054573059082,
				0.4723358452320099
			]
		},
		{
			"children":[
				2,
				3,
				4,
				5,
				6,
				7,
				8,
				9
			],
			"name":"Doors.002"
		},
		{
			"mesh":9,
			"name":"Roof1_LOD0.002",
			"rotation":[
				-0.70710688829422,
				0,
				0,
				0.7071066498756409
			],
			"scale":[
				0.32911425828933716,
				0.32911428809165955,
				0.32911428809165955
			],
			"translation":[
				0.0262451171875,
				5.11434268951416,
				-0.018840398639440536
			]
		},
		{
			"mesh":10,
			"name":"Wall1_LOD0.002",
			"rotation":[
				0.49956363439559937,
				0.499563604593277,
				0.5004361271858215,
				0.5004360675811768
			],
			"scale":[
				0.2442406564950943,
				0.3142566382884979,
				0.31425660848617554
			],
			"translation":[
				-2.1624755859375,
				1.3371455669403076,
				1.9974064826965332
			]
		},
		{
			"children":[
				11,
				12
			],
			"name":"Floor1.002"
		},
		{
			"mesh":11,
			"name":"Roof2_LOD0.002",
			"rotation":[
				-0.70710688829422,
				0,
				0,
				0.7071066498756409
			],
			"scale":[
				0.07363296300172806,
				0.07363288104534149,
				0.2681831419467926
			],
			"translation":[
				0.024688720703125,
				9.297910690307617,
				-0.019811730831861496
			]
		},
		{
			"mesh":12,
			"name":"Wall2_LOD0.002",
			"rotation":[
				-0.70710688829422,
				0,
				0,
				0.7071066498756409
			],
			"scale":[
				0.5404329299926758,
				0.5404329895973206,
				0.44840237498283386
			],
			"translation":[
				0.008453369140625,
				4.017978668212891,
				-0.004428863991051912
			]
		},
		{
			"children":[
				14,
				15
			],
			"name":"Floor2.002"
		},
		{
			"mesh":13,
			"name":"Chainbell_LOD0.002",
			"rotation":[
				-0.5,
				0.5,
				0.5,
				0.5
			],
			"scale":[
				0.7695000171661377,
				0.7695000171661377,
				0.7694999575614929
			],
			"translation":[
				0.014739990234375,
				14.107817649841309,
				-0.008758592419326305
			]
		},
		{
			"mesh":14,
			"name":"Sorin_LOD0.002",
			"rotation":[
				-0.70710688829422,
				0,
				0,
				0.7071066498756409
			],
			"scale":[
				0.3633492887020111,
				0.3633493185043335,
				0.3633493185043335
			],
			"translation":[
				0.01483154296875,
				9.877626419067383,
				-0.008776946924626827
			]
		},
		{
			"children":[
				17,
				18
			],
			"name":"Sorin.002"
		},
		{
			"children":[
				1,
				10,
				13,
				16,
				19
			],
			"name":"Pagoda_Tahoto_14m"
		}
	],
	"materials":[
		{
			"doubleSided":true,
			"name":"mat_wood_plank_03.003",
			"pbrMetallicRoughness":{
				"baseColorTexture":{
					"index":0
				},
				"metallicFactor":0
			}
		},
		{
			"doubleSided":true,
			"name":"mat_wood_paint_white_01.003",
			"pbrMetallicRoughness":{
				"baseColorFactor":[
					0.5711249113082886,
					0.4969330430030823,
					0.4125427007675171,
					1
				],
				"baseColorTexture":{
					"extensions":{
						"KHR_texture_transform":{
							"offset":[
								0,
								0.5
							],
							"scale":[
								0.5,
								0.5
							]
						}
					},
					"index":1
				},
				"metallicFactor":0
			}
		},
		{
			"doubleSided":true,
			"name":"mat_wood_pillar_03.001",
			"pbrMetallicRoughness":{
				"baseColorTexture":{
					"extensions":{
						"KHR_texture_transform":{
							"offset":[
								0,
								0.5
							],
							"scale":[
								0.5,
								0.5
							]
						}
					},
					"index":2
				},
				"metallicFactor":0
			}
		},
		{
			"doubleSided":true,
			"name":"mat_wood_beam_03.001",
			"pbrMetallicRoughness":{
				"baseColorTexture":{
					"extensions":{
						"KHR_texture_transform":{
							"offset":[
								0,
								0.5
							],
							"scale":[
								0.5,
								0.5
							]
						}
					},
					"index":3
				},
				"metallicFactor":0
			}
		},
		{
			"doubleSided":true,
			"name":"mat_metal_copper_antique_01.003",
			"pbrMetallicRoughness":{
				"baseColorTexture":{
					"index":4
				},
				"metallicFactor":0
			}
		},
		{
			"doubleSided":true,
			"name":"mat_basalt_base_01.003",
			"pbrMetallicRoughness":{
				"baseColorTexture":{
					"extensions":{
						"KHR_texture_transform":{
							"offset":[
								0,
								0.6500000059604645
							],
							"scale":[
								0.3499999940395355,
								0.3499999940395355
							]
						}
					},
					"index":5
				},
				"metallicFactor":0
			}
		},
		{
			"doubleSided":true,
			"name":"mat_wood_wall_01.003",
			"pbrMetallicRoughness":{
				"baseColorFactor":[
					0.5583404898643494,
					0.4564109742641449,
					0.3467040956020355,
					1
				],
				"baseColorTexture":{
					"extensions":{
						"KHR_texture_transform":{
							"offset":[
								0,
								0.5
							],
							"scale":[
								0.5,
								0.5
							]
						}
					},
					"index":6
				},
				"metallicFactor":0
			}
		},
		{
			"name":"mat_decal_pagoda_01.003"
		},
		{
			"doubleSided":true,
			"name":"mat_thatch_roof_01",
			"pbrMetallicRoughness":{
				"baseColorFactor":[
					0.5647116303443909,
					0.6724432110786438,
					0.7083759307861328,
					1
				],
				"baseColorTexture":{
					"extensions":{
						"KHR_texture_transform":{
							"offset":[
								0,
								0.9299999997019768
							],
							"scale":[
								0.14000000059604645,
								0.07000000029802322
							]
						}
					},
					"index":7
				},
				"metallicFactor":0
			}
		},
		{
			"doubleSided":true,
			"name":"mat_thatch_edge_01",
			"pbrMetallicRoughness":{
				"baseColorFactor":[
					0.7835379242897034,
					0.6653873324394226,
					0.5647116303443909,
					1
				],
				"baseColorTexture":{
					"extensions":{
						"KHR_texture_transform":{
							"offset":[
								0,
								0.5999999940395355
							],
							"scale":[
								0.4000000059604645,
								0.4000000059604645
							]
						}
					},
					"index":8
				},
				"metallicFactor":0
			}
		},
		{
			"doubleSided":true,
			"name":"mat_metal_copper_patina_01.003",
			"pbrMetallicRoughness":{
				"baseColorTexture":{
					"extensions":{
						"KHR_texture_transform":{
							"offset":[
								0,
								0.5
							],
							"scale":[
								0.5,
								0.5
							]
						}
					},
					"index":9
				},
				"metallicFactor":0
			}
		},
		{
			"doubleSided":true,
			"name":"mat_plaster_wall_01.002",
			"pbrMetallicRoughness":{
				"baseColorTexture":{
					"extensions":{
						"KHR_texture_transform":{
							"offset":[
								0,
								0.5
							],
							"scale":[
								0.5,
								0.5
							]
						}
					},
					"index":10
				},
				"metallicFactor":0
			}
		}
	],
	"meshes":[
		{
			"name":"Base_LOD0.003",
			"primitives":[
				{
					"attributes":{
						"POSITION":0,
						"NORMAL":1,
						"TEXCOORD_0":2
					},
					"indices":3,
					"material":0
				},
				{
					"attributes":{
						"POSITION":4,
						"NORMAL":5,
						"TEXCOORD_0":6
					},
					"indices":7,
					"material":1
				},
				{
					"attributes":{
						"POSITION":8,
						"NORMAL":9,
						"TEXCOORD_0":10
					},
					"indices":11,
					"material":2
				},
				{
					"attributes":{
						"POSITION":12,
						"NORMAL":13,
						"TEXCOORD_0":14
					},
					"indices":15,
					"material":3
				},
				{
					"attributes":{
						"POSITION":16,
						"NORMAL":17,
						"TEXCOORD_0":18
					},
					"indices":19,
					"material":4
				},
				{
					"attributes":{
						"POSITION":20,
						"NORMAL":21,
						"TEXCOORD_0":22
					},
					"indices":23,
					"material":5
				}
			]
		},
		{
			"name":"Door_EL_LOD0.003",
			"primitives":[
				{
					"attributes":{
						"POSITION":24,
						"NORMAL":25,
						"TEXCOORD_0":26
					},
					"indices":27,
					"material":6
				},
				{
					"attributes":{
						"POSITION":28,
						"NORMAL":29,
						"TEXCOORD_0":30
					},
					"indices":31,
					"material":7
				}
			]
		},
		{
			"name":"Door_ER_LOD0.003",
			"primitives":[
				{
					"attributes":{
						"POSITION":32,
						"NORMAL":33,
						"TEXCOORD_0":34
					},
					"indices":35,
					"material":6
				},
				{
					"attributes":{
						"POSITION":36,
						"NORMAL":37,
						"TEXCOORD_0":38
					},
					"indices":39,
					"material":7
				}
			]
		},
		{
			"name":"Door_NL_LOD0.003",
			"primitives":[
				{
					"attributes":{
						"POSITION":40,
						"NORMAL":41,
						"TEXCOORD_0":42
					},
					"indices":27,
					"material":6
				},
				{
					"attributes":{
						"POSITION":43,
						"NORMAL":44,
						"TEXCOORD_0":45
					},
					"indices":31,
					"material":7
				}
			]
		},
		{
			"name":"Door_NR_LOD0.003",
			"primitives":[
				{
					"attributes":{
						"POSITION":46,
						"NORMAL":47,
						"TEXCOORD_0":48
					},
					"indices":35,
					"material":6
				},
				{
					"attributes":{
						"POSITION":49,
						"NORMAL":50,
						"TEXCOORD_0":51
					},
					"indices":39,
					"material":7
				}
			]
		},
		{
			"name":"Door_SL_LOD0.003",
			"primitives":[
				{
					"attributes":{
						"POSITION":52,
						"NORMAL":53,
						"TEXCOORD_0":54
					},
					"indices":27,
					"material":6
				},
				{
					"attributes":{
						"POSITION":55,
						"NORMAL":56,
						"TEXCOORD_0":57
					},
					"indices":31,
					"material":7
				}
			]
		},
		{
			"name":"Door_SR_LOD0.003",
			"primitives":[
				{
					"attributes":{
						"POSITION":58,
						"NORMAL":59,
						"TEXCOORD_0":60
					},
					"indices":35,
					"material":6
				},
				{
					"attributes":{
						"POSITION":61,
						"NORMAL":62,
						"TEXCOORD_0":63
					},
					"indices":39,
					"material":7
				}
			]
		},
		{
			"name":"Door_WL_LOD0.003",
			"primitives":[
				{
					"attributes":{
						"POSITION":64,
						"NORMAL":65,
						"TEXCOORD_0":66
					},
					"indices":27,
					"material":6
				},
				{
					"attributes":{
						"POSITION":67,
						"NORMAL":68,
						"TEXCOORD_0":69
					},
					"indices":31,
					"material":7
				}
			]
		},
		{
			"name":"Door_WR_LOD0.003",
			"primitives":[
				{
					"attributes":{
						"POSITION":70,
						"NORMAL":71,
						"TEXCOORD_0":72
					},
					"indices":35,
					"material":6
				},
				{
					"attributes":{
						"POSITION":73,
						"NORMAL":74,
						"TEXCOORD_0":75
					},
					"indices":39,
					"material":7
				}
			]
		},
		{
			"name":"Roof1_LOD0.003",
			"primitives":[
				{
					"attributes":{
						"POSITION":76,
						"NORMAL":77,
						"TEXCOORD_0":78
					},
					"indices":79,
					"material":8
				},
				{
					"attributes":{
						"POSITION":80,
						"NORMAL":81,
						"TEXCOORD_0":82
					},
					"indices":83,
					"material":2
				},
				{
					"attributes":{
						"POSITION":84,
						"NORMAL":85,
						"TEXCOORD_0":86
					},
					"indices":87,
					"material":0
				},
				{
					"attributes":{
						"POSITION":88,
						"NORMAL":89,
						"TEXCOORD_0":90
					},
					"indices":91,
					"material":9
				}
			]
		},
		{
			"name":"Wall1_LOD0.003",
			"primitives":[
				{
					"attributes":{
						"POSITION":92,
						"NORMAL":93,
						"TEXCOORD_0":94
					},
					"indices":95,
					"material":3
				},
				{
					"attributes":{
						"POSITION":96,
						"NORMAL":97,
						"TEXCOORD_0":98
					},
					"indices":99,
					"material":4
				},
				{
					"attributes":{
						"POSITION":100,
						"NORMAL":101,
						"TEXCOORD_0":102
					},
					"indices":103,
					"material":1
				},
				{
					"attributes":{
						"POSITION":104,
						"NORMAL":105,
						"TEXCOORD_0":106
					},
					"indices":107,
					"material":2
				},
				{
					"attributes":{
						"POSITION":108,
						"NORMAL":109,
						"TEXCOORD_0":110
					},
					"indices":111,
					"material":0
				},
				{
					"attributes":{
						"POSITION":112,
						"NORMAL":113,
						"TEXCOORD_0":114
					},
					"indices":115,
					"material":7
				},
				{
					"attributes":{
						"POSITION":116,
						"NORMAL":117,
						"TEXCOORD_0":118
					},
					"indices":119,
					"material":10
				}
			]
		},
		{
			"name":"Roof2_LOD0.003",
			"primitives":[
				{
					"attributes":{
						"POSITION":120,
						"NORMAL":121,
						"TEXCOORD_0":122
					},
					"indices":123,
					"material":0
				},
				{
					"attributes":{
						"POSITION":124,
						"NORMAL":125,
						"TEXCOORD_0":126
					},
					"indices":127,
					"material":2
				},
				{
					"attributes":{
						"POSITION":128,
						"NORMAL":129,
						"TEXCOORD_0":130
					},
					"indices":131,
					"material":8
				}
			]
		},
		{
			"name":"Wall2_LOD0.003",
			"primitives":[
				{
					"attributes":{
						"POSITION":132,
						"NORMAL":133,
						"TEXCOORD_0":134
					},
					"indices":135,
					"material":11
				},
				{
					"attributes":{
						"POSITION":136,
						"NORMAL":137,
						"TEXCOORD_0":138
					},
					"indices":139,
					"material":2
				},
				{
					"attributes":{
						"POSITION":140,
						"NORMAL":141,
						"TEXCOORD_0":142
					},
					"indices":143,
					"material":1
				},
				{
					"attributes":{
						"POSITION":144,
						"NORMAL":145,
						"TEXCOORD_0":146
					},
					"indices":147,
					"material":3
				},
				{
					"attributes":{
						"POSITION":148,
						"NORMAL":149,
						"TEXCOORD_0":150
					},
					"indices":151,
					"material":10
				},
				{
					"attributes":{
						"POSITION":152,
						"NORMAL":153,
						"TEXCOORD_0":154
					},
					"indices":155,
					"material":0
				},
				{
					"attributes":{
						"POSITION":156,
						"NORMAL":157,
						"TEXCOORD_0":158
					},
					"indices":159,
					"material":4
				}
			]
		},
		{
			"name":"Chainbell_LOD0.002",
			"primitives":[
				{
					"attributes":{
						"POSITION":160,
						"NORMAL":161,
						"TEXCOORD_0":162
					},
					"indices":163,
					"material":4
				}
			]
		},
		{
			"name":"Sorin_LOD0.003",
			"primitives":[
				{
					"attributes":{
						"POSITION":164,
						"NORMAL":165,
						"TEXCOORD_0":166
					},
					"indices":167,
					"material":4
				}
			]
		}
	],
	"textures":[
		{
			"sampler":0,
			"source":0
		},
		{
			"sampler":0,
			"source":1
		},
		{
			"sampler":0,
			"source":2
		},
		{
			"sampler":0,
			"source":3
		},
		{
			"sampler":0,
			"source":4
		},
		{
			"sampler":0,
			"source":5
		},
		{
			"sampler":0,
			"source":6
		},
		{
			"sampler":0,
			"source":7
		},
		{
			"sampler":0,
			"source":8
		},
		{
			"sampler":0,
			"source":9
		},
		{
			"sampler":0,
			"source":10
		}
	],
	"images":[
		{
			"mimeType":"image/png",
			"name":"tex_wood_plank_03a",
			"uri":"tex_wood_plank_03a.png"
		},
		{
			"mimeType":"image/png",
			"name":"tex_wood_paint_03a",
			"uri":"tex_wood_paint_03a.png"
		},
		{
			"mimeType":"image/png",
			"name":"tex_wood_pillar_03a",
			"uri":"tex_wood_pillar_03a.png"
		},
		{
			"mimeType":"image/png",
			"name":"tex_wood_beam_03a",
			"uri":"tex_wood_beam_03a.png"
		},
		{
			"mimeType":"image/png",
			"name":"tex_metal_copper_antique_01a",
			"uri":"tex_metal_copper_antique_01a.png"
		},
		{
			"mimeType":"image/png",
			"name":"tex_basalt_base_01a",
			"uri":"tex_basalt_base_01a.png"
		},
		{
			"mimeType":"image/png",
			"name":"tex_wood_wall_01a",
			"uri":"tex_wood_wall_01a.png"
		},
		{
			"mimeType":"image/png",
			"name":"tex_thatch_roof_01a",
			"uri":"tex_thatch_roof_01a.png"
		},
		{
			"mimeType":"image/png",
			"name":"tex_thatch_edge_01a",
			"uri":"tex_thatch_edge_01a.png"
		},
		{
			"mimeType":"image/png",
			"name":"tex_metal_copper_patina_01a",
			"uri":"tex_metal_copper_patina_01a.png"
		},
		{
			"mimeType":"image/png",
			"name":"tex_plaster_base_01a",
			"uri":"tex_plaster_base_01a.png"
		}
	],
	"accessors":[
		{
			"bufferView":0,
			"componentType":5126,
			"count":8,
			"max":[
				6.591468334197998,
				6.671512603759766,
				1.9890313148498535
			],
			"min":[
				-6.636490821838379,
				-6.556446552276611,
				1.8560869693756104
			],
			"type":"VEC3"
		},
		{
			"bufferView":1,
			"componentType":5126,
			"count":8,
			"type":"VEC3"
		},
		{
			"bufferView":2,
			"componentType":5126,
			"count":8,
			"type":"VEC2"
		},
		{
			"bufferView":3,
			"componentType":5123,
			"count":12,
			"type":"SCALAR"
		},
		{
			"bufferView":4,
			"componentType":5126,
			"count":16,
			"max":[
				6.591468334197998,
				6.671512603759766,
				1.9890313148498535
			],
			"min":[
				-6.636490821838379,
				-6.556446552276611,
				1.8560869693756104
			],
			"type":"VEC3"
		},
		{
			"bufferView":5,
			"componentType":5126,
			"count":16,
			"type":"VEC3"
		},
		{
			"bufferView":6,
			"componentType":5126,
			"count":16,
			"type":"VEC2"
		},
		{
			"bufferView":7,
			"componentType":5123,
			"count":24,
			"type":"SCALAR"
		},
		{
			"bufferView":8,
			"componentType":5126,
			"count":1036,
			"max":[
				6.432421684265137,
				6.48386812210083,
				2.413114309310913
			],
			"min":[
				-6.460688591003418,
				-6.403453350067139,
				1.4984983205795288
			],
			"type":"VEC3"
		},
		{
			"bufferView":9,
			"componentType":5126,
			"count":1036,
			"type":"VEC3"
		},
		{
			"bufferView":10,
			"componentType":5126,
			"count":1036,
			"type":"VEC2"
		},
		{
			"bufferView":11,
			"componentType":5123,
			"count":1524,
			"type":"SCALAR"
		},
		{
			"bufferView":12,
			"componentType":5126,
			"count":1190,
			"max":[
				6.535910129547119,
				6.588984489440918,
				3.0161163806915283
			],
			"min":[
				-6.580809593200684,
				-6.525416374206543,
				0.3971099555492401
			],
			"type":"VEC3"
		},
		{
			"bufferView":13,
			"componentType":5126,
			"count":1190,
			"type":"VEC3"
		},
		{
			"bufferView":14,
			"componentType":5126,
			"count":1190,
			"type":"VEC2"
		},
		{
			"bufferView":15,
			"componentType":5123,
			"count":1950,
			"type":"SCALAR"
		},
		{
			"bufferView":16,
			"componentType":5126,
			"count":370,
			"max":[
				6.471254348754883,
				6.552621364593506,
				3.731945514678955
			],
			"min":[
				-6.5086541175842285,
				-6.453261852264404,
				2.9991893768310547
			],
			"type":"VEC3"
		},
		{
			"bufferView":17,
			"componentType":5126,
			"count":370,
			"type":"VEC3"
		},
		{
			"bufferView":18,
			"componentType":5126,
			"count":370,
			"type":"VEC2"
		},
		{
			"bufferView":19,
			"componentType":5123,
			"count":1110,
			"type":"SCALAR"
		},
		{
			"bufferView":20,
			"componentType":5126,
			"count":632,
			"max":[
				8.047914505004883,
				8.113977432250977,
				1.6352927684783936
			],
			"min":[
				-8.081435203552246,
				-8.032758712768555,
				0.39171481132507324
			],
			"type":"VEC3"
		},
		{
			"bufferView":21,
			"componentType":5126,
			"count":632,
			"type":"VEC3"
		},
		{
			"bufferView":22,
			"componentType":5126,
			"count":632,
			"type":"VEC2"
		},
		{
			"bufferView":23,
			"componentType":5123,
			"count":948,
			"type":"SCALAR"
		},
		{
			"bufferView":24,
			"componentType":5126,
			"count":24,
			"max":[
				0.03883932903409004,
				0.02028757520020008,
				1.5682532787322998
			],
			"min":[
				-0.4728034436702728,
				-0.020419152453541756,
				0
			],
			"type":"VEC3"
		},
		{
			"bufferView":25,
			"componentType":5126,
			"count":24,
			"type":"VEC3"
		},
		{
			"bufferView":26,
			"componentType":5126,
			"count":24,
			"type":"VEC2"
		},
		{
			"bufferView":27,
			"componentType":5123,
			"count":36,
			"type":"SCALAR"
		},
		{
			"bufferView":28,
			"componentType":5126,
			"count":12,
			"max":[
				0.030644189566373825,
				0.022562285885214806,
				1.5510952472686768
			],
			"min":[
				-0.4494461417198181,
				0.022561898455023766,
				0.0103802140802145
			],
			"type":"VEC3"
		},
		{
			"bufferView":29,
			"componentType":5126,
			"count":12,
			"type":"VEC3"
		},
		{
			"bufferView":30,
			"componentType":5126,
			"count":12,
			"type":"VEC2"
		},
		{
			"bufferView":31,
			"componentType":5123,
			"count":12,
			"type":"SCALAR"
		},
		{
			"bufferView":32,
			"componentType":5126,
			"count":48,
			"max":[
				0.5152488350868225,
				0.03226415440440178,
				1.5682532787322998
			],
			"min":[
				-0.024712523445487022,
				-0.02028329111635685,
				0
			],
			"type":"VEC3"
		},
		{
			"bufferView":33,
			"componentType":5126,
			"count":48,
			"type":"VEC3"
		},
		{
			"bufferView":34,
			"componentType":5126,
			"count":48,
			"type":"VEC2"
		},
		{
			"bufferView":35,
			"componentType":5123,
			"count":72,
			"type":"SCALAR"
		},
		{
			"bufferView":36,
			"componentType":5126,
			"count":32,
			"max":[
				0.5152490735054016,
				0.03342811018228531,
				1.5510952472686768
			],
			"min":[
				-0.01713043637573719,
				0.022697370499372482,
				0.0103802140802145
			],
			"type":"VEC3"
		},
		{
			"bufferView":37,
			"componentType":5126,
			"count":32,
			"type":"VEC3"
		},
		{
			"bufferView":38,
			"componentType":5126,
			"count":32,
			"type":"VEC2"
		},
		{
			"bufferView":39,
			"componentType":5123,
			"count":42,
			"type":"SCALAR"
		},
		{
			"bufferView":40,
			"componentType":5126,
			"count":24,
			"max":[
				0.039340607821941376,
				0.020282231271266937,
				1.5682532787322998
			],
			"min":[
				-0.4789056181907654,
				-0.020424526184797287,
				0
			],
			"type":"VEC3"
		},
		{
			"bufferView":41,
			"componentType":5126,
			"count":24,
			"type":"VEC3"
		},
		{
			"bufferView":42,
			"componentType":5126,
			"count":24,
			"type":"VEC2"
		},
		{
			"bufferView":43,
			"componentType":5126,
			"count":12,
			"max":[
				0.031039776280522346,
				0.02255733497440815,
				1.5510953664779663
			],
			"min":[
				-0.4552469253540039,
				0.02255694568157196,
				0.0103802140802145
			],
			"type":"VEC3"
		},
		{
			"bufferView":44,
			"componentType":5126,
			"count":12,
			"type":"VEC3"
		},
		{
			"bufferView":45,
			"componentType":5126,
			"count":12,
			"type":"VEC2"
		},
		{
			"bufferView":46,
			"componentType":5126,
			"count":48,
			"max":[
				0.5218988060951233,
				0.03226988762617111,
				1.5682532787322998
			],
			"min":[
				-0.025031467899680138,
				-0.0202775988727808,
				0
			],
			"type":"VEC3"
		},
		{
			"bufferView":47,
			"componentType":5126,
			"count":48,
			"type":"VEC3"
		},
		{
			"bufferView":48,
			"componentType":5126,
			"count":48,
			"type":"VEC2"
		},
		{
			"bufferView":49,
			"componentType":5126,
			"count":32,
			"max":[
				0.5218991041183472,
				0.033434029668569565,
				1.5510953664779663
			],
			"min":[
				-0.017351578921079636,
				0.022703098133206367,
				0.0103802140802145
			],
			"type":"VEC3"
		},
		{
			"bufferView":50,
			"componentType":5126,
			"count":32,
			"type":"VEC3"
		},
		{
			"bufferView":51,
			"componentType":5126,
			"count":32,
			"type":"VEC2"
		},
		{
			"bufferView":52,
			"componentType":5126,
			"count":24,
			"max":[
				0.03885560482740402,
				0.020287418738007545,
				1.5682532787322998
			],
			"min":[
				-0.47300153970718384,
				-0.020419320091605186,
				0
			],
			"type":"VEC3"
		},
		{
			"bufferView":53,
			"componentType":5126,
			"count":24,
			"type":"VEC3"
		},
		{
			"bufferView":54,
			"componentType":5126,
			"count":24,
			"type":"VEC2"
		},
		{
			"bufferView":55,
			"componentType":5126,
			"count":12,
			"max":[
				0.03065710887312889,
				0.022562135010957718,
				1.5510953664779663
			],
			"min":[
				-0.44963452219963074,
				0.02256193943321705,
				0.0103802140802145
			],
			"type":"VEC3"
		},
		{
			"bufferView":56,
			"componentType":5126,
			"count":12,
			"type":"VEC3"
		},
		{
			"bufferView":57,
			"componentType":5126,
			"count":12,
			"type":"VEC2"
		},
		{
			"bufferView":58,
			"componentType":5126,
			"count":48,
			"max":[
				0.515464723110199,
				0.032264336943626404,
				1.5682532787322998
			],
			"min":[
				-0.024722881615161896,
				-0.020283125340938568,
				0
			],
			"type":"VEC3"
		},
		{
			"bufferView":59,
			"componentType":5126,
			"count":48,
			"type":"VEC3"
		},
		{
			"bufferView":60,
			"componentType":5126,
			"count":48,
			"type":"VEC2"
		},
		{
			"bufferView":61,
			"componentType":5126,
			"count":32,
			"max":[
				0.5154649019241333,
				0.0334288664162159,
				1.5510953664779663
			],
			"min":[
				-0.017137670889496803,
				0.022697940468788147,
				0.0103802140802145
			],
			"type":"VEC3"
		},
		{
			"bufferView":62,
			"componentType":5126,
			"count":32,
			"type":"VEC3"
		},
		{
			"bufferView":63,
			"componentType":5126,
			"count":32,
			"type":"VEC2"
		},
		{
			"bufferView":64,
			"componentType":5126,
			"count":24,
			"max":[
				0.03883932903409004,
				0.02028757706284523,
				1.5682532787322998
			],
			"min":[
				-0.4728034436702728,
				-0.020419150590896606,
				0
			],
			"type":"VEC3"
		},
		{
			"bufferView":65,
			"componentType":5126,
			"count":24,
			"type":"VEC3"
		},
		{
			"bufferView":66,
			"componentType":5126,
			"count":24,
			"type":"VEC2"
		},
		{
			"bufferView":67,
			"componentType":5126,
			"count":12,
			"max":[
				0.030644189566373825,
				0.022562287747859955,
				1.5510952472686768
			],
			"min":[
				-0.4494461417198181,
				0.022562094032764435,
				0.0103802140802145
			],
			"type":"VEC3"
		},
		{
			"bufferView":68,
			"componentType":5126,
			"count":12,
			"type":"VEC3"
		},
		{
			"bufferView":69,
			"componentType":5126,
			"count":12,
			"type":"VEC2"
		},
		{
			"bufferView":70,
			"componentType":5126,
			"count":48,
			"max":[
				0.5152488350868225,
				0.03226415440440178,
				1.5682532787322998
			],
			"min":[
				-0.024712523445487022,
				-0.020283292979002,
				0
			],
			"type":"VEC3"
		},
		{
			"bufferView":71,
			"componentType":5126,
			"count":48,
			"type":"VEC3"
		},
		{
			"bufferView":72,
			"componentType":5126,
			"count":48,
			"type":"VEC2"
		},
		{
			"bufferView":73,
			"componentType":5126,
			"count":32,
			"max":[
				0.5152489542961121,
				0.03342869132757187,
				1.5510952472686768
			],
			"min":[
				-0.01713043637573719,
				0.022697951644659042,
				0.0103802140802145
			],
			"type":"VEC3"
		},
		{
			"bufferView":74,
			"componentType":5126,
			"count":32,
			"type":"VEC3"
		},
		{
			"bufferView":75,
			"componentType":5126,
			"count":32,
			"type":"VEC2"
		},
		{
			"bufferView":76,
			"componentType":5126,
			"count":80,
			"max":[
				13.594539642333984,
				13.645772933959961,
				0.5387228727340698
			],
			"min":[
				-13.643016815185547,
				-13.645772933959961,
				-2.5017459392547607
			],
			"type":"VEC3"
		},
		{
			"bufferView":77,
			"componentType":5126,
			"count":80,
			"type":"VEC3"
		},
		{
			"bufferView":78,
			"componentType":5126,
			"count":80,
			"type":"VEC2"
		},
		{
			"bufferView":79,
			"componentType":5123,
			"count":102,
			"type":"SCALAR"
		},
		{
			"bufferView":80,
			"componentType":5126,
			"count":4163,
			"max":[
				13.230377197265625,
				13.25846004486084,
				-1.583470344543457
			],
			"min":[
				-13.234086036682129,
				-13.25846004486084,
				-3.6364529132843018
			],
			"type":"VEC3"
		},
		{
			"bufferView":81,
			"componentType":5126,
			"count":4163,
			"type":"VEC3"
		},
		{
			"bufferView":82,
			"componentType":5126,
			"count":4163,
			"type":"VEC2"
		},
		{
			"bufferView":83,
			"componentType":5123,
			"count":5397,
			"type":"SCALAR"
		},
		{
			"bufferView":84,
			"componentType":5126,
			"count":40,
			"max":[
				13.486420631408691,
				13.51501178741455,
				-2.1468536853790283
			],
			"min":[
				-13.490130424499512,
				-13.51501178741455,
				-3.0980141162872314
			],
			"type":"VEC3"
		},
		{
			"bufferView":85,
			"componentType":5126,
			"count":40,
			"type":"VEC3"
		},
		{
			"bufferView":86,
			"componentType":5126,
			"count":40,
			"type":"VEC2"
		},
		{
			"bufferView":87,
			"componentType":5123,
			"count":48,
			"type":"SCALAR"
		},
		{
			"bufferView":88,
			"componentType":5126,
			"count":48,
			"max":[
				13.486421585083008,
				13.515012741088867,
				-2.1780495643615723
			],
			"min":[
				-13.490131378173828,
				-13.5150146484375,
				-3.004554271697998
			],
			"type":"VEC3"
		},
		{
			"bufferView":89,
			"componentType":5126,
			"count":48,
			"type":"VEC3"
		},
		{
			"bufferView":90,
			"componentType":5126,
			"count":48,
			"type":"VEC2"
		},
		{
			"bufferView":91,
			"componentType":5123,
			"count":72,
			"type":"SCALAR"
		},
		{
			"bufferView":92,
			"componentType":5126,
			"count":2581,
			"max":[
				13.34442138671875,
				3.292907476425171,
				16.66545295715332
			],
			"min":[
				-1.7155884504318237,
				-16.111146926879883,
				-2.740596294403076
			],
			"type":"VEC3"
		},
		{
			"bufferView":93,
			"componentType":5126,
			"count":2581,
			"type":"VEC3"
		},
		{
			"bufferView":94,
			"componentType":5126,
			"count":2581,
			"type":"VEC2"
		},
		{
			"bufferView":95,
			"componentType":5123,
			"count":3615,
			"type":"SCALAR"
		},
		{
			"bufferView":96,
			"componentType":5126,
			"count":63,
			"max":[
				10.647844314575195,
				6.900205135345459,
				20.260787963867188
			],
			"min":[
				9.125043869018555,
				-19.691429138183594,
				-6.336452007293701
			],
			"type":"VEC3"
		},
		{
			"bufferView":97,
			"componentType":5126,
			"count":63,
			"type":"VEC3"
		},
		{
			"bufferView":98,
			"componentType":5126,
			"count":63,
			"type":"VEC2"
		},
		{
			"bufferView":99,
			"componentType":5123,
			"count":87,
			"type":"SCALAR"
		},
		{
			"bufferView":100,
			"componentType":5126,
			"count":48,
			"max":[
				13.34442138671875,
				0.034198880195617676,
				13.406744956970215
			],
			"min":[
				6.158688545227051,
				-12.852439880371094,
				0.5181141495704651
			],
			"type":"VEC3"
		},
		{
			"bufferView":101,
			"componentType":5126,
			"count":48,
			"type":"VEC3"
		},
		{
			"bufferView":102,
			"componentType":5126,
			"count":48,
			"type":"VEC2"
		},
		{
			"bufferView":103,
			"componentType":5123,
			"count":72,
			"type":"SCALAR"
		},
		{
			"bufferView":104,
			"componentType":5126,
			"count":1078,
			"max":[
				12.839523315429688,
				7.759029388427734,
				21.13157081604004
			],
			"min":[
				-0.9396517872810364,
				-20.577268600463867,
				-7.206716060638428
			],
			"type":"VEC3"
		},
		{
			"bufferView":105,
			"componentType":5126,
			"count":1078,
			"type":"VEC3"
		},
		{
			"bufferView":106,
			"componentType":5126,
			"count":1078,
			"type":"VEC2"
		},
		{
			"bufferView":107,
			"componentType":5123,
			"count":1626,
			"type":"SCALAR"
		},
		{
			"bufferView":108,
			"componentType":5126,
			"count":176,
			"max":[
				12.530007362365723,
				4.9113450050354,
				18.281661987304688
			],
			"min":[
				11.089787483215332,
				-17.728036880493164,
				-4.357324600219727
			],
			"type":"VEC3"
		},
		{
			"bufferView":109,
			"componentType":5126,
			"count":176,
			"type":"VEC3"
		},
		{
			"bufferView":110,
			"componentType":5126,
			"count":176,
			"type":"VEC2"
		},
		{
			"bufferView":111,
			"componentType":5123,
			"count":240,
			"type":"SCALAR"
		},
		{
			"bufferView":112,
			"componentType":5126,
			"count":218,
			"max":[
				6.583573818206787,
				0.6815977096557617,
				14.054949760437012
			],
			"min":[
				-1.7205544710159302,
				-13.499852180480957,
				-0.13047552108764648
			],
			"type":"VEC3"
		},
		{
			"bufferView":113,
			"componentType":5126,
			"count":218,
			"type":"VEC3"
		},
		{
			"bufferView":114,
			"componentType":5126,
			"count":218,
			"type":"VEC2"
		},
		{
			"bufferView":115,
			"componentType":5123,
			"count":606,
			"type":"SCALAR"
		},
		{
			"bufferView":116,
			"componentType":5126,
			"count":10,
			"max":[
				10.797565460205078,
				6.642220497131348,
				19.934324264526367
			],
			"min":[
				10.614320755004883,
				-19.42681884765625,
				-6.089909076690674
			],
			"type":"VEC3"
		},
		{
			"bufferView":117,
			"componentType":5126,
			"count":10,
			"type":"VEC3"
		},
		{
			"bufferView":118,
			"componentType":5126,
			"count":10,
			"type":"VEC2"
		},
		{
			"bufferView":119,
			"componentType":5123,
			"count":12,
			"type":"SCALAR"
		},
		{
			"bufferView":120,
			"componentType":5126,
			"count":43,
			"max":[
				49.40597152709961,
				49.52341842651367,
				2.109370470046997
			],
			"min":[
				-49.44493865966797,
				-49.523521423339844,
				-6.8711042404174805
			],
			"type":"VEC3"
		},
		{
			"bufferView":121,
			"componentType":5126,
			"count":43,
			"type":"VEC3"
		},
		{
			"bufferView":122,
			"componentType":5126,
			"count":43,
			"type":"VEC2"
		},
		{
			"bufferView":123,
			"componentType":5123,
			"count":63,
			"type":"SCALAR"
		},
		{
			"bufferView":124,
			"componentType":5126,
			"count":1225,
			"max":[
				48.101356506347656,
				48.32044219970703,
				2.4398458003997803
			],
			"min":[
				-48.31135177612305,
				-48.2936897277832,
				-7.6205573081970215
			],
			"type":"VEC3"
		},
		{
			"bufferView":125,
			"componentType":5126,
			"count":1225,
			"type":"VEC3"
		},
		{
			"bufferView":126,
			"componentType":5126,
			"count":1225,
			"type":"VEC2"
		},
		{
			"bufferView":127,
			"componentType":5123,
			"count":1629,
			"type":"SCALAR"
		},
		{
			"bufferView":128,
			"componentType":5126,
			"count":44,
			"max":[
				49.4210319519043,
				49.54521560668945,
				2.1760969161987305
			],
			"min":[
				-49.46546936035156,
				-49.54437255859375,
				-6.260320663452148
			],
			"type":"VEC3"
		},
		{
			"bufferView":129,
			"componentType":5126,
			"count":44,
			"type":"VEC3"
		},
		{
			"bufferView":130,
			"componentType":5126,
			"count":44,
			"type":"VEC2"
		},
		{
			"bufferView":131,
			"componentType":5123,
			"count":57,
			"type":"SCALAR"
		},
		{
			"bufferView":132,
			"componentType":5126,
			"count":41,
			"max":[
				4.763594627380371,
				4.781332492828369,
				4.127310752868652
			],
			"min":[
				-4.763594627380371,
				-4.763594627380371,
				1.4191163778305054
			],
			"type":"VEC3"
		},
		{
			"bufferView":133,
			"componentType":5126,
			"count":41,
			"type":"VEC3"
		},
		{
			"bufferView":134,
			"componentType":5126,
			"count":41,
			"type":"VEC2"
		},
		{
			"bufferView":135,
			"componentType":5123,
			"count":126,
			"type":"SCALAR"
		},
		{
			"bufferView":136,
			"componentType":5126,
			"count":1436,
			"max":[
				6.801507949829102,
				6.800348281860352,
				8.651493072509766
			],
			"min":[
				-6.717155456542969,
				-6.716101169586182,
				3.1560661792755127
			],
			"type":"VEC3"
		},
		{
			"bufferView":137,
			"componentType":5126,
			"count":1436,
			"type":"VEC3"
		},
		{
			"bufferView":138,
			"componentType":5126,
			"count":1436,
			"type":"VEC2"
		},
		{
			"bufferView":139,
			"componentType":5123,
			"count":2199,
			"type":"SCALAR"
		},
		{
			"bufferView":140,
			"componentType":5126,
			"count":85,
			"max":[
				2.9330732822418213,
				2.892038106918335,
				8.907007217407227
			],
			"min":[
				-3.012206792831421,
				-2.8781564235687256,
				2.4480838775634766
			],
			"type":"VEC3"
		},
		{
			"bufferView":141,
			"componentType":5126,
			"count":85,
			"type":"VEC3"
		},
		{
			"bufferView":142,
			"componentType":5126,
			"count":85,
			"type":"VEC2"
		},
		{
			"bufferView":143,
			"componentType":5123,
			"count":219,
			"type":"SCALAR"
		},
		{
			"bufferView":144,
			"componentType":5126,
			"count":2299,
			"max":[
				3.6044788360595703,
				3.602708101272583,
				7.897452354431152
			],
			"min":[
				-3.5497488975524902,
				-3.536764621734619,
				2.4480838775634766
			],
			"type":"VEC3"
		},
		{
			"bufferView":145,
			"componentType":5126,
			"count":2299,
			"type":"VEC3"
		},
		{
			"bufferView":146,
			"componentType":5126,
			"count":2299,
			"type":"VEC2"
		},
		{
			"bufferView":147,
			"componentType":5123,
			"count":3465,
			"type":"SCALAR"
		},
		{
			"bufferView":148,
			"componentType":5126,
			"count":17,
			"max":[
				6.287675380706787,
				6.252567291259766,
				7.446458339691162
			],
			"min":[
				-6.200464248657227,
				-6.219323635101318,
				7.355870723724365
			],
			"type":"VEC3"
		},
		{
			"bufferView":149,
			"componentType":5126,
			"count":17,
			"type":"VEC3"
		},
		{
			"bufferView":150,
			"componentType":5126,
			"count":17,
			"type":"VEC2"
		},
		{
			"bufferView":151,
			"componentType":5123,
			"count":21,
			"type":"SCALAR"
		},
		{
			"bufferView":152,
			"componentType":5126,
			"count":231,
			"max":[
				4.350747108459473,
				4.369740009307861,
				8.412672996520996
			],
			"min":[
				-4.33400297164917,
				-4.306330680847168,
				4.349636077880859
			],
			"type":"VEC3"
		},
		{
			"bufferView":153,
			"componentType":5126,
			"count":231,
			"type":"VEC3"
		},
		{
			"bufferView":154,
			"componentType":5126,
			"count":231,
			"type":"VEC2"
		},
		{
			"bufferView":155,
			"componentType":5123,
			"count":327,
			"type":"SCALAR"
		},
		{
			"bufferView":156,
			"componentType":5126,
			"count":86,
			"max":[
				6.35675573348999,
				6.35558557510376,
				7.379271507263184
			],
			"min":[
				-6.336507320404053,
				-6.324028968811035,
				6.702293872833252
			],
			"type":"VEC3"
		},
		{
			"bufferView":157,
			"componentType":5126,
			"count":86,
			"type":"VEC3"
		},
		{
			"bufferView":158,
			"componentType":5126,
			"count":86,
			"type":"VEC2"
		},
		{
			"bufferView":159,
			"componentType":5123,
			"count":120,
			"type":"SCALAR"
		},
		{
			"bufferView":160,
			"componentType":5126,
			"count":4044,
			"max":[
				3.896904706954956,
				3.881564140319824,
				0.007010016590356827
			],
			"min":[
				-3.8654472827911377,
				-3.8853161334991455,
				-7.9672746658325195
			],
			"type":"VEC3"
		},
		{
			"bufferView":161,
			"componentType":5126,
			"count":4044,
			"type":"VEC3"
		},
		{
			"bufferView":162,
			"componentType":5126,
			"count":4044,
			"type":"VEC2"
		},
		{
			"bufferView":163,
			"componentType":5123,
			"count":9561,
			"type":"SCALAR"
		},
		{
			"bufferView":164,
			"componentType":5126,
			"count":423,
			"max":[
				1.2400000095367432,
				1.2400000095367432,
				13.965248107910156
			],
			"min":[
				-1.2400000095367432,
				-1.2400000095367432,
				0.1746184378862381
			],
			"type":"VEC3"
		},
		{
			"bufferView":165,
			"componentType":5126,
			"count":423,
			"type":"VEC3"
		},
		{
			"bufferView":166,
			"componentType":5126,
			"count":423,
			"type":"VEC2"
		},
		{
			"bufferView":167,
			"componentType":5123,
			"count":735,
			"type":"SCALAR"
		}
	],
	"bufferViews":[
		{
			"buffer":0,
			"byteLength":96,
			"byteOffset":0,
			"target":34962
		},
		{
			"buffer":0,
			"byteLength":96,
			"byteOffset":96,
			"target":34962
		},
		{
			"buffer":0,
			"byteLength":64,
			"byteOffset":192,
			"target":34962
		},
		{
			"buffer":0,
			"byteLength":24,
			"byteOffset":256,
			"target":34963
		},
		{
			"buffer":0,
			"byteLength":192,
			"byteOffset":280,
			"target":34962
		},
		{
			"buffer":0,
			"byteLength":192,
			"byteOffset":472,
			"target":34962
		},
		{
			"buffer":0,
			"byteLength":128,
			"byteOffset":664,
			"target":34962
		},
		{
			"buffer":0,
			"byteLength":48,
			"byteOffset":792,
			"target":34963
		},
		{
			"buffer":0,
			"byteLength":12432,
			"byteOffset":840,
			"target":34962
		},
		{
			"buffer":0,
			"byteLength":12432,
			"byteOffset":13272,
			"target":34962
		},
		{
			"buffer":0,
			"byteLength":8288,
			"byteOffset":25704,
			"target":34962
		},
		{
			"buffer":0,
			"byteLength":3048,
			"byteOffset":33992,
			"target":34963
		},
		{
			"buffer":0,
			"byteLength":14280,
			"byteOffset":37040,
			"target":34962
		},
		{
			"buffer":0,
			"byteLength":14280,
			"byteOffset":51320,
			"target":34962
		},
		{
			"buffer":0,
			"byteLength":9520,
			"byteOffset":65600,
			"target":34962
		},
		{
			"buffer":0,
			"byteLength":3900,
			"byteOffset":75120,
			"target":34963
		},
		{
			"buffer":0,
			"byteLength":4440,
			"byteOffset":79020,
			"target":34962
		},
		{
			"buffer":0,
			"byteLength":4440,
			"byteOffset":83460,
			"target":34962
		},
		{
			"buffer":0,
			"byteLength":2960,
			"byteOffset":87900,
			"target":34962
		},
		{
			"buffer":0,
			"byteLength":2220,
			"byteOffset":90860,
			"target":34963
		},
		{
			"buffer":0,
			"byteLength":7584,
			"byteOffset":93080,
			"target":34962
		},
		{
			"buffer":0,
			"byteLength":7584,
			"byteOffset":100664,
			"target":34962
		},
		{
			"buffer":0,
			"byteLength":5056,
			"byteOffset":108248,
			"target":34962
		},
		{
			"buffer":0,
			"byteLength":1896,
			"byteOffset":113304,
			"target":34963
		},
		{
			"buffer":0,
			"byteLength":288,
			"byteOffset":115200,
			"target":34962
		},
		{
			"buffer":0,
			"byteLength":288,
			"byteOffset":115488,
			"target":34962
		},
		{
			"buffer":0,
			"byteLength":192,
			"byteOffset":115776,
			"target":34962
		},
		{
			"buffer":0,
			"byteLength":72,
			"byteOffset":115968,
			"target":34963
		},
		{
			"buffer":0,
			"byteLength":144,
			"byteOffset":116040,
			"target":34962
		},
		{
			"buffer":0,
			"byteLength":144,
			"byteOffset":116184,
			"target":34962
		},
		{
			"buffer":0,
			"byteLength":96,
			"byteOffset":116328,
			"target":34962
		},
		{
			"buffer":0,
			"byteLength":24,
			"byteOffset":116424,
			"target":34963
		},
		{
			"buffer":0,
			"byteLength":576,
			"byteOffset":116448,
			"target":34962
		},
		{
			"buffer":0,
			"byteLength":576,
			"byteOffset":117024,
			"target":34962
		},
		{
			"buffer":0,
			"byteLength":384,
			"byteOffset":117600,
			"target":34962
		},
		{
			"buffer":0,
			"byteLength":144,
			"byteOffset":117984,
			"target":34963
		},
		{
			"buffer":0,
			"byteLength":384,
			"byteOffset":118128,
			"target":34962
		},
		{
			"buffer":0,
			"byteLength":384,
			"byteOffset":118512,
			"target":34962
		},
		{
			"buffer":0,
			"byteLength":256,
			"byteOffset":118896,
			"target":34962
		},
		{
			"buffer":0,
			"byteLength":84,
			"byteOffset":119152,
			"target":34963
		},
		{
			"buffer":0,
			"byteLength":288,
			"byteOffset":119236,
			"target":34962
		},
		{
			"buffer":0,
			"byteLength":288,
			"byteOffset":119524,
			"target":34962
		},
		{
			"buffer":0,
			"byteLength":192,
			"byteOffset":119812,
			"target":34962
		},
		{
			"buffer":0,
			"byteLength":144,
			"byteOffset":120004,
			"target":34962
		},
		{
			"buffer":0,
			"byteLength":144,
			"byteOffset":120148,
			"target":34962
		},
		{
			"buffer":0,
			"byteLength":96,
			"byteOffset":120292,
			"target":34962
		},
		{
			"buffer":0,
			"byteLength":576,
			"byteOffset":120388,
			"target":34962
		},
		{
			"buffer":0,
			"byteLength":576,
			"byteOffset":120964,
			"target":34962
		},
		{
			"buffer":0,
			"byteLength":384,
			"byteOffset":121540,
			"target":34962
		},
		{
			"buffer":0,
			"byteLength":384,
			"byteOffset":121924,
			"target":34962
		},
		{
			"buffer":0,
			"byteLength":384,
			"byteOffset":122308,
			"target":34962
		},
		{
			"buffer":0,
			"byteLength":256,
			"byteOffset":122692,
			"target":34962
		},
		{
			"buffer":0,
			"byteLength":288,
			"byteOffset":122948,
			"target":34962
		},
		{
			"buffer":0,
			"byteLength":288,
			"byteOffset":123236,
			"target":34962
		},
		{
			"buffer":0,
			"byteLength":192,
			"byteOffset":123524,
			"target":34962
		},
		{
			"buffer":0,
			"byteLength":144,
			"byteOffset":123716,
			"target":34962
		},
		{
			"buffer":0,
			"byteLength":144,
			"byteOffset":123860,
			"target":34962
		},
		{
			"buffer":0,
			"byteLength":96,
			"byteOffset":124004,
			"target":34962
		},
		{
			"buffer":0,
			"byteLength":576,
			"byteOffset":124100,
			"target":34962
		},
		{
			"buffer":0,
			"byteLength":576,
			"byteOffset":124676,
			"target":34962
		},
		{
			"buffer":0,
			"byteLength":384,
			"byteOffset":125252,
			"target":34962
		},
		{
			"buffer":0,
			"byteLength":384,
			"byteOffset":125636,
			"target":34962
		},
		{
			"buffer":0,
			"byteLength":384,
			"byteOffset":126020,
			"target":34962
		},
		{
			"buffer":0,
			"byteLength":256,
			"byteOffset":126404,
			"target":34962
		},
		{
			"buffer":0,
			"byteLength":288,
			"byteOffset":126660,
			"target":34962
		},
		{
			"buffer":0,
			"byteLength":288,
			"byteOffset":126948,
			"target":34962
		},
		{
			"buffer":0,
			"byteLength":192,
			"byteOffset":127236,
			"target":34962
		},
		{
			"buffer":0,
			"byteLength":144,
			"byteOffset":127428,
			"target":34962
		},
		{
			"buffer":0,
			"byteLength":144,
			"byteOffset":127572,
			"target":34962
		},
		{
			"buffer":0,
			"byteLength":96,
			"byteOffset":127716,
			"target":34962
		},
		{
			"buffer":0,
			"byteLength":576,
			"byteOffset":127812,
			"target":34962
		},
		{
			"buffer":0,
			"byteLength":576,
			"byteOffset":128388,
			"target":34962
		},
		{
			"buffer":0,
			"byteLength":384,
			"byteOffset":128964,
			"target":34962
		},
		{
			"buffer":0,
			"byteLength":384,
			"byteOffset":129348,
			"target":34962
		},
		{
			"buffer":0,
			"byteLength":384,
			"byteOffset":129732,
			"target":34962
		},
		{
			"buffer":0,
			"byteLength":256,
			"byteOffset":130116,
			"target":34962
		},
		{
			"buffer":0,
			"byteLength":960,
			"byteOffset":130372,
			"target":34962
		},
		{
			"buffer":0,
			"byteLength":960,
			"byteOffset":131332,
			"target":34962
		},
		{
			"buffer":0,
			"byteLength":640,
			"byteOffset":132292,
			"target":34962
		},
		{
			"buffer":0,
			"byteLength":204,
			"byteOffset":132932,
			"target":34963
		},
		{
			"buffer":0,
			"byteLength":49956,
			"byteOffset":133136,
			"target":34962
		},
		{
			"buffer":0,
			"byteLength":49956,
			"byteOffset":183092,
			"target":34962
		},
		{
			"buffer":0,
			"byteLength":33304,
			"byteOffset":233048,
			"target":34962
		},
		{
			"buffer":0,
			"byteLength":10794,
			"byteOffset":266352,
			"target":34963
		},
		{
			"buffer":0,
			"byteLength":480,
			"byteOffset":277148,
			"target":34962
		},
		{
			"buffer":0,
			"byteLength":480,
			"byteOffset":277628,
			"target":34962
		},
		{
			"buffer":0,
			"byteLength":320,
			"byteOffset":278108,
			"target":34962
		},
		{
			"buffer":0,
			"byteLength":96,
			"byteOffset":278428,
			"target":34963
		},
		{
			"buffer":0,
			"byteLength":576,
			"byteOffset":278524,
			"target":34962
		},
		{
			"buffer":0,
			"byteLength":576,
			"byteOffset":279100,
			"target":34962
		},
		{
			"buffer":0,
			"byteLength":384,
			"byteOffset":279676,
			"target":34962
		},
		{
			"buffer":0,
			"byteLength":144,
			"byteOffset":280060,
			"target":34963
		},
		{
			"buffer":0,
			"byteLength":30972,
			"byteOffset":280204,
			"target":34962
		},
		{
			"buffer":0,
			"byteLength":30972,
			"byteOffset":311176,
			"target":34962
		},
		{
			"buffer":0,
			"byteLength":20648,
			"byteOffset":342148,
			"target":34962
		},
		{
			"buffer":0,
			"byteLength":7230,
			"byteOffset":362796,
			"target":34963
		},
		{
			"buffer":0,
			"byteLength":756,
			"byteOffset":370028,
			"target":34962
		},
		{
			"buffer":0,
			"byteLength":756,
			"byteOffset":370784,
			"target":34962
		},
		{
			"buffer":0,
			"byteLength":504,
			"byteOffset":371540,
			"target":34962
		},
		{
			"buffer":0,
			"byteLength":174,
			"byteOffset":372044,
			"target":34963
		},
		{
			"buffer":0,
			"byteLength":576,
			"byteOffset":372220,
			"target":34962
		},
		{
			"buffer":0,
			"byteLength":576,
			"byteOffset":372796,
			"target":34962
		},
		{
			"buffer":0,
			"byteLength":384,
			"byteOffset":373372,
			"target":34962
		},
		{
			"buffer":0,
			"byteLength":144,
			"byteOffset":373756,
			"target":34963
		},
		{
			"buffer":0,
			"byteLength":12936,
			"byteOffset":373900,
			"target":34962
		},
		{
			"buffer":0,
			"byteLength":12936,
			"byteOffset":386836,
			"target":34962
		},
		{
			"buffer":0,
			"byteLength":8624,
			"byteOffset":399772,
			"target":34962
		},
		{
			"buffer":0,
			"byteLength":3252,
			"byteOffset":408396,
			"target":34963
		},
		{
			"buffer":0,
			"byteLength":2112,
			"byteOffset":411648,
			"target":34962
		},
		{
			"buffer":0,
			"byteLength":2112,
			"byteOffset":413760,
			"target":34962
		},
		{
			"buffer":0,
			"byteLength":1408,
			"byteOffset":415872,
			"target":34962
		},
		{
			"buffer":0,
			"byteLength":480,
			"byteOffset":417280,
			"target":34963
		},
		{
			"buffer":0,
			"byteLength":2616,
			"byteOffset":417760,
			"target":34962
		},
		{
			"buffer":0,
			"byteLength":2616,
			"byteOffset":420376,
			"target":34962
		},
		{
			"buffer":0,
			"byteLength":1744,
			"byteOffset":422992,
			"target":34962
		},
		{
			"buffer":0,
			"byteLength":1212,
			"byteOffset":424736,
			"target":34963
		},
		{
			"buffer":0,
			"byteLength":120,
			"byteOffset":425948,
			"target":34962
		},
		{
			"buffer":0,
			"byteLength":120,
			"byteOffset":426068,
			"target":34962
		},
		{
			"buffer":0,
			"byteLength":80,
			"byteOffset":426188,
			"target":34962
		},
		{
			"buffer":0,
			"byteLength":24,
			"byteOffset":426268,
			"target":34963
		},
		{
			"buffer":0,
			"byteLength":516,
			"byteOffset":426292,
			"target":34962
		},
		{
			"buffer":0,
			"byteLength":516,
			"byteOffset":426808,
			"target":34962
		},
		{
			"buffer":0,
			"byteLength":344,
			"byteOffset":427324,
			"target":34962
		},
		{
			"buffer":0,
			"byteLength":126,
			"byteOffset":427668,
			"target":34963
		},
		{
			"buffer":0,
			"byteLength":14700,
			"byteOffset":427796,
			"target":34962
		},
		{
			"buffer":0,
			"byteLength":14700,
			"byteOffset":442496,
			"target":34962
		},
		{
			"buffer":0,
			"byteLength":9800,
			"byteOffset":457196,
			"target":34962
		},
		{
			"buffer":0,
			"byteLength":3258,
			"byteOffset":466996,
			"target":34963
		},
		{
			"buffer":0,
			"byteLength":528,
			"byteOffset":470256,
			"target":34962
		},
		{
			"buffer":0,
			"byteLength":528,
			"byteOffset":470784,
			"target":34962
		},
		{
			"buffer":0,
			"byteLength":352,
			"byteOffset":471312,
			"target":34962
		},
		{
			"buffer":0,
			"byteLength":114,
			"byteOffset":471664,
			"target":34963
		},
		{
			"buffer":0,
			"byteLength":492,
			"byteOffset":471780,
			"target":34962
		},
		{
			"buffer":0,
			"byteLength":492,
			"byteOffset":472272,
			"target":34962
		},
		{
			"buffer":0,
			"byteLength":328,
			"byteOffset":472764,
			"target":34962
		},
		{
			"buffer":0,
			"byteLength":252,
			"byteOffset":473092,
			"target":34963
		},
		{
			"buffer":0,
			"byteLength":17232,
			"byteOffset":473344,
			"target":34962
		},
		{
			"buffer":0,
			"byteLength":17232,
			"byteOffset":490576,
			"target":34962
		},
		{
			"buffer":0,
			"byteLength":11488,
			"byteOffset":507808,
			"target":34962
		},
		{
			"buffer":0,
			"byteLength":4398,
			"byteOffset":519296,
			"target":34963
		},
		{
			"buffer":0,
			"byteLength":1020,
			"byteOffset":523696,
			"target":34962
		},
		{
			"buffer":0,
			"byteLength":1020,
			"byteOffset":524716,
			"target":34962
		},
		{
			"buffer":0,
			"byteLength":680,
			"byteOffset":525736,
			"target":34962
		},
		{
			"buffer":0,
			"byteLength":438,
			"byteOffset":526416,
			"target":34963
		},
		{
			"buffer":0,
			"byteLength":27588,
			"byteOffset":526856,
			"target":34962
		},
		{
			"buffer":0,
			"byteLength":27588,
			"byteOffset":554444,
			"target":34962
		},
		{
			"buffer":0,
			"byteLength":18392,
			"byteOffset":582032,
			"target":34962
		},
		{
			"buffer":0,
			"byteLength":6930,
			"byteOffset":600424,
			"target":34963
		},
		{
			"buffer":0,
			"byteLength":204,
			"byteOffset":607356,
			"target":34962
		},
		{
			"buffer":0,
			"byteLength":204,
			"byteOffset":607560,
			"target":34962
		},
		{
			"buffer":0,
			"byteLength":136,
			"byteOffset":607764,
			"target":34962
		},
		{
			"buffer":0,
			"byteLength":42,
			"byteOffset":607900,
			"target":34963
		},
		{
			"buffer":0,
			"byteLength":2772,
			"byteOffset":607944,
			"target":34962
		},
		{
			"buffer":0,
			"byteLength":2772,
			"byteOffset":610716,
			"target":34962
		},
		{
			"buffer":0,
			"byteLength":1848,
			"byteOffset":613488,
			"target":34962
		},
		{
			"buffer":0,
			"byteLength":654,
			"byteOffset":615336,
			"target":34963
		},
		{
			"buffer":0,
			"byteLength":1032,
			"byteOffset":615992,
			"target":34962
		},
		{
			"buffer":0,
			"byteLength":1032,
			"byteOffset":617024,
			"target":34962
		},
		{
			"buffer":0,
			"byteLength":688,
			"byteOffset":618056,
			"target":34962
		},
		{
			"buffer":0,
			"byteLength":240,
			"byteOffset":618744,
			"target":34963
		},
		{
			"buffer":0,
			"byteLength":48528,
			"byteOffset":618984,
			"target":34962
		},
		{
			"buffer":0,
			"byteLength":48528,
			"byteOffset":667512,
			"target":34962
		},
		{
			"buffer":0,
			"byteLength":32352,
			"byteOffset":716040,
			"target":34962
		},
		{
			"buffer":0,
			"byteLength":19122,
			"byteOffset":748392,
			"target":34963
		},
		{
			"buffer":0,
			"byteLength":5076,
			"byteOffset":767516,
			"target":34962
		},
		{
			"buffer":0,
			"byteLength":5076,
			"byteOffset":772592,
			"target":34962
		},
		{
			"buffer":0,
			"byteLength":3384,
			"byteOffset":777668,
			"target":34962
		},
		{
			"buffer":0,
			"byteLength":1470,
			"byteOffset":781052,
			"target":34963
		}
	],
	"samplers":[
		{
			"magFilter":9729,
			"minFilter":9987
		}
	],
	"buffers":[
		{
			"byteLength":782524,
			"uri":"Pagoda_Tahoto_14m.bin"
		}
	]
}
