{
	"asset":{
		"generator":"Khronos glTF Blender I/O v4.4.56",
		"version":"2.0"
	},
	"extensionsUsed":[
		"KHR_texture_transform"
	],
	"extensionsRequired":[
		"KHR_texture_transform"
	],
	"scene":0,
	"scenes":[
		{
			"name":"Scene",
			"nodes":[
				20
			]
		}
	],
	"nodes":[
		{
			"mesh":0,
			"name":"Base_LOD0.001",
			"rotation":[
				-0.70710688829422,
				0,
				0,
				0.7071066498756409
			],
			"scale":[
				0.6668999791145325,
				0.6669000387191772,
				0.6214754581451416
			],
			"translation":[
				0.0409240648150444,
				-0.31139951944351196,
				0.018646955490112305
			]
		},
		{
			"children":[
				0
			],
			"name":"Base.001"
		},
		{
			"mesh":1,
			"name":"Door_EL_LOD0.001",
			"rotation":[
				-0.4995635449886322,
				-0.5004361271858215,
				-0.5004361271858215,
				0.4995635449886322
			],
			"translation":[
				2.167785406112671,
				1.112239956855774,
				0.4888201057910919
			]
		},
		{
			"mesh":2,
			"name":"Door_ER_LOD0.001",
			"rotation":[
				-0.4995635449886322,
				-0.5004361271858215,
				-0.5004361271858215,
				0.4995635449886322
			],
			"translation":[
				2.169250249862671,
				1.112239956855774,
				-0.5217310190200806
			]
		},
		{
			"mesh":3,
			"name":"Door_NL_LOD0.001",
			"rotation":[
				-0.7071065306663513,
				-0.0006170272827148438,
				-0.0006170273991301656,
				0.7071065306663513
			],
			"translation":[
				0.5348817706108093,
				1.112239956855774,
				-2.151118040084839
			]
		},
		{
			"mesh":4,
			"name":"Door_NR_LOD0.001",
			"rotation":[
				-0.7071065306663513,
				-0.0006170272827148438,
				-0.0006170273991301656,
				0.7071065306663513
			],
			"translation":[
				-0.4887387156486511,
				1.112239956855774,
				-2.152602195739746
			]
		},
		{
			"mesh":5,
			"name":"Door_SL_LOD0.001",
			"rotation":[
				-0.0006169079570099711,
				0.7071065306663513,
				0.7071065306663513,
				0.000616908073425293
			],
			"translation":[
				-0.4707338809967041,
				1.112239956855774,
				2.1255929470062256
			]
		},
		{
			"mesh":6,
			"name":"Door_SR_LOD0.001",
			"rotation":[
				-0.0006169079570099711,
				0.7071065306663513,
				0.7071065306663513,
				0.000616908073425293
			],
			"translation":[
				0.5402523875236511,
				1.112239956855774,
				2.127077102661133
			]
		},
		{
			"mesh":7,
			"name":"Door_WL_LOD0.001",
			"rotation":[
				-0.5004361271858215,
				0.4995635449886322,
				0.4995635449886322,
				0.5004361271858215
			],
			"translation":[
				-2.109588384628296,
				1.112239956855774,
				-0.5138363838195801
			]
		},
		{
			"mesh":8,
			"name":"Door_WR_LOD0.001",
			"rotation":[
				-0.5004361271858215,
				0.4995635449886322,
				0.4995635449886322,
				0.5004361271858215
			],
			"translation":[
				-2.111083745956421,
				1.112239956855774,
				0.49671515822410583
			]
		},
		{
			"children":[
				2,
				3,
				4,
				5,
				6,
				7,
				8,
				9
			],
			"name":"Doors.001"
		},
		{
			"mesh":9,
			"name":"Roof1_LOD0.001",
			"rotation":[
				-0.70710688829422,
				0,
				0,
				0.7071066498756409
			],
			"scale":[
				0.3455699682235718,
				0.34556999802589417,
				0.34556999802589417
			],
			"translation":[
				0.02618408203125,
				5.319314002990723,
				-0.01901989057660103
			]
		},
		{
			"mesh":10,
			"name":"Wall1_LOD0.001",
			"rotation":[
				0.499563604593277,
				0.499563604593277,
				0.5004361271858215,
				0.5004360675811768
			],
			"scale":[
				0.25645267963409424,
				0.3299695551395416,
				0.32996952533721924
			],
			"translation":[
				-2.27197265625,
				1.3532570600509644,
				2.098038911819458
			]
		},
		{
			"children":[
				11,
				12
			],
			"name":"Floor1.001"
		},
		{
			"mesh":11,
			"name":"Roof2_LOD0.001",
			"rotation":[
				-0.70710688829422,
				0,
				0,
				0.7071066498756409
			],
			"scale":[
				0.07731460779905319,
				0.07731451839208603,
				0.2815922796726227
			],
			"translation":[
				0.024566650390625,
				9.712060928344727,
				-0.020039793103933334
			]
		},
		{
			"mesh":12,
			"name":"Wall2_LOD0.001",
			"rotation":[
				-0.70710688829422,
				0,
				0,
				0.7071066498756409
			],
			"scale":[
				0.5674545764923096,
				0.5674546360969543,
				0.4708224833011627
			],
			"translation":[
				0.00750732421875,
				4.1681318283081055,
				-0.003887780709192157
			]
		},
		{
			"children":[
				14,
				15
			],
			"name":"Floor2.001"
		},
		{
			"mesh":13,
			"name":"Chainbell_LOD0.001",
			"rotation":[
				-0.5,
				0.5,
				0.5,
				0.5
			],
			"scale":[
				0.8079749941825867,
				0.8079749941825867,
				0.8079749345779419
			],
			"translation":[
				0.01409912109375,
				14.783430099487305,
				-0.008433996699750423
			]
		},
		{
			"mesh":14,
			"name":"Sorin_LOD0.001",
			"rotation":[
				-0.70710688829422,
				0,
				0,
				0.7071066498756409
			],
			"scale":[
				0.3815167546272278,
				0.38151678442955017,
				0.38151678442955017
			],
			"translation":[
				0.01422119140625,
				10.341730117797852,
				-0.008453267626464367
			]
		},
		{
			"children":[
				17,
				18
			],
			"name":"Sorin.001"
		},
		{
			"children":[
				1,
				10,
				13,
				16,
				19
			],
			"name":"Pagoda_Tahoto_15m"
		}
	],
	"materials":[
		{
			"doubleSided":true,
			"name":"mat_wood_plank_03.002",
			"pbrMetallicRoughness":{
				"baseColorTexture":{
					"index":0
				},
				"metallicFactor":0
			}
		},
		{
			"doubleSided":true,
			"name":"mat_wood_pillar_03",
			"pbrMetallicRoughness":{
				"baseColorTexture":{
					"extensions":{
						"KHR_texture_transform":{
							"offset":[
								0,
								0.5
							],
							"scale":[
								0.5,
								0.5
							]
						}
					},
					"index":1
				},
				"metallicFactor":0
			}
		},
		{
			"doubleSided":true,
			"name":"mat_wood_beam_03",
			"pbrMetallicRoughness":{
				"baseColorTexture":{
					"extensions":{
						"KHR_texture_transform":{
							"offset":[
								0,
								0.5
							],
							"scale":[
								0.5,
								0.5
							]
						}
					},
					"index":2
				},
				"metallicFactor":0
			}
		},
		{
			"doubleSided":true,
			"name":"mat_metal_copper_antique_01.002",
			"pbrMetallicRoughness":{
				"baseColorTexture":{
					"index":3
				},
				"metallicFactor":0
			}
		},
		{
			"doubleSided":true,
			"name":"mat_basalt_base_01.002",
			"pbrMetallicRoughness":{
				"baseColorTexture":{
					"extensions":{
						"KHR_texture_transform":{
							"offset":[
								0,
								0.6500000059604645
							],
							"scale":[
								0.3499999940395355,
								0.3499999940395355
							]
						}
					},
					"index":4
				},
				"metallicFactor":0
			}
		},
		{
			"doubleSided":true,
			"name":"mat_wood_wall_01.002",
			"pbrMetallicRoughness":{
				"baseColorFactor":[
					0.5583404898643494,
					0.4564109742641449,
					0.3467040956020355,
					1
				],
				"baseColorTexture":{
					"extensions":{
						"KHR_texture_transform":{
							"offset":[
								0,
								0.5
							],
							"scale":[
								0.5,
								0.5
							]
						}
					},
					"index":5
				},
				"metallicFactor":0
			}
		},
		{
			"name":"mat_decal_pagoda_01.002"
		},
		{
			"doubleSided":true,
			"name":"mat_clay_tile_02.002",
			"pbrMetallicRoughness":{
				"baseColorTexture":{
					"extensions":{
						"KHR_texture_transform":{
							"offset":[
								0,
								0.5
							],
							"scale":[
								0.5,
								0.5
							]
						}
					},
					"index":6
				},
				"metallicFactor":0
			}
		},
		{
			"doubleSided":true,
			"name":"mat_wood_paint_white_01.002",
			"pbrMetallicRoughness":{
				"baseColorFactor":[
					0.5711249113082886,
					0.4969330430030823,
					0.4125427007675171,
					1
				],
				"baseColorTexture":{
					"extensions":{
						"KHR_texture_transform":{
							"offset":[
								0,
								0.5
							],
							"scale":[
								0.5,
								0.5
							]
						}
					},
					"index":7
				},
				"metallicFactor":0
			}
		},
		{
			"doubleSided":true,
			"name":"mat_clay_fired_01.002",
			"pbrMetallicRoughness":{
				"baseColorTexture":{
					"extensions":{
						"KHR_texture_transform":{
							"offset":[
								0,
								0.5
							],
							"scale":[
								0.5,
								0.5
							]
						}
					},
					"index":8
				},
				"metallicFactor":0
			}
		},
		{
			"doubleSided":true,
			"name":"mat_clay_tile_01.002",
			"pbrMetallicRoughness":{
				"baseColorTexture":{
					"extensions":{
						"KHR_texture_transform":{
							"offset":[
								0,
								0.5
							],
							"scale":[
								0.5,
								0.5
							]
						}
					},
					"index":9
				},
				"metallicFactor":0
			}
		},
		{
			"doubleSided":true,
			"name":"mat_metal_copper_patina_01.002",
			"pbrMetallicRoughness":{
				"baseColorTexture":{
					"extensions":{
						"KHR_texture_transform":{
							"offset":[
								0,
								0.5
							],
							"scale":[
								0.5,
								0.5
							]
						}
					},
					"index":10
				},
				"metallicFactor":0
			}
		},
		{
			"doubleSided":true,
			"name":"mat_plaster_wall_01.001",
			"pbrMetallicRoughness":{
				"baseColorTexture":{
					"extensions":{
						"KHR_texture_transform":{
							"offset":[
								0,
								0.5
							],
							"scale":[
								0.5,
								0.5
							]
						}
					},
					"index":11
				},
				"metallicFactor":0
			}
		}
	],
	"meshes":[
		{
			"name":"Base_LOD0.002",
			"primitives":[
				{
					"attributes":{
						"POSITION":0,
						"NORMAL":1,
						"TEXCOORD_0":2
					},
					"indices":3,
					"material":0
				},
				{
					"attributes":{
						"POSITION":4,
						"NORMAL":5,
						"TEXCOORD_0":6
					},
					"indices":7,
					"material":1
				},
				{
					"attributes":{
						"POSITION":8,
						"NORMAL":9,
						"TEXCOORD_0":10
					},
					"indices":11,
					"material":2
				},
				{
					"attributes":{
						"POSITION":12,
						"NORMAL":13,
						"TEXCOORD_0":14
					},
					"indices":15,
					"material":3
				},
				{
					"attributes":{
						"POSITION":16,
						"NORMAL":17,
						"TEXCOORD_0":18
					},
					"indices":19,
					"material":4
				}
			]
		},
		{
			"name":"Door_EL_LOD0.002",
			"primitives":[
				{
					"attributes":{
						"POSITION":20,
						"NORMAL":21,
						"TEXCOORD_0":22
					},
					"indices":23,
					"material":5
				},
				{
					"attributes":{
						"POSITION":24,
						"NORMAL":25,
						"TEXCOORD_0":26
					},
					"indices":27,
					"material":6
				}
			]
		},
		{
			"name":"Door_ER_LOD0.002",
			"primitives":[
				{
					"attributes":{
						"POSITION":28,
						"NORMAL":29,
						"TEXCOORD_0":30
					},
					"indices":31,
					"material":5
				},
				{
					"attributes":{
						"POSITION":32,
						"NORMAL":33,
						"TEXCOORD_0":34
					},
					"indices":35,
					"material":6
				}
			]
		},
		{
			"name":"Door_NL_LOD0.002",
			"primitives":[
				{
					"attributes":{
						"POSITION":36,
						"NORMAL":37,
						"TEXCOORD_0":38
					},
					"indices":23,
					"material":5
				},
				{
					"attributes":{
						"POSITION":39,
						"NORMAL":40,
						"TEXCOORD_0":41
					},
					"indices":27,
					"material":6
				}
			]
		},
		{
			"name":"Door_NR_LOD0.002",
			"primitives":[
				{
					"attributes":{
						"POSITION":42,
						"NORMAL":43,
						"TEXCOORD_0":44
					},
					"indices":31,
					"material":5
				},
				{
					"attributes":{
						"POSITION":45,
						"NORMAL":46,
						"TEXCOORD_0":47
					},
					"indices":35,
					"material":6
				}
			]
		},
		{
			"name":"Door_SL_LOD0.002",
			"primitives":[
				{
					"attributes":{
						"POSITION":48,
						"NORMAL":49,
						"TEXCOORD_0":50
					},
					"indices":23,
					"material":5
				},
				{
					"attributes":{
						"POSITION":51,
						"NORMAL":52,
						"TEXCOORD_0":53
					},
					"indices":27,
					"material":6
				}
			]
		},
		{
			"name":"Door_SR_LOD0.002",
			"primitives":[
				{
					"attributes":{
						"POSITION":54,
						"NORMAL":55,
						"TEXCOORD_0":56
					},
					"indices":31,
					"material":5
				},
				{
					"attributes":{
						"POSITION":57,
						"NORMAL":58,
						"TEXCOORD_0":59
					},
					"indices":35,
					"material":6
				}
			]
		},
		{
			"name":"Door_WL_LOD0.002",
			"primitives":[
				{
					"attributes":{
						"POSITION":60,
						"NORMAL":61,
						"TEXCOORD_0":62
					},
					"indices":23,
					"material":5
				},
				{
					"attributes":{
						"POSITION":63,
						"NORMAL":64,
						"TEXCOORD_0":65
					},
					"indices":27,
					"material":6
				}
			]
		},
		{
			"name":"Door_WR_LOD0.002",
			"primitives":[
				{
					"attributes":{
						"POSITION":66,
						"NORMAL":67,
						"TEXCOORD_0":68
					},
					"indices":31,
					"material":5
				},
				{
					"attributes":{
						"POSITION":69,
						"NORMAL":70,
						"TEXCOORD_0":71
					},
					"indices":35,
					"material":6
				}
			]
		},
		{
			"name":"Roof1_LOD0.002",
			"primitives":[
				{
					"attributes":{
						"POSITION":72,
						"NORMAL":73,
						"TEXCOORD_0":74
					},
					"indices":75,
					"material":1
				},
				{
					"attributes":{
						"POSITION":76,
						"NORMAL":77,
						"TEXCOORD_0":78
					},
					"indices":79,
					"material":7
				},
				{
					"attributes":{
						"POSITION":80,
						"NORMAL":81,
						"TEXCOORD_0":82
					},
					"indices":83,
					"material":0
				},
				{
					"attributes":{
						"POSITION":84,
						"NORMAL":85,
						"TEXCOORD_0":86
					},
					"indices":87,
					"material":8
				},
				{
					"attributes":{
						"POSITION":88,
						"NORMAL":89,
						"TEXCOORD_0":90
					},
					"indices":91,
					"material":9
				},
				{
					"attributes":{
						"POSITION":92,
						"NORMAL":93,
						"TEXCOORD_0":94
					},
					"indices":95,
					"material":10
				},
				{
					"attributes":{
						"POSITION":96,
						"NORMAL":97,
						"TEXCOORD_0":98
					},
					"indices":99,
					"material":6
				}
			]
		},
		{
			"name":"Wall1_LOD0.002",
			"primitives":[
				{
					"attributes":{
						"POSITION":100,
						"NORMAL":101,
						"TEXCOORD_0":102
					},
					"indices":103,
					"material":2
				},
				{
					"attributes":{
						"POSITION":104,
						"NORMAL":105,
						"TEXCOORD_0":106
					},
					"indices":107,
					"material":3
				},
				{
					"attributes":{
						"POSITION":108,
						"NORMAL":109,
						"TEXCOORD_0":110
					},
					"indices":111,
					"material":8
				},
				{
					"attributes":{
						"POSITION":112,
						"NORMAL":113,
						"TEXCOORD_0":114
					},
					"indices":115,
					"material":1
				},
				{
					"attributes":{
						"POSITION":116,
						"NORMAL":117,
						"TEXCOORD_0":118
					},
					"indices":119,
					"material":0
				},
				{
					"attributes":{
						"POSITION":120,
						"NORMAL":121,
						"TEXCOORD_0":122
					},
					"indices":123,
					"material":6
				},
				{
					"attributes":{
						"POSITION":124,
						"NORMAL":125,
						"TEXCOORD_0":126
					},
					"indices":127,
					"material":11
				}
			]
		},
		{
			"name":"Roof2_LOD0.002",
			"primitives":[
				{
					"attributes":{
						"POSITION":128,
						"NORMAL":129,
						"TEXCOORD_0":130
					},
					"indices":131,
					"material":0
				},
				{
					"attributes":{
						"POSITION":132,
						"NORMAL":133,
						"TEXCOORD_0":134
					},
					"indices":135,
					"material":1
				},
				{
					"attributes":{
						"POSITION":136,
						"NORMAL":137,
						"TEXCOORD_0":138
					},
					"indices":139,
					"material":10
				},
				{
					"attributes":{
						"POSITION":140,
						"NORMAL":141,
						"TEXCOORD_0":142
					},
					"indices":143,
					"material":8
				},
				{
					"attributes":{
						"POSITION":144,
						"NORMAL":145,
						"TEXCOORD_0":146
					},
					"indices":147,
					"material":7
				},
				{
					"attributes":{
						"POSITION":148,
						"NORMAL":149,
						"TEXCOORD_0":150
					},
					"indices":151,
					"material":9
				},
				{
					"attributes":{
						"POSITION":152,
						"NORMAL":153,
						"TEXCOORD_0":154
					},
					"indices":155,
					"material":6
				}
			]
		},
		{
			"name":"Wall2_LOD0.002",
			"primitives":[
				{
					"attributes":{
						"POSITION":156,
						"NORMAL":157,
						"TEXCOORD_0":158
					},
					"indices":159,
					"material":12
				},
				{
					"attributes":{
						"POSITION":160,
						"NORMAL":161,
						"TEXCOORD_0":162
					},
					"indices":163,
					"material":1
				},
				{
					"attributes":{
						"POSITION":164,
						"NORMAL":165,
						"TEXCOORD_0":166
					},
					"indices":167,
					"material":8
				},
				{
					"attributes":{
						"POSITION":168,
						"NORMAL":169,
						"TEXCOORD_0":170
					},
					"indices":171,
					"material":2
				},
				{
					"attributes":{
						"POSITION":172,
						"NORMAL":173,
						"TEXCOORD_0":174
					},
					"indices":175,
					"material":11
				},
				{
					"attributes":{
						"POSITION":176,
						"NORMAL":177,
						"TEXCOORD_0":178
					},
					"indices":179,
					"material":0
				},
				{
					"attributes":{
						"POSITION":180,
						"NORMAL":181,
						"TEXCOORD_0":182
					},
					"indices":183,
					"material":3
				}
			]
		},
		{
			"name":"Chainbell_LOD0.001",
			"primitives":[
				{
					"attributes":{
						"POSITION":184,
						"NORMAL":185,
						"TEXCOORD_0":186
					},
					"indices":187,
					"material":11
				},
				{
					"attributes":{
						"POSITION":188,
						"NORMAL":189,
						"TEXCOORD_0":190
					},
					"indices":191,
					"material":3
				}
			]
		},
		{
			"name":"Sorin_LOD0.002",
			"primitives":[
				{
					"attributes":{
						"POSITION":192,
						"NORMAL":193,
						"TEXCOORD_0":194
					},
					"indices":195,
					"material":3
				}
			]
		}
	],
	"textures":[
		{
			"sampler":0,
			"source":0
		},
		{
			"sampler":0,
			"source":1
		},
		{
			"sampler":0,
			"source":2
		},
		{
			"sampler":0,
			"source":3
		},
		{
			"sampler":0,
			"source":4
		},
		{
			"sampler":0,
			"source":5
		},
		{
			"sampler":0,
			"source":6
		},
		{
			"sampler":0,
			"source":7
		},
		{
			"sampler":0,
			"source":8
		},
		{
			"sampler":0,
			"source":9
		},
		{
			"sampler":0,
			"source":10
		},
		{
			"sampler":0,
			"source":11
		}
	],
	"images":[
		{
			"mimeType":"image/png",
			"name":"tex_wood_plank_03a",
			"uri":"tex_wood_plank_03a.png"
		},
		{
			"mimeType":"image/png",
			"name":"tex_wood_pillar_03a",
			"uri":"tex_wood_pillar_03a.png"
		},
		{
			"mimeType":"image/png",
			"name":"tex_wood_beam_03a",
			"uri":"tex_wood_beam_03a.png"
		},
		{
			"mimeType":"image/png",
			"name":"tex_metal_copper_antique_01a",
			"uri":"tex_metal_copper_antique_01a.png"
		},
		{
			"mimeType":"image/png",
			"name":"tex_basalt_base_01a",
			"uri":"tex_basalt_base_01a.png"
		},
		{
			"mimeType":"image/png",
			"name":"tex_wood_wall_01a",
			"uri":"tex_wood_wall_01a.png"
		},
		{
			"mimeType":"image/png",
			"name":"tex_clay_tile_02a",
			"uri":"tex_clay_tile_02a.png"
		},
		{
			"mimeType":"image/png",
			"name":"tex_wood_paint_03a",
			"uri":"tex_wood_paint_03a.png"
		},
		{
			"mimeType":"image/png",
			"name":"tex_clay_fired_01a",
			"uri":"tex_clay_fired_01a.png"
		},
		{
			"mimeType":"image/png",
			"name":"tex_clay_tile_01a",
			"uri":"tex_clay_tile_01a.png"
		},
		{
			"mimeType":"image/png",
			"name":"tex_metal_copper_patina_01a",
			"uri":"tex_metal_copper_patina_01a.png"
		},
		{
			"mimeType":"image/png",
			"name":"tex_plaster_base_01a",
			"uri":"tex_plaster_base_01a.png"
		}
	],
	"accessors":[
		{
			"bufferView":0,
			"componentType":5126,
			"count":8,
			"max":[
				6.591468334197998,
				6.671512603759766,
				1.9890313148498535
			],
			"min":[
				-6.636490821838379,
				-6.556446552276611,
				1.8560869693756104
			],
			"type":"VEC3"
		},
		{
			"bufferView":1,
			"componentType":5126,
			"count":8,
			"type":"VEC3"
		},
		{
			"bufferView":2,
			"componentType":5126,
			"count":8,
			"type":"VEC2"
		},
		{
			"bufferView":3,
			"componentType":5123,
			"count":12,
			"type":"SCALAR"
		},
		{
			"bufferView":4,
			"componentType":5126,
			"count":754,
			"max":[
				6.432421684265137,
				6.48386812210083,
				2.413114309310913
			],
			"min":[
				-6.460688591003418,
				-6.403453350067139,
				1.4984983205795288
			],
			"type":"VEC3"
		},
		{
			"bufferView":5,
			"componentType":5126,
			"count":754,
			"type":"VEC3"
		},
		{
			"bufferView":6,
			"componentType":5126,
			"count":754,
			"type":"VEC2"
		},
		{
			"bufferView":7,
			"componentType":5123,
			"count":1038,
			"type":"SCALAR"
		},
		{
			"bufferView":8,
			"componentType":5126,
			"count":174,
			"max":[
				6.481992244720459,
				6.547111988067627,
				3.0161163806915283
			],
			"min":[
				-6.5108842849731445,
				-6.463185787200928,
				0.399628609418869
			],
			"type":"VEC3"
		},
		{
			"bufferView":9,
			"componentType":5126,
			"count":174,
			"type":"VEC3"
		},
		{
			"bufferView":10,
			"componentType":5126,
			"count":174,
			"type":"VEC2"
		},
		{
			"bufferView":11,
			"componentType":5123,
			"count":282,
			"type":"SCALAR"
		},
		{
			"bufferView":12,
			"componentType":5126,
			"count":252,
			"max":[
				6.4855875968933105,
				6.552621364593506,
				3.731945514678955
			],
			"min":[
				-6.5229878425598145,
				-6.467594623565674,
				2.981651782989502
			],
			"type":"VEC3"
		},
		{
			"bufferView":13,
			"componentType":5126,
			"count":252,
			"type":"VEC3"
		},
		{
			"bufferView":14,
			"componentType":5126,
			"count":252,
			"type":"VEC2"
		},
		{
			"bufferView":15,
			"componentType":5123,
			"count":504,
			"type":"SCALAR"
		},
		{
			"bufferView":16,
			"componentType":5126,
			"count":632,
			"max":[
				8.047914505004883,
				8.113977432250977,
				1.6352927684783936
			],
			"min":[
				-8.081435203552246,
				-8.032758712768555,
				0.39171481132507324
			],
			"type":"VEC3"
		},
		{
			"bufferView":17,
			"componentType":5126,
			"count":632,
			"type":"VEC3"
		},
		{
			"bufferView":18,
			"componentType":5126,
			"count":632,
			"type":"VEC2"
		},
		{
			"bufferView":19,
			"componentType":5123,
			"count":948,
			"type":"SCALAR"
		},
		{
			"bufferView":20,
			"componentType":5126,
			"count":24,
			"max":[
				0.04078129306435585,
				0.02130194939672947,
				1.6466659307479858
			],
			"min":[
				-0.4964435398578644,
				-0.021440107375383377,
				0
			],
			"type":"VEC3"
		},
		{
			"bufferView":21,
			"componentType":5126,
			"count":24,
			"type":"VEC3"
		},
		{
			"bufferView":22,
			"componentType":5126,
			"count":24,
			"type":"VEC2"
		},
		{
			"bufferView":23,
			"componentType":5123,
			"count":36,
			"type":"SCALAR"
		},
		{
			"bufferView":24,
			"componentType":5126,
			"count":12,
			"max":[
				0.03217639401555061,
				0.023690396919846535,
				1.6286500692367554
			],
			"min":[
				-0.47191840410232544,
				0.023689989000558853,
				0.010899225249886513
			],
			"type":"VEC3"
		},
		{
			"bufferView":25,
			"componentType":5126,
			"count":12,
			"type":"VEC3"
		},
		{
			"bufferView":26,
			"componentType":5126,
			"count":12,
			"type":"VEC2"
		},
		{
			"bufferView":27,
			"componentType":5123,
			"count":12,
			"type":"SCALAR"
		},
		{
			"bufferView":28,
			"componentType":5126,
			"count":48,
			"max":[
				0.5410112142562866,
				0.033877357840538025,
				1.6466659307479858
			],
			"min":[
				-0.02594815567135811,
				-0.021297452971339226,
				0
			],
			"type":"VEC3"
		},
		{
			"bufferView":29,
			"componentType":5126,
			"count":48,
			"type":"VEC3"
		},
		{
			"bufferView":30,
			"componentType":5126,
			"count":48,
			"type":"VEC2"
		},
		{
			"bufferView":31,
			"componentType":5123,
			"count":72,
			"type":"SCALAR"
		},
		{
			"bufferView":32,
			"componentType":5126,
			"count":32,
			"max":[
				0.5410114526748657,
				0.03509951010346413,
				1.6286500692367554
			],
			"min":[
				-0.0179869644343853,
				0.023832235485315323,
				0.010899225249886513
			],
			"type":"VEC3"
		},
		{
			"bufferView":33,
			"componentType":5126,
			"count":32,
			"type":"VEC3"
		},
		{
			"bufferView":34,
			"componentType":5126,
			"count":32,
			"type":"VEC2"
		},
		{
			"bufferView":35,
			"componentType":5123,
			"count":42,
			"type":"SCALAR"
		},
		{
			"bufferView":36,
			"componentType":5126,
			"count":24,
			"max":[
				0.04130764305591583,
				0.021296339109539986,
				1.6466659307479858
			],
			"min":[
				-0.5028509497642517,
				-0.021445751190185547,
				0
			],
			"type":"VEC3"
		},
		{
			"bufferView":37,
			"componentType":5126,
			"count":24,
			"type":"VEC3"
		},
		{
			"bufferView":38,
			"componentType":5126,
			"count":24,
			"type":"VEC2"
		},
		{
			"bufferView":39,
			"componentType":5126,
			"count":12,
			"max":[
				0.032591767609119415,
				0.02368519827723503,
				1.628650188446045
			],
			"min":[
				-0.47800931334495544,
				0.02368479035794735,
				0.010899225249886513
			],
			"type":"VEC3"
		},
		{
			"bufferView":40,
			"componentType":5126,
			"count":12,
			"type":"VEC3"
		},
		{
			"bufferView":41,
			"componentType":5126,
			"count":12,
			"type":"VEC2"
		},
		{
			"bufferView":42,
			"componentType":5126,
			"count":48,
			"max":[
				0.5479937791824341,
				0.03388337790966034,
				1.6466659307479858
			],
			"min":[
				-0.026283053681254387,
				-0.021291475743055344,
				0
			],
			"type":"VEC3"
		},
		{
			"bufferView":43,
			"componentType":5126,
			"count":48,
			"type":"VEC3"
		},
		{
			"bufferView":44,
			"componentType":5126,
			"count":48,
			"type":"VEC2"
		},
		{
			"bufferView":45,
			"componentType":5126,
			"count":32,
			"max":[
				0.547994077205658,
				0.03510572761297226,
				1.628650188446045
			],
			"min":[
				-0.018219169229269028,
				0.02383824996650219,
				0.010899225249886513
			],
			"type":"VEC3"
		},
		{
			"bufferView":46,
			"componentType":5126,
			"count":32,
			"type":"VEC3"
		},
		{
			"bufferView":47,
			"componentType":5126,
			"count":32,
			"type":"VEC2"
		},
		{
			"bufferView":48,
			"componentType":5126,
			"count":24,
			"max":[
				0.040798380970954895,
				0.021301792934536934,
				1.6466659307479858
			],
			"min":[
				-0.4966515302658081,
				-0.021440288051962852,
				0
			],
			"type":"VEC3"
		},
		{
			"bufferView":49,
			"componentType":5126,
			"count":24,
			"type":"VEC3"
		},
		{
			"bufferView":50,
			"componentType":5126,
			"count":24,
			"type":"VEC2"
		},
		{
			"bufferView":51,
			"componentType":5126,
			"count":12,
			"max":[
				0.03218996152281761,
				0.02369024232029915,
				1.628650188446045
			],
			"min":[
				-0.4721162021160126,
				0.023690039291977882,
				0.010899225249886513
			],
			"type":"VEC3"
		},
		{
			"bufferView":52,
			"componentType":5126,
			"count":12,
			"type":"VEC3"
		},
		{
			"bufferView":53,
			"componentType":5126,
			"count":12,
			"type":"VEC2"
		},
		{
			"bufferView":54,
			"componentType":5126,
			"count":48,
			"max":[
				0.5412378907203674,
				0.03387755528092384,
				1.6466659307479858
			],
			"min":[
				-0.02595902979373932,
				-0.021297283470630646,
				0
			],
			"type":"VEC3"
		},
		{
			"bufferView":55,
			"componentType":5126,
			"count":48,
			"type":"VEC3"
		},
		{
			"bufferView":56,
			"componentType":5126,
			"count":48,
			"type":"VEC2"
		},
		{
			"bufferView":57,
			"componentType":5126,
			"count":32,
			"max":[
				0.5412380695343018,
				0.035100314766168594,
				1.628650188446045
			],
			"min":[
				-0.017994558438658714,
				0.023832838982343674,
				0.010899225249886513
			],
			"type":"VEC3"
		},
		{
			"bufferView":58,
			"componentType":5126,
			"count":32,
			"type":"VEC3"
		},
		{
			"bufferView":59,
			"componentType":5126,
			"count":32,
			"type":"VEC2"
		},
		{
			"bufferView":60,
			"componentType":5126,
			"count":24,
			"max":[
				0.04078131169080734,
				0.021301953122019768,
				1.6466659307479858
			],
			"min":[
				-0.49644359946250916,
				-0.021440107375383377,
				0
			],
			"type":"VEC3"
		},
		{
			"bufferView":61,
			"componentType":5126,
			"count":24,
			"type":"VEC3"
		},
		{
			"bufferView":62,
			"componentType":5126,
			"count":24,
			"type":"VEC2"
		},
		{
			"bufferView":63,
			"componentType":5126,
			"count":12,
			"max":[
				0.032176412642002106,
				0.023690398782491684,
				1.6286500692367554
			],
			"min":[
				-0.4719184339046478,
				0.023690195754170418,
				0.010899225249886513
			],
			"type":"VEC3"
		},
		{
			"bufferView":64,
			"componentType":5126,
			"count":12,
			"type":"VEC3"
		},
		{
			"bufferView":65,
			"componentType":5126,
			"count":12,
			"type":"VEC2"
		},
		{
			"bufferView":66,
			"componentType":5126,
			"count":48,
			"max":[
				0.5410112738609314,
				0.033877357840538025,
				1.6466659307479858
			],
			"min":[
				-0.0259481742978096,
				-0.021297454833984375,
				0
			],
			"type":"VEC3"
		},
		{
			"bufferView":67,
			"componentType":5126,
			"count":48,
			"type":"VEC3"
		},
		{
			"bufferView":68,
			"componentType":5126,
			"count":48,
			"type":"VEC2"
		},
		{
			"bufferView":69,
			"componentType":5126,
			"count":32,
			"max":[
				0.541011393070221,
				0.035100121051073074,
				1.6286500692367554
			],
			"min":[
				-0.017986983060836792,
				0.02383284643292427,
				0.010899225249886513
			],
			"type":"VEC3"
		},
		{
			"bufferView":70,
			"componentType":5126,
			"count":32,
			"type":"VEC3"
		},
		{
			"bufferView":71,
			"componentType":5126,
			"count":32,
			"type":"VEC2"
		},
		{
			"bufferView":72,
			"componentType":5126,
			"count":948,
			"max":[
				13.230377197265625,
				13.25846004486084,
				0.2271161526441574
			],
			"min":[
				-13.234086036682129,
				-13.25846004486084,
				-3.6364529132843018
			],
			"type":"VEC3"
		},
		{
			"bufferView":73,
			"componentType":5126,
			"count":948,
			"type":"VEC3"
		},
		{
			"bufferView":74,
			"componentType":5126,
			"count":948,
			"type":"VEC2"
		},
		{
			"bufferView":75,
			"componentType":5123,
			"count":990,
			"type":"SCALAR"
		},
		{
			"bufferView":76,
			"componentType":5126,
			"count":60,
			"max":[
				13.486420631408691,
				13.51501178741455,
				0.2271161526441574
			],
			"min":[
				-13.490130424499512,
				-13.51501178741455,
				-2.784217357635498
			],
			"type":"VEC3"
		},
		{
			"bufferView":77,
			"componentType":5126,
			"count":60,
			"type":"VEC3"
		},
		{
			"bufferView":78,
			"componentType":5126,
			"count":60,
			"type":"VEC2"
		},
		{
			"bufferView":79,
			"componentType":5123,
			"count":72,
			"type":"SCALAR"
		},
		{
			"bufferView":80,
			"componentType":5126,
			"count":84,
			"max":[
				13.486420631408691,
				13.51501178741455,
				-2.1468536853790283
			],
			"min":[
				-13.490130424499512,
				-13.51501178741455,
				-3.0980141162872314
			],
			"type":"VEC3"
		},
		{
			"bufferView":81,
			"componentType":5126,
			"count":84,
			"type":"VEC3"
		},
		{
			"bufferView":82,
			"componentType":5126,
			"count":84,
			"type":"VEC2"
		},
		{
			"bufferView":83,
			"componentType":5123,
			"count":120,
			"type":"SCALAR"
		},
		{
			"bufferView":84,
			"componentType":5126,
			"count":62,
			"max":[
				13.230376243591309,
				13.258459091186523,
				-1.583470344543457
			],
			"min":[
				-13.234086036682129,
				-13.258459091186523,
				-3.6364529132843018
			],
			"type":"VEC3"
		},
		{
			"bufferView":85,
			"componentType":5126,
			"count":62,
			"type":"VEC3"
		},
		{
			"bufferView":86,
			"componentType":5126,
			"count":62,
			"type":"VEC2"
		},
		{
			"bufferView":87,
			"componentType":5123,
			"count":78,
			"type":"SCALAR"
		},
		{
			"bufferView":88,
			"componentType":5126,
			"count":1878,
			"max":[
				13.712627410888672,
				13.690997123718262,
				0.7521729469299316
			],
			"min":[
				-13.722963333129883,
				-13.739752769470215,
				-3.1015188694000244
			],
			"type":"VEC3"
		},
		{
			"bufferView":89,
			"componentType":5126,
			"count":1878,
			"type":"VEC3"
		},
		{
			"bufferView":90,
			"componentType":5126,
			"count":1878,
			"type":"VEC2"
		},
		{
			"bufferView":91,
			"componentType":5123,
			"count":2574,
			"type":"SCALAR"
		},
		{
			"bufferView":92,
			"componentType":5126,
			"count":567,
			"max":[
				13.654512405395508,
				13.626738548278809,
				0.7804180383682251
			],
			"min":[
				-13.638348579406738,
				-13.676078796386719,
				-2.9654860496520996
			],
			"type":"VEC3"
		},
		{
			"bufferView":93,
			"componentType":5126,
			"count":567,
			"type":"VEC3"
		},
		{
			"bufferView":94,
			"componentType":5126,
			"count":567,
			"type":"VEC2"
		},
		{
			"bufferView":95,
			"componentType":5123,
			"count":741,
			"type":"SCALAR"
		},
		{
			"bufferView":96,
			"componentType":5126,
			"count":1587,
			"max":[
				13.7136812210083,
				13.686525344848633,
				0.5465057492256165
			],
			"min":[
				-13.729891777038574,
				-13.744050979614258,
				-2.9867031574249268
			],
			"type":"VEC3"
		},
		{
			"bufferView":97,
			"componentType":5126,
			"count":1587,
			"type":"VEC3"
		},
		{
			"bufferView":98,
			"componentType":5126,
			"count":1587,
			"type":"VEC2"
		},
		{
			"bufferView":99,
			"componentType":5123,
			"count":1929,
			"type":"SCALAR"
		},
		{
			"bufferView":100,
			"componentType":5126,
			"count":844,
			"max":[
				10.787225723266602,
				2.453946352005005,
				15.826494216918945
			],
			"min":[
				-1.7155884504318237,
				-15.27219009399414,
				-1.9016355276107788
			],
			"type":"VEC3"
		},
		{
			"bufferView":101,
			"componentType":5126,
			"count":844,
			"type":"VEC3"
		},
		{
			"bufferView":102,
			"componentType":5126,
			"count":844,
			"type":"VEC2"
		},
		{
			"bufferView":103,
			"componentType":5123,
			"count":1032,
			"type":"SCALAR"
		},
		{
			"bufferView":104,
			"componentType":5126,
			"count":50,
			"max":[
				10.647844314575195,
				6.900205135345459,
				20.260787963867188
			],
			"min":[
				9.125043869018555,
				-19.691429138183594,
				-6.336452007293701
			],
			"type":"VEC3"
		},
		{
			"bufferView":105,
			"componentType":5126,
			"count":50,
			"type":"VEC3"
		},
		{
			"bufferView":106,
			"componentType":5126,
			"count":50,
			"type":"VEC2"
		},
		{
			"bufferView":107,
			"componentType":5123,
			"count":72,
			"type":"SCALAR"
		},
		{
			"bufferView":108,
			"componentType":5126,
			"count":99,
			"max":[
				13.34442138671875,
				1.5335700511932373,
				13.406744956970215
			],
			"min":[
				-1.0057001113891602,
				-12.852439880371094,
				0.5181141495704651
			],
			"type":"VEC3"
		},
		{
			"bufferView":109,
			"componentType":5126,
			"count":99,
			"type":"VEC3"
		},
		{
			"bufferView":110,
			"componentType":5126,
			"count":99,
			"type":"VEC2"
		},
		{
			"bufferView":111,
			"componentType":5123,
			"count":147,
			"type":"SCALAR"
		},
		{
			"bufferView":112,
			"componentType":5126,
			"count":852,
			"max":[
				12.839523315429688,
				7.759029388427734,
				21.13157081604004
			],
			"min":[
				-0.9396517872810364,
				-20.577268600463867,
				-7.206716060638428
			],
			"type":"VEC3"
		},
		{
			"bufferView":113,
			"componentType":5126,
			"count":852,
			"type":"VEC3"
		},
		{
			"bufferView":114,
			"componentType":5126,
			"count":852,
			"type":"VEC2"
		},
		{
			"bufferView":115,
			"componentType":5123,
			"count":1176,
			"type":"SCALAR"
		},
		{
			"bufferView":116,
			"componentType":5126,
			"count":176,
			"max":[
				12.530007362365723,
				4.9113450050354,
				18.281661987304688
			],
			"min":[
				11.089787483215332,
				-17.728036880493164,
				-4.357324600219727
			],
			"type":"VEC3"
		},
		{
			"bufferView":117,
			"componentType":5126,
			"count":176,
			"type":"VEC3"
		},
		{
			"bufferView":118,
			"componentType":5126,
			"count":176,
			"type":"VEC2"
		},
		{
			"bufferView":119,
			"componentType":5123,
			"count":240,
			"type":"SCALAR"
		},
		{
			"bufferView":120,
			"componentType":5126,
			"count":190,
			"max":[
				10.040279388427734,
				1.3123544454574585,
				13.95721435546875
			],
			"min":[
				2.095749616622925,
				-13.401901245117188,
				-0.029928207397460938
			],
			"type":"VEC3"
		},
		{
			"bufferView":121,
			"componentType":5126,
			"count":190,
			"type":"VEC3"
		},
		{
			"bufferView":122,
			"componentType":5126,
			"count":190,
			"type":"VEC2"
		},
		{
			"bufferView":123,
			"componentType":5123,
			"count":564,
			"type":"SCALAR"
		},
		{
			"bufferView":124,
			"componentType":5126,
			"count":10,
			"max":[
				10.797565460205078,
				6.642220497131348,
				19.934324264526367
			],
			"min":[
				10.614320755004883,
				-19.42681884765625,
				-6.089909076690674
			],
			"type":"VEC3"
		},
		{
			"bufferView":125,
			"componentType":5126,
			"count":10,
			"type":"VEC3"
		},
		{
			"bufferView":126,
			"componentType":5126,
			"count":10,
			"type":"VEC2"
		},
		{
			"bufferView":127,
			"componentType":5123,
			"count":12,
			"type":"SCALAR"
		},
		{
			"bufferView":128,
			"componentType":5126,
			"count":27,
			"max":[
				48.96091842651367,
				49.0719108581543,
				1.7964822053909302
			],
			"min":[
				-48.98149490356445,
				-49.0711555480957,
				-6.8711042404174805
			],
			"type":"VEC3"
		},
		{
			"bufferView":129,
			"componentType":5126,
			"count":27,
			"type":"VEC3"
		},
		{
			"bufferView":130,
			"componentType":5126,
			"count":27,
			"type":"VEC2"
		},
		{
			"bufferView":131,
			"componentType":5123,
			"count":39,
			"type":"SCALAR"
		},
		{
			"bufferView":132,
			"componentType":5126,
			"count":1579,
			"max":[
				48.101356506347656,
				48.32044219970703,
				2.4771978855133057
			],
			"min":[
				-48.31135177612305,
				-48.2936897277832,
				-7.6205573081970215
			],
			"type":"VEC3"
		},
		{
			"bufferView":133,
			"componentType":5126,
			"count":1579,
			"type":"VEC3"
		},
		{
			"bufferView":134,
			"componentType":5126,
			"count":1579,
			"type":"VEC2"
		},
		{
			"bufferView":135,
			"componentType":5123,
			"count":2211,
			"type":"SCALAR"
		},
		{
			"bufferView":136,
			"componentType":5126,
			"count":1614,
			"max":[
				49.76113510131836,
				49.75122833251953,
				2.1321818828582764
			],
			"min":[
				-49.74871826171875,
				-49.75596237182617,
				-6.999547004699707
			],
			"type":"VEC3"
		},
		{
			"bufferView":137,
			"componentType":5126,
			"count":1614,
			"type":"VEC3"
		},
		{
			"bufferView":138,
			"componentType":5126,
			"count":1614,
			"type":"VEC2"
		},
		{
			"bufferView":139,
			"componentType":5123,
			"count":2418,
			"type":"SCALAR"
		},
		{
			"bufferView":140,
			"componentType":5126,
			"count":32,
			"max":[
				48.038795471191406,
				48.140377044677734,
				-5.361688613891602
			],
			"min":[
				-48.0382080078125,
				-48.1334114074707,
				-7.266602993011475
			],
			"type":"VEC3"
		},
		{
			"bufferView":141,
			"componentType":5126,
			"count":32,
			"type":"VEC3"
		},
		{
			"bufferView":142,
			"componentType":5126,
			"count":32,
			"type":"VEC2"
		},
		{
			"bufferView":143,
			"componentType":5123,
			"count":42,
			"type":"SCALAR"
		},
		{
			"bufferView":144,
			"componentType":5126,
			"count":44,
			"max":[
				48.968936920166016,
				49.07939147949219,
				1.7975759506225586
			],
			"min":[
				-48.98777770996094,
				-49.078556060791016,
				-6.5595221519470215
			],
			"type":"VEC3"
		},
		{
			"bufferView":145,
			"componentType":5126,
			"count":44,
			"type":"VEC3"
		},
		{
			"bufferView":146,
			"componentType":5126,
			"count":44,
			"type":"VEC2"
		},
		{
			"bufferView":147,
			"componentType":5123,
			"count":57,
			"type":"SCALAR"
		},
		{
			"bufferView":148,
			"componentType":5126,
			"count":367,
			"max":[
				50.055320739746094,
				50.06175994873047,
				-4.7342209815979
			],
			"min":[
				-49.8665885925293,
				-49.8260498046875,
				-6.874613285064697
			],
			"type":"VEC3"
		},
		{
			"bufferView":149,
			"componentType":5126,
			"count":367,
			"type":"VEC3"
		},
		{
			"bufferView":150,
			"componentType":5126,
			"count":367,
			"type":"VEC2"
		},
		{
			"bufferView":151,
			"componentType":5123,
			"count":399,
			"type":"SCALAR"
		},
		{
			"bufferView":152,
			"componentType":5126,
			"count":321,
			"max":[
				49.72993850708008,
				49.82677459716797,
				1.4256787300109863
			],
			"min":[
				-49.71751403808594,
				-49.831512451171875,
				-6.660892486572266
			],
			"type":"VEC3"
		},
		{
			"bufferView":153,
			"componentType":5126,
			"count":321,
			"type":"VEC3"
		},
		{
			"bufferView":154,
			"componentType":5126,
			"count":321,
			"type":"VEC2"
		},
		{
			"bufferView":155,
			"componentType":5123,
			"count":321,
			"type":"SCALAR"
		},
		{
			"bufferView":156,
			"componentType":5126,
			"count":39,
			"max":[
				4.763594627380371,
				4.781332492828369,
				4.127310752868652
			],
			"min":[
				-4.763594627380371,
				-4.763594627380371,
				1.4191163778305054
			],
			"type":"VEC3"
		},
		{
			"bufferView":157,
			"componentType":5126,
			"count":39,
			"type":"VEC3"
		},
		{
			"bufferView":158,
			"componentType":5126,
			"count":39,
			"type":"VEC2"
		},
		{
			"bufferView":159,
			"componentType":5123,
			"count":114,
			"type":"SCALAR"
		},
		{
			"bufferView":160,
			"componentType":5126,
			"count":496,
			"max":[
				6.801507949829102,
				6.800348281860352,
				8.651493072509766
			],
			"min":[
				-6.717155456542969,
				-6.716101169586182,
				3.1560678482055664
			],
			"type":"VEC3"
		},
		{
			"bufferView":161,
			"componentType":5126,
			"count":496,
			"type":"VEC3"
		},
		{
			"bufferView":162,
			"componentType":5126,
			"count":496,
			"type":"VEC2"
		},
		{
			"bufferView":163,
			"componentType":5123,
			"count":822,
			"type":"SCALAR"
		},
		{
			"bufferView":164,
			"componentType":5126,
			"count":117,
			"max":[
				2.9330732822418213,
				2.892038106918335,
				8.907007217407227
			],
			"min":[
				-3.012206792831421,
				-2.8781564235687256,
				2.4480838775634766
			],
			"type":"VEC3"
		},
		{
			"bufferView":165,
			"componentType":5126,
			"count":117,
			"type":"VEC3"
		},
		{
			"bufferView":166,
			"componentType":5126,
			"count":117,
			"type":"VEC2"
		},
		{
			"bufferView":167,
			"componentType":5123,
			"count":297,
			"type":"SCALAR"
		},
		{
			"bufferView":168,
			"componentType":5126,
			"count":1060,
			"max":[
				3.2059526443481445,
				3.204181432723999,
				7.735551834106445
			],
			"min":[
				-3.1963346004486084,
				-3.1401374340057373,
				3.796513319015503
			],
			"type":"VEC3"
		},
		{
			"bufferView":169,
			"componentType":5126,
			"count":1060,
			"type":"VEC3"
		},
		{
			"bufferView":170,
			"componentType":5126,
			"count":1060,
			"type":"VEC2"
		},
		{
			"bufferView":171,
			"componentType":5123,
			"count":1542,
			"type":"SCALAR"
		},
		{
			"bufferView":172,
			"componentType":5126,
			"count":17,
			"max":[
				6.287675380706787,
				6.252567291259766,
				7.446458339691162
			],
			"min":[
				-6.200464248657227,
				-6.219323635101318,
				7.355870723724365
			],
			"type":"VEC3"
		},
		{
			"bufferView":173,
			"componentType":5126,
			"count":17,
			"type":"VEC3"
		},
		{
			"bufferView":174,
			"componentType":5126,
			"count":17,
			"type":"VEC2"
		},
		{
			"bufferView":175,
			"componentType":5123,
			"count":21,
			"type":"SCALAR"
		},
		{
			"bufferView":176,
			"componentType":5126,
			"count":230,
			"max":[
				4.350747108459473,
				4.369740009307861,
				8.412672996520996
			],
			"min":[
				-4.33400297164917,
				-4.306330680847168,
				4.349636077880859
			],
			"type":"VEC3"
		},
		{
			"bufferView":177,
			"componentType":5126,
			"count":230,
			"type":"VEC3"
		},
		{
			"bufferView":178,
			"componentType":5126,
			"count":230,
			"type":"VEC2"
		},
		{
			"bufferView":179,
			"componentType":5123,
			"count":324,
			"type":"SCALAR"
		},
		{
			"bufferView":180,
			"componentType":5126,
			"count":85,
			"max":[
				6.35675573348999,
				6.35558557510376,
				7.379271507263184
			],
			"min":[
				-6.336507320404053,
				-6.324028968811035,
				6.702293872833252
			],
			"type":"VEC3"
		},
		{
			"bufferView":181,
			"componentType":5126,
			"count":85,
			"type":"VEC3"
		},
		{
			"bufferView":182,
			"componentType":5126,
			"count":85,
			"type":"VEC2"
		},
		{
			"bufferView":183,
			"componentType":5123,
			"count":117,
			"type":"SCALAR"
		},
		{
			"bufferView":184,
			"componentType":5126,
			"count":144,
			"max":[
				3.805837392807007,
				3.805837869644165,
				0.003239535028114915
			],
			"min":[
				-3.8058385848999023,
				-3.8058440685272217,
				-7.860589981079102
			],
			"type":"VEC3"
		},
		{
			"bufferView":185,
			"componentType":5126,
			"count":144,
			"type":"VEC3"
		},
		{
			"bufferView":186,
			"componentType":5126,
			"count":144,
			"type":"VEC2"
		},
		{
			"bufferView":187,
			"componentType":5123,
			"count":360,
			"type":"SCALAR"
		},
		{
			"bufferView":188,
			"componentType":5126,
			"count":1009,
			"max":[
				3.9041779041290283,
				3.881256580352783,
				-2.0767018795013428
			],
			"min":[
				-3.862504720687866,
				-3.8835418224334717,
				-7.970771789550781
			],
			"type":"VEC3"
		},
		{
			"bufferView":189,
			"componentType":5126,
			"count":1009,
			"type":"VEC3"
		},
		{
			"bufferView":190,
			"componentType":5126,
			"count":1009,
			"type":"VEC2"
		},
		{
			"bufferView":191,
			"componentType":5123,
			"count":2031,
			"type":"SCALAR"
		},
		{
			"bufferView":192,
			"componentType":5126,
			"count":1249,
			"max":[
				1.2400000095367432,
				1.2400000095367432,
				13.971222877502441
			],
			"min":[
				-1.2400000095367432,
				-1.2400000095367432,
				0.1746184378862381
			],
			"type":"VEC3"
		},
		{
			"bufferView":193,
			"componentType":5126,
			"count":1249,
			"type":"VEC3"
		},
		{
			"bufferView":194,
			"componentType":5126,
			"count":1249,
			"type":"VEC2"
		},
		{
			"bufferView":195,
			"componentType":5123,
			"count":2955,
			"type":"SCALAR"
		}
	],
	"bufferViews":[
		{
			"buffer":0,
			"byteLength":96,
			"byteOffset":0,
			"target":34962
		},
		{
			"buffer":0,
			"byteLength":96,
			"byteOffset":96,
			"target":34962
		},
		{
			"buffer":0,
			"byteLength":64,
			"byteOffset":192,
			"target":34962
		},
		{
			"buffer":0,
			"byteLength":24,
			"byteOffset":256,
			"target":34963
		},
		{
			"buffer":0,
			"byteLength":9048,
			"byteOffset":280,
			"target":34962
		},
		{
			"buffer":0,
			"byteLength":9048,
			"byteOffset":9328,
			"target":34962
		},
		{
			"buffer":0,
			"byteLength":6032,
			"byteOffset":18376,
			"target":34962
		},
		{
			"buffer":0,
			"byteLength":2076,
			"byteOffset":24408,
			"target":34963
		},
		{
			"buffer":0,
			"byteLength":2088,
			"byteOffset":26484,
			"target":34962
		},
		{
			"buffer":0,
			"byteLength":2088,
			"byteOffset":28572,
			"target":34962
		},
		{
			"buffer":0,
			"byteLength":1392,
			"byteOffset":30660,
			"target":34962
		},
		{
			"buffer":0,
			"byteLength":564,
			"byteOffset":32052,
			"target":34963
		},
		{
			"buffer":0,
			"byteLength":3024,
			"byteOffset":32616,
			"target":34962
		},
		{
			"buffer":0,
			"byteLength":3024,
			"byteOffset":35640,
			"target":34962
		},
		{
			"buffer":0,
			"byteLength":2016,
			"byteOffset":38664,
			"target":34962
		},
		{
			"buffer":0,
			"byteLength":1008,
			"byteOffset":40680,
			"target":34963
		},
		{
			"buffer":0,
			"byteLength":7584,
			"byteOffset":41688,
			"target":34962
		},
		{
			"buffer":0,
			"byteLength":7584,
			"byteOffset":49272,
			"target":34962
		},
		{
			"buffer":0,
			"byteLength":5056,
			"byteOffset":56856,
			"target":34962
		},
		{
			"buffer":0,
			"byteLength":1896,
			"byteOffset":61912,
			"target":34963
		},
		{
			"buffer":0,
			"byteLength":288,
			"byteOffset":63808,
			"target":34962
		},
		{
			"buffer":0,
			"byteLength":288,
			"byteOffset":64096,
			"target":34962
		},
		{
			"buffer":0,
			"byteLength":192,
			"byteOffset":64384,
			"target":34962
		},
		{
			"buffer":0,
			"byteLength":72,
			"byteOffset":64576,
			"target":34963
		},
		{
			"buffer":0,
			"byteLength":144,
			"byteOffset":64648,
			"target":34962
		},
		{
			"buffer":0,
			"byteLength":144,
			"byteOffset":64792,
			"target":34962
		},
		{
			"buffer":0,
			"byteLength":96,
			"byteOffset":64936,
			"target":34962
		},
		{
			"buffer":0,
			"byteLength":24,
			"byteOffset":65032,
			"target":34963
		},
		{
			"buffer":0,
			"byteLength":576,
			"byteOffset":65056,
			"target":34962
		},
		{
			"buffer":0,
			"byteLength":576,
			"byteOffset":65632,
			"target":34962
		},
		{
			"buffer":0,
			"byteLength":384,
			"byteOffset":66208,
			"target":34962
		},
		{
			"buffer":0,
			"byteLength":144,
			"byteOffset":66592,
			"target":34963
		},
		{
			"buffer":0,
			"byteLength":384,
			"byteOffset":66736,
			"target":34962
		},
		{
			"buffer":0,
			"byteLength":384,
			"byteOffset":67120,
			"target":34962
		},
		{
			"buffer":0,
			"byteLength":256,
			"byteOffset":67504,
			"target":34962
		},
		{
			"buffer":0,
			"byteLength":84,
			"byteOffset":67760,
			"target":34963
		},
		{
			"buffer":0,
			"byteLength":288,
			"byteOffset":67844,
			"target":34962
		},
		{
			"buffer":0,
			"byteLength":288,
			"byteOffset":68132,
			"target":34962
		},
		{
			"buffer":0,
			"byteLength":192,
			"byteOffset":68420,
			"target":34962
		},
		{
			"buffer":0,
			"byteLength":144,
			"byteOffset":68612,
			"target":34962
		},
		{
			"buffer":0,
			"byteLength":144,
			"byteOffset":68756,
			"target":34962
		},
		{
			"buffer":0,
			"byteLength":96,
			"byteOffset":68900,
			"target":34962
		},
		{
			"buffer":0,
			"byteLength":576,
			"byteOffset":68996,
			"target":34962
		},
		{
			"buffer":0,
			"byteLength":576,
			"byteOffset":69572,
			"target":34962
		},
		{
			"buffer":0,
			"byteLength":384,
			"byteOffset":70148,
			"target":34962
		},
		{
			"buffer":0,
			"byteLength":384,
			"byteOffset":70532,
			"target":34962
		},
		{
			"buffer":0,
			"byteLength":384,
			"byteOffset":70916,
			"target":34962
		},
		{
			"buffer":0,
			"byteLength":256,
			"byteOffset":71300,
			"target":34962
		},
		{
			"buffer":0,
			"byteLength":288,
			"byteOffset":71556,
			"target":34962
		},
		{
			"buffer":0,
			"byteLength":288,
			"byteOffset":71844,
			"target":34962
		},
		{
			"buffer":0,
			"byteLength":192,
			"byteOffset":72132,
			"target":34962
		},
		{
			"buffer":0,
			"byteLength":144,
			"byteOffset":72324,
			"target":34962
		},
		{
			"buffer":0,
			"byteLength":144,
			"byteOffset":72468,
			"target":34962
		},
		{
			"buffer":0,
			"byteLength":96,
			"byteOffset":72612,
			"target":34962
		},
		{
			"buffer":0,
			"byteLength":576,
			"byteOffset":72708,
			"target":34962
		},
		{
			"buffer":0,
			"byteLength":576,
			"byteOffset":73284,
			"target":34962
		},
		{
			"buffer":0,
			"byteLength":384,
			"byteOffset":73860,
			"target":34962
		},
		{
			"buffer":0,
			"byteLength":384,
			"byteOffset":74244,
			"target":34962
		},
		{
			"buffer":0,
			"byteLength":384,
			"byteOffset":74628,
			"target":34962
		},
		{
			"buffer":0,
			"byteLength":256,
			"byteOffset":75012,
			"target":34962
		},
		{
			"buffer":0,
			"byteLength":288,
			"byteOffset":75268,
			"target":34962
		},
		{
			"buffer":0,
			"byteLength":288,
			"byteOffset":75556,
			"target":34962
		},
		{
			"buffer":0,
			"byteLength":192,
			"byteOffset":75844,
			"target":34962
		},
		{
			"buffer":0,
			"byteLength":144,
			"byteOffset":76036,
			"target":34962
		},
		{
			"buffer":0,
			"byteLength":144,
			"byteOffset":76180,
			"target":34962
		},
		{
			"buffer":0,
			"byteLength":96,
			"byteOffset":76324,
			"target":34962
		},
		{
			"buffer":0,
			"byteLength":576,
			"byteOffset":76420,
			"target":34962
		},
		{
			"buffer":0,
			"byteLength":576,
			"byteOffset":76996,
			"target":34962
		},
		{
			"buffer":0,
			"byteLength":384,
			"byteOffset":77572,
			"target":34962
		},
		{
			"buffer":0,
			"byteLength":384,
			"byteOffset":77956,
			"target":34962
		},
		{
			"buffer":0,
			"byteLength":384,
			"byteOffset":78340,
			"target":34962
		},
		{
			"buffer":0,
			"byteLength":256,
			"byteOffset":78724,
			"target":34962
		},
		{
			"buffer":0,
			"byteLength":11376,
			"byteOffset":78980,
			"target":34962
		},
		{
			"buffer":0,
			"byteLength":11376,
			"byteOffset":90356,
			"target":34962
		},
		{
			"buffer":0,
			"byteLength":7584,
			"byteOffset":101732,
			"target":34962
		},
		{
			"buffer":0,
			"byteLength":1980,
			"byteOffset":109316,
			"target":34963
		},
		{
			"buffer":0,
			"byteLength":720,
			"byteOffset":111296,
			"target":34962
		},
		{
			"buffer":0,
			"byteLength":720,
			"byteOffset":112016,
			"target":34962
		},
		{
			"buffer":0,
			"byteLength":480,
			"byteOffset":112736,
			"target":34962
		},
		{
			"buffer":0,
			"byteLength":144,
			"byteOffset":113216,
			"target":34963
		},
		{
			"buffer":0,
			"byteLength":1008,
			"byteOffset":113360,
			"target":34962
		},
		{
			"buffer":0,
			"byteLength":1008,
			"byteOffset":114368,
			"target":34962
		},
		{
			"buffer":0,
			"byteLength":672,
			"byteOffset":115376,
			"target":34962
		},
		{
			"buffer":0,
			"byteLength":240,
			"byteOffset":116048,
			"target":34963
		},
		{
			"buffer":0,
			"byteLength":744,
			"byteOffset":116288,
			"target":34962
		},
		{
			"buffer":0,
			"byteLength":744,
			"byteOffset":117032,
			"target":34962
		},
		{
			"buffer":0,
			"byteLength":496,
			"byteOffset":117776,
			"target":34962
		},
		{
			"buffer":0,
			"byteLength":156,
			"byteOffset":118272,
			"target":34963
		},
		{
			"buffer":0,
			"byteLength":22536,
			"byteOffset":118428,
			"target":34962
		},
		{
			"buffer":0,
			"byteLength":22536,
			"byteOffset":140964,
			"target":34962
		},
		{
			"buffer":0,
			"byteLength":15024,
			"byteOffset":163500,
			"target":34962
		},
		{
			"buffer":0,
			"byteLength":5148,
			"byteOffset":178524,
			"target":34963
		},
		{
			"buffer":0,
			"byteLength":6804,
			"byteOffset":183672,
			"target":34962
		},
		{
			"buffer":0,
			"byteLength":6804,
			"byteOffset":190476,
			"target":34962
		},
		{
			"buffer":0,
			"byteLength":4536,
			"byteOffset":197280,
			"target":34962
		},
		{
			"buffer":0,
			"byteLength":1482,
			"byteOffset":201816,
			"target":34963
		},
		{
			"buffer":0,
			"byteLength":19044,
			"byteOffset":203300,
			"target":34962
		},
		{
			"buffer":0,
			"byteLength":19044,
			"byteOffset":222344,
			"target":34962
		},
		{
			"buffer":0,
			"byteLength":12696,
			"byteOffset":241388,
			"target":34962
		},
		{
			"buffer":0,
			"byteLength":3858,
			"byteOffset":254084,
			"target":34963
		},
		{
			"buffer":0,
			"byteLength":10128,
			"byteOffset":257944,
			"target":34962
		},
		{
			"buffer":0,
			"byteLength":10128,
			"byteOffset":268072,
			"target":34962
		},
		{
			"buffer":0,
			"byteLength":6752,
			"byteOffset":278200,
			"target":34962
		},
		{
			"buffer":0,
			"byteLength":2064,
			"byteOffset":284952,
			"target":34963
		},
		{
			"buffer":0,
			"byteLength":600,
			"byteOffset":287016,
			"target":34962
		},
		{
			"buffer":0,
			"byteLength":600,
			"byteOffset":287616,
			"target":34962
		},
		{
			"buffer":0,
			"byteLength":400,
			"byteOffset":288216,
			"target":34962
		},
		{
			"buffer":0,
			"byteLength":144,
			"byteOffset":288616,
			"target":34963
		},
		{
			"buffer":0,
			"byteLength":1188,
			"byteOffset":288760,
			"target":34962
		},
		{
			"buffer":0,
			"byteLength":1188,
			"byteOffset":289948,
			"target":34962
		},
		{
			"buffer":0,
			"byteLength":792,
			"byteOffset":291136,
			"target":34962
		},
		{
			"buffer":0,
			"byteLength":294,
			"byteOffset":291928,
			"target":34963
		},
		{
			"buffer":0,
			"byteLength":10224,
			"byteOffset":292224,
			"target":34962
		},
		{
			"buffer":0,
			"byteLength":10224,
			"byteOffset":302448,
			"target":34962
		},
		{
			"buffer":0,
			"byteLength":6816,
			"byteOffset":312672,
			"target":34962
		},
		{
			"buffer":0,
			"byteLength":2352,
			"byteOffset":319488,
			"target":34963
		},
		{
			"buffer":0,
			"byteLength":2112,
			"byteOffset":321840,
			"target":34962
		},
		{
			"buffer":0,
			"byteLength":2112,
			"byteOffset":323952,
			"target":34962
		},
		{
			"buffer":0,
			"byteLength":1408,
			"byteOffset":326064,
			"target":34962
		},
		{
			"buffer":0,
			"byteLength":480,
			"byteOffset":327472,
			"target":34963
		},
		{
			"buffer":0,
			"byteLength":2280,
			"byteOffset":327952,
			"target":34962
		},
		{
			"buffer":0,
			"byteLength":2280,
			"byteOffset":330232,
			"target":34962
		},
		{
			"buffer":0,
			"byteLength":1520,
			"byteOffset":332512,
			"target":34962
		},
		{
			"buffer":0,
			"byteLength":1128,
			"byteOffset":334032,
			"target":34963
		},
		{
			"buffer":0,
			"byteLength":120,
			"byteOffset":335160,
			"target":34962
		},
		{
			"buffer":0,
			"byteLength":120,
			"byteOffset":335280,
			"target":34962
		},
		{
			"buffer":0,
			"byteLength":80,
			"byteOffset":335400,
			"target":34962
		},
		{
			"buffer":0,
			"byteLength":24,
			"byteOffset":335480,
			"target":34963
		},
		{
			"buffer":0,
			"byteLength":324,
			"byteOffset":335504,
			"target":34962
		},
		{
			"buffer":0,
			"byteLength":324,
			"byteOffset":335828,
			"target":34962
		},
		{
			"buffer":0,
			"byteLength":216,
			"byteOffset":336152,
			"target":34962
		},
		{
			"buffer":0,
			"byteLength":78,
			"byteOffset":336368,
			"target":34963
		},
		{
			"buffer":0,
			"byteLength":18948,
			"byteOffset":336448,
			"target":34962
		},
		{
			"buffer":0,
			"byteLength":18948,
			"byteOffset":355396,
			"target":34962
		},
		{
			"buffer":0,
			"byteLength":12632,
			"byteOffset":374344,
			"target":34962
		},
		{
			"buffer":0,
			"byteLength":4422,
			"byteOffset":386976,
			"target":34963
		},
		{
			"buffer":0,
			"byteLength":19368,
			"byteOffset":391400,
			"target":34962
		},
		{
			"buffer":0,
			"byteLength":19368,
			"byteOffset":410768,
			"target":34962
		},
		{
			"buffer":0,
			"byteLength":12912,
			"byteOffset":430136,
			"target":34962
		},
		{
			"buffer":0,
			"byteLength":4836,
			"byteOffset":443048,
			"target":34963
		},
		{
			"buffer":0,
			"byteLength":384,
			"byteOffset":447884,
			"target":34962
		},
		{
			"buffer":0,
			"byteLength":384,
			"byteOffset":448268,
			"target":34962
		},
		{
			"buffer":0,
			"byteLength":256,
			"byteOffset":448652,
			"target":34962
		},
		{
			"buffer":0,
			"byteLength":84,
			"byteOffset":448908,
			"target":34963
		},
		{
			"buffer":0,
			"byteLength":528,
			"byteOffset":448992,
			"target":34962
		},
		{
			"buffer":0,
			"byteLength":528,
			"byteOffset":449520,
			"target":34962
		},
		{
			"buffer":0,
			"byteLength":352,
			"byteOffset":450048,
			"target":34962
		},
		{
			"buffer":0,
			"byteLength":114,
			"byteOffset":450400,
			"target":34963
		},
		{
			"buffer":0,
			"byteLength":4404,
			"byteOffset":450516,
			"target":34962
		},
		{
			"buffer":0,
			"byteLength":4404,
			"byteOffset":454920,
			"target":34962
		},
		{
			"buffer":0,
			"byteLength":2936,
			"byteOffset":459324,
			"target":34962
		},
		{
			"buffer":0,
			"byteLength":798,
			"byteOffset":462260,
			"target":34963
		},
		{
			"buffer":0,
			"byteLength":3852,
			"byteOffset":463060,
			"target":34962
		},
		{
			"buffer":0,
			"byteLength":3852,
			"byteOffset":466912,
			"target":34962
		},
		{
			"buffer":0,
			"byteLength":2568,
			"byteOffset":470764,
			"target":34962
		},
		{
			"buffer":0,
			"byteLength":642,
			"byteOffset":473332,
			"target":34963
		},
		{
			"buffer":0,
			"byteLength":468,
			"byteOffset":473976,
			"target":34962
		},
		{
			"buffer":0,
			"byteLength":468,
			"byteOffset":474444,
			"target":34962
		},
		{
			"buffer":0,
			"byteLength":312,
			"byteOffset":474912,
			"target":34962
		},
		{
			"buffer":0,
			"byteLength":228,
			"byteOffset":475224,
			"target":34963
		},
		{
			"buffer":0,
			"byteLength":5952,
			"byteOffset":475452,
			"target":34962
		},
		{
			"buffer":0,
			"byteLength":5952,
			"byteOffset":481404,
			"target":34962
		},
		{
			"buffer":0,
			"byteLength":3968,
			"byteOffset":487356,
			"target":34962
		},
		{
			"buffer":0,
			"byteLength":1644,
			"byteOffset":491324,
			"target":34963
		},
		{
			"buffer":0,
			"byteLength":1404,
			"byteOffset":492968,
			"target":34962
		},
		{
			"buffer":0,
			"byteLength":1404,
			"byteOffset":494372,
			"target":34962
		},
		{
			"buffer":0,
			"byteLength":936,
			"byteOffset":495776,
			"target":34962
		},
		{
			"buffer":0,
			"byteLength":594,
			"byteOffset":496712,
			"target":34963
		},
		{
			"buffer":0,
			"byteLength":12720,
			"byteOffset":497308,
			"target":34962
		},
		{
			"buffer":0,
			"byteLength":12720,
			"byteOffset":510028,
			"target":34962
		},
		{
			"buffer":0,
			"byteLength":8480,
			"byteOffset":522748,
			"target":34962
		},
		{
			"buffer":0,
			"byteLength":3084,
			"byteOffset":531228,
			"target":34963
		},
		{
			"buffer":0,
			"byteLength":204,
			"byteOffset":534312,
			"target":34962
		},
		{
			"buffer":0,
			"byteLength":204,
			"byteOffset":534516,
			"target":34962
		},
		{
			"buffer":0,
			"byteLength":136,
			"byteOffset":534720,
			"target":34962
		},
		{
			"buffer":0,
			"byteLength":42,
			"byteOffset":534856,
			"target":34963
		},
		{
			"buffer":0,
			"byteLength":2760,
			"byteOffset":534900,
			"target":34962
		},
		{
			"buffer":0,
			"byteLength":2760,
			"byteOffset":537660,
			"target":34962
		},
		{
			"buffer":0,
			"byteLength":1840,
			"byteOffset":540420,
			"target":34962
		},
		{
			"buffer":0,
			"byteLength":648,
			"byteOffset":542260,
			"target":34963
		},
		{
			"buffer":0,
			"byteLength":1020,
			"byteOffset":542908,
			"target":34962
		},
		{
			"buffer":0,
			"byteLength":1020,
			"byteOffset":543928,
			"target":34962
		},
		{
			"buffer":0,
			"byteLength":680,
			"byteOffset":544948,
			"target":34962
		},
		{
			"buffer":0,
			"byteLength":234,
			"byteOffset":545628,
			"target":34963
		},
		{
			"buffer":0,
			"byteLength":1728,
			"byteOffset":545864,
			"target":34962
		},
		{
			"buffer":0,
			"byteLength":1728,
			"byteOffset":547592,
			"target":34962
		},
		{
			"buffer":0,
			"byteLength":1152,
			"byteOffset":549320,
			"target":34962
		},
		{
			"buffer":0,
			"byteLength":720,
			"byteOffset":550472,
			"target":34963
		},
		{
			"buffer":0,
			"byteLength":12108,
			"byteOffset":551192,
			"target":34962
		},
		{
			"buffer":0,
			"byteLength":12108,
			"byteOffset":563300,
			"target":34962
		},
		{
			"buffer":0,
			"byteLength":8072,
			"byteOffset":575408,
			"target":34962
		},
		{
			"buffer":0,
			"byteLength":4062,
			"byteOffset":583480,
			"target":34963
		},
		{
			"buffer":0,
			"byteLength":14988,
			"byteOffset":587544,
			"target":34962
		},
		{
			"buffer":0,
			"byteLength":14988,
			"byteOffset":602532,
			"target":34962
		},
		{
			"buffer":0,
			"byteLength":9992,
			"byteOffset":617520,
			"target":34962
		},
		{
			"buffer":0,
			"byteLength":5910,
			"byteOffset":627512,
			"target":34963
		}
	],
	"samplers":[
		{
			"magFilter":9729,
			"minFilter":9987
		}
	],
	"buffers":[
		{
			"byteLength":633424,
			"uri":"Pagoda_Tahoto_15m.bin"
		}
	]
}
