{
	"asset":{
		"generator":"Khronos glTF Blender I/O v4.4.56",
		"version":"2.0"
	},
	"extensionsUsed":[
		"KHR_texture_transform"
	],
	"extensionsRequired":[
		"KHR_texture_transform"
	],
	"scene":0,
	"scenes":[
		{
			"name":"Scene",
			"nodes":[
				22
			]
		}
	],
	"nodes":[
		{
			"mesh":0,
			"name":"Base_LOD0.005",
			"rotation":[
				-0.70710688829422,
				0,
				0,
				0.7071066498756409
			],
			"scale":[
				0.5448706746101379,
				0.5448707342147827,
				0.5077579021453857
			],
			"translation":[
				-0.0034332277718931437,
				0.007937967777252197,
				0.003643154399469495
			]
		},
		{
			"children":[
				0
			],
			"name":"Base.005"
		},
		{
			"mesh":1,
			"name":"Door_EL_LOD0.005",
			"rotation":[
				-0.4995635151863098,
				-0.5004361271858215,
				-0.5004361271858215,
				0.4995634853839874
			],
			"scale":[
				0.27140024304389954,
				0.29762765765190125,
				0.4515492916107178
			],
			"translation":[
				1.517227053642273,
				0.9358803033828735,
				0.3874722719192505
			]
		},
		{
			"mesh":2,
			"name":"Door_ER_LOD0.005",
			"rotation":[
				-0.4995635151863098,
				-0.5004361271858215,
				-0.5004361271858215,
				0.4995634853839874
			],
			"scale":[
				0.27140024304389954,
				0.29762765765190125,
				0.4515492916107178
			],
			"translation":[
				1.5182493925094604,
				0.9358803033828735,
				-0.414398729801178
			]
		},
		{
			"mesh":3,
			"name":"Door_NL_LOD0.005",
			"rotation":[
				-0.7071065306663513,
				-0.0006170272827148438,
				-0.0006170272827148438,
				0.7071065306663513
			],
			"scale":[
				0.27140021324157715,
				0.29762762784957886,
				0.4515492916107178
			],
			"translation":[
				0.42539992928504944,
				0.9358803033828735,
				-1.502241611480713
			]
		},
		{
			"mesh":4,
			"name":"Door_NR_LOD0.005",
			"rotation":[
				-0.7071065306663513,
				-0.0006170272827148438,
				-0.0006170272827148438,
				0.7071065306663513
			],
			"scale":[
				0.27140021324157715,
				0.29762762784957886,
				0.4515492916107178
			],
			"translation":[
				-0.3713529407978058,
				0.9358803033828735,
				-1.5032753944396973
			]
		},
		{
			"mesh":5,
			"name":"Door_SL_LOD0.005",
			"rotation":[
				-0.0006169080152176321,
				0.7071065306663513,
				0.7071065306663513,
				0.0006169080152176321
			],
			"scale":[
				0.27140021324157715,
				0.29762762784957886,
				0.4515492916107178
			],
			"translation":[
				-0.36497512459754944,
				0.9358803033828735,
				1.4757769107818604
			]
		},
		{
			"mesh":6,
			"name":"Door_SR_LOD0.005",
			"rotation":[
				-0.0006169080152176321,
				0.7071065306663513,
				0.7071065306663513,
				0.0006169080152176321
			],
			"scale":[
				0.27140021324157715,
				0.29762762784957886,
				0.4515492916107178
			],
			"translation":[
				0.4281156361103058,
				0.9358803033828735,
				1.4768104553222656
			]
		},
		{
			"mesh":7,
			"name":"Door_WL_LOD0.005",
			"rotation":[
				-0.5004361271858215,
				0.4995634853839874,
				0.4995635151863098,
				0.5004361271858215
			],
			"scale":[
				0.27140024304389954,
				0.29762765765190125,
				0.4515492916107178
			],
			"translation":[
				-1.461257815361023,
				0.9358803033828735,
				-0.40940260887145996
			]
		},
		{
			"mesh":8,
			"name":"Door_WR_LOD0.005",
			"rotation":[
				-0.5004361271858215,
				0.4995634853839874,
				0.4995635151863098,
				0.5004361271858215
			],
			"scale":[
				0.27140024304389954,
				0.29762765765190125,
				0.4515492916107178
			],
			"translation":[
				-1.4622801542282104,
				0.9358803033828735,
				0.3915857970714569
			]
		},
		{
			"children":[
				2,
				3,
				4,
				5,
				6,
				7,
				8,
				9
			],
			"name":"Doors.005"
		},
		{
			"mesh":9,
			"name":"Roof1_LOD0.005",
			"rotation":[
				-0.70710688829422,
				0,
				0,
				0.7071066498756409
			],
			"scale":[
				0.2406320720911026,
				0.2406320869922638,
				0.2406320869922638
			],
			"translation":[
				0.026123046875,
				4.032567977905273,
				-0.01753350719809532
			]
		},
		{
			"mesh":10,
			"name":"Wall1_LOD0.005",
			"rotation":[
				0.499563604593277,
				0.49956363439559937,
				0.5004361271858215,
				0.5004360675811768
			],
			"scale":[
				0.17857664823532104,
				0.22976887226104736,
				0.22976884245872498
			],
			"translation":[
				-1.574188232421875,
				1.4140398502349854,
				1.456646203994751
			]
		},
		{
			"children":[
				11,
				12
			],
			"name":"Floor1.005"
		},
		{
			"mesh":11,
			"name":"Roof2_LOD0.005",
			"rotation":[
				-0.70710688829422,
				0,
				0,
				0.7071066498756409
			],
			"scale":[
				0.22860047221183777,
				0.22860048711299896,
				0.22860048711299896
			],
			"translation":[
				0.0261383056640625,
				6.407503128051758,
				-0.0174609012901783
			]
		},
		{
			"mesh":12,
			"name":"Wall2_LOD0.005",
			"rotation":[
				0.4995635747909546,
				0.49956363439559937,
				0.5004361271858215,
				0.5004360675811768
			],
			"scale":[
				0.16964784264564514,
				0.21828052401542664,
				0.21828052401542664
			],
			"translation":[
				-1.4941558837890625,
				3.9190001487731934,
				1.383009672164917
			]
		},
		{
			"children":[
				14,
				15
			],
			"name":"Floor2.005"
		},
		{
			"mesh":13,
			"name":"Roof3_LOD0.002",
			"rotation":[
				-0.70710688829422,
				0,
				0,
				0.7071066498756409
			],
			"scale":[
				0.05985543504357338,
				0.059855375438928604,
				0.21800319850444794
			],
			"translation":[
				0.0248260498046875,
				9.49851131439209,
				-0.018094360828399658
			]
		},
		{
			"mesh":14,
			"name":"Wall3_LOD0.002",
			"rotation":[
				0.499563604593277,
				0.49956363439559937,
				0.5004361271858215,
				0.5004360675811768
			],
			"scale":[
				0.16071897745132446,
				0.20679205656051636,
				0.20679202675819397
			],
			"translation":[
				-1.414154052734375,
				6.320341110229492,
				1.3093005418777466
			]
		},
		{
			"children":[
				17,
				18
			],
			"name":"Floor3.002"
		},
		{
			"mesh":15,
			"name":"Sorin_LOD0.005",
			"rotation":[
				-0.70710688829422,
				0,
				0,
				0.7071066498756409
			],
			"scale":[
				0.31353282928466797,
				0.31353285908699036,
				0.31353285908699036
			],
			"translation":[
				0.0154571533203125,
				10.100552558898926,
				-0.009035944007337093
			]
		},
		{
			"children":[
				20
			],
			"name":"Sorin.005"
		},
		{
			"children":[
				1,
				10,
				13,
				16,
				19,
				21
			],
			"name":"Pagoda_Sanju_13m"
		}
	],
	"materials":[
		{
			"doubleSided":true,
			"name":"mat_wood_plank_03.006",
			"pbrMetallicRoughness":{
				"baseColorTexture":{
					"index":0
				},
				"metallicFactor":0
			}
		},
		{
			"doubleSided":true,
			"name":"mat_wood_pillar_03.003",
			"pbrMetallicRoughness":{
				"baseColorTexture":{
					"extensions":{
						"KHR_texture_transform":{
							"offset":[
								0,
								0.5
							],
							"scale":[
								0.5,
								0.5
							]
						}
					},
					"index":1
				},
				"metallicFactor":0
			}
		},
		{
			"doubleSided":true,
			"name":"mat_wood_beam_03.003",
			"pbrMetallicRoughness":{
				"baseColorTexture":{
					"extensions":{
						"KHR_texture_transform":{
							"offset":[
								0,
								0.5
							],
							"scale":[
								0.5,
								0.5
							]
						}
					},
					"index":2
				},
				"metallicFactor":0
			}
		},
		{
			"doubleSided":true,
			"name":"mat_basalt_base_01.006",
			"pbrMetallicRoughness":{
				"baseColorTexture":{
					"extensions":{
						"KHR_texture_transform":{
							"offset":[
								0,
								0.6500000059604645
							],
							"scale":[
								0.3499999940395355,
								0.3499999940395355
							]
						}
					},
					"index":3
				},
				"metallicFactor":0
			}
		},
		{
			"doubleSided":true,
			"name":"mat_metal_copper_antique_01.006",
			"pbrMetallicRoughness":{
				"baseColorTexture":{
					"index":4
				},
				"metallicFactor":0
			}
		},
		{
			"doubleSided":true,
			"name":"mat_wood_wall_01.006",
			"pbrMetallicRoughness":{
				"baseColorFactor":[
					0.5583404898643494,
					0.4564109742641449,
					0.3467040956020355,
					1
				],
				"baseColorTexture":{
					"extensions":{
						"KHR_texture_transform":{
							"offset":[
								0,
								0.5
							],
							"scale":[
								0.5,
								0.5
							]
						}
					},
					"index":5
				},
				"metallicFactor":0
			}
		},
		{
			"name":"mat_decal_pagoda_01.006"
		},
		{
			"doubleSided":true,
			"name":"mat_wood_pillarRed_01.001",
			"pbrMetallicRoughness":{
				"baseColorFactor":[
					0.5457245707511902,
					0.061246056109666824,
					0.006512089166790247,
					1
				],
				"baseColorTexture":{
					"extensions":{
						"KHR_texture_transform":{
							"offset":[
								0,
								0.5
							],
							"scale":[
								0.5,
								0.5
							]
						}
					},
					"index":6
				},
				"metallicFactor":0
			}
		},
		{
			"doubleSided":true,
			"name":"mat_thatch_roof_01.001",
			"pbrMetallicRoughness":{
				"baseColorFactor":[
					0.5647116303443909,
					0.6724432110786438,
					0.7083759307861328,
					1
				],
				"baseColorTexture":{
					"extensions":{
						"KHR_texture_transform":{
							"offset":[
								0,
								0.9299999997019768
							],
							"scale":[
								0.14000000059604645,
								0.07000000029802322
							]
						}
					},
					"index":7
				},
				"metallicFactor":0
			}
		},
		{
			"doubleSided":true,
			"name":"mat_thatch_edge_01.001",
			"pbrMetallicRoughness":{
				"baseColorFactor":[
					0.7835379242897034,
					0.6653873324394226,
					0.5647116303443909,
					1
				],
				"baseColorTexture":{
					"extensions":{
						"KHR_texture_transform":{
							"offset":[
								0,
								0.5999999940395355
							],
							"scale":[
								0.4000000059604645,
								0.4000000059604645
							]
						}
					},
					"index":8
				},
				"metallicFactor":0
			}
		},
		{
			"doubleSided":true,
			"name":"mat_wood_paint_white_01.006",
			"pbrMetallicRoughness":{
				"baseColorFactor":[
					0.5711249113082886,
					0.4969330430030823,
					0.4125427007675171,
					1
				],
				"baseColorTexture":{
					"extensions":{
						"KHR_texture_transform":{
							"offset":[
								0,
								0.5
							],
							"scale":[
								0.5,
								0.5
							]
						}
					},
					"index":9
				},
				"metallicFactor":0
			}
		},
		{
			"doubleSided":true,
			"name":"mat_wood_beamRed_01.001",
			"pbrMetallicRoughness":{
				"baseColorFactor":[
					0.9646862745285034,
					0.08650045096874237,
					0,
					1
				],
				"baseColorTexture":{
					"extensions":{
						"KHR_texture_transform":{
							"offset":[
								0,
								0.5
							],
							"scale":[
								0.5,
								0.5
							]
						}
					},
					"index":10
				},
				"metallicFactor":0
			}
		},
		{
			"doubleSided":true,
			"name":"mat_wood_paint_yellow_01.002",
			"pbrMetallicRoughness":{
				"baseColorFactor":[
					0.630757212638855,
					0.24620133638381958,
					0.01444383803755045,
					1
				],
				"baseColorTexture":{
					"extensions":{
						"KHR_texture_transform":{
							"offset":[
								0,
								0.5
							],
							"scale":[
								0.5,
								0.5
							]
						}
					},
					"index":11
				},
				"metallicFactor":0
			}
		},
		{
			"doubleSided":true,
			"name":"mat_wood_paint_green_01.003",
			"pbrMetallicRoughness":{
				"baseColorFactor":[
					0.04817181080579758,
					0.11953841149806976,
					0.07036009430885315,
					1
				],
				"baseColorTexture":{
					"extensions":{
						"KHR_texture_transform":{
							"offset":[
								0,
								0.5
							],
							"scale":[
								0.5,
								0.5
							]
						}
					},
					"index":12
				},
				"metallicFactor":0
			}
		},
		{
			"doubleSided":true,
			"name":"mat_metal_copper_patina_01.006",
			"pbrMetallicRoughness":{
				"baseColorTexture":{
					"extensions":{
						"KHR_texture_transform":{
							"offset":[
								0,
								0.5
							],
							"scale":[
								0.5,
								0.5
							]
						}
					},
					"index":13
				},
				"metallicFactor":0
			}
		}
	],
	"meshes":[
		{
			"name":"Base_LOD0.006",
			"primitives":[
				{
					"attributes":{
						"POSITION":0,
						"NORMAL":1,
						"TEXCOORD_0":2
					},
					"indices":3,
					"material":0
				},
				{
					"attributes":{
						"POSITION":4,
						"NORMAL":5,
						"TEXCOORD_0":6
					},
					"indices":7,
					"material":1
				},
				{
					"attributes":{
						"POSITION":8,
						"NORMAL":9,
						"TEXCOORD_0":10
					},
					"indices":11,
					"material":2
				},
				{
					"attributes":{
						"POSITION":12,
						"NORMAL":13,
						"TEXCOORD_0":14
					},
					"indices":15,
					"material":3
				},
				{
					"attributes":{
						"POSITION":16,
						"NORMAL":17,
						"TEXCOORD_0":18
					},
					"indices":19,
					"material":4
				}
			]
		},
		{
			"name":"Door_EL_LOD0.006",
			"primitives":[
				{
					"attributes":{
						"POSITION":20,
						"NORMAL":21,
						"TEXCOORD_0":22
					},
					"indices":23,
					"material":5
				}
			]
		},
		{
			"name":"Door_ER_LOD0.006",
			"primitives":[
				{
					"attributes":{
						"POSITION":24,
						"NORMAL":25,
						"TEXCOORD_0":26
					},
					"indices":27,
					"material":5
				},
				{
					"attributes":{
						"POSITION":28,
						"NORMAL":29,
						"TEXCOORD_0":30
					},
					"indices":31,
					"material":6
				}
			]
		},
		{
			"name":"Door_NL_LOD0.006",
			"primitives":[
				{
					"attributes":{
						"POSITION":32,
						"NORMAL":33,
						"TEXCOORD_0":34
					},
					"indices":23,
					"material":5
				}
			]
		},
		{
			"name":"Door_NR_LOD0.006",
			"primitives":[
				{
					"attributes":{
						"POSITION":35,
						"NORMAL":36,
						"TEXCOORD_0":37
					},
					"indices":27,
					"material":5
				},
				{
					"attributes":{
						"POSITION":38,
						"NORMAL":39,
						"TEXCOORD_0":40
					},
					"indices":31,
					"material":6
				}
			]
		},
		{
			"name":"Door_SL_LOD0.006",
			"primitives":[
				{
					"attributes":{
						"POSITION":41,
						"NORMAL":42,
						"TEXCOORD_0":43
					},
					"indices":23,
					"material":5
				}
			]
		},
		{
			"name":"Door_SR_LOD0.006",
			"primitives":[
				{
					"attributes":{
						"POSITION":44,
						"NORMAL":45,
						"TEXCOORD_0":46
					},
					"indices":27,
					"material":5
				},
				{
					"attributes":{
						"POSITION":47,
						"NORMAL":48,
						"TEXCOORD_0":49
					},
					"indices":31,
					"material":6
				}
			]
		},
		{
			"name":"Door_WL_LOD0.006",
			"primitives":[
				{
					"attributes":{
						"POSITION":50,
						"NORMAL":51,
						"TEXCOORD_0":52
					},
					"indices":23,
					"material":5
				}
			]
		},
		{
			"name":"Door_WR_LOD0.006",
			"primitives":[
				{
					"attributes":{
						"POSITION":53,
						"NORMAL":54,
						"TEXCOORD_0":55
					},
					"indices":27,
					"material":5
				},
				{
					"attributes":{
						"POSITION":56,
						"NORMAL":57,
						"TEXCOORD_0":58
					},
					"indices":31,
					"material":6
				}
			]
		},
		{
			"name":"Roof1_LOD0.006",
			"primitives":[
				{
					"attributes":{
						"POSITION":59,
						"NORMAL":60,
						"TEXCOORD_0":61
					},
					"indices":62,
					"material":0
				},
				{
					"attributes":{
						"POSITION":63,
						"NORMAL":64,
						"TEXCOORD_0":65
					},
					"indices":66,
					"material":7
				},
				{
					"attributes":{
						"POSITION":67,
						"NORMAL":68,
						"TEXCOORD_0":69
					},
					"indices":70,
					"material":8
				},
				{
					"attributes":{
						"POSITION":71,
						"NORMAL":72,
						"TEXCOORD_0":73
					},
					"indices":74,
					"material":9
				},
				{
					"attributes":{
						"POSITION":75,
						"NORMAL":76,
						"TEXCOORD_0":77
					},
					"indices":78,
					"material":10
				},
				{
					"attributes":{
						"POSITION":79,
						"NORMAL":80,
						"TEXCOORD_0":81
					},
					"indices":82,
					"material":11
				}
			]
		},
		{
			"name":"Wall1_LOD0.006",
			"primitives":[
				{
					"attributes":{
						"POSITION":83,
						"NORMAL":84,
						"TEXCOORD_0":85
					},
					"indices":86,
					"material":11
				},
				{
					"attributes":{
						"POSITION":87,
						"NORMAL":88,
						"TEXCOORD_0":89
					},
					"indices":90,
					"material":10
				},
				{
					"attributes":{
						"POSITION":91,
						"NORMAL":92,
						"TEXCOORD_0":93
					},
					"indices":94,
					"material":7
				},
				{
					"attributes":{
						"POSITION":95,
						"NORMAL":96,
						"TEXCOORD_0":97
					},
					"indices":98,
					"material":12
				},
				{
					"attributes":{
						"POSITION":99,
						"NORMAL":100,
						"TEXCOORD_0":101
					},
					"indices":102,
					"material":0
				},
				{
					"attributes":{
						"POSITION":103,
						"NORMAL":104,
						"TEXCOORD_0":105
					},
					"indices":106,
					"material":6
				}
			]
		},
		{
			"name":"Roof2_LOD0.006",
			"primitives":[
				{
					"attributes":{
						"POSITION":107,
						"NORMAL":108,
						"TEXCOORD_0":109
					},
					"indices":110,
					"material":7
				},
				{
					"attributes":{
						"POSITION":111,
						"NORMAL":112,
						"TEXCOORD_0":113
					},
					"indices":114,
					"material":8
				},
				{
					"attributes":{
						"POSITION":115,
						"NORMAL":116,
						"TEXCOORD_0":117
					},
					"indices":118,
					"material":0
				},
				{
					"attributes":{
						"POSITION":119,
						"NORMAL":120,
						"TEXCOORD_0":121
					},
					"indices":122,
					"material":9
				},
				{
					"attributes":{
						"POSITION":123,
						"NORMAL":124,
						"TEXCOORD_0":125
					},
					"indices":78,
					"material":10
				},
				{
					"attributes":{
						"POSITION":126,
						"NORMAL":127,
						"TEXCOORD_0":128
					},
					"indices":129,
					"material":11
				}
			]
		},
		{
			"name":"Wall2_LOD0.006",
			"primitives":[
				{
					"attributes":{
						"POSITION":130,
						"NORMAL":131,
						"TEXCOORD_0":132
					},
					"indices":90,
					"material":11
				},
				{
					"attributes":{
						"POSITION":133,
						"NORMAL":134,
						"TEXCOORD_0":135
					},
					"indices":136,
					"material":2
				},
				{
					"attributes":{
						"POSITION":137,
						"NORMAL":138,
						"TEXCOORD_0":139
					},
					"indices":140,
					"material":7
				},
				{
					"attributes":{
						"POSITION":141,
						"NORMAL":142,
						"TEXCOORD_0":143
					},
					"indices":102,
					"material":0
				},
				{
					"attributes":{
						"POSITION":144,
						"NORMAL":145,
						"TEXCOORD_0":146
					},
					"indices":147,
					"material":13
				}
			]
		},
		{
			"name":"Roof3_LOD0.003",
			"primitives":[
				{
					"attributes":{
						"POSITION":148,
						"NORMAL":149,
						"TEXCOORD_0":150
					},
					"indices":151,
					"material":7
				},
				{
					"attributes":{
						"POSITION":152,
						"NORMAL":153,
						"TEXCOORD_0":154
					},
					"indices":155,
					"material":10
				},
				{
					"attributes":{
						"POSITION":156,
						"NORMAL":157,
						"TEXCOORD_0":158
					},
					"indices":159,
					"material":8
				},
				{
					"attributes":{
						"POSITION":160,
						"NORMAL":161,
						"TEXCOORD_0":162
					},
					"indices":163,
					"material":0
				},
				{
					"attributes":{
						"POSITION":164,
						"NORMAL":165,
						"TEXCOORD_0":166
					},
					"indices":167,
					"material":9
				}
			]
		},
		{
			"name":"Wall3_LOD0.003",
			"primitives":[
				{
					"attributes":{
						"POSITION":168,
						"NORMAL":169,
						"TEXCOORD_0":170
					},
					"indices":90,
					"material":10
				},
				{
					"attributes":{
						"POSITION":171,
						"NORMAL":172,
						"TEXCOORD_0":173
					},
					"indices":136,
					"material":11
				},
				{
					"attributes":{
						"POSITION":174,
						"NORMAL":175,
						"TEXCOORD_0":176
					},
					"indices":140,
					"material":7
				},
				{
					"attributes":{
						"POSITION":177,
						"NORMAL":178,
						"TEXCOORD_0":179
					},
					"indices":102,
					"material":0
				},
				{
					"attributes":{
						"POSITION":180,
						"NORMAL":181,
						"TEXCOORD_0":182
					},
					"indices":147,
					"material":13
				}
			]
		},
		{
			"name":"Sorin_LOD0.006",
			"primitives":[
				{
					"attributes":{
						"POSITION":183,
						"NORMAL":184,
						"TEXCOORD_0":185
					},
					"indices":186,
					"material":14
				},
				{
					"attributes":{
						"POSITION":187,
						"NORMAL":188,
						"TEXCOORD_0":189
					},
					"indices":190,
					"material":6
				}
			]
		}
	],
	"textures":[
		{
			"sampler":0,
			"source":0
		},
		{
			"sampler":0,
			"source":1
		},
		{
			"sampler":0,
			"source":2
		},
		{
			"sampler":0,
			"source":3
		},
		{
			"sampler":0,
			"source":4
		},
		{
			"sampler":0,
			"source":5
		},
		{
			"sampler":0,
			"source":6
		},
		{
			"sampler":0,
			"source":7
		},
		{
			"sampler":0,
			"source":8
		},
		{
			"sampler":0,
			"source":9
		},
		{
			"sampler":0,
			"source":10
		},
		{
			"sampler":0,
			"source":9
		},
		{
			"sampler":0,
			"source":9
		},
		{
			"sampler":0,
			"source":11
		}
	],
	"images":[
		{
			"mimeType":"image/png",
			"name":"tex_wood_plank_03a",
			"uri":"tex_wood_plank_03a.png"
		},
		{
			"mimeType":"image/png",
			"name":"tex_wood_pillar_03a",
			"uri":"tex_wood_pillar_03a.png"
		},
		{
			"mimeType":"image/png",
			"name":"tex_wood_beam_03a",
			"uri":"tex_wood_beam_03a.png"
		},
		{
			"mimeType":"image/png",
			"name":"tex_basalt_base_01a",
			"uri":"tex_basalt_base_01a.png"
		},
		{
			"mimeType":"image/png",
			"name":"tex_metal_copper_antique_01a",
			"uri":"tex_metal_copper_antique_01a.png"
		},
		{
			"mimeType":"image/png",
			"name":"tex_wood_wall_01a",
			"uri":"tex_wood_wall_01a.png"
		},
		{
			"mimeType":"image/png",
			"name":"tex_wood_pillarColor_01a",
			"uri":"tex_wood_pillarColor_01a.png"
		},
		{
			"mimeType":"image/png",
			"name":"tex_thatch_roof_01a",
			"uri":"tex_thatch_roof_01a.png"
		},
		{
			"mimeType":"image/png",
			"name":"tex_thatch_edge_01a",
			"uri":"tex_thatch_edge_01a.png"
		},
		{
			"mimeType":"image/png",
			"name":"tex_wood_paint_03a",
			"uri":"tex_wood_paint_03a.png"
		},
		{
			"mimeType":"image/png",
			"name":"tex_wood_beamColor_01a",
			"uri":"tex_wood_beamColor_01a.png"
		},
		{
			"mimeType":"image/png",
			"name":"tex_metal_copper_patina_01a",
			"uri":"tex_metal_copper_patina_01a.png"
		}
	],
	"accessors":[
		{
			"bufferView":0,
			"componentType":5126,
			"count":8,
			"max":[
				4.9946770668029785,
				4.9688262939453125,
				1.5615266561508179
			],
			"min":[
				-4.831294536590576,
				-4.885842323303223,
				1.4285823106765747
			],
			"type":"VEC3"
		},
		{
			"bufferView":1,
			"componentType":5126,
			"count":8,
			"type":"VEC3"
		},
		{
			"bufferView":2,
			"componentType":5126,
			"count":8,
			"type":"VEC2"
		},
		{
			"bufferView":3,
			"componentType":5123,
			"count":12,
			"type":"SCALAR"
		},
		{
			"bufferView":4,
			"componentType":5126,
			"count":1066,
			"max":[
				4.891628742218018,
				4.872360706329346,
				2.5886118412017822
			],
			"min":[
				-4.803834438323975,
				-4.795721530914307,
				-0.027875838801264763
			],
			"type":"VEC3"
		},
		{
			"bufferView":5,
			"componentType":5126,
			"count":1066,
			"type":"VEC3"
		},
		{
			"bufferView":6,
			"componentType":5126,
			"count":1066,
			"type":"VEC2"
		},
		{
			"bufferView":7,
			"componentType":5123,
			"count":1620,
			"type":"SCALAR"
		},
		{
			"bufferView":8,
			"componentType":5126,
			"count":374,
			"max":[
				6.444511890411377,
				6.423130989074707,
				2.1043331623077393
			],
			"min":[
				-6.283977031707764,
				-6.3328537940979,
				-0.02772003412246704
			],
			"type":"VEC3"
		},
		{
			"bufferView":9,
			"componentType":5126,
			"count":374,
			"type":"VEC3"
		},
		{
			"bufferView":10,
			"componentType":5126,
			"count":374,
			"type":"VEC2"
		},
		{
			"bufferView":11,
			"componentType":5123,
			"count":546,
			"type":"SCALAR"
		},
		{
			"bufferView":12,
			"componentType":5126,
			"count":56,
			"max":[
				3.8864669799804688,
				3.780991315841675,
				1.207788348197937
			],
			"min":[
				-3.6784825325012207,
				-3.8130745887756348,
				-0.03578957915306091
			],
			"type":"VEC3"
		},
		{
			"bufferView":13,
			"componentType":5126,
			"count":56,
			"type":"VEC3"
		},
		{
			"bufferView":14,
			"componentType":5126,
			"count":56,
			"type":"VEC2"
		},
		{
			"bufferView":15,
			"componentType":5123,
			"count":84,
			"type":"SCALAR"
		},
		{
			"bufferView":16,
			"componentType":5126,
			"count":252,
			"max":[
				4.898728847503662,
				4.87946081161499,
				3.3044378757476807
			],
			"min":[
				-4.757401466369629,
				-4.79893159866333,
				2.560028314590454
			],
			"type":"VEC3"
		},
		{
			"bufferView":17,
			"componentType":5126,
			"count":252,
			"type":"VEC3"
		},
		{
			"bufferView":18,
			"componentType":5126,
			"count":252,
			"type":"VEC2"
		},
		{
			"bufferView":19,
			"componentType":5123,
			"count":504,
			"type":"SCALAR"
		},
		{
			"bufferView":20,
			"componentType":5126,
			"count":24,
			"max":[
				0.05805611610412598,
				0.04995270445942879,
				3.222360849380493
			],
			"min":[
				-1.4652328491210938,
				-0.050626080483198166,
				0
			],
			"type":"VEC3"
		},
		{
			"bufferView":21,
			"componentType":5126,
			"count":24,
			"type":"VEC3"
		},
		{
			"bufferView":22,
			"componentType":5126,
			"count":24,
			"type":"VEC2"
		},
		{
			"bufferView":23,
			"componentType":5123,
			"count":36,
			"type":"SCALAR"
		},
		{
			"bufferView":24,
			"componentType":5126,
			"count":48,
			"max":[
				1.5474269390106201,
				0.07969141751527786,
				3.222360849380493
			],
			"min":[
				-0.04658663272857666,
				-0.049985162913799286,
				0
			],
			"type":"VEC3"
		},
		{
			"bufferView":25,
			"componentType":5126,
			"count":48,
			"type":"VEC3"
		},
		{
			"bufferView":26,
			"componentType":5126,
			"count":48,
			"type":"VEC2"
		},
		{
			"bufferView":27,
			"componentType":5123,
			"count":72,
			"type":"SCALAR"
		},
		{
			"bufferView":28,
			"componentType":5126,
			"count":12,
			"max":[
				1.5474275350570679,
				0.0825507864356041,
				2.246234893798828
			],
			"min":[
				1.4248615503311157,
				0.0825502946972847,
				1.0228471755981445
			],
			"type":"VEC3"
		},
		{
			"bufferView":29,
			"componentType":5126,
			"count":12,
			"type":"VEC3"
		},
		{
			"bufferView":30,
			"componentType":5126,
			"count":12,
			"type":"VEC2"
		},
		{
			"bufferView":31,
			"componentType":5123,
			"count":18,
			"type":"SCALAR"
		},
		{
			"bufferView":32,
			"componentType":5126,
			"count":24,
			"max":[
				0.07525163888931274,
				0.04997934773564339,
				3.222360849380493
			],
			"min":[
				-1.4541810750961304,
				-0.050608497112989426,
				0
			],
			"type":"VEC3"
		},
		{
			"bufferView":33,
			"componentType":5126,
			"count":24,
			"type":"VEC3"
		},
		{
			"bufferView":34,
			"componentType":5126,
			"count":24,
			"type":"VEC2"
		},
		{
			"bufferView":35,
			"componentType":5126,
			"count":48,
			"max":[
				1.5396637916564941,
				0.07968036085367203,
				3.222360849380493
			],
			"min":[
				-0.044547080993652344,
				-0.04998215287923813,
				0
			],
			"type":"VEC3"
		},
		{
			"bufferView":36,
			"componentType":5126,
			"count":48,
			"type":"VEC3"
		},
		{
			"bufferView":37,
			"componentType":5126,
			"count":48,
			"type":"VEC2"
		},
		{
			"bufferView":38,
			"componentType":5126,
			"count":12,
			"max":[
				1.5396645069122314,
				0.08253886550664902,
				2.219649076461792
			],
			"min":[
				1.4170982837677002,
				0.08253838121891022,
				0.9993563294410706
			],
			"type":"VEC3"
		},
		{
			"bufferView":39,
			"componentType":5126,
			"count":12,
			"type":"VEC3"
		},
		{
			"bufferView":40,
			"componentType":5126,
			"count":12,
			"type":"VEC2"
		},
		{
			"bufferView":41,
			"componentType":5126,
			"count":24,
			"max":[
				0.08271199464797974,
				0.04999154806137085,
				3.222360849380493
			],
			"min":[
				-1.4372947216033936,
				-0.050581324845552444,
				0
			],
			"type":"VEC3"
		},
		{
			"bufferView":42,
			"componentType":5126,
			"count":24,
			"type":"VEC3"
		},
		{
			"bufferView":43,
			"componentType":5126,
			"count":24,
			"type":"VEC2"
		},
		{
			"bufferView":44,
			"componentType":5126,
			"count":48,
			"max":[
				1.5429930686950684,
				0.07968425005674362,
				3.222360849380493
			],
			"min":[
				-0.05064380168914795,
				-0.0499914325773716,
				0
			],
			"type":"VEC3"
		},
		{
			"bufferView":45,
			"componentType":5126,
			"count":48,
			"type":"VEC3"
		},
		{
			"bufferView":46,
			"componentType":5126,
			"count":48,
			"type":"VEC2"
		},
		{
			"bufferView":47,
			"componentType":5126,
			"count":12,
			"max":[
				1.542993426322937,
				0.08254501223564148,
				2.2273449897766113
			],
			"min":[
				1.4204273223876953,
				0.08254451304674149,
				1.0047616958618164
			],
			"type":"VEC3"
		},
		{
			"bufferView":48,
			"componentType":5126,
			"count":12,
			"type":"VEC3"
		},
		{
			"bufferView":49,
			"componentType":5126,
			"count":12,
			"type":"VEC2"
		},
		{
			"bufferView":50,
			"componentType":5126,
			"count":24,
			"max":[
				0.07997655868530273,
				0.04998723790049553,
				3.222360849380493
			],
			"min":[
				-1.4498337507247925,
				-0.05060137063264847,
				0
			],
			"type":"VEC3"
		},
		{
			"bufferView":51,
			"componentType":5126,
			"count":24,
			"type":"VEC3"
		},
		{
			"bufferView":52,
			"componentType":5126,
			"count":24,
			"type":"VEC2"
		},
		{
			"bufferView":53,
			"componentType":5126,
			"count":48,
			"max":[
				1.5595757961273193,
				0.07971073687076569,
				3.222360849380493
			],
			"min":[
				-0.027917444705963135,
				-0.04995620250701904,
				0
			],
			"type":"VEC3"
		},
		{
			"bufferView":54,
			"componentType":5126,
			"count":48,
			"type":"VEC3"
		},
		{
			"bufferView":55,
			"componentType":5126,
			"count":48,
			"type":"VEC2"
		},
		{
			"bufferView":56,
			"componentType":5126,
			"count":12,
			"max":[
				1.5595756769180298,
				0.08257151395082474,
				2.1782619953155518
			],
			"min":[
				1.4370094537734985,
				0.08257104456424713,
				0.9548825621604919
			],
			"type":"VEC3"
		},
		{
			"bufferView":57,
			"componentType":5126,
			"count":12,
			"type":"VEC3"
		},
		{
			"bufferView":58,
			"componentType":5126,
			"count":12,
			"type":"VEC2"
		},
		{
			"bufferView":59,
			"componentType":5126,
			"count":61,
			"max":[
				14.008607864379883,
				13.515009880065918,
				0.6434826254844666
			],
			"min":[
				-13.490133285522461,
				-13.515010833740234,
				-3.178269624710083
			],
			"type":"VEC3"
		},
		{
			"bufferView":60,
			"componentType":5126,
			"count":61,
			"type":"VEC3"
		},
		{
			"bufferView":61,
			"componentType":5126,
			"count":61,
			"type":"VEC2"
		},
		{
			"bufferView":62,
			"componentType":5123,
			"count":75,
			"type":"SCALAR"
		},
		{
			"bufferView":63,
			"componentType":5126,
			"count":475,
			"max":[
				13.230377197265625,
				13.25846004486084,
				1.1599657535552979
			],
			"min":[
				-13.234086036682129,
				-13.25846004486084,
				-3.6364529132843018
			],
			"type":"VEC3"
		},
		{
			"bufferView":64,
			"componentType":5126,
			"count":475,
			"type":"VEC3"
		},
		{
			"bufferView":65,
			"componentType":5126,
			"count":475,
			"type":"VEC2"
		},
		{
			"bufferView":66,
			"componentType":5123,
			"count":669,
			"type":"SCALAR"
		},
		{
			"bufferView":67,
			"componentType":5126,
			"count":64,
			"max":[
				14.008606910705566,
				14.041840553283691,
				0.13094890117645264
			],
			"min":[
				-14.019513130187988,
				-14.04183292388916,
				-2.4786734580993652
			],
			"type":"VEC3"
		},
		{
			"bufferView":68,
			"componentType":5126,
			"count":64,
			"type":"VEC3"
		},
		{
			"bufferView":69,
			"componentType":5126,
			"count":64,
			"type":"VEC2"
		},
		{
			"bufferView":70,
			"componentType":5123,
			"count":72,
			"type":"SCALAR"
		},
		{
			"bufferView":71,
			"componentType":5126,
			"count":48,
			"max":[
				13.877934455871582,
				13.907286643981934,
				-2.1240344047546387
			],
			"min":[
				-13.881613731384277,
				-13.907281875610352,
				-3.1007328033447266
			],
			"type":"VEC3"
		},
		{
			"bufferView":72,
			"componentType":5126,
			"count":48,
			"type":"VEC3"
		},
		{
			"bufferView":73,
			"componentType":5126,
			"count":48,
			"type":"VEC2"
		},
		{
			"bufferView":74,
			"componentType":5123,
			"count":72,
			"type":"SCALAR"
		},
		{
			"bufferView":75,
			"componentType":5126,
			"count":78,
			"max":[
				13.230376243591309,
				13.258459091186523,
				0.2131141871213913
			],
			"min":[
				-13.234086036682129,
				-13.258459091186523,
				-3.6364529132843018
			],
			"type":"VEC3"
		},
		{
			"bufferView":76,
			"componentType":5126,
			"count":78,
			"type":"VEC3"
		},
		{
			"bufferView":77,
			"componentType":5126,
			"count":78,
			"type":"VEC2"
		},
		{
			"bufferView":78,
			"componentType":5123,
			"count":102,
			"type":"SCALAR"
		},
		{
			"bufferView":79,
			"componentType":5126,
			"count":639,
			"max":[
				8.761777877807617,
				8.682747840881348,
				1.741727590560913
			],
			"min":[
				-8.75386905670166,
				-8.785446166992188,
				-0.2770962119102478
			],
			"type":"VEC3"
		},
		{
			"bufferView":80,
			"componentType":5126,
			"count":639,
			"type":"VEC3"
		},
		{
			"bufferView":81,
			"componentType":5126,
			"count":639,
			"type":"VEC2"
		},
		{
			"bufferView":82,
			"componentType":5123,
			"count":897,
			"type":"SCALAR"
		},
		{
			"bufferView":83,
			"componentType":5126,
			"count":684,
			"max":[
				10.149731636047363,
				2.453946352005005,
				15.826494216918945
			],
			"min":[
				-3.460820198059082,
				-15.27219009399414,
				-1.9016355276107788
			],
			"type":"VEC3"
		},
		{
			"bufferView":84,
			"componentType":5126,
			"count":684,
			"type":"VEC3"
		},
		{
			"bufferView":85,
			"componentType":5126,
			"count":684,
			"type":"VEC2"
		},
		{
			"bufferView":86,
			"componentType":5123,
			"count":828,
			"type":"SCALAR"
		},
		{
			"bufferView":87,
			"componentType":5126,
			"count":96,
			"max":[
				13.34442138671875,
				0.034198880195617676,
				13.406744956970215
			],
			"min":[
				-2.7509329319000244,
				-12.852444648742676,
				0.5181141495704651
			],
			"type":"VEC3"
		},
		{
			"bufferView":88,
			"componentType":5126,
			"count":96,
			"type":"VEC3"
		},
		{
			"bufferView":89,
			"componentType":5126,
			"count":96,
			"type":"VEC2"
		},
		{
			"bufferView":90,
			"componentType":5123,
			"count":144,
			"type":"SCALAR"
		},
		{
			"bufferView":91,
			"componentType":5126,
			"count":359,
			"max":[
				12.726837158203125,
				7.759030342102051,
				21.131568908691406
			],
			"min":[
				-2.684894323348999,
				-20.577272415161133,
				-7.206717491149902
			],
			"type":"VEC3"
		},
		{
			"bufferView":92,
			"componentType":5126,
			"count":359,
			"type":"VEC3"
		},
		{
			"bufferView":93,
			"componentType":5126,
			"count":359,
			"type":"VEC2"
		},
		{
			"bufferView":94,
			"componentType":5123,
			"count":513,
			"type":"SCALAR"
		},
		{
			"bufferView":95,
			"componentType":5126,
			"count":4,
			"max":[
				10.177583694458008,
				1.7510952949523926,
				7.889540195465088
			],
			"min":[
				6.311643123626709,
				0.6058541536331177,
				7.865543365478516
			],
			"type":"VEC3"
		},
		{
			"bufferView":96,
			"componentType":5126,
			"count":4,
			"type":"VEC3"
		},
		{
			"bufferView":97,
			"componentType":5126,
			"count":4,
			"type":"VEC2"
		},
		{
			"bufferView":98,
			"componentType":5123,
			"count":6,
			"type":"SCALAR"
		},
		{
			"bufferView":99,
			"componentType":5126,
			"count":176,
			"max":[
				11.806346893310547,
				4.911345958709717,
				18.281665802001953
			],
			"min":[
				10.366141319274902,
				-17.728038787841797,
				-4.357324600219727
			],
			"type":"VEC3"
		},
		{
			"bufferView":100,
			"componentType":5126,
			"count":176,
			"type":"VEC3"
		},
		{
			"bufferView":101,
			"componentType":5126,
			"count":176,
			"type":"VEC2"
		},
		{
			"bufferView":102,
			"componentType":5123,
			"count":240,
			"type":"SCALAR"
		},
		{
			"bufferView":103,
			"componentType":5126,
			"count":4,
			"max":[
				9.809591293334961,
				1.5033495426177979,
				7.538938045501709
			],
			"min":[
				6.831018447875977,
				0.579004168510437,
				6.319740295410156
			],
			"type":"VEC3"
		},
		{
			"bufferView":104,
			"componentType":5126,
			"count":4,
			"type":"VEC3"
		},
		{
			"bufferView":105,
			"componentType":5126,
			"count":4,
			"type":"VEC2"
		},
		{
			"bufferView":106,
			"componentType":5123,
			"count":6,
			"type":"SCALAR"
		},
		{
			"bufferView":107,
			"componentType":5126,
			"count":482,
			"max":[
				13.230377197265625,
				13.25846004486084,
				1.1599657535552979
			],
			"min":[
				-13.234086036682129,
				-13.25846004486084,
				-3.6364529132843018
			],
			"type":"VEC3"
		},
		{
			"bufferView":108,
			"componentType":5126,
			"count":482,
			"type":"VEC3"
		},
		{
			"bufferView":109,
			"componentType":5126,
			"count":482,
			"type":"VEC2"
		},
		{
			"bufferView":110,
			"componentType":5123,
			"count":678,
			"type":"SCALAR"
		},
		{
			"bufferView":111,
			"componentType":5126,
			"count":64,
			"max":[
				14.0086030960083,
				14.041838645935059,
				0.1634528636932373
			],
			"min":[
				-14.019512176513672,
				-14.04183292388916,
				-2.446169376373291
			],
			"type":"VEC3"
		},
		{
			"bufferView":112,
			"componentType":5126,
			"count":64,
			"type":"VEC3"
		},
		{
			"bufferView":113,
			"componentType":5126,
			"count":64,
			"type":"VEC2"
		},
		{
			"bufferView":114,
			"componentType":5123,
			"count":72,
			"type":"SCALAR"
		},
		{
			"bufferView":115,
			"componentType":5126,
			"count":54,
			"max":[
				13.486420631408691,
				13.515008926391602,
				0.6434826254844666
			],
			"min":[
				-13.490131378173828,
				-13.515009880065918,
				-3.186687707901001
			],
			"type":"VEC3"
		},
		{
			"bufferView":116,
			"componentType":5126,
			"count":54,
			"type":"VEC3"
		},
		{
			"bufferView":117,
			"componentType":5126,
			"count":54,
			"type":"VEC2"
		},
		{
			"bufferView":118,
			"componentType":5123,
			"count":66,
			"type":"SCALAR"
		},
		{
			"bufferView":119,
			"componentType":5126,
			"count":50,
			"max":[
				13.877933502197266,
				13.907286643981934,
				-2.123307466506958
			],
			"min":[
				-13.881613731384277,
				-13.907280921936035,
				-3.1007328033447266
			],
			"type":"VEC3"
		},
		{
			"bufferView":120,
			"componentType":5126,
			"count":50,
			"type":"VEC3"
		},
		{
			"bufferView":121,
			"componentType":5126,
			"count":50,
			"type":"VEC2"
		},
		{
			"bufferView":122,
			"componentType":5123,
			"count":72,
			"type":"SCALAR"
		},
		{
			"bufferView":123,
			"componentType":5126,
			"count":78,
			"max":[
				13.230376243591309,
				13.258459091186523,
				0.2131141871213913
			],
			"min":[
				-13.234086036682129,
				-13.258459091186523,
				-3.6364529132843018
			],
			"type":"VEC3"
		},
		{
			"bufferView":124,
			"componentType":5126,
			"count":78,
			"type":"VEC3"
		},
		{
			"bufferView":125,
			"componentType":5126,
			"count":78,
			"type":"VEC2"
		},
		{
			"bufferView":126,
			"componentType":5126,
			"count":639,
			"max":[
				8.761777877807617,
				8.682747840881348,
				1.741727590560913
			],
			"min":[
				-8.75386905670166,
				-8.785446166992188,
				-0.2770962119102478
			],
			"type":"VEC3"
		},
		{
			"bufferView":127,
			"componentType":5126,
			"count":639,
			"type":"VEC3"
		},
		{
			"bufferView":128,
			"componentType":5126,
			"count":639,
			"type":"VEC2"
		},
		{
			"bufferView":129,
			"componentType":5123,
			"count":897,
			"type":"SCALAR"
		},
		{
			"bufferView":130,
			"componentType":5126,
			"count":96,
			"max":[
				13.34442138671875,
				0.034198880195617676,
				13.406744956970215
			],
			"min":[
				-1.3722565174102783,
				-12.85244369506836,
				0.5181141495704651
			],
			"type":"VEC3"
		},
		{
			"bufferView":131,
			"componentType":5126,
			"count":96,
			"type":"VEC3"
		},
		{
			"bufferView":132,
			"componentType":5126,
			"count":96,
			"type":"VEC2"
		},
		{
			"bufferView":133,
			"componentType":5126,
			"count":604,
			"max":[
				10.01798152923584,
				2.453946352005005,
				15.826494216918945
			],
			"min":[
				-1.3062000274658203,
				-15.27219009399414,
				-1.9016355276107788
			],
			"type":"VEC3"
		},
		{
			"bufferView":134,
			"componentType":5126,
			"count":604,
			"type":"VEC3"
		},
		{
			"bufferView":135,
			"componentType":5126,
			"count":604,
			"type":"VEC2"
		},
		{
			"bufferView":136,
			"componentType":5123,
			"count":720,
			"type":"SCALAR"
		},
		{
			"bufferView":137,
			"componentType":5126,
			"count":421,
			"max":[
				12.726837158203125,
				7.759030342102051,
				21.131568908691406
			],
			"min":[
				-1.306201696395874,
				-20.577272415161133,
				-7.206717491149902
			],
			"type":"VEC3"
		},
		{
			"bufferView":138,
			"componentType":5126,
			"count":421,
			"type":"VEC3"
		},
		{
			"bufferView":139,
			"componentType":5126,
			"count":421,
			"type":"VEC2"
		},
		{
			"bufferView":140,
			"componentType":5123,
			"count":603,
			"type":"SCALAR"
		},
		{
			"bufferView":141,
			"componentType":5126,
			"count":176,
			"max":[
				11.806346893310547,
				4.911345958709717,
				18.281665802001953
			],
			"min":[
				10.366141319274902,
				-17.728038787841797,
				-4.357324600219727
			],
			"type":"VEC3"
		},
		{
			"bufferView":142,
			"componentType":5126,
			"count":176,
			"type":"VEC3"
		},
		{
			"bufferView":143,
			"componentType":5126,
			"count":176,
			"type":"VEC2"
		},
		{
			"bufferView":144,
			"componentType":5126,
			"count":64,
			"max":[
				5.840526103973389,
				0.075257308781147,
				13.467781066894531
			],
			"min":[
				2.592726230621338,
				-12.927778244018555,
				0.4507382810115814
			],
			"type":"VEC3"
		},
		{
			"bufferView":145,
			"componentType":5126,
			"count":64,
			"type":"VEC3"
		},
		{
			"bufferView":146,
			"componentType":5126,
			"count":64,
			"type":"VEC2"
		},
		{
			"bufferView":147,
			"componentType":5123,
			"count":96,
			"type":"SCALAR"
		},
		{
			"bufferView":148,
			"componentType":5126,
			"count":598,
			"max":[
				48.55953598022461,
				48.549625396728516,
				2.9225807189941406
			],
			"min":[
				-48.54711151123047,
				-48.484886169433594,
				-7.620545864105225
			],
			"type":"VEC3"
		},
		{
			"bufferView":149,
			"componentType":5126,
			"count":598,
			"type":"VEC3"
		},
		{
			"bufferView":150,
			"componentType":5126,
			"count":598,
			"type":"VEC2"
		},
		{
			"bufferView":151,
			"componentType":5123,
			"count":756,
			"type":"SCALAR"
		},
		{
			"bufferView":152,
			"componentType":5126,
			"count":32,
			"max":[
				48.038795471191406,
				48.140377044677734,
				-5.361688613891602
			],
			"min":[
				-48.0382080078125,
				-48.1334114074707,
				-7.266602993011475
			],
			"type":"VEC3"
		},
		{
			"bufferView":153,
			"componentType":5126,
			"count":32,
			"type":"VEC3"
		},
		{
			"bufferView":154,
			"componentType":5126,
			"count":32,
			"type":"VEC2"
		},
		{
			"bufferView":155,
			"componentType":5123,
			"count":42,
			"type":"SCALAR"
		},
		{
			"bufferView":156,
			"componentType":5126,
			"count":41,
			"max":[
				50.86309051513672,
				51.239501953125,
				2.6756248474121094
			],
			"min":[
				-50.91781997680664,
				-51.23631286621094,
				-6.146997928619385
			],
			"type":"VEC3"
		},
		{
			"bufferView":157,
			"componentType":5126,
			"count":41,
			"type":"VEC3"
		},
		{
			"bufferView":158,
			"componentType":5126,
			"count":41,
			"type":"VEC2"
		},
		{
			"bufferView":159,
			"componentType":5123,
			"count":57,
			"type":"SCALAR"
		},
		{
			"bufferView":160,
			"componentType":5126,
			"count":45,
			"max":[
				50.85165786743164,
				50.978389739990234,
				-5.895080089569092
			],
			"min":[
				-50.902584075927734,
				-50.97774887084961,
				-6.955114841461182
			],
			"type":"VEC3"
		},
		{
			"bufferView":161,
			"componentType":5126,
			"count":45,
			"type":"VEC3"
		},
		{
			"bufferView":162,
			"componentType":5126,
			"count":45,
			"type":"VEC2"
		},
		{
			"bufferView":163,
			"componentType":5123,
			"count":63,
			"type":"SCALAR"
		},
		{
			"bufferView":164,
			"componentType":5126,
			"count":18,
			"max":[
				50.388248443603516,
				50.49934005737305,
				-5.928461074829102
			],
			"min":[
				-50.411216735839844,
				-50.49921417236328,
				-6.6394171714782715
			],
			"type":"VEC3"
		},
		{
			"bufferView":165,
			"componentType":5126,
			"count":18,
			"type":"VEC3"
		},
		{
			"bufferView":166,
			"componentType":5126,
			"count":18,
			"type":"VEC2"
		},
		{
			"bufferView":167,
			"componentType":5123,
			"count":24,
			"type":"SCALAR"
		},
		{
			"bufferView":168,
			"componentType":5126,
			"count":96,
			"max":[
				13.34442138671875,
				0.034198880195617676,
				13.406744956970215
			],
			"min":[
				-1.3722565174102783,
				-12.85244369506836,
				0.5181141495704651
			],
			"type":"VEC3"
		},
		{
			"bufferView":169,
			"componentType":5126,
			"count":96,
			"type":"VEC3"
		},
		{
			"bufferView":170,
			"componentType":5126,
			"count":96,
			"type":"VEC2"
		},
		{
			"bufferView":171,
			"componentType":5126,
			"count":604,
			"max":[
				10.01798152923584,
				2.453946352005005,
				15.826494216918945
			],
			"min":[
				-1.3062000274658203,
				-15.27219009399414,
				-1.9016355276107788
			],
			"type":"VEC3"
		},
		{
			"bufferView":172,
			"componentType":5126,
			"count":604,
			"type":"VEC3"
		},
		{
			"bufferView":173,
			"componentType":5126,
			"count":604,
			"type":"VEC2"
		},
		{
			"bufferView":174,
			"componentType":5126,
			"count":421,
			"max":[
				12.726837158203125,
				7.759030342102051,
				21.131568908691406
			],
			"min":[
				-1.306201696395874,
				-20.577272415161133,
				-7.206717491149902
			],
			"type":"VEC3"
		},
		{
			"bufferView":175,
			"componentType":5126,
			"count":421,
			"type":"VEC3"
		},
		{
			"bufferView":176,
			"componentType":5126,
			"count":421,
			"type":"VEC2"
		},
		{
			"bufferView":177,
			"componentType":5126,
			"count":176,
			"max":[
				11.806346893310547,
				4.911345958709717,
				18.281665802001953
			],
			"min":[
				10.366141319274902,
				-17.728038787841797,
				-4.357324600219727
			],
			"type":"VEC3"
		},
		{
			"bufferView":178,
			"componentType":5126,
			"count":176,
			"type":"VEC3"
		},
		{
			"bufferView":179,
			"componentType":5126,
			"count":176,
			"type":"VEC2"
		},
		{
			"bufferView":180,
			"componentType":5126,
			"count":64,
			"max":[
				5.840526103973389,
				0.075257308781147,
				13.467781066894531
			],
			"min":[
				2.592726230621338,
				-12.927778244018555,
				0.4507382810115814
			],
			"type":"VEC3"
		},
		{
			"bufferView":181,
			"componentType":5126,
			"count":64,
			"type":"VEC3"
		},
		{
			"bufferView":182,
			"componentType":5126,
			"count":64,
			"type":"VEC2"
		},
		{
			"bufferView":183,
			"componentType":5126,
			"count":1134,
			"max":[
				1.2400000095367432,
				1.2400000095367432,
				15.851237297058105
			],
			"min":[
				-1.2400000095367432,
				-1.2400000095367432,
				0.05288749933242798
			],
			"type":"VEC3"
		},
		{
			"bufferView":184,
			"componentType":5126,
			"count":1134,
			"type":"VEC3"
		},
		{
			"bufferView":185,
			"componentType":5126,
			"count":1134,
			"type":"VEC2"
		},
		{
			"bufferView":186,
			"componentType":5123,
			"count":1950,
			"type":"SCALAR"
		},
		{
			"bufferView":187,
			"componentType":5126,
			"count":32,
			"max":[
				1.1965975761413574,
				1.198356032371521,
				0.6901170611381531
			],
			"min":[
				-1.2002969980239868,
				-1.1996370553970337,
				0.1637592613697052
			],
			"type":"VEC3"
		},
		{
			"bufferView":188,
			"componentType":5126,
			"count":32,
			"type":"VEC3"
		},
		{
			"bufferView":189,
			"componentType":5126,
			"count":32,
			"type":"VEC2"
		},
		{
			"bufferView":190,
			"componentType":5123,
			"count":48,
			"type":"SCALAR"
		}
	],
	"bufferViews":[
		{
			"buffer":0,
			"byteLength":96,
			"byteOffset":0,
			"target":34962
		},
		{
			"buffer":0,
			"byteLength":96,
			"byteOffset":96,
			"target":34962
		},
		{
			"buffer":0,
			"byteLength":64,
			"byteOffset":192,
			"target":34962
		},
		{
			"buffer":0,
			"byteLength":24,
			"byteOffset":256,
			"target":34963
		},
		{
			"buffer":0,
			"byteLength":12792,
			"byteOffset":280,
			"target":34962
		},
		{
			"buffer":0,
			"byteLength":12792,
			"byteOffset":13072,
			"target":34962
		},
		{
			"buffer":0,
			"byteLength":8528,
			"byteOffset":25864,
			"target":34962
		},
		{
			"buffer":0,
			"byteLength":3240,
			"byteOffset":34392,
			"target":34963
		},
		{
			"buffer":0,
			"byteLength":4488,
			"byteOffset":37632,
			"target":34962
		},
		{
			"buffer":0,
			"byteLength":4488,
			"byteOffset":42120,
			"target":34962
		},
		{
			"buffer":0,
			"byteLength":2992,
			"byteOffset":46608,
			"target":34962
		},
		{
			"buffer":0,
			"byteLength":1092,
			"byteOffset":49600,
			"target":34963
		},
		{
			"buffer":0,
			"byteLength":672,
			"byteOffset":50692,
			"target":34962
		},
		{
			"buffer":0,
			"byteLength":672,
			"byteOffset":51364,
			"target":34962
		},
		{
			"buffer":0,
			"byteLength":448,
			"byteOffset":52036,
			"target":34962
		},
		{
			"buffer":0,
			"byteLength":168,
			"byteOffset":52484,
			"target":34963
		},
		{
			"buffer":0,
			"byteLength":3024,
			"byteOffset":52652,
			"target":34962
		},
		{
			"buffer":0,
			"byteLength":3024,
			"byteOffset":55676,
			"target":34962
		},
		{
			"buffer":0,
			"byteLength":2016,
			"byteOffset":58700,
			"target":34962
		},
		{
			"buffer":0,
			"byteLength":1008,
			"byteOffset":60716,
			"target":34963
		},
		{
			"buffer":0,
			"byteLength":288,
			"byteOffset":61724,
			"target":34962
		},
		{
			"buffer":0,
			"byteLength":288,
			"byteOffset":62012,
			"target":34962
		},
		{
			"buffer":0,
			"byteLength":192,
			"byteOffset":62300,
			"target":34962
		},
		{
			"buffer":0,
			"byteLength":72,
			"byteOffset":62492,
			"target":34963
		},
		{
			"buffer":0,
			"byteLength":576,
			"byteOffset":62564,
			"target":34962
		},
		{
			"buffer":0,
			"byteLength":576,
			"byteOffset":63140,
			"target":34962
		},
		{
			"buffer":0,
			"byteLength":384,
			"byteOffset":63716,
			"target":34962
		},
		{
			"buffer":0,
			"byteLength":144,
			"byteOffset":64100,
			"target":34963
		},
		{
			"buffer":0,
			"byteLength":144,
			"byteOffset":64244,
			"target":34962
		},
		{
			"buffer":0,
			"byteLength":144,
			"byteOffset":64388,
			"target":34962
		},
		{
			"buffer":0,
			"byteLength":96,
			"byteOffset":64532,
			"target":34962
		},
		{
			"buffer":0,
			"byteLength":36,
			"byteOffset":64628,
			"target":34963
		},
		{
			"buffer":0,
			"byteLength":288,
			"byteOffset":64664,
			"target":34962
		},
		{
			"buffer":0,
			"byteLength":288,
			"byteOffset":64952,
			"target":34962
		},
		{
			"buffer":0,
			"byteLength":192,
			"byteOffset":65240,
			"target":34962
		},
		{
			"buffer":0,
			"byteLength":576,
			"byteOffset":65432,
			"target":34962
		},
		{
			"buffer":0,
			"byteLength":576,
			"byteOffset":66008,
			"target":34962
		},
		{
			"buffer":0,
			"byteLength":384,
			"byteOffset":66584,
			"target":34962
		},
		{
			"buffer":0,
			"byteLength":144,
			"byteOffset":66968,
			"target":34962
		},
		{
			"buffer":0,
			"byteLength":144,
			"byteOffset":67112,
			"target":34962
		},
		{
			"buffer":0,
			"byteLength":96,
			"byteOffset":67256,
			"target":34962
		},
		{
			"buffer":0,
			"byteLength":288,
			"byteOffset":67352,
			"target":34962
		},
		{
			"buffer":0,
			"byteLength":288,
			"byteOffset":67640,
			"target":34962
		},
		{
			"buffer":0,
			"byteLength":192,
			"byteOffset":67928,
			"target":34962
		},
		{
			"buffer":0,
			"byteLength":576,
			"byteOffset":68120,
			"target":34962
		},
		{
			"buffer":0,
			"byteLength":576,
			"byteOffset":68696,
			"target":34962
		},
		{
			"buffer":0,
			"byteLength":384,
			"byteOffset":69272,
			"target":34962
		},
		{
			"buffer":0,
			"byteLength":144,
			"byteOffset":69656,
			"target":34962
		},
		{
			"buffer":0,
			"byteLength":144,
			"byteOffset":69800,
			"target":34962
		},
		{
			"buffer":0,
			"byteLength":96,
			"byteOffset":69944,
			"target":34962
		},
		{
			"buffer":0,
			"byteLength":288,
			"byteOffset":70040,
			"target":34962
		},
		{
			"buffer":0,
			"byteLength":288,
			"byteOffset":70328,
			"target":34962
		},
		{
			"buffer":0,
			"byteLength":192,
			"byteOffset":70616,
			"target":34962
		},
		{
			"buffer":0,
			"byteLength":576,
			"byteOffset":70808,
			"target":34962
		},
		{
			"buffer":0,
			"byteLength":576,
			"byteOffset":71384,
			"target":34962
		},
		{
			"buffer":0,
			"byteLength":384,
			"byteOffset":71960,
			"target":34962
		},
		{
			"buffer":0,
			"byteLength":144,
			"byteOffset":72344,
			"target":34962
		},
		{
			"buffer":0,
			"byteLength":144,
			"byteOffset":72488,
			"target":34962
		},
		{
			"buffer":0,
			"byteLength":96,
			"byteOffset":72632,
			"target":34962
		},
		{
			"buffer":0,
			"byteLength":732,
			"byteOffset":72728,
			"target":34962
		},
		{
			"buffer":0,
			"byteLength":732,
			"byteOffset":73460,
			"target":34962
		},
		{
			"buffer":0,
			"byteLength":488,
			"byteOffset":74192,
			"target":34962
		},
		{
			"buffer":0,
			"byteLength":150,
			"byteOffset":74680,
			"target":34963
		},
		{
			"buffer":0,
			"byteLength":5700,
			"byteOffset":74832,
			"target":34962
		},
		{
			"buffer":0,
			"byteLength":5700,
			"byteOffset":80532,
			"target":34962
		},
		{
			"buffer":0,
			"byteLength":3800,
			"byteOffset":86232,
			"target":34962
		},
		{
			"buffer":0,
			"byteLength":1338,
			"byteOffset":90032,
			"target":34963
		},
		{
			"buffer":0,
			"byteLength":768,
			"byteOffset":91372,
			"target":34962
		},
		{
			"buffer":0,
			"byteLength":768,
			"byteOffset":92140,
			"target":34962
		},
		{
			"buffer":0,
			"byteLength":512,
			"byteOffset":92908,
			"target":34962
		},
		{
			"buffer":0,
			"byteLength":144,
			"byteOffset":93420,
			"target":34963
		},
		{
			"buffer":0,
			"byteLength":576,
			"byteOffset":93564,
			"target":34962
		},
		{
			"buffer":0,
			"byteLength":576,
			"byteOffset":94140,
			"target":34962
		},
		{
			"buffer":0,
			"byteLength":384,
			"byteOffset":94716,
			"target":34962
		},
		{
			"buffer":0,
			"byteLength":144,
			"byteOffset":95100,
			"target":34963
		},
		{
			"buffer":0,
			"byteLength":936,
			"byteOffset":95244,
			"target":34962
		},
		{
			"buffer":0,
			"byteLength":936,
			"byteOffset":96180,
			"target":34962
		},
		{
			"buffer":0,
			"byteLength":624,
			"byteOffset":97116,
			"target":34962
		},
		{
			"buffer":0,
			"byteLength":204,
			"byteOffset":97740,
			"target":34963
		},
		{
			"buffer":0,
			"byteLength":7668,
			"byteOffset":97944,
			"target":34962
		},
		{
			"buffer":0,
			"byteLength":7668,
			"byteOffset":105612,
			"target":34962
		},
		{
			"buffer":0,
			"byteLength":5112,
			"byteOffset":113280,
			"target":34962
		},
		{
			"buffer":0,
			"byteLength":1794,
			"byteOffset":118392,
			"target":34963
		},
		{
			"buffer":0,
			"byteLength":8208,
			"byteOffset":120188,
			"target":34962
		},
		{
			"buffer":0,
			"byteLength":8208,
			"byteOffset":128396,
			"target":34962
		},
		{
			"buffer":0,
			"byteLength":5472,
			"byteOffset":136604,
			"target":34962
		},
		{
			"buffer":0,
			"byteLength":1656,
			"byteOffset":142076,
			"target":34963
		},
		{
			"buffer":0,
			"byteLength":1152,
			"byteOffset":143732,
			"target":34962
		},
		{
			"buffer":0,
			"byteLength":1152,
			"byteOffset":144884,
			"target":34962
		},
		{
			"buffer":0,
			"byteLength":768,
			"byteOffset":146036,
			"target":34962
		},
		{
			"buffer":0,
			"byteLength":288,
			"byteOffset":146804,
			"target":34963
		},
		{
			"buffer":0,
			"byteLength":4308,
			"byteOffset":147092,
			"target":34962
		},
		{
			"buffer":0,
			"byteLength":4308,
			"byteOffset":151400,
			"target":34962
		},
		{
			"buffer":0,
			"byteLength":2872,
			"byteOffset":155708,
			"target":34962
		},
		{
			"buffer":0,
			"byteLength":1026,
			"byteOffset":158580,
			"target":34963
		},
		{
			"buffer":0,
			"byteLength":48,
			"byteOffset":159608,
			"target":34962
		},
		{
			"buffer":0,
			"byteLength":48,
			"byteOffset":159656,
			"target":34962
		},
		{
			"buffer":0,
			"byteLength":32,
			"byteOffset":159704,
			"target":34962
		},
		{
			"buffer":0,
			"byteLength":12,
			"byteOffset":159736,
			"target":34963
		},
		{
			"buffer":0,
			"byteLength":2112,
			"byteOffset":159748,
			"target":34962
		},
		{
			"buffer":0,
			"byteLength":2112,
			"byteOffset":161860,
			"target":34962
		},
		{
			"buffer":0,
			"byteLength":1408,
			"byteOffset":163972,
			"target":34962
		},
		{
			"buffer":0,
			"byteLength":480,
			"byteOffset":165380,
			"target":34963
		},
		{
			"buffer":0,
			"byteLength":48,
			"byteOffset":165860,
			"target":34962
		},
		{
			"buffer":0,
			"byteLength":48,
			"byteOffset":165908,
			"target":34962
		},
		{
			"buffer":0,
			"byteLength":32,
			"byteOffset":165956,
			"target":34962
		},
		{
			"buffer":0,
			"byteLength":12,
			"byteOffset":165988,
			"target":34963
		},
		{
			"buffer":0,
			"byteLength":5784,
			"byteOffset":166000,
			"target":34962
		},
		{
			"buffer":0,
			"byteLength":5784,
			"byteOffset":171784,
			"target":34962
		},
		{
			"buffer":0,
			"byteLength":3856,
			"byteOffset":177568,
			"target":34962
		},
		{
			"buffer":0,
			"byteLength":1356,
			"byteOffset":181424,
			"target":34963
		},
		{
			"buffer":0,
			"byteLength":768,
			"byteOffset":182780,
			"target":34962
		},
		{
			"buffer":0,
			"byteLength":768,
			"byteOffset":183548,
			"target":34962
		},
		{
			"buffer":0,
			"byteLength":512,
			"byteOffset":184316,
			"target":34962
		},
		{
			"buffer":0,
			"byteLength":144,
			"byteOffset":184828,
			"target":34963
		},
		{
			"buffer":0,
			"byteLength":648,
			"byteOffset":184972,
			"target":34962
		},
		{
			"buffer":0,
			"byteLength":648,
			"byteOffset":185620,
			"target":34962
		},
		{
			"buffer":0,
			"byteLength":432,
			"byteOffset":186268,
			"target":34962
		},
		{
			"buffer":0,
			"byteLength":132,
			"byteOffset":186700,
			"target":34963
		},
		{
			"buffer":0,
			"byteLength":600,
			"byteOffset":186832,
			"target":34962
		},
		{
			"buffer":0,
			"byteLength":600,
			"byteOffset":187432,
			"target":34962
		},
		{
			"buffer":0,
			"byteLength":400,
			"byteOffset":188032,
			"target":34962
		},
		{
			"buffer":0,
			"byteLength":144,
			"byteOffset":188432,
			"target":34963
		},
		{
			"buffer":0,
			"byteLength":936,
			"byteOffset":188576,
			"target":34962
		},
		{
			"buffer":0,
			"byteLength":936,
			"byteOffset":189512,
			"target":34962
		},
		{
			"buffer":0,
			"byteLength":624,
			"byteOffset":190448,
			"target":34962
		},
		{
			"buffer":0,
			"byteLength":7668,
			"byteOffset":191072,
			"target":34962
		},
		{
			"buffer":0,
			"byteLength":7668,
			"byteOffset":198740,
			"target":34962
		},
		{
			"buffer":0,
			"byteLength":5112,
			"byteOffset":206408,
			"target":34962
		},
		{
			"buffer":0,
			"byteLength":1794,
			"byteOffset":211520,
			"target":34963
		},
		{
			"buffer":0,
			"byteLength":1152,
			"byteOffset":213316,
			"target":34962
		},
		{
			"buffer":0,
			"byteLength":1152,
			"byteOffset":214468,
			"target":34962
		},
		{
			"buffer":0,
			"byteLength":768,
			"byteOffset":215620,
			"target":34962
		},
		{
			"buffer":0,
			"byteLength":7248,
			"byteOffset":216388,
			"target":34962
		},
		{
			"buffer":0,
			"byteLength":7248,
			"byteOffset":223636,
			"target":34962
		},
		{
			"buffer":0,
			"byteLength":4832,
			"byteOffset":230884,
			"target":34962
		},
		{
			"buffer":0,
			"byteLength":1440,
			"byteOffset":235716,
			"target":34963
		},
		{
			"buffer":0,
			"byteLength":5052,
			"byteOffset":237156,
			"target":34962
		},
		{
			"buffer":0,
			"byteLength":5052,
			"byteOffset":242208,
			"target":34962
		},
		{
			"buffer":0,
			"byteLength":3368,
			"byteOffset":247260,
			"target":34962
		},
		{
			"buffer":0,
			"byteLength":1206,
			"byteOffset":250628,
			"target":34963
		},
		{
			"buffer":0,
			"byteLength":2112,
			"byteOffset":251836,
			"target":34962
		},
		{
			"buffer":0,
			"byteLength":2112,
			"byteOffset":253948,
			"target":34962
		},
		{
			"buffer":0,
			"byteLength":1408,
			"byteOffset":256060,
			"target":34962
		},
		{
			"buffer":0,
			"byteLength":768,
			"byteOffset":257468,
			"target":34962
		},
		{
			"buffer":0,
			"byteLength":768,
			"byteOffset":258236,
			"target":34962
		},
		{
			"buffer":0,
			"byteLength":512,
			"byteOffset":259004,
			"target":34962
		},
		{
			"buffer":0,
			"byteLength":192,
			"byteOffset":259516,
			"target":34963
		},
		{
			"buffer":0,
			"byteLength":7176,
			"byteOffset":259708,
			"target":34962
		},
		{
			"buffer":0,
			"byteLength":7176,
			"byteOffset":266884,
			"target":34962
		},
		{
			"buffer":0,
			"byteLength":4784,
			"byteOffset":274060,
			"target":34962
		},
		{
			"buffer":0,
			"byteLength":1512,
			"byteOffset":278844,
			"target":34963
		},
		{
			"buffer":0,
			"byteLength":384,
			"byteOffset":280356,
			"target":34962
		},
		{
			"buffer":0,
			"byteLength":384,
			"byteOffset":280740,
			"target":34962
		},
		{
			"buffer":0,
			"byteLength":256,
			"byteOffset":281124,
			"target":34962
		},
		{
			"buffer":0,
			"byteLength":84,
			"byteOffset":281380,
			"target":34963
		},
		{
			"buffer":0,
			"byteLength":492,
			"byteOffset":281464,
			"target":34962
		},
		{
			"buffer":0,
			"byteLength":492,
			"byteOffset":281956,
			"target":34962
		},
		{
			"buffer":0,
			"byteLength":328,
			"byteOffset":282448,
			"target":34962
		},
		{
			"buffer":0,
			"byteLength":114,
			"byteOffset":282776,
			"target":34963
		},
		{
			"buffer":0,
			"byteLength":540,
			"byteOffset":282892,
			"target":34962
		},
		{
			"buffer":0,
			"byteLength":540,
			"byteOffset":283432,
			"target":34962
		},
		{
			"buffer":0,
			"byteLength":360,
			"byteOffset":283972,
			"target":34962
		},
		{
			"buffer":0,
			"byteLength":126,
			"byteOffset":284332,
			"target":34963
		},
		{
			"buffer":0,
			"byteLength":216,
			"byteOffset":284460,
			"target":34962
		},
		{
			"buffer":0,
			"byteLength":216,
			"byteOffset":284676,
			"target":34962
		},
		{
			"buffer":0,
			"byteLength":144,
			"byteOffset":284892,
			"target":34962
		},
		{
			"buffer":0,
			"byteLength":48,
			"byteOffset":285036,
			"target":34963
		},
		{
			"buffer":0,
			"byteLength":1152,
			"byteOffset":285084,
			"target":34962
		},
		{
			"buffer":0,
			"byteLength":1152,
			"byteOffset":286236,
			"target":34962
		},
		{
			"buffer":0,
			"byteLength":768,
			"byteOffset":287388,
			"target":34962
		},
		{
			"buffer":0,
			"byteLength":7248,
			"byteOffset":288156,
			"target":34962
		},
		{
			"buffer":0,
			"byteLength":7248,
			"byteOffset":295404,
			"target":34962
		},
		{
			"buffer":0,
			"byteLength":4832,
			"byteOffset":302652,
			"target":34962
		},
		{
			"buffer":0,
			"byteLength":5052,
			"byteOffset":307484,
			"target":34962
		},
		{
			"buffer":0,
			"byteLength":5052,
			"byteOffset":312536,
			"target":34962
		},
		{
			"buffer":0,
			"byteLength":3368,
			"byteOffset":317588,
			"target":34962
		},
		{
			"buffer":0,
			"byteLength":2112,
			"byteOffset":320956,
			"target":34962
		},
		{
			"buffer":0,
			"byteLength":2112,
			"byteOffset":323068,
			"target":34962
		},
		{
			"buffer":0,
			"byteLength":1408,
			"byteOffset":325180,
			"target":34962
		},
		{
			"buffer":0,
			"byteLength":768,
			"byteOffset":326588,
			"target":34962
		},
		{
			"buffer":0,
			"byteLength":768,
			"byteOffset":327356,
			"target":34962
		},
		{
			"buffer":0,
			"byteLength":512,
			"byteOffset":328124,
			"target":34962
		},
		{
			"buffer":0,
			"byteLength":13608,
			"byteOffset":328636,
			"target":34962
		},
		{
			"buffer":0,
			"byteLength":13608,
			"byteOffset":342244,
			"target":34962
		},
		{
			"buffer":0,
			"byteLength":9072,
			"byteOffset":355852,
			"target":34962
		},
		{
			"buffer":0,
			"byteLength":3900,
			"byteOffset":364924,
			"target":34963
		},
		{
			"buffer":0,
			"byteLength":384,
			"byteOffset":368824,
			"target":34962
		},
		{
			"buffer":0,
			"byteLength":384,
			"byteOffset":369208,
			"target":34962
		},
		{
			"buffer":0,
			"byteLength":256,
			"byteOffset":369592,
			"target":34962
		},
		{
			"buffer":0,
			"byteLength":96,
			"byteOffset":369848,
			"target":34963
		}
	],
	"samplers":[
		{
			"magFilter":9729,
			"minFilter":9987
		}
	],
	"buffers":[
		{
			"byteLength":369944,
			"uri":"Pagoda_Sanju_13m.bin"
		}
	]
}
