{
	"asset":{
		"generator":"Khronos glTF Blender I/O v4.4.56",
		"version":"2.0"
	},
	"extensionsUsed":[
		"KHR_texture_transform"
	],
	"extensionsRequired":[
		"KHR_texture_transform"
	],
	"scene":0,
	"scenes":[
		{
			"name":"Scene",
			"nodes":[
				22
			]
		}
	],
	"nodes":[
		{
			"mesh":0,
			"name":"Base_LOD0.003",
			"rotation":[
				-0.7071069478988647,
				0,
				0,
				0.7071066498756409
			],
			"scale":[
				0.7800000309944153,
				0.7800000905990601,
				0.726871907711029
			],
			"translation":[
				0.04318534582853317,
				0.8000316619873047,
				0.024295739829540253
			]
		},
		{
			"children":[
				0
			],
			"name":"Base.003"
		},
		{
			"mesh":1,
			"name":"Door_EL_LOD0.003",
			"rotation":[
				-0.4995634853839874,
				-0.5004361271858215,
				-0.5004361271858215,
				0.4995634853839874
			],
			"scale":[
				0.5337244272232056,
				0.5853021144866943,
				0.5853020548820496
			],
			"translation":[
				2.958209276199341,
				2.515504837036133,
				0.5660542845726013
			]
		},
		{
			"mesh":2,
			"name":"Door_ER_LOD0.003",
			"rotation":[
				-0.4995634853839874,
				-0.5004361271858215,
				-0.5004361271858215,
				0.4995634853839874
			],
			"scale":[
				0.5337244272232056,
				0.5853021144866943,
				0.5853020548820496
			],
			"translation":[
				2.960242509841919,
				2.515504837036133,
				-0.5985472798347473
			]
		},
		{
			"mesh":3,
			"name":"Door_NL_LOD0.003",
			"rotation":[
				-0.7071064710617065,
				-0.0006170273991301656,
				-0.0006170273409225047,
				0.7071065902709961
			],
			"scale":[
				0.5337243676185608,
				0.5853020548820496,
				0.5853020548820496
			],
			"translation":[
				0.6070806384086609,
				2.515504837036133,
				-2.9402682781219482
			]
		},
		{
			"mesh":4,
			"name":"Door_NR_LOD0.003",
			"rotation":[
				-0.7071064710617065,
				-0.0006170273991301656,
				-0.0006170273409225047,
				0.7071065902709961
			],
			"scale":[
				0.5337243676185608,
				0.5853020548820496,
				0.5853020548820496
			],
			"translation":[
				-0.557520866394043,
				2.515504837036133,
				-2.942300796508789
			]
		},
		{
			"mesh":5,
			"name":"Door_SL_LOD0.003",
			"rotation":[
				-0.0006169079570099711,
				0.7071065306663513,
				0.7071065306663513,
				0.000616908073425293
			],
			"scale":[
				0.5337244272232056,
				0.5853020548820496,
				0.5853020548820496
			],
			"translation":[
				-0.5482426881790161,
				2.515504837036133,
				2.9161763191223145
			]
		},
		{
			"mesh":6,
			"name":"Door_SR_LOD0.003",
			"rotation":[
				-0.0006169079570099711,
				0.7071065306663513,
				0.7071065306663513,
				0.000616908073425293
			],
			"scale":[
				0.5337244272232056,
				0.5853020548820496,
				0.5853020548820496
			],
			"translation":[
				0.6163591742515564,
				2.515504837036133,
				2.9182088375091553
			]
		},
		{
			"mesh":7,
			"name":"Door_WL_LOD0.003",
			"rotation":[
				-0.5004361271858215,
				0.4995634853839874,
				0.4995634853839874,
				0.5004361271858215
			],
			"scale":[
				0.5337244272232056,
				0.5853021144866943,
				0.5853020548820496
			],
			"translation":[
				-2.8991355895996094,
				2.515504837036133,
				-0.5894491076469421
			]
		},
		{
			"mesh":8,
			"name":"Door_WR_LOD0.003",
			"rotation":[
				-0.5004361271858215,
				0.4995634853839874,
				0.4995634853839874,
				0.5004361271858215
			],
			"scale":[
				0.5337244272232056,
				0.5853021144866943,
				0.5853020548820496
			],
			"translation":[
				-2.90116810798645,
				2.515504837036133,
				0.5751527547836304
			]
		},
		{
			"children":[
				2,
				3,
				4,
				5,
				6,
				7,
				8,
				9
			],
			"name":"Doors.003"
		},
		{
			"mesh":9,
			"name":"Roof1_LOD0.003",
			"rotation":[
				-0.70710688829422,
				0,
				0,
				0.7071066498756409
			],
			"scale":[
				0.4732167720794678,
				0.47321680188179016,
				0.47321680188179016
			],
			"translation":[
				0.025568723678588867,
				7.7598466873168945,
				-0.020614508539438248
			]
		},
		{
			"mesh":10,
			"name":"Wall1_LOD0.003",
			"rotation":[
				0.49956363439559937,
				0.499563604593277,
				0.5004361271858215,
				0.5004360675811768
			],
			"scale":[
				0.3511812388896942,
				0.45185354351997375,
				0.45185351371765137
			],
			"translation":[
				-3.121509075164795,
				2.328805923461914,
				2.8784446716308594
			]
		},
		{
			"children":[
				11,
				12
			],
			"name":"Floor1.003"
		},
		{
			"mesh":11,
			"name":"Roof2_LOD0.003",
			"rotation":[
				-0.70710688829422,
				0,
				0,
				0.7071066498756409
			],
			"scale":[
				0.4613863229751587,
				0.4613863527774811,
				0.4613863527774811
			],
			"translation":[
				0.025667428970336914,
				12.706153869628906,
				-0.02039221301674843
			]
		},
		{
			"mesh":12,
			"name":"Wall2_LOD0.003",
			"rotation":[
				0.49956363439559937,
				0.499563604593277,
				0.5004361271858215,
				0.5004360675811768
			],
			"scale":[
				0.3424016833305359,
				0.4405573308467865,
				0.44055724143981934
			],
			"translation":[
				-3.0427331924438477,
				7.410886764526367,
				2.806190252304077
			]
		},
		{
			"children":[
				14,
				15
			],
			"name":"Floor2.003"
		},
		{
			"mesh":13,
			"name":"Roof3_LOD0",
			"rotation":[
				-0.70710688829422,
				0,
				0,
				0.7071066498756409
			],
			"scale":[
				0.12402839958667755,
				0.1240282654762268,
				0.45173147320747375
			],
			"translation":[
				0.023325324058532715,
				19.32475471496582,
				-0.022011136636137962
			]
		},
		{
			"mesh":14,
			"name":"Wall3_LOD0",
			"rotation":[
				0.49956363439559937,
				0.499563604593277,
				0.5004361271858215,
				0.5004360675811768
			],
			"scale":[
				0.33384162187576294,
				0.42954346537590027,
				0.4295434057712555
			],
			"translation":[
				-2.9659247398376465,
				12.464559555053711,
				2.7357497215270996
			]
		},
		{
			"children":[
				17,
				18
			],
			"name":"Floor3"
		},
		{
			"mesh":15,
			"name":"Sorin_LOD0.003",
			"rotation":[
				-0.7071069478988647,
				0,
				0,
				0.7071066498756409
			],
			"scale":[
				0.6823737621307373,
				0.6823738217353821,
				0.6823738217353821
			],
			"translation":[
				0.0072220563888549805,
				20.398313522338867,
				-0.004719086457043886
			]
		},
		{
			"children":[
				20
			],
			"name":"Sorin.003"
		},
		{
			"children":[
				1,
				10,
				13,
				16,
				19,
				21
			],
			"name":"Pagoda_Sanju_31m"
		}
	],
	"materials":[
		{
			"doubleSided":true,
			"name":"mat_basalt_base_01.004",
			"pbrMetallicRoughness":{
				"baseColorTexture":{
					"extensions":{
						"KHR_texture_transform":{
							"offset":[
								0,
								0.6500000059604645
							],
							"scale":[
								0.3499999940395355,
								0.3499999940395355
							]
						}
					},
					"index":0
				},
				"metallicFactor":0
			}
		},
		{
			"doubleSided":true,
			"name":"mat_stone_wall_02.002",
			"pbrMetallicRoughness":{
				"baseColorTexture":{
					"extensions":{
						"KHR_texture_transform":{
							"offset":[
								0,
								0.8999999985098839
							],
							"scale":[
								0.10000000149011612,
								0.10000000149011612
							]
						}
					},
					"index":1
				},
				"metallicFactor":0
			}
		},
		{
			"doubleSided":true,
			"name":"mat_wood_plank_03.004",
			"pbrMetallicRoughness":{
				"baseColorTexture":{
					"index":2
				},
				"metallicFactor":0
			}
		},
		{
			"doubleSided":true,
			"name":"mat_wood_pillarRed_02.001",
			"pbrMetallicRoughness":{
				"baseColorFactor":[
					0.33245158195495605,
					0.05448026955127716,
					0.023153357207775116,
					1
				],
				"baseColorTexture":{
					"extensions":{
						"KHR_texture_transform":{
							"offset":[
								0,
								0.5
							],
							"scale":[
								0.5,
								0.5
							]
						}
					},
					"index":3
				},
				"metallicFactor":0
			}
		},
		{
			"doubleSided":true,
			"name":"mat_wood_beamRed_02.001",
			"pbrMetallicRoughness":{
				"baseColorFactor":[
					0.42326775193214417,
					0.1384316086769104,
					0.09305896610021591,
					1
				],
				"baseColorTexture":{
					"extensions":{
						"KHR_texture_transform":{
							"offset":[
								0,
								0.5
							],
							"scale":[
								0.5,
								0.5
							]
						}
					},
					"index":4
				},
				"metallicFactor":0
			}
		},
		{
			"doubleSided":true,
			"name":"mat_metal_copper_antique_01.004",
			"pbrMetallicRoughness":{
				"baseColorTexture":{
					"index":5
				},
				"metallicFactor":0
			}
		},
		{
			"doubleSided":true,
			"name":"mat_wood_wall_01.004",
			"pbrMetallicRoughness":{
				"baseColorFactor":[
					0.5583404898643494,
					0.4564109742641449,
					0.3467040956020355,
					1
				],
				"baseColorTexture":{
					"extensions":{
						"KHR_texture_transform":{
							"offset":[
								0,
								0.5
							],
							"scale":[
								0.5,
								0.5
							]
						}
					},
					"index":6
				},
				"metallicFactor":0
			}
		},
		{
			"name":"mat_decal_pagoda_01.004"
		},
		{
			"doubleSided":true,
			"name":"mat_clay_tile_01.003",
			"pbrMetallicRoughness":{
				"baseColorTexture":{
					"extensions":{
						"KHR_texture_transform":{
							"offset":[
								0,
								0.5
							],
							"scale":[
								0.5,
								0.5
							]
						}
					},
					"index":7
				},
				"metallicFactor":0
			}
		},
		{
			"doubleSided":true,
			"name":"mat_clay_tile_02.003",
			"pbrMetallicRoughness":{
				"baseColorTexture":{
					"extensions":{
						"KHR_texture_transform":{
							"offset":[
								0,
								0.5
							],
							"scale":[
								0.5,
								0.5
							]
						}
					},
					"index":8
				},
				"metallicFactor":0
			}
		},
		{
			"doubleSided":true,
			"name":"mat_wood_paint_white_01.004",
			"pbrMetallicRoughness":{
				"baseColorFactor":[
					0.5711249113082886,
					0.4969330430030823,
					0.4125427007675171,
					1
				],
				"baseColorTexture":{
					"extensions":{
						"KHR_texture_transform":{
							"offset":[
								0,
								0.5
							],
							"scale":[
								0.5,
								0.5
							]
						}
					},
					"index":9
				},
				"metallicFactor":0
			}
		},
		{
			"doubleSided":true,
			"name":"mat_clay_fired_01.003",
			"pbrMetallicRoughness":{
				"baseColorTexture":{
					"extensions":{
						"KHR_texture_transform":{
							"offset":[
								0,
								0.5
							],
							"scale":[
								0.5,
								0.5
							]
						}
					},
					"index":10
				},
				"metallicFactor":0
			}
		},
		{
			"doubleSided":true,
			"name":"mat_wood_paint_green_01.002",
			"pbrMetallicRoughness":{
				"baseColorFactor":[
					0.04817181080579758,
					0.11953841149806976,
					0.07036009430885315,
					1
				],
				"baseColorTexture":{
					"extensions":{
						"KHR_texture_transform":{
							"offset":[
								0,
								0.5
							],
							"scale":[
								0.5,
								0.5
							]
						}
					},
					"index":11
				},
				"metallicFactor":0
			}
		},
		{
			"doubleSided":true,
			"name":"mat_metal_copper_patina_01.004",
			"pbrMetallicRoughness":{
				"baseColorTexture":{
					"extensions":{
						"KHR_texture_transform":{
							"offset":[
								0,
								0.5
							],
							"scale":[
								0.5,
								0.5
							]
						}
					},
					"index":12
				},
				"metallicFactor":0
			}
		}
	],
	"meshes":[
		{
			"name":"Base_LOD0.004",
			"primitives":[
				{
					"attributes":{
						"POSITION":0,
						"NORMAL":1,
						"TEXCOORD_0":2
					},
					"indices":3,
					"material":0
				},
				{
					"attributes":{
						"POSITION":4,
						"NORMAL":5,
						"TEXCOORD_0":6
					},
					"indices":7,
					"material":1
				},
				{
					"attributes":{
						"POSITION":8,
						"NORMAL":9,
						"TEXCOORD_0":10
					},
					"indices":11,
					"material":2
				},
				{
					"attributes":{
						"POSITION":12,
						"NORMAL":13,
						"TEXCOORD_0":14
					},
					"indices":15,
					"material":3
				},
				{
					"attributes":{
						"POSITION":16,
						"NORMAL":17,
						"TEXCOORD_0":18
					},
					"indices":19,
					"material":4
				},
				{
					"attributes":{
						"POSITION":20,
						"NORMAL":21,
						"TEXCOORD_0":22
					},
					"indices":23,
					"material":5
				}
			]
		},
		{
			"name":"Door_EL_LOD0.004",
			"primitives":[
				{
					"attributes":{
						"POSITION":24,
						"NORMAL":25,
						"TEXCOORD_0":26
					},
					"indices":27,
					"material":6
				},
				{
					"attributes":{
						"POSITION":28,
						"NORMAL":29,
						"TEXCOORD_0":30
					},
					"indices":31,
					"material":7
				}
			]
		},
		{
			"name":"Door_ER_LOD0.004",
			"primitives":[
				{
					"attributes":{
						"POSITION":32,
						"NORMAL":33,
						"TEXCOORD_0":34
					},
					"indices":35,
					"material":6
				},
				{
					"attributes":{
						"POSITION":36,
						"NORMAL":37,
						"TEXCOORD_0":38
					},
					"indices":39,
					"material":7
				}
			]
		},
		{
			"name":"Door_NL_LOD0.004",
			"primitives":[
				{
					"attributes":{
						"POSITION":40,
						"NORMAL":41,
						"TEXCOORD_0":42
					},
					"indices":27,
					"material":6
				},
				{
					"attributes":{
						"POSITION":43,
						"NORMAL":44,
						"TEXCOORD_0":45
					},
					"indices":31,
					"material":7
				}
			]
		},
		{
			"name":"Door_NR_LOD0.004",
			"primitives":[
				{
					"attributes":{
						"POSITION":46,
						"NORMAL":47,
						"TEXCOORD_0":48
					},
					"indices":35,
					"material":6
				},
				{
					"attributes":{
						"POSITION":49,
						"NORMAL":50,
						"TEXCOORD_0":51
					},
					"indices":39,
					"material":7
				}
			]
		},
		{
			"name":"Door_SL_LOD0.004",
			"primitives":[
				{
					"attributes":{
						"POSITION":52,
						"NORMAL":53,
						"TEXCOORD_0":54
					},
					"indices":27,
					"material":6
				},
				{
					"attributes":{
						"POSITION":55,
						"NORMAL":56,
						"TEXCOORD_0":57
					},
					"indices":31,
					"material":7
				}
			]
		},
		{
			"name":"Door_SR_LOD0.004",
			"primitives":[
				{
					"attributes":{
						"POSITION":58,
						"NORMAL":59,
						"TEXCOORD_0":60
					},
					"indices":35,
					"material":6
				},
				{
					"attributes":{
						"POSITION":61,
						"NORMAL":62,
						"TEXCOORD_0":63
					},
					"indices":39,
					"material":7
				}
			]
		},
		{
			"name":"Door_WL_LOD0.004",
			"primitives":[
				{
					"attributes":{
						"POSITION":64,
						"NORMAL":65,
						"TEXCOORD_0":66
					},
					"indices":27,
					"material":6
				},
				{
					"attributes":{
						"POSITION":67,
						"NORMAL":68,
						"TEXCOORD_0":69
					},
					"indices":31,
					"material":7
				}
			]
		},
		{
			"name":"Door_WR_LOD0.004",
			"primitives":[
				{
					"attributes":{
						"POSITION":70,
						"NORMAL":71,
						"TEXCOORD_0":72
					},
					"indices":35,
					"material":6
				},
				{
					"attributes":{
						"POSITION":73,
						"NORMAL":74,
						"TEXCOORD_0":75
					},
					"indices":39,
					"material":7
				}
			]
		},
		{
			"name":"Roof1_LOD0.004",
			"primitives":[
				{
					"attributes":{
						"POSITION":76,
						"NORMAL":77,
						"TEXCOORD_0":78
					},
					"indices":79,
					"material":2
				},
				{
					"attributes":{
						"POSITION":80,
						"NORMAL":81,
						"TEXCOORD_0":82
					},
					"indices":83,
					"material":3
				},
				{
					"attributes":{
						"POSITION":84,
						"NORMAL":85,
						"TEXCOORD_0":86
					},
					"indices":87,
					"material":8
				},
				{
					"attributes":{
						"POSITION":88,
						"NORMAL":89,
						"TEXCOORD_0":90
					},
					"indices":91,
					"material":9
				},
				{
					"attributes":{
						"POSITION":92,
						"NORMAL":93,
						"TEXCOORD_0":94
					},
					"indices":95,
					"material":10
				},
				{
					"attributes":{
						"POSITION":96,
						"NORMAL":97,
						"TEXCOORD_0":98
					},
					"indices":99,
					"material":11
				},
				{
					"attributes":{
						"POSITION":100,
						"NORMAL":101,
						"TEXCOORD_0":102
					},
					"indices":103,
					"material":7
				},
				{
					"attributes":{
						"POSITION":104,
						"NORMAL":105,
						"TEXCOORD_0":106
					},
					"indices":107,
					"material":4
				}
			]
		},
		{
			"name":"Wall1_LOD0.004",
			"primitives":[
				{
					"attributes":{
						"POSITION":108,
						"NORMAL":109,
						"TEXCOORD_0":110
					},
					"indices":111,
					"material":4
				},
				{
					"attributes":{
						"POSITION":112,
						"NORMAL":113,
						"TEXCOORD_0":114
					},
					"indices":115,
					"material":5
				},
				{
					"attributes":{
						"POSITION":116,
						"NORMAL":117,
						"TEXCOORD_0":118
					},
					"indices":119,
					"material":10
				},
				{
					"attributes":{
						"POSITION":120,
						"NORMAL":121,
						"TEXCOORD_0":122
					},
					"indices":123,
					"material":12
				},
				{
					"attributes":{
						"POSITION":124,
						"NORMAL":125,
						"TEXCOORD_0":126
					},
					"indices":127,
					"material":3
				},
				{
					"attributes":{
						"POSITION":128,
						"NORMAL":129,
						"TEXCOORD_0":130
					},
					"indices":131,
					"material":2
				},
				{
					"attributes":{
						"POSITION":132,
						"NORMAL":133,
						"TEXCOORD_0":134
					},
					"indices":135,
					"material":7
				},
				{
					"attributes":{
						"POSITION":136,
						"NORMAL":137,
						"TEXCOORD_0":138
					},
					"indices":139,
					"material":13
				}
			]
		},
		{
			"name":"Roof2_LOD0.004",
			"primitives":[
				{
					"attributes":{
						"POSITION":140,
						"NORMAL":141,
						"TEXCOORD_0":142
					},
					"indices":79,
					"material":2
				},
				{
					"attributes":{
						"POSITION":143,
						"NORMAL":144,
						"TEXCOORD_0":145
					},
					"indices":146,
					"material":3
				},
				{
					"attributes":{
						"POSITION":147,
						"NORMAL":148,
						"TEXCOORD_0":149
					},
					"indices":150,
					"material":8
				},
				{
					"attributes":{
						"POSITION":151,
						"NORMAL":152,
						"TEXCOORD_0":153
					},
					"indices":91,
					"material":9
				},
				{
					"attributes":{
						"POSITION":154,
						"NORMAL":155,
						"TEXCOORD_0":156
					},
					"indices":95,
					"material":10
				},
				{
					"attributes":{
						"POSITION":157,
						"NORMAL":158,
						"TEXCOORD_0":159
					},
					"indices":160,
					"material":11
				},
				{
					"attributes":{
						"POSITION":161,
						"NORMAL":162,
						"TEXCOORD_0":163
					},
					"indices":103,
					"material":7
				},
				{
					"attributes":{
						"POSITION":164,
						"NORMAL":165,
						"TEXCOORD_0":166
					},
					"indices":167,
					"material":4
				}
			]
		},
		{
			"name":"Wall2_LOD0.004",
			"primitives":[
				{
					"attributes":{
						"POSITION":168,
						"NORMAL":169,
						"TEXCOORD_0":170
					},
					"indices":115,
					"material":5
				},
				{
					"attributes":{
						"POSITION":171,
						"NORMAL":172,
						"TEXCOORD_0":173
					},
					"indices":119,
					"material":10
				},
				{
					"attributes":{
						"POSITION":174,
						"NORMAL":175,
						"TEXCOORD_0":176
					},
					"indices":123,
					"material":12
				},
				{
					"attributes":{
						"POSITION":177,
						"NORMAL":178,
						"TEXCOORD_0":179
					},
					"indices":180,
					"material":4
				},
				{
					"attributes":{
						"POSITION":181,
						"NORMAL":182,
						"TEXCOORD_0":183
					},
					"indices":184,
					"material":3
				},
				{
					"attributes":{
						"POSITION":185,
						"NORMAL":186,
						"TEXCOORD_0":187
					},
					"indices":131,
					"material":2
				},
				{
					"attributes":{
						"POSITION":188,
						"NORMAL":189,
						"TEXCOORD_0":190
					},
					"indices":135,
					"material":7
				},
				{
					"attributes":{
						"POSITION":191,
						"NORMAL":192,
						"TEXCOORD_0":193
					},
					"indices":139,
					"material":13
				}
			]
		},
		{
			"name":"Roof3_LOD0.001",
			"primitives":[
				{
					"attributes":{
						"POSITION":194,
						"NORMAL":195,
						"TEXCOORD_0":196
					},
					"indices":197,
					"material":2
				},
				{
					"attributes":{
						"POSITION":198,
						"NORMAL":199,
						"TEXCOORD_0":200
					},
					"indices":201,
					"material":3
				},
				{
					"attributes":{
						"POSITION":202,
						"NORMAL":203,
						"TEXCOORD_0":204
					},
					"indices":205,
					"material":8
				},
				{
					"attributes":{
						"POSITION":206,
						"NORMAL":207,
						"TEXCOORD_0":208
					},
					"indices":209,
					"material":10
				},
				{
					"attributes":{
						"POSITION":210,
						"NORMAL":211,
						"TEXCOORD_0":212
					},
					"indices":213,
					"material":9
				},
				{
					"attributes":{
						"POSITION":214,
						"NORMAL":215,
						"TEXCOORD_0":216
					},
					"indices":217,
					"material":11
				},
				{
					"attributes":{
						"POSITION":218,
						"NORMAL":219,
						"TEXCOORD_0":220
					},
					"indices":221,
					"material":7
				}
			]
		},
		{
			"name":"Wall3_LOD0.001",
			"primitives":[
				{
					"attributes":{
						"POSITION":222,
						"NORMAL":223,
						"TEXCOORD_0":224
					},
					"indices":115,
					"material":5
				},
				{
					"attributes":{
						"POSITION":225,
						"NORMAL":226,
						"TEXCOORD_0":227
					},
					"indices":119,
					"material":10
				},
				{
					"attributes":{
						"POSITION":228,
						"NORMAL":229,
						"TEXCOORD_0":230
					},
					"indices":123,
					"material":12
				},
				{
					"attributes":{
						"POSITION":231,
						"NORMAL":232,
						"TEXCOORD_0":233
					},
					"indices":180,
					"material":4
				},
				{
					"attributes":{
						"POSITION":234,
						"NORMAL":235,
						"TEXCOORD_0":236
					},
					"indices":237,
					"material":3
				},
				{
					"attributes":{
						"POSITION":238,
						"NORMAL":239,
						"TEXCOORD_0":240
					},
					"indices":131,
					"material":2
				},
				{
					"attributes":{
						"POSITION":241,
						"NORMAL":242,
						"TEXCOORD_0":243
					},
					"indices":135,
					"material":7
				},
				{
					"attributes":{
						"POSITION":244,
						"NORMAL":245,
						"TEXCOORD_0":246
					},
					"indices":139,
					"material":13
				}
			]
		},
		{
			"name":"Sorin_LOD0.004",
			"primitives":[
				{
					"attributes":{
						"POSITION":247,
						"NORMAL":248,
						"TEXCOORD_0":249
					},
					"indices":250,
					"material":5
				},
				{
					"attributes":{
						"POSITION":251,
						"NORMAL":252,
						"TEXCOORD_0":253
					},
					"indices":254,
					"material":7
				}
			]
		}
	],
	"textures":[
		{
			"sampler":0,
			"source":0
		},
		{
			"sampler":0,
			"source":1
		},
		{
			"sampler":0,
			"source":2
		},
		{
			"sampler":0,
			"source":3
		},
		{
			"sampler":0,
			"source":3
		},
		{
			"sampler":0,
			"source":4
		},
		{
			"sampler":0,
			"source":5
		},
		{
			"sampler":0,
			"source":6
		},
		{
			"sampler":0,
			"source":7
		},
		{
			"sampler":0,
			"source":3
		},
		{
			"sampler":0,
			"source":8
		},
		{
			"sampler":0,
			"source":3
		},
		{
			"sampler":0,
			"source":9
		}
	],
	"images":[
		{
			"mimeType":"image/png",
			"name":"tex_basalt_base_01a",
			"uri":"tex_basalt_base_01a.png"
		},
		{
			"mimeType":"image/png",
			"name":"tex_stone_wall_01a",
			"uri":"tex_stone_wall_01a.png"
		},
		{
			"mimeType":"image/png",
			"name":"tex_wood_plank_03a",
			"uri":"tex_wood_plank_03a.png"
		},
		{
			"mimeType":"image/png",
			"name":"tex_wood_paint_03a",
			"uri":"tex_wood_paint_03a.png"
		},
		{
			"mimeType":"image/png",
			"name":"tex_metal_copper_antique_01a",
			"uri":"tex_metal_copper_antique_01a.png"
		},
		{
			"mimeType":"image/png",
			"name":"tex_wood_wall_01a",
			"uri":"tex_wood_wall_01a.png"
		},
		{
			"mimeType":"image/png",
			"name":"tex_clay_tile_01a",
			"uri":"tex_clay_tile_01a.png"
		},
		{
			"mimeType":"image/png",
			"name":"tex_clay_tile_02a",
			"uri":"tex_clay_tile_02a.png"
		},
		{
			"mimeType":"image/png",
			"name":"tex_clay_fired_01a",
			"uri":"tex_clay_fired_01a.png"
		},
		{
			"mimeType":"image/png",
			"name":"tex_metal_copper_patina_01a",
			"uri":"tex_metal_copper_patina_01a.png"
		}
	],
	"accessors":[
		{
			"bufferView":0,
			"componentType":5126,
			"count":656,
			"max":[
				10.36521053314209,
				10.377120018005371,
				1.6352927684783936
			],
			"min":[
				-10.356565475463867,
				-10.370580673217773,
				-1.1479313373565674
			],
			"type":"VEC3"
		},
		{
			"bufferView":1,
			"componentType":5126,
			"count":656,
			"type":"VEC3"
		},
		{
			"bufferView":2,
			"componentType":5126,
			"count":656,
			"type":"VEC2"
		},
		{
			"bufferView":3,
			"componentType":5123,
			"count":984,
			"type":"SCALAR"
		},
		{
			"bufferView":4,
			"componentType":5126,
			"count":20,
			"max":[
				8.799999237060547,
				8.799999237060547,
				0.0002359151840209961
			],
			"min":[
				-8.799999237060547,
				-8.799999237060547,
				-1.148852825164795
			],
			"type":"VEC3"
		},
		{
			"bufferView":5,
			"componentType":5126,
			"count":20,
			"type":"VEC3"
		},
		{
			"bufferView":6,
			"componentType":5126,
			"count":20,
			"type":"VEC2"
		},
		{
			"bufferView":7,
			"componentType":5123,
			"count":30,
			"type":"SCALAR"
		},
		{
			"bufferView":8,
			"componentType":5126,
			"count":8,
			"max":[
				6.591468334197998,
				6.671512603759766,
				1.9890313148498535
			],
			"min":[
				-6.636490821838379,
				-6.556446552276611,
				1.8560869693756104
			],
			"type":"VEC3"
		},
		{
			"bufferView":9,
			"componentType":5126,
			"count":8,
			"type":"VEC3"
		},
		{
			"bufferView":10,
			"componentType":5126,
			"count":8,
			"type":"VEC2"
		},
		{
			"bufferView":11,
			"componentType":5123,
			"count":12,
			"type":"SCALAR"
		},
		{
			"bufferView":12,
			"componentType":5126,
			"count":685,
			"max":[
				6.481992244720459,
				6.547111988067627,
				3.0161163806915283
			],
			"min":[
				-6.5108842849731445,
				-6.463185787200928,
				0.399628609418869
			],
			"type":"VEC3"
		},
		{
			"bufferView":13,
			"componentType":5126,
			"count":685,
			"type":"VEC3"
		},
		{
			"bufferView":14,
			"componentType":5126,
			"count":685,
			"type":"VEC2"
		},
		{
			"bufferView":15,
			"componentType":5123,
			"count":1011,
			"type":"SCALAR"
		},
		{
			"bufferView":16,
			"componentType":5126,
			"count":246,
			"max":[
				8.040014266967773,
				8.12581729888916,
				2.531745433807373
			],
			"min":[
				-8.088911056518555,
				-8.003457069396973,
				0.3997843265533447
			],
			"type":"VEC3"
		},
		{
			"bufferView":17,
			"componentType":5126,
			"count":246,
			"type":"VEC3"
		},
		{
			"bufferView":18,
			"componentType":5126,
			"count":246,
			"type":"VEC2"
		},
		{
			"bufferView":19,
			"componentType":5123,
			"count":366,
			"type":"SCALAR"
		},
		{
			"bufferView":20,
			"componentType":5126,
			"count":252,
			"max":[
				6.4855875968933105,
				6.552621364593506,
				3.731945514678955
			],
			"min":[
				-6.5229878425598145,
				-6.467594623565674,
				2.981651782989502
			],
			"type":"VEC3"
		},
		{
			"bufferView":21,
			"componentType":5126,
			"count":252,
			"type":"VEC3"
		},
		{
			"bufferView":22,
			"componentType":5126,
			"count":252,
			"type":"VEC2"
		},
		{
			"bufferView":23,
			"componentType":5123,
			"count":504,
			"type":"SCALAR"
		},
		{
			"bufferView":24,
			"componentType":5126,
			"count":24,
			"max":[
				0.08805620670318604,
				0.05000000074505806,
				2.9826431274414062
			],
			"min":[
				-1.071943759918213,
				-0.05000000074505806,
				0
			],
			"type":"VEC3"
		},
		{
			"bufferView":25,
			"componentType":5126,
			"count":24,
			"type":"VEC3"
		},
		{
			"bufferView":26,
			"componentType":5126,
			"count":24,
			"type":"VEC2"
		},
		{
			"bufferView":27,
			"componentType":5123,
			"count":36,
			"type":"SCALAR"
		},
		{
			"bufferView":28,
			"componentType":5126,
			"count":12,
			"max":[
				0.06947612762451172,
				0.055588047951459885,
				2.9500105381011963
			],
			"min":[
				-1.0189878940582275,
				0.05558709427714348,
				0.01974201202392578
			],
			"type":"VEC3"
		},
		{
			"bufferView":29,
			"componentType":5126,
			"count":12,
			"type":"VEC3"
		},
		{
			"bufferView":30,
			"componentType":5126,
			"count":12,
			"type":"VEC2"
		},
		{
			"bufferView":31,
			"componentType":5123,
			"count":12,
			"type":"SCALAR"
		},
		{
			"bufferView":32,
			"componentType":5126,
			"count":48,
			"max":[
				1.168176293373108,
				0.07908786833286285,
				2.9826431274414062
			],
			"min":[
				-0.056027770042419434,
				-0.05000000074505806,
				0
			],
			"type":"VEC3"
		},
		{
			"bufferView":33,
			"componentType":5126,
			"count":48,
			"type":"VEC3"
		},
		{
			"bufferView":34,
			"componentType":5126,
			"count":48,
			"type":"VEC2"
		},
		{
			"bufferView":35,
			"componentType":5123,
			"count":72,
			"type":"SCALAR"
		},
		{
			"bufferView":36,
			"componentType":5126,
			"count":32,
			"max":[
				1.1681768894195557,
				0.08194723725318909,
				2.9500105381011963
			],
			"min":[
				-0.03883761167526245,
				0.05558614060282707,
				0.01974201202392578
			],
			"type":"VEC3"
		},
		{
			"bufferView":37,
			"componentType":5126,
			"count":32,
			"type":"VEC3"
		},
		{
			"bufferView":38,
			"componentType":5126,
			"count":32,
			"type":"VEC2"
		},
		{
			"bufferView":39,
			"componentType":5123,
			"count":42,
			"type":"SCALAR"
		},
		{
			"bufferView":40,
			"componentType":5126,
			"count":24,
			"max":[
				0.08805620670318604,
				0.05000000074505806,
				2.9826431274414062
			],
			"min":[
				-1.071943759918213,
				-0.05000000074505806,
				0
			],
			"type":"VEC3"
		},
		{
			"bufferView":41,
			"componentType":5126,
			"count":24,
			"type":"VEC3"
		},
		{
			"bufferView":42,
			"componentType":5126,
			"count":24,
			"type":"VEC2"
		},
		{
			"bufferView":43,
			"componentType":5126,
			"count":12,
			"max":[
				0.06947630643844604,
				0.05558900907635689,
				2.9500107765197754
			],
			"min":[
				-1.018988013267517,
				0.05558805540204048,
				0.01974201202392578
			],
			"type":"VEC3"
		},
		{
			"bufferView":44,
			"componentType":5126,
			"count":12,
			"type":"VEC3"
		},
		{
			"bufferView":45,
			"componentType":5126,
			"count":12,
			"type":"VEC2"
		},
		{
			"bufferView":46,
			"componentType":5126,
			"count":48,
			"max":[
				1.168176293373108,
				0.07908786833286285,
				2.9826431274414062
			],
			"min":[
				-0.056027770042419434,
				-0.05000000074505806,
				0
			],
			"type":"VEC3"
		},
		{
			"bufferView":47,
			"componentType":5126,
			"count":48,
			"type":"VEC3"
		},
		{
			"bufferView":48,
			"componentType":5126,
			"count":48,
			"type":"VEC2"
		},
		{
			"bufferView":49,
			"componentType":5126,
			"count":32,
			"max":[
				1.1681768894195557,
				0.0819476991891861,
				2.9500107765197754
			],
			"min":[
				-0.038837730884552,
				0.05558614805340767,
				0.01974201202392578
			],
			"type":"VEC3"
		},
		{
			"bufferView":50,
			"componentType":5126,
			"count":32,
			"type":"VEC3"
		},
		{
			"bufferView":51,
			"componentType":5126,
			"count":32,
			"type":"VEC2"
		},
		{
			"bufferView":52,
			"componentType":5126,
			"count":24,
			"max":[
				0.08805620670318604,
				0.05000000074505806,
				2.9826431274414062
			],
			"min":[
				-1.071943759918213,
				-0.05000000074505806,
				0
			],
			"type":"VEC3"
		},
		{
			"bufferView":53,
			"componentType":5126,
			"count":24,
			"type":"VEC3"
		},
		{
			"bufferView":54,
			"componentType":5126,
			"count":24,
			"type":"VEC2"
		},
		{
			"bufferView":55,
			"componentType":5126,
			"count":12,
			"max":[
				0.06947630643844604,
				0.05558805540204048,
				2.9500107765197754
			],
			"min":[
				-1.0189881324768066,
				0.05558757856488228,
				0.01974201202392578
			],
			"type":"VEC3"
		},
		{
			"bufferView":56,
			"componentType":5126,
			"count":12,
			"type":"VEC3"
		},
		{
			"bufferView":57,
			"componentType":5126,
			"count":12,
			"type":"VEC2"
		},
		{
			"bufferView":58,
			"componentType":5126,
			"count":48,
			"max":[
				1.168176293373108,
				0.07908786833286285,
				2.9826431274414062
			],
			"min":[
				-0.056027770042419434,
				-0.05000000074505806,
				0
			],
			"type":"VEC3"
		},
		{
			"bufferView":59,
			"componentType":5126,
			"count":48,
			"type":"VEC3"
		},
		{
			"bufferView":60,
			"componentType":5126,
			"count":48,
			"type":"VEC2"
		},
		{
			"bufferView":61,
			"componentType":5126,
			"count":32,
			"max":[
				1.1681766510009766,
				0.0819486528635025,
				2.9500107765197754
			],
			"min":[
				-0.038837730884552,
				0.055587101727724075,
				0.01974201202392578
			],
			"type":"VEC3"
		},
		{
			"bufferView":62,
			"componentType":5126,
			"count":32,
			"type":"VEC3"
		},
		{
			"bufferView":63,
			"componentType":5126,
			"count":32,
			"type":"VEC2"
		},
		{
			"bufferView":64,
			"componentType":5126,
			"count":24,
			"max":[
				0.08805620670318604,
				0.05000000074505806,
				2.9826431274414062
			],
			"min":[
				-1.071943759918213,
				-0.05000000074505806,
				0
			],
			"type":"VEC3"
		},
		{
			"bufferView":65,
			"componentType":5126,
			"count":24,
			"type":"VEC3"
		},
		{
			"bufferView":66,
			"componentType":5126,
			"count":24,
			"type":"VEC2"
		},
		{
			"bufferView":67,
			"componentType":5126,
			"count":12,
			"max":[
				0.06947612762451172,
				0.055588047951459885,
				2.9500105381011963
			],
			"min":[
				-1.0189878940582275,
				0.05558757111430168,
				0.01974201202392578
			],
			"type":"VEC3"
		},
		{
			"bufferView":68,
			"componentType":5126,
			"count":12,
			"type":"VEC3"
		},
		{
			"bufferView":69,
			"componentType":5126,
			"count":12,
			"type":"VEC2"
		},
		{
			"bufferView":70,
			"componentType":5126,
			"count":48,
			"max":[
				1.168176293373108,
				0.07908786833286285,
				2.9826431274414062
			],
			"min":[
				-0.056027770042419434,
				-0.05000000074505806,
				0
			],
			"type":"VEC3"
		},
		{
			"bufferView":71,
			"componentType":5126,
			"count":48,
			"type":"VEC3"
		},
		{
			"bufferView":72,
			"componentType":5126,
			"count":48,
			"type":"VEC2"
		},
		{
			"bufferView":73,
			"componentType":5126,
			"count":32,
			"max":[
				1.1681766510009766,
				0.0819486677646637,
				2.9500105381011963
			],
			"min":[
				-0.03883761167526245,
				0.05558757111430168,
				0.01974201202392578
			],
			"type":"VEC3"
		},
		{
			"bufferView":74,
			"componentType":5126,
			"count":32,
			"type":"VEC3"
		},
		{
			"bufferView":75,
			"componentType":5126,
			"count":32,
			"type":"VEC2"
		},
		{
			"bufferView":76,
			"componentType":5126,
			"count":100,
			"max":[
				13.486420631408691,
				13.51501178741455,
				0.6434826254844666
			],
			"min":[
				-13.490130424499512,
				-13.51501178741455,
				-3.0980141162872314
			],
			"type":"VEC3"
		},
		{
			"bufferView":77,
			"componentType":5126,
			"count":100,
			"type":"VEC3"
		},
		{
			"bufferView":78,
			"componentType":5126,
			"count":100,
			"type":"VEC2"
		},
		{
			"bufferView":79,
			"componentType":5123,
			"count":144,
			"type":"SCALAR"
		},
		{
			"bufferView":80,
			"componentType":5126,
			"count":1428,
			"max":[
				13.230377197265625,
				13.25846004486084,
				1.1599657535552979
			],
			"min":[
				-13.234086036682129,
				-13.25846004486084,
				-3.6364529132843018
			],
			"type":"VEC3"
		},
		{
			"bufferView":81,
			"componentType":5126,
			"count":1428,
			"type":"VEC3"
		},
		{
			"bufferView":82,
			"componentType":5126,
			"count":1428,
			"type":"VEC2"
		},
		{
			"bufferView":83,
			"componentType":5123,
			"count":2094,
			"type":"SCALAR"
		},
		{
			"bufferView":84,
			"componentType":5126,
			"count":529,
			"max":[
				13.654181480407715,
				13.626738548278809,
				-0.20986458659172058
			],
			"min":[
				-13.637410163879395,
				-13.662949562072754,
				-2.8216841220855713
			],
			"type":"VEC3"
		},
		{
			"bufferView":85,
			"componentType":5126,
			"count":529,
			"type":"VEC3"
		},
		{
			"bufferView":86,
			"componentType":5126,
			"count":529,
			"type":"VEC2"
		},
		{
			"bufferView":87,
			"componentType":5123,
			"count":705,
			"type":"SCALAR"
		},
		{
			"bufferView":88,
			"componentType":5126,
			"count":60,
			"max":[
				13.486420631408691,
				13.51501178741455,
				-0.21539366245269775
			],
			"min":[
				-13.490130424499512,
				-13.51501178741455,
				-2.784217357635498
			],
			"type":"VEC3"
		},
		{
			"bufferView":89,
			"componentType":5126,
			"count":60,
			"type":"VEC3"
		},
		{
			"bufferView":90,
			"componentType":5126,
			"count":60,
			"type":"VEC2"
		},
		{
			"bufferView":91,
			"componentType":5123,
			"count":72,
			"type":"SCALAR"
		},
		{
			"bufferView":92,
			"componentType":5126,
			"count":78,
			"max":[
				13.230376243591309,
				13.258459091186523,
				0.2131141871213913
			],
			"min":[
				-13.234086036682129,
				-13.258459091186523,
				-3.6364529132843018
			],
			"type":"VEC3"
		},
		{
			"bufferView":93,
			"componentType":5126,
			"count":78,
			"type":"VEC3"
		},
		{
			"bufferView":94,
			"componentType":5126,
			"count":78,
			"type":"VEC2"
		},
		{
			"bufferView":95,
			"componentType":5123,
			"count":102,
			"type":"SCALAR"
		},
		{
			"bufferView":96,
			"componentType":5126,
			"count":1491,
			"max":[
				13.739225387573242,
				13.690997123718262,
				-0.950436532497406
			],
			"min":[
				-13.722963333129883,
				-13.734003067016602,
				-3.1015188694000244
			],
			"type":"VEC3"
		},
		{
			"bufferView":97,
			"componentType":5126,
			"count":1491,
			"type":"VEC3"
		},
		{
			"bufferView":98,
			"componentType":5126,
			"count":1491,
			"type":"VEC2"
		},
		{
			"bufferView":99,
			"componentType":5123,
			"count":1773,
			"type":"SCALAR"
		},
		{
			"bufferView":100,
			"componentType":5126,
			"count":1359,
			"max":[
				13.749035835266113,
				13.686525344848633,
				-0.41752904653549194
			],
			"min":[
				-13.729891777038574,
				-13.744050979614258,
				-2.9867031574249268
			],
			"type":"VEC3"
		},
		{
			"bufferView":101,
			"componentType":5126,
			"count":1359,
			"type":"VEC3"
		},
		{
			"bufferView":102,
			"componentType":5126,
			"count":1359,
			"type":"VEC2"
		},
		{
			"bufferView":103,
			"componentType":5123,
			"count":1527,
			"type":"SCALAR"
		},
		{
			"bufferView":104,
			"componentType":5126,
			"count":703,
			"max":[
				8.761777877807617,
				8.682747840881348,
				1.741727590560913
			],
			"min":[
				-8.75386905670166,
				-8.785446166992188,
				-0.2770962119102478
			],
			"type":"VEC3"
		},
		{
			"bufferView":105,
			"componentType":5126,
			"count":703,
			"type":"VEC3"
		},
		{
			"bufferView":106,
			"componentType":5126,
			"count":703,
			"type":"VEC2"
		},
		{
			"bufferView":107,
			"componentType":5123,
			"count":993,
			"type":"SCALAR"
		},
		{
			"bufferView":108,
			"componentType":5126,
			"count":684,
			"max":[
				10.787224769592285,
				2.453946352005005,
				15.826494216918945
			],
			"min":[
				-0.24974100291728973,
				-15.27219009399414,
				-1.9016355276107788
			],
			"type":"VEC3"
		},
		{
			"bufferView":109,
			"componentType":5126,
			"count":684,
			"type":"VEC3"
		},
		{
			"bufferView":110,
			"componentType":5126,
			"count":684,
			"type":"VEC2"
		},
		{
			"bufferView":111,
			"componentType":5123,
			"count":792,
			"type":"SCALAR"
		},
		{
			"bufferView":112,
			"componentType":5126,
			"count":50,
			"max":[
				10.647844314575195,
				6.900205135345459,
				20.260787963867188
			],
			"min":[
				9.125043869018555,
				-19.691429138183594,
				-6.336452007293701
			],
			"type":"VEC3"
		},
		{
			"bufferView":113,
			"componentType":5126,
			"count":50,
			"type":"VEC3"
		},
		{
			"bufferView":114,
			"componentType":5126,
			"count":50,
			"type":"VEC2"
		},
		{
			"bufferView":115,
			"componentType":5123,
			"count":72,
			"type":"SCALAR"
		},
		{
			"bufferView":116,
			"componentType":5126,
			"count":96,
			"max":[
				13.34442138671875,
				0.034198880195617676,
				13.406744956970215
			],
			"min":[
				0.46014708280563354,
				-12.852439880371094,
				0.5181141495704651
			],
			"type":"VEC3"
		},
		{
			"bufferView":117,
			"componentType":5126,
			"count":96,
			"type":"VEC3"
		},
		{
			"bufferView":118,
			"componentType":5126,
			"count":96,
			"type":"VEC2"
		},
		{
			"bufferView":119,
			"componentType":5123,
			"count":144,
			"type":"SCALAR"
		},
		{
			"bufferView":120,
			"componentType":5126,
			"count":128,
			"max":[
				7.582742214202881,
				0.5303199887275696,
				13.901799201965332
			],
			"min":[
				2.592726230621338,
				-13.347761154174805,
				0.022796906530857086
			],
			"type":"VEC3"
		},
		{
			"bufferView":121,
			"componentType":5126,
			"count":128,
			"type":"VEC3"
		},
		{
			"bufferView":122,
			"componentType":5126,
			"count":128,
			"type":"VEC2"
		},
		{
			"bufferView":123,
			"componentType":5123,
			"count":192,
			"type":"SCALAR"
		},
		{
			"bufferView":124,
			"componentType":5126,
			"count":589,
			"max":[
				12.839523315429688,
				7.759029388427734,
				21.13157081604004
			],
			"min":[
				0.5262028574943542,
				-20.577268600463867,
				-7.206716060638428
			],
			"type":"VEC3"
		},
		{
			"bufferView":125,
			"componentType":5126,
			"count":589,
			"type":"VEC3"
		},
		{
			"bufferView":126,
			"componentType":5126,
			"count":589,
			"type":"VEC2"
		},
		{
			"bufferView":127,
			"componentType":5123,
			"count":747,
			"type":"SCALAR"
		},
		{
			"bufferView":128,
			"componentType":5126,
			"count":176,
			"max":[
				12.530007362365723,
				4.9113450050354,
				18.281661987304688
			],
			"min":[
				11.089787483215332,
				-17.728036880493164,
				-4.357324600219727
			],
			"type":"VEC3"
		},
		{
			"bufferView":129,
			"componentType":5126,
			"count":176,
			"type":"VEC3"
		},
		{
			"bufferView":130,
			"componentType":5126,
			"count":176,
			"type":"VEC2"
		},
		{
			"bufferView":131,
			"componentType":5123,
			"count":240,
			"type":"SCALAR"
		},
		{
			"bufferView":132,
			"componentType":5126,
			"count":474,
			"max":[
				7.585652828216553,
				0.5838603973388672,
				13.956770896911621
			],
			"min":[
				2.5445268154144287,
				-13.401900291442871,
				-0.029928160831332207
			],
			"type":"VEC3"
		},
		{
			"bufferView":133,
			"componentType":5126,
			"count":474,
			"type":"VEC3"
		},
		{
			"bufferView":134,
			"componentType":5126,
			"count":474,
			"type":"VEC2"
		},
		{
			"bufferView":135,
			"componentType":5123,
			"count":990,
			"type":"SCALAR"
		},
		{
			"bufferView":136,
			"componentType":5126,
			"count":10,
			"max":[
				10.797565460205078,
				6.642220497131348,
				19.934324264526367
			],
			"min":[
				10.614320755004883,
				-19.42681884765625,
				-6.089909076690674
			],
			"type":"VEC3"
		},
		{
			"bufferView":137,
			"componentType":5126,
			"count":10,
			"type":"VEC3"
		},
		{
			"bufferView":138,
			"componentType":5126,
			"count":10,
			"type":"VEC2"
		},
		{
			"bufferView":139,
			"componentType":5123,
			"count":12,
			"type":"SCALAR"
		},
		{
			"bufferView":140,
			"componentType":5126,
			"count":100,
			"max":[
				13.486420631408691,
				13.51501178741455,
				0.6434788107872009
			],
			"min":[
				-13.490130424499512,
				-13.51501178741455,
				-3.0980141162872314
			],
			"type":"VEC3"
		},
		{
			"bufferView":141,
			"componentType":5126,
			"count":100,
			"type":"VEC3"
		},
		{
			"bufferView":142,
			"componentType":5126,
			"count":100,
			"type":"VEC2"
		},
		{
			"bufferView":143,
			"componentType":5126,
			"count":1426,
			"max":[
				13.230377197265625,
				13.25846004486084,
				1.1599619388580322
			],
			"min":[
				-13.234086036682129,
				-13.25846004486084,
				-3.6364529132843018
			],
			"type":"VEC3"
		},
		{
			"bufferView":144,
			"componentType":5126,
			"count":1426,
			"type":"VEC3"
		},
		{
			"bufferView":145,
			"componentType":5126,
			"count":1426,
			"type":"VEC2"
		},
		{
			"bufferView":146,
			"componentType":5123,
			"count":2094,
			"type":"SCALAR"
		},
		{
			"bufferView":147,
			"componentType":5126,
			"count":547,
			"max":[
				13.654181480407715,
				13.626738548278809,
				-0.20986458659172058
			],
			"min":[
				-13.637410163879395,
				-13.662949562072754,
				-2.8216841220855713
			],
			"type":"VEC3"
		},
		{
			"bufferView":148,
			"componentType":5126,
			"count":547,
			"type":"VEC3"
		},
		{
			"bufferView":149,
			"componentType":5126,
			"count":547,
			"type":"VEC2"
		},
		{
			"bufferView":150,
			"componentType":5123,
			"count":723,
			"type":"SCALAR"
		},
		{
			"bufferView":151,
			"componentType":5126,
			"count":60,
			"max":[
				13.486420631408691,
				13.51501178741455,
				-0.21539366245269775
			],
			"min":[
				-13.490130424499512,
				-13.51501178741455,
				-2.784217357635498
			],
			"type":"VEC3"
		},
		{
			"bufferView":152,
			"componentType":5126,
			"count":60,
			"type":"VEC3"
		},
		{
			"bufferView":153,
			"componentType":5126,
			"count":60,
			"type":"VEC2"
		},
		{
			"bufferView":154,
			"componentType":5126,
			"count":78,
			"max":[
				13.230376243591309,
				13.258459091186523,
				0.21311037242412567
			],
			"min":[
				-13.234086036682129,
				-13.258459091186523,
				-3.6364529132843018
			],
			"type":"VEC3"
		},
		{
			"bufferView":155,
			"componentType":5126,
			"count":78,
			"type":"VEC3"
		},
		{
			"bufferView":156,
			"componentType":5126,
			"count":78,
			"type":"VEC2"
		},
		{
			"bufferView":157,
			"componentType":5126,
			"count":1484,
			"max":[
				13.739225387573242,
				13.690997123718262,
				-0.950436532497406
			],
			"min":[
				-13.722963333129883,
				-13.734003067016602,
				-3.1015188694000244
			],
			"type":"VEC3"
		},
		{
			"bufferView":158,
			"componentType":5126,
			"count":1484,
			"type":"VEC3"
		},
		{
			"bufferView":159,
			"componentType":5126,
			"count":1484,
			"type":"VEC2"
		},
		{
			"bufferView":160,
			"componentType":5123,
			"count":1752,
			"type":"SCALAR"
		},
		{
			"bufferView":161,
			"componentType":5126,
			"count":1359,
			"max":[
				13.749035835266113,
				13.686525344848633,
				-0.41752904653549194
			],
			"min":[
				-13.729891777038574,
				-13.744050979614258,
				-2.9867031574249268
			],
			"type":"VEC3"
		},
		{
			"bufferView":162,
			"componentType":5126,
			"count":1359,
			"type":"VEC3"
		},
		{
			"bufferView":163,
			"componentType":5126,
			"count":1359,
			"type":"VEC2"
		},
		{
			"bufferView":164,
			"componentType":5126,
			"count":704,
			"max":[
				8.761777877807617,
				8.682747840881348,
				1.7417237758636475
			],
			"min":[
				-8.75386905670166,
				-8.785446166992188,
				-0.2771000266075134
			],
			"type":"VEC3"
		},
		{
			"bufferView":165,
			"componentType":5126,
			"count":704,
			"type":"VEC3"
		},
		{
			"bufferView":166,
			"componentType":5126,
			"count":704,
			"type":"VEC2"
		},
		{
			"bufferView":167,
			"componentType":5123,
			"count":996,
			"type":"SCALAR"
		},
		{
			"bufferView":168,
			"componentType":5126,
			"count":50,
			"max":[
				10.647844314575195,
				6.900205135345459,
				20.260787963867188
			],
			"min":[
				9.125043869018555,
				-19.707168579101562,
				-6.336452007293701
			],
			"type":"VEC3"
		},
		{
			"bufferView":169,
			"componentType":5126,
			"count":50,
			"type":"VEC3"
		},
		{
			"bufferView":170,
			"componentType":5126,
			"count":50,
			"type":"VEC2"
		},
		{
			"bufferView":171,
			"componentType":5126,
			"count":96,
			"max":[
				13.34442138671875,
				0.034198880195617676,
				13.406744956970215
			],
			"min":[
				0.46014708280563354,
				-12.852439880371094,
				0.5181141495704651
			],
			"type":"VEC3"
		},
		{
			"bufferView":172,
			"componentType":5126,
			"count":96,
			"type":"VEC3"
		},
		{
			"bufferView":173,
			"componentType":5126,
			"count":96,
			"type":"VEC2"
		},
		{
			"bufferView":174,
			"componentType":5126,
			"count":128,
			"max":[
				7.582742214202881,
				0.5303199887275696,
				13.901799201965332
			],
			"min":[
				2.592726230621338,
				-13.347761154174805,
				0.022796906530857086
			],
			"type":"VEC3"
		},
		{
			"bufferView":175,
			"componentType":5126,
			"count":128,
			"type":"VEC3"
		},
		{
			"bufferView":176,
			"componentType":5126,
			"count":128,
			"type":"VEC2"
		},
		{
			"bufferView":177,
			"componentType":5126,
			"count":636,
			"max":[
				10.787224769592285,
				2.453946352005005,
				15.826494216918945
			],
			"min":[
				0.526203453540802,
				-15.27219009399414,
				-1.9016355276107788
			],
			"type":"VEC3"
		},
		{
			"bufferView":178,
			"componentType":5126,
			"count":636,
			"type":"VEC3"
		},
		{
			"bufferView":179,
			"componentType":5126,
			"count":636,
			"type":"VEC2"
		},
		{
			"bufferView":180,
			"componentType":5123,
			"count":720,
			"type":"SCALAR"
		},
		{
			"bufferView":181,
			"componentType":5126,
			"count":505,
			"max":[
				12.839523315429688,
				7.759029388427734,
				21.13157081604004
			],
			"min":[
				0.5262028574943542,
				-20.577268600463867,
				-7.206716060638428
			],
			"type":"VEC3"
		},
		{
			"bufferView":182,
			"componentType":5126,
			"count":505,
			"type":"VEC3"
		},
		{
			"bufferView":183,
			"componentType":5126,
			"count":505,
			"type":"VEC2"
		},
		{
			"bufferView":184,
			"componentType":5123,
			"count":687,
			"type":"SCALAR"
		},
		{
			"bufferView":185,
			"componentType":5126,
			"count":176,
			"max":[
				12.530007362365723,
				4.9113450050354,
				18.281661987304688
			],
			"min":[
				11.089787483215332,
				-17.728036880493164,
				-4.357324600219727
			],
			"type":"VEC3"
		},
		{
			"bufferView":186,
			"componentType":5126,
			"count":176,
			"type":"VEC3"
		},
		{
			"bufferView":187,
			"componentType":5126,
			"count":176,
			"type":"VEC2"
		},
		{
			"bufferView":188,
			"componentType":5126,
			"count":474,
			"max":[
				7.585652828216553,
				0.5838603973388672,
				13.956770896911621
			],
			"min":[
				2.5445268154144287,
				-13.401900291442871,
				-0.029928160831332207
			],
			"type":"VEC3"
		},
		{
			"bufferView":189,
			"componentType":5126,
			"count":474,
			"type":"VEC3"
		},
		{
			"bufferView":190,
			"componentType":5126,
			"count":474,
			"type":"VEC2"
		},
		{
			"bufferView":191,
			"componentType":5126,
			"count":10,
			"max":[
				10.797565460205078,
				6.642220497131348,
				19.934324264526367
			],
			"min":[
				10.614320755004883,
				-19.42681884765625,
				-6.089909076690674
			],
			"type":"VEC3"
		},
		{
			"bufferView":192,
			"componentType":5126,
			"count":10,
			"type":"VEC3"
		},
		{
			"bufferView":193,
			"componentType":5126,
			"count":10,
			"type":"VEC2"
		},
		{
			"bufferView":194,
			"componentType":5126,
			"count":27,
			"max":[
				48.96091842651367,
				49.0719108581543,
				1.7964822053909302
			],
			"min":[
				-48.98149490356445,
				-49.0711555480957,
				-6.8711042404174805
			],
			"type":"VEC3"
		},
		{
			"bufferView":195,
			"componentType":5126,
			"count":27,
			"type":"VEC3"
		},
		{
			"bufferView":196,
			"componentType":5126,
			"count":27,
			"type":"VEC2"
		},
		{
			"bufferView":197,
			"componentType":5123,
			"count":39,
			"type":"SCALAR"
		},
		{
			"bufferView":198,
			"componentType":5126,
			"count":3238,
			"max":[
				48.55953598022461,
				48.549625396728516,
				2.4771978855133057
			],
			"min":[
				-48.54711151123047,
				-48.484886169433594,
				-7.620545864105225
			],
			"type":"VEC3"
		},
		{
			"bufferView":199,
			"componentType":5126,
			"count":3238,
			"type":"VEC3"
		},
		{
			"bufferView":200,
			"componentType":5126,
			"count":3238,
			"type":"VEC2"
		},
		{
			"bufferView":201,
			"componentType":5123,
			"count":4152,
			"type":"SCALAR"
		},
		{
			"bufferView":202,
			"componentType":5126,
			"count":1614,
			"max":[
				49.76113510131836,
				49.75122833251953,
				2.1321818828582764
			],
			"min":[
				-49.74871826171875,
				-49.75596237182617,
				-6.999547004699707
			],
			"type":"VEC3"
		},
		{
			"bufferView":203,
			"componentType":5126,
			"count":1614,
			"type":"VEC3"
		},
		{
			"bufferView":204,
			"componentType":5126,
			"count":1614,
			"type":"VEC2"
		},
		{
			"bufferView":205,
			"componentType":5123,
			"count":2418,
			"type":"SCALAR"
		},
		{
			"bufferView":206,
			"componentType":5126,
			"count":32,
			"max":[
				48.038795471191406,
				48.140377044677734,
				-5.361688613891602
			],
			"min":[
				-48.0382080078125,
				-48.1334114074707,
				-7.266602993011475
			],
			"type":"VEC3"
		},
		{
			"bufferView":207,
			"componentType":5126,
			"count":32,
			"type":"VEC3"
		},
		{
			"bufferView":208,
			"componentType":5126,
			"count":32,
			"type":"VEC2"
		},
		{
			"bufferView":209,
			"componentType":5123,
			"count":42,
			"type":"SCALAR"
		},
		{
			"bufferView":210,
			"componentType":5126,
			"count":44,
			"max":[
				48.968936920166016,
				49.07939147949219,
				1.7975759506225586
			],
			"min":[
				-48.98777770996094,
				-49.078556060791016,
				-6.5595221519470215
			],
			"type":"VEC3"
		},
		{
			"bufferView":211,
			"componentType":5126,
			"count":44,
			"type":"VEC3"
		},
		{
			"bufferView":212,
			"componentType":5126,
			"count":44,
			"type":"VEC2"
		},
		{
			"bufferView":213,
			"componentType":5123,
			"count":57,
			"type":"SCALAR"
		},
		{
			"bufferView":214,
			"componentType":5126,
			"count":361,
			"max":[
				49.72395706176758,
				49.71409606933594,
				-4.7342209815979
			],
			"min":[
				-49.712303161621094,
				-49.83827590942383,
				-6.874608993530273
			],
			"type":"VEC3"
		},
		{
			"bufferView":215,
			"componentType":5126,
			"count":361,
			"type":"VEC3"
		},
		{
			"bufferView":216,
			"componentType":5126,
			"count":361,
			"type":"VEC2"
		},
		{
			"bufferView":217,
			"componentType":5123,
			"count":393,
			"type":"SCALAR"
		},
		{
			"bufferView":218,
			"componentType":5126,
			"count":328,
			"max":[
				49.733585357666016,
				49.8390007019043,
				1.4256787300109863
			],
			"min":[
				-49.723915100097656,
				-49.831512451171875,
				-6.660892486572266
			],
			"type":"VEC3"
		},
		{
			"bufferView":219,
			"componentType":5126,
			"count":328,
			"type":"VEC3"
		},
		{
			"bufferView":220,
			"componentType":5126,
			"count":328,
			"type":"VEC2"
		},
		{
			"bufferView":221,
			"componentType":5123,
			"count":330,
			"type":"SCALAR"
		},
		{
			"bufferView":222,
			"componentType":5126,
			"count":50,
			"max":[
				10.647844314575195,
				6.900205135345459,
				20.260787963867188
			],
			"min":[
				9.125043869018555,
				-19.707168579101562,
				-6.336452007293701
			],
			"type":"VEC3"
		},
		{
			"bufferView":223,
			"componentType":5126,
			"count":50,
			"type":"VEC3"
		},
		{
			"bufferView":224,
			"componentType":5126,
			"count":50,
			"type":"VEC2"
		},
		{
			"bufferView":225,
			"componentType":5126,
			"count":96,
			"max":[
				13.34442138671875,
				0.034198880195617676,
				13.406744956970215
			],
			"min":[
				0.46014708280563354,
				-12.852439880371094,
				0.5181141495704651
			],
			"type":"VEC3"
		},
		{
			"bufferView":226,
			"componentType":5126,
			"count":96,
			"type":"VEC3"
		},
		{
			"bufferView":227,
			"componentType":5126,
			"count":96,
			"type":"VEC2"
		},
		{
			"bufferView":228,
			"componentType":5126,
			"count":128,
			"max":[
				7.582742214202881,
				0.5303199887275696,
				13.901799201965332
			],
			"min":[
				2.592726230621338,
				-13.347761154174805,
				0.022796906530857086
			],
			"type":"VEC3"
		},
		{
			"bufferView":229,
			"componentType":5126,
			"count":128,
			"type":"VEC3"
		},
		{
			"bufferView":230,
			"componentType":5126,
			"count":128,
			"type":"VEC2"
		},
		{
			"bufferView":231,
			"componentType":5126,
			"count":636,
			"max":[
				10.787224769592285,
				2.453946352005005,
				15.826494216918945
			],
			"min":[
				0.526203453540802,
				-15.27219009399414,
				-1.9016355276107788
			],
			"type":"VEC3"
		},
		{
			"bufferView":232,
			"componentType":5126,
			"count":636,
			"type":"VEC3"
		},
		{
			"bufferView":233,
			"componentType":5126,
			"count":636,
			"type":"VEC2"
		},
		{
			"bufferView":234,
			"componentType":5126,
			"count":505,
			"max":[
				12.839523315429688,
				7.759029388427734,
				21.13157081604004
			],
			"min":[
				0.5262028574943542,
				-20.577268600463867,
				-7.206716060638428
			],
			"type":"VEC3"
		},
		{
			"bufferView":235,
			"componentType":5126,
			"count":505,
			"type":"VEC3"
		},
		{
			"bufferView":236,
			"componentType":5126,
			"count":505,
			"type":"VEC2"
		},
		{
			"bufferView":237,
			"componentType":5123,
			"count":687,
			"type":"SCALAR"
		},
		{
			"bufferView":238,
			"componentType":5126,
			"count":176,
			"max":[
				12.530007362365723,
				4.9113450050354,
				18.281661987304688
			],
			"min":[
				11.089787483215332,
				-17.728036880493164,
				-4.357324600219727
			],
			"type":"VEC3"
		},
		{
			"bufferView":239,
			"componentType":5126,
			"count":176,
			"type":"VEC3"
		},
		{
			"bufferView":240,
			"componentType":5126,
			"count":176,
			"type":"VEC2"
		},
		{
			"bufferView":241,
			"componentType":5126,
			"count":474,
			"max":[
				7.585652828216553,
				0.5838603973388672,
				13.956770896911621
			],
			"min":[
				2.5445268154144287,
				-13.401900291442871,
				-0.029928160831332207
			],
			"type":"VEC3"
		},
		{
			"bufferView":242,
			"componentType":5126,
			"count":474,
			"type":"VEC3"
		},
		{
			"bufferView":243,
			"componentType":5126,
			"count":474,
			"type":"VEC2"
		},
		{
			"bufferView":244,
			"componentType":5126,
			"count":10,
			"max":[
				10.797565460205078,
				6.642220497131348,
				19.934324264526367
			],
			"min":[
				10.614320755004883,
				-19.42681884765625,
				-6.089909076690674
			],
			"type":"VEC3"
		},
		{
			"bufferView":245,
			"componentType":5126,
			"count":10,
			"type":"VEC3"
		},
		{
			"bufferView":246,
			"componentType":5126,
			"count":10,
			"type":"VEC2"
		},
		{
			"bufferView":247,
			"componentType":5126,
			"count":1578,
			"max":[
				1.2400001287460327,
				1.2400000095367432,
				16.76869773864746
			],
			"min":[
				-1.2400000095367432,
				-1.2400001287460327,
				0.05288749933242798
			],
			"type":"VEC3"
		},
		{
			"bufferView":248,
			"componentType":5126,
			"count":1578,
			"type":"VEC3"
		},
		{
			"bufferView":249,
			"componentType":5126,
			"count":1578,
			"type":"VEC2"
		},
		{
			"bufferView":250,
			"componentType":5123,
			"count":2691,
			"type":"SCALAR"
		},
		{
			"bufferView":251,
			"componentType":5126,
			"count":48,
			"max":[
				1.1979913711547852,
				1.197106957435608,
				0.664301872253418
			],
			"min":[
				-1.1974809169769287,
				-1.1966601610183716,
				0.12395143508911133
			],
			"type":"VEC3"
		},
		{
			"bufferView":252,
			"componentType":5126,
			"count":48,
			"type":"VEC3"
		},
		{
			"bufferView":253,
			"componentType":5126,
			"count":48,
			"type":"VEC2"
		},
		{
			"bufferView":254,
			"componentType":5123,
			"count":72,
			"type":"SCALAR"
		}
	],
	"bufferViews":[
		{
			"buffer":0,
			"byteLength":7872,
			"byteOffset":0,
			"target":34962
		},
		{
			"buffer":0,
			"byteLength":7872,
			"byteOffset":7872,
			"target":34962
		},
		{
			"buffer":0,
			"byteLength":5248,
			"byteOffset":15744,
			"target":34962
		},
		{
			"buffer":0,
			"byteLength":1968,
			"byteOffset":20992,
			"target":34963
		},
		{
			"buffer":0,
			"byteLength":240,
			"byteOffset":22960,
			"target":34962
		},
		{
			"buffer":0,
			"byteLength":240,
			"byteOffset":23200,
			"target":34962
		},
		{
			"buffer":0,
			"byteLength":160,
			"byteOffset":23440,
			"target":34962
		},
		{
			"buffer":0,
			"byteLength":60,
			"byteOffset":23600,
			"target":34963
		},
		{
			"buffer":0,
			"byteLength":96,
			"byteOffset":23660,
			"target":34962
		},
		{
			"buffer":0,
			"byteLength":96,
			"byteOffset":23756,
			"target":34962
		},
		{
			"buffer":0,
			"byteLength":64,
			"byteOffset":23852,
			"target":34962
		},
		{
			"buffer":0,
			"byteLength":24,
			"byteOffset":23916,
			"target":34963
		},
		{
			"buffer":0,
			"byteLength":8220,
			"byteOffset":23940,
			"target":34962
		},
		{
			"buffer":0,
			"byteLength":8220,
			"byteOffset":32160,
			"target":34962
		},
		{
			"buffer":0,
			"byteLength":5480,
			"byteOffset":40380,
			"target":34962
		},
		{
			"buffer":0,
			"byteLength":2022,
			"byteOffset":45860,
			"target":34963
		},
		{
			"buffer":0,
			"byteLength":2952,
			"byteOffset":47884,
			"target":34962
		},
		{
			"buffer":0,
			"byteLength":2952,
			"byteOffset":50836,
			"target":34962
		},
		{
			"buffer":0,
			"byteLength":1968,
			"byteOffset":53788,
			"target":34962
		},
		{
			"buffer":0,
			"byteLength":732,
			"byteOffset":55756,
			"target":34963
		},
		{
			"buffer":0,
			"byteLength":3024,
			"byteOffset":56488,
			"target":34962
		},
		{
			"buffer":0,
			"byteLength":3024,
			"byteOffset":59512,
			"target":34962
		},
		{
			"buffer":0,
			"byteLength":2016,
			"byteOffset":62536,
			"target":34962
		},
		{
			"buffer":0,
			"byteLength":1008,
			"byteOffset":64552,
			"target":34963
		},
		{
			"buffer":0,
			"byteLength":288,
			"byteOffset":65560,
			"target":34962
		},
		{
			"buffer":0,
			"byteLength":288,
			"byteOffset":65848,
			"target":34962
		},
		{
			"buffer":0,
			"byteLength":192,
			"byteOffset":66136,
			"target":34962
		},
		{
			"buffer":0,
			"byteLength":72,
			"byteOffset":66328,
			"target":34963
		},
		{
			"buffer":0,
			"byteLength":144,
			"byteOffset":66400,
			"target":34962
		},
		{
			"buffer":0,
			"byteLength":144,
			"byteOffset":66544,
			"target":34962
		},
		{
			"buffer":0,
			"byteLength":96,
			"byteOffset":66688,
			"target":34962
		},
		{
			"buffer":0,
			"byteLength":24,
			"byteOffset":66784,
			"target":34963
		},
		{
			"buffer":0,
			"byteLength":576,
			"byteOffset":66808,
			"target":34962
		},
		{
			"buffer":0,
			"byteLength":576,
			"byteOffset":67384,
			"target":34962
		},
		{
			"buffer":0,
			"byteLength":384,
			"byteOffset":67960,
			"target":34962
		},
		{
			"buffer":0,
			"byteLength":144,
			"byteOffset":68344,
			"target":34963
		},
		{
			"buffer":0,
			"byteLength":384,
			"byteOffset":68488,
			"target":34962
		},
		{
			"buffer":0,
			"byteLength":384,
			"byteOffset":68872,
			"target":34962
		},
		{
			"buffer":0,
			"byteLength":256,
			"byteOffset":69256,
			"target":34962
		},
		{
			"buffer":0,
			"byteLength":84,
			"byteOffset":69512,
			"target":34963
		},
		{
			"buffer":0,
			"byteLength":288,
			"byteOffset":69596,
			"target":34962
		},
		{
			"buffer":0,
			"byteLength":288,
			"byteOffset":69884,
			"target":34962
		},
		{
			"buffer":0,
			"byteLength":192,
			"byteOffset":70172,
			"target":34962
		},
		{
			"buffer":0,
			"byteLength":144,
			"byteOffset":70364,
			"target":34962
		},
		{
			"buffer":0,
			"byteLength":144,
			"byteOffset":70508,
			"target":34962
		},
		{
			"buffer":0,
			"byteLength":96,
			"byteOffset":70652,
			"target":34962
		},
		{
			"buffer":0,
			"byteLength":576,
			"byteOffset":70748,
			"target":34962
		},
		{
			"buffer":0,
			"byteLength":576,
			"byteOffset":71324,
			"target":34962
		},
		{
			"buffer":0,
			"byteLength":384,
			"byteOffset":71900,
			"target":34962
		},
		{
			"buffer":0,
			"byteLength":384,
			"byteOffset":72284,
			"target":34962
		},
		{
			"buffer":0,
			"byteLength":384,
			"byteOffset":72668,
			"target":34962
		},
		{
			"buffer":0,
			"byteLength":256,
			"byteOffset":73052,
			"target":34962
		},
		{
			"buffer":0,
			"byteLength":288,
			"byteOffset":73308,
			"target":34962
		},
		{
			"buffer":0,
			"byteLength":288,
			"byteOffset":73596,
			"target":34962
		},
		{
			"buffer":0,
			"byteLength":192,
			"byteOffset":73884,
			"target":34962
		},
		{
			"buffer":0,
			"byteLength":144,
			"byteOffset":74076,
			"target":34962
		},
		{
			"buffer":0,
			"byteLength":144,
			"byteOffset":74220,
			"target":34962
		},
		{
			"buffer":0,
			"byteLength":96,
			"byteOffset":74364,
			"target":34962
		},
		{
			"buffer":0,
			"byteLength":576,
			"byteOffset":74460,
			"target":34962
		},
		{
			"buffer":0,
			"byteLength":576,
			"byteOffset":75036,
			"target":34962
		},
		{
			"buffer":0,
			"byteLength":384,
			"byteOffset":75612,
			"target":34962
		},
		{
			"buffer":0,
			"byteLength":384,
			"byteOffset":75996,
			"target":34962
		},
		{
			"buffer":0,
			"byteLength":384,
			"byteOffset":76380,
			"target":34962
		},
		{
			"buffer":0,
			"byteLength":256,
			"byteOffset":76764,
			"target":34962
		},
		{
			"buffer":0,
			"byteLength":288,
			"byteOffset":77020,
			"target":34962
		},
		{
			"buffer":0,
			"byteLength":288,
			"byteOffset":77308,
			"target":34962
		},
		{
			"buffer":0,
			"byteLength":192,
			"byteOffset":77596,
			"target":34962
		},
		{
			"buffer":0,
			"byteLength":144,
			"byteOffset":77788,
			"target":34962
		},
		{
			"buffer":0,
			"byteLength":144,
			"byteOffset":77932,
			"target":34962
		},
		{
			"buffer":0,
			"byteLength":96,
			"byteOffset":78076,
			"target":34962
		},
		{
			"buffer":0,
			"byteLength":576,
			"byteOffset":78172,
			"target":34962
		},
		{
			"buffer":0,
			"byteLength":576,
			"byteOffset":78748,
			"target":34962
		},
		{
			"buffer":0,
			"byteLength":384,
			"byteOffset":79324,
			"target":34962
		},
		{
			"buffer":0,
			"byteLength":384,
			"byteOffset":79708,
			"target":34962
		},
		{
			"buffer":0,
			"byteLength":384,
			"byteOffset":80092,
			"target":34962
		},
		{
			"buffer":0,
			"byteLength":256,
			"byteOffset":80476,
			"target":34962
		},
		{
			"buffer":0,
			"byteLength":1200,
			"byteOffset":80732,
			"target":34962
		},
		{
			"buffer":0,
			"byteLength":1200,
			"byteOffset":81932,
			"target":34962
		},
		{
			"buffer":0,
			"byteLength":800,
			"byteOffset":83132,
			"target":34962
		},
		{
			"buffer":0,
			"byteLength":288,
			"byteOffset":83932,
			"target":34963
		},
		{
			"buffer":0,
			"byteLength":17136,
			"byteOffset":84220,
			"target":34962
		},
		{
			"buffer":0,
			"byteLength":17136,
			"byteOffset":101356,
			"target":34962
		},
		{
			"buffer":0,
			"byteLength":11424,
			"byteOffset":118492,
			"target":34962
		},
		{
			"buffer":0,
			"byteLength":4188,
			"byteOffset":129916,
			"target":34963
		},
		{
			"buffer":0,
			"byteLength":6348,
			"byteOffset":134104,
			"target":34962
		},
		{
			"buffer":0,
			"byteLength":6348,
			"byteOffset":140452,
			"target":34962
		},
		{
			"buffer":0,
			"byteLength":4232,
			"byteOffset":146800,
			"target":34962
		},
		{
			"buffer":0,
			"byteLength":1410,
			"byteOffset":151032,
			"target":34963
		},
		{
			"buffer":0,
			"byteLength":720,
			"byteOffset":152444,
			"target":34962
		},
		{
			"buffer":0,
			"byteLength":720,
			"byteOffset":153164,
			"target":34962
		},
		{
			"buffer":0,
			"byteLength":480,
			"byteOffset":153884,
			"target":34962
		},
		{
			"buffer":0,
			"byteLength":144,
			"byteOffset":154364,
			"target":34963
		},
		{
			"buffer":0,
			"byteLength":936,
			"byteOffset":154508,
			"target":34962
		},
		{
			"buffer":0,
			"byteLength":936,
			"byteOffset":155444,
			"target":34962
		},
		{
			"buffer":0,
			"byteLength":624,
			"byteOffset":156380,
			"target":34962
		},
		{
			"buffer":0,
			"byteLength":204,
			"byteOffset":157004,
			"target":34963
		},
		{
			"buffer":0,
			"byteLength":17892,
			"byteOffset":157208,
			"target":34962
		},
		{
			"buffer":0,
			"byteLength":17892,
			"byteOffset":175100,
			"target":34962
		},
		{
			"buffer":0,
			"byteLength":11928,
			"byteOffset":192992,
			"target":34962
		},
		{
			"buffer":0,
			"byteLength":3546,
			"byteOffset":204920,
			"target":34963
		},
		{
			"buffer":0,
			"byteLength":16308,
			"byteOffset":208468,
			"target":34962
		},
		{
			"buffer":0,
			"byteLength":16308,
			"byteOffset":224776,
			"target":34962
		},
		{
			"buffer":0,
			"byteLength":10872,
			"byteOffset":241084,
			"target":34962
		},
		{
			"buffer":0,
			"byteLength":3054,
			"byteOffset":251956,
			"target":34963
		},
		{
			"buffer":0,
			"byteLength":8436,
			"byteOffset":255012,
			"target":34962
		},
		{
			"buffer":0,
			"byteLength":8436,
			"byteOffset":263448,
			"target":34962
		},
		{
			"buffer":0,
			"byteLength":5624,
			"byteOffset":271884,
			"target":34962
		},
		{
			"buffer":0,
			"byteLength":1986,
			"byteOffset":277508,
			"target":34963
		},
		{
			"buffer":0,
			"byteLength":8208,
			"byteOffset":279496,
			"target":34962
		},
		{
			"buffer":0,
			"byteLength":8208,
			"byteOffset":287704,
			"target":34962
		},
		{
			"buffer":0,
			"byteLength":5472,
			"byteOffset":295912,
			"target":34962
		},
		{
			"buffer":0,
			"byteLength":1584,
			"byteOffset":301384,
			"target":34963
		},
		{
			"buffer":0,
			"byteLength":600,
			"byteOffset":302968,
			"target":34962
		},
		{
			"buffer":0,
			"byteLength":600,
			"byteOffset":303568,
			"target":34962
		},
		{
			"buffer":0,
			"byteLength":400,
			"byteOffset":304168,
			"target":34962
		},
		{
			"buffer":0,
			"byteLength":144,
			"byteOffset":304568,
			"target":34963
		},
		{
			"buffer":0,
			"byteLength":1152,
			"byteOffset":304712,
			"target":34962
		},
		{
			"buffer":0,
			"byteLength":1152,
			"byteOffset":305864,
			"target":34962
		},
		{
			"buffer":0,
			"byteLength":768,
			"byteOffset":307016,
			"target":34962
		},
		{
			"buffer":0,
			"byteLength":288,
			"byteOffset":307784,
			"target":34963
		},
		{
			"buffer":0,
			"byteLength":1536,
			"byteOffset":308072,
			"target":34962
		},
		{
			"buffer":0,
			"byteLength":1536,
			"byteOffset":309608,
			"target":34962
		},
		{
			"buffer":0,
			"byteLength":1024,
			"byteOffset":311144,
			"target":34962
		},
		{
			"buffer":0,
			"byteLength":384,
			"byteOffset":312168,
			"target":34963
		},
		{
			"buffer":0,
			"byteLength":7068,
			"byteOffset":312552,
			"target":34962
		},
		{
			"buffer":0,
			"byteLength":7068,
			"byteOffset":319620,
			"target":34962
		},
		{
			"buffer":0,
			"byteLength":4712,
			"byteOffset":326688,
			"target":34962
		},
		{
			"buffer":0,
			"byteLength":1494,
			"byteOffset":331400,
			"target":34963
		},
		{
			"buffer":0,
			"byteLength":2112,
			"byteOffset":332896,
			"target":34962
		},
		{
			"buffer":0,
			"byteLength":2112,
			"byteOffset":335008,
			"target":34962
		},
		{
			"buffer":0,
			"byteLength":1408,
			"byteOffset":337120,
			"target":34962
		},
		{
			"buffer":0,
			"byteLength":480,
			"byteOffset":338528,
			"target":34963
		},
		{
			"buffer":0,
			"byteLength":5688,
			"byteOffset":339008,
			"target":34962
		},
		{
			"buffer":0,
			"byteLength":5688,
			"byteOffset":344696,
			"target":34962
		},
		{
			"buffer":0,
			"byteLength":3792,
			"byteOffset":350384,
			"target":34962
		},
		{
			"buffer":0,
			"byteLength":1980,
			"byteOffset":354176,
			"target":34963
		},
		{
			"buffer":0,
			"byteLength":120,
			"byteOffset":356156,
			"target":34962
		},
		{
			"buffer":0,
			"byteLength":120,
			"byteOffset":356276,
			"target":34962
		},
		{
			"buffer":0,
			"byteLength":80,
			"byteOffset":356396,
			"target":34962
		},
		{
			"buffer":0,
			"byteLength":24,
			"byteOffset":356476,
			"target":34963
		},
		{
			"buffer":0,
			"byteLength":1200,
			"byteOffset":356500,
			"target":34962
		},
		{
			"buffer":0,
			"byteLength":1200,
			"byteOffset":357700,
			"target":34962
		},
		{
			"buffer":0,
			"byteLength":800,
			"byteOffset":358900,
			"target":34962
		},
		{
			"buffer":0,
			"byteLength":17112,
			"byteOffset":359700,
			"target":34962
		},
		{
			"buffer":0,
			"byteLength":17112,
			"byteOffset":376812,
			"target":34962
		},
		{
			"buffer":0,
			"byteLength":11408,
			"byteOffset":393924,
			"target":34962
		},
		{
			"buffer":0,
			"byteLength":4188,
			"byteOffset":405332,
			"target":34963
		},
		{
			"buffer":0,
			"byteLength":6564,
			"byteOffset":409520,
			"target":34962
		},
		{
			"buffer":0,
			"byteLength":6564,
			"byteOffset":416084,
			"target":34962
		},
		{
			"buffer":0,
			"byteLength":4376,
			"byteOffset":422648,
			"target":34962
		},
		{
			"buffer":0,
			"byteLength":1446,
			"byteOffset":427024,
			"target":34963
		},
		{
			"buffer":0,
			"byteLength":720,
			"byteOffset":428472,
			"target":34962
		},
		{
			"buffer":0,
			"byteLength":720,
			"byteOffset":429192,
			"target":34962
		},
		{
			"buffer":0,
			"byteLength":480,
			"byteOffset":429912,
			"target":34962
		},
		{
			"buffer":0,
			"byteLength":936,
			"byteOffset":430392,
			"target":34962
		},
		{
			"buffer":0,
			"byteLength":936,
			"byteOffset":431328,
			"target":34962
		},
		{
			"buffer":0,
			"byteLength":624,
			"byteOffset":432264,
			"target":34962
		},
		{
			"buffer":0,
			"byteLength":17808,
			"byteOffset":432888,
			"target":34962
		},
		{
			"buffer":0,
			"byteLength":17808,
			"byteOffset":450696,
			"target":34962
		},
		{
			"buffer":0,
			"byteLength":11872,
			"byteOffset":468504,
			"target":34962
		},
		{
			"buffer":0,
			"byteLength":3504,
			"byteOffset":480376,
			"target":34963
		},
		{
			"buffer":0,
			"byteLength":16308,
			"byteOffset":483880,
			"target":34962
		},
		{
			"buffer":0,
			"byteLength":16308,
			"byteOffset":500188,
			"target":34962
		},
		{
			"buffer":0,
			"byteLength":10872,
			"byteOffset":516496,
			"target":34962
		},
		{
			"buffer":0,
			"byteLength":8448,
			"byteOffset":527368,
			"target":34962
		},
		{
			"buffer":0,
			"byteLength":8448,
			"byteOffset":535816,
			"target":34962
		},
		{
			"buffer":0,
			"byteLength":5632,
			"byteOffset":544264,
			"target":34962
		},
		{
			"buffer":0,
			"byteLength":1992,
			"byteOffset":549896,
			"target":34963
		},
		{
			"buffer":0,
			"byteLength":600,
			"byteOffset":551888,
			"target":34962
		},
		{
			"buffer":0,
			"byteLength":600,
			"byteOffset":552488,
			"target":34962
		},
		{
			"buffer":0,
			"byteLength":400,
			"byteOffset":553088,
			"target":34962
		},
		{
			"buffer":0,
			"byteLength":1152,
			"byteOffset":553488,
			"target":34962
		},
		{
			"buffer":0,
			"byteLength":1152,
			"byteOffset":554640,
			"target":34962
		},
		{
			"buffer":0,
			"byteLength":768,
			"byteOffset":555792,
			"target":34962
		},
		{
			"buffer":0,
			"byteLength":1536,
			"byteOffset":556560,
			"target":34962
		},
		{
			"buffer":0,
			"byteLength":1536,
			"byteOffset":558096,
			"target":34962
		},
		{
			"buffer":0,
			"byteLength":1024,
			"byteOffset":559632,
			"target":34962
		},
		{
			"buffer":0,
			"byteLength":7632,
			"byteOffset":560656,
			"target":34962
		},
		{
			"buffer":0,
			"byteLength":7632,
			"byteOffset":568288,
			"target":34962
		},
		{
			"buffer":0,
			"byteLength":5088,
			"byteOffset":575920,
			"target":34962
		},
		{
			"buffer":0,
			"byteLength":1440,
			"byteOffset":581008,
			"target":34963
		},
		{
			"buffer":0,
			"byteLength":6060,
			"byteOffset":582448,
			"target":34962
		},
		{
			"buffer":0,
			"byteLength":6060,
			"byteOffset":588508,
			"target":34962
		},
		{
			"buffer":0,
			"byteLength":4040,
			"byteOffset":594568,
			"target":34962
		},
		{
			"buffer":0,
			"byteLength":1374,
			"byteOffset":598608,
			"target":34963
		},
		{
			"buffer":0,
			"byteLength":2112,
			"byteOffset":599984,
			"target":34962
		},
		{
			"buffer":0,
			"byteLength":2112,
			"byteOffset":602096,
			"target":34962
		},
		{
			"buffer":0,
			"byteLength":1408,
			"byteOffset":604208,
			"target":34962
		},
		{
			"buffer":0,
			"byteLength":5688,
			"byteOffset":605616,
			"target":34962
		},
		{
			"buffer":0,
			"byteLength":5688,
			"byteOffset":611304,
			"target":34962
		},
		{
			"buffer":0,
			"byteLength":3792,
			"byteOffset":616992,
			"target":34962
		},
		{
			"buffer":0,
			"byteLength":120,
			"byteOffset":620784,
			"target":34962
		},
		{
			"buffer":0,
			"byteLength":120,
			"byteOffset":620904,
			"target":34962
		},
		{
			"buffer":0,
			"byteLength":80,
			"byteOffset":621024,
			"target":34962
		},
		{
			"buffer":0,
			"byteLength":324,
			"byteOffset":621104,
			"target":34962
		},
		{
			"buffer":0,
			"byteLength":324,
			"byteOffset":621428,
			"target":34962
		},
		{
			"buffer":0,
			"byteLength":216,
			"byteOffset":621752,
			"target":34962
		},
		{
			"buffer":0,
			"byteLength":78,
			"byteOffset":621968,
			"target":34963
		},
		{
			"buffer":0,
			"byteLength":38856,
			"byteOffset":622048,
			"target":34962
		},
		{
			"buffer":0,
			"byteLength":38856,
			"byteOffset":660904,
			"target":34962
		},
		{
			"buffer":0,
			"byteLength":25904,
			"byteOffset":699760,
			"target":34962
		},
		{
			"buffer":0,
			"byteLength":8304,
			"byteOffset":725664,
			"target":34963
		},
		{
			"buffer":0,
			"byteLength":19368,
			"byteOffset":733968,
			"target":34962
		},
		{
			"buffer":0,
			"byteLength":19368,
			"byteOffset":753336,
			"target":34962
		},
		{
			"buffer":0,
			"byteLength":12912,
			"byteOffset":772704,
			"target":34962
		},
		{
			"buffer":0,
			"byteLength":4836,
			"byteOffset":785616,
			"target":34963
		},
		{
			"buffer":0,
			"byteLength":384,
			"byteOffset":790452,
			"target":34962
		},
		{
			"buffer":0,
			"byteLength":384,
			"byteOffset":790836,
			"target":34962
		},
		{
			"buffer":0,
			"byteLength":256,
			"byteOffset":791220,
			"target":34962
		},
		{
			"buffer":0,
			"byteLength":84,
			"byteOffset":791476,
			"target":34963
		},
		{
			"buffer":0,
			"byteLength":528,
			"byteOffset":791560,
			"target":34962
		},
		{
			"buffer":0,
			"byteLength":528,
			"byteOffset":792088,
			"target":34962
		},
		{
			"buffer":0,
			"byteLength":352,
			"byteOffset":792616,
			"target":34962
		},
		{
			"buffer":0,
			"byteLength":114,
			"byteOffset":792968,
			"target":34963
		},
		{
			"buffer":0,
			"byteLength":4332,
			"byteOffset":793084,
			"target":34962
		},
		{
			"buffer":0,
			"byteLength":4332,
			"byteOffset":797416,
			"target":34962
		},
		{
			"buffer":0,
			"byteLength":2888,
			"byteOffset":801748,
			"target":34962
		},
		{
			"buffer":0,
			"byteLength":786,
			"byteOffset":804636,
			"target":34963
		},
		{
			"buffer":0,
			"byteLength":3936,
			"byteOffset":805424,
			"target":34962
		},
		{
			"buffer":0,
			"byteLength":3936,
			"byteOffset":809360,
			"target":34962
		},
		{
			"buffer":0,
			"byteLength":2624,
			"byteOffset":813296,
			"target":34962
		},
		{
			"buffer":0,
			"byteLength":660,
			"byteOffset":815920,
			"target":34963
		},
		{
			"buffer":0,
			"byteLength":600,
			"byteOffset":816580,
			"target":34962
		},
		{
			"buffer":0,
			"byteLength":600,
			"byteOffset":817180,
			"target":34962
		},
		{
			"buffer":0,
			"byteLength":400,
			"byteOffset":817780,
			"target":34962
		},
		{
			"buffer":0,
			"byteLength":1152,
			"byteOffset":818180,
			"target":34962
		},
		{
			"buffer":0,
			"byteLength":1152,
			"byteOffset":819332,
			"target":34962
		},
		{
			"buffer":0,
			"byteLength":768,
			"byteOffset":820484,
			"target":34962
		},
		{
			"buffer":0,
			"byteLength":1536,
			"byteOffset":821252,
			"target":34962
		},
		{
			"buffer":0,
			"byteLength":1536,
			"byteOffset":822788,
			"target":34962
		},
		{
			"buffer":0,
			"byteLength":1024,
			"byteOffset":824324,
			"target":34962
		},
		{
			"buffer":0,
			"byteLength":7632,
			"byteOffset":825348,
			"target":34962
		},
		{
			"buffer":0,
			"byteLength":7632,
			"byteOffset":832980,
			"target":34962
		},
		{
			"buffer":0,
			"byteLength":5088,
			"byteOffset":840612,
			"target":34962
		},
		{
			"buffer":0,
			"byteLength":6060,
			"byteOffset":845700,
			"target":34962
		},
		{
			"buffer":0,
			"byteLength":6060,
			"byteOffset":851760,
			"target":34962
		},
		{
			"buffer":0,
			"byteLength":4040,
			"byteOffset":857820,
			"target":34962
		},
		{
			"buffer":0,
			"byteLength":1374,
			"byteOffset":861860,
			"target":34963
		},
		{
			"buffer":0,
			"byteLength":2112,
			"byteOffset":863236,
			"target":34962
		},
		{
			"buffer":0,
			"byteLength":2112,
			"byteOffset":865348,
			"target":34962
		},
		{
			"buffer":0,
			"byteLength":1408,
			"byteOffset":867460,
			"target":34962
		},
		{
			"buffer":0,
			"byteLength":5688,
			"byteOffset":868868,
			"target":34962
		},
		{
			"buffer":0,
			"byteLength":5688,
			"byteOffset":874556,
			"target":34962
		},
		{
			"buffer":0,
			"byteLength":3792,
			"byteOffset":880244,
			"target":34962
		},
		{
			"buffer":0,
			"byteLength":120,
			"byteOffset":884036,
			"target":34962
		},
		{
			"buffer":0,
			"byteLength":120,
			"byteOffset":884156,
			"target":34962
		},
		{
			"buffer":0,
			"byteLength":80,
			"byteOffset":884276,
			"target":34962
		},
		{
			"buffer":0,
			"byteLength":18936,
			"byteOffset":884356,
			"target":34962
		},
		{
			"buffer":0,
			"byteLength":18936,
			"byteOffset":903292,
			"target":34962
		},
		{
			"buffer":0,
			"byteLength":12624,
			"byteOffset":922228,
			"target":34962
		},
		{
			"buffer":0,
			"byteLength":5382,
			"byteOffset":934852,
			"target":34963
		},
		{
			"buffer":0,
			"byteLength":576,
			"byteOffset":940236,
			"target":34962
		},
		{
			"buffer":0,
			"byteLength":576,
			"byteOffset":940812,
			"target":34962
		},
		{
			"buffer":0,
			"byteLength":384,
			"byteOffset":941388,
			"target":34962
		},
		{
			"buffer":0,
			"byteLength":144,
			"byteOffset":941772,
			"target":34963
		}
	],
	"samplers":[
		{
			"magFilter":9729,
			"minFilter":9987
		}
	],
	"buffers":[
		{
			"byteLength":941916,
			"uri":"Pagoda_Sanju_31m.bin"
		}
	]
}
