{
	"asset":{
		"generator":"Khronos glTF Blender I/O v4.4.56",
		"version":"2.0"
	},
	"extensionsUsed":[
		"KHR_texture_transform"
	],
	"extensionsRequired":[
		"KHR_texture_transform"
	],
	"scene":0,
	"scenes":[
		{
			"name":"Scene",
			"nodes":[
				22
			]
		}
	],
	"nodes":[
		{
			"mesh":0,
			"name":"Base_LOD0",
			"rotation":[
				-0.7071068286895752,
				0,
				0,
				0.7071068286895752
			],
			"scale":[
				0.7800000309944153,
				0.7268718481063843,
				0.7799999117851257
			],
			"translation":[
				4.3185343742370605,
				2.4295740127563477,
				-80.00316619873047
			]
		},
		{
			"children":[
				0
			],
			"name":"Base"
		},
		{
			"mesh":1,
			"name":"Door_EL_LOD0",
			"rotation":[
				-0.4995611906051636,
				-0.5004338026046753,
				0.5004384517669678,
				0.49956580996513367
			],
			"scale":[
				0.5337244272232056,
				0.5853020548820496,
				0.5853021144866943
			],
			"translation":[
				295.8209228515625,
				56.605430603027344,
				-251.5504608154297
			]
		},
		{
			"mesh":2,
			"name":"Door_ER_LOD0",
			"rotation":[
				-0.4995611906051636,
				-0.5004338026046753,
				0.5004384517669678,
				0.49956580996513367
			],
			"scale":[
				0.5337244272232056,
				0.5853020548820496,
				0.5853021144866943
			],
			"translation":[
				296.0242614746094,
				-59.8547248840332,
				-251.5504608154297
			]
		},
		{
			"mesh":3,
			"name":"Door_NL_LOD0",
			"rotation":[
				-0.7071065306663513,
				-0.0006170274573378265,
				0.0006170273409225047,
				0.7071065902709961
			],
			"scale":[
				0.5337243676185608,
				0.5853020548820496,
				0.5853019952774048
			],
			"translation":[
				60.708065032958984,
				-294.0268249511719,
				-251.55044555664062
			]
		},
		{
			"mesh":4,
			"name":"Door_NR_LOD0",
			"rotation":[
				-0.7071065306663513,
				-0.0006170274573378265,
				0.0006170273409225047,
				0.7071065902709961
			],
			"scale":[
				0.5337243676185608,
				0.5853020548820496,
				0.5853019952774048
			],
			"translation":[
				-55.7520866394043,
				-294.23004150390625,
				-251.55044555664062
			]
		},
		{
			"mesh":5,
			"name":"Door_SL_LOD0",
			"rotation":[
				-0.0006169146508909762,
				0.7071065902709961,
				-0.7071065306663513,
				0.0006169146508909762
			],
			"scale":[
				0.5337243676185608,
				0.5853020548820496,
				0.5853019952774048
			],
			"translation":[
				-54.82426834106445,
				291.6176452636719,
				-251.5504608154297
			]
		},
		{
			"mesh":6,
			"name":"Door_SR_LOD0",
			"rotation":[
				-0.0006169146508909762,
				0.7071065902709961,
				-0.7071065306663513,
				0.0006169146508909762
			],
			"scale":[
				0.5337243676185608,
				0.5853020548820496,
				0.5853019952774048
			],
			"translation":[
				61.63591766357422,
				291.8208923339844,
				-251.5504608154297
			]
		},
		{
			"mesh":7,
			"name":"Door_WL_LOD0",
			"rotation":[
				-0.5004385709762573,
				0.49956580996513367,
				-0.499561071395874,
				0.5004338026046753
			],
			"scale":[
				0.5337244272232056,
				0.5853020548820496,
				0.5853021144866943
			],
			"translation":[
				-289.91357421875,
				-58.944908142089844,
				-251.5504608154297
			]
		},
		{
			"mesh":8,
			"name":"Door_WR_LOD0",
			"rotation":[
				-0.5004385709762573,
				0.49956580996513367,
				-0.499561071395874,
				0.5004338026046753
			],
			"scale":[
				0.5337244272232056,
				0.5853020548820496,
				0.5853021144866943
			],
			"translation":[
				-290.1168212890625,
				57.51527786254883,
				-251.5504608154297
			]
		},
		{
			"children":[
				2,
				3,
				4,
				5,
				6,
				7,
				8,
				9
			],
			"name":"Doors"
		},
		{
			"mesh":9,
			"name":"Roof1_LOD0",
			"rotation":[
				-0.7071068286895752,
				0,
				0,
				0.7071068286895752
			],
			"scale":[
				0.4732167720794678,
				0.4732167422771454,
				0.4732167422771454
			],
			"translation":[
				2.5568723678588867,
				-2.061450958251953,
				-775.9846801757812
			]
		},
		{
			"mesh":10,
			"name":"Wall1_LOD0",
			"rotation":[
				0.499563604593277,
				0.5004359483718872,
				-0.499563604593277,
				0.500436007976532
			],
			"scale":[
				0.3511812090873718,
				0.451853483915329,
				0.451853483915329
			],
			"translation":[
				-312.1509094238281,
				287.844482421875,
				-232.8805694580078
			]
		},
		{
			"children":[
				11,
				12
			],
			"name":"Floor1"
		},
		{
			"mesh":11,
			"name":"Roof2_LOD0",
			"rotation":[
				-0.7071068286895752,
				0,
				0,
				0.7071068286895752
			],
			"scale":[
				0.4613863229751587,
				0.4613862931728363,
				0.4613862931728363
			],
			"translation":[
				2.5667428970336914,
				-2.0392212867736816,
				-1270.615234375
			]
		},
		{
			"mesh":12,
			"name":"Wall2_LOD0",
			"rotation":[
				0.499563604593277,
				0.5004361271858215,
				-0.49956363439559937,
				0.5004360675811768
			],
			"scale":[
				0.3424016535282135,
				0.44055718183517456,
				0.44055724143981934
			],
			"translation":[
				-304.2733154296875,
				280.6190185546875,
				-741.0886840820312
			]
		},
		{
			"children":[
				14,
				15
			],
			"name":"Floor2"
		},
		{
			"mesh":13,
			"name":"Roof3_LOD0",
			"rotation":[
				-0.7071068286895752,
				0,
				0,
				0.7071068286895752
			],
			"scale":[
				0.12402839213609695,
				0.451731413602829,
				0.12402824312448502
			],
			"translation":[
				2.3325324058532715,
				-2.201113700866699,
				-1932.4754638671875
			]
		},
		{
			"mesh":14,
			"name":"Wall3_LOD0",
			"rotation":[
				0.4995635747909546,
				0.5004360675811768,
				-0.4995635747909546,
				0.5004360675811768
			],
			"scale":[
				0.33384159207344055,
				0.4295433461666107,
				0.4295434355735779
			],
			"translation":[
				-296.5924377441406,
				273.5749816894531,
				-1246.455810546875
			]
		},
		{
			"children":[
				17,
				18
			],
			"name":"Floor3"
		},
		{
			"mesh":15,
			"name":"Sorin_LOD0",
			"rotation":[
				-0.7071068286895752,
				0,
				0,
				0.7071068286895752
			],
			"scale":[
				0.6823737621307373,
				0.6823737621307373,
				0.6823737621307373
			],
			"translation":[
				0.722205638885498,
				-0.47190865874290466,
				-2039.8311767578125
			]
		},
		{
			"children":[
				20
			],
			"name":"Sorin"
		},
		{
			"children":[
				1,
				10,
				13,
				16,
				19,
				21
			],
			"name":"Pagoda_Sanju_31m__1_",
			"rotation":[
				0.7071068286895752,
				0,
				0,
				0.7071068286895752
			],
			"scale":[
				0.009999999776482582,
				0.009999999776482582,
				0.009999999776482582
			]
		}
	],
	"materials":[
		{
			"doubleSided":true,
			"name":"mat_basalt_base_01.001",
			"pbrMetallicRoughness":{
				"baseColorTexture":{
					"extensions":{
						"KHR_texture_transform":{
							"offset":[
								0,
								0.65000000834465
							],
							"scale":[
								0.34999999165534995,
								0.34999999165534995
							]
						}
					},
					"index":0
				},
				"metallicFactor":0,
				"roughnessFactor":0.5527864098548889
			}
		},
		{
			"doubleSided":true,
			"name":"mat_stone_wall_02",
			"pbrMetallicRoughness":{
				"baseColorTexture":{
					"extensions":{
						"KHR_texture_transform":{
							"offset":[
								0,
								0.9
							],
							"scale":[
								0.1,
								0.1
							]
						}
					},
					"index":1
				},
				"metallicFactor":0,
				"roughnessFactor":0.5527864098548889
			}
		},
		{
			"doubleSided":true,
			"name":"mat_wood_plank_03.001",
			"pbrMetallicRoughness":{
				"baseColorTexture":{
					"index":2
				},
				"metallicFactor":0,
				"roughnessFactor":0.5527864098548889
			}
		},
		{
			"doubleSided":true,
			"name":"mat_wood_paint_yellow_01",
			"pbrMetallicRoughness":{
				"baseColorTexture":{
					"extensions":{
						"KHR_texture_transform":{
							"offset":[
								0,
								0.5
							],
							"scale":[
								0.5,
								0.5
							]
						}
					},
					"index":3
				},
				"metallicFactor":0,
				"roughnessFactor":0.5527864098548889
			}
		},
		{
			"doubleSided":true,
			"name":"mat_wood_pillarRed_02",
			"pbrMetallicRoughness":{
				"baseColorTexture":{
					"extensions":{
						"KHR_texture_transform":{
							"offset":[
								0,
								0.5
							],
							"scale":[
								0.5,
								0.5
							]
						}
					},
					"index":4
				},
				"metallicFactor":0,
				"roughnessFactor":0.5527864098548889
			}
		},
		{
			"doubleSided":true,
			"name":"mat_wood_beamRed_02",
			"pbrMetallicRoughness":{
				"baseColorTexture":{
					"extensions":{
						"KHR_texture_transform":{
							"offset":[
								0,
								0.5
							],
							"scale":[
								0.5,
								0.5
							]
						}
					},
					"index":5
				},
				"metallicFactor":0,
				"roughnessFactor":0.5527864098548889
			}
		},
		{
			"doubleSided":true,
			"name":"mat_metal_copper_patina_01.001",
			"pbrMetallicRoughness":{
				"baseColorTexture":{
					"extensions":{
						"KHR_texture_transform":{
							"offset":[
								0,
								0.5
							],
							"scale":[
								0.5,
								0.5
							]
						}
					},
					"index":6
				},
				"metallicFactor":0,
				"roughnessFactor":0.5527864098548889
			}
		},
		{
			"doubleSided":true,
			"name":"mat_metal_copper_antique_01.001",
			"pbrMetallicRoughness":{
				"baseColorTexture":{
					"index":7
				},
				"metallicFactor":0,
				"roughnessFactor":0.5527864098548889
			}
		},
		{
			"doubleSided":true,
			"name":"mat_decal_pagoda_01.001",
			"pbrMetallicRoughness":{
				"metallicFactor":0,
				"roughnessFactor":0.5527864098548889
			}
		},
		{
			"doubleSided":true,
			"name":"mat_wood_wall_01.001",
			"pbrMetallicRoughness":{
				"baseColorTexture":{
					"extensions":{
						"KHR_texture_transform":{
							"offset":[
								0,
								0.5
							],
							"scale":[
								0.5,
								0.5
							]
						}
					},
					"index":8
				},
				"metallicFactor":0,
				"roughnessFactor":0.5527864098548889
			}
		},
		{
			"doubleSided":true,
			"name":"mat_clay_tile_01.001",
			"pbrMetallicRoughness":{
				"baseColorTexture":{
					"extensions":{
						"KHR_texture_transform":{
							"offset":[
								0,
								0.5
							],
							"scale":[
								0.5,
								0.5
							]
						}
					},
					"index":9
				},
				"metallicFactor":0,
				"roughnessFactor":0.5527864098548889
			}
		},
		{
			"doubleSided":true,
			"name":"mat_clay_tile_02.001",
			"pbrMetallicRoughness":{
				"baseColorTexture":{
					"extensions":{
						"KHR_texture_transform":{
							"offset":[
								0,
								0.5
							],
							"scale":[
								0.5,
								0.5
							]
						}
					},
					"index":10
				},
				"metallicFactor":0,
				"roughnessFactor":0.5527864098548889
			}
		},
		{
			"doubleSided":true,
			"name":"mat_wood_paint_white_01",
			"pbrMetallicRoughness":{
				"baseColorTexture":{
					"extensions":{
						"KHR_texture_transform":{
							"offset":[
								0,
								0.5
							],
							"scale":[
								0.5,
								0.5
							]
						}
					},
					"index":11
				},
				"metallicFactor":0,
				"roughnessFactor":0.5527864098548889
			}
		},
		{
			"doubleSided":true,
			"name":"mat_clay_fired_01.001",
			"pbrMetallicRoughness":{
				"baseColorTexture":{
					"extensions":{
						"KHR_texture_transform":{
							"offset":[
								0,
								0.5
							],
							"scale":[
								0.5,
								0.5
							]
						}
					},
					"index":12
				},
				"metallicFactor":0,
				"roughnessFactor":0.5527864098548889
			}
		},
		{
			"doubleSided":true,
			"name":"mat_wood_paint_green_01",
			"pbrMetallicRoughness":{
				"baseColorTexture":{
					"extensions":{
						"KHR_texture_transform":{
							"offset":[
								0,
								0.5
							],
							"scale":[
								0.5,
								0.5
							]
						}
					},
					"index":13
				},
				"metallicFactor":0,
				"roughnessFactor":0.5527864098548889
			}
		}
	],
	"meshes":[
		{
			"name":"Scene.038",
			"primitives":[
				{
					"attributes":{
						"POSITION":0,
						"NORMAL":1,
						"TEXCOORD_0":2
					},
					"indices":3,
					"material":0
				},
				{
					"attributes":{
						"POSITION":4,
						"NORMAL":5,
						"TEXCOORD_0":6
					},
					"indices":7,
					"material":1
				},
				{
					"attributes":{
						"POSITION":8,
						"NORMAL":9,
						"TEXCOORD_0":10
					},
					"indices":11,
					"material":2
				},
				{
					"attributes":{
						"POSITION":12,
						"NORMAL":13,
						"TEXCOORD_0":14
					},
					"indices":15,
					"material":3
				},
				{
					"attributes":{
						"POSITION":16,
						"NORMAL":17,
						"TEXCOORD_0":18
					},
					"indices":19,
					"material":4
				},
				{
					"attributes":{
						"POSITION":20,
						"NORMAL":21,
						"TEXCOORD_0":22
					},
					"indices":23,
					"material":5
				},
				{
					"attributes":{
						"POSITION":24,
						"NORMAL":25,
						"TEXCOORD_0":26
					},
					"indices":27,
					"material":6
				},
				{
					"attributes":{
						"POSITION":28,
						"NORMAL":29,
						"TEXCOORD_0":30
					},
					"indices":31,
					"material":4
				},
				{
					"attributes":{
						"POSITION":32,
						"NORMAL":33,
						"TEXCOORD_0":34
					},
					"indices":35,
					"material":7
				},
				{
					"attributes":{
						"POSITION":36,
						"NORMAL":37,
						"TEXCOORD_0":38
					},
					"indices":39,
					"material":8
				}
			]
		},
		{
			"name":"Scene.039",
			"primitives":[
				{
					"attributes":{
						"POSITION":40,
						"NORMAL":41,
						"TEXCOORD_0":42
					},
					"indices":43,
					"material":9
				},
				{
					"attributes":{
						"POSITION":44,
						"NORMAL":45,
						"TEXCOORD_0":46
					},
					"indices":47,
					"material":8
				}
			]
		},
		{
			"name":"Scene.040",
			"primitives":[
				{
					"attributes":{
						"POSITION":48,
						"NORMAL":49,
						"TEXCOORD_0":50
					},
					"indices":51,
					"material":9
				},
				{
					"attributes":{
						"POSITION":52,
						"NORMAL":53,
						"TEXCOORD_0":54
					},
					"indices":55,
					"material":8
				}
			]
		},
		{
			"name":"Scene.041",
			"primitives":[
				{
					"attributes":{
						"POSITION":56,
						"NORMAL":57,
						"TEXCOORD_0":58
					},
					"indices":43,
					"material":9
				},
				{
					"attributes":{
						"POSITION":59,
						"NORMAL":60,
						"TEXCOORD_0":61
					},
					"indices":47,
					"material":8
				}
			]
		},
		{
			"name":"Scene.042",
			"primitives":[
				{
					"attributes":{
						"POSITION":62,
						"NORMAL":63,
						"TEXCOORD_0":64
					},
					"indices":51,
					"material":9
				},
				{
					"attributes":{
						"POSITION":65,
						"NORMAL":66,
						"TEXCOORD_0":67
					},
					"indices":55,
					"material":8
				}
			]
		},
		{
			"name":"Scene.043",
			"primitives":[
				{
					"attributes":{
						"POSITION":68,
						"NORMAL":69,
						"TEXCOORD_0":70
					},
					"indices":43,
					"material":9
				},
				{
					"attributes":{
						"POSITION":71,
						"NORMAL":72,
						"TEXCOORD_0":73
					},
					"indices":47,
					"material":8
				}
			]
		},
		{
			"name":"Scene.044",
			"primitives":[
				{
					"attributes":{
						"POSITION":74,
						"NORMAL":75,
						"TEXCOORD_0":76
					},
					"indices":51,
					"material":9
				},
				{
					"attributes":{
						"POSITION":77,
						"NORMAL":78,
						"TEXCOORD_0":79
					},
					"indices":55,
					"material":8
				}
			]
		},
		{
			"name":"Scene.045",
			"primitives":[
				{
					"attributes":{
						"POSITION":80,
						"NORMAL":81,
						"TEXCOORD_0":82
					},
					"indices":43,
					"material":9
				},
				{
					"attributes":{
						"POSITION":83,
						"NORMAL":84,
						"TEXCOORD_0":85
					},
					"indices":47,
					"material":8
				}
			]
		},
		{
			"name":"Scene.046",
			"primitives":[
				{
					"attributes":{
						"POSITION":86,
						"NORMAL":87,
						"TEXCOORD_0":88
					},
					"indices":51,
					"material":9
				},
				{
					"attributes":{
						"POSITION":89,
						"NORMAL":90,
						"TEXCOORD_0":91
					},
					"indices":55,
					"material":8
				}
			]
		},
		{
			"name":"Scene.048",
			"primitives":[
				{
					"attributes":{
						"POSITION":92,
						"NORMAL":93,
						"TEXCOORD_0":94
					},
					"indices":95,
					"material":2
				},
				{
					"attributes":{
						"POSITION":96,
						"NORMAL":97,
						"TEXCOORD_0":98
					},
					"indices":99,
					"material":4
				},
				{
					"attributes":{
						"POSITION":100,
						"NORMAL":101,
						"TEXCOORD_0":102
					},
					"indices":103,
					"material":10
				},
				{
					"attributes":{
						"POSITION":104,
						"NORMAL":105,
						"TEXCOORD_0":106
					},
					"indices":107,
					"material":11
				},
				{
					"attributes":{
						"POSITION":108,
						"NORMAL":109,
						"TEXCOORD_0":110
					},
					"indices":111,
					"material":12
				},
				{
					"attributes":{
						"POSITION":112,
						"NORMAL":113,
						"TEXCOORD_0":114
					},
					"indices":115,
					"material":13
				},
				{
					"attributes":{
						"POSITION":116,
						"NORMAL":117,
						"TEXCOORD_0":118
					},
					"indices":119,
					"material":8
				},
				{
					"attributes":{
						"POSITION":120,
						"NORMAL":121,
						"TEXCOORD_0":122
					},
					"indices":123,
					"material":3
				},
				{
					"attributes":{
						"POSITION":124,
						"NORMAL":125,
						"TEXCOORD_0":126
					},
					"indices":127,
					"material":5
				},
				{
					"attributes":{
						"POSITION":128,
						"NORMAL":129,
						"TEXCOORD_0":130
					},
					"indices":131,
					"material":6
				}
			]
		},
		{
			"name":"Scene.047",
			"primitives":[
				{
					"attributes":{
						"POSITION":132,
						"NORMAL":133,
						"TEXCOORD_0":134
					},
					"indices":135,
					"material":5
				},
				{
					"attributes":{
						"POSITION":136,
						"NORMAL":137,
						"TEXCOORD_0":138
					},
					"indices":139,
					"material":7
				},
				{
					"attributes":{
						"POSITION":140,
						"NORMAL":141,
						"TEXCOORD_0":142
					},
					"indices":143,
					"material":12
				},
				{
					"attributes":{
						"POSITION":144,
						"NORMAL":145,
						"TEXCOORD_0":146
					},
					"indices":147,
					"material":14
				},
				{
					"attributes":{
						"POSITION":148,
						"NORMAL":149,
						"TEXCOORD_0":150
					},
					"indices":151,
					"material":4
				},
				{
					"attributes":{
						"POSITION":152,
						"NORMAL":153,
						"TEXCOORD_0":154
					},
					"indices":155,
					"material":3
				},
				{
					"attributes":{
						"POSITION":156,
						"NORMAL":157,
						"TEXCOORD_0":158
					},
					"indices":159,
					"material":2
				},
				{
					"attributes":{
						"POSITION":160,
						"NORMAL":161,
						"TEXCOORD_0":162
					},
					"indices":163,
					"material":8
				},
				{
					"attributes":{
						"POSITION":164,
						"NORMAL":165,
						"TEXCOORD_0":166
					},
					"indices":167,
					"material":6
				}
			]
		},
		{
			"name":"Scene.050",
			"primitives":[
				{
					"attributes":{
						"POSITION":168,
						"NORMAL":169,
						"TEXCOORD_0":170
					},
					"indices":95,
					"material":2
				},
				{
					"attributes":{
						"POSITION":171,
						"NORMAL":172,
						"TEXCOORD_0":173
					},
					"indices":99,
					"material":4
				},
				{
					"attributes":{
						"POSITION":174,
						"NORMAL":175,
						"TEXCOORD_0":176
					},
					"indices":103,
					"material":10
				},
				{
					"attributes":{
						"POSITION":177,
						"NORMAL":178,
						"TEXCOORD_0":179
					},
					"indices":107,
					"material":11
				},
				{
					"attributes":{
						"POSITION":180,
						"NORMAL":181,
						"TEXCOORD_0":182
					},
					"indices":111,
					"material":12
				},
				{
					"attributes":{
						"POSITION":183,
						"NORMAL":184,
						"TEXCOORD_0":185
					},
					"indices":115,
					"material":13
				},
				{
					"attributes":{
						"POSITION":186,
						"NORMAL":187,
						"TEXCOORD_0":188
					},
					"indices":119,
					"material":8
				},
				{
					"attributes":{
						"POSITION":189,
						"NORMAL":190,
						"TEXCOORD_0":191
					},
					"indices":123,
					"material":3
				},
				{
					"attributes":{
						"POSITION":192,
						"NORMAL":193,
						"TEXCOORD_0":194
					},
					"indices":127,
					"material":5
				},
				{
					"attributes":{
						"POSITION":195,
						"NORMAL":196,
						"TEXCOORD_0":197
					},
					"indices":131,
					"material":6
				}
			]
		},
		{
			"name":"Scene.049",
			"primitives":[
				{
					"attributes":{
						"POSITION":198,
						"NORMAL":199,
						"TEXCOORD_0":200
					},
					"indices":139,
					"material":7
				},
				{
					"attributes":{
						"POSITION":201,
						"NORMAL":202,
						"TEXCOORD_0":203
					},
					"indices":143,
					"material":12
				},
				{
					"attributes":{
						"POSITION":204,
						"NORMAL":205,
						"TEXCOORD_0":206
					},
					"indices":147,
					"material":14
				},
				{
					"attributes":{
						"POSITION":207,
						"NORMAL":208,
						"TEXCOORD_0":209
					},
					"indices":210,
					"material":5
				},
				{
					"attributes":{
						"POSITION":211,
						"NORMAL":212,
						"TEXCOORD_0":213
					},
					"indices":214,
					"material":4
				},
				{
					"attributes":{
						"POSITION":215,
						"NORMAL":216,
						"TEXCOORD_0":217
					},
					"indices":218,
					"material":3
				},
				{
					"attributes":{
						"POSITION":219,
						"NORMAL":220,
						"TEXCOORD_0":221
					},
					"indices":159,
					"material":2
				},
				{
					"attributes":{
						"POSITION":222,
						"NORMAL":223,
						"TEXCOORD_0":224
					},
					"indices":225,
					"material":8
				},
				{
					"attributes":{
						"POSITION":226,
						"NORMAL":227,
						"TEXCOORD_0":228
					},
					"indices":229,
					"material":6
				}
			]
		},
		{
			"name":"Scene.052",
			"primitives":[
				{
					"attributes":{
						"POSITION":230,
						"NORMAL":231,
						"TEXCOORD_0":232
					},
					"indices":233,
					"material":2
				},
				{
					"attributes":{
						"POSITION":234,
						"NORMAL":235,
						"TEXCOORD_0":236
					},
					"indices":237,
					"material":4
				},
				{
					"attributes":{
						"POSITION":238,
						"NORMAL":239,
						"TEXCOORD_0":240
					},
					"indices":241,
					"material":10
				},
				{
					"attributes":{
						"POSITION":242,
						"NORMAL":243,
						"TEXCOORD_0":244
					},
					"indices":245,
					"material":12
				},
				{
					"attributes":{
						"POSITION":246,
						"NORMAL":247,
						"TEXCOORD_0":248
					},
					"indices":249,
					"material":11
				},
				{
					"attributes":{
						"POSITION":250,
						"NORMAL":251,
						"TEXCOORD_0":252
					},
					"indices":123,
					"material":3
				},
				{
					"attributes":{
						"POSITION":253,
						"NORMAL":254,
						"TEXCOORD_0":255
					},
					"indices":256,
					"material":13
				},
				{
					"attributes":{
						"POSITION":257,
						"NORMAL":258,
						"TEXCOORD_0":259
					},
					"indices":260,
					"material":8
				}
			]
		},
		{
			"name":"Scene.051",
			"primitives":[
				{
					"attributes":{
						"POSITION":261,
						"NORMAL":262,
						"TEXCOORD_0":263
					},
					"indices":139,
					"material":7
				},
				{
					"attributes":{
						"POSITION":264,
						"NORMAL":265,
						"TEXCOORD_0":266
					},
					"indices":143,
					"material":12
				},
				{
					"attributes":{
						"POSITION":267,
						"NORMAL":268,
						"TEXCOORD_0":269
					},
					"indices":147,
					"material":14
				},
				{
					"attributes":{
						"POSITION":270,
						"NORMAL":271,
						"TEXCOORD_0":272
					},
					"indices":210,
					"material":5
				},
				{
					"attributes":{
						"POSITION":273,
						"NORMAL":274,
						"TEXCOORD_0":275
					},
					"indices":214,
					"material":4
				},
				{
					"attributes":{
						"POSITION":276,
						"NORMAL":277,
						"TEXCOORD_0":278
					},
					"indices":218,
					"material":3
				},
				{
					"attributes":{
						"POSITION":279,
						"NORMAL":280,
						"TEXCOORD_0":281
					},
					"indices":159,
					"material":2
				},
				{
					"attributes":{
						"POSITION":282,
						"NORMAL":283,
						"TEXCOORD_0":284
					},
					"indices":225,
					"material":8
				},
				{
					"attributes":{
						"POSITION":285,
						"NORMAL":286,
						"TEXCOORD_0":287
					},
					"indices":229,
					"material":6
				}
			]
		},
		{
			"name":"Scene.037",
			"primitives":[
				{
					"attributes":{
						"POSITION":288,
						"NORMAL":289,
						"TEXCOORD_0":290
					},
					"indices":291,
					"material":7
				},
				{
					"attributes":{
						"POSITION":292,
						"NORMAL":293,
						"TEXCOORD_0":294
					},
					"indices":295,
					"material":8
				}
			]
		}
	],
	"textures":[
		{
			"sampler":0,
			"source":0
		},
		{
			"sampler":0,
			"source":1
		},
		{
			"sampler":0,
			"source":2
		},
		{
			"sampler":0,
			"source":3
		},
		{
			"sampler":0,
			"source":3
		},
		{
			"sampler":0,
			"source":3
		},
		{
			"sampler":0,
			"source":4
		},
		{
			"sampler":0,
			"source":5
		},
		{
			"sampler":0,
			"source":6
		},
		{
			"sampler":0,
			"source":7
		},
		{
			"sampler":0,
			"source":8
		},
		{
			"sampler":0,
			"source":3
		},
		{
			"sampler":0,
			"source":9
		},
		{
			"sampler":0,
			"source":3
		}
	],
	"images":[
		{
			"mimeType":"image/png",
			"name":"DiffuseColor_Texture_1",
			"uri":"DiffuseColor_Texture_1.png"
		},
		{
			"mimeType":"image/png",
			"name":"DiffuseColor_Texture_2",
			"uri":"DiffuseColor_Texture_2.png"
		},
		{
			"mimeType":"image/png",
			"name":"DiffuseColor_Texture_3",
			"uri":"DiffuseColor_Texture_3.png"
		},
		{
			"mimeType":"image/png",
			"name":"DiffuseColor_Texture_4",
			"uri":"DiffuseColor_Texture_4.png"
		},
		{
			"mimeType":"image/png",
			"name":"DiffuseColor_Texture_5",
			"uri":"DiffuseColor_Texture_5.png"
		},
		{
			"mimeType":"image/png",
			"name":"DiffuseColor_Texture",
			"uri":"DiffuseColor_Texture.png"
		},
		{
			"mimeType":"image/png",
			"name":"DiffuseColor_Texture_6",
			"uri":"DiffuseColor_Texture_6.png"
		},
		{
			"mimeType":"image/png",
			"name":"DiffuseColor_Texture_7",
			"uri":"DiffuseColor_Texture_7.png"
		},
		{
			"mimeType":"image/png",
			"name":"DiffuseColor_Texture_8",
			"uri":"DiffuseColor_Texture_8.png"
		},
		{
			"mimeType":"image/png",
			"name":"DiffuseColor_Texture_9",
			"uri":"DiffuseColor_Texture_9.png"
		}
	],
	"accessors":[
		{
			"bufferView":0,
			"componentType":5126,
			"count":656,
			"max":[
				1036.52099609375,
				163.52928161621094,
				1037.05810546875
			],
			"min":[
				-1035.656494140625,
				-114.79313659667969,
				-1037.7120361328125
			],
			"type":"VEC3"
		},
		{
			"bufferView":1,
			"componentType":5126,
			"count":656,
			"type":"VEC3"
		},
		{
			"bufferView":2,
			"componentType":5126,
			"count":656,
			"type":"VEC2"
		},
		{
			"bufferView":3,
			"componentType":5123,
			"count":984,
			"type":"SCALAR"
		},
		{
			"bufferView":4,
			"componentType":5126,
			"count":20,
			"max":[
				879.9999389648438,
				0.02359151840209961,
				879.9999389648438
			],
			"min":[
				-879.9999389648438,
				-114.88528442382812,
				-879.9999389648438
			],
			"type":"VEC3"
		},
		{
			"bufferView":5,
			"componentType":5126,
			"count":20,
			"type":"VEC3"
		},
		{
			"bufferView":6,
			"componentType":5126,
			"count":20,
			"type":"VEC2"
		},
		{
			"bufferView":7,
			"componentType":5123,
			"count":30,
			"type":"SCALAR"
		},
		{
			"bufferView":8,
			"componentType":5126,
			"count":8,
			"max":[
				659.1468505859375,
				198.90313720703125,
				655.6446533203125
			],
			"min":[
				-663.6491088867188,
				185.60870361328125,
				-667.1512451171875
			],
			"type":"VEC3"
		},
		{
			"bufferView":9,
			"componentType":5126,
			"count":8,
			"type":"VEC3"
		},
		{
			"bufferView":10,
			"componentType":5126,
			"count":8,
			"type":"VEC2"
		},
		{
			"bufferView":11,
			"componentType":5123,
			"count":12,
			"type":"SCALAR"
		},
		{
			"bufferView":12,
			"componentType":5126,
			"count":16,
			"max":[
				659.1468505859375,
				198.90313720703125,
				655.6446533203125
			],
			"min":[
				-663.6491088867188,
				185.60870361328125,
				-667.1512451171875
			],
			"type":"VEC3"
		},
		{
			"bufferView":13,
			"componentType":5126,
			"count":16,
			"type":"VEC3"
		},
		{
			"bufferView":14,
			"componentType":5126,
			"count":16,
			"type":"VEC2"
		},
		{
			"bufferView":15,
			"componentType":5123,
			"count":24,
			"type":"SCALAR"
		},
		{
			"bufferView":16,
			"componentType":5126,
			"count":1144,
			"max":[
				643.2421875,
				241.31143188476562,
				640.3453369140625
			],
			"min":[
				-646.06884765625,
				149.84983825683594,
				-648.3868408203125
			],
			"type":"VEC3"
		},
		{
			"bufferView":17,
			"componentType":5126,
			"count":1144,
			"type":"VEC3"
		},
		{
			"bufferView":18,
			"componentType":5126,
			"count":1144,
			"type":"VEC2"
		},
		{
			"bufferView":19,
			"componentType":5123,
			"count":1716,
			"type":"SCALAR"
		},
		{
			"bufferView":20,
			"componentType":5126,
			"count":3440,
			"max":[
				804.2061767578125,
				286.1680603027344,
				800.5504760742188
			],
			"min":[
				-809.0958862304688,
				39.75858688354492,
				-812.7864990234375
			],
			"type":"VEC3"
		},
		{
			"bufferView":21,
			"componentType":5126,
			"count":3440,
			"type":"VEC3"
		},
		{
			"bufferView":22,
			"componentType":5126,
			"count":3440,
			"type":"VEC2"
		},
		{
			"bufferView":23,
			"componentType":5123,
			"count":5328,
			"type":"SCALAR"
		},
		{
			"bufferView":24,
			"componentType":5126,
			"count":408,
			"max":[
				640.072509765625,
				252.30679321289062,
				637.4520874023438
			],
			"min":[
				-642.9913330078125,
				242.1938934326172,
				-645.5658569335938
			],
			"type":"VEC3"
		},
		{
			"bufferView":25,
			"componentType":5126,
			"count":408,
			"type":"VEC3"
		},
		{
			"bufferView":26,
			"componentType":5126,
			"count":408,
			"type":"VEC2"
		},
		{
			"bufferView":27,
			"componentType":5123,
			"count":1728,
			"type":"SCALAR"
		},
		{
			"bufferView":28,
			"componentType":5126,
			"count":976,
			"max":[
				649.0128784179688,
				300.6135559082031,
				647.1307983398438
			],
			"min":[
				-652.6701049804688,
				39.71099853515625,
				-655.2446899414062
			],
			"type":"VEC3"
		},
		{
			"bufferView":29,
			"componentType":5126,
			"count":976,
			"type":"VEC3"
		},
		{
			"bufferView":30,
			"componentType":5126,
			"count":976,
			"type":"VEC2"
		},
		{
			"bufferView":31,
			"componentType":5123,
			"count":3528,
			"type":"SCALAR"
		},
		{
			"bufferView":32,
			"componentType":5126,
			"count":6348,
			"max":[
				646.2951049804688,
				376.6885070800781,
				644.495849609375
			],
			"min":[
				-650.0350952148438,
				300.2407531738281,
				-652.6096801757812
			],
			"type":"VEC3"
		},
		{
			"bufferView":33,
			"componentType":5126,
			"count":6348,
			"type":"VEC3"
		},
		{
			"bufferView":34,
			"componentType":5126,
			"count":6348,
			"type":"VEC2"
		},
		{
			"bufferView":35,
			"componentType":5123,
			"count":28872,
			"type":"SCALAR"
		},
		{
			"bufferView":36,
			"componentType":5126,
			"count":2880,
			"max":[
				645.49658203125,
				350.45281982421875,
				643.6973876953125
			],
			"min":[
				-649.2366333007812,
				303.9333801269531,
				-651.8112182617188
			],
			"type":"VEC3"
		},
		{
			"bufferView":37,
			"componentType":5126,
			"count":2880,
			"type":"VEC3"
		},
		{
			"bufferView":38,
			"componentType":5126,
			"count":2880,
			"type":"VEC2"
		},
		{
			"bufferView":39,
			"componentType":5123,
			"count":4320,
			"type":"SCALAR"
		},
		{
			"bufferView":40,
			"componentType":5126,
			"count":24,
			"max":[
				8.805620193481445,
				298.2643127441406,
				5
			],
			"min":[
				-107.19437408447266,
				0,
				-5
			],
			"type":"VEC3"
		},
		{
			"bufferView":41,
			"componentType":5126,
			"count":24,
			"type":"VEC3"
		},
		{
			"bufferView":42,
			"componentType":5126,
			"count":24,
			"type":"VEC2"
		},
		{
			"bufferView":43,
			"componentType":5123,
			"count":36,
			"type":"SCALAR"
		},
		{
			"bufferView":44,
			"componentType":5126,
			"count":12,
			"max":[
				6.947612762451172,
				295.0010681152344,
				-5.558709621429443
			],
			"min":[
				-101.89878845214844,
				1.9742012023925781,
				-5.558804988861084
			],
			"type":"VEC3"
		},
		{
			"bufferView":45,
			"componentType":5126,
			"count":12,
			"type":"VEC3"
		},
		{
			"bufferView":46,
			"componentType":5126,
			"count":12,
			"type":"VEC2"
		},
		{
			"bufferView":47,
			"componentType":5123,
			"count":12,
			"type":"SCALAR"
		},
		{
			"bufferView":48,
			"componentType":5126,
			"count":48,
			"max":[
				116.817626953125,
				298.2643127441406,
				5
			],
			"min":[
				-5.602777004241943,
				0,
				-7.908786773681641
			],
			"type":"VEC3"
		},
		{
			"bufferView":49,
			"componentType":5126,
			"count":48,
			"type":"VEC3"
		},
		{
			"bufferView":50,
			"componentType":5126,
			"count":48,
			"type":"VEC2"
		},
		{
			"bufferView":51,
			"componentType":5123,
			"count":72,
			"type":"SCALAR"
		},
		{
			"bufferView":52,
			"componentType":5126,
			"count":32,
			"max":[
				116.81768798828125,
				295.0010681152344,
				-5.558614253997803
			],
			"min":[
				-3.883761167526245,
				1.9742012023925781,
				-8.194724082946777
			],
			"type":"VEC3"
		},
		{
			"bufferView":53,
			"componentType":5126,
			"count":32,
			"type":"VEC3"
		},
		{
			"bufferView":54,
			"componentType":5126,
			"count":32,
			"type":"VEC2"
		},
		{
			"bufferView":55,
			"componentType":5123,
			"count":42,
			"type":"SCALAR"
		},
		{
			"bufferView":56,
			"componentType":5126,
			"count":24,
			"max":[
				8.805620193481445,
				298.2643127441406,
				5
			],
			"min":[
				-107.19437408447266,
				0,
				-5
			],
			"type":"VEC3"
		},
		{
			"bufferView":57,
			"componentType":5126,
			"count":24,
			"type":"VEC3"
		},
		{
			"bufferView":58,
			"componentType":5126,
			"count":24,
			"type":"VEC2"
		},
		{
			"bufferView":59,
			"componentType":5126,
			"count":12,
			"max":[
				6.947630882263184,
				295.0010681152344,
				-5.558805465698242
			],
			"min":[
				-101.8988037109375,
				1.9742012023925781,
				-5.558900833129883
			],
			"type":"VEC3"
		},
		{
			"bufferView":60,
			"componentType":5126,
			"count":12,
			"type":"VEC3"
		},
		{
			"bufferView":61,
			"componentType":5126,
			"count":12,
			"type":"VEC2"
		},
		{
			"bufferView":62,
			"componentType":5126,
			"count":48,
			"max":[
				116.817626953125,
				298.2643127441406,
				5
			],
			"min":[
				-5.602777004241943,
				0,
				-7.908786773681641
			],
			"type":"VEC3"
		},
		{
			"bufferView":63,
			"componentType":5126,
			"count":48,
			"type":"VEC3"
		},
		{
			"bufferView":64,
			"componentType":5126,
			"count":48,
			"type":"VEC2"
		},
		{
			"bufferView":65,
			"componentType":5126,
			"count":32,
			"max":[
				116.81768798828125,
				295.0010681152344,
				-5.558614730834961
			],
			"min":[
				-3.8837730884552,
				1.9742012023925781,
				-8.194769859313965
			],
			"type":"VEC3"
		},
		{
			"bufferView":66,
			"componentType":5126,
			"count":32,
			"type":"VEC3"
		},
		{
			"bufferView":67,
			"componentType":5126,
			"count":32,
			"type":"VEC2"
		},
		{
			"bufferView":68,
			"componentType":5126,
			"count":24,
			"max":[
				8.805620193481445,
				298.2643127441406,
				5
			],
			"min":[
				-107.19437408447266,
				0,
				-5
			],
			"type":"VEC3"
		},
		{
			"bufferView":69,
			"componentType":5126,
			"count":24,
			"type":"VEC3"
		},
		{
			"bufferView":70,
			"componentType":5126,
			"count":24,
			"type":"VEC2"
		},
		{
			"bufferView":71,
			"componentType":5126,
			"count":12,
			"max":[
				6.947630882263184,
				295.0010681152344,
				-5.558757781982422
			],
			"min":[
				-101.89881134033203,
				1.9742012023925781,
				-5.558805465698242
			],
			"type":"VEC3"
		},
		{
			"bufferView":72,
			"componentType":5126,
			"count":12,
			"type":"VEC3"
		},
		{
			"bufferView":73,
			"componentType":5126,
			"count":12,
			"type":"VEC2"
		},
		{
			"bufferView":74,
			"componentType":5126,
			"count":48,
			"max":[
				116.817626953125,
				298.2643127441406,
				5
			],
			"min":[
				-5.602777004241943,
				0,
				-7.908786773681641
			],
			"type":"VEC3"
		},
		{
			"bufferView":75,
			"componentType":5126,
			"count":48,
			"type":"VEC3"
		},
		{
			"bufferView":76,
			"componentType":5126,
			"count":48,
			"type":"VEC2"
		},
		{
			"bufferView":77,
			"componentType":5126,
			"count":32,
			"max":[
				116.81766510009766,
				295.0010681152344,
				-5.558710098266602
			],
			"min":[
				-3.8837730884552,
				1.9742012023925781,
				-8.194865226745605
			],
			"type":"VEC3"
		},
		{
			"bufferView":78,
			"componentType":5126,
			"count":32,
			"type":"VEC3"
		},
		{
			"bufferView":79,
			"componentType":5126,
			"count":32,
			"type":"VEC2"
		},
		{
			"bufferView":80,
			"componentType":5126,
			"count":24,
			"max":[
				8.805620193481445,
				298.2643127441406,
				5
			],
			"min":[
				-107.19437408447266,
				0,
				-5
			],
			"type":"VEC3"
		},
		{
			"bufferView":81,
			"componentType":5126,
			"count":24,
			"type":"VEC3"
		},
		{
			"bufferView":82,
			"componentType":5126,
			"count":24,
			"type":"VEC2"
		},
		{
			"bufferView":83,
			"componentType":5126,
			"count":12,
			"max":[
				6.947612762451172,
				295.0010681152344,
				-5.558757305145264
			],
			"min":[
				-101.89878845214844,
				1.9742012023925781,
				-5.558804988861084
			],
			"type":"VEC3"
		},
		{
			"bufferView":84,
			"componentType":5126,
			"count":12,
			"type":"VEC3"
		},
		{
			"bufferView":85,
			"componentType":5126,
			"count":12,
			"type":"VEC2"
		},
		{
			"bufferView":86,
			"componentType":5126,
			"count":48,
			"max":[
				116.817626953125,
				298.2643127441406,
				5
			],
			"min":[
				-5.602777004241943,
				0,
				-7.908786773681641
			],
			"type":"VEC3"
		},
		{
			"bufferView":87,
			"componentType":5126,
			"count":48,
			"type":"VEC3"
		},
		{
			"bufferView":88,
			"componentType":5126,
			"count":48,
			"type":"VEC2"
		},
		{
			"bufferView":89,
			"componentType":5126,
			"count":32,
			"max":[
				116.81766510009766,
				295.0010681152344,
				-5.558757305145264
			],
			"min":[
				-3.883761167526245,
				1.9742012023925781,
				-8.194867134094238
			],
			"type":"VEC3"
		},
		{
			"bufferView":90,
			"componentType":5126,
			"count":32,
			"type":"VEC3"
		},
		{
			"bufferView":91,
			"componentType":5126,
			"count":32,
			"type":"VEC2"
		},
		{
			"bufferView":92,
			"componentType":5126,
			"count":116,
			"max":[
				1348.64208984375,
				64.34825897216797,
				1351.501220703125
			],
			"min":[
				-1349.0130615234375,
				-309.8014221191406,
				-1351.501220703125
			],
			"type":"VEC3"
		},
		{
			"bufferView":93,
			"componentType":5126,
			"count":116,
			"type":"VEC3"
		},
		{
			"bufferView":94,
			"componentType":5126,
			"count":116,
			"type":"VEC2"
		},
		{
			"bufferView":95,
			"componentType":5123,
			"count":192,
			"type":"SCALAR"
		},
		{
			"bufferView":96,
			"componentType":5126,
			"count":29054,
			"max":[
				1338.669677734375,
				115.99657440185547,
				1339.5697021484375
			],
			"min":[
				-1336.9927978515625,
				-385.25506591796875,
				-1335.925048828125
			],
			"type":"VEC3"
		},
		{
			"bufferView":97,
			"componentType":5126,
			"count":29054,
			"type":"VEC3"
		},
		{
			"bufferView":98,
			"componentType":5126,
			"count":29054,
			"type":"VEC2"
		},
		{
			"bufferView":99,
			"componentType":5123,
			"count":43350,
			"type":"SCALAR"
		},
		{
			"bufferView":100,
			"componentType":5126,
			"count":7295,
			"max":[
				1371.953125,
				-27.70124626159668,
				1373.042724609375
			],
			"min":[
				-1370.3253173828125,
				-290.6141357421875,
				-1369.2740478515625
			],
			"type":"VEC3"
		},
		{
			"bufferView":101,
			"componentType":5126,
			"count":7295,
			"type":"VEC3"
		},
		{
			"bufferView":102,
			"componentType":5126,
			"count":7295,
			"type":"VEC2"
		},
		{
			"bufferView":103,
			"componentType":5123,
			"count":25128,
			"type":"SCALAR"
		},
		{
			"bufferView":104,
			"componentType":5126,
			"count":63,
			"max":[
				1348.64208984375,
				-21.539365768432617,
				1351.501220703125
			],
			"min":[
				-1349.0130615234375,
				-278.4217224121094,
				-1351.501220703125
			],
			"type":"VEC3"
		},
		{
			"bufferView":105,
			"componentType":5126,
			"count":63,
			"type":"VEC3"
		},
		{
			"bufferView":106,
			"componentType":5126,
			"count":63,
			"type":"VEC2"
		},
		{
			"bufferView":107,
			"componentType":5123,
			"count":108,
			"type":"SCALAR"
		},
		{
			"bufferView":108,
			"componentType":5126,
			"count":88,
			"max":[
				1323.03759765625,
				21.311418533325195,
				1325.845947265625
			],
			"min":[
				-1323.4085693359375,
				-363.6452941894531,
				-1325.845947265625
			],
			"type":"VEC3"
		},
		{
			"bufferView":109,
			"componentType":5126,
			"count":88,
			"type":"VEC3"
		},
		{
			"bufferView":110,
			"componentType":5126,
			"count":88,
			"type":"VEC2"
		},
		{
			"bufferView":111,
			"componentType":5123,
			"count":138,
			"type":"SCALAR"
		},
		{
			"bufferView":112,
			"componentType":5126,
			"count":10399,
			"max":[
				1371.953125,
				-96.53095245361328,
				1373.042724609375
			],
			"min":[
				-1370.3253173828125,
				-310.1518859863281,
				-1369.2740478515625
			],
			"type":"VEC3"
		},
		{
			"bufferView":113,
			"componentType":5126,
			"count":10399,
			"type":"VEC3"
		},
		{
			"bufferView":114,
			"componentType":5126,
			"count":10399,
			"type":"VEC2"
		},
		{
			"bufferView":115,
			"componentType":5123,
			"count":23136,
			"type":"SCALAR"
		},
		{
			"bufferView":116,
			"componentType":5126,
			"count":4360,
			"max":[
				1372.651611328125,
				-41.95562744140625,
				1373.741455078125
			],
			"min":[
				-1371.0238037109375,
				-298.7279968261719,
				-1369.972412109375
			],
			"type":"VEC3"
		},
		{
			"bufferView":117,
			"componentType":5126,
			"count":4360,
			"type":"VEC3"
		},
		{
			"bufferView":118,
			"componentType":5126,
			"count":4360,
			"type":"VEC2"
		},
		{
			"bufferView":119,
			"componentType":5123,
			"count":10704,
			"type":"SCALAR"
		},
		{
			"bufferView":120,
			"componentType":5126,
			"count":1888,
			"max":[
				1338.669677734375,
				-304.4678649902344,
				1339.5697021484375
			],
			"min":[
				-1336.9927978515625,
				-385.25506591796875,
				-1335.925048828125
			],
			"type":"VEC3"
		},
		{
			"bufferView":121,
			"componentType":5126,
			"count":1888,
			"type":"VEC3"
		},
		{
			"bufferView":122,
			"componentType":5126,
			"count":1888,
			"type":"VEC2"
		},
		{
			"bufferView":123,
			"componentType":5123,
			"count":2832,
			"type":"SCALAR"
		},
		{
			"bufferView":124,
			"componentType":5126,
			"count":6416,
			"max":[
				877.2047729492188,
				173.0551300048828,
				878.468017578125
			],
			"min":[
				-875.3114624023438,
				-49.04314422607422,
				-874.09228515625
			],
			"type":"VEC3"
		},
		{
			"bufferView":125,
			"componentType":5126,
			"count":6416,
			"type":"VEC3"
		},
		{
			"bufferView":126,
			"componentType":5126,
			"count":6416,
			"type":"VEC2"
		},
		{
			"bufferView":127,
			"componentType":5123,
			"count":10704,
			"type":"SCALAR"
		},
		{
			"bufferView":128,
			"componentType":5126,
			"count":544,
			"max":[
				839.80419921875,
				129.38763427734375,
				840.82080078125
			],
			"min":[
				-837.8531494140625,
				117.07130432128906,
				-836.6158447265625
			],
			"type":"VEC3"
		},
		{
			"bufferView":129,
			"componentType":5126,
			"count":544,
			"type":"VEC3"
		},
		{
			"bufferView":130,
			"componentType":5126,
			"count":544,
			"type":"VEC2"
		},
		{
			"bufferView":131,
			"componentType":5123,
			"count":2304,
			"type":"SCALAR"
		},
		{
			"bufferView":132,
			"componentType":5126,
			"count":17105,
			"max":[
				1157.3880615234375,
				1666.5452880859375,
				1611.11474609375
			],
			"min":[
				-24.97410011291504,
				-274.05963134765625,
				-329.2907409667969
			],
			"type":"VEC3"
		},
		{
			"bufferView":133,
			"componentType":5126,
			"count":17105,
			"type":"VEC3"
		},
		{
			"bufferView":134,
			"componentType":5126,
			"count":17105,
			"type":"VEC2"
		},
		{
			"bufferView":135,
			"componentType":5123,
			"count":26136,
			"type":"SCALAR"
		},
		{
			"bufferView":136,
			"componentType":5126,
			"count":2180,
			"max":[
				1064.9716796875,
				2028.950927734375,
				1973.5206298828125
			],
			"min":[
				910.4107055664062,
				-636.4652709960938,
				-691.6965942382812
			],
			"type":"VEC3"
		},
		{
			"bufferView":137,
			"componentType":5126,
			"count":2180,
			"type":"VEC3"
		},
		{
			"bufferView":138,
			"componentType":5126,
			"count":2180,
			"type":"VEC2"
		},
		{
			"bufferView":139,
			"componentType":5123,
			"count":8976,
			"type":"SCALAR"
		},
		{
			"bufferView":140,
			"componentType":5126,
			"count":576,
			"max":[
				1334.442138671875,
				1340.6744384765625,
				1285.2440185546875
			],
			"min":[
				46.01470947265625,
				51.81141662597656,
				-3.4198880195617676
			],
			"type":"VEC3"
		},
		{
			"bufferView":141,
			"componentType":5126,
			"count":576,
			"type":"VEC3"
		},
		{
			"bufferView":142,
			"componentType":5126,
			"count":576,
			"type":"VEC2"
		},
		{
			"bufferView":143,
			"componentType":5123,
			"count":864,
			"type":"SCALAR"
		},
		{
			"bufferView":144,
			"componentType":5126,
			"count":1376,
			"max":[
				758.2742309570312,
				1390.179931640625,
				1334.776123046875
			],
			"min":[
				259.2726135253906,
				2.279690742492676,
				-53.03199768066406
			],
			"type":"VEC3"
		},
		{
			"bufferView":145,
			"componentType":5126,
			"count":1376,
			"type":"VEC3"
		},
		{
			"bufferView":146,
			"componentType":5126,
			"count":1376,
			"type":"VEC2"
		},
		{
			"bufferView":147,
			"componentType":5123,
			"count":2064,
			"type":"SCALAR"
		},
		{
			"bufferView":148,
			"componentType":5126,
			"count":2884,
			"max":[
				1283.952392578125,
				2113.156982421875,
				2057.726806640625
			],
			"min":[
				52.62034606933594,
				-720.671630859375,
				-775.9029541015625
			],
			"type":"VEC3"
		},
		{
			"bufferView":149,
			"componentType":5126,
			"count":2884,
			"type":"VEC3"
		},
		{
			"bufferView":150,
			"componentType":5126,
			"count":2884,
			"type":"VEC2"
		},
		{
			"bufferView":151,
			"componentType":5123,
			"count":5040,
			"type":"SCALAR"
		},
		{
			"bufferView":152,
			"componentType":5126,
			"count":360,
			"max":[
				1027.8231201171875,
				1756.930908203125,
				1701.500732421875
			],
			"min":[
				52.62034606933594,
				-364.4453125,
				-419.6766357421875
			],
			"type":"VEC3"
		},
		{
			"bufferView":153,
			"componentType":5126,
			"count":360,
			"type":"VEC3"
		},
		{
			"bufferView":154,
			"componentType":5126,
			"count":360,
			"type":"VEC2"
		},
		{
			"bufferView":155,
			"componentType":5123,
			"count":576,
			"type":"SCALAR"
		},
		{
			"bufferView":156,
			"componentType":5126,
			"count":324,
			"max":[
				1253.000732421875,
				1826.82666015625,
				1771.4647216796875
			],
			"min":[
				1108.980224609375,
				-434.3929748535156,
				-489.7951965332031
			],
			"type":"VEC3"
		},
		{
			"bufferView":157,
			"componentType":5126,
			"count":324,
			"type":"VEC3"
		},
		{
			"bufferView":158,
			"componentType":5126,
			"count":324,
			"type":"VEC2"
		},
		{
			"bufferView":159,
			"componentType":5123,
			"count":576,
			"type":"SCALAR"
		},
		{
			"bufferView":160,
			"componentType":5126,
			"count":1323,
			"max":[
				758.5653076171875,
				1405.4947509765625,
				1349.9852294921875
			],
			"min":[
				-25.470706939697266,
				-13.047578811645508,
				-68.15979766845703
			],
			"type":"VEC3"
		},
		{
			"bufferView":161,
			"componentType":5126,
			"count":1323,
			"type":"VEC3"
		},
		{
			"bufferView":162,
			"componentType":5126,
			"count":1323,
			"type":"VEC2"
		},
		{
			"bufferView":163,
			"componentType":5123,
			"count":2694,
			"type":"SCALAR"
		},
		{
			"bufferView":164,
			"componentType":5126,
			"count":972,
			"max":[
				1094.758544921875,
				2012.8193359375,
				1957.388916015625
			],
			"min":[
				-19.709604263305664,
				-620.333740234375,
				-675.5650634765625
			],
			"type":"VEC3"
		},
		{
			"bufferView":165,
			"componentType":5126,
			"count":972,
			"type":"VEC3"
		},
		{
			"bufferView":166,
			"componentType":5126,
			"count":972,
			"type":"VEC2"
		},
		{
			"bufferView":167,
			"componentType":5123,
			"count":4128,
			"type":"SCALAR"
		},
		{
			"bufferView":168,
			"componentType":5126,
			"count":116,
			"max":[
				1348.64208984375,
				64.3478775024414,
				1351.501220703125
			],
			"min":[
				-1349.0130615234375,
				-309.8014221191406,
				-1351.501220703125
			],
			"type":"VEC3"
		},
		{
			"bufferView":169,
			"componentType":5126,
			"count":116,
			"type":"VEC3"
		},
		{
			"bufferView":170,
			"componentType":5126,
			"count":116,
			"type":"VEC2"
		},
		{
			"bufferView":171,
			"componentType":5126,
			"count":29054,
			"max":[
				1338.669677734375,
				115.9961929321289,
				1339.5697021484375
			],
			"min":[
				-1336.9927978515625,
				-385.25506591796875,
				-1335.925048828125
			],
			"type":"VEC3"
		},
		{
			"bufferView":172,
			"componentType":5126,
			"count":29054,
			"type":"VEC3"
		},
		{
			"bufferView":173,
			"componentType":5126,
			"count":29054,
			"type":"VEC2"
		},
		{
			"bufferView":174,
			"componentType":5126,
			"count":7295,
			"max":[
				1371.953125,
				-27.70124626159668,
				1373.042724609375
			],
			"min":[
				-1370.3253173828125,
				-290.6141357421875,
				-1369.2740478515625
			],
			"type":"VEC3"
		},
		{
			"bufferView":175,
			"componentType":5126,
			"count":7295,
			"type":"VEC3"
		},
		{
			"bufferView":176,
			"componentType":5126,
			"count":7295,
			"type":"VEC2"
		},
		{
			"bufferView":177,
			"componentType":5126,
			"count":63,
			"max":[
				1348.64208984375,
				-21.539365768432617,
				1351.501220703125
			],
			"min":[
				-1349.0130615234375,
				-278.4217224121094,
				-1351.501220703125
			],
			"type":"VEC3"
		},
		{
			"bufferView":178,
			"componentType":5126,
			"count":63,
			"type":"VEC3"
		},
		{
			"bufferView":179,
			"componentType":5126,
			"count":63,
			"type":"VEC2"
		},
		{
			"bufferView":180,
			"componentType":5126,
			"count":88,
			"max":[
				1323.03759765625,
				21.311037063598633,
				1325.845947265625
			],
			"min":[
				-1323.4085693359375,
				-363.6452941894531,
				-1325.845947265625
			],
			"type":"VEC3"
		},
		{
			"bufferView":181,
			"componentType":5126,
			"count":88,
			"type":"VEC3"
		},
		{
			"bufferView":182,
			"componentType":5126,
			"count":88,
			"type":"VEC2"
		},
		{
			"bufferView":183,
			"componentType":5126,
			"count":10399,
			"max":[
				1371.953125,
				-96.53095245361328,
				1373.042724609375
			],
			"min":[
				-1370.3253173828125,
				-310.1518859863281,
				-1369.2740478515625
			],
			"type":"VEC3"
		},
		{
			"bufferView":184,
			"componentType":5126,
			"count":10399,
			"type":"VEC3"
		},
		{
			"bufferView":185,
			"componentType":5126,
			"count":10399,
			"type":"VEC2"
		},
		{
			"bufferView":186,
			"componentType":5126,
			"count":4360,
			"max":[
				1372.651611328125,
				-41.95562744140625,
				1373.741455078125
			],
			"min":[
				-1371.0238037109375,
				-298.7279968261719,
				-1369.972412109375
			],
			"type":"VEC3"
		},
		{
			"bufferView":187,
			"componentType":5126,
			"count":4360,
			"type":"VEC3"
		},
		{
			"bufferView":188,
			"componentType":5126,
			"count":4360,
			"type":"VEC2"
		},
		{
			"bufferView":189,
			"componentType":5126,
			"count":1888,
			"max":[
				1338.669677734375,
				-304.4678649902344,
				1339.5697021484375
			],
			"min":[
				-1336.9927978515625,
				-385.25506591796875,
				-1335.925048828125
			],
			"type":"VEC3"
		},
		{
			"bufferView":190,
			"componentType":5126,
			"count":1888,
			"type":"VEC3"
		},
		{
			"bufferView":191,
			"componentType":5126,
			"count":1888,
			"type":"VEC2"
		},
		{
			"bufferView":192,
			"componentType":5126,
			"count":6416,
			"max":[
				877.2047729492188,
				173.05474853515625,
				878.468017578125
			],
			"min":[
				-875.3114624023438,
				-49.04352569580078,
				-874.09228515625
			],
			"type":"VEC3"
		},
		{
			"bufferView":193,
			"componentType":5126,
			"count":6416,
			"type":"VEC3"
		},
		{
			"bufferView":194,
			"componentType":5126,
			"count":6416,
			"type":"VEC2"
		},
		{
			"bufferView":195,
			"componentType":5126,
			"count":544,
			"max":[
				839.80419921875,
				129.3872528076172,
				840.82080078125
			],
			"min":[
				-837.8531494140625,
				117.0709228515625,
				-836.6158447265625
			],
			"type":"VEC3"
		},
		{
			"bufferView":196,
			"componentType":5126,
			"count":544,
			"type":"VEC3"
		},
		{
			"bufferView":197,
			"componentType":5126,
			"count":544,
			"type":"VEC2"
		},
		{
			"bufferView":198,
			"componentType":5126,
			"count":2180,
			"max":[
				1064.9716796875,
				2028.950927734375,
				1973.5206298828125
			],
			"min":[
				910.4107055664062,
				-636.4652709960938,
				-691.6965942382812
			],
			"type":"VEC3"
		},
		{
			"bufferView":199,
			"componentType":5126,
			"count":2180,
			"type":"VEC3"
		},
		{
			"bufferView":200,
			"componentType":5126,
			"count":2180,
			"type":"VEC2"
		},
		{
			"bufferView":201,
			"componentType":5126,
			"count":576,
			"max":[
				1334.442138671875,
				1340.6744384765625,
				1285.2440185546875
			],
			"min":[
				46.01470947265625,
				51.81141662597656,
				-3.4198880195617676
			],
			"type":"VEC3"
		},
		{
			"bufferView":202,
			"componentType":5126,
			"count":576,
			"type":"VEC3"
		},
		{
			"bufferView":203,
			"componentType":5126,
			"count":576,
			"type":"VEC2"
		},
		{
			"bufferView":204,
			"componentType":5126,
			"count":1376,
			"max":[
				758.2742309570312,
				1390.179931640625,
				1334.776123046875
			],
			"min":[
				259.2726135253906,
				2.279690742492676,
				-53.03199768066406
			],
			"type":"VEC3"
		},
		{
			"bufferView":205,
			"componentType":5126,
			"count":1376,
			"type":"VEC3"
		},
		{
			"bufferView":206,
			"componentType":5126,
			"count":1376,
			"type":"VEC2"
		},
		{
			"bufferView":207,
			"componentType":5126,
			"count":17006,
			"max":[
				1157.3880615234375,
				1666.5452880859375,
				1611.11474609375
			],
			"min":[
				52.62034606933594,
				-274.05963134765625,
				-329.2907409667969
			],
			"type":"VEC3"
		},
		{
			"bufferView":208,
			"componentType":5126,
			"count":17006,
			"type":"VEC3"
		},
		{
			"bufferView":209,
			"componentType":5126,
			"count":17006,
			"type":"VEC2"
		},
		{
			"bufferView":210,
			"componentType":5123,
			"count":26109,
			"type":"SCALAR"
		},
		{
			"bufferView":211,
			"componentType":5126,
			"count":3172,
			"max":[
				1283.952392578125,
				2113.156982421875,
				2057.726806640625
			],
			"min":[
				52.62034606933594,
				-720.671630859375,
				-775.9029541015625
			],
			"type":"VEC3"
		},
		{
			"bufferView":212,
			"componentType":5126,
			"count":3172,
			"type":"VEC3"
		},
		{
			"bufferView":213,
			"componentType":5126,
			"count":3172,
			"type":"VEC2"
		},
		{
			"bufferView":214,
			"componentType":5123,
			"count":5472,
			"type":"SCALAR"
		},
		{
			"bufferView":215,
			"componentType":5126,
			"count":288,
			"max":[
				1027.8231201171875,
				1756.930908203125,
				1701.500732421875
			],
			"min":[
				809.6233520507812,
				-364.4453125,
				-419.6766357421875
			],
			"type":"VEC3"
		},
		{
			"bufferView":216,
			"componentType":5126,
			"count":288,
			"type":"VEC3"
		},
		{
			"bufferView":217,
			"componentType":5126,
			"count":288,
			"type":"VEC2"
		},
		{
			"bufferView":218,
			"componentType":5123,
			"count":432,
			"type":"SCALAR"
		},
		{
			"bufferView":219,
			"componentType":5126,
			"count":324,
			"max":[
				1253.000732421875,
				1826.82666015625,
				1771.4647216796875
			],
			"min":[
				1108.980224609375,
				-434.3929748535156,
				-489.7951965332031
			],
			"type":"VEC3"
		},
		{
			"bufferView":220,
			"componentType":5126,
			"count":324,
			"type":"VEC3"
		},
		{
			"bufferView":221,
			"componentType":5126,
			"count":324,
			"type":"VEC2"
		},
		{
			"bufferView":222,
			"componentType":5126,
			"count":1259,
			"max":[
				758.5653076171875,
				1395.6771240234375,
				1340.1900634765625
			],
			"min":[
				249.96640014648438,
				-2.9928159713745117,
				-59.92951202392578
			],
			"type":"VEC3"
		},
		{
			"bufferView":223,
			"componentType":5126,
			"count":1259,
			"type":"VEC3"
		},
		{
			"bufferView":224,
			"componentType":5126,
			"count":1259,
			"type":"VEC2"
		},
		{
			"bufferView":225,
			"componentType":5123,
			"count":2598,
			"type":"SCALAR"
		},
		{
			"bufferView":226,
			"componentType":5126,
			"count":428,
			"max":[
				1094.758544921875,
				2012.8193359375,
				1957.388916015625
			],
			"min":[
				1055.8594970703125,
				-620.333740234375,
				-675.5650634765625
			],
			"type":"VEC3"
		},
		{
			"bufferView":227,
			"componentType":5126,
			"count":428,
			"type":"VEC3"
		},
		{
			"bufferView":228,
			"componentType":5126,
			"count":428,
			"type":"VEC2"
		},
		{
			"bufferView":229,
			"componentType":5123,
			"count":1824,
			"type":"SCALAR"
		},
		{
			"bufferView":230,
			"componentType":5126,
			"count":75,
			"max":[
				4895.353515625,
				179.64822387695312,
				4905.7373046875
			],
			"min":[
				-4896.7001953125,
				-687.1104125976562,
				-4905.7373046875
			],
			"type":"VEC3"
		},
		{
			"bufferView":231,
			"componentType":5126,
			"count":75,
			"type":"VEC3"
		},
		{
			"bufferView":232,
			"componentType":5126,
			"count":75,
			"type":"VEC2"
		},
		{
			"bufferView":233,
			"componentType":5123,
			"count":150,
			"type":"SCALAR"
		},
		{
			"bufferView":234,
			"componentType":5126,
			"count":27601,
			"max":[
				4857.31640625,
				247.71978759765625,
				4856.7998046875
			],
			"min":[
				-4856.07421875,
				-762.0551147460938,
				-4856.32568359375
			],
			"type":"VEC3"
		},
		{
			"bufferView":235,
			"componentType":5126,
			"count":27601,
			"type":"VEC3"
		},
		{
			"bufferView":236,
			"componentType":5126,
			"count":27601,
			"type":"VEC2"
		},
		{
			"bufferView":237,
			"componentType":5123,
			"count":41370,
			"type":"SCALAR"
		},
		{
			"bufferView":238,
			"componentType":5126,
			"count":7997,
			"max":[
				4980.5693359375,
				220.36585998535156,
				4980.0537109375
			],
			"min":[
				-4979.32861328125,
				-676.0748291015625,
				-4979.57958984375
			],
			"type":"VEC3"
		},
		{
			"bufferView":239,
			"componentType":5126,
			"count":7997,
			"type":"VEC3"
		},
		{
			"bufferView":240,
			"componentType":5126,
			"count":7997,
			"type":"VEC2"
		},
		{
			"bufferView":241,
			"componentType":5123,
			"count":25488,
			"type":"SCALAR"
		},
		{
			"bufferView":242,
			"componentType":5126,
			"count":48,
			"max":[
				4802.4140625,
				-536.1688842773438,
				4812.6123046875
			],
			"min":[
				-4803.7607421875,
				-740.7725219726562,
				-4812.6123046875
			],
			"type":"VEC3"
		},
		{
			"bufferView":243,
			"componentType":5126,
			"count":48,
			"type":"VEC3"
		},
		{
			"bufferView":244,
			"componentType":5126,
			"count":48,
			"type":"VEC2"
		},
		{
			"bufferView":245,
			"componentType":5123,
			"count":114,
			"type":"SCALAR"
		},
		{
			"bufferView":246,
			"componentType":5126,
			"count":55,
			"max":[
				4895.353515625,
				179.75759887695312,
				4905.7373046875
			],
			"min":[
				-4896.7001953125,
				-655.9522094726562,
				-4905.7373046875
			],
			"type":"VEC3"
		},
		{
			"bufferView":247,
			"componentType":5126,
			"count":55,
			"type":"VEC3"
		},
		{
			"bufferView":248,
			"componentType":5126,
			"count":55,
			"type":"VEC2"
		},
		{
			"bufferView":249,
			"componentType":5123,
			"count":108,
			"type":"SCALAR"
		},
		{
			"bufferView":250,
			"componentType":5126,
			"count":1888,
			"max":[
				4857.31640625,
				-681.5400390625,
				4856.7998046875
			],
			"min":[
				-4856.07421875,
				-762.0551147460938,
				-4856.32568359375
			],
			"type":"VEC3"
		},
		{
			"bufferView":251,
			"componentType":5126,
			"count":1888,
			"type":"VEC3"
		},
		{
			"bufferView":252,
			"componentType":5126,
			"count":1888,
			"type":"VEC2"
		},
		{
			"bufferView":253,
			"componentType":5126,
			"count":10353,
			"max":[
				4980.5693359375,
				41.39547348022461,
				4980.0537109375
			],
			"min":[
				-4979.32861328125,
				-687.4608764648438,
				-4979.57958984375
			],
			"type":"VEC3"
		},
		{
			"bufferView":254,
			"componentType":5126,
			"count":10353,
			"type":"VEC3"
		},
		{
			"bufferView":255,
			"componentType":5126,
			"count":10353,
			"type":"VEC2"
		},
		{
			"bufferView":256,
			"componentType":5123,
			"count":22800,
			"type":"SCALAR"
		},
		{
			"bufferView":257,
			"componentType":5126,
			"count":11379,
			"max":[
				4981.11669921875,
				206.1741180419922,
				4980.60009765625
			],
			"min":[
				-4979.875,
				-676.2041015625,
				-4980.1259765625
			],
			"type":"VEC3"
		},
		{
			"bufferView":258,
			"componentType":5126,
			"count":11379,
			"type":"VEC3"
		},
		{
			"bufferView":259,
			"componentType":5126,
			"count":11379,
			"type":"VEC2"
		},
		{
			"bufferView":260,
			"componentType":5123,
			"count":25518,
			"type":"SCALAR"
		},
		{
			"bufferView":261,
			"componentType":5126,
			"count":2180,
			"max":[
				1064.9716796875,
				2028.950927734375,
				1973.5206298828125
			],
			"min":[
				910.4107055664062,
				-636.4652709960938,
				-691.6965942382812
			],
			"type":"VEC3"
		},
		{
			"bufferView":262,
			"componentType":5126,
			"count":2180,
			"type":"VEC3"
		},
		{
			"bufferView":263,
			"componentType":5126,
			"count":2180,
			"type":"VEC2"
		},
		{
			"bufferView":264,
			"componentType":5126,
			"count":576,
			"max":[
				1334.442138671875,
				1340.6744384765625,
				1285.2440185546875
			],
			"min":[
				46.01470947265625,
				51.81141662597656,
				-3.4198880195617676
			],
			"type":"VEC3"
		},
		{
			"bufferView":265,
			"componentType":5126,
			"count":576,
			"type":"VEC3"
		},
		{
			"bufferView":266,
			"componentType":5126,
			"count":576,
			"type":"VEC2"
		},
		{
			"bufferView":267,
			"componentType":5126,
			"count":1376,
			"max":[
				758.2742309570312,
				1390.179931640625,
				1334.776123046875
			],
			"min":[
				259.2726135253906,
				2.279690742492676,
				-53.03199768066406
			],
			"type":"VEC3"
		},
		{
			"bufferView":268,
			"componentType":5126,
			"count":1376,
			"type":"VEC3"
		},
		{
			"bufferView":269,
			"componentType":5126,
			"count":1376,
			"type":"VEC2"
		},
		{
			"bufferView":270,
			"componentType":5126,
			"count":17006,
			"max":[
				1157.3880615234375,
				1666.5452880859375,
				1611.11474609375
			],
			"min":[
				52.62034606933594,
				-274.05963134765625,
				-329.2907409667969
			],
			"type":"VEC3"
		},
		{
			"bufferView":271,
			"componentType":5126,
			"count":17006,
			"type":"VEC3"
		},
		{
			"bufferView":272,
			"componentType":5126,
			"count":17006,
			"type":"VEC2"
		},
		{
			"bufferView":273,
			"componentType":5126,
			"count":3172,
			"max":[
				1283.952392578125,
				2113.156982421875,
				2057.726806640625
			],
			"min":[
				52.62034606933594,
				-720.671630859375,
				-775.9029541015625
			],
			"type":"VEC3"
		},
		{
			"bufferView":274,
			"componentType":5126,
			"count":3172,
			"type":"VEC3"
		},
		{
			"bufferView":275,
			"componentType":5126,
			"count":3172,
			"type":"VEC2"
		},
		{
			"bufferView":276,
			"componentType":5126,
			"count":288,
			"max":[
				1027.8231201171875,
				1756.930908203125,
				1701.500732421875
			],
			"min":[
				809.6233520507812,
				-364.4453125,
				-419.6766357421875
			],
			"type":"VEC3"
		},
		{
			"bufferView":277,
			"componentType":5126,
			"count":288,
			"type":"VEC3"
		},
		{
			"bufferView":278,
			"componentType":5126,
			"count":288,
			"type":"VEC2"
		},
		{
			"bufferView":279,
			"componentType":5126,
			"count":324,
			"max":[
				1253.000732421875,
				1826.82666015625,
				1771.4647216796875
			],
			"min":[
				1108.980224609375,
				-434.3929748535156,
				-489.7951965332031
			],
			"type":"VEC3"
		},
		{
			"bufferView":280,
			"componentType":5126,
			"count":324,
			"type":"VEC3"
		},
		{
			"bufferView":281,
			"componentType":5126,
			"count":324,
			"type":"VEC2"
		},
		{
			"bufferView":282,
			"componentType":5126,
			"count":1259,
			"max":[
				758.5653076171875,
				1395.6771240234375,
				1340.1900634765625
			],
			"min":[
				249.96640014648438,
				-2.9928159713745117,
				-59.92951202392578
			],
			"type":"VEC3"
		},
		{
			"bufferView":283,
			"componentType":5126,
			"count":1259,
			"type":"VEC3"
		},
		{
			"bufferView":284,
			"componentType":5126,
			"count":1259,
			"type":"VEC2"
		},
		{
			"bufferView":285,
			"componentType":5126,
			"count":428,
			"max":[
				1094.758544921875,
				2012.8193359375,
				1957.388916015625
			],
			"min":[
				1055.8594970703125,
				-620.333740234375,
				-675.5650634765625
			],
			"type":"VEC3"
		},
		{
			"bufferView":286,
			"componentType":5126,
			"count":428,
			"type":"VEC3"
		},
		{
			"bufferView":287,
			"componentType":5126,
			"count":428,
			"type":"VEC2"
		},
		{
			"bufferView":288,
			"componentType":5126,
			"count":17660,
			"max":[
				124.00001525878906,
				1676.94873046875,
				124.00001525878906
			],
			"min":[
				-124,
				5.288749694824219,
				-124
			],
			"type":"VEC3"
		},
		{
			"bufferView":289,
			"componentType":5126,
			"count":17660,
			"type":"VEC3"
		},
		{
			"bufferView":290,
			"componentType":5126,
			"count":17660,
			"type":"VEC2"
		},
		{
			"bufferView":291,
			"componentType":5123,
			"count":44172,
			"type":"SCALAR"
		},
		{
			"bufferView":292,
			"componentType":5126,
			"count":48,
			"max":[
				119.79913330078125,
				66.43019104003906,
				119.666015625
			],
			"min":[
				-119.74809265136719,
				12.395143508911133,
				-119.710693359375
			],
			"type":"VEC3"
		},
		{
			"bufferView":293,
			"componentType":5126,
			"count":48,
			"type":"VEC3"
		},
		{
			"bufferView":294,
			"componentType":5126,
			"count":48,
			"type":"VEC2"
		},
		{
			"bufferView":295,
			"componentType":5123,
			"count":72,
			"type":"SCALAR"
		}
	],
	"bufferViews":[
		{
			"buffer":0,
			"byteLength":7872,
			"byteOffset":0,
			"target":34962
		},
		{
			"buffer":0,
			"byteLength":7872,
			"byteOffset":7872,
			"target":34962
		},
		{
			"buffer":0,
			"byteLength":5248,
			"byteOffset":15744,
			"target":34962
		},
		{
			"buffer":0,
			"byteLength":1968,
			"byteOffset":20992,
			"target":34963
		},
		{
			"buffer":0,
			"byteLength":240,
			"byteOffset":22960,
			"target":34962
		},
		{
			"buffer":0,
			"byteLength":240,
			"byteOffset":23200,
			"target":34962
		},
		{
			"buffer":0,
			"byteLength":160,
			"byteOffset":23440,
			"target":34962
		},
		{
			"buffer":0,
			"byteLength":60,
			"byteOffset":23600,
			"target":34963
		},
		{
			"buffer":0,
			"byteLength":96,
			"byteOffset":23660,
			"target":34962
		},
		{
			"buffer":0,
			"byteLength":96,
			"byteOffset":23756,
			"target":34962
		},
		{
			"buffer":0,
			"byteLength":64,
			"byteOffset":23852,
			"target":34962
		},
		{
			"buffer":0,
			"byteLength":24,
			"byteOffset":23916,
			"target":34963
		},
		{
			"buffer":0,
			"byteLength":192,
			"byteOffset":23940,
			"target":34962
		},
		{
			"buffer":0,
			"byteLength":192,
			"byteOffset":24132,
			"target":34962
		},
		{
			"buffer":0,
			"byteLength":128,
			"byteOffset":24324,
			"target":34962
		},
		{
			"buffer":0,
			"byteLength":48,
			"byteOffset":24452,
			"target":34963
		},
		{
			"buffer":0,
			"byteLength":13728,
			"byteOffset":24500,
			"target":34962
		},
		{
			"buffer":0,
			"byteLength":13728,
			"byteOffset":38228,
			"target":34962
		},
		{
			"buffer":0,
			"byteLength":9152,
			"byteOffset":51956,
			"target":34962
		},
		{
			"buffer":0,
			"byteLength":3432,
			"byteOffset":61108,
			"target":34963
		},
		{
			"buffer":0,
			"byteLength":41280,
			"byteOffset":64540,
			"target":34962
		},
		{
			"buffer":0,
			"byteLength":41280,
			"byteOffset":105820,
			"target":34962
		},
		{
			"buffer":0,
			"byteLength":27520,
			"byteOffset":147100,
			"target":34962
		},
		{
			"buffer":0,
			"byteLength":10656,
			"byteOffset":174620,
			"target":34963
		},
		{
			"buffer":0,
			"byteLength":4896,
			"byteOffset":185276,
			"target":34962
		},
		{
			"buffer":0,
			"byteLength":4896,
			"byteOffset":190172,
			"target":34962
		},
		{
			"buffer":0,
			"byteLength":3264,
			"byteOffset":195068,
			"target":34962
		},
		{
			"buffer":0,
			"byteLength":3456,
			"byteOffset":198332,
			"target":34963
		},
		{
			"buffer":0,
			"byteLength":11712,
			"byteOffset":201788,
			"target":34962
		},
		{
			"buffer":0,
			"byteLength":11712,
			"byteOffset":213500,
			"target":34962
		},
		{
			"buffer":0,
			"byteLength":7808,
			"byteOffset":225212,
			"target":34962
		},
		{
			"buffer":0,
			"byteLength":7056,
			"byteOffset":233020,
			"target":34963
		},
		{
			"buffer":0,
			"byteLength":76176,
			"byteOffset":240076,
			"target":34962
		},
		{
			"buffer":0,
			"byteLength":76176,
			"byteOffset":316252,
			"target":34962
		},
		{
			"buffer":0,
			"byteLength":50784,
			"byteOffset":392428,
			"target":34962
		},
		{
			"buffer":0,
			"byteLength":57744,
			"byteOffset":443212,
			"target":34963
		},
		{
			"buffer":0,
			"byteLength":34560,
			"byteOffset":500956,
			"target":34962
		},
		{
			"buffer":0,
			"byteLength":34560,
			"byteOffset":535516,
			"target":34962
		},
		{
			"buffer":0,
			"byteLength":23040,
			"byteOffset":570076,
			"target":34962
		},
		{
			"buffer":0,
			"byteLength":8640,
			"byteOffset":593116,
			"target":34963
		},
		{
			"buffer":0,
			"byteLength":288,
			"byteOffset":601756,
			"target":34962
		},
		{
			"buffer":0,
			"byteLength":288,
			"byteOffset":602044,
			"target":34962
		},
		{
			"buffer":0,
			"byteLength":192,
			"byteOffset":602332,
			"target":34962
		},
		{
			"buffer":0,
			"byteLength":72,
			"byteOffset":602524,
			"target":34963
		},
		{
			"buffer":0,
			"byteLength":144,
			"byteOffset":602596,
			"target":34962
		},
		{
			"buffer":0,
			"byteLength":144,
			"byteOffset":602740,
			"target":34962
		},
		{
			"buffer":0,
			"byteLength":96,
			"byteOffset":602884,
			"target":34962
		},
		{
			"buffer":0,
			"byteLength":24,
			"byteOffset":602980,
			"target":34963
		},
		{
			"buffer":0,
			"byteLength":576,
			"byteOffset":603004,
			"target":34962
		},
		{
			"buffer":0,
			"byteLength":576,
			"byteOffset":603580,
			"target":34962
		},
		{
			"buffer":0,
			"byteLength":384,
			"byteOffset":604156,
			"target":34962
		},
		{
			"buffer":0,
			"byteLength":144,
			"byteOffset":604540,
			"target":34963
		},
		{
			"buffer":0,
			"byteLength":384,
			"byteOffset":604684,
			"target":34962
		},
		{
			"buffer":0,
			"byteLength":384,
			"byteOffset":605068,
			"target":34962
		},
		{
			"buffer":0,
			"byteLength":256,
			"byteOffset":605452,
			"target":34962
		},
		{
			"buffer":0,
			"byteLength":84,
			"byteOffset":605708,
			"target":34963
		},
		{
			"buffer":0,
			"byteLength":288,
			"byteOffset":605792,
			"target":34962
		},
		{
			"buffer":0,
			"byteLength":288,
			"byteOffset":606080,
			"target":34962
		},
		{
			"buffer":0,
			"byteLength":192,
			"byteOffset":606368,
			"target":34962
		},
		{
			"buffer":0,
			"byteLength":144,
			"byteOffset":606560,
			"target":34962
		},
		{
			"buffer":0,
			"byteLength":144,
			"byteOffset":606704,
			"target":34962
		},
		{
			"buffer":0,
			"byteLength":96,
			"byteOffset":606848,
			"target":34962
		},
		{
			"buffer":0,
			"byteLength":576,
			"byteOffset":606944,
			"target":34962
		},
		{
			"buffer":0,
			"byteLength":576,
			"byteOffset":607520,
			"target":34962
		},
		{
			"buffer":0,
			"byteLength":384,
			"byteOffset":608096,
			"target":34962
		},
		{
			"buffer":0,
			"byteLength":384,
			"byteOffset":608480,
			"target":34962
		},
		{
			"buffer":0,
			"byteLength":384,
			"byteOffset":608864,
			"target":34962
		},
		{
			"buffer":0,
			"byteLength":256,
			"byteOffset":609248,
			"target":34962
		},
		{
			"buffer":0,
			"byteLength":288,
			"byteOffset":609504,
			"target":34962
		},
		{
			"buffer":0,
			"byteLength":288,
			"byteOffset":609792,
			"target":34962
		},
		{
			"buffer":0,
			"byteLength":192,
			"byteOffset":610080,
			"target":34962
		},
		{
			"buffer":0,
			"byteLength":144,
			"byteOffset":610272,
			"target":34962
		},
		{
			"buffer":0,
			"byteLength":144,
			"byteOffset":610416,
			"target":34962
		},
		{
			"buffer":0,
			"byteLength":96,
			"byteOffset":610560,
			"target":34962
		},
		{
			"buffer":0,
			"byteLength":576,
			"byteOffset":610656,
			"target":34962
		},
		{
			"buffer":0,
			"byteLength":576,
			"byteOffset":611232,
			"target":34962
		},
		{
			"buffer":0,
			"byteLength":384,
			"byteOffset":611808,
			"target":34962
		},
		{
			"buffer":0,
			"byteLength":384,
			"byteOffset":612192,
			"target":34962
		},
		{
			"buffer":0,
			"byteLength":384,
			"byteOffset":612576,
			"target":34962
		},
		{
			"buffer":0,
			"byteLength":256,
			"byteOffset":612960,
			"target":34962
		},
		{
			"buffer":0,
			"byteLength":288,
			"byteOffset":613216,
			"target":34962
		},
		{
			"buffer":0,
			"byteLength":288,
			"byteOffset":613504,
			"target":34962
		},
		{
			"buffer":0,
			"byteLength":192,
			"byteOffset":613792,
			"target":34962
		},
		{
			"buffer":0,
			"byteLength":144,
			"byteOffset":613984,
			"target":34962
		},
		{
			"buffer":0,
			"byteLength":144,
			"byteOffset":614128,
			"target":34962
		},
		{
			"buffer":0,
			"byteLength":96,
			"byteOffset":614272,
			"target":34962
		},
		{
			"buffer":0,
			"byteLength":576,
			"byteOffset":614368,
			"target":34962
		},
		{
			"buffer":0,
			"byteLength":576,
			"byteOffset":614944,
			"target":34962
		},
		{
			"buffer":0,
			"byteLength":384,
			"byteOffset":615520,
			"target":34962
		},
		{
			"buffer":0,
			"byteLength":384,
			"byteOffset":615904,
			"target":34962
		},
		{
			"buffer":0,
			"byteLength":384,
			"byteOffset":616288,
			"target":34962
		},
		{
			"buffer":0,
			"byteLength":256,
			"byteOffset":616672,
			"target":34962
		},
		{
			"buffer":0,
			"byteLength":1392,
			"byteOffset":616928,
			"target":34962
		},
		{
			"buffer":0,
			"byteLength":1392,
			"byteOffset":618320,
			"target":34962
		},
		{
			"buffer":0,
			"byteLength":928,
			"byteOffset":619712,
			"target":34962
		},
		{
			"buffer":0,
			"byteLength":384,
			"byteOffset":620640,
			"target":34963
		},
		{
			"buffer":0,
			"byteLength":348648,
			"byteOffset":621024,
			"target":34962
		},
		{
			"buffer":0,
			"byteLength":348648,
			"byteOffset":969672,
			"target":34962
		},
		{
			"buffer":0,
			"byteLength":232432,
			"byteOffset":1318320,
			"target":34962
		},
		{
			"buffer":0,
			"byteLength":86700,
			"byteOffset":1550752,
			"target":34963
		},
		{
			"buffer":0,
			"byteLength":87540,
			"byteOffset":1637452,
			"target":34962
		},
		{
			"buffer":0,
			"byteLength":87540,
			"byteOffset":1724992,
			"target":34962
		},
		{
			"buffer":0,
			"byteLength":58360,
			"byteOffset":1812532,
			"target":34962
		},
		{
			"buffer":0,
			"byteLength":50256,
			"byteOffset":1870892,
			"target":34963
		},
		{
			"buffer":0,
			"byteLength":756,
			"byteOffset":1921148,
			"target":34962
		},
		{
			"buffer":0,
			"byteLength":756,
			"byteOffset":1921904,
			"target":34962
		},
		{
			"buffer":0,
			"byteLength":504,
			"byteOffset":1922660,
			"target":34962
		},
		{
			"buffer":0,
			"byteLength":216,
			"byteOffset":1923164,
			"target":34963
		},
		{
			"buffer":0,
			"byteLength":1056,
			"byteOffset":1923380,
			"target":34962
		},
		{
			"buffer":0,
			"byteLength":1056,
			"byteOffset":1924436,
			"target":34962
		},
		{
			"buffer":0,
			"byteLength":704,
			"byteOffset":1925492,
			"target":34962
		},
		{
			"buffer":0,
			"byteLength":276,
			"byteOffset":1926196,
			"target":34963
		},
		{
			"buffer":0,
			"byteLength":124788,
			"byteOffset":1926472,
			"target":34962
		},
		{
			"buffer":0,
			"byteLength":124788,
			"byteOffset":2051260,
			"target":34962
		},
		{
			"buffer":0,
			"byteLength":83192,
			"byteOffset":2176048,
			"target":34962
		},
		{
			"buffer":0,
			"byteLength":46272,
			"byteOffset":2259240,
			"target":34963
		},
		{
			"buffer":0,
			"byteLength":52320,
			"byteOffset":2305512,
			"target":34962
		},
		{
			"buffer":0,
			"byteLength":52320,
			"byteOffset":2357832,
			"target":34962
		},
		{
			"buffer":0,
			"byteLength":34880,
			"byteOffset":2410152,
			"target":34962
		},
		{
			"buffer":0,
			"byteLength":21408,
			"byteOffset":2445032,
			"target":34963
		},
		{
			"buffer":0,
			"byteLength":22656,
			"byteOffset":2466440,
			"target":34962
		},
		{
			"buffer":0,
			"byteLength":22656,
			"byteOffset":2489096,
			"target":34962
		},
		{
			"buffer":0,
			"byteLength":15104,
			"byteOffset":2511752,
			"target":34962
		},
		{
			"buffer":0,
			"byteLength":5664,
			"byteOffset":2526856,
			"target":34963
		},
		{
			"buffer":0,
			"byteLength":76992,
			"byteOffset":2532520,
			"target":34962
		},
		{
			"buffer":0,
			"byteLength":76992,
			"byteOffset":2609512,
			"target":34962
		},
		{
			"buffer":0,
			"byteLength":51328,
			"byteOffset":2686504,
			"target":34962
		},
		{
			"buffer":0,
			"byteLength":21408,
			"byteOffset":2737832,
			"target":34963
		},
		{
			"buffer":0,
			"byteLength":6528,
			"byteOffset":2759240,
			"target":34962
		},
		{
			"buffer":0,
			"byteLength":6528,
			"byteOffset":2765768,
			"target":34962
		},
		{
			"buffer":0,
			"byteLength":4352,
			"byteOffset":2772296,
			"target":34962
		},
		{
			"buffer":0,
			"byteLength":4608,
			"byteOffset":2776648,
			"target":34963
		},
		{
			"buffer":0,
			"byteLength":205260,
			"byteOffset":2781256,
			"target":34962
		},
		{
			"buffer":0,
			"byteLength":205260,
			"byteOffset":2986516,
			"target":34962
		},
		{
			"buffer":0,
			"byteLength":136840,
			"byteOffset":3191776,
			"target":34962
		},
		{
			"buffer":0,
			"byteLength":52272,
			"byteOffset":3328616,
			"target":34963
		},
		{
			"buffer":0,
			"byteLength":26160,
			"byteOffset":3380888,
			"target":34962
		},
		{
			"buffer":0,
			"byteLength":26160,
			"byteOffset":3407048,
			"target":34962
		},
		{
			"buffer":0,
			"byteLength":17440,
			"byteOffset":3433208,
			"target":34962
		},
		{
			"buffer":0,
			"byteLength":17952,
			"byteOffset":3450648,
			"target":34963
		},
		{
			"buffer":0,
			"byteLength":6912,
			"byteOffset":3468600,
			"target":34962
		},
		{
			"buffer":0,
			"byteLength":6912,
			"byteOffset":3475512,
			"target":34962
		},
		{
			"buffer":0,
			"byteLength":4608,
			"byteOffset":3482424,
			"target":34962
		},
		{
			"buffer":0,
			"byteLength":1728,
			"byteOffset":3487032,
			"target":34963
		},
		{
			"buffer":0,
			"byteLength":16512,
			"byteOffset":3488760,
			"target":34962
		},
		{
			"buffer":0,
			"byteLength":16512,
			"byteOffset":3505272,
			"target":34962
		},
		{
			"buffer":0,
			"byteLength":11008,
			"byteOffset":3521784,
			"target":34962
		},
		{
			"buffer":0,
			"byteLength":4128,
			"byteOffset":3532792,
			"target":34963
		},
		{
			"buffer":0,
			"byteLength":34608,
			"byteOffset":3536920,
			"target":34962
		},
		{
			"buffer":0,
			"byteLength":34608,
			"byteOffset":3571528,
			"target":34962
		},
		{
			"buffer":0,
			"byteLength":23072,
			"byteOffset":3606136,
			"target":34962
		},
		{
			"buffer":0,
			"byteLength":10080,
			"byteOffset":3629208,
			"target":34963
		},
		{
			"buffer":0,
			"byteLength":4320,
			"byteOffset":3639288,
			"target":34962
		},
		{
			"buffer":0,
			"byteLength":4320,
			"byteOffset":3643608,
			"target":34962
		},
		{
			"buffer":0,
			"byteLength":2880,
			"byteOffset":3647928,
			"target":34962
		},
		{
			"buffer":0,
			"byteLength":1152,
			"byteOffset":3650808,
			"target":34963
		},
		{
			"buffer":0,
			"byteLength":3888,
			"byteOffset":3651960,
			"target":34962
		},
		{
			"buffer":0,
			"byteLength":3888,
			"byteOffset":3655848,
			"target":34962
		},
		{
			"buffer":0,
			"byteLength":2592,
			"byteOffset":3659736,
			"target":34962
		},
		{
			"buffer":0,
			"byteLength":1152,
			"byteOffset":3662328,
			"target":34963
		},
		{
			"buffer":0,
			"byteLength":15876,
			"byteOffset":3663480,
			"target":34962
		},
		{
			"buffer":0,
			"byteLength":15876,
			"byteOffset":3679356,
			"target":34962
		},
		{
			"buffer":0,
			"byteLength":10584,
			"byteOffset":3695232,
			"target":34962
		},
		{
			"buffer":0,
			"byteLength":5388,
			"byteOffset":3705816,
			"target":34963
		},
		{
			"buffer":0,
			"byteLength":11664,
			"byteOffset":3711204,
			"target":34962
		},
		{
			"buffer":0,
			"byteLength":11664,
			"byteOffset":3722868,
			"target":34962
		},
		{
			"buffer":0,
			"byteLength":7776,
			"byteOffset":3734532,
			"target":34962
		},
		{
			"buffer":0,
			"byteLength":8256,
			"byteOffset":3742308,
			"target":34963
		},
		{
			"buffer":0,
			"byteLength":1392,
			"byteOffset":3750564,
			"target":34962
		},
		{
			"buffer":0,
			"byteLength":1392,
			"byteOffset":3751956,
			"target":34962
		},
		{
			"buffer":0,
			"byteLength":928,
			"byteOffset":3753348,
			"target":34962
		},
		{
			"buffer":0,
			"byteLength":348648,
			"byteOffset":3754276,
			"target":34962
		},
		{
			"buffer":0,
			"byteLength":348648,
			"byteOffset":4102924,
			"target":34962
		},
		{
			"buffer":0,
			"byteLength":232432,
			"byteOffset":4451572,
			"target":34962
		},
		{
			"buffer":0,
			"byteLength":87540,
			"byteOffset":4684004,
			"target":34962
		},
		{
			"buffer":0,
			"byteLength":87540,
			"byteOffset":4771544,
			"target":34962
		},
		{
			"buffer":0,
			"byteLength":58360,
			"byteOffset":4859084,
			"target":34962
		},
		{
			"buffer":0,
			"byteLength":756,
			"byteOffset":4917444,
			"target":34962
		},
		{
			"buffer":0,
			"byteLength":756,
			"byteOffset":4918200,
			"target":34962
		},
		{
			"buffer":0,
			"byteLength":504,
			"byteOffset":4918956,
			"target":34962
		},
		{
			"buffer":0,
			"byteLength":1056,
			"byteOffset":4919460,
			"target":34962
		},
		{
			"buffer":0,
			"byteLength":1056,
			"byteOffset":4920516,
			"target":34962
		},
		{
			"buffer":0,
			"byteLength":704,
			"byteOffset":4921572,
			"target":34962
		},
		{
			"buffer":0,
			"byteLength":124788,
			"byteOffset":4922276,
			"target":34962
		},
		{
			"buffer":0,
			"byteLength":124788,
			"byteOffset":5047064,
			"target":34962
		},
		{
			"buffer":0,
			"byteLength":83192,
			"byteOffset":5171852,
			"target":34962
		},
		{
			"buffer":0,
			"byteLength":52320,
			"byteOffset":5255044,
			"target":34962
		},
		{
			"buffer":0,
			"byteLength":52320,
			"byteOffset":5307364,
			"target":34962
		},
		{
			"buffer":0,
			"byteLength":34880,
			"byteOffset":5359684,
			"target":34962
		},
		{
			"buffer":0,
			"byteLength":22656,
			"byteOffset":5394564,
			"target":34962
		},
		{
			"buffer":0,
			"byteLength":22656,
			"byteOffset":5417220,
			"target":34962
		},
		{
			"buffer":0,
			"byteLength":15104,
			"byteOffset":5439876,
			"target":34962
		},
		{
			"buffer":0,
			"byteLength":76992,
			"byteOffset":5454980,
			"target":34962
		},
		{
			"buffer":0,
			"byteLength":76992,
			"byteOffset":5531972,
			"target":34962
		},
		{
			"buffer":0,
			"byteLength":51328,
			"byteOffset":5608964,
			"target":34962
		},
		{
			"buffer":0,
			"byteLength":6528,
			"byteOffset":5660292,
			"target":34962
		},
		{
			"buffer":0,
			"byteLength":6528,
			"byteOffset":5666820,
			"target":34962
		},
		{
			"buffer":0,
			"byteLength":4352,
			"byteOffset":5673348,
			"target":34962
		},
		{
			"buffer":0,
			"byteLength":26160,
			"byteOffset":5677700,
			"target":34962
		},
		{
			"buffer":0,
			"byteLength":26160,
			"byteOffset":5703860,
			"target":34962
		},
		{
			"buffer":0,
			"byteLength":17440,
			"byteOffset":5730020,
			"target":34962
		},
		{
			"buffer":0,
			"byteLength":6912,
			"byteOffset":5747460,
			"target":34962
		},
		{
			"buffer":0,
			"byteLength":6912,
			"byteOffset":5754372,
			"target":34962
		},
		{
			"buffer":0,
			"byteLength":4608,
			"byteOffset":5761284,
			"target":34962
		},
		{
			"buffer":0,
			"byteLength":16512,
			"byteOffset":5765892,
			"target":34962
		},
		{
			"buffer":0,
			"byteLength":16512,
			"byteOffset":5782404,
			"target":34962
		},
		{
			"buffer":0,
			"byteLength":11008,
			"byteOffset":5798916,
			"target":34962
		},
		{
			"buffer":0,
			"byteLength":204072,
			"byteOffset":5809924,
			"target":34962
		},
		{
			"buffer":0,
			"byteLength":204072,
			"byteOffset":6013996,
			"target":34962
		},
		{
			"buffer":0,
			"byteLength":136048,
			"byteOffset":6218068,
			"target":34962
		},
		{
			"buffer":0,
			"byteLength":52218,
			"byteOffset":6354116,
			"target":34963
		},
		{
			"buffer":0,
			"byteLength":38064,
			"byteOffset":6406336,
			"target":34962
		},
		{
			"buffer":0,
			"byteLength":38064,
			"byteOffset":6444400,
			"target":34962
		},
		{
			"buffer":0,
			"byteLength":25376,
			"byteOffset":6482464,
			"target":34962
		},
		{
			"buffer":0,
			"byteLength":10944,
			"byteOffset":6507840,
			"target":34963
		},
		{
			"buffer":0,
			"byteLength":3456,
			"byteOffset":6518784,
			"target":34962
		},
		{
			"buffer":0,
			"byteLength":3456,
			"byteOffset":6522240,
			"target":34962
		},
		{
			"buffer":0,
			"byteLength":2304,
			"byteOffset":6525696,
			"target":34962
		},
		{
			"buffer":0,
			"byteLength":864,
			"byteOffset":6528000,
			"target":34963
		},
		{
			"buffer":0,
			"byteLength":3888,
			"byteOffset":6528864,
			"target":34962
		},
		{
			"buffer":0,
			"byteLength":3888,
			"byteOffset":6532752,
			"target":34962
		},
		{
			"buffer":0,
			"byteLength":2592,
			"byteOffset":6536640,
			"target":34962
		},
		{
			"buffer":0,
			"byteLength":15108,
			"byteOffset":6539232,
			"target":34962
		},
		{
			"buffer":0,
			"byteLength":15108,
			"byteOffset":6554340,
			"target":34962
		},
		{
			"buffer":0,
			"byteLength":10072,
			"byteOffset":6569448,
			"target":34962
		},
		{
			"buffer":0,
			"byteLength":5196,
			"byteOffset":6579520,
			"target":34963
		},
		{
			"buffer":0,
			"byteLength":5136,
			"byteOffset":6584716,
			"target":34962
		},
		{
			"buffer":0,
			"byteLength":5136,
			"byteOffset":6589852,
			"target":34962
		},
		{
			"buffer":0,
			"byteLength":3424,
			"byteOffset":6594988,
			"target":34962
		},
		{
			"buffer":0,
			"byteLength":3648,
			"byteOffset":6598412,
			"target":34963
		},
		{
			"buffer":0,
			"byteLength":900,
			"byteOffset":6602060,
			"target":34962
		},
		{
			"buffer":0,
			"byteLength":900,
			"byteOffset":6602960,
			"target":34962
		},
		{
			"buffer":0,
			"byteLength":600,
			"byteOffset":6603860,
			"target":34962
		},
		{
			"buffer":0,
			"byteLength":300,
			"byteOffset":6604460,
			"target":34963
		},
		{
			"buffer":0,
			"byteLength":331212,
			"byteOffset":6604760,
			"target":34962
		},
		{
			"buffer":0,
			"byteLength":331212,
			"byteOffset":6935972,
			"target":34962
		},
		{
			"buffer":0,
			"byteLength":220808,
			"byteOffset":7267184,
			"target":34962
		},
		{
			"buffer":0,
			"byteLength":82740,
			"byteOffset":7487992,
			"target":34963
		},
		{
			"buffer":0,
			"byteLength":95964,
			"byteOffset":7570732,
			"target":34962
		},
		{
			"buffer":0,
			"byteLength":95964,
			"byteOffset":7666696,
			"target":34962
		},
		{
			"buffer":0,
			"byteLength":63976,
			"byteOffset":7762660,
			"target":34962
		},
		{
			"buffer":0,
			"byteLength":50976,
			"byteOffset":7826636,
			"target":34963
		},
		{
			"buffer":0,
			"byteLength":576,
			"byteOffset":7877612,
			"target":34962
		},
		{
			"buffer":0,
			"byteLength":576,
			"byteOffset":7878188,
			"target":34962
		},
		{
			"buffer":0,
			"byteLength":384,
			"byteOffset":7878764,
			"target":34962
		},
		{
			"buffer":0,
			"byteLength":228,
			"byteOffset":7879148,
			"target":34963
		},
		{
			"buffer":0,
			"byteLength":660,
			"byteOffset":7879376,
			"target":34962
		},
		{
			"buffer":0,
			"byteLength":660,
			"byteOffset":7880036,
			"target":34962
		},
		{
			"buffer":0,
			"byteLength":440,
			"byteOffset":7880696,
			"target":34962
		},
		{
			"buffer":0,
			"byteLength":216,
			"byteOffset":7881136,
			"target":34963
		},
		{
			"buffer":0,
			"byteLength":22656,
			"byteOffset":7881352,
			"target":34962
		},
		{
			"buffer":0,
			"byteLength":22656,
			"byteOffset":7904008,
			"target":34962
		},
		{
			"buffer":0,
			"byteLength":15104,
			"byteOffset":7926664,
			"target":34962
		},
		{
			"buffer":0,
			"byteLength":124236,
			"byteOffset":7941768,
			"target":34962
		},
		{
			"buffer":0,
			"byteLength":124236,
			"byteOffset":8066004,
			"target":34962
		},
		{
			"buffer":0,
			"byteLength":82824,
			"byteOffset":8190240,
			"target":34962
		},
		{
			"buffer":0,
			"byteLength":45600,
			"byteOffset":8273064,
			"target":34963
		},
		{
			"buffer":0,
			"byteLength":136548,
			"byteOffset":8318664,
			"target":34962
		},
		{
			"buffer":0,
			"byteLength":136548,
			"byteOffset":8455212,
			"target":34962
		},
		{
			"buffer":0,
			"byteLength":91032,
			"byteOffset":8591760,
			"target":34962
		},
		{
			"buffer":0,
			"byteLength":51036,
			"byteOffset":8682792,
			"target":34963
		},
		{
			"buffer":0,
			"byteLength":26160,
			"byteOffset":8733828,
			"target":34962
		},
		{
			"buffer":0,
			"byteLength":26160,
			"byteOffset":8759988,
			"target":34962
		},
		{
			"buffer":0,
			"byteLength":17440,
			"byteOffset":8786148,
			"target":34962
		},
		{
			"buffer":0,
			"byteLength":6912,
			"byteOffset":8803588,
			"target":34962
		},
		{
			"buffer":0,
			"byteLength":6912,
			"byteOffset":8810500,
			"target":34962
		},
		{
			"buffer":0,
			"byteLength":4608,
			"byteOffset":8817412,
			"target":34962
		},
		{
			"buffer":0,
			"byteLength":16512,
			"byteOffset":8822020,
			"target":34962
		},
		{
			"buffer":0,
			"byteLength":16512,
			"byteOffset":8838532,
			"target":34962
		},
		{
			"buffer":0,
			"byteLength":11008,
			"byteOffset":8855044,
			"target":34962
		},
		{
			"buffer":0,
			"byteLength":204072,
			"byteOffset":8866052,
			"target":34962
		},
		{
			"buffer":0,
			"byteLength":204072,
			"byteOffset":9070124,
			"target":34962
		},
		{
			"buffer":0,
			"byteLength":136048,
			"byteOffset":9274196,
			"target":34962
		},
		{
			"buffer":0,
			"byteLength":38064,
			"byteOffset":9410244,
			"target":34962
		},
		{
			"buffer":0,
			"byteLength":38064,
			"byteOffset":9448308,
			"target":34962
		},
		{
			"buffer":0,
			"byteLength":25376,
			"byteOffset":9486372,
			"target":34962
		},
		{
			"buffer":0,
			"byteLength":3456,
			"byteOffset":9511748,
			"target":34962
		},
		{
			"buffer":0,
			"byteLength":3456,
			"byteOffset":9515204,
			"target":34962
		},
		{
			"buffer":0,
			"byteLength":2304,
			"byteOffset":9518660,
			"target":34962
		},
		{
			"buffer":0,
			"byteLength":3888,
			"byteOffset":9520964,
			"target":34962
		},
		{
			"buffer":0,
			"byteLength":3888,
			"byteOffset":9524852,
			"target":34962
		},
		{
			"buffer":0,
			"byteLength":2592,
			"byteOffset":9528740,
			"target":34962
		},
		{
			"buffer":0,
			"byteLength":15108,
			"byteOffset":9531332,
			"target":34962
		},
		{
			"buffer":0,
			"byteLength":15108,
			"byteOffset":9546440,
			"target":34962
		},
		{
			"buffer":0,
			"byteLength":10072,
			"byteOffset":9561548,
			"target":34962
		},
		{
			"buffer":0,
			"byteLength":5136,
			"byteOffset":9571620,
			"target":34962
		},
		{
			"buffer":0,
			"byteLength":5136,
			"byteOffset":9576756,
			"target":34962
		},
		{
			"buffer":0,
			"byteLength":3424,
			"byteOffset":9581892,
			"target":34962
		},
		{
			"buffer":0,
			"byteLength":211920,
			"byteOffset":9585316,
			"target":34962
		},
		{
			"buffer":0,
			"byteLength":211920,
			"byteOffset":9797236,
			"target":34962
		},
		{
			"buffer":0,
			"byteLength":141280,
			"byteOffset":10009156,
			"target":34962
		},
		{
			"buffer":0,
			"byteLength":88344,
			"byteOffset":10150436,
			"target":34963
		},
		{
			"buffer":0,
			"byteLength":576,
			"byteOffset":10238780,
			"target":34962
		},
		{
			"buffer":0,
			"byteLength":576,
			"byteOffset":10239356,
			"target":34962
		},
		{
			"buffer":0,
			"byteLength":384,
			"byteOffset":10239932,
			"target":34962
		},
		{
			"buffer":0,
			"byteLength":144,
			"byteOffset":10240316,
			"target":34963
		}
	],
	"samplers":[
		{
			"magFilter":9729,
			"minFilter":9987
		}
	],
	"buffers":[
		{
			"byteLength":10240460,
			"uri":"Pagoda_Sanju_32m.bin"
		}
	]
}
