{
	"asset":{
		"generator":"Khronos glTF Blender I/O v4.4.56",
		"version":"2.0"
	},
	"scene":0,
	"scenes":[
		{
			"name":"Scene",
			"nodes":[
				0
			]
		}
	],
	"nodes":[
		{
			"mesh":0,
			"name":"\u7403.001"
		}
	],
	"materials":[
		{
			"doubleSided":true,
			"name":"\u30de\u30c6\u30ea\u30a2\u30eb.001",
			"pbrMetallicRoughness":{
				"baseColorTexture":{
					"index":0
				},
				"metallicFactor":0,
				"roughnessFactor":0.5
			}
		}
	],
	"meshes":[
		{
			"name":"\u7403.001",
			"primitives":[
				{
					"attributes":{
						"POSITION":0,
						"NORMAL":1,
						"TEXCOORD_0":2
					},
					"indices":3,
					"material":0
				}
			]
		}
	],
	"textures":[
		{
			"sampler":0,
			"source":0
		}
	],
	"images":[
		{
			"mimeType":"image/png",
			"name":"Midnight_Stars",
			"uri":"Midnight_Stars.png"
		}
	],
	"accessors":[
		{
			"bufferView":0,
			"componentType":5126,
			"count":1010,
			"max":[
				483.46673583984375,
				483.4668884277344,
				483.4665832519531
			],
			"min":[
				-483.4664306640625,
				0,
				-483.4668884277344
			],
			"type":"VEC3"
		},
		{
			"bufferView":1,
			"componentType":5126,
			"count":1010,
			"type":"VEC3"
		},
		{
			"bufferView":2,
			"componentType":5126,
			"count":1010,
			"type":"VEC2"
		},
		{
			"bufferView":3,
			"componentType":5123,
			"count":1440,
			"type":"SCALAR"
		}
	],
	"bufferViews":[
		{
			"buffer":0,
			"byteLength":12120,
			"byteOffset":0,
			"target":34962
		},
		{
			"buffer":0,
			"byteLength":12120,
			"byteOffset":12120,
			"target":34962
		},
		{
			"buffer":0,
			"byteLength":8080,
			"byteOffset":24240,
			"target":34962
		},
		{
			"buffer":0,
			"byteLength":2880,
			"byteOffset":32320,
			"target":34963
		}
	],
	"samplers":[
		{
			"magFilter":9729,
			"minFilter":9987
		}
	],
	"buffers":[
		{
			"byteLength":35200,
			"uri":"Midnight_Stars.bin"
		}
	]
}
