{
	"asset":{
		"generator":"Khronos glTF Blender I/O v4.4.56",
		"version":"2.0"
	},
	"scene":0,
	"scenes":[
		{
			"name":"Scene",
			"nodes":[
				0
			]
		}
	],
	"nodes":[
		{
			"mesh":0,
			"name":"\u7403.002"
		}
	],
	"materials":[
		{
			"doubleSided":true,
			"name":"\u30de\u30c6\u30ea\u30a2\u30eb.003",
			"pbrMetallicRoughness":{
				"baseColorTexture":{
					"index":0
				},
				"metallicFactor":0,
				"roughnessFactor":0.5
			}
		}
	],
	"meshes":[
		{
			"name":"\u7403.002",
			"primitives":[
				{
					"attributes":{
						"POSITION":0,
						"NORMAL":1,
						"TEXCOORD_0":2
					},
					"indices":3,
					"material":0
				}
			]
		}
	],
	"textures":[
		{
			"sampler":0,
			"source":0
		}
	],
	"images":[
		{
			"mimeType":"image/png",
			"name":"Midnight",
			"uri":"Midnight.png"
		}
	],
	"accessors":[
		{
			"bufferView":0,
			"componentType":5126,
			"count":1008,
			"max":[
				483.47314453125,
				483.4732666015625,
				483.47296142578125
			],
			"min":[
				-483.4728088378906,
				0,
				-483.4732666015625
			],
			"type":"VEC3"
		},
		{
			"bufferView":1,
			"componentType":5126,
			"count":1008,
			"type":"VEC3"
		},
		{
			"bufferView":2,
			"componentType":5126,
			"count":1008,
			"type":"VEC2"
		},
		{
			"bufferView":3,
			"componentType":5123,
			"count":1440,
			"type":"SCALAR"
		}
	],
	"bufferViews":[
		{
			"buffer":0,
			"byteLength":12096,
			"byteOffset":0,
			"target":34962
		},
		{
			"buffer":0,
			"byteLength":12096,
			"byteOffset":12096,
			"target":34962
		},
		{
			"buffer":0,
			"byteLength":8064,
			"byteOffset":24192,
			"target":34962
		},
		{
			"buffer":0,
			"byteLength":2880,
			"byteOffset":32256,
			"target":34963
		}
	],
	"samplers":[
		{
			"magFilter":9729,
			"minFilter":9987
		}
	],
	"buffers":[
		{
			"byteLength":35136,
			"uri":"Midnight.bin"
		}
	]
}
