{
	"asset":{
		"generator":"Khronos glTF Blender I/O v4.4.56",
		"version":"2.0"
	},
	"scene":0,
	"scenes":[
		{
			"name":"Scene",
			"nodes":[
				3
			]
		}
	],
	"nodes":[
		{
			"mesh":0,
			"name":"Keyaki_ss1_Leaf"
		},
		{
			"mesh":1,
			"name":"Keyaki_ss1_Trunk"
		},
		{
			"children":[
				0,
				1
			],
			"name":"Keyaki_ss1_Summer.001"
		},
		{
			"children":[
				2
			],
			"name":"Keyaki_ss1_Summer"
		}
	],
	"materials":[
		{
			"alphaMode":"MASK",
			"name":"Keyaki_ss1_Leaf_Summer_Front",
			"normalTexture":{
				"index":0
			},
			"pbrMetallicRoughness":{
				"baseColorTexture":{
					"index":1
				},
				"metallicRoughnessTexture":{
					"index":2
				}
			}
		},
		{
			"alphaMode":"MASK",
			"name":"Keyaki_ss1_Leaf_Summer_Back",
			"normalTexture":{
				"index":3
			},
			"pbrMetallicRoughness":{
				"baseColorTexture":{
					"index":4
				},
				"metallicRoughnessTexture":{
					"index":5
				}
			}
		},
		{
			"name":"Keyaki_ss1_Trunk",
			"normalTexture":{
				"index":6
			},
			"pbrMetallicRoughness":{
				"baseColorTexture":{
					"index":7
				},
				"metallicRoughnessTexture":{
					"index":8
				}
			}
		}
	],
	"meshes":[
		{
			"name":"Keyaki_ss1_Leaf",
			"primitives":[
				{
					"attributes":{
						"POSITION":0,
						"NORMAL":1,
						"TEXCOORD_0":2
					},
					"indices":3,
					"material":0
				},
				{
					"attributes":{
						"POSITION":4,
						"NORMAL":5,
						"TEXCOORD_0":6
					},
					"indices":7,
					"material":1
				}
			]
		},
		{
			"name":"Keyaki_ss1_Trunk",
			"primitives":[
				{
					"attributes":{
						"POSITION":8,
						"NORMAL":9,
						"TEXCOORD_0":10
					},
					"indices":11,
					"material":2
				}
			]
		}
	],
	"textures":[
		{
			"sampler":0,
			"source":0
		},
		{
			"sampler":0,
			"source":1
		},
		{
			"sampler":0,
			"source":2
		},
		{
			"sampler":0,
			"source":3
		},
		{
			"sampler":0,
			"source":4
		},
		{
			"sampler":0,
			"source":5
		},
		{
			"sampler":0,
			"source":6
		},
		{
			"sampler":0,
			"source":7
		},
		{
			"sampler":0,
			"source":8
		}
	],
	"images":[
		{
			"mimeType":"image/jpeg",
			"name":"Keyaki_ss1_Leaf_Front_Normal",
			"uri":"Keyaki_ss1_Leaf_Front_Normal.jpg"
		},
		{
			"mimeType":"image/png",
			"name":"Keyaki_ss1_Leaf_Summer_Front_Color",
			"uri":"Keyaki_ss1_Leaf_Summer_Front_Color.png"
		},
		{
			"mimeType":"image/jpeg",
			"name":"Keyaki_ss1_Leaf_Front_Metalic-Smoothness",
			"uri":"Keyaki_ss1_Leaf_Front_Metalic-Smoothness.jpg"
		},
		{
			"mimeType":"image/jpeg",
			"name":"Keyaki_ss1_Leaf_Back_Normal",
			"uri":"Keyaki_ss1_Leaf_Back_Normal.jpg"
		},
		{
			"mimeType":"image/png",
			"name":"Keyaki_ss1_Leaf_Summer_Back_Color",
			"uri":"Keyaki_ss1_Leaf_Summer_Back_Color.png"
		},
		{
			"mimeType":"image/jpeg",
			"name":"Keyaki_ss1_Leaf_Back_Metalic-Smoothness",
			"uri":"Keyaki_ss1_Leaf_Back_Metalic-Smoothness.jpg"
		},
		{
			"mimeType":"image/jpeg",
			"name":"Keyaki_ss1_Trunk_Normal",
			"uri":"Keyaki_ss1_Trunk_Normal.jpg"
		},
		{
			"mimeType":"image/jpeg",
			"name":"Keyaki_ss1_Trunk_Color",
			"uri":"Keyaki_ss1_Trunk_Color.jpg"
		},
		{
			"mimeType":"image/jpeg",
			"name":"Keyaki_ss1_Trunk_Metalic-Smoothness",
			"uri":"Keyaki_ss1_Trunk_Metalic-Smoothness.jpg"
		}
	],
	"accessors":[
		{
			"bufferView":0,
			"componentType":5126,
			"count":45900,
			"max":[
				6.91506814956665,
				12.823809623718262,
				4.670558452606201
			],
			"min":[
				-8.478288650512695,
				0.349576473236084,
				-8.379850387573242
			],
			"type":"VEC3"
		},
		{
			"bufferView":1,
			"componentType":5126,
			"count":45900,
			"type":"VEC3"
		},
		{
			"bufferView":2,
			"componentType":5126,
			"count":45900,
			"type":"VEC2"
		},
		{
			"bufferView":3,
			"componentType":5123,
			"count":176256,
			"type":"SCALAR"
		},
		{
			"bufferView":4,
			"componentType":5126,
			"count":45900,
			"max":[
				6.915103435516357,
				12.823796272277832,
				4.670547008514404
			],
			"min":[
				-8.47825813293457,
				0.34956198930740356,
				-8.37985897064209
			],
			"type":"VEC3"
		},
		{
			"bufferView":5,
			"componentType":5126,
			"count":45900,
			"type":"VEC3"
		},
		{
			"bufferView":6,
			"componentType":5126,
			"count":45900,
			"type":"VEC2"
		},
		{
			"bufferView":7,
			"componentType":5123,
			"count":176256,
			"type":"SCALAR"
		},
		{
			"bufferView":8,
			"componentType":5126,
			"count":483938,
			"max":[
				5.136691570281982,
				11.167037010192871,
				2.7815449237823486
			],
			"min":[
				-6.033729076385498,
				-0.07148847728967667,
				-6.090478897094727
			],
			"type":"VEC3"
		},
		{
			"bufferView":9,
			"componentType":5126,
			"count":483938,
			"type":"VEC3"
		},
		{
			"bufferView":10,
			"componentType":5126,
			"count":483938,
			"type":"VEC2"
		},
		{
			"bufferView":11,
			"componentType":5125,
			"count":1428006,
			"type":"SCALAR"
		}
	],
	"bufferViews":[
		{
			"buffer":0,
			"byteLength":550800,
			"byteOffset":0,
			"target":34962
		},
		{
			"buffer":0,
			"byteLength":550800,
			"byteOffset":550800,
			"target":34962
		},
		{
			"buffer":0,
			"byteLength":367200,
			"byteOffset":1101600,
			"target":34962
		},
		{
			"buffer":0,
			"byteLength":352512,
			"byteOffset":1468800,
			"target":34963
		},
		{
			"buffer":0,
			"byteLength":550800,
			"byteOffset":1821312,
			"target":34962
		},
		{
			"buffer":0,
			"byteLength":550800,
			"byteOffset":2372112,
			"target":34962
		},
		{
			"buffer":0,
			"byteLength":367200,
			"byteOffset":2922912,
			"target":34962
		},
		{
			"buffer":0,
			"byteLength":352512,
			"byteOffset":3290112,
			"target":34963
		},
		{
			"buffer":0,
			"byteLength":5807256,
			"byteOffset":3642624,
			"target":34962
		},
		{
			"buffer":0,
			"byteLength":5807256,
			"byteOffset":9449880,
			"target":34962
		},
		{
			"buffer":0,
			"byteLength":3871504,
			"byteOffset":15257136,
			"target":34962
		},
		{
			"buffer":0,
			"byteLength":5712024,
			"byteOffset":19128640,
			"target":34963
		}
	],
	"samplers":[
		{
			"magFilter":9729,
			"minFilter":9987
		}
	],
	"buffers":[
		{
			"byteLength":24840664,
			"uri":"Keyaki_ss1_Summer.bin"
		}
	]
}
