{
	"asset":{
		"generator":"Khronos glTF Blender I/O v4.4.56",
		"version":"2.0"
	},
	"extensionsUsed":[
		"KHR_materials_specular"
	],
	"scene":0,
	"scenes":[
		{
			"name":"Scene",
			"nodes":[
				8
			]
		}
	],
	"nodes":[
		{
			"mesh":0,
			"name":"Object001_mossybark02_0Mat_0",
			"translation":[
				0,
				-7.62939453125e-06,
				0
			]
		},
		{
			"children":[
				0
			],
			"name":"Object_4",
			"translation":[
				-5246.42578125,
				-139.03729248046875,
				-1682.518798828125
			]
		},
		{
			"children":[
				1
			],
			"name":"Object001",
			"rotation":[
				-0.70710688829422,
				0,
				0,
				0.7071066498756409
			],
			"translation":[
				-100.418701171875,
				1682.518798828125,
				-57.095787048339844
			]
		},
		{
			"mesh":1,
			"name":"Object002_sakura_branch_new01_1Mat_0",
			"translation":[
				0.00048828125,
				-7.62936906539835e-06,
				0
			]
		},
		{
			"children":[
				3
			],
			"name":"Object_7",
			"translation":[
				-5005.65087890625,
				-106.10340118408203,
				-2156.009765625
			]
		},
		{
			"children":[
				4
			],
			"name":"Object002",
			"rotation":[
				-0.70710688829422,
				0,
				0,
				0.7071066498756409
			],
			"translation":[
				-311.7374267578125,
				2156.009521484375,
				-26.624204635620117
			]
		},
		{
			"children":[
				2,
				5
			],
			"name":"RootNode"
		},
		{
			"children":[
				6
			],
			"name":"e0d42550134a402a96d7be0eeeceea2b.fbx",
			"rotation":[
				0.70710688829422,
				0,
				0,
				0.7071066498756409
			],
			"scale":[
				0.009999999776482582,
				0.010000000707805157,
				0.010000000707805157
			]
		},
		{
			"children":[
				7
			],
			"name":"Sketchfab_model",
			"rotation":[
				-0.70710688829422,
				0,
				0,
				0.7071066498756409
			]
		}
	],
	"materials":[
		{
			"doubleSided":true,
			"extensions":{
				"KHR_materials_specular":{
					"specularFactor":0.13866709172725677
				}
			},
			"name":"mossybark02_0Mat",
			"pbrMetallicRoughness":{
				"baseColorTexture":{
					"index":0
				},
				"metallicFactor":0,
				"roughnessFactor":0.9796504378318787
			}
		},
		{
			"alphaCutoff":0.5104777216911316,
			"alphaMode":"MASK",
			"doubleSided":true,
			"extensions":{
				"KHR_materials_specular":{
					"specularFactor":0.42514416575431824
				}
			},
			"name":"sakura_branch_new01_1Mat",
			"pbrMetallicRoughness":{
				"baseColorTexture":{
					"index":1
				},
				"metallicFactor":0,
				"roughnessFactor":0.5382843017578125
			}
		}
	],
	"meshes":[
		{
			"name":"Object001_mossybark02_0Mat_0",
			"primitives":[
				{
					"attributes":{
						"POSITION":0,
						"NORMAL":1,
						"TEXCOORD_0":2
					},
					"indices":3,
					"material":0
				}
			]
		},
		{
			"name":"Object002_sakura_branch_new01_1Mat_0",
			"primitives":[
				{
					"attributes":{
						"POSITION":4,
						"NORMAL":5,
						"TEXCOORD_0":6,
						"TEXCOORD_1":7
					},
					"indices":8,
					"material":1
				}
			]
		}
	],
	"textures":[
		{
			"sampler":0,
			"source":0
		},
		{
			"sampler":0,
			"source":1
		}
	],
	"images":[
		{
			"mimeType":"image/png",
			"name":"mossybark02_0Mat_baseColor",
			"uri":"mossybark02_0Mat_baseColor.png"
		},
		{
			"mimeType":"image/png",
			"name":"sakura_branch_new01_1Mat_baseColor",
			"uri":"sakura_branch_new01_1Mat_baseColor.png"
		}
	],
	"accessors":[
		{
			"bufferView":0,
			"componentType":5126,
			"count":907,
			"max":[
				7358.12744140625,
				2107.5419921875,
				3369.44140625
			],
			"min":[
				3134.723876953125,
				-1829.4674072265625,
				-4.4036865234375
			],
			"type":"VEC3"
		},
		{
			"bufferView":1,
			"componentType":5126,
			"count":907,
			"type":"VEC3"
		},
		{
			"bufferView":2,
			"componentType":5126,
			"count":907,
			"type":"VEC2"
		},
		{
			"bufferView":3,
			"componentType":5123,
			"count":3921,
			"type":"SCALAR"
		},
		{
			"bufferView":4,
			"componentType":5126,
			"count":3290,
			"max":[
				7433.5234375,
				2654.37646484375,
				3939.19140625
			],
			"min":[
				2577.778076171875,
				-2442.169677734375,
				372.8279113769531
			],
			"type":"VEC3"
		},
		{
			"bufferView":5,
			"componentType":5126,
			"count":3290,
			"type":"VEC3"
		},
		{
			"bufferView":6,
			"componentType":5126,
			"count":3290,
			"type":"VEC2"
		},
		{
			"bufferView":7,
			"componentType":5126,
			"count":3290,
			"type":"VEC2"
		},
		{
			"bufferView":8,
			"componentType":5123,
			"count":4776,
			"type":"SCALAR"
		}
	],
	"bufferViews":[
		{
			"buffer":0,
			"byteLength":10884,
			"byteOffset":0,
			"target":34962
		},
		{
			"buffer":0,
			"byteLength":10884,
			"byteOffset":10884,
			"target":34962
		},
		{
			"buffer":0,
			"byteLength":7256,
			"byteOffset":21768,
			"target":34962
		},
		{
			"buffer":0,
			"byteLength":7842,
			"byteOffset":29024,
			"target":34963
		},
		{
			"buffer":0,
			"byteLength":39480,
			"byteOffset":36868,
			"target":34962
		},
		{
			"buffer":0,
			"byteLength":39480,
			"byteOffset":76348,
			"target":34962
		},
		{
			"buffer":0,
			"byteLength":26320,
			"byteOffset":115828,
			"target":34962
		},
		{
			"buffer":0,
			"byteLength":26320,
			"byteOffset":142148,
			"target":34962
		},
		{
			"buffer":0,
			"byteLength":9552,
			"byteOffset":168468,
			"target":34963
		}
	],
	"samplers":[
		{
			"magFilter":9729,
			"minFilter":9987
		}
	],
	"buffers":[
		{
			"byteLength":178020,
			"uri":"Sakura.bin"
		}
	]
}
