{
	"asset":{
		"generator":"Khronos glTF Blender I/O v4.4.56",
		"version":"2.0"
	},
	"extensionsUsed":[
		"KHR_materials_emissive_strength",
		"KHR_materials_specular"
	],
	"scene":0,
	"scenes":[
		{
			"name":"Scene",
			"nodes":[
				52
			]
		}
	],
	"nodes":[
		{
			"mesh":0,
			"name":"Bonfire.001_Bonfire_0"
		},
		{
			"mesh":1,
			"name":"Bonfire.001_Bonfire_0.001"
		},
		{
			"mesh":2,
			"name":"Bonfire.001_Bonfire_0.002"
		},
		{
			"mesh":3,
			"name":"Bonfire.001_Bonfire_0.003"
		},
		{
			"mesh":4,
			"name":"Bonfire.001_Bonfire_0.004"
		},
		{
			"mesh":5,
			"name":"Bonfire.001_Bonfire_0.005"
		},
		{
			"mesh":6,
			"name":"Bonfire.001_Bonfire_0.006"
		},
		{
			"mesh":7,
			"name":"Bonfire.001_Bonfire_0.007"
		},
		{
			"mesh":8,
			"name":"Bonfire.001_Bonfire_0.008"
		},
		{
			"mesh":9,
			"name":"Bonfire.001_Bonfire_0.009"
		},
		{
			"mesh":10,
			"name":"Bonfire.001_Bonfire_0.010"
		},
		{
			"mesh":11,
			"name":"Bonfire.001_Bonfire_0.011"
		},
		{
			"mesh":12,
			"name":"Bonfire.001_Bonfire_0.012"
		},
		{
			"mesh":13,
			"name":"Bonfire.001_Bonfire_0.013"
		},
		{
			"mesh":14,
			"name":"Bonfire.001_Bonfire_0.014"
		},
		{
			"mesh":15,
			"name":"Bonfire.001_Bonfire_0.015"
		},
		{
			"mesh":16,
			"name":"Bonfire.001_Bonfire_0.016"
		},
		{
			"mesh":17,
			"name":"Bonfire.001_Bonfire_0.017"
		},
		{
			"mesh":18,
			"name":"Bonfire.001_Bonfire_0.018"
		},
		{
			"mesh":19,
			"name":"Bonfire.001_Bonfire_0.019"
		},
		{
			"mesh":20,
			"name":"Bonfire.001_Bonfire_0.020"
		},
		{
			"mesh":21,
			"name":"Bonfire.001_Bonfire_0.021"
		},
		{
			"mesh":22,
			"name":"Bonfire.001_Bonfire_0.022"
		},
		{
			"mesh":23,
			"name":"Bonfire.001_Bonfire_0.023"
		},
		{
			"mesh":24,
			"name":"Bonfire.001_Bonfire_0.024"
		},
		{
			"mesh":25,
			"name":"Bonfire.001_Bonfire_0.025"
		},
		{
			"mesh":26,
			"name":"Bonfire.001_Bonfire_0.026"
		},
		{
			"mesh":27,
			"name":"Bonfire.001_Bonfire_0.027"
		},
		{
			"mesh":28,
			"name":"Bonfire.001_Bonfire_0.028"
		},
		{
			"mesh":29,
			"name":"Bonfire.001_Bonfire_0.029"
		},
		{
			"mesh":30,
			"name":"Bonfire.001_Bonfire_0.030"
		},
		{
			"mesh":31,
			"name":"Bonfire.001_Bonfire_0.031"
		},
		{
			"mesh":32,
			"name":"Bonfire.001_Bonfire_0.032"
		},
		{
			"mesh":33,
			"name":"Bonfire.001_Bonfire_0.033"
		},
		{
			"mesh":34,
			"name":"Bonfire.001_Bonfire_0.034"
		},
		{
			"mesh":35,
			"name":"Bonfire.001_Bonfire_0.035"
		},
		{
			"mesh":36,
			"name":"Bonfire.001_Bonfire_0.048"
		},
		{
			"mesh":37,
			"name":"Bonfire.001_Bonfire_0.049"
		},
		{
			"mesh":38,
			"name":"Bonfire.001_Bonfire_0.050"
		},
		{
			"mesh":39,
			"name":"Bonfire.001_Bonfire_0.051"
		},
		{
			"mesh":40,
			"name":"Bonfire.001_Bonfire_0.052"
		},
		{
			"mesh":41,
			"name":"Bonfire.001_Bonfire_0.053"
		},
		{
			"mesh":42,
			"name":"Bonfire.001_Bonfire_0.054"
		},
		{
			"mesh":43,
			"name":"Bonfire.001_Bonfire_0.055"
		},
		{
			"mesh":44,
			"name":"Bonfire.001_Bonfire_0.056"
		},
		{
			"mesh":45,
			"name":"Bonfire.001_Bonfire_0.057"
		},
		{
			"mesh":46,
			"name":"Bonfire.001_Bonfire_0.058"
		},
		{
			"mesh":47,
			"name":"Bonfire.001_Bonfire_0.059"
		},
		{
			"mesh":48,
			"name":"Bonfire.001_Bonfire_down_0"
		},
		{
			"children":[
				0,
				1,
				2,
				3,
				4,
				5,
				6,
				7,
				8,
				9,
				10,
				11,
				12,
				13,
				14,
				15,
				16,
				17,
				18,
				19,
				20,
				21,
				22,
				23,
				24,
				25,
				26,
				27,
				28,
				29,
				30,
				31,
				32,
				33,
				34,
				35,
				36,
				37,
				38,
				39,
				40,
				41,
				42,
				43,
				44,
				45,
				46,
				47,
				48
			],
			"name":"Bonfire.001"
		},
		{
			"children":[
				49
			],
			"name":"RootNode"
		},
		{
			"children":[
				50
			],
			"name":"Bonfire.fbx"
		},
		{
			"children":[
				51
			],
			"name":"Sketchfab_model",
			"scale":[
				0.25,
				0.25,
				0.25
			]
		}
	],
	"materials":[
		{
			"doubleSided":true,
			"emissiveFactor":[
				1,
				1,
				1
			],
			"emissiveTexture":{
				"index":0
			},
			"extensions":{
				"KHR_materials_specular":{
					"specularTexture":{
						"index":1
					}
				}
			},
			"name":"Bonfire",
			"normalTexture":{
				"index":2
			},
			"occlusionTexture":{
				"index":3
			},
			"pbrMetallicRoughness":{
				"baseColorTexture":{
					"index":4
				},
				"metallicRoughnessTexture":{
					"index":3
				},
				"roughnessFactor":0.9471212029457092
			}
		},
		{
			"alphaMode":"BLEND",
			"doubleSided":true,
			"emissiveFactor":[
				1,
				1,
				1
			],
			"emissiveTexture":{
				"index":5
			},
			"extensions":{
				"KHR_materials_emissive_strength":{
					"emissiveStrength":7.531818389892578
				}
			},
			"name":"Bonfire_down",
			"normalTexture":{
				"index":6
			},
			"occlusionTexture":{
				"index":7
			},
			"pbrMetallicRoughness":{
				"baseColorTexture":{
					"index":8
				},
				"metallicFactor":0.4986363649368286,
				"metallicRoughnessTexture":{
					"index":7
				}
			}
		}
	],
	"meshes":[
		{
			"name":"Bonfire.001_Bonfire_0",
			"primitives":[
				{
					"attributes":{
						"POSITION":0,
						"NORMAL":1,
						"TEXCOORD_0":2
					},
					"indices":3,
					"material":0
				}
			]
		},
		{
			"name":"Bonfire.001_Bonfire_0.001",
			"primitives":[
				{
					"attributes":{
						"POSITION":4,
						"NORMAL":5,
						"TEXCOORD_0":6
					},
					"indices":7,
					"material":0
				}
			]
		},
		{
			"name":"Bonfire.001_Bonfire_0.002",
			"primitives":[
				{
					"attributes":{
						"POSITION":8,
						"NORMAL":9,
						"TEXCOORD_0":10
					},
					"indices":11,
					"material":0
				}
			]
		},
		{
			"name":"Bonfire.001_Bonfire_0.003",
			"primitives":[
				{
					"attributes":{
						"POSITION":12,
						"NORMAL":13,
						"TEXCOORD_0":14
					},
					"indices":15,
					"material":0
				}
			]
		},
		{
			"name":"Bonfire.001_Bonfire_0.004",
			"primitives":[
				{
					"attributes":{
						"POSITION":16,
						"NORMAL":17,
						"TEXCOORD_0":18
					},
					"indices":19,
					"material":0
				}
			]
		},
		{
			"name":"Bonfire.001_Bonfire_0.005",
			"primitives":[
				{
					"attributes":{
						"POSITION":20,
						"NORMAL":21,
						"TEXCOORD_0":22
					},
					"indices":23,
					"material":0
				}
			]
		},
		{
			"name":"Bonfire.001_Bonfire_0.006",
			"primitives":[
				{
					"attributes":{
						"POSITION":24,
						"NORMAL":25,
						"TEXCOORD_0":26
					},
					"indices":27,
					"material":0
				}
			]
		},
		{
			"name":"Bonfire.001_Bonfire_0.007",
			"primitives":[
				{
					"attributes":{
						"POSITION":28,
						"NORMAL":29,
						"TEXCOORD_0":30
					},
					"indices":31,
					"material":0
				}
			]
		},
		{
			"name":"Bonfire.001_Bonfire_0.008",
			"primitives":[
				{
					"attributes":{
						"POSITION":32,
						"NORMAL":33,
						"TEXCOORD_0":34
					},
					"indices":35,
					"material":0
				}
			]
		},
		{
			"name":"Bonfire.001_Bonfire_0.009",
			"primitives":[
				{
					"attributes":{
						"POSITION":36,
						"NORMAL":37,
						"TEXCOORD_0":38
					},
					"indices":39,
					"material":0
				}
			]
		},
		{
			"name":"Bonfire.001_Bonfire_0.010",
			"primitives":[
				{
					"attributes":{
						"POSITION":40,
						"NORMAL":41,
						"TEXCOORD_0":42
					},
					"indices":43,
					"material":0
				}
			]
		},
		{
			"name":"Bonfire.001_Bonfire_0.011",
			"primitives":[
				{
					"attributes":{
						"POSITION":44,
						"NORMAL":45,
						"TEXCOORD_0":46
					},
					"indices":47,
					"material":0
				}
			]
		},
		{
			"name":"Bonfire.001_Bonfire_0.012",
			"primitives":[
				{
					"attributes":{
						"POSITION":48,
						"NORMAL":49,
						"TEXCOORD_0":50
					},
					"indices":51,
					"material":0
				}
			]
		},
		{
			"name":"Bonfire.001_Bonfire_0.013",
			"primitives":[
				{
					"attributes":{
						"POSITION":52,
						"NORMAL":53,
						"TEXCOORD_0":54
					},
					"indices":55,
					"material":0
				}
			]
		},
		{
			"name":"Bonfire.001_Bonfire_0.014",
			"primitives":[
				{
					"attributes":{
						"POSITION":56,
						"NORMAL":57,
						"TEXCOORD_0":58
					},
					"indices":59,
					"material":0
				}
			]
		},
		{
			"name":"Bonfire.001_Bonfire_0.015",
			"primitives":[
				{
					"attributes":{
						"POSITION":60,
						"NORMAL":61,
						"TEXCOORD_0":62
					},
					"indices":63,
					"material":0
				}
			]
		},
		{
			"name":"Bonfire.001_Bonfire_0.016",
			"primitives":[
				{
					"attributes":{
						"POSITION":64,
						"NORMAL":65,
						"TEXCOORD_0":66
					},
					"indices":67,
					"material":0
				}
			]
		},
		{
			"name":"Bonfire.001_Bonfire_0.017",
			"primitives":[
				{
					"attributes":{
						"POSITION":68,
						"NORMAL":69,
						"TEXCOORD_0":70
					},
					"indices":71,
					"material":0
				}
			]
		},
		{
			"name":"Bonfire.001_Bonfire_0.018",
			"primitives":[
				{
					"attributes":{
						"POSITION":72,
						"NORMAL":73,
						"TEXCOORD_0":74
					},
					"indices":75,
					"material":0
				}
			]
		},
		{
			"name":"Bonfire.001_Bonfire_0.019",
			"primitives":[
				{
					"attributes":{
						"POSITION":76,
						"NORMAL":77,
						"TEXCOORD_0":78
					},
					"indices":79,
					"material":0
				}
			]
		},
		{
			"name":"Bonfire.001_Bonfire_0.020",
			"primitives":[
				{
					"attributes":{
						"POSITION":80,
						"NORMAL":81,
						"TEXCOORD_0":82
					},
					"indices":83,
					"material":0
				}
			]
		},
		{
			"name":"Bonfire.001_Bonfire_0.021",
			"primitives":[
				{
					"attributes":{
						"POSITION":84,
						"NORMAL":85,
						"TEXCOORD_0":86
					},
					"indices":87,
					"material":0
				}
			]
		},
		{
			"name":"Bonfire.001_Bonfire_0.022",
			"primitives":[
				{
					"attributes":{
						"POSITION":88,
						"NORMAL":89,
						"TEXCOORD_0":90
					},
					"indices":91,
					"material":0
				}
			]
		},
		{
			"name":"Bonfire.001_Bonfire_0.023",
			"primitives":[
				{
					"attributes":{
						"POSITION":92,
						"NORMAL":93,
						"TEXCOORD_0":94
					},
					"indices":95,
					"material":0
				}
			]
		},
		{
			"name":"Bonfire.001_Bonfire_0.024",
			"primitives":[
				{
					"attributes":{
						"POSITION":96,
						"NORMAL":97,
						"TEXCOORD_0":98
					},
					"indices":99,
					"material":0
				}
			]
		},
		{
			"name":"Bonfire.001_Bonfire_0.025",
			"primitives":[
				{
					"attributes":{
						"POSITION":100,
						"NORMAL":101,
						"TEXCOORD_0":102
					},
					"indices":103,
					"material":0
				}
			]
		},
		{
			"name":"Bonfire.001_Bonfire_0.026",
			"primitives":[
				{
					"attributes":{
						"POSITION":104,
						"NORMAL":105,
						"TEXCOORD_0":106
					},
					"indices":107,
					"material":0
				}
			]
		},
		{
			"name":"Bonfire.001_Bonfire_0.027",
			"primitives":[
				{
					"attributes":{
						"POSITION":108,
						"NORMAL":109,
						"TEXCOORD_0":110
					},
					"indices":111,
					"material":0
				}
			]
		},
		{
			"name":"Bonfire.001_Bonfire_0.028",
			"primitives":[
				{
					"attributes":{
						"POSITION":112,
						"NORMAL":113,
						"TEXCOORD_0":114
					},
					"indices":115,
					"material":0
				}
			]
		},
		{
			"name":"Bonfire.001_Bonfire_0.029",
			"primitives":[
				{
					"attributes":{
						"POSITION":116,
						"NORMAL":117,
						"TEXCOORD_0":118
					},
					"indices":119,
					"material":0
				}
			]
		},
		{
			"name":"Bonfire.001_Bonfire_0.030",
			"primitives":[
				{
					"attributes":{
						"POSITION":120,
						"NORMAL":121,
						"TEXCOORD_0":122
					},
					"indices":123,
					"material":0
				}
			]
		},
		{
			"name":"Bonfire.001_Bonfire_0.031",
			"primitives":[
				{
					"attributes":{
						"POSITION":124,
						"NORMAL":125,
						"TEXCOORD_0":126
					},
					"indices":127,
					"material":0
				}
			]
		},
		{
			"name":"Bonfire.001_Bonfire_0.032",
			"primitives":[
				{
					"attributes":{
						"POSITION":128,
						"NORMAL":129,
						"TEXCOORD_0":130
					},
					"indices":115,
					"material":0
				}
			]
		},
		{
			"name":"Bonfire.001_Bonfire_0.033",
			"primitives":[
				{
					"attributes":{
						"POSITION":131,
						"NORMAL":132,
						"TEXCOORD_0":133
					},
					"indices":119,
					"material":0
				}
			]
		},
		{
			"name":"Bonfire.001_Bonfire_0.034",
			"primitives":[
				{
					"attributes":{
						"POSITION":134,
						"NORMAL":135,
						"TEXCOORD_0":136
					},
					"indices":137,
					"material":0
				}
			]
		},
		{
			"name":"Bonfire.001_Bonfire_0.035",
			"primitives":[
				{
					"attributes":{
						"POSITION":138,
						"NORMAL":139,
						"TEXCOORD_0":140
					},
					"indices":141,
					"material":0
				}
			]
		},
		{
			"name":"Bonfire.001_Bonfire_0.048",
			"primitives":[
				{
					"attributes":{
						"POSITION":142,
						"NORMAL":143,
						"TEXCOORD_0":144
					},
					"indices":145,
					"material":0
				}
			]
		},
		{
			"name":"Bonfire.001_Bonfire_0.049",
			"primitives":[
				{
					"attributes":{
						"POSITION":146,
						"NORMAL":147,
						"TEXCOORD_0":148
					},
					"indices":149,
					"material":0
				}
			]
		},
		{
			"name":"Bonfire.001_Bonfire_0.050",
			"primitives":[
				{
					"attributes":{
						"POSITION":150,
						"NORMAL":151,
						"TEXCOORD_0":152
					},
					"indices":153,
					"material":0
				}
			]
		},
		{
			"name":"Bonfire.001_Bonfire_0.051",
			"primitives":[
				{
					"attributes":{
						"POSITION":154,
						"NORMAL":155,
						"TEXCOORD_0":156
					},
					"indices":157,
					"material":0
				}
			]
		},
		{
			"name":"Bonfire.001_Bonfire_0.052",
			"primitives":[
				{
					"attributes":{
						"POSITION":158,
						"NORMAL":159,
						"TEXCOORD_0":160
					},
					"indices":161,
					"material":0
				}
			]
		},
		{
			"name":"Bonfire.001_Bonfire_0.053",
			"primitives":[
				{
					"attributes":{
						"POSITION":162,
						"NORMAL":163,
						"TEXCOORD_0":164
					},
					"indices":165,
					"material":0
				}
			]
		},
		{
			"name":"Bonfire.001_Bonfire_0.054",
			"primitives":[
				{
					"attributes":{
						"POSITION":166,
						"NORMAL":167,
						"TEXCOORD_0":168
					},
					"indices":169,
					"material":0
				}
			]
		},
		{
			"name":"Bonfire.001_Bonfire_0.055",
			"primitives":[
				{
					"attributes":{
						"POSITION":170,
						"NORMAL":171,
						"TEXCOORD_0":172
					},
					"indices":173,
					"material":0
				}
			]
		},
		{
			"name":"Bonfire.001_Bonfire_0.056",
			"primitives":[
				{
					"attributes":{
						"POSITION":174,
						"NORMAL":175,
						"TEXCOORD_0":176
					},
					"indices":177,
					"material":0
				}
			]
		},
		{
			"name":"Bonfire.001_Bonfire_0.057",
			"primitives":[
				{
					"attributes":{
						"POSITION":178,
						"NORMAL":179,
						"TEXCOORD_0":180
					},
					"indices":181,
					"material":0
				}
			]
		},
		{
			"name":"Bonfire.001_Bonfire_0.058",
			"primitives":[
				{
					"attributes":{
						"POSITION":182,
						"NORMAL":183,
						"TEXCOORD_0":184
					},
					"indices":185,
					"material":0
				}
			]
		},
		{
			"name":"Bonfire.001_Bonfire_0.059",
			"primitives":[
				{
					"attributes":{
						"POSITION":186,
						"NORMAL":187,
						"TEXCOORD_0":188
					},
					"indices":189,
					"material":0
				}
			]
		},
		{
			"name":"Bonfire.001_Bonfire_down_0",
			"primitives":[
				{
					"attributes":{
						"POSITION":190,
						"NORMAL":191,
						"TEXCOORD_0":192
					},
					"indices":193,
					"material":1
				}
			]
		}
	],
	"textures":[
		{
			"sampler":0,
			"source":0
		},
		{
			"sampler":0,
			"source":1
		},
		{
			"sampler":0,
			"source":2
		},
		{
			"sampler":0,
			"source":3
		},
		{
			"sampler":0,
			"source":4
		},
		{
			"sampler":0,
			"source":5
		},
		{
			"sampler":0,
			"source":6
		},
		{
			"sampler":0,
			"source":7
		},
		{
			"sampler":0,
			"source":8
		}
	],
	"images":[
		{
			"mimeType":"image/png",
			"name":"Bonfire_emissive",
			"uri":"Bonfire_emissive.png"
		},
		{
			"mimeType":"image/png",
			"name":"Bonfire_specularf0",
			"uri":"Bonfire_specularf0.png"
		},
		{
			"mimeType":"image/png",
			"name":"Bonfire_normal",
			"uri":"Bonfire_normal.png"
		},
		{
			"mimeType":"image/png",
			"name":"Bonfire_metallicRoughness",
			"uri":"Bonfire_metallicRoughness.png"
		},
		{
			"mimeType":"image/png",
			"name":"Bonfire_baseColor",
			"uri":"Bonfire_baseColor.png"
		},
		{
			"mimeType":"image/png",
			"name":"Bonfire_down_emissive",
			"uri":"Bonfire_down_emissive.png"
		},
		{
			"mimeType":"image/png",
			"name":"Bonfire_down_normal",
			"uri":"Bonfire_down_normal.png"
		},
		{
			"mimeType":"image/png",
			"name":"Bonfire_down_metallicRoughness",
			"uri":"Bonfire_down_metallicRoughness.png"
		},
		{
			"mimeType":"image/png",
			"name":"Bonfire_down_baseColor",
			"uri":"Bonfire_down_baseColor.png"
		}
	],
	"accessors":[
		{
			"bufferView":0,
			"componentType":5126,
			"count":37,
			"max":[
				-5.06998348236084,
				0.8146291375160217,
				-1.2152704000473022
			],
			"min":[
				-6.5725932121276855,
				-0.07112383097410202,
				-3.0818614959716797
			],
			"type":"VEC3"
		},
		{
			"bufferView":1,
			"componentType":5126,
			"count":37,
			"type":"VEC3"
		},
		{
			"bufferView":2,
			"componentType":5126,
			"count":37,
			"type":"VEC2"
		},
		{
			"bufferView":3,
			"componentType":5123,
			"count":165,
			"type":"SCALAR"
		},
		{
			"bufferView":4,
			"componentType":5126,
			"count":7,
			"max":[
				-5.172426700592041,
				0.07729235291481018,
				-1.365410327911377
			],
			"min":[
				-6.521402835845947,
				-0.07112383097410202,
				-2.944490432739258
			],
			"type":"VEC3"
		},
		{
			"bufferView":5,
			"componentType":5126,
			"count":7,
			"type":"VEC3"
		},
		{
			"bufferView":6,
			"componentType":5126,
			"count":7,
			"type":"VEC2"
		},
		{
			"bufferView":7,
			"componentType":5123,
			"count":15,
			"type":"SCALAR"
		},
		{
			"bufferView":8,
			"componentType":5126,
			"count":39,
			"max":[
				-4.131133556365967,
				0.5436872839927673,
				2.331655502319336
			],
			"min":[
				-5.554152965545654,
				-0.15375439822673798,
				0.41508209705352783
			],
			"type":"VEC3"
		},
		{
			"bufferView":9,
			"componentType":5126,
			"count":39,
			"type":"VEC3"
		},
		{
			"bufferView":10,
			"componentType":5126,
			"count":39,
			"type":"VEC2"
		},
		{
			"bufferView":11,
			"componentType":5123,
			"count":168,
			"type":"SCALAR"
		},
		{
			"bufferView":12,
			"componentType":5126,
			"count":8,
			"max":[
				-4.1726226806640625,
				-0.04167294502258301,
				2.2458062171936035
			],
			"min":[
				-5.485799789428711,
				-0.15375439822673798,
				0.41508209705352783
			],
			"type":"VEC3"
		},
		{
			"bufferView":13,
			"componentType":5126,
			"count":8,
			"type":"VEC3"
		},
		{
			"bufferView":14,
			"componentType":5126,
			"count":8,
			"type":"VEC2"
		},
		{
			"bufferView":15,
			"componentType":5123,
			"count":18,
			"type":"SCALAR"
		},
		{
			"bufferView":16,
			"componentType":5126,
			"count":37,
			"max":[
				7.436026573181152,
				0.843261182308197,
				0.3681936264038086
			],
			"min":[
				5.506844997406006,
				-0.04777123034000397,
				-1.0843039751052856
			],
			"type":"VEC3"
		},
		{
			"bufferView":17,
			"componentType":5126,
			"count":37,
			"type":"VEC3"
		},
		{
			"bufferView":18,
			"componentType":5126,
			"count":37,
			"type":"VEC2"
		},
		{
			"bufferView":19,
			"componentType":5123,
			"count":165,
			"type":"SCALAR"
		},
		{
			"bufferView":20,
			"componentType":5126,
			"count":5,
			"max":[
				7.105922698974609,
				0.04630883038043976,
				0.17091023921966553
			],
			"min":[
				5.642653465270996,
				-0.04777123034000397,
				-0.9924622774124146
			],
			"type":"VEC3"
		},
		{
			"bufferView":21,
			"componentType":5126,
			"count":5,
			"type":"VEC3"
		},
		{
			"bufferView":22,
			"componentType":5126,
			"count":5,
			"type":"VEC2"
		},
		{
			"bufferView":23,
			"componentType":5123,
			"count":9,
			"type":"SCALAR"
		},
		{
			"bufferView":24,
			"componentType":5126,
			"count":39,
			"max":[
				-3.801062822341919,
				0.880650520324707,
				-1.8492604494094849
			],
			"min":[
				-5.122361183166504,
				-0.02188318967819214,
				-3.463517189025879
			],
			"type":"VEC3"
		},
		{
			"bufferView":25,
			"componentType":5126,
			"count":39,
			"type":"VEC3"
		},
		{
			"bufferView":26,
			"componentType":5126,
			"count":39,
			"type":"VEC2"
		},
		{
			"bufferView":27,
			"componentType":5123,
			"count":177,
			"type":"SCALAR"
		},
		{
			"bufferView":28,
			"componentType":5126,
			"count":5,
			"max":[
				-3.9596686363220215,
				0.014654375612735748,
				-2.0613088607788086
			],
			"min":[
				-4.968507766723633,
				-0.02188318967819214,
				-3.28497314453125
			],
			"type":"VEC3"
		},
		{
			"bufferView":29,
			"componentType":5126,
			"count":5,
			"type":"VEC3"
		},
		{
			"bufferView":30,
			"componentType":5126,
			"count":5,
			"type":"VEC2"
		},
		{
			"bufferView":31,
			"componentType":5123,
			"count":9,
			"type":"SCALAR"
		},
		{
			"bufferView":32,
			"componentType":5126,
			"count":36,
			"max":[
				-6.148563861846924,
				0.6016374826431274,
				-2.794480800628662
			],
			"min":[
				-7.529438018798828,
				-0.06400105357170105,
				-4.149061679840088
			],
			"type":"VEC3"
		},
		{
			"bufferView":33,
			"componentType":5126,
			"count":36,
			"type":"VEC3"
		},
		{
			"bufferView":34,
			"componentType":5126,
			"count":36,
			"type":"VEC2"
		},
		{
			"bufferView":35,
			"componentType":5123,
			"count":159,
			"type":"SCALAR"
		},
		{
			"bufferView":36,
			"componentType":5126,
			"count":5,
			"max":[
				-6.272204875946045,
				-0.061743274331092834,
				-2.9234790802001953
			],
			"min":[
				-7.469322204589844,
				-0.06400105357170105,
				-4.115329265594482
			],
			"type":"VEC3"
		},
		{
			"bufferView":37,
			"componentType":5126,
			"count":5,
			"type":"VEC3"
		},
		{
			"bufferView":38,
			"componentType":5126,
			"count":5,
			"type":"VEC2"
		},
		{
			"bufferView":39,
			"componentType":5123,
			"count":9,
			"type":"SCALAR"
		},
		{
			"bufferView":40,
			"componentType":5126,
			"count":8,
			"max":[
				6.061444282531738,
				-0.04392053186893463,
				-0.9451996088027954
			],
			"min":[
				2.8546814918518066,
				-0.18621982634067535,
				-5.862316131591797
			],
			"type":"VEC3"
		},
		{
			"bufferView":41,
			"componentType":5126,
			"count":8,
			"type":"VEC3"
		},
		{
			"bufferView":42,
			"componentType":5126,
			"count":8,
			"type":"VEC2"
		},
		{
			"bufferView":43,
			"componentType":5123,
			"count":18,
			"type":"SCALAR"
		},
		{
			"bufferView":44,
			"componentType":5126,
			"count":47,
			"max":[
				6.347957611083984,
				2.007619857788086,
				-0.7483305931091309
			],
			"min":[
				2.6047444343566895,
				-0.18621982634067535,
				-5.966517448425293
			],
			"type":"VEC3"
		},
		{
			"bufferView":45,
			"componentType":5126,
			"count":47,
			"type":"VEC3"
		},
		{
			"bufferView":46,
			"componentType":5126,
			"count":47,
			"type":"VEC2"
		},
		{
			"bufferView":47,
			"componentType":5123,
			"count":216,
			"type":"SCALAR"
		},
		{
			"bufferView":48,
			"componentType":5126,
			"count":40,
			"max":[
				-2.799790620803833,
				1.434789776802063,
				6.454082012176514
			],
			"min":[
				-7.192528247833252,
				-0.10059653967618942,
				1.7685860395431519
			],
			"type":"VEC3"
		},
		{
			"bufferView":49,
			"componentType":5126,
			"count":40,
			"type":"VEC3"
		},
		{
			"bufferView":50,
			"componentType":5126,
			"count":40,
			"type":"VEC2"
		},
		{
			"bufferView":51,
			"componentType":5123,
			"count":168,
			"type":"SCALAR"
		},
		{
			"bufferView":52,
			"componentType":5126,
			"count":8,
			"max":[
				-2.9256255626678467,
				0.003596389666199684,
				6.289661407470703
			],
			"min":[
				-7.052492618560791,
				-0.10059653967618942,
				1.7685860395431519
			],
			"type":"VEC3"
		},
		{
			"bufferView":53,
			"componentType":5126,
			"count":8,
			"type":"VEC3"
		},
		{
			"bufferView":54,
			"componentType":5126,
			"count":8,
			"type":"VEC2"
		},
		{
			"bufferView":55,
			"componentType":5123,
			"count":18,
			"type":"SCALAR"
		},
		{
			"bufferView":56,
			"componentType":5126,
			"count":33,
			"max":[
				-2.779202938079834,
				1.0629770755767822,
				-3.544663429260254
			],
			"min":[
				-5.925447463989258,
				-0.1216127872467041,
				-6.444303035736084
			],
			"type":"VEC3"
		},
		{
			"bufferView":57,
			"componentType":5126,
			"count":33,
			"type":"VEC3"
		},
		{
			"bufferView":58,
			"componentType":5126,
			"count":33,
			"type":"VEC2"
		},
		{
			"bufferView":59,
			"componentType":5123,
			"count":132,
			"type":"SCALAR"
		},
		{
			"bufferView":60,
			"componentType":5126,
			"count":9,
			"max":[
				-3.006326198577881,
				0.06550126522779465,
				-3.59977388381958
			],
			"min":[
				-5.925447463989258,
				-0.1216127872467041,
				-6.357700824737549
			],
			"type":"VEC3"
		},
		{
			"bufferView":61,
			"componentType":5126,
			"count":9,
			"type":"VEC3"
		},
		{
			"bufferView":62,
			"componentType":5126,
			"count":9,
			"type":"VEC2"
		},
		{
			"bufferView":63,
			"componentType":5123,
			"count":24,
			"type":"SCALAR"
		},
		{
			"bufferView":64,
			"componentType":5126,
			"count":42,
			"max":[
				2.7852213382720947,
				1.8833755254745483,
				-5.119517803192139
			],
			"min":[
				-2.88478946685791,
				-0.13680648803710938,
				-7.722414016723633
			],
			"type":"VEC3"
		},
		{
			"bufferView":65,
			"componentType":5126,
			"count":42,
			"type":"VEC3"
		},
		{
			"bufferView":66,
			"componentType":5126,
			"count":42,
			"type":"VEC2"
		},
		{
			"bufferView":67,
			"componentType":5123,
			"count":183,
			"type":"SCALAR"
		},
		{
			"bufferView":68,
			"componentType":5126,
			"count":9,
			"max":[
				2.712678909301758,
				0.027125120162963867,
				-5.21695613861084
			],
			"min":[
				-2.823697566986084,
				-0.13680648803710938,
				-7.643811225891113
			],
			"type":"VEC3"
		},
		{
			"bufferView":69,
			"componentType":5126,
			"count":9,
			"type":"VEC3"
		},
		{
			"bufferView":70,
			"componentType":5126,
			"count":9,
			"type":"VEC2"
		},
		{
			"bufferView":71,
			"componentType":5123,
			"count":21,
			"type":"SCALAR"
		},
		{
			"bufferView":72,
			"componentType":5126,
			"count":45,
			"max":[
				1.8985345363616943,
				2.031010627746582,
				7.0720672607421875
			],
			"min":[
				-2.3318443298339844,
				-0.020092129707336426,
				4.232089042663574
			],
			"type":"VEC3"
		},
		{
			"bufferView":73,
			"componentType":5126,
			"count":45,
			"type":"VEC3"
		},
		{
			"bufferView":74,
			"componentType":5126,
			"count":45,
			"type":"VEC2"
		},
		{
			"bufferView":75,
			"componentType":5123,
			"count":207,
			"type":"SCALAR"
		},
		{
			"bufferView":76,
			"componentType":5126,
			"count":5,
			"max":[
				1.250058650970459,
				0.09089791774749756,
				6.518512725830078
			],
			"min":[
				-1.579158067703247,
				-0.020092129707336426,
				4.862420082092285
			],
			"type":"VEC3"
		},
		{
			"bufferView":77,
			"componentType":5126,
			"count":5,
			"type":"VEC3"
		},
		{
			"bufferView":78,
			"componentType":5126,
			"count":5,
			"type":"VEC2"
		},
		{
			"bufferView":79,
			"componentType":5123,
			"count":9,
			"type":"SCALAR"
		},
		{
			"bufferView":80,
			"componentType":5126,
			"count":33,
			"max":[
				-5.468131065368652,
				1.2656747102737427,
				1.6871353387832642
			],
			"min":[
				-7.851161479949951,
				-0.1622454822063446,
				-1.3142868280410767
			],
			"type":"VEC3"
		},
		{
			"bufferView":81,
			"componentType":5126,
			"count":33,
			"type":"VEC3"
		},
		{
			"bufferView":82,
			"componentType":5126,
			"count":33,
			"type":"VEC2"
		},
		{
			"bufferView":83,
			"componentType":5123,
			"count":138,
			"type":"SCALAR"
		},
		{
			"bufferView":84,
			"componentType":5126,
			"count":6,
			"max":[
				-5.544977188110352,
				-0.019933298230171204,
				1.5313159227371216
			],
			"min":[
				-7.771052837371826,
				-0.1622454822063446,
				-1.0464948415756226
			],
			"type":"VEC3"
		},
		{
			"bufferView":85,
			"componentType":5126,
			"count":6,
			"type":"VEC3"
		},
		{
			"bufferView":86,
			"componentType":5126,
			"count":6,
			"type":"VEC2"
		},
		{
			"bufferView":87,
			"componentType":5123,
			"count":12,
			"type":"SCALAR"
		},
		{
			"bufferView":88,
			"componentType":5126,
			"count":49,
			"max":[
				6.755011558532715,
				1.7526397705078125,
				5.921562194824219
			],
			"min":[
				2.1393754482269287,
				-0.18968565762043,
				0.2380131483078003
			],
			"type":"VEC3"
		},
		{
			"bufferView":89,
			"componentType":5126,
			"count":49,
			"type":"VEC3"
		},
		{
			"bufferView":90,
			"componentType":5126,
			"count":49,
			"type":"VEC2"
		},
		{
			"bufferView":91,
			"componentType":5123,
			"count":225,
			"type":"SCALAR"
		},
		{
			"bufferView":92,
			"componentType":5126,
			"count":7,
			"max":[
				6.43613338470459,
				0.003094121813774109,
				5.33670711517334
			],
			"min":[
				2.939560890197754,
				-0.18968565762043,
				0.6386693716049194
			],
			"type":"VEC3"
		},
		{
			"bufferView":93,
			"componentType":5126,
			"count":7,
			"type":"VEC3"
		},
		{
			"bufferView":94,
			"componentType":5126,
			"count":7,
			"type":"VEC2"
		},
		{
			"bufferView":95,
			"componentType":5123,
			"count":15,
			"type":"SCALAR"
		},
		{
			"bufferView":96,
			"componentType":5126,
			"count":22,
			"max":[
				2.3671960830688477,
				3.130159854888916,
				2.971433639526367
			],
			"min":[
				-0.330267071723938,
				0.8567270040512085,
				-0.4320228099822998
			],
			"type":"VEC3"
		},
		{
			"bufferView":97,
			"componentType":5126,
			"count":22,
			"type":"VEC3"
		},
		{
			"bufferView":98,
			"componentType":5126,
			"count":22,
			"type":"VEC2"
		},
		{
			"bufferView":99,
			"componentType":5123,
			"count":60,
			"type":"SCALAR"
		},
		{
			"bufferView":100,
			"componentType":5126,
			"count":22,
			"max":[
				3.8758435249328613,
				2.100698947906494,
				0.21989655494689941
			],
			"min":[
				1.1927282810211182,
				-0.20765718817710876,
				-3.17704439163208
			],
			"type":"VEC3"
		},
		{
			"bufferView":101,
			"componentType":5126,
			"count":22,
			"type":"VEC3"
		},
		{
			"bufferView":102,
			"componentType":5126,
			"count":22,
			"type":"VEC2"
		},
		{
			"bufferView":103,
			"componentType":5123,
			"count":60,
			"type":"SCALAR"
		},
		{
			"bufferView":104,
			"componentType":5126,
			"count":22,
			"max":[
				3.66909122467041,
				1.2200769186019897,
				1.6485313177108765
			],
			"min":[
				0.7483913898468018,
				-0.24884910881519318,
				-1.1553995609283447
			],
			"type":"VEC3"
		},
		{
			"bufferView":105,
			"componentType":5126,
			"count":22,
			"type":"VEC3"
		},
		{
			"bufferView":106,
			"componentType":5126,
			"count":22,
			"type":"VEC2"
		},
		{
			"bufferView":107,
			"componentType":5123,
			"count":60,
			"type":"SCALAR"
		},
		{
			"bufferView":108,
			"componentType":5126,
			"count":22,
			"max":[
				1.4797781705856323,
				0.8880493640899658,
				-0.3107631206512451
			],
			"min":[
				-1.4348071813583374,
				-0.6243320107460022,
				-3.0811069011688232
			],
			"type":"VEC3"
		},
		{
			"bufferView":109,
			"componentType":5126,
			"count":22,
			"type":"VEC3"
		},
		{
			"bufferView":110,
			"componentType":5126,
			"count":22,
			"type":"VEC2"
		},
		{
			"bufferView":111,
			"componentType":5123,
			"count":60,
			"type":"SCALAR"
		},
		{
			"bufferView":112,
			"componentType":5126,
			"count":18,
			"max":[
				-2.1932060718536377,
				1.923403024673462,
				0.5415068864822388
			],
			"min":[
				-3.389045000076294,
				-0.6215318441390991,
				-3.60783052444458
			],
			"type":"VEC3"
		},
		{
			"bufferView":113,
			"componentType":5126,
			"count":18,
			"type":"VEC3"
		},
		{
			"bufferView":114,
			"componentType":5126,
			"count":18,
			"type":"VEC2"
		},
		{
			"bufferView":115,
			"componentType":5123,
			"count":48,
			"type":"SCALAR"
		},
		{
			"bufferView":116,
			"componentType":5126,
			"count":18,
			"max":[
				-2.0739030838012695,
				3.1496024131774902,
				3.0886402130126953
			],
			"min":[
				-3.1212682723999023,
				1.0117114782333374,
				-0.274044394493103
			],
			"type":"VEC3"
		},
		{
			"bufferView":117,
			"componentType":5126,
			"count":18,
			"type":"VEC3"
		},
		{
			"bufferView":118,
			"componentType":5126,
			"count":18,
			"type":"VEC2"
		},
		{
			"bufferView":119,
			"componentType":5123,
			"count":48,
			"type":"SCALAR"
		},
		{
			"bufferView":120,
			"componentType":5126,
			"count":18,
			"max":[
				0.9249610900878906,
				2.5372986793518066,
				0.7568032741546631
			],
			"min":[
				-1.1438632011413574,
				-0.09212057292461395,
				-3.074644088745117
			],
			"type":"VEC3"
		},
		{
			"bufferView":121,
			"componentType":5126,
			"count":18,
			"type":"VEC3"
		},
		{
			"bufferView":122,
			"componentType":5126,
			"count":18,
			"type":"VEC2"
		},
		{
			"bufferView":123,
			"componentType":5123,
			"count":48,
			"type":"SCALAR"
		},
		{
			"bufferView":124,
			"componentType":5126,
			"count":18,
			"max":[
				0.1481339931488037,
				4.013052463531494,
				3.922689437866211
			],
			"min":[
				-2.043210744857788,
				1.2515438795089722,
				0.5190054178237915
			],
			"type":"VEC3"
		},
		{
			"bufferView":125,
			"componentType":5126,
			"count":18,
			"type":"VEC3"
		},
		{
			"bufferView":126,
			"componentType":5126,
			"count":18,
			"type":"VEC2"
		},
		{
			"bufferView":127,
			"componentType":5123,
			"count":48,
			"type":"SCALAR"
		},
		{
			"bufferView":128,
			"componentType":5126,
			"count":18,
			"max":[
				-0.14636147022247314,
				2.2296833992004395,
				-1.1720763444900513
			],
			"min":[
				-1.7478052377700806,
				0.5255818963050842,
				-4.826700687408447
			],
			"type":"VEC3"
		},
		{
			"bufferView":129,
			"componentType":5126,
			"count":18,
			"type":"VEC3"
		},
		{
			"bufferView":130,
			"componentType":5126,
			"count":18,
			"type":"VEC2"
		},
		{
			"bufferView":131,
			"componentType":5126,
			"count":18,
			"max":[
				-0.8686122894287109,
				1.5656598806381226,
				1.1701427698135376
			],
			"min":[
				-2.2756669521331787,
				0.10424774885177612,
				-1.797367811203003
			],
			"type":"VEC3"
		},
		{
			"bufferView":132,
			"componentType":5126,
			"count":18,
			"type":"VEC3"
		},
		{
			"bufferView":133,
			"componentType":5126,
			"count":18,
			"type":"VEC2"
		},
		{
			"bufferView":134,
			"componentType":5126,
			"count":22,
			"max":[
				-0.2569698095321655,
				1.9396597146987915,
				2.746788501739502
			],
			"min":[
				-4.359274864196777,
				0.32892173528671265,
				1.056160569190979
			],
			"type":"VEC3"
		},
		{
			"bufferView":135,
			"componentType":5126,
			"count":22,
			"type":"VEC3"
		},
		{
			"bufferView":136,
			"componentType":5126,
			"count":22,
			"type":"VEC2"
		},
		{
			"bufferView":137,
			"componentType":5123,
			"count":60,
			"type":"SCALAR"
		},
		{
			"bufferView":138,
			"componentType":5126,
			"count":22,
			"max":[
				3.7312870025634766,
				1.684746265411377,
				3.1689186096191406
			],
			"min":[
				-0.354897141456604,
				0.07024971395730972,
				1.4751702547073364
			],
			"type":"VEC3"
		},
		{
			"bufferView":139,
			"componentType":5126,
			"count":22,
			"type":"VEC3"
		},
		{
			"bufferView":140,
			"componentType":5126,
			"count":22,
			"type":"VEC2"
		},
		{
			"bufferView":141,
			"componentType":5123,
			"count":60,
			"type":"SCALAR"
		},
		{
			"bufferView":142,
			"componentType":5126,
			"count":13,
			"max":[
				3.8758435249328613,
				1.2673978805541992,
				-2.395782709121704
			],
			"min":[
				2.268674850463867,
				-0.20765718817710876,
				-3.17704439163208
			],
			"type":"VEC3"
		},
		{
			"bufferView":143,
			"componentType":5126,
			"count":13,
			"type":"VEC3"
		},
		{
			"bufferView":144,
			"componentType":5126,
			"count":13,
			"type":"VEC2"
		},
		{
			"bufferView":145,
			"componentType":5123,
			"count":24,
			"type":"SCALAR"
		},
		{
			"bufferView":146,
			"componentType":5126,
			"count":10,
			"max":[
				1.3055964708328247,
				3.130159854888916,
				2.971433639526367
			],
			"min":[
				-0.330267071723938,
				1.7249486446380615,
				2.1771421432495117
			],
			"type":"VEC3"
		},
		{
			"bufferView":147,
			"componentType":5126,
			"count":10,
			"type":"VEC3"
		},
		{
			"bufferView":148,
			"componentType":5126,
			"count":10,
			"type":"VEC2"
		},
		{
			"bufferView":149,
			"componentType":5123,
			"count":24,
			"type":"SCALAR"
		},
		{
			"bufferView":150,
			"componentType":5126,
			"count":10,
			"max":[
				-0.5117520093917847,
				0.7302371263504028,
				-1.8816251754760742
			],
			"min":[
				-1.4348071813583374,
				-0.6243320107460022,
				-3.0811069011688232
			],
			"type":"VEC3"
		},
		{
			"bufferView":151,
			"componentType":5126,
			"count":10,
			"type":"VEC3"
		},
		{
			"bufferView":152,
			"componentType":5126,
			"count":10,
			"type":"VEC2"
		},
		{
			"bufferView":153,
			"componentType":5123,
			"count":24,
			"type":"SCALAR"
		},
		{
			"bufferView":154,
			"componentType":5126,
			"count":10,
			"max":[
				3.66909122467041,
				1.2200769186019897,
				1.6485313177108765
			],
			"min":[
				2.7338056564331055,
				-0.047579050064086914,
				0.38187432289123535
			],
			"type":"VEC3"
		},
		{
			"bufferView":155,
			"componentType":5126,
			"count":10,
			"type":"VEC3"
		},
		{
			"bufferView":156,
			"componentType":5126,
			"count":10,
			"type":"VEC2"
		},
		{
			"bufferView":157,
			"componentType":5123,
			"count":24,
			"type":"SCALAR"
		},
		{
			"bufferView":158,
			"componentType":5126,
			"count":8,
			"max":[
				-2.0739030838012695,
				3.1496024131774902,
				3.0886402130126953
			],
			"min":[
				-3.028106212615967,
				2.052969455718994,
				2.334115505218506
			],
			"type":"VEC3"
		},
		{
			"bufferView":159,
			"componentType":5126,
			"count":8,
			"type":"VEC3"
		},
		{
			"bufferView":160,
			"componentType":5126,
			"count":8,
			"type":"VEC2"
		},
		{
			"bufferView":161,
			"componentType":5123,
			"count":18,
			"type":"SCALAR"
		},
		{
			"bufferView":162,
			"componentType":5126,
			"count":8,
			"max":[
				-2.2143821716308594,
				0.4729052186012268,
				-3.1359081268310547
			],
			"min":[
				-3.389045000076294,
				-0.6215318441390991,
				-3.60783052444458
			],
			"type":"VEC3"
		},
		{
			"bufferView":163,
			"componentType":5126,
			"count":8,
			"type":"VEC3"
		},
		{
			"bufferView":164,
			"componentType":5126,
			"count":8,
			"type":"VEC2"
		},
		{
			"bufferView":165,
			"componentType":5123,
			"count":18,
			"type":"SCALAR"
		},
		{
			"bufferView":166,
			"componentType":5126,
			"count":8,
			"max":[
				0.9249610900878906,
				1.100669264793396,
				-1.7817978858947754
			],
			"min":[
				-0.3929726481437683,
				-0.09212057292461395,
				-3.074644088745117
			],
			"type":"VEC3"
		},
		{
			"bufferView":167,
			"componentType":5126,
			"count":8,
			"type":"VEC3"
		},
		{
			"bufferView":168,
			"componentType":5126,
			"count":8,
			"type":"VEC2"
		},
		{
			"bufferView":169,
			"componentType":5123,
			"count":18,
			"type":"SCALAR"
		},
		{
			"bufferView":170,
			"componentType":5126,
			"count":8,
			"max":[
				-0.45519232749938965,
				4.013052463531494,
				3.922689437866211
			],
			"min":[
				-2.043210744857788,
				2.5105044841766357,
				3.3848395347595215
			],
			"type":"VEC3"
		},
		{
			"bufferView":171,
			"componentType":5126,
			"count":8,
			"type":"VEC3"
		},
		{
			"bufferView":172,
			"componentType":5126,
			"count":8,
			"type":"VEC2"
		},
		{
			"bufferView":173,
			"componentType":5123,
			"count":18,
			"type":"SCALAR"
		},
		{
			"bufferView":174,
			"componentType":5126,
			"count":8,
			"max":[
				-1.1794319152832031,
				1.0763702392578125,
				1.1701427698135376
			],
			"min":[
				-2.2756669521331787,
				0.10424774885177612,
				0.5287739038467407
			],
			"type":"VEC3"
		},
		{
			"bufferView":175,
			"componentType":5126,
			"count":8,
			"type":"VEC3"
		},
		{
			"bufferView":176,
			"componentType":5126,
			"count":8,
			"type":"VEC2"
		},
		{
			"bufferView":177,
			"componentType":5123,
			"count":18,
			"type":"SCALAR"
		},
		{
			"bufferView":178,
			"componentType":5126,
			"count":14,
			"max":[
				-0.14636147022247314,
				2.2296833992004395,
				-4.491716384887695
			],
			"min":[
				-1.3294490575790405,
				1.1000065803527832,
				-4.826700687408447
			],
			"type":"VEC3"
		},
		{
			"bufferView":179,
			"componentType":5126,
			"count":14,
			"type":"VEC3"
		},
		{
			"bufferView":180,
			"componentType":5126,
			"count":14,
			"type":"VEC2"
		},
		{
			"bufferView":181,
			"componentType":5123,
			"count":18,
			"type":"SCALAR"
		},
		{
			"bufferView":182,
			"componentType":5126,
			"count":10,
			"max":[
				3.7312870025634766,
				1.684746265411377,
				3.1689186096191406
			],
			"min":[
				3.1841187477111816,
				0.07024971395730972,
				1.6088095903396606
			],
			"type":"VEC3"
		},
		{
			"bufferView":183,
			"componentType":5126,
			"count":10,
			"type":"VEC3"
		},
		{
			"bufferView":184,
			"componentType":5126,
			"count":10,
			"type":"VEC2"
		},
		{
			"bufferView":185,
			"componentType":5123,
			"count":24,
			"type":"SCALAR"
		},
		{
			"bufferView":186,
			"componentType":5126,
			"count":10,
			"max":[
				-3.779865264892578,
				1.9396597146987915,
				2.6100306510925293
			],
			"min":[
				-4.359274864196777,
				0.32892173528671265,
				1.056160569190979
			],
			"type":"VEC3"
		},
		{
			"bufferView":187,
			"componentType":5126,
			"count":10,
			"type":"VEC3"
		},
		{
			"bufferView":188,
			"componentType":5126,
			"count":10,
			"type":"VEC2"
		},
		{
			"bufferView":189,
			"componentType":5123,
			"count":24,
			"type":"SCALAR"
		},
		{
			"bufferView":190,
			"componentType":5126,
			"count":25,
			"max":[
				5.559759616851807,
				1.0856292247772217,
				5.930153846740723
			],
			"min":[
				-6.252807140350342,
				0.023401722311973572,
				-5.882416248321533
			],
			"type":"VEC3"
		},
		{
			"bufferView":191,
			"componentType":5126,
			"count":25,
			"type":"VEC3"
		},
		{
			"bufferView":192,
			"componentType":5126,
			"count":25,
			"type":"VEC2"
		},
		{
			"bufferView":193,
			"componentType":5123,
			"count":96,
			"type":"SCALAR"
		}
	],
	"bufferViews":[
		{
			"buffer":0,
			"byteLength":444,
			"byteOffset":0,
			"target":34962
		},
		{
			"buffer":0,
			"byteLength":444,
			"byteOffset":444,
			"target":34962
		},
		{
			"buffer":0,
			"byteLength":296,
			"byteOffset":888,
			"target":34962
		},
		{
			"buffer":0,
			"byteLength":330,
			"byteOffset":1184,
			"target":34963
		},
		{
			"buffer":0,
			"byteLength":84,
			"byteOffset":1516,
			"target":34962
		},
		{
			"buffer":0,
			"byteLength":84,
			"byteOffset":1600,
			"target":34962
		},
		{
			"buffer":0,
			"byteLength":56,
			"byteOffset":1684,
			"target":34962
		},
		{
			"buffer":0,
			"byteLength":30,
			"byteOffset":1740,
			"target":34963
		},
		{
			"buffer":0,
			"byteLength":468,
			"byteOffset":1772,
			"target":34962
		},
		{
			"buffer":0,
			"byteLength":468,
			"byteOffset":2240,
			"target":34962
		},
		{
			"buffer":0,
			"byteLength":312,
			"byteOffset":2708,
			"target":34962
		},
		{
			"buffer":0,
			"byteLength":336,
			"byteOffset":3020,
			"target":34963
		},
		{
			"buffer":0,
			"byteLength":96,
			"byteOffset":3356,
			"target":34962
		},
		{
			"buffer":0,
			"byteLength":96,
			"byteOffset":3452,
			"target":34962
		},
		{
			"buffer":0,
			"byteLength":64,
			"byteOffset":3548,
			"target":34962
		},
		{
			"buffer":0,
			"byteLength":36,
			"byteOffset":3612,
			"target":34963
		},
		{
			"buffer":0,
			"byteLength":444,
			"byteOffset":3648,
			"target":34962
		},
		{
			"buffer":0,
			"byteLength":444,
			"byteOffset":4092,
			"target":34962
		},
		{
			"buffer":0,
			"byteLength":296,
			"byteOffset":4536,
			"target":34962
		},
		{
			"buffer":0,
			"byteLength":330,
			"byteOffset":4832,
			"target":34963
		},
		{
			"buffer":0,
			"byteLength":60,
			"byteOffset":5164,
			"target":34962
		},
		{
			"buffer":0,
			"byteLength":60,
			"byteOffset":5224,
			"target":34962
		},
		{
			"buffer":0,
			"byteLength":40,
			"byteOffset":5284,
			"target":34962
		},
		{
			"buffer":0,
			"byteLength":18,
			"byteOffset":5324,
			"target":34963
		},
		{
			"buffer":0,
			"byteLength":468,
			"byteOffset":5344,
			"target":34962
		},
		{
			"buffer":0,
			"byteLength":468,
			"byteOffset":5812,
			"target":34962
		},
		{
			"buffer":0,
			"byteLength":312,
			"byteOffset":6280,
			"target":34962
		},
		{
			"buffer":0,
			"byteLength":354,
			"byteOffset":6592,
			"target":34963
		},
		{
			"buffer":0,
			"byteLength":60,
			"byteOffset":6948,
			"target":34962
		},
		{
			"buffer":0,
			"byteLength":60,
			"byteOffset":7008,
			"target":34962
		},
		{
			"buffer":0,
			"byteLength":40,
			"byteOffset":7068,
			"target":34962
		},
		{
			"buffer":0,
			"byteLength":18,
			"byteOffset":7108,
			"target":34963
		},
		{
			"buffer":0,
			"byteLength":432,
			"byteOffset":7128,
			"target":34962
		},
		{
			"buffer":0,
			"byteLength":432,
			"byteOffset":7560,
			"target":34962
		},
		{
			"buffer":0,
			"byteLength":288,
			"byteOffset":7992,
			"target":34962
		},
		{
			"buffer":0,
			"byteLength":318,
			"byteOffset":8280,
			"target":34963
		},
		{
			"buffer":0,
			"byteLength":60,
			"byteOffset":8600,
			"target":34962
		},
		{
			"buffer":0,
			"byteLength":60,
			"byteOffset":8660,
			"target":34962
		},
		{
			"buffer":0,
			"byteLength":40,
			"byteOffset":8720,
			"target":34962
		},
		{
			"buffer":0,
			"byteLength":18,
			"byteOffset":8760,
			"target":34963
		},
		{
			"buffer":0,
			"byteLength":96,
			"byteOffset":8780,
			"target":34962
		},
		{
			"buffer":0,
			"byteLength":96,
			"byteOffset":8876,
			"target":34962
		},
		{
			"buffer":0,
			"byteLength":64,
			"byteOffset":8972,
			"target":34962
		},
		{
			"buffer":0,
			"byteLength":36,
			"byteOffset":9036,
			"target":34963
		},
		{
			"buffer":0,
			"byteLength":564,
			"byteOffset":9072,
			"target":34962
		},
		{
			"buffer":0,
			"byteLength":564,
			"byteOffset":9636,
			"target":34962
		},
		{
			"buffer":0,
			"byteLength":376,
			"byteOffset":10200,
			"target":34962
		},
		{
			"buffer":0,
			"byteLength":432,
			"byteOffset":10576,
			"target":34963
		},
		{
			"buffer":0,
			"byteLength":480,
			"byteOffset":11008,
			"target":34962
		},
		{
			"buffer":0,
			"byteLength":480,
			"byteOffset":11488,
			"target":34962
		},
		{
			"buffer":0,
			"byteLength":320,
			"byteOffset":11968,
			"target":34962
		},
		{
			"buffer":0,
			"byteLength":336,
			"byteOffset":12288,
			"target":34963
		},
		{
			"buffer":0,
			"byteLength":96,
			"byteOffset":12624,
			"target":34962
		},
		{
			"buffer":0,
			"byteLength":96,
			"byteOffset":12720,
			"target":34962
		},
		{
			"buffer":0,
			"byteLength":64,
			"byteOffset":12816,
			"target":34962
		},
		{
			"buffer":0,
			"byteLength":36,
			"byteOffset":12880,
			"target":34963
		},
		{
			"buffer":0,
			"byteLength":396,
			"byteOffset":12916,
			"target":34962
		},
		{
			"buffer":0,
			"byteLength":396,
			"byteOffset":13312,
			"target":34962
		},
		{
			"buffer":0,
			"byteLength":264,
			"byteOffset":13708,
			"target":34962
		},
		{
			"buffer":0,
			"byteLength":264,
			"byteOffset":13972,
			"target":34963
		},
		{
			"buffer":0,
			"byteLength":108,
			"byteOffset":14236,
			"target":34962
		},
		{
			"buffer":0,
			"byteLength":108,
			"byteOffset":14344,
			"target":34962
		},
		{
			"buffer":0,
			"byteLength":72,
			"byteOffset":14452,
			"target":34962
		},
		{
			"buffer":0,
			"byteLength":48,
			"byteOffset":14524,
			"target":34963
		},
		{
			"buffer":0,
			"byteLength":504,
			"byteOffset":14572,
			"target":34962
		},
		{
			"buffer":0,
			"byteLength":504,
			"byteOffset":15076,
			"target":34962
		},
		{
			"buffer":0,
			"byteLength":336,
			"byteOffset":15580,
			"target":34962
		},
		{
			"buffer":0,
			"byteLength":366,
			"byteOffset":15916,
			"target":34963
		},
		{
			"buffer":0,
			"byteLength":108,
			"byteOffset":16284,
			"target":34962
		},
		{
			"buffer":0,
			"byteLength":108,
			"byteOffset":16392,
			"target":34962
		},
		{
			"buffer":0,
			"byteLength":72,
			"byteOffset":16500,
			"target":34962
		},
		{
			"buffer":0,
			"byteLength":42,
			"byteOffset":16572,
			"target":34963
		},
		{
			"buffer":0,
			"byteLength":540,
			"byteOffset":16616,
			"target":34962
		},
		{
			"buffer":0,
			"byteLength":540,
			"byteOffset":17156,
			"target":34962
		},
		{
			"buffer":0,
			"byteLength":360,
			"byteOffset":17696,
			"target":34962
		},
		{
			"buffer":0,
			"byteLength":414,
			"byteOffset":18056,
			"target":34963
		},
		{
			"buffer":0,
			"byteLength":60,
			"byteOffset":18472,
			"target":34962
		},
		{
			"buffer":0,
			"byteLength":60,
			"byteOffset":18532,
			"target":34962
		},
		{
			"buffer":0,
			"byteLength":40,
			"byteOffset":18592,
			"target":34962
		},
		{
			"buffer":0,
			"byteLength":18,
			"byteOffset":18632,
			"target":34963
		},
		{
			"buffer":0,
			"byteLength":396,
			"byteOffset":18652,
			"target":34962
		},
		{
			"buffer":0,
			"byteLength":396,
			"byteOffset":19048,
			"target":34962
		},
		{
			"buffer":0,
			"byteLength":264,
			"byteOffset":19444,
			"target":34962
		},
		{
			"buffer":0,
			"byteLength":276,
			"byteOffset":19708,
			"target":34963
		},
		{
			"buffer":0,
			"byteLength":72,
			"byteOffset":19984,
			"target":34962
		},
		{
			"buffer":0,
			"byteLength":72,
			"byteOffset":20056,
			"target":34962
		},
		{
			"buffer":0,
			"byteLength":48,
			"byteOffset":20128,
			"target":34962
		},
		{
			"buffer":0,
			"byteLength":24,
			"byteOffset":20176,
			"target":34963
		},
		{
			"buffer":0,
			"byteLength":588,
			"byteOffset":20200,
			"target":34962
		},
		{
			"buffer":0,
			"byteLength":588,
			"byteOffset":20788,
			"target":34962
		},
		{
			"buffer":0,
			"byteLength":392,
			"byteOffset":21376,
			"target":34962
		},
		{
			"buffer":0,
			"byteLength":450,
			"byteOffset":21768,
			"target":34963
		},
		{
			"buffer":0,
			"byteLength":84,
			"byteOffset":22220,
			"target":34962
		},
		{
			"buffer":0,
			"byteLength":84,
			"byteOffset":22304,
			"target":34962
		},
		{
			"buffer":0,
			"byteLength":56,
			"byteOffset":22388,
			"target":34962
		},
		{
			"buffer":0,
			"byteLength":30,
			"byteOffset":22444,
			"target":34963
		},
		{
			"buffer":0,
			"byteLength":264,
			"byteOffset":22476,
			"target":34962
		},
		{
			"buffer":0,
			"byteLength":264,
			"byteOffset":22740,
			"target":34962
		},
		{
			"buffer":0,
			"byteLength":176,
			"byteOffset":23004,
			"target":34962
		},
		{
			"buffer":0,
			"byteLength":120,
			"byteOffset":23180,
			"target":34963
		},
		{
			"buffer":0,
			"byteLength":264,
			"byteOffset":23300,
			"target":34962
		},
		{
			"buffer":0,
			"byteLength":264,
			"byteOffset":23564,
			"target":34962
		},
		{
			"buffer":0,
			"byteLength":176,
			"byteOffset":23828,
			"target":34962
		},
		{
			"buffer":0,
			"byteLength":120,
			"byteOffset":24004,
			"target":34963
		},
		{
			"buffer":0,
			"byteLength":264,
			"byteOffset":24124,
			"target":34962
		},
		{
			"buffer":0,
			"byteLength":264,
			"byteOffset":24388,
			"target":34962
		},
		{
			"buffer":0,
			"byteLength":176,
			"byteOffset":24652,
			"target":34962
		},
		{
			"buffer":0,
			"byteLength":120,
			"byteOffset":24828,
			"target":34963
		},
		{
			"buffer":0,
			"byteLength":264,
			"byteOffset":24948,
			"target":34962
		},
		{
			"buffer":0,
			"byteLength":264,
			"byteOffset":25212,
			"target":34962
		},
		{
			"buffer":0,
			"byteLength":176,
			"byteOffset":25476,
			"target":34962
		},
		{
			"buffer":0,
			"byteLength":120,
			"byteOffset":25652,
			"target":34963
		},
		{
			"buffer":0,
			"byteLength":216,
			"byteOffset":25772,
			"target":34962
		},
		{
			"buffer":0,
			"byteLength":216,
			"byteOffset":25988,
			"target":34962
		},
		{
			"buffer":0,
			"byteLength":144,
			"byteOffset":26204,
			"target":34962
		},
		{
			"buffer":0,
			"byteLength":96,
			"byteOffset":26348,
			"target":34963
		},
		{
			"buffer":0,
			"byteLength":216,
			"byteOffset":26444,
			"target":34962
		},
		{
			"buffer":0,
			"byteLength":216,
			"byteOffset":26660,
			"target":34962
		},
		{
			"buffer":0,
			"byteLength":144,
			"byteOffset":26876,
			"target":34962
		},
		{
			"buffer":0,
			"byteLength":96,
			"byteOffset":27020,
			"target":34963
		},
		{
			"buffer":0,
			"byteLength":216,
			"byteOffset":27116,
			"target":34962
		},
		{
			"buffer":0,
			"byteLength":216,
			"byteOffset":27332,
			"target":34962
		},
		{
			"buffer":0,
			"byteLength":144,
			"byteOffset":27548,
			"target":34962
		},
		{
			"buffer":0,
			"byteLength":96,
			"byteOffset":27692,
			"target":34963
		},
		{
			"buffer":0,
			"byteLength":216,
			"byteOffset":27788,
			"target":34962
		},
		{
			"buffer":0,
			"byteLength":216,
			"byteOffset":28004,
			"target":34962
		},
		{
			"buffer":0,
			"byteLength":144,
			"byteOffset":28220,
			"target":34962
		},
		{
			"buffer":0,
			"byteLength":96,
			"byteOffset":28364,
			"target":34963
		},
		{
			"buffer":0,
			"byteLength":216,
			"byteOffset":28460,
			"target":34962
		},
		{
			"buffer":0,
			"byteLength":216,
			"byteOffset":28676,
			"target":34962
		},
		{
			"buffer":0,
			"byteLength":144,
			"byteOffset":28892,
			"target":34962
		},
		{
			"buffer":0,
			"byteLength":216,
			"byteOffset":29036,
			"target":34962
		},
		{
			"buffer":0,
			"byteLength":216,
			"byteOffset":29252,
			"target":34962
		},
		{
			"buffer":0,
			"byteLength":144,
			"byteOffset":29468,
			"target":34962
		},
		{
			"buffer":0,
			"byteLength":264,
			"byteOffset":29612,
			"target":34962
		},
		{
			"buffer":0,
			"byteLength":264,
			"byteOffset":29876,
			"target":34962
		},
		{
			"buffer":0,
			"byteLength":176,
			"byteOffset":30140,
			"target":34962
		},
		{
			"buffer":0,
			"byteLength":120,
			"byteOffset":30316,
			"target":34963
		},
		{
			"buffer":0,
			"byteLength":264,
			"byteOffset":30436,
			"target":34962
		},
		{
			"buffer":0,
			"byteLength":264,
			"byteOffset":30700,
			"target":34962
		},
		{
			"buffer":0,
			"byteLength":176,
			"byteOffset":30964,
			"target":34962
		},
		{
			"buffer":0,
			"byteLength":120,
			"byteOffset":31140,
			"target":34963
		},
		{
			"buffer":0,
			"byteLength":156,
			"byteOffset":31260,
			"target":34962
		},
		{
			"buffer":0,
			"byteLength":156,
			"byteOffset":31416,
			"target":34962
		},
		{
			"buffer":0,
			"byteLength":104,
			"byteOffset":31572,
			"target":34962
		},
		{
			"buffer":0,
			"byteLength":48,
			"byteOffset":31676,
			"target":34963
		},
		{
			"buffer":0,
			"byteLength":120,
			"byteOffset":31724,
			"target":34962
		},
		{
			"buffer":0,
			"byteLength":120,
			"byteOffset":31844,
			"target":34962
		},
		{
			"buffer":0,
			"byteLength":80,
			"byteOffset":31964,
			"target":34962
		},
		{
			"buffer":0,
			"byteLength":48,
			"byteOffset":32044,
			"target":34963
		},
		{
			"buffer":0,
			"byteLength":120,
			"byteOffset":32092,
			"target":34962
		},
		{
			"buffer":0,
			"byteLength":120,
			"byteOffset":32212,
			"target":34962
		},
		{
			"buffer":0,
			"byteLength":80,
			"byteOffset":32332,
			"target":34962
		},
		{
			"buffer":0,
			"byteLength":48,
			"byteOffset":32412,
			"target":34963
		},
		{
			"buffer":0,
			"byteLength":120,
			"byteOffset":32460,
			"target":34962
		},
		{
			"buffer":0,
			"byteLength":120,
			"byteOffset":32580,
			"target":34962
		},
		{
			"buffer":0,
			"byteLength":80,
			"byteOffset":32700,
			"target":34962
		},
		{
			"buffer":0,
			"byteLength":48,
			"byteOffset":32780,
			"target":34963
		},
		{
			"buffer":0,
			"byteLength":96,
			"byteOffset":32828,
			"target":34962
		},
		{
			"buffer":0,
			"byteLength":96,
			"byteOffset":32924,
			"target":34962
		},
		{
			"buffer":0,
			"byteLength":64,
			"byteOffset":33020,
			"target":34962
		},
		{
			"buffer":0,
			"byteLength":36,
			"byteOffset":33084,
			"target":34963
		},
		{
			"buffer":0,
			"byteLength":96,
			"byteOffset":33120,
			"target":34962
		},
		{
			"buffer":0,
			"byteLength":96,
			"byteOffset":33216,
			"target":34962
		},
		{
			"buffer":0,
			"byteLength":64,
			"byteOffset":33312,
			"target":34962
		},
		{
			"buffer":0,
			"byteLength":36,
			"byteOffset":33376,
			"target":34963
		},
		{
			"buffer":0,
			"byteLength":96,
			"byteOffset":33412,
			"target":34962
		},
		{
			"buffer":0,
			"byteLength":96,
			"byteOffset":33508,
			"target":34962
		},
		{
			"buffer":0,
			"byteLength":64,
			"byteOffset":33604,
			"target":34962
		},
		{
			"buffer":0,
			"byteLength":36,
			"byteOffset":33668,
			"target":34963
		},
		{
			"buffer":0,
			"byteLength":96,
			"byteOffset":33704,
			"target":34962
		},
		{
			"buffer":0,
			"byteLength":96,
			"byteOffset":33800,
			"target":34962
		},
		{
			"buffer":0,
			"byteLength":64,
			"byteOffset":33896,
			"target":34962
		},
		{
			"buffer":0,
			"byteLength":36,
			"byteOffset":33960,
			"target":34963
		},
		{
			"buffer":0,
			"byteLength":96,
			"byteOffset":33996,
			"target":34962
		},
		{
			"buffer":0,
			"byteLength":96,
			"byteOffset":34092,
			"target":34962
		},
		{
			"buffer":0,
			"byteLength":64,
			"byteOffset":34188,
			"target":34962
		},
		{
			"buffer":0,
			"byteLength":36,
			"byteOffset":34252,
			"target":34963
		},
		{
			"buffer":0,
			"byteLength":168,
			"byteOffset":34288,
			"target":34962
		},
		{
			"buffer":0,
			"byteLength":168,
			"byteOffset":34456,
			"target":34962
		},
		{
			"buffer":0,
			"byteLength":112,
			"byteOffset":34624,
			"target":34962
		},
		{
			"buffer":0,
			"byteLength":36,
			"byteOffset":34736,
			"target":34963
		},
		{
			"buffer":0,
			"byteLength":120,
			"byteOffset":34772,
			"target":34962
		},
		{
			"buffer":0,
			"byteLength":120,
			"byteOffset":34892,
			"target":34962
		},
		{
			"buffer":0,
			"byteLength":80,
			"byteOffset":35012,
			"target":34962
		},
		{
			"buffer":0,
			"byteLength":48,
			"byteOffset":35092,
			"target":34963
		},
		{
			"buffer":0,
			"byteLength":120,
			"byteOffset":35140,
			"target":34962
		},
		{
			"buffer":0,
			"byteLength":120,
			"byteOffset":35260,
			"target":34962
		},
		{
			"buffer":0,
			"byteLength":80,
			"byteOffset":35380,
			"target":34962
		},
		{
			"buffer":0,
			"byteLength":48,
			"byteOffset":35460,
			"target":34963
		},
		{
			"buffer":0,
			"byteLength":300,
			"byteOffset":35508,
			"target":34962
		},
		{
			"buffer":0,
			"byteLength":300,
			"byteOffset":35808,
			"target":34962
		},
		{
			"buffer":0,
			"byteLength":200,
			"byteOffset":36108,
			"target":34962
		},
		{
			"buffer":0,
			"byteLength":192,
			"byteOffset":36308,
			"target":34963
		}
	],
	"samplers":[
		{
			"magFilter":9729,
			"minFilter":9987
		}
	],
	"buffers":[
		{
			"byteLength":36500,
			"uri":"BonFire.bin"
		}
	]
}
