{
	"asset":{
		"generator":"Khronos glTF Blender I/O v4.4.56",
		"version":"2.0"
	},
	"extensionsUsed":[
		"KHR_materials_specular"
	],
	"scene":0,
	"scenes":[
		{
			"name":"Scene",
			"nodes":[
				0
			]
		}
	],
	"nodes":[
		{
			"mesh":0,
			"name":"Vampire.002"
		}
	],
	"materials":[
		{
			"doubleSided":true,
			"emissiveFactor":[
				1,
				1,
				1
			],
			"emissiveTexture":{
				"index":0
			},
			"extensions":{
				"KHR_materials_specular":{
					"specularTexture":{
						"index":1
					}
				}
			},
			"name":"Vampire_MAT1.001",
			"normalTexture":{
				"index":2
			},
			"pbrMetallicRoughness":{
				"baseColorTexture":{
					"index":3
				},
				"roughnessFactor":0.858578622341156
			}
		},
		{
			"alphaMode":"BLEND",
			"doubleSided":true,
			"emissiveFactor":[
				1,
				1,
				1
			],
			"emissiveTexture":{
				"index":4
			},
			"extensions":{
				"KHR_materials_specular":{
					"specularTexture":{
						"index":5
					}
				}
			},
			"name":"Vampire_MAT_Transparent.001",
			"normalTexture":{
				"index":6
			},
			"pbrMetallicRoughness":{
				"baseColorTexture":{
					"index":7
				},
				"roughnessFactor":0.858578622341156
			}
		}
	],
	"meshes":[
		{
			"name":"Vampire.001",
			"primitives":[
				{
					"attributes":{
						"POSITION":0,
						"NORMAL":1,
						"TEXCOORD_0":2
					},
					"indices":3,
					"material":0
				},
				{
					"attributes":{
						"POSITION":4,
						"NORMAL":5,
						"TEXCOORD_0":6
					},
					"indices":7,
					"material":1
				}
			]
		}
	],
	"textures":[
		{
			"sampler":0,
			"source":0
		},
		{
			"sampler":0,
			"source":1
		},
		{
			"sampler":0,
			"source":2
		},
		{
			"sampler":0,
			"source":3
		},
		{
			"sampler":0,
			"source":0
		},
		{
			"sampler":0,
			"source":1
		},
		{
			"sampler":0,
			"source":2
		},
		{
			"sampler":0,
			"source":4
		}
	],
	"images":[
		{
			"mimeType":"image/png",
			"name":"Vampire_emission",
			"uri":"Vampire_emission.png"
		},
		{
			"mimeType":"image/png",
			"name":"Vampire_specular",
			"uri":"Vampire_specular.png"
		},
		{
			"mimeType":"image/png",
			"name":"Vampire_normal",
			"uri":"Vampire_normal.png"
		},
		{
			"mimeType":"image/png",
			"name":"Vampire_diffuse",
			"uri":"Vampire_diffuse.png"
		},
		{
			"mimeType":"image/png",
			"name":"Vampire_diffuse_transparent",
			"uri":"Vampire_diffuse_transparent.png"
		}
	],
	"accessors":[
		{
			"bufferView":0,
			"componentType":5126,
			"count":993,
			"max":[
				0.21938428282737732,
				0.16745464503765106,
				0.03400551900267601
			],
			"min":[
				-0.7627520561218262,
				-0.4002198576927185,
				-0.04589831084012985
			],
			"type":"VEC3"
		},
		{
			"bufferView":1,
			"componentType":5126,
			"count":993,
			"type":"VEC3"
		},
		{
			"bufferView":2,
			"componentType":5126,
			"count":993,
			"type":"VEC2"
		},
		{
			"bufferView":3,
			"componentType":5123,
			"count":4911,
			"type":"SCALAR"
		},
		{
			"bufferView":4,
			"componentType":5126,
			"count":12,
			"max":[
				0.19913187623023987,
				0.08152107149362564,
				-0.0028331726789474487
			],
			"min":[
				0.10562179982662201,
				-0.1357627809047699,
				-0.0054887402802705765
			],
			"type":"VEC3"
		},
		{
			"bufferView":5,
			"componentType":5126,
			"count":12,
			"type":"VEC3"
		},
		{
			"bufferView":6,
			"componentType":5126,
			"count":12,
			"type":"VEC2"
		},
		{
			"bufferView":7,
			"componentType":5123,
			"count":36,
			"type":"SCALAR"
		}
	],
	"bufferViews":[
		{
			"buffer":0,
			"byteLength":11916,
			"byteOffset":0,
			"target":34962
		},
		{
			"buffer":0,
			"byteLength":11916,
			"byteOffset":11916,
			"target":34962
		},
		{
			"buffer":0,
			"byteLength":7944,
			"byteOffset":23832,
			"target":34962
		},
		{
			"buffer":0,
			"byteLength":9822,
			"byteOffset":31776,
			"target":34963
		},
		{
			"buffer":0,
			"byteLength":144,
			"byteOffset":41600,
			"target":34962
		},
		{
			"buffer":0,
			"byteLength":144,
			"byteOffset":41744,
			"target":34962
		},
		{
			"buffer":0,
			"byteLength":96,
			"byteOffset":41888,
			"target":34962
		},
		{
			"buffer":0,
			"byteLength":72,
			"byteOffset":41984,
			"target":34963
		}
	],
	"samplers":[
		{
			"magFilter":9729,
			"minFilter":9987
		}
	],
	"buffers":[
		{
			"byteLength":42056,
			"uri":"VampireALusthRightWeapon.bin"
		}
	]
}
