{
	"asset":{
		"generator":"Khronos glTF Blender I/O v4.4.56",
		"version":"2.0"
	},
	"scene":0,
	"scenes":[
		{
			"name":"Scene",
			"nodes":[
				0
			]
		}
	],
	"nodes":[
		{
			"mesh":0,
			"name":"Katana_Body",
			"rotation":[
				-0.20146270096302032,
				0,
				0,
				0.9794963002204895
			],
			"translation":[
				0,
				-0.030809640884399414,
				0
			]
		}
	],
	"materials":[
		{
			"alphaMode":"BLEND",
			"doubleSided":true,
			"name":"Katana",
			"pbrMetallicRoughness":{
				"baseColorTexture":{
					"index":0
				}
			}
		}
	],
	"meshes":[
		{
			"name":"Katana.001",
			"primitives":[
				{
					"attributes":{
						"POSITION":0,
						"NORMAL":1,
						"TEXCOORD_0":2
					},
					"indices":3,
					"material":0
				}
			]
		}
	],
	"textures":[
		{
			"sampler":0,
			"source":0
		}
	],
	"images":[
		{
			"mimeType":"image/png",
			"name":"Katana_BaseColor",
			"uri":"Katana_BaseColor.png"
		}
	],
	"accessors":[
		{
			"bufferView":0,
			"componentType":5126,
			"count":662,
			"max":[
				0.04834901541471481,
				0.6997918486595154,
				0.18568439781665802
			],
			"min":[
				-0.039889492094516754,
				-0.07283571362495422,
				-0.9749588966369629
			],
			"type":"VEC3"
		},
		{
			"bufferView":1,
			"componentType":5126,
			"count":662,
			"type":"VEC3"
		},
		{
			"bufferView":2,
			"componentType":5126,
			"count":662,
			"type":"VEC2"
		},
		{
			"bufferView":3,
			"componentType":5123,
			"count":1602,
			"type":"SCALAR"
		}
	],
	"bufferViews":[
		{
			"buffer":0,
			"byteLength":7944,
			"byteOffset":0,
			"target":34962
		},
		{
			"buffer":0,
			"byteLength":7944,
			"byteOffset":7944,
			"target":34962
		},
		{
			"buffer":0,
			"byteLength":5296,
			"byteOffset":15888,
			"target":34962
		},
		{
			"buffer":0,
			"byteLength":3204,
			"byteOffset":21184,
			"target":34963
		}
	],
	"samplers":[
		{
			"magFilter":9729,
			"minFilter":9987
		}
	],
	"buffers":[
		{
			"byteLength":24388,
			"uri":"Katana1.bin"
		}
	]
}
