{
	"asset":{
		"generator":"Khronos glTF Blender I/O v4.4.56",
		"version":"2.0"
	},
	"scene":0,
	"scenes":[
		{
			"name":"Scene",
			"nodes":[
				0
			]
		}
	],
	"nodes":[
		{
			"mesh":0,
			"name":"Saya_Body"
		}
	],
	"materials":[
		{
			"alphaMode":"BLEND",
			"doubleSided":true,
			"name":"Katana.001",
			"pbrMetallicRoughness":{
				"baseColorTexture":{
					"index":0
				}
			}
		}
	],
	"meshes":[
		{
			"extras":{
				"targetNames":[
					"saya_short",
					"saya_long",
					"rope_off",
					"all_shrink",
					"Basis.001"
				]
			},
			"name":"Saya.001",
			"primitives":[
				{
					"attributes":{
						"POSITION":0,
						"NORMAL":1,
						"TEXCOORD_0":2
					},
					"indices":3,
					"material":0,
					"targets":[
						{
							"POSITION":4,
							"NORMAL":5
						},
						{
							"POSITION":6,
							"NORMAL":7
						},
						{
							"POSITION":8,
							"NORMAL":9
						},
						{
							"POSITION":10,
							"NORMAL":11
						},
						{
							"POSITION":12,
							"NORMAL":13
						}
					]
				}
			],
			"weights":[
				0,
				0,
				0,
				0,
				0
			]
		}
	],
	"textures":[
		{
			"sampler":0,
			"source":0
		}
	],
	"images":[
		{
			"mimeType":"image/png",
			"name":"Katana_BaseColor",
			"uri":"Katana_BaseColor.png"
		}
	],
	"accessors":[
		{
			"bufferView":0,
			"componentType":5126,
			"count":3064,
			"max":[
				0.14185139536857605,
				0.03721445053815842,
				0.34019261598587036
			],
			"min":[
				-0.8339871764183044,
				-0.06621333211660385,
				-0.07228048890829086
			],
			"type":"VEC3"
		},
		{
			"bufferView":1,
			"componentType":5126,
			"count":3064,
			"type":"VEC3"
		},
		{
			"bufferView":2,
			"componentType":5126,
			"count":3064,
			"type":"VEC2"
		},
		{
			"bufferView":3,
			"componentType":5123,
			"count":12954,
			"type":"SCALAR"
		},
		{
			"componentType":5126,
			"count":3064,
			"max":[
				0.1759825348854065,
				0.0003893934190273285,
				0.0015211552381515503
			],
			"min":[
				-1.043081283569336e-07,
				-0.010830521583557129,
				-0.06743940711021423
			],
			"sparse":{
				"count":749,
				"indices":{
					"bufferView":4,
					"componentType":5123
				},
				"values":{
					"bufferView":5
				}
			},
			"type":"VEC3"
		},
		{
			"bufferView":6,
			"componentType":5126,
			"count":3064,
			"type":"VEC3"
		},
		{
			"componentType":5126,
			"count":3064,
			"max":[
				0,
				0.0032912492752075195,
				0.06831514835357666
			],
			"min":[
				-0.17070025205612183,
				-1.862645149230957e-08,
				0
			],
			"sparse":{
				"count":689,
				"indices":{
					"bufferView":7,
					"componentType":5123
				},
				"values":{
					"bufferView":8
				}
			},
			"type":"VEC3"
		},
		{
			"bufferView":9,
			"componentType":5126,
			"count":3064,
			"type":"VEC3"
		},
		{
			"componentType":5126,
			"count":3064,
			"max":[
				7.777661085128784e-05,
				0.00013649649918079376,
				0.00031292345374822617
			],
			"min":[
				-1.043081283569336e-07,
				-1.7508864402770996e-07,
				-3.995373845100403e-07
			],
			"sparse":{
				"count":83,
				"indices":{
					"bufferView":10,
					"componentType":5123
				},
				"values":{
					"bufferView":11
				}
			},
			"type":"VEC3"
		},
		{
			"bufferView":12,
			"componentType":5126,
			"count":3064,
			"type":"VEC3"
		},
		{
			"bufferView":13,
			"componentType":5126,
			"count":3064,
			"max":[
				0.002205580472946167,
				0.009226202964782715,
				0.0037224916741251945
			],
			"min":[
				-0.00015419721603393555,
				-0.010546574369072914,
				-0.005059570074081421
			],
			"type":"VEC3"
		},
		{
			"bufferView":14,
			"componentType":5126,
			"count":3064,
			"type":"VEC3"
		},
		{
			"componentType":5126,
			"count":3064,
			"max":[
				0,
				0,
				0
			],
			"min":[
				0,
				0,
				0
			],
			"sparse":{
				"count":1,
				"indices":{
					"bufferView":15,
					"componentType":5121
				},
				"values":{
					"bufferView":16
				}
			},
			"type":"VEC3"
		},
		{
			"bufferView":17,
			"componentType":5126,
			"count":3064,
			"type":"VEC3"
		}
	],
	"bufferViews":[
		{
			"buffer":0,
			"byteLength":36768,
			"byteOffset":0,
			"target":34962
		},
		{
			"buffer":0,
			"byteLength":36768,
			"byteOffset":36768,
			"target":34962
		},
		{
			"buffer":0,
			"byteLength":24512,
			"byteOffset":73536,
			"target":34962
		},
		{
			"buffer":0,
			"byteLength":25908,
			"byteOffset":98048,
			"target":34963
		},
		{
			"buffer":0,
			"byteLength":1498,
			"byteOffset":123956
		},
		{
			"buffer":0,
			"byteLength":8988,
			"byteOffset":125456
		},
		{
			"buffer":0,
			"byteLength":36768,
			"byteOffset":134444,
			"target":34962
		},
		{
			"buffer":0,
			"byteLength":1378,
			"byteOffset":171212
		},
		{
			"buffer":0,
			"byteLength":8268,
			"byteOffset":172592
		},
		{
			"buffer":0,
			"byteLength":36768,
			"byteOffset":180860,
			"target":34962
		},
		{
			"buffer":0,
			"byteLength":166,
			"byteOffset":217628
		},
		{
			"buffer":0,
			"byteLength":996,
			"byteOffset":217796
		},
		{
			"buffer":0,
			"byteLength":36768,
			"byteOffset":218792,
			"target":34962
		},
		{
			"buffer":0,
			"byteLength":36768,
			"byteOffset":255560,
			"target":34962
		},
		{
			"buffer":0,
			"byteLength":36768,
			"byteOffset":292328,
			"target":34962
		},
		{
			"buffer":0,
			"byteLength":1,
			"byteOffset":329096
		},
		{
			"buffer":0,
			"byteLength":12,
			"byteOffset":329100
		},
		{
			"buffer":0,
			"byteLength":36768,
			"byteOffset":329112,
			"target":34962
		}
	],
	"samplers":[
		{
			"magFilter":9729,
			"minFilter":9987
		}
	],
	"buffers":[
		{
			"byteLength":365880,
			"uri":"Saya1.bin"
		}
	]
}
