{
	"asset":{
		"generator":"Khronos glTF Blender I/O v4.4.56",
		"version":"2.0"
	},
	"scene":0,
	"scenes":[
		{
			"name":"Scene",
			"nodes":[
				0
			]
		}
	],
	"nodes":[
		{
			"mesh":0,
			"name":"Saya_Body"
		}
	],
	"materials":[
		{
			"alphaMode":"BLEND",
			"doubleSided":true,
			"name":"Katana.001",
			"pbrMetallicRoughness":{
				"baseColorTexture":{
					"index":0
				}
			}
		}
	],
	"meshes":[
		{
			"extras":{
				"targetNames":[
					"saya_short",
					"saya_long",
					"rope_off",
					"all_shrink",
					"Basis.001"
				]
			},
			"name":"Saya.001",
			"primitives":[
				{
					"attributes":{
						"POSITION":0,
						"NORMAL":1,
						"TEXCOORD_0":2
					},
					"indices":3,
					"material":0,
					"targets":[
						{
							"POSITION":4,
							"NORMAL":5
						},
						{
							"POSITION":6,
							"NORMAL":7
						},
						{
							"POSITION":8,
							"NORMAL":9
						},
						{
							"POSITION":10,
							"NORMAL":11
						},
						{
							"POSITION":12,
							"NORMAL":13
						}
					]
				}
			],
			"weights":[
				0,
				0,
				0,
				0,
				0
			]
		}
	],
	"textures":[
		{
			"sampler":0,
			"source":0
		}
	],
	"images":[
		{
			"mimeType":"image/png",
			"name":"Katana_BaseColor",
			"uri":"Katana_BaseColor.png"
		}
	],
	"accessors":[
		{
			"bufferView":0,
			"componentType":5126,
			"count":3075,
			"max":[
				0.14185139536857605,
				0.1917407512664795,
				0.06593044102191925
			],
			"min":[
				-0.8339871764183044,
				-0.047384120523929596,
				-0.29304781556129456
			],
			"type":"VEC3"
		},
		{
			"bufferView":1,
			"componentType":5126,
			"count":3075,
			"type":"VEC3"
		},
		{
			"bufferView":2,
			"componentType":5126,
			"count":3075,
			"type":"VEC2"
		},
		{
			"bufferView":3,
			"componentType":5123,
			"count":12954,
			"type":"SCALAR"
		},
		{
			"componentType":5126,
			"count":3075,
			"max":[
				0.1759825348854065,
				0.004788566380739212,
				0.062487825751304626
			],
			"min":[
				-1.043081283569336e-07,
				-0.026670344173908234,
				-0.0009679347276687622
			],
			"sparse":{
				"count":759,
				"indices":{
					"bufferView":4,
					"componentType":5123
				},
				"values":{
					"bufferView":5
				}
			},
			"type":"VEC3"
		},
		{
			"bufferView":6,
			"componentType":5126,
			"count":3075,
			"type":"VEC3"
		},
		{
			"componentType":5126,
			"count":3075,
			"max":[
				0,
				0.03130728006362915,
				0
			],
			"min":[
				-0.17070025205612183,
				-9.313225746154785e-09,
				-0.06080830097198486
			],
			"sparse":{
				"count":699,
				"indices":{
					"bufferView":7,
					"componentType":5123
				},
				"values":{
					"bufferView":8
				}
			},
			"type":"VEC3"
		},
		{
			"bufferView":9,
			"componentType":5126,
			"count":3075,
			"type":"VEC3"
		},
		{
			"componentType":5126,
			"count":3075,
			"max":[
				7.777661085128784e-05,
				3.8251280784606934e-05,
				4.330649971961975e-07
			],
			"min":[
				-1.043081283569336e-07,
				-4.936009645462036e-08,
				-0.00033924728631973267
			],
			"sparse":{
				"count":83,
				"indices":{
					"bufferView":10,
					"componentType":5123
				},
				"values":{
					"bufferView":11
				}
			},
			"type":"VEC3"
		},
		{
			"bufferView":12,
			"componentType":5126,
			"count":3075,
			"type":"VEC3"
		},
		{
			"bufferView":13,
			"componentType":5126,
			"count":3075,
			"max":[
				0.002205580472946167,
				0.01099485158920288,
				0.002049514092504978
			],
			"min":[
				-0.00015419721603393555,
				-0.010519921779632568,
				-0.00025844573974609375
			],
			"type":"VEC3"
		},
		{
			"bufferView":14,
			"componentType":5126,
			"count":3075,
			"type":"VEC3"
		},
		{
			"componentType":5126,
			"count":3075,
			"max":[
				0,
				0,
				0
			],
			"min":[
				0,
				0,
				0
			],
			"sparse":{
				"count":1,
				"indices":{
					"bufferView":15,
					"componentType":5121
				},
				"values":{
					"bufferView":16
				}
			},
			"type":"VEC3"
		},
		{
			"bufferView":17,
			"componentType":5126,
			"count":3075,
			"type":"VEC3"
		}
	],
	"bufferViews":[
		{
			"buffer":0,
			"byteLength":36900,
			"byteOffset":0,
			"target":34962
		},
		{
			"buffer":0,
			"byteLength":36900,
			"byteOffset":36900,
			"target":34962
		},
		{
			"buffer":0,
			"byteLength":24600,
			"byteOffset":73800,
			"target":34962
		},
		{
			"buffer":0,
			"byteLength":25908,
			"byteOffset":98400,
			"target":34963
		},
		{
			"buffer":0,
			"byteLength":1518,
			"byteOffset":124308
		},
		{
			"buffer":0,
			"byteLength":9108,
			"byteOffset":125828
		},
		{
			"buffer":0,
			"byteLength":36900,
			"byteOffset":134936,
			"target":34962
		},
		{
			"buffer":0,
			"byteLength":1398,
			"byteOffset":171836
		},
		{
			"buffer":0,
			"byteLength":8388,
			"byteOffset":173236
		},
		{
			"buffer":0,
			"byteLength":36900,
			"byteOffset":181624,
			"target":34962
		},
		{
			"buffer":0,
			"byteLength":166,
			"byteOffset":218524
		},
		{
			"buffer":0,
			"byteLength":996,
			"byteOffset":218692
		},
		{
			"buffer":0,
			"byteLength":36900,
			"byteOffset":219688,
			"target":34962
		},
		{
			"buffer":0,
			"byteLength":36900,
			"byteOffset":256588,
			"target":34962
		},
		{
			"buffer":0,
			"byteLength":36900,
			"byteOffset":293488,
			"target":34962
		},
		{
			"buffer":0,
			"byteLength":1,
			"byteOffset":330388
		},
		{
			"buffer":0,
			"byteLength":12,
			"byteOffset":330392
		},
		{
			"buffer":0,
			"byteLength":36900,
			"byteOffset":330404,
			"target":34962
		}
	],
	"samplers":[
		{
			"magFilter":9729,
			"minFilter":9987
		}
	],
	"buffers":[
		{
			"byteLength":367304,
			"uri":"Saya2.bin"
		}
	]
}
