{
	"asset":{
		"generator":"Khronos glTF Blender I/O v4.4.56",
		"version":"2.0"
	},
	"scene":0,
	"scenes":[
		{
			"name":"Scene",
			"nodes":[
				40
			]
		}
	],
	"nodes":[
		{
			"mesh":0,
			"name":"Shrine_Water_Bamboo.003_Shrine_Water_Bamboo_0.002"
		},
		{
			"children":[
				0
			],
			"name":"Shrine_Water_Bamboo.005"
		},
		{
			"mesh":1,
			"name":"Shrine_Water_Bamboo.004_Shrine_Water_Bamboo_0.002"
		},
		{
			"children":[
				2
			],
			"name":"Shrine_Water_Bamboo.006"
		},
		{
			"mesh":2,
			"name":"Shrine_Water_Bamboo_a_001.001_Shrine_Water_Bamboo_a_001_0.002"
		},
		{
			"children":[
				4
			],
			"name":"Shrine_Water_Bamboo_a_001.003"
		},
		{
			"mesh":3,
			"name":"Shrine_Water_Bamboo_a_002.001_Shrine_Water_Bamboo_a_002_0.002"
		},
		{
			"children":[
				6
			],
			"name":"Shrine_Water_Bamboo_a_002.003"
		},
		{
			"mesh":4,
			"name":"Shrine_Water_Bamboo_Stand.001_Shrine_Water_Bamboo_Stand_0.002"
		},
		{
			"children":[
				8
			],
			"name":"Shrine_Water_Bamboo_Stand.003"
		},
		{
			"mesh":5,
			"name":"Shrine_Water_Base.001_Shrine_Water_Base_0.002"
		},
		{
			"children":[
				10
			],
			"name":"Shrine_Water_Base.003"
		},
		{
			"mesh":6,
			"name":"Shrine_Water_Design_001.001_Shrine_Water_Design_001_0.002"
		},
		{
			"children":[
				12
			],
			"name":"Shrine_Water_Design_001.003"
		},
		{
			"mesh":7,
			"name":"Shrine_Water_Design_002.001_Shrine_Water_Design_002_0.002"
		},
		{
			"children":[
				14
			],
			"name":"Shrine_Water_Design_002.003"
		},
		{
			"mesh":8,
			"name":"Shrine_Water_Mid_001.001_Shrine_Water_Mid_001_0.002"
		},
		{
			"children":[
				16
			],
			"name":"Shrine_Water_Mid_001.003"
		},
		{
			"mesh":9,
			"name":"Shrine_Water_Mid_002.001_Shrine_Water_Mid_002_0.002"
		},
		{
			"children":[
				18
			],
			"name":"Shrine_Water_Mid_002.003"
		},
		{
			"mesh":10,
			"name":"Shrine_Water_Pillars.001_Shrine_Water_Pillars_0.002"
		},
		{
			"mesh":11,
			"name":"Shrine_Water_Roof.001_Shrine_Water_Roof_0.002"
		},
		{
			"children":[
				21
			],
			"name":"Shrine_Water_Roof.003"
		},
		{
			"mesh":12,
			"name":"Shrine_Water_Roof_Base.001_Shrine_Water_Roof_Base_0.002"
		},
		{
			"mesh":13,
			"name":"Shrine_Water_Roof_Wood.001_Shrine_Water_Roof_Wood_0.002"
		},
		{
			"children":[
				24
			],
			"name":"Shrine_Water_Roof_Wood.003"
		},
		{
			"mesh":14,
			"name":"Shrine_Water_Small_Base.001_Shrine_Water_Small_Base_0.002"
		},
		{
			"mesh":15,
			"name":"Shrine_Water_Top_001.001_Shrine_Water_Top_001_0.002"
		},
		{
			"children":[
				27
			],
			"name":"Shrine_Water_Top_001.003"
		},
		{
			"mesh":16,
			"name":"Shrine_Water_Top_002.001_Shrine_Water_Top_002_0.002"
		},
		{
			"children":[
				29
			],
			"name":"Shrine_Water_Top_002.003"
		},
		{
			"mesh":17,
			"name":"Shrine_Water_Water.001_Shrine_Water_Water_0.004"
		},
		{
			"mesh":18,
			"name":"Shrine_Water_Water.001_Shrine_Water_Water_0.005"
		},
		{
			"children":[
				31,
				32
			],
			"name":"Shrine_Water_Water.003"
		},
		{
			"mesh":19,
			"name":"Shrine_Water_Water_Base.001_Shrine_Water_Water_Base_0.002"
		},
		{
			"children":[
				34
			],
			"name":"Shrine_Water_Water_Base.003"
		},
		{
			"mesh":20,
			"name":"Shrine_Water_Water_Box.001_Shrine_Water_Water_Box_0.002"
		},
		{
			"children":[
				36
			],
			"name":"Shrine_Water_Water_Box.003"
		},
		{
			"children":[
				1,
				3,
				5,
				7,
				9,
				11,
				13,
				15,
				17,
				19,
				20,
				22,
				23,
				25,
				26,
				28,
				30,
				33,
				35,
				37
			],
			"name":"RootNode.002"
		},
		{
			"children":[
				38
			],
			"name":"ad536a0ff1db4103b175e6e3b39065e3.fbx"
		},
		{
			"children":[
				39
			],
			"name":"Sketchfab_model"
		}
	],
	"materials":[
		{
			"doubleSided":true,
			"name":"Shrine_Water_Bamboo.002",
			"normalTexture":{
				"index":0,
				"scale":0.5002842545509338
			},
			"pbrMetallicRoughness":{
				"baseColorTexture":{
					"index":1
				},
				"metallicFactor":0,
				"metallicRoughnessTexture":{
					"index":2
				}
			}
		},
		{
			"doubleSided":true,
			"name":"Shrine_Water_Bamboo_a_001.002",
			"normalTexture":{
				"index":3
			},
			"pbrMetallicRoughness":{
				"baseColorTexture":{
					"index":4
				},
				"metallicFactor":0,
				"metallicRoughnessTexture":{
					"index":5
				}
			}
		},
		{
			"doubleSided":true,
			"name":"Shrine_Water_Bamboo_a_002.002",
			"normalTexture":{
				"index":6
			},
			"pbrMetallicRoughness":{
				"baseColorTexture":{
					"index":7
				},
				"metallicFactor":0,
				"metallicRoughnessTexture":{
					"index":8
				}
			}
		},
		{
			"doubleSided":true,
			"name":"Shrine_Water_Bamboo_Stand.002",
			"normalTexture":{
				"index":9
			},
			"pbrMetallicRoughness":{
				"baseColorTexture":{
					"index":10
				},
				"metallicFactor":0,
				"metallicRoughnessTexture":{
					"index":11
				}
			}
		},
		{
			"doubleSided":true,
			"name":"Shrine_Water_Base.002",
			"normalTexture":{
				"index":12,
				"scale":0.5489256381988525
			},
			"pbrMetallicRoughness":{
				"baseColorTexture":{
					"index":13
				},
				"metallicFactor":0,
				"metallicRoughnessTexture":{
					"index":14
				}
			}
		},
		{
			"doubleSided":true,
			"name":"Shrine_Water_Design_001.002",
			"normalTexture":{
				"index":15
			},
			"pbrMetallicRoughness":{
				"baseColorTexture":{
					"index":16
				},
				"metallicFactor":0,
				"metallicRoughnessTexture":{
					"index":17
				}
			}
		},
		{
			"doubleSided":true,
			"name":"Shrine_Water_Design_002.002",
			"normalTexture":{
				"index":18
			},
			"pbrMetallicRoughness":{
				"baseColorTexture":{
					"index":19
				},
				"metallicFactor":0,
				"metallicRoughnessTexture":{
					"index":20
				}
			}
		},
		{
			"doubleSided":true,
			"name":"Shrine_Water_Mid_001.002",
			"normalTexture":{
				"index":21,
				"scale":0.46988338232040405
			},
			"pbrMetallicRoughness":{
				"baseColorTexture":{
					"index":22
				},
				"metallicFactor":0,
				"metallicRoughnessTexture":{
					"index":23
				}
			}
		},
		{
			"doubleSided":true,
			"name":"Shrine_Water_Mid_002.002",
			"normalTexture":{
				"index":24,
				"scale":0.5550057888031006
			},
			"pbrMetallicRoughness":{
				"baseColorTexture":{
					"index":25
				},
				"metallicFactor":0,
				"metallicRoughnessTexture":{
					"index":26
				}
			}
		},
		{
			"doubleSided":true,
			"name":"Shrine_Water_Pillars.002",
			"normalTexture":{
				"index":27,
				"scale":0.30000001192092896
			},
			"pbrMetallicRoughness":{
				"baseColorTexture":{
					"index":28
				},
				"metallicFactor":0,
				"metallicRoughnessTexture":{
					"index":29
				}
			}
		},
		{
			"doubleSided":true,
			"name":"Shrine_Water_Roof.002",
			"normalTexture":{
				"index":30
			},
			"pbrMetallicRoughness":{
				"baseColorTexture":{
					"index":31
				},
				"metallicFactor":0,
				"metallicRoughnessTexture":{
					"index":32
				}
			}
		},
		{
			"doubleSided":true,
			"name":"Shrine_Water_Roof_Base.002",
			"normalTexture":{
				"index":33,
				"scale":0.5
			},
			"pbrMetallicRoughness":{
				"baseColorTexture":{
					"index":34
				},
				"metallicFactor":0,
				"metallicRoughnessTexture":{
					"index":35
				}
			}
		},
		{
			"doubleSided":true,
			"name":"Shrine_Water_Roof_Wood.002",
			"normalTexture":{
				"index":36,
				"scale":0.11115316301584244
			},
			"pbrMetallicRoughness":{
				"baseColorTexture":{
					"index":37
				},
				"metallicFactor":0,
				"metallicRoughnessTexture":{
					"index":38
				}
			}
		},
		{
			"doubleSided":true,
			"name":"Shrine_Water_Small_Base.002",
			"normalTexture":{
				"index":39,
				"scale":0.4577230215072632
			},
			"pbrMetallicRoughness":{
				"baseColorTexture":{
					"index":40
				},
				"metallicFactor":0,
				"metallicRoughnessTexture":{
					"index":41
				}
			}
		},
		{
			"doubleSided":true,
			"name":"Shrine_Water_Top_001.002",
			"normalTexture":{
				"index":42
			},
			"pbrMetallicRoughness":{
				"baseColorTexture":{
					"index":43
				},
				"metallicFactor":0,
				"metallicRoughnessTexture":{
					"index":44
				}
			}
		},
		{
			"doubleSided":true,
			"name":"Shrine_Water_Top_002.002",
			"normalTexture":{
				"index":45
			},
			"pbrMetallicRoughness":{
				"baseColorTexture":{
					"index":46
				},
				"metallicFactor":0,
				"metallicRoughnessTexture":{
					"index":47
				}
			}
		},
		{
			"alphaMode":"BLEND",
			"doubleSided":true,
			"name":"Shrine_Water_Water.002",
			"pbrMetallicRoughness":{
				"baseColorFactor":[
					0.014456519857048988,
					0.009518401697278023,
					0.004931401461362839,
					0.627967894077301
				],
				"roughnessFactor":0.5057958960533142
			}
		},
		{
			"doubleSided":true,
			"name":"Shrine_Water_Water_Base.002",
			"normalTexture":{
				"index":48,
				"scale":0.35436010360717773
			},
			"pbrMetallicRoughness":{
				"baseColorTexture":{
					"index":49
				},
				"metallicFactor":0,
				"metallicRoughnessTexture":{
					"index":50
				}
			}
		},
		{
			"doubleSided":true,
			"name":"Shrine_Water_Water_Box.002",
			"normalTexture":{
				"index":51,
				"scale":0.17803506553173065
			},
			"pbrMetallicRoughness":{
				"baseColorTexture":{
					"index":52
				},
				"metallicFactor":0,
				"metallicRoughnessTexture":{
					"index":53
				}
			}
		}
	],
	"meshes":[
		{
			"name":"Shrine_Water_Bamboo.003_Shrine_Water_Bamboo_0.002",
			"primitives":[
				{
					"attributes":{
						"POSITION":0,
						"NORMAL":1,
						"TEXCOORD_0":2,
						"TEXCOORD_1":3,
						"TEXCOORD_2":4
					},
					"indices":5,
					"material":0
				}
			]
		},
		{
			"name":"Shrine_Water_Bamboo.004_Shrine_Water_Bamboo_0.002",
			"primitives":[
				{
					"attributes":{
						"POSITION":6,
						"NORMAL":7,
						"TEXCOORD_0":8,
						"TEXCOORD_1":9,
						"TEXCOORD_2":10
					},
					"indices":5,
					"material":0
				}
			]
		},
		{
			"name":"Shrine_Water_Bamboo_a_001.001_Shrine_Water_Bamboo_a_001_0.002",
			"primitives":[
				{
					"attributes":{
						"POSITION":11,
						"NORMAL":12,
						"TEXCOORD_0":13,
						"TEXCOORD_1":14,
						"TEXCOORD_2":15
					},
					"indices":16,
					"material":1
				}
			]
		},
		{
			"name":"Shrine_Water_Bamboo_a_002.001_Shrine_Water_Bamboo_a_002_0.002",
			"primitives":[
				{
					"attributes":{
						"POSITION":17,
						"NORMAL":18,
						"TEXCOORD_0":19,
						"TEXCOORD_1":20,
						"TEXCOORD_2":21
					},
					"indices":22,
					"material":2
				}
			]
		},
		{
			"name":"Shrine_Water_Bamboo_Stand.001_Shrine_Water_Bamboo_Stand_0.002",
			"primitives":[
				{
					"attributes":{
						"POSITION":23,
						"NORMAL":24,
						"TEXCOORD_0":25,
						"TEXCOORD_1":26,
						"TEXCOORD_2":27
					},
					"indices":28,
					"material":3
				}
			]
		},
		{
			"name":"Shrine_Water_Base.001_Shrine_Water_Base_0.002",
			"primitives":[
				{
					"attributes":{
						"POSITION":29,
						"NORMAL":30,
						"TEXCOORD_0":31,
						"TEXCOORD_1":32,
						"TEXCOORD_2":33
					},
					"indices":34,
					"material":4
				}
			]
		},
		{
			"name":"Shrine_Water_Design_001.001_Shrine_Water_Design_001_0.002",
			"primitives":[
				{
					"attributes":{
						"POSITION":35,
						"NORMAL":36,
						"TEXCOORD_0":37,
						"TEXCOORD_1":38,
						"TEXCOORD_2":39
					},
					"indices":40,
					"material":5
				}
			]
		},
		{
			"name":"Shrine_Water_Design_002.001_Shrine_Water_Design_002_0.002",
			"primitives":[
				{
					"attributes":{
						"POSITION":41,
						"NORMAL":42,
						"TEXCOORD_0":43,
						"TEXCOORD_1":44,
						"TEXCOORD_2":45
					},
					"indices":46,
					"material":6
				}
			]
		},
		{
			"name":"Shrine_Water_Mid_001.001_Shrine_Water_Mid_001_0.002",
			"primitives":[
				{
					"attributes":{
						"POSITION":47,
						"NORMAL":48,
						"TEXCOORD_0":49,
						"TEXCOORD_1":50,
						"TEXCOORD_2":51
					},
					"indices":52,
					"material":7
				}
			]
		},
		{
			"name":"Shrine_Water_Mid_002.001_Shrine_Water_Mid_002_0.002",
			"primitives":[
				{
					"attributes":{
						"POSITION":53,
						"NORMAL":54,
						"TEXCOORD_0":55,
						"TEXCOORD_1":56,
						"TEXCOORD_2":57
					},
					"indices":58,
					"material":8
				}
			]
		},
		{
			"name":"Shrine_Water_Pillars.001_Shrine_Water_Pillars_0.002",
			"primitives":[
				{
					"attributes":{
						"POSITION":59,
						"NORMAL":60,
						"TEXCOORD_0":61,
						"TEXCOORD_1":62,
						"TEXCOORD_2":63
					},
					"indices":64,
					"material":9
				}
			]
		},
		{
			"name":"Shrine_Water_Roof.001_Shrine_Water_Roof_0.002",
			"primitives":[
				{
					"attributes":{
						"POSITION":65,
						"NORMAL":66,
						"TEXCOORD_0":67,
						"TEXCOORD_1":68,
						"TEXCOORD_2":69
					},
					"indices":70,
					"material":10
				}
			]
		},
		{
			"name":"Shrine_Water_Roof_Base.001_Shrine_Water_Roof_Base_0.002",
			"primitives":[
				{
					"attributes":{
						"POSITION":71,
						"NORMAL":72,
						"TEXCOORD_0":73,
						"TEXCOORD_1":74,
						"TEXCOORD_2":75
					},
					"indices":76,
					"material":11
				}
			]
		},
		{
			"name":"Shrine_Water_Roof_Wood.001_Shrine_Water_Roof_Wood_0.002",
			"primitives":[
				{
					"attributes":{
						"POSITION":77,
						"NORMAL":78,
						"TEXCOORD_0":79,
						"TEXCOORD_1":80,
						"TEXCOORD_2":81
					},
					"indices":82,
					"material":12
				}
			]
		},
		{
			"name":"Shrine_Water_Small_Base.001_Shrine_Water_Small_Base_0.002",
			"primitives":[
				{
					"attributes":{
						"POSITION":83,
						"NORMAL":84,
						"TEXCOORD_0":85,
						"TEXCOORD_1":86,
						"TEXCOORD_2":87
					},
					"indices":64,
					"material":13
				}
			]
		},
		{
			"name":"Shrine_Water_Top_001.001_Shrine_Water_Top_001_0.002",
			"primitives":[
				{
					"attributes":{
						"POSITION":88,
						"NORMAL":89,
						"TEXCOORD_0":90,
						"TEXCOORD_1":91,
						"TEXCOORD_2":92
					},
					"indices":93,
					"material":14
				}
			]
		},
		{
			"name":"Shrine_Water_Top_002.001_Shrine_Water_Top_002_0.002",
			"primitives":[
				{
					"attributes":{
						"POSITION":94,
						"NORMAL":95,
						"TEXCOORD_0":96,
						"TEXCOORD_1":97,
						"TEXCOORD_2":98
					},
					"indices":99,
					"material":15
				}
			]
		},
		{
			"name":"Shrine_Water_Water.001_Shrine_Water_Water_0.004",
			"primitives":[
				{
					"attributes":{
						"POSITION":100,
						"NORMAL":101,
						"TEXCOORD_0":102
					},
					"indices":103,
					"material":16
				}
			]
		},
		{
			"name":"Shrine_Water_Water.001_Shrine_Water_Water_0.005",
			"primitives":[
				{
					"attributes":{
						"POSITION":104,
						"NORMAL":105,
						"TEXCOORD_0":106
					},
					"indices":107,
					"material":16
				}
			]
		},
		{
			"name":"Shrine_Water_Water_Base.001_Shrine_Water_Water_Base_0.002",
			"primitives":[
				{
					"attributes":{
						"POSITION":108,
						"NORMAL":109,
						"TEXCOORD_0":110,
						"TEXCOORD_1":111,
						"TEXCOORD_2":112
					},
					"indices":113,
					"material":17
				}
			]
		},
		{
			"name":"Shrine_Water_Water_Box.001_Shrine_Water_Water_Box_0.002",
			"primitives":[
				{
					"attributes":{
						"POSITION":114,
						"NORMAL":115,
						"TEXCOORD_0":116,
						"TEXCOORD_1":117,
						"TEXCOORD_2":118
					},
					"indices":119,
					"material":18
				}
			]
		}
	],
	"textures":[
		{
			"sampler":0,
			"source":0
		},
		{
			"sampler":0,
			"source":1
		},
		{
			"sampler":0,
			"source":2
		},
		{
			"sampler":0,
			"source":3
		},
		{
			"sampler":0,
			"source":4
		},
		{
			"sampler":0,
			"source":5
		},
		{
			"sampler":0,
			"source":6
		},
		{
			"sampler":0,
			"source":7
		},
		{
			"sampler":0,
			"source":8
		},
		{
			"sampler":0,
			"source":9
		},
		{
			"sampler":0,
			"source":10
		},
		{
			"sampler":0,
			"source":5
		},
		{
			"sampler":0,
			"source":11
		},
		{
			"sampler":0,
			"source":12
		},
		{
			"sampler":0,
			"source":13
		},
		{
			"sampler":0,
			"source":14
		},
		{
			"sampler":0,
			"source":15
		},
		{
			"sampler":0,
			"source":16
		},
		{
			"sampler":0,
			"source":17
		},
		{
			"sampler":0,
			"source":18
		},
		{
			"sampler":0,
			"source":19
		},
		{
			"sampler":0,
			"source":20
		},
		{
			"sampler":0,
			"source":21
		},
		{
			"sampler":0,
			"source":22
		},
		{
			"sampler":0,
			"source":23
		},
		{
			"sampler":0,
			"source":24
		},
		{
			"sampler":0,
			"source":25
		},
		{
			"sampler":0,
			"source":26
		},
		{
			"sampler":0,
			"source":27
		},
		{
			"sampler":0,
			"source":28
		},
		{
			"sampler":0,
			"source":29
		},
		{
			"sampler":0,
			"source":30
		},
		{
			"sampler":0,
			"source":31
		},
		{
			"sampler":0,
			"source":32
		},
		{
			"sampler":0,
			"source":33
		},
		{
			"sampler":0,
			"source":34
		},
		{
			"sampler":0,
			"source":35
		},
		{
			"sampler":0,
			"source":36
		},
		{
			"sampler":0,
			"source":37
		},
		{
			"sampler":0,
			"source":38
		},
		{
			"sampler":0,
			"source":39
		},
		{
			"sampler":0,
			"source":40
		},
		{
			"sampler":0,
			"source":41
		},
		{
			"sampler":0,
			"source":42
		},
		{
			"sampler":0,
			"source":43
		},
		{
			"sampler":0,
			"source":44
		},
		{
			"sampler":0,
			"source":45
		},
		{
			"sampler":0,
			"source":46
		},
		{
			"sampler":0,
			"source":47
		},
		{
			"sampler":0,
			"source":48
		},
		{
			"sampler":0,
			"source":49
		},
		{
			"sampler":0,
			"source":50
		},
		{
			"sampler":0,
			"source":51
		},
		{
			"sampler":0,
			"source":52
		}
	],
	"images":[
		{
			"mimeType":"image/png",
			"name":"Shrine_Water_Bamboo_normal",
			"uri":"Shrine_Water_Bamboo_normal.png"
		},
		{
			"mimeType":"image/png",
			"name":"Shrine_Water_Bamboo_baseColor",
			"uri":"Shrine_Water_Bamboo_baseColor.png"
		},
		{
			"mimeType":"image/png",
			"name":"Shrine_Water_Bamboo_metallicRoughness",
			"uri":"Shrine_Water_Bamboo_metallicRoughness.png"
		},
		{
			"mimeType":"image/png",
			"name":"Shrine_Water_Bamboo_a_001_normal",
			"uri":"Shrine_Water_Bamboo_a_001_normal.png"
		},
		{
			"mimeType":"image/png",
			"name":"Shrine_Water_Bamboo_a_001_baseColor",
			"uri":"Shrine_Water_Bamboo_a_001_baseColor.png"
		},
		{
			"mimeType":"image/png",
			"name":"Shrine_Water_Bamboo_Stand_metallicRoughness",
			"uri":"Shrine_Water_Bamboo_Stand_metallicRoughness.png"
		},
		{
			"mimeType":"image/png",
			"name":"Shrine_Water_Bamboo_a_002_normal",
			"uri":"Shrine_Water_Bamboo_a_002_normal.png"
		},
		{
			"mimeType":"image/png",
			"name":"Shrine_Water_Bamboo_a_002_baseColor",
			"uri":"Shrine_Water_Bamboo_a_002_baseColor.png"
		},
		{
			"mimeType":"image/png",
			"name":"Shrine_Water_Bamboo_a_002_metallicRoughness",
			"uri":"Shrine_Water_Bamboo_a_002_metallicRoughness.png"
		},
		{
			"mimeType":"image/png",
			"name":"Shrine_Water_Bamboo_Stand_normal",
			"uri":"Shrine_Water_Bamboo_Stand_normal.png"
		},
		{
			"mimeType":"image/png",
			"name":"Shrine_Water_Bamboo_Stand_baseColor",
			"uri":"Shrine_Water_Bamboo_Stand_baseColor.png"
		},
		{
			"mimeType":"image/png",
			"name":"Shrine_Water_Base_normal",
			"uri":"Shrine_Water_Base_normal.png"
		},
		{
			"mimeType":"image/png",
			"name":"Shrine_Water_Base_baseColor",
			"uri":"Shrine_Water_Base_baseColor.png"
		},
		{
			"mimeType":"image/png",
			"name":"Shrine_Water_Base_metallicRoughness",
			"uri":"Shrine_Water_Base_metallicRoughness.png"
		},
		{
			"mimeType":"image/png",
			"name":"Shrine_Water_Design_001_normal",
			"uri":"Shrine_Water_Design_001_normal.png"
		},
		{
			"mimeType":"image/png",
			"name":"Shrine_Water_Design_001_baseColor",
			"uri":"Shrine_Water_Design_001_baseColor.png"
		},
		{
			"mimeType":"image/png",
			"name":"Shrine_Water_Design_001_metallicRoughness",
			"uri":"Shrine_Water_Design_001_metallicRoughness.png"
		},
		{
			"mimeType":"image/png",
			"name":"Shrine_Water_Design_002_normal",
			"uri":"Shrine_Water_Design_002_normal.png"
		},
		{
			"mimeType":"image/png",
			"name":"Shrine_Water_Design_002_baseColor",
			"uri":"Shrine_Water_Design_002_baseColor.png"
		},
		{
			"mimeType":"image/png",
			"name":"Shrine_Water_Design_002_metallicRoughness",
			"uri":"Shrine_Water_Design_002_metallicRoughness.png"
		},
		{
			"mimeType":"image/png",
			"name":"Shrine_Water_Mid_001_normal",
			"uri":"Shrine_Water_Mid_001_normal.png"
		},
		{
			"mimeType":"image/png",
			"name":"Shrine_Water_Mid_001_baseColor",
			"uri":"Shrine_Water_Mid_001_baseColor.png"
		},
		{
			"mimeType":"image/png",
			"name":"Shrine_Water_Mid_001_metallicRoughness",
			"uri":"Shrine_Water_Mid_001_metallicRoughness.png"
		},
		{
			"mimeType":"image/png",
			"name":"Shrine_Water_Mid_002_normal",
			"uri":"Shrine_Water_Mid_002_normal.png"
		},
		{
			"mimeType":"image/png",
			"name":"Shrine_Water_Mid_002_baseColor",
			"uri":"Shrine_Water_Mid_002_baseColor.png"
		},
		{
			"mimeType":"image/png",
			"name":"Shrine_Water_Mid_002_metallicRoughness",
			"uri":"Shrine_Water_Mid_002_metallicRoughness.png"
		},
		{
			"mimeType":"image/png",
			"name":"Shrine_Water_Pillars_normal",
			"uri":"Shrine_Water_Pillars_normal.png"
		},
		{
			"mimeType":"image/png",
			"name":"Shrine_Water_Pillars_baseColor",
			"uri":"Shrine_Water_Pillars_baseColor.png"
		},
		{
			"mimeType":"image/png",
			"name":"Shrine_Water_Pillars_metallicRoughness",
			"uri":"Shrine_Water_Pillars_metallicRoughness.png"
		},
		{
			"mimeType":"image/png",
			"name":"Shrine_Water_Roof_normal",
			"uri":"Shrine_Water_Roof_normal.png"
		},
		{
			"mimeType":"image/png",
			"name":"Shrine_Water_Roof_baseColor",
			"uri":"Shrine_Water_Roof_baseColor.png"
		},
		{
			"mimeType":"image/png",
			"name":"Shrine_Water_Roof_metallicRoughness",
			"uri":"Shrine_Water_Roof_metallicRoughness.png"
		},
		{
			"mimeType":"image/png",
			"name":"Shrine_Water_Roof_Base_normal",
			"uri":"Shrine_Water_Roof_Base_normal.png"
		},
		{
			"mimeType":"image/png",
			"name":"Shrine_Water_Roof_Base_baseColor",
			"uri":"Shrine_Water_Roof_Base_baseColor.png"
		},
		{
			"mimeType":"image/png",
			"name":"Shrine_Water_Roof_Base_metallicRoughness",
			"uri":"Shrine_Water_Roof_Base_metallicRoughness.png"
		},
		{
			"mimeType":"image/png",
			"name":"Shrine_Water_Roof_Wood_normal",
			"uri":"Shrine_Water_Roof_Wood_normal.png"
		},
		{
			"mimeType":"image/png",
			"name":"Shrine_Water_Roof_Wood_baseColor",
			"uri":"Shrine_Water_Roof_Wood_baseColor.png"
		},
		{
			"mimeType":"image/png",
			"name":"Shrine_Water_Roof_Wood_metallicRoughness",
			"uri":"Shrine_Water_Roof_Wood_metallicRoughness.png"
		},
		{
			"mimeType":"image/png",
			"name":"Shrine_Water_Small_Base_normal",
			"uri":"Shrine_Water_Small_Base_normal.png"
		},
		{
			"mimeType":"image/png",
			"name":"Shrine_Water_Small_Base_baseColor",
			"uri":"Shrine_Water_Small_Base_baseColor.png"
		},
		{
			"mimeType":"image/png",
			"name":"Shrine_Water_Small_Base_metallicRoughness",
			"uri":"Shrine_Water_Small_Base_metallicRoughness.png"
		},
		{
			"mimeType":"image/png",
			"name":"Shrine_Water_Top_001_normal",
			"uri":"Shrine_Water_Top_001_normal.png"
		},
		{
			"mimeType":"image/png",
			"name":"Shrine_Water_Top_001_baseColor",
			"uri":"Shrine_Water_Top_001_baseColor.png"
		},
		{
			"mimeType":"image/png",
			"name":"Shrine_Water_Top_001_metallicRoughness",
			"uri":"Shrine_Water_Top_001_metallicRoughness.png"
		},
		{
			"mimeType":"image/png",
			"name":"Shrine_Water_Top_002_normal",
			"uri":"Shrine_Water_Top_002_normal.png"
		},
		{
			"mimeType":"image/png",
			"name":"Shrine_Water_Top_002_baseColor",
			"uri":"Shrine_Water_Top_002_baseColor.png"
		},
		{
			"mimeType":"image/png",
			"name":"Shrine_Water_Top_002_metallicRoughness",
			"uri":"Shrine_Water_Top_002_metallicRoughness.png"
		},
		{
			"mimeType":"image/png",
			"name":"Shrine_Water_Water_Base_normal",
			"uri":"Shrine_Water_Water_Base_normal.png"
		},
		{
			"mimeType":"image/png",
			"name":"Shrine_Water_Water_Base_baseColor",
			"uri":"Shrine_Water_Water_Base_baseColor.png"
		},
		{
			"mimeType":"image/png",
			"name":"Shrine_Water_Water_Base_metallicRoughness",
			"uri":"Shrine_Water_Water_Base_metallicRoughness.png"
		},
		{
			"mimeType":"image/png",
			"name":"Shrine_Water_Water_Box_normal",
			"uri":"Shrine_Water_Water_Box_normal.png"
		},
		{
			"mimeType":"image/png",
			"name":"Shrine_Water_Water_Box_baseColor",
			"uri":"Shrine_Water_Water_Box_baseColor.png"
		},
		{
			"mimeType":"image/png",
			"name":"Shrine_Water_Water_Box_metallicRoughness",
			"uri":"Shrine_Water_Water_Box_metallicRoughness.png"
		}
	],
	"accessors":[
		{
			"bufferView":0,
			"componentType":5126,
			"count":156,
			"max":[
				0.3024665117263794,
				1.0915886163711548,
				0.5524280667304993
			],
			"min":[
				0.24937409162521362,
				1.053758144378662,
				-0.6830407381057739
			],
			"type":"VEC3"
		},
		{
			"bufferView":1,
			"componentType":5126,
			"count":156,
			"type":"VEC3"
		},
		{
			"bufferView":2,
			"componentType":5126,
			"count":156,
			"type":"VEC2"
		},
		{
			"bufferView":3,
			"componentType":5126,
			"count":156,
			"type":"VEC2"
		},
		{
			"bufferView":4,
			"componentType":5126,
			"count":156,
			"type":"VEC2"
		},
		{
			"bufferView":5,
			"componentType":5123,
			"count":372,
			"type":"SCALAR"
		},
		{
			"bufferView":6,
			"componentType":5126,
			"count":156,
			"max":[
				0.08086304366588593,
				1.0915886163711548,
				0.5551764369010925
			],
			"min":[
				0.027770627290010452,
				1.053758144378662,
				-0.6802923083305359
			],
			"type":"VEC3"
		},
		{
			"bufferView":7,
			"componentType":5126,
			"count":156,
			"type":"VEC3"
		},
		{
			"bufferView":8,
			"componentType":5126,
			"count":156,
			"type":"VEC2"
		},
		{
			"bufferView":9,
			"componentType":5126,
			"count":156,
			"type":"VEC2"
		},
		{
			"bufferView":10,
			"componentType":5126,
			"count":156,
			"type":"VEC2"
		},
		{
			"bufferView":11,
			"componentType":5126,
			"count":155,
			"max":[
				0.4963324964046478,
				1.1066625118255615,
				-0.08204269409179688
			],
			"min":[
				-0.012568075209856033,
				1.0899969339370728,
				-0.2263687402009964
			],
			"type":"VEC3"
		},
		{
			"bufferView":12,
			"componentType":5126,
			"count":155,
			"type":"VEC3"
		},
		{
			"bufferView":13,
			"componentType":5126,
			"count":155,
			"type":"VEC2"
		},
		{
			"bufferView":14,
			"componentType":5126,
			"count":155,
			"type":"VEC2"
		},
		{
			"bufferView":15,
			"componentType":5126,
			"count":155,
			"type":"VEC2"
		},
		{
			"bufferView":16,
			"componentType":5123,
			"count":234,
			"type":"SCALAR"
		},
		{
			"bufferView":17,
			"componentType":5126,
			"count":206,
			"max":[
				0.0032001379877328873,
				1.1786210536956787,
				0.0022086910903453827
			],
			"min":[
				-0.13899029791355133,
				1.0774013996124268,
				-0.1402655839920044
			],
			"type":"VEC3"
		},
		{
			"bufferView":18,
			"componentType":5126,
			"count":206,
			"type":"VEC3"
		},
		{
			"bufferView":19,
			"componentType":5126,
			"count":206,
			"type":"VEC2"
		},
		{
			"bufferView":20,
			"componentType":5126,
			"count":206,
			"type":"VEC2"
		},
		{
			"bufferView":21,
			"componentType":5126,
			"count":206,
			"type":"VEC2"
		},
		{
			"bufferView":22,
			"componentType":5123,
			"count":618,
			"type":"SCALAR"
		},
		{
			"bufferView":23,
			"componentType":5126,
			"count":389,
			"max":[
				0.3099735379219055,
				1.066406488418579,
				0.4614308476448059
			],
			"min":[
				0.0211351178586483,
				1.0328197479248047,
				-0.5923449993133545
			],
			"type":"VEC3"
		},
		{
			"bufferView":24,
			"componentType":5126,
			"count":389,
			"type":"VEC3"
		},
		{
			"bufferView":25,
			"componentType":5126,
			"count":389,
			"type":"VEC2"
		},
		{
			"bufferView":26,
			"componentType":5126,
			"count":389,
			"type":"VEC2"
		},
		{
			"bufferView":27,
			"componentType":5126,
			"count":389,
			"type":"VEC2"
		},
		{
			"bufferView":28,
			"componentType":5123,
			"count":816,
			"type":"SCALAR"
		},
		{
			"bufferView":29,
			"componentType":5126,
			"count":24,
			"max":[
				1.6299059391021729,
				0.22029076516628265,
				2.1570117473602295
			],
			"min":[
				-1.2987902164459229,
				-0.0281449556350708,
				-2.2879278659820557
			],
			"type":"VEC3"
		},
		{
			"bufferView":30,
			"componentType":5126,
			"count":24,
			"type":"VEC3"
		},
		{
			"bufferView":31,
			"componentType":5126,
			"count":24,
			"type":"VEC2"
		},
		{
			"bufferView":32,
			"componentType":5126,
			"count":24,
			"type":"VEC2"
		},
		{
			"bufferView":33,
			"componentType":5126,
			"count":24,
			"type":"VEC2"
		},
		{
			"bufferView":34,
			"componentType":5123,
			"count":36,
			"type":"SCALAR"
		},
		{
			"bufferView":35,
			"componentType":5126,
			"count":316,
			"max":[
				1.5846953392028809,
				2.365110397338867,
				1.6517002582550049
			],
			"min":[
				-1.253580927848816,
				2.1999471187591553,
				-1.7826178073883057
			],
			"type":"VEC3"
		},
		{
			"bufferView":36,
			"componentType":5126,
			"count":316,
			"type":"VEC3"
		},
		{
			"bufferView":37,
			"componentType":5126,
			"count":316,
			"type":"VEC2"
		},
		{
			"bufferView":38,
			"componentType":5126,
			"count":316,
			"type":"VEC2"
		},
		{
			"bufferView":39,
			"componentType":5126,
			"count":316,
			"type":"VEC2"
		},
		{
			"bufferView":40,
			"componentType":5123,
			"count":792,
			"type":"SCALAR"
		},
		{
			"bufferView":41,
			"componentType":5126,
			"count":819,
			"max":[
				1.1905051469802856,
				2.369748115539551,
				1.9997308254241943
			],
			"min":[
				-0.8593990802764893,
				2.1895973682403564,
				-2.130643606185913
			],
			"type":"VEC3"
		},
		{
			"bufferView":42,
			"componentType":5126,
			"count":819,
			"type":"VEC3"
		},
		{
			"bufferView":43,
			"componentType":5126,
			"count":819,
			"type":"VEC2"
		},
		{
			"bufferView":44,
			"componentType":5126,
			"count":819,
			"type":"VEC2"
		},
		{
			"bufferView":45,
			"componentType":5126,
			"count":819,
			"type":"VEC2"
		},
		{
			"bufferView":46,
			"componentType":5123,
			"count":1992,
			"type":"SCALAR"
		},
		{
			"bufferView":47,
			"componentType":5126,
			"count":216,
			"max":[
				0.3406657874584198,
				3.683061122894287,
				1.781187653541565
			],
			"min":[
				-0.009550992399454117,
				3.3112168312072754,
				-1.9121062755584717
			],
			"type":"VEC3"
		},
		{
			"bufferView":48,
			"componentType":5126,
			"count":216,
			"type":"VEC3"
		},
		{
			"bufferView":49,
			"componentType":5126,
			"count":216,
			"type":"VEC2"
		},
		{
			"bufferView":50,
			"componentType":5126,
			"count":216,
			"type":"VEC2"
		},
		{
			"bufferView":51,
			"componentType":5126,
			"count":216,
			"type":"VEC2"
		},
		{
			"bufferView":52,
			"componentType":5123,
			"count":852,
			"type":"SCALAR"
		},
		{
			"bufferView":53,
			"componentType":5126,
			"count":71,
			"max":[
				0.32380062341690063,
				3.3113067150115967,
				1.6916362047195435
			],
			"min":[
				0.0073067545890808105,
				3.043050765991211,
				-1.8225431442260742
			],
			"type":"VEC3"
		},
		{
			"bufferView":54,
			"componentType":5126,
			"count":71,
			"type":"VEC3"
		},
		{
			"bufferView":55,
			"componentType":5126,
			"count":71,
			"type":"VEC2"
		},
		{
			"bufferView":56,
			"componentType":5126,
			"count":71,
			"type":"VEC2"
		},
		{
			"bufferView":57,
			"componentType":5126,
			"count":71,
			"type":"VEC2"
		},
		{
			"bufferView":58,
			"componentType":5123,
			"count":132,
			"type":"SCALAR"
		},
		{
			"bufferView":59,
			"componentType":5126,
			"count":96,
			"max":[
				1.212988257408142,
				2.886817455291748,
				1.672767162322998
			],
			"min":[
				-0.8818563222885132,
				0.37347447872161865,
				-1.8036948442459106
			],
			"type":"VEC3"
		},
		{
			"bufferView":60,
			"componentType":5126,
			"count":96,
			"type":"VEC3"
		},
		{
			"bufferView":61,
			"componentType":5126,
			"count":96,
			"type":"VEC2"
		},
		{
			"bufferView":62,
			"componentType":5126,
			"count":96,
			"type":"VEC2"
		},
		{
			"bufferView":63,
			"componentType":5126,
			"count":96,
			"type":"VEC2"
		},
		{
			"bufferView":64,
			"componentType":5123,
			"count":144,
			"type":"SCALAR"
		},
		{
			"bufferView":65,
			"componentType":5126,
			"count":190,
			"max":[
				1.6241391897201538,
				3.8548972606658936,
				1.8913061618804932
			],
			"min":[
				-1.2930322885513306,
				2.963628053665161,
				-2.022886037826538
			],
			"type":"VEC3"
		},
		{
			"bufferView":66,
			"componentType":5126,
			"count":190,
			"type":"VEC3"
		},
		{
			"bufferView":67,
			"componentType":5126,
			"count":190,
			"type":"VEC2"
		},
		{
			"bufferView":68,
			"componentType":5126,
			"count":190,
			"type":"VEC2"
		},
		{
			"bufferView":69,
			"componentType":5126,
			"count":190,
			"type":"VEC2"
		},
		{
			"bufferView":70,
			"componentType":5123,
			"count":498,
			"type":"SCALAR"
		},
		{
			"bufferView":71,
			"componentType":5126,
			"count":202,
			"max":[
				1.2122467756271362,
				3.046628713607788,
				1.6720296144485474
			],
			"min":[
				-0.8811148405075073,
				2.8814656734466553,
				-1.8029533624649048
			],
			"type":"VEC3"
		},
		{
			"bufferView":72,
			"componentType":5126,
			"count":202,
			"type":"VEC3"
		},
		{
			"bufferView":73,
			"componentType":5126,
			"count":202,
			"type":"VEC2"
		},
		{
			"bufferView":74,
			"componentType":5126,
			"count":202,
			"type":"VEC2"
		},
		{
			"bufferView":75,
			"componentType":5126,
			"count":202,
			"type":"VEC2"
		},
		{
			"bufferView":76,
			"componentType":5123,
			"count":312,
			"type":"SCALAR"
		},
		{
			"bufferView":77,
			"componentType":5126,
			"count":4294,
			"max":[
				1.622280240058899,
				3.765092134475708,
				1.7414804697036743
			],
			"min":[
				-1.2911654710769653,
				2.8738224506378174,
				-1.8723974227905273
			],
			"type":"VEC3"
		},
		{
			"bufferView":78,
			"componentType":5126,
			"count":4294,
			"type":"VEC3"
		},
		{
			"bufferView":79,
			"componentType":5126,
			"count":4294,
			"type":"VEC2"
		},
		{
			"bufferView":80,
			"componentType":5126,
			"count":4294,
			"type":"VEC2"
		},
		{
			"bufferView":81,
			"componentType":5126,
			"count":4294,
			"type":"VEC2"
		},
		{
			"bufferView":82,
			"componentType":5123,
			"count":6972,
			"type":"SCALAR"
		},
		{
			"bufferView":83,
			"componentType":5126,
			"count":96,
			"max":[
				1.2559419870376587,
				0.38036876916885376,
				1.715717077255249
			],
			"min":[
				-0.9248025417327881,
				0.21520589292049408,
				-1.846656322479248
			],
			"type":"VEC3"
		},
		{
			"bufferView":84,
			"componentType":5126,
			"count":96,
			"type":"VEC3"
		},
		{
			"bufferView":85,
			"componentType":5126,
			"count":96,
			"type":"VEC2"
		},
		{
			"bufferView":86,
			"componentType":5126,
			"count":96,
			"type":"VEC2"
		},
		{
			"bufferView":87,
			"componentType":5126,
			"count":96,
			"type":"VEC2"
		},
		{
			"bufferView":88,
			"componentType":5126,
			"count":82,
			"max":[
				0.2929149866104126,
				4.144567012786865,
				1.8747198581695557
			],
			"min":[
				0.08306855708360672,
				3.876119613647461,
				-2.0073862075805664
			],
			"type":"VEC3"
		},
		{
			"bufferView":89,
			"componentType":5126,
			"count":82,
			"type":"VEC3"
		},
		{
			"bufferView":90,
			"componentType":5126,
			"count":82,
			"type":"VEC2"
		},
		{
			"bufferView":91,
			"componentType":5126,
			"count":82,
			"type":"VEC2"
		},
		{
			"bufferView":92,
			"componentType":5126,
			"count":82,
			"type":"VEC2"
		},
		{
			"bufferView":93,
			"componentType":5123,
			"count":192,
			"type":"SCALAR"
		},
		{
			"bufferView":94,
			"componentType":5126,
			"count":40,
			"max":[
				0.4292875826358795,
				3.920339584350586,
				1.8752840757369995
			],
			"min":[
				-0.09820357710123062,
				3.683652639389038,
				-2.008676528930664
			],
			"type":"VEC3"
		},
		{
			"bufferView":95,
			"componentType":5126,
			"count":40,
			"type":"VEC3"
		},
		{
			"bufferView":96,
			"componentType":5126,
			"count":40,
			"type":"VEC2"
		},
		{
			"bufferView":97,
			"componentType":5126,
			"count":40,
			"type":"VEC2"
		},
		{
			"bufferView":98,
			"componentType":5126,
			"count":40,
			"type":"VEC2"
		},
		{
			"bufferView":99,
			"componentType":5123,
			"count":66,
			"type":"SCALAR"
		},
		{
			"bufferView":100,
			"componentType":5126,
			"count":191,
			"max":[
				0.4874474108219147,
				0.9848722219467163,
				0.42632752656936646
			],
			"min":[
				-0.1629563570022583,
				0.5994831919670105,
				-0.5414975881576538
			],
			"type":"VEC3"
		},
		{
			"bufferView":101,
			"componentType":5126,
			"count":191,
			"type":"VEC3"
		},
		{
			"bufferView":102,
			"componentType":5126,
			"count":191,
			"type":"VEC2"
		},
		{
			"bufferView":103,
			"componentType":5123,
			"count":369,
			"type":"SCALAR"
		},
		{
			"bufferView":104,
			"componentType":5126,
			"count":38353,
			"max":[
				0.5027639269828796,
				0.9655588865280151,
				0.41269412636756897
			],
			"min":[
				-0.16088275611400604,
				0.6140768527984619,
				-0.5431261658668518
			],
			"type":"VEC3"
		},
		{
			"bufferView":105,
			"componentType":5126,
			"count":38353,
			"type":"VEC3"
		},
		{
			"bufferView":106,
			"componentType":5126,
			"count":38353,
			"type":"VEC2"
		},
		{
			"bufferView":107,
			"componentType":5123,
			"count":215592,
			"type":"SCALAR"
		},
		{
			"bufferView":108,
			"componentType":5126,
			"count":98,
			"max":[
				0.6871709823608398,
				0.417473703622818,
				0.7264654040336609
			],
			"min":[
				-0.3560553789138794,
				0.2216082513332367,
				-0.8573815822601318
			],
			"type":"VEC3"
		},
		{
			"bufferView":109,
			"componentType":5126,
			"count":98,
			"type":"VEC3"
		},
		{
			"bufferView":110,
			"componentType":5126,
			"count":98,
			"type":"VEC2"
		},
		{
			"bufferView":111,
			"componentType":5126,
			"count":98,
			"type":"VEC2"
		},
		{
			"bufferView":112,
			"componentType":5126,
			"count":98,
			"type":"VEC2"
		},
		{
			"bufferView":113,
			"componentType":5123,
			"count":132,
			"type":"SCALAR"
		},
		{
			"bufferView":114,
			"componentType":5126,
			"count":206,
			"max":[
				0.5441096425056458,
				1.0335317850112915,
				0.465498149394989
			],
			"min":[
				-0.19936037063598633,
				0.41503268480300903,
				-0.5965794324874878
			],
			"type":"VEC3"
		},
		{
			"bufferView":115,
			"componentType":5126,
			"count":206,
			"type":"VEC3"
		},
		{
			"bufferView":116,
			"componentType":5126,
			"count":206,
			"type":"VEC2"
		},
		{
			"bufferView":117,
			"componentType":5126,
			"count":206,
			"type":"VEC2"
		},
		{
			"bufferView":118,
			"componentType":5126,
			"count":206,
			"type":"VEC2"
		},
		{
			"bufferView":119,
			"componentType":5123,
			"count":276,
			"type":"SCALAR"
		}
	],
	"bufferViews":[
		{
			"buffer":0,
			"byteLength":1872,
			"byteOffset":0,
			"target":34962
		},
		{
			"buffer":0,
			"byteLength":1872,
			"byteOffset":1872,
			"target":34962
		},
		{
			"buffer":0,
			"byteLength":1248,
			"byteOffset":3744,
			"target":34962
		},
		{
			"buffer":0,
			"byteLength":1248,
			"byteOffset":4992,
			"target":34962
		},
		{
			"buffer":0,
			"byteLength":1248,
			"byteOffset":6240,
			"target":34962
		},
		{
			"buffer":0,
			"byteLength":744,
			"byteOffset":7488,
			"target":34963
		},
		{
			"buffer":0,
			"byteLength":1872,
			"byteOffset":8232,
			"target":34962
		},
		{
			"buffer":0,
			"byteLength":1872,
			"byteOffset":10104,
			"target":34962
		},
		{
			"buffer":0,
			"byteLength":1248,
			"byteOffset":11976,
			"target":34962
		},
		{
			"buffer":0,
			"byteLength":1248,
			"byteOffset":13224,
			"target":34962
		},
		{
			"buffer":0,
			"byteLength":1248,
			"byteOffset":14472,
			"target":34962
		},
		{
			"buffer":0,
			"byteLength":1860,
			"byteOffset":15720,
			"target":34962
		},
		{
			"buffer":0,
			"byteLength":1860,
			"byteOffset":17580,
			"target":34962
		},
		{
			"buffer":0,
			"byteLength":1240,
			"byteOffset":19440,
			"target":34962
		},
		{
			"buffer":0,
			"byteLength":1240,
			"byteOffset":20680,
			"target":34962
		},
		{
			"buffer":0,
			"byteLength":1240,
			"byteOffset":21920,
			"target":34962
		},
		{
			"buffer":0,
			"byteLength":468,
			"byteOffset":23160,
			"target":34963
		},
		{
			"buffer":0,
			"byteLength":2472,
			"byteOffset":23628,
			"target":34962
		},
		{
			"buffer":0,
			"byteLength":2472,
			"byteOffset":26100,
			"target":34962
		},
		{
			"buffer":0,
			"byteLength":1648,
			"byteOffset":28572,
			"target":34962
		},
		{
			"buffer":0,
			"byteLength":1648,
			"byteOffset":30220,
			"target":34962
		},
		{
			"buffer":0,
			"byteLength":1648,
			"byteOffset":31868,
			"target":34962
		},
		{
			"buffer":0,
			"byteLength":1236,
			"byteOffset":33516,
			"target":34963
		},
		{
			"buffer":0,
			"byteLength":4668,
			"byteOffset":34752,
			"target":34962
		},
		{
			"buffer":0,
			"byteLength":4668,
			"byteOffset":39420,
			"target":34962
		},
		{
			"buffer":0,
			"byteLength":3112,
			"byteOffset":44088,
			"target":34962
		},
		{
			"buffer":0,
			"byteLength":3112,
			"byteOffset":47200,
			"target":34962
		},
		{
			"buffer":0,
			"byteLength":3112,
			"byteOffset":50312,
			"target":34962
		},
		{
			"buffer":0,
			"byteLength":1632,
			"byteOffset":53424,
			"target":34963
		},
		{
			"buffer":0,
			"byteLength":288,
			"byteOffset":55056,
			"target":34962
		},
		{
			"buffer":0,
			"byteLength":288,
			"byteOffset":55344,
			"target":34962
		},
		{
			"buffer":0,
			"byteLength":192,
			"byteOffset":55632,
			"target":34962
		},
		{
			"buffer":0,
			"byteLength":192,
			"byteOffset":55824,
			"target":34962
		},
		{
			"buffer":0,
			"byteLength":192,
			"byteOffset":56016,
			"target":34962
		},
		{
			"buffer":0,
			"byteLength":72,
			"byteOffset":56208,
			"target":34963
		},
		{
			"buffer":0,
			"byteLength":3792,
			"byteOffset":56280,
			"target":34962
		},
		{
			"buffer":0,
			"byteLength":3792,
			"byteOffset":60072,
			"target":34962
		},
		{
			"buffer":0,
			"byteLength":2528,
			"byteOffset":63864,
			"target":34962
		},
		{
			"buffer":0,
			"byteLength":2528,
			"byteOffset":66392,
			"target":34962
		},
		{
			"buffer":0,
			"byteLength":2528,
			"byteOffset":68920,
			"target":34962
		},
		{
			"buffer":0,
			"byteLength":1584,
			"byteOffset":71448,
			"target":34963
		},
		{
			"buffer":0,
			"byteLength":9828,
			"byteOffset":73032,
			"target":34962
		},
		{
			"buffer":0,
			"byteLength":9828,
			"byteOffset":82860,
			"target":34962
		},
		{
			"buffer":0,
			"byteLength":6552,
			"byteOffset":92688,
			"target":34962
		},
		{
			"buffer":0,
			"byteLength":6552,
			"byteOffset":99240,
			"target":34962
		},
		{
			"buffer":0,
			"byteLength":6552,
			"byteOffset":105792,
			"target":34962
		},
		{
			"buffer":0,
			"byteLength":3984,
			"byteOffset":112344,
			"target":34963
		},
		{
			"buffer":0,
			"byteLength":2592,
			"byteOffset":116328,
			"target":34962
		},
		{
			"buffer":0,
			"byteLength":2592,
			"byteOffset":118920,
			"target":34962
		},
		{
			"buffer":0,
			"byteLength":1728,
			"byteOffset":121512,
			"target":34962
		},
		{
			"buffer":0,
			"byteLength":1728,
			"byteOffset":123240,
			"target":34962
		},
		{
			"buffer":0,
			"byteLength":1728,
			"byteOffset":124968,
			"target":34962
		},
		{
			"buffer":0,
			"byteLength":1704,
			"byteOffset":126696,
			"target":34963
		},
		{
			"buffer":0,
			"byteLength":852,
			"byteOffset":128400,
			"target":34962
		},
		{
			"buffer":0,
			"byteLength":852,
			"byteOffset":129252,
			"target":34962
		},
		{
			"buffer":0,
			"byteLength":568,
			"byteOffset":130104,
			"target":34962
		},
		{
			"buffer":0,
			"byteLength":568,
			"byteOffset":130672,
			"target":34962
		},
		{
			"buffer":0,
			"byteLength":568,
			"byteOffset":131240,
			"target":34962
		},
		{
			"buffer":0,
			"byteLength":264,
			"byteOffset":131808,
			"target":34963
		},
		{
			"buffer":0,
			"byteLength":1152,
			"byteOffset":132072,
			"target":34962
		},
		{
			"buffer":0,
			"byteLength":1152,
			"byteOffset":133224,
			"target":34962
		},
		{
			"buffer":0,
			"byteLength":768,
			"byteOffset":134376,
			"target":34962
		},
		{
			"buffer":0,
			"byteLength":768,
			"byteOffset":135144,
			"target":34962
		},
		{
			"buffer":0,
			"byteLength":768,
			"byteOffset":135912,
			"target":34962
		},
		{
			"buffer":0,
			"byteLength":288,
			"byteOffset":136680,
			"target":34963
		},
		{
			"buffer":0,
			"byteLength":2280,
			"byteOffset":136968,
			"target":34962
		},
		{
			"buffer":0,
			"byteLength":2280,
			"byteOffset":139248,
			"target":34962
		},
		{
			"buffer":0,
			"byteLength":1520,
			"byteOffset":141528,
			"target":34962
		},
		{
			"buffer":0,
			"byteLength":1520,
			"byteOffset":143048,
			"target":34962
		},
		{
			"buffer":0,
			"byteLength":1520,
			"byteOffset":144568,
			"target":34962
		},
		{
			"buffer":0,
			"byteLength":996,
			"byteOffset":146088,
			"target":34963
		},
		{
			"buffer":0,
			"byteLength":2424,
			"byteOffset":147084,
			"target":34962
		},
		{
			"buffer":0,
			"byteLength":2424,
			"byteOffset":149508,
			"target":34962
		},
		{
			"buffer":0,
			"byteLength":1616,
			"byteOffset":151932,
			"target":34962
		},
		{
			"buffer":0,
			"byteLength":1616,
			"byteOffset":153548,
			"target":34962
		},
		{
			"buffer":0,
			"byteLength":1616,
			"byteOffset":155164,
			"target":34962
		},
		{
			"buffer":0,
			"byteLength":624,
			"byteOffset":156780,
			"target":34963
		},
		{
			"buffer":0,
			"byteLength":51528,
			"byteOffset":157404,
			"target":34962
		},
		{
			"buffer":0,
			"byteLength":51528,
			"byteOffset":208932,
			"target":34962
		},
		{
			"buffer":0,
			"byteLength":34352,
			"byteOffset":260460,
			"target":34962
		},
		{
			"buffer":0,
			"byteLength":34352,
			"byteOffset":294812,
			"target":34962
		},
		{
			"buffer":0,
			"byteLength":34352,
			"byteOffset":329164,
			"target":34962
		},
		{
			"buffer":0,
			"byteLength":13944,
			"byteOffset":363516,
			"target":34963
		},
		{
			"buffer":0,
			"byteLength":1152,
			"byteOffset":377460,
			"target":34962
		},
		{
			"buffer":0,
			"byteLength":1152,
			"byteOffset":378612,
			"target":34962
		},
		{
			"buffer":0,
			"byteLength":768,
			"byteOffset":379764,
			"target":34962
		},
		{
			"buffer":0,
			"byteLength":768,
			"byteOffset":380532,
			"target":34962
		},
		{
			"buffer":0,
			"byteLength":768,
			"byteOffset":381300,
			"target":34962
		},
		{
			"buffer":0,
			"byteLength":984,
			"byteOffset":382068,
			"target":34962
		},
		{
			"buffer":0,
			"byteLength":984,
			"byteOffset":383052,
			"target":34962
		},
		{
			"buffer":0,
			"byteLength":656,
			"byteOffset":384036,
			"target":34962
		},
		{
			"buffer":0,
			"byteLength":656,
			"byteOffset":384692,
			"target":34962
		},
		{
			"buffer":0,
			"byteLength":656,
			"byteOffset":385348,
			"target":34962
		},
		{
			"buffer":0,
			"byteLength":384,
			"byteOffset":386004,
			"target":34963
		},
		{
			"buffer":0,
			"byteLength":480,
			"byteOffset":386388,
			"target":34962
		},
		{
			"buffer":0,
			"byteLength":480,
			"byteOffset":386868,
			"target":34962
		},
		{
			"buffer":0,
			"byteLength":320,
			"byteOffset":387348,
			"target":34962
		},
		{
			"buffer":0,
			"byteLength":320,
			"byteOffset":387668,
			"target":34962
		},
		{
			"buffer":0,
			"byteLength":320,
			"byteOffset":387988,
			"target":34962
		},
		{
			"buffer":0,
			"byteLength":132,
			"byteOffset":388308,
			"target":34963
		},
		{
			"buffer":0,
			"byteLength":2292,
			"byteOffset":388440,
			"target":34962
		},
		{
			"buffer":0,
			"byteLength":2292,
			"byteOffset":390732,
			"target":34962
		},
		{
			"buffer":0,
			"byteLength":1528,
			"byteOffset":393024,
			"target":34962
		},
		{
			"buffer":0,
			"byteLength":738,
			"byteOffset":394552,
			"target":34963
		},
		{
			"buffer":0,
			"byteLength":460236,
			"byteOffset":395292,
			"target":34962
		},
		{
			"buffer":0,
			"byteLength":460236,
			"byteOffset":855528,
			"target":34962
		},
		{
			"buffer":0,
			"byteLength":306824,
			"byteOffset":1315764,
			"target":34962
		},
		{
			"buffer":0,
			"byteLength":431184,
			"byteOffset":1622588,
			"target":34963
		},
		{
			"buffer":0,
			"byteLength":1176,
			"byteOffset":2053772,
			"target":34962
		},
		{
			"buffer":0,
			"byteLength":1176,
			"byteOffset":2054948,
			"target":34962
		},
		{
			"buffer":0,
			"byteLength":784,
			"byteOffset":2056124,
			"target":34962
		},
		{
			"buffer":0,
			"byteLength":784,
			"byteOffset":2056908,
			"target":34962
		},
		{
			"buffer":0,
			"byteLength":784,
			"byteOffset":2057692,
			"target":34962
		},
		{
			"buffer":0,
			"byteLength":264,
			"byteOffset":2058476,
			"target":34963
		},
		{
			"buffer":0,
			"byteLength":2472,
			"byteOffset":2058740,
			"target":34962
		},
		{
			"buffer":0,
			"byteLength":2472,
			"byteOffset":2061212,
			"target":34962
		},
		{
			"buffer":0,
			"byteLength":1648,
			"byteOffset":2063684,
			"target":34962
		},
		{
			"buffer":0,
			"byteLength":1648,
			"byteOffset":2065332,
			"target":34962
		},
		{
			"buffer":0,
			"byteLength":1648,
			"byteOffset":2066980,
			"target":34962
		},
		{
			"buffer":0,
			"byteLength":552,
			"byteOffset":2068628,
			"target":34963
		}
	],
	"samplers":[
		{
			"magFilter":9729,
			"minFilter":9987
		}
	],
	"buffers":[
		{
			"byteLength":2069180,
			"uri":"Chozuya.bin"
		}
	]
}
