{
	"asset":{
		"generator":"Khronos glTF Blender I/O v4.4.56",
		"version":"2.0"
	},
	"scene":0,
	"scenes":[
		{
			"name":"Scene",
			"nodes":[
				0
			]
		}
	],
	"nodes":[
		{
			"mesh":0,
			"name":"Lantern_Stone_A1",
			"rotation":[
				0.7071068286895752,
				0,
				0,
				0.7071068286895752
			],
			"scale":[
				0.009999999776482582,
				0.009999999776482582,
				0.009999999776482582
			]
		}
	],
	"materials":[
		{
			"doubleSided":true,
			"name":"tex_lantern_stone_A1",
			"pbrMetallicRoughness":{
				"baseColorTexture":{
					"index":0
				},
				"metallicFactor":0,
				"roughnessFactor":0.5527864098548889
			}
		}
	],
	"meshes":[
		{
			"name":"Scene",
			"primitives":[
				{
					"attributes":{
						"POSITION":0,
						"NORMAL":1,
						"TEXCOORD_0":2
					},
					"indices":3,
					"material":0
				}
			]
		}
	],
	"textures":[
		{
			"sampler":0,
			"source":0
		}
	],
	"images":[
		{
			"mimeType":"image/png",
			"name":"DiffuseColor_Texture",
			"uri":"DiffuseColor_Texture.png"
		}
	],
	"accessors":[
		{
			"bufferView":0,
			"componentType":5126,
			"count":1139,
			"max":[
				29.061830520629883,
				29.020112991333008,
				1.3584904670715332
			],
			"min":[
				-29.061826705932617,
				-29.1035213470459,
				-171.0414581298828
			],
			"type":"VEC3"
		},
		{
			"bufferView":1,
			"componentType":5126,
			"count":1139,
			"type":"VEC3"
		},
		{
			"bufferView":2,
			"componentType":5126,
			"count":1139,
			"type":"VEC2"
		},
		{
			"bufferView":3,
			"componentType":5123,
			"count":4050,
			"type":"SCALAR"
		}
	],
	"bufferViews":[
		{
			"buffer":0,
			"byteLength":13668,
			"byteOffset":0,
			"target":34962
		},
		{
			"buffer":0,
			"byteLength":13668,
			"byteOffset":13668,
			"target":34962
		},
		{
			"buffer":0,
			"byteLength":9112,
			"byteOffset":27336,
			"target":34962
		},
		{
			"buffer":0,
			"byteLength":8100,
			"byteOffset":36448,
			"target":34963
		}
	],
	"samplers":[
		{
			"magFilter":9729,
			"minFilter":9987
		}
	],
	"buffers":[
		{
			"byteLength":44548,
			"uri":"lantern1.bin"
		}
	]
}
